<svg width="184" height="72" viewBox="0 0 184 72" fill="none" xmlns="http://www.w3.org/2000/svg">
<rect width="184" height="72" fill="#F9FDFE"/>
<g clip-path="url(#clip0_3700_2669)">
<path d="M112.995 29.8841H106.821L106.24 33.1216L116.102 33.2637L114.159 36.2437C113.103 37.8635 111.269 38.8497 109.294 38.861L105.168 38.8835L104.587 42.1204L116.57 42.1456L113.804 45.9138C112.898 47.1489 111.432 47.8818 109.87 47.8818H102.106C99.7439 47.8818 97.9537 45.8118 98.3639 43.5536L101.061 28.7037C101.542 26.0553 103.915 24.1259 106.687 24.1307L119.621 24.1533L117.112 27.7599C116.19 29.0879 114.646 29.8841 112.995 29.8841Z" fill="#FFC021"/>
<path d="M127.265 42.12H136.906L136.421 44.8021C136.1 46.5818 134.505 47.8792 132.643 47.8754L114.459 47.8389L127.602 29.8471H117.393L119.629 26.2887C120.475 24.9431 121.982 24.1222 123.606 24.1222H135.198C137.48 24.1222 138.801 26.6311 137.464 28.4253L127.265 42.12Z" fill="#FFC021"/>
<path fill-rule="evenodd" clip-rule="evenodd" d="M66.1877 27.6082H68.0405V24.0085H66.1877V27.6082Z" fill="#00154D"/>
<path fill-rule="evenodd" clip-rule="evenodd" d="M66.1704 47.8457H68.0458V30.1023H66.1704V47.8457Z" fill="#00154D"/>
<path fill-rule="evenodd" clip-rule="evenodd" d="M77.4955 30.1L77.417 30.1531H77.4148C77.4419 30.1349 77.4679 30.1177 77.4955 30.1C70.8249 30.1 70.8582 35.8893 70.8582 35.8893V38.124V38.4443V47.8429H73.1255V37.0316C73.1255 35.6854 73.329 34.7304 73.7453 34.1718C74.5807 32.9281 75.7523 32.324 77.3258 32.324H77.8908V30.4423V30.1526V30.0995L77.4955 30.1Z" fill="#00154D"/>
<path fill-rule="evenodd" clip-rule="evenodd" d="M93.2868 43.192C89.9014 47.5524 81.1128 45.7336 80.8214 39.6883H97.1116C97.5368 34.1378 93.2961 30.0402 87.5119 30.103C81.0486 30.1733 78.5535 34.6051 78.3522 38.8465C78.2715 40.5479 78.6806 42.173 79.6686 43.6866C80.9259 45.6122 82.9058 47.0024 85.1826 47.5637C88.8349 48.4645 92.8721 47.4413 95.359 44.5064L93.2868 43.192ZM82.4574 34.5209C83.8037 33.1908 85.6376 32.416 87.5589 32.4101C87.6076 32.4101 87.6567 32.4101 87.7059 32.4112C90.8065 32.4562 93.8811 34.1485 94.5628 37.4579H80.9663C80.9624 37.452 80.9895 37.3162 81.031 37.121C81.2405 36.1397 81.7353 35.2366 82.4574 34.5209Z" fill="#00154D"/>
<path fill-rule="evenodd" clip-rule="evenodd" d="M63.752 35.3178C63.3297 34.1615 62.4296 33.0209 61.0761 31.9263L61.0225 31.8882C59.1266 30.7153 57.3259 30.1203 55.6694 30.1203H55.4488C53.8643 30.1203 52.5102 30.3671 51.4465 30.8441C50.1627 31.3549 49.1122 32.0428 48.3072 32.8975V24H46V47.7334H48.3072V39.6391C48.3072 37.458 48.8214 35.7744 49.8254 34.6449L50.3485 34.094C51.8451 32.9575 53.4866 32.3813 55.199 32.3802C56.2771 32.4393 57.139 32.5723 57.7334 32.7671C60.7051 33.9239 62.1503 35.982 62.1503 39.0585V47.7339H64.4575V39.27C64.4575 37.4216 64.2265 36.128 63.752 35.3178Z" fill="#00154D"/>
</g>
<defs>
<clipPath id="clip0_3700_2669">
<rect width="92" height="24" fill="white" transform="translate(46 24)"/>
</clipPath>
</defs>
</svg>
