<svg width="184" height="72" viewBox="0 0 184 72" fill="none" xmlns="http://www.w3.org/2000/svg">
<rect width="184" height="72" fill="#F9FDFE"/>
<g clip-path="url(#clip0_1539_10390)">
<path d="M161.27 25.5H22.7299C20.9642 25.5 19.5328 26.8431 19.5328 28.5V43.5C19.5328 45.1569 20.9642 46.5 22.7299 46.5H161.27C163.036 46.5 164.467 45.1569 164.467 43.5V28.5C164.467 26.8431 163.036 25.5 161.27 25.5Z" fill="#231F20" stroke="#FCEB09"/>
<path fill-rule="evenodd" clip-rule="evenodd" d="M157.743 30C157.74 30.143 157.777 30.2842 157.849 30.41C157.931 30.5368 158.044 30.6432 158.18 30.72C158.313 30.7904 158.464 30.825 158.617 30.82C158.766 30.8236 158.913 30.7891 159.043 30.72C159.178 30.6432 159.291 30.5368 159.373 30.41C159.443 30.2833 159.48 30.1427 159.48 30C159.48 29.8573 159.443 29.7167 159.373 29.59C159.291 29.4661 159.177 29.3631 159.043 29.29C158.914 29.2174 158.767 29.1794 158.617 29.18C158.463 29.1781 158.312 29.2161 158.18 29.29C158.045 29.3631 157.931 29.4661 157.849 29.59C157.777 29.7158 157.74 29.857 157.743 30ZM157.54 30C157.541 29.8282 157.588 29.6595 157.679 29.51C157.776 29.3585 157.912 29.2315 158.073 29.14C158.234 29.0501 158.418 29.0018 158.606 29C158.789 28.9966 158.97 29.0416 159.128 29.13C159.29 29.2215 159.425 29.3485 159.522 29.5C159.616 29.652 159.665 29.8245 159.665 30C159.665 30.1755 159.616 30.348 159.522 30.5C159.428 30.654 159.292 30.7817 159.128 30.87C158.966 30.9578 158.782 31.004 158.595 31.004C158.408 31.004 158.224 30.9578 158.062 30.87C157.903 30.7756 157.769 30.6493 157.668 30.5C157.584 30.3453 157.54 30.1738 157.54 30Z" fill="#FDEC0A"/>
<path fill-rule="evenodd" clip-rule="evenodd" d="M158.51 30C158.552 30.0117 158.596 30.0117 158.638 30C158.652 29.9611 158.652 29.919 158.638 29.88C158.652 29.8445 158.652 29.8055 158.638 29.77C158.596 29.757 158.551 29.757 158.51 29.77V30ZM158.979 29.82C158.985 29.8749 158.972 29.9302 158.941 29.9773C158.91 30.0243 158.863 30.0604 158.808 30.08L159.021 30.53H158.712L158.606 30.12H158.553V30.5H158.276V29.5H158.595C158.707 29.489 158.82 29.5136 158.915 29.57C158.952 29.5989 158.981 29.6359 159 29.6777C159.018 29.7195 159.026 29.7649 159.021 29.81L158.979 29.82Z" fill="#FDEC0A"/>
<path fill-rule="evenodd" clip-rule="evenodd" d="M32.6942 29L30.8612 34.13L29.0282 29H26.4492V43H28.9429V34.54L30.8399 39.85H30.8825L32.7794 34.54V43H35.2732V29H32.6942Z" fill="#FCEB09"/>
<path fill-rule="evenodd" clip-rule="evenodd" d="M42.3707 36.37V35.65C42.3707 32 41.8379 31 41.0492 31C40.2606 31 39.7278 32 39.7278 35.61V36.33C39.7278 39.93 40.2606 40.93 41.0492 40.93C41.8379 40.93 42.3707 39.93 42.3707 36.33M37.0422 36.33V35.61C37.1168 31 38.6834 28.8 41.0492 28.8C43.4151 28.8 45.0136 31 45.0136 35.65V36.37C45.0136 40.99 43.4151 43.21 41.0492 43.21C38.6834 43.21 37.1168 41 37.1168 36.37" fill="#FCEB09"/>
<path fill-rule="evenodd" clip-rule="evenodd" d="M49.5534 35.92C50.683 35.92 51.5142 35.31 51.5142 33.66V33.5C51.5142 31.74 50.6191 31.28 49.4894 31.28H49.4255V35.92H49.5534ZM46.8252 29H49.5107C52.175 29 54.1678 30.32 54.1678 33.46V33.64C54.2143 34.3416 54.0797 35.0434 53.7754 35.6858C53.4711 36.3282 53.0062 36.8922 52.4201 37.33L54.3703 43H51.5995L49.905 38.13H49.4148V43H46.8252V29Z" fill="#FCEB09"/>
<path fill-rule="evenodd" clip-rule="evenodd" d="M55.5852 36.25V35.77C55.5852 31.24 57.6313 28.9 60.5726 28.9C61.2571 28.8914 61.9347 29.0281 62.5548 29.3V31.84C61.9954 31.4763 61.3378 31.2683 60.6579 31.24C59.1659 31.24 58.2281 32.64 58.2281 35.66V36.35C58.2281 40.01 59.3791 40.85 60.4448 40.85H60.6792V37.24H59.4004V35.06H63.0451V42.51C62.2006 42.8939 61.2765 43.0988 60.3382 43.11C57.7379 43.11 55.5852 41.11 55.5852 36.25Z" fill="#FCEB09"/>
<path fill-rule="evenodd" clip-rule="evenodd" d="M69.2261 38L68.4375 33.4L67.6276 38H69.2261ZM67.0948 29H69.8656L72.7003 43H70.1533L69.6631 40.22H67.244L66.775 43H64.26L67.0948 29Z" fill="#FCEB09"/>
<path fill-rule="evenodd" clip-rule="evenodd" d="M74.0217 29H76.4515L79.0731 36.09V29H81.6095V43H79.3076L76.5581 35.59V43H74.0217V29Z" fill="#FCEB09"/>
<path fill-rule="evenodd" clip-rule="evenodd" d="M91.0942 34.1C91.3963 33.8305 91.6341 33.5041 91.7921 33.1421C91.9501 32.7801 92.0246 32.3909 92.0107 32V31.88C92.0107 31.2 91.6697 30.76 91.1794 30.76C90.6892 30.76 90.4015 31.2 90.4015 31.8V32C90.4692 32.7456 90.7249 33.4654 91.1475 34.1M92.405 40.43L90.4761 37C89.9389 37.6176 89.632 38.3833 89.6022 39.18V39.34C89.6022 40.42 90.1564 41.14 91.0089 41.14C91.2723 41.1369 91.5312 41.0756 91.7645 40.9609C91.9979 40.8462 92.199 40.6814 92.3517 40.48M87.1085 39.48V39.36C87.1289 38.5542 87.3449 37.7633 87.7401 37.0477C88.1353 36.332 88.6993 35.7103 89.3891 35.23C88.6479 34.289 88.2113 33.1677 88.1315 32V31.86C88.1083 31.4659 88.1711 31.0715 88.316 30.701C88.4609 30.3305 88.6848 29.9916 88.9742 29.7051C89.2635 29.4187 89.6121 29.1906 89.9986 29.035C90.3851 28.8794 90.8014 28.7994 91.2221 28.8C91.6352 28.7932 92.0453 28.8676 92.426 29.0184C92.8068 29.1691 93.1496 29.393 93.4327 29.6755C93.7157 29.958 93.9326 30.293 94.0695 30.6589C94.2063 31.0248 94.2601 31.4135 94.2273 31.8V32C94.2084 32.7405 94.0059 33.4668 93.636 34.1211C93.266 34.7755 92.7388 35.34 92.0959 35.77L93.4387 38.17C93.5453 37.73 93.6305 37.17 93.7584 36.29L95.7619 36.63C95.6431 37.8694 95.3195 39.0839 94.8028 40.23L96.039 42.23L94.1634 43.31L93.46 42C93.1293 42.3869 92.7061 42.6954 92.2247 42.9004C91.7434 43.1054 91.2173 43.2012 90.6892 43.18C90.1864 43.1612 89.6928 43.0475 89.2379 42.8455C88.7831 42.6436 88.3763 42.3576 88.042 42.0047C87.7077 41.6518 87.4527 41.2392 87.2923 40.7916C87.1319 40.3441 87.0694 39.8707 87.1085 39.4" fill="#FCEB09"/>
<path fill-rule="evenodd" clip-rule="evenodd" d="M101.303 29H103.882L105.715 34.13L107.548 29H110.127V43H107.634V34.54L105.737 39.85H105.694L103.797 34.54V43H101.303V29Z" fill="#FCEB09"/>
<path fill-rule="evenodd" clip-rule="evenodd" d="M117.225 36.37V35.65C117.225 32 116.692 31 115.903 31C115.115 31 114.582 32 114.582 35.61V36.33C114.582 39.93 115.115 40.93 115.903 40.93C116.692 40.93 117.225 39.93 117.225 36.33M111.896 36.33V35.61C111.896 30.98 113.495 28.76 115.861 28.76C118.227 28.76 119.879 31 119.879 35.65V36.37C119.879 40.99 118.269 43.21 115.903 43.21C113.538 43.21 111.939 41 111.939 36.37" fill="#FCEB09"/>
<path fill-rule="evenodd" clip-rule="evenodd" d="M124.418 35.92C125.548 35.92 126.379 35.31 126.379 33.66V33.5C126.379 31.74 125.484 31.28 124.354 31.28H124.29V35.92H124.418ZM121.69 29H124.376C127.04 29 128.98 30.32 128.98 33.46V33.64C129.026 34.3416 128.891 35.0434 128.587 35.6858C128.283 36.3282 127.818 36.8922 127.232 37.33L129.235 43H126.464L124.781 38.12H124.29V43H121.69V29Z" fill="#FCEB09"/>
<path fill-rule="evenodd" clip-rule="evenodd" d="M130.45 36.25V35.77C130.45 31.24 132.496 28.9 135.438 28.9C136.122 28.8914 136.8 29.0281 137.42 29.3V31.84C136.86 31.4763 136.203 31.2683 135.523 31.24C134.031 31.24 133.093 32.64 133.093 35.66V36.35C133.093 40.01 134.244 40.85 135.31 40.85H135.544V37.24H134.265V35.06H137.91V42.51C137.066 42.8939 136.141 43.0988 135.203 43.11C132.603 43.11 130.45 41.11 130.45 36.25Z" fill="#FCEB09"/>
<path fill-rule="evenodd" clip-rule="evenodd" d="M144.091 38L143.303 33.37L142.493 38H144.091ZM141.96 28.93H144.752L147.565 43H144.965L144.475 40.22H142.109L141.64 43H139.125L141.96 28.93Z" fill="#FCEB09"/>
<path fill-rule="evenodd" clip-rule="evenodd" d="M148.887 29H151.317L153.938 36.09V29H156.474V43H154.173L151.423 35.59V43H148.887V29Z" fill="#FCEB09"/>
</g>
<defs>
<clipPath id="clip0_1539_10390">
<rect width="146" height="22" fill="white" transform="translate(19 25)"/>
</clipPath>
</defs>
</svg>
