<svg width="184" height="72" viewBox="0 0 184 72" fill="none" xmlns="http://www.w3.org/2000/svg">
<rect width="184" height="72" fill="#F9FDFE"/>
<g clip-path="url(#clip0_3700_2651)">
<path fill-rule="evenodd" clip-rule="evenodd" d="M112.325 33.6823C111.998 33.3776 111.625 33.1262 111.219 32.9374C110.803 32.7349 110.346 32.6303 109.883 32.6315C109.537 32.6289 109.194 32.7013 108.878 32.8435C108.741 32.9095 108.627 33.0137 108.549 33.1436C108.471 33.2734 108.433 33.4232 108.439 33.5744C108.445 33.7257 108.495 33.872 108.583 33.9952C108.671 34.1185 108.793 34.2134 108.935 34.2683C109.47 34.4642 110.018 34.6206 110.577 34.7361C111.024 34.8326 111.463 34.9655 111.89 35.1334C112.329 35.2966 112.74 35.5251 113.111 35.8112C113.47 36.09 113.768 36.4404 113.984 36.8402C114.216 37.2871 114.331 37.7848 114.321 38.2878C114.345 38.9379 114.196 39.5827 113.889 40.1565C113.603 40.6476 113.204 41.0641 112.726 41.3722C112.242 41.6914 111.704 41.9203 111.138 42.0476C110.556 42.1874 109.959 42.2583 109.361 42.2587C108.406 42.2575 107.457 42.108 106.548 41.8157C105.697 41.5382 104.919 41.075 104.27 40.46L106.409 38.193C106.772 38.5788 107.203 38.8954 107.68 39.1276C108.175 39.3762 108.721 39.5045 109.275 39.502C109.591 39.5014 109.902 39.4289 110.185 39.29C110.335 39.2202 110.459 39.1069 110.542 38.9649C110.625 38.823 110.662 38.6592 110.65 38.4954C110.649 38.3207 110.594 38.1506 110.492 38.0083C110.39 37.8661 110.247 37.7587 110.082 37.7008C109.513 37.469 108.924 37.2889 108.323 37.1625C107.908 37.066 107.5 36.9411 107.102 36.7886C106.703 36.6374 106.33 36.4246 105.998 36.1579C105.677 35.8839 105.413 35.5509 105.219 35.1771C105.004 34.7415 104.896 34.2605 104.906 33.7747C104.881 33.1536 105.031 32.5382 105.34 31.9983C105.622 31.5124 106.011 31.0971 106.478 30.7841C106.948 30.4706 107.469 30.2414 108.018 30.1067C108.574 29.9537 109.148 29.8749 109.725 29.8723C110.594 29.8716 111.458 30.0139 112.281 30.2934C113.077 30.5309 113.809 30.9467 114.42 31.5091L112.325 33.6823Z" fill="#A7A9AC"/>
<path fill-rule="evenodd" clip-rule="evenodd" d="M127.584 36.0188C127.601 36.9085 127.432 37.792 127.087 38.6126C126.762 39.3554 126.288 40.0236 125.693 40.5757C125.093 41.1122 124.397 41.5319 123.642 41.8132C122.842 42.1123 121.994 42.2626 121.14 42.2567C120.285 42.2595 119.436 42.1093 118.633 41.8132C117.873 41.532 117.171 41.1132 116.563 40.5777C115.974 40.0206 115.501 39.3536 115.17 38.6146C114.812 37.7967 114.631 36.9131 114.638 36.0208C114.618 35.1382 114.787 34.2616 115.135 33.4499C115.452 32.717 115.918 32.0575 116.503 31.5131C117.1 30.977 117.798 30.5638 118.555 30.2974C120.178 29.7347 121.943 29.7347 123.566 30.2974C124.327 30.5653 125.029 30.9781 125.633 31.5131C126.237 32.0517 126.719 32.7118 127.049 33.4499C127.408 34.2593 127.59 35.1358 127.582 36.0208M123.883 36.0208C123.88 35.6465 123.814 35.2753 123.688 34.9228C123.569 34.5789 123.385 34.2613 123.145 33.9877C122.904 33.7048 122.608 33.4744 122.274 33.3108C121.901 33.1336 121.492 33.0455 121.08 33.0536C120.668 33.0446 120.26 33.1328 119.888 33.3108C119.557 33.4739 119.263 33.7045 119.026 33.9877C118.802 34.2666 118.629 34.5833 118.516 34.9228C118.303 35.6403 118.308 36.405 118.532 37.1193C118.657 37.4744 118.841 37.8059 119.076 38.1001C119.316 38.3835 119.613 38.6142 119.947 38.7775C120.486 39.0448 121.1 39.1234 121.689 39.0006C122.279 38.8777 122.81 38.5606 123.197 38.1001C123.427 37.808 123.6 37.4753 123.706 37.1193C123.826 36.7655 123.887 36.3943 123.885 36.0208" fill="#A7A9AC"/>
<path fill-rule="evenodd" clip-rule="evenodd" d="M136.185 27.0462C136.025 26.9955 135.86 26.9567 135.694 26.93C135.508 26.8996 135.32 26.8841 135.132 26.8838C134.832 26.8704 134.533 26.9352 134.266 27.0721C134.052 27.1929 133.876 27.37 133.755 27.5841C133.627 27.7997 133.542 28.0376 133.503 28.2853C133.457 28.5477 133.436 28.8136 133.438 29.0798L133.446 30.2493H136.458L133.468 33.6084L133.523 41.8848H129.683L129.629 33.6089H127.498L127.474 30.2498H129.605L129.599 29.1275C129.591 28.4438 129.664 27.7616 129.818 27.0954C129.954 26.4772 130.222 25.8956 130.604 25.3905C131.009 24.8774 131.538 24.4749 132.141 24.2205C132.911 23.9038 133.739 23.7531 134.572 23.7781C134.893 23.778 135.214 23.8011 135.532 23.8471C135.834 23.8737 136.132 23.9289 136.423 24.012L136.185 27.0462Z" fill="#A7A9AC"/>
<path fill-rule="evenodd" clip-rule="evenodd" d="M142.261 33.6074L142.286 37.5609C142.262 37.9958 142.371 38.4278 142.6 38.7989C142.75 38.9456 142.931 39.0573 143.13 39.126C143.328 39.1947 143.54 39.2187 143.749 39.1962C143.945 39.1959 144.141 39.1806 144.335 39.1505C144.519 39.1287 144.7 39.0812 144.871 39.0095L144.937 41.8138C144.609 41.9219 144.272 41.9997 143.931 42.0462C143.53 42.1245 143.123 42.1637 142.715 42.1634C142.048 42.1812 141.383 42.0865 140.747 41.8833C140.256 41.7083 139.813 41.4201 139.454 41.0421C139.134 40.6595 138.9 40.2135 138.766 39.7335C138.617 39.1776 138.542 38.6043 138.545 38.0287L138.515 33.6089H134.747L137.658 30.2493H138.471L138.45 27.1868H142.218L142.238 30.2478H144.977L144.999 33.6074H142.261Z" fill="#A7A9AC"/>
<path fill-rule="evenodd" clip-rule="evenodd" d="M77.0865 33.5512C76.7592 33.2459 76.3864 32.9933 75.9814 32.8023C75.5647 32.6016 75.1077 32.4979 74.645 32.4989C74.2989 32.4967 73.9564 32.5679 73.64 32.7079C73.5008 32.7689 73.3838 32.8712 73.305 33.001C73.2262 33.1307 73.1894 33.2816 73.1997 33.433C73.1973 33.5874 73.2442 33.7385 73.3337 33.8645C73.4231 33.9905 73.5505 34.0848 73.6972 34.1337C74.232 34.3304 74.7808 34.4868 75.3391 34.6015C75.786 34.699 76.2243 34.8319 76.6501 34.9988C77.0894 35.1631 77.5017 35.3921 77.8731 35.6781C78.2325 35.956 78.5299 36.3056 78.7463 36.7046C78.9774 37.1524 79.0932 37.6506 79.0831 38.1542C79.1076 38.8043 78.9587 39.4491 78.6517 40.023C78.3647 40.5131 77.9666 40.9295 77.4895 41.2386C77.0049 41.5569 76.4672 41.7859 75.9018 41.915C75.3189 42.0534 74.7218 42.1238 74.1226 42.1251C73.1676 42.1245 72.2186 41.9749 71.31 41.6816C70.4594 41.4033 69.6812 40.9403 69.0312 40.3259L71.1707 38.0599C71.5332 38.4463 71.9636 38.7632 72.4404 38.995C72.9347 39.2415 73.48 39.3691 74.0326 39.3674C74.3485 39.3671 74.6603 39.2955 74.9445 39.1579C75.093 39.0875 75.2165 38.974 75.299 38.8321C75.3814 38.6903 75.4188 38.5268 75.4063 38.3633C75.4058 38.1887 75.3511 38.0185 75.2497 37.8762C75.1483 37.7339 75.0052 37.6265 74.8401 37.5687C74.2712 37.3365 73.6823 37.1564 73.0808 37.0309C72.6664 36.9349 72.2592 36.8101 71.8623 36.6575C71.4629 36.5063 71.0897 36.2936 70.7562 36.0273C70.4363 35.7528 70.1722 35.4197 69.9781 35.046C69.7624 34.6105 69.6548 34.1297 69.6641 33.644C69.639 33.023 69.7894 32.4075 70.098 31.8677C70.3794 31.3813 70.7684 30.9655 71.2354 30.652C71.7069 30.3401 72.2286 30.1113 72.7777 29.9756C73.3336 29.8221 73.9076 29.7434 74.4843 29.7417C75.3534 29.7405 76.2167 29.883 77.0392 30.1633C77.8357 30.3993 78.5675 30.8142 79.1786 31.376L77.0865 33.5512Z" fill="#0060A9"/>
<path fill-rule="evenodd" clip-rule="evenodd" d="M80.2398 41.8833L80.1627 30.2483H84.0008L84.0092 31.4004L81.1961 33.6153H84.0237L84.0774 41.8828L80.2398 41.8833Z" fill="#0060A9"/>
<path fill-rule="evenodd" clip-rule="evenodd" d="M100.195 41.8828L100.154 35.5263C100.153 35.2127 100.127 34.8996 100.075 34.5902C100.039 34.3114 99.9501 34.0419 99.8142 33.7956C99.6917 33.5801 99.5122 33.4025 99.2953 33.2821C99.05 33.1292 98.7636 33.0552 98.4748 33.0701C98.1732 33.0637 97.8753 33.1368 97.6111 33.2821C97.3726 33.4246 97.1666 33.6153 97.0061 33.8418C96.843 34.092 96.7252 34.3689 96.6578 34.6597C96.5808 34.9655 96.5437 35.28 96.5473 35.5953L96.5881 41.8794H92.7506L92.7073 35.2447C92.7337 34.686 92.5912 34.1324 92.2983 33.6556C92.1551 33.4577 91.9633 33.2999 91.7414 33.1974C91.5195 33.0949 91.2749 33.051 91.0311 33.0701C90.7516 33.0599 90.4741 33.1212 90.225 33.2481C89.9759 33.375 89.7634 33.5633 89.6076 33.7951C89.2706 34.3243 89.1031 34.9434 89.1275 35.57L89.1693 41.8769H85.3083L85.2302 30.2419H88.9529L88.9623 31.8544H89.0121C89.1568 31.5962 89.3274 31.3533 89.521 31.1293C89.7458 30.8898 90.0053 30.6853 90.2907 30.5225C90.595 30.3301 90.9245 30.1806 91.2699 30.0785C91.6654 29.9658 92.0751 29.9106 92.4864 29.9146C93.2314 29.8927 93.9684 30.0729 94.6189 30.4361C95.2167 30.7809 95.7008 31.2923 96.012 31.9075C96.385 31.3132 96.8953 30.8168 97.5001 30.4599C98.178 30.0831 98.9457 29.8974 99.7212 29.9226C100.412 29.8982 101.097 30.0511 101.711 30.3665C102.236 30.6266 102.689 31.0116 103.029 31.4874C103.366 31.9506 103.608 32.4751 103.742 33.0313C103.899 33.5705 103.982 34.1285 103.987 34.69L104.037 41.8853L100.195 41.8828Z" fill="#0060A9"/>
<path d="M55.9846 21L55.4537 23.4984C48.613 23.5019 42.0265 28.4148 40.7384 34.4734C39.1497 41.9454 47.4129 45.7236 50.3479 43.536C50.8783 43.1387 51.8575 41.6842 50.6892 40.4382L48.5409 38.1573C47.9551 37.5613 47.2282 36.81 46.3601 35.9032C45.8899 35.4364 45.5488 34.8561 45.3699 34.2187C45.1911 33.5814 45.1807 32.9086 45.3397 32.266C45.6843 30.6438 46.7973 29.261 48.6787 28.1179C50.5431 26.9793 52.6936 26.3937 54.879 26.4294C62.4915 26.4294 65.7469 33.1669 64.601 38.56C63.2447 44.9429 56.7399 50.2134 49.6086 51.0025L50.1385 48.5095C56.3543 47.7954 62.0203 43.1958 63.1885 37.6338C64.1756 32.9295 61.5008 29.0013 58.1633 27.7355C55.691 26.7984 52.8142 29.4339 55.8249 31.9368C57.17 33.0975 58.4526 34.3285 59.6674 35.6246C60.3281 36.5122 60.5059 37.6734 60.2008 39.1083C59.8759 40.6199 59.0682 41.9855 57.8991 42.9997C56.6404 44.1176 55.1315 44.918 53.4989 45.3337C52.2393 45.6665 50.9408 45.8295 49.6379 45.8184C46.4228 45.8184 37.1615 43.7525 39.3293 33.5522C40.7901 26.6742 48.2269 21.0874 55.9891 21.007" fill="#0060A9"/>
</g>
<defs>
<clipPath id="clip0_3700_2651">
<rect width="106" height="30" fill="white" transform="translate(39 21)"/>
</clipPath>
</defs>
</svg>
