<svg width="184" height="72" viewBox="0 0 184 72" fill="none" xmlns="http://www.w3.org/2000/svg">
<rect width="184" height="72" fill="#F9FDFE"/>
<mask id="mask0_1539_10371" style="mask-type:luminance" maskUnits="userSpaceOnUse" x="19" y="24" width="146" height="24">
<path d="M165 24H19V48H165V24Z" fill="white"/>
</mask>
<g mask="url(#mask0_1539_10371)">
<path d="M28.0455 39.0785L28.6191 38.5191L28.8031 38.3355C28.8031 38.3355 33.7591 35.1121 36.732 35.1121H36.9886C34.2106 34.9713 31.5798 33.8433 29.5879 31.939L22.2325 24.7343H21.7466L20.9376 25.5305V26.0071L28.0728 33.0075C28.8858 33.8183 29.3393 34.9113 29.3341 36.0485C29.3291 37.1856 28.8658 38.2748 28.0455 39.0785Z" fill="url(#paint0_linear_1539_10371)"/>
<path d="M33.1466 29.337L27.7439 24.0387H27.2579L26.4491 24.8319V25.3085L32.1022 30.8556C33.4881 32.2142 35.3673 32.9776 37.3267 32.9779H41.4195L41.7636 32.6433V31.5156L41.4195 31.1811H37.6859C35.9833 31.1811 34.3505 30.5177 33.1466 29.337Z" fill="url(#paint1_linear_1539_10371)"/>
<path d="M33.1466 42.7812L27.7439 48.0797H27.2579L26.4491 47.2835V46.8069L32.1022 41.2628C33.4881 39.9042 35.3673 39.1408 37.3267 39.1405H41.4195L41.7636 39.4749V40.5998L41.4195 40.9372H37.6859C35.9833 40.9372 34.3505 41.6005 33.1466 42.7812Z" fill="url(#paint2_linear_1539_10371)"/>
<path d="M24.6262 33.185L21.3274 29.9527H20.8444L20.0325 30.7489V31.2225L23.1746 34.3068C23.4063 34.5336 23.5902 34.8031 23.7156 35.0997C23.8411 35.3963 23.9057 35.7143 23.9057 36.0354C23.9057 36.3566 23.8411 36.6746 23.7156 36.9713C23.5902 37.2678 23.4063 37.5373 23.1746 37.7642L20.2649 40.6205V41.0941L21.0769 41.8903H21.5598L24.6232 38.8889C25.0055 38.5147 25.309 38.0702 25.516 37.5811C25.723 37.0918 25.8298 36.5673 25.8301 36.0376C25.8304 35.5078 25.7242 34.9833 25.5176 34.4938C25.3112 34.0043 25.0082 33.5596 24.6262 33.185Z" fill="url(#paint3_linear_1539_10371)"/>
<path d="M44.5313 35.112H36.7323C33.7582 35.1139 30.9065 36.2733 28.8034 38.3354L20.8594 46.1261V46.6028L21.6712 47.399H22.1572L29.564 40.144C30.6045 39.1204 31.8407 38.3083 33.2018 37.7541C34.5628 37.2 36.0221 36.9147 37.4959 36.9146H44.5374L44.8754 36.592V35.4671L44.5313 35.112Z" fill="url(#paint4_linear_1539_10371)"/>
<path d="M48.3977 31.264H57.7541L57.9805 31.486V32.6966L57.7541 32.9186H54.247L54.0206 33.1407V40.8367L53.7942 41.0587H52.3635L52.1372 40.8367V33.1407L51.9108 32.9186H48.3977L48.1713 32.6966V31.4978L48.3977 31.264Z" fill="#0A1321"/>
<path d="M61.2914 31.4979L61.5178 31.2759H66.8752C69.0695 31.2759 70.2919 32.2675 70.2919 34.2003C70.2919 35.4347 69.6882 36.3345 68.5715 36.7637L68.4507 37.0775L70.491 40.7361L70.2919 41.0646H68.8099L68.6107 40.9492L66.4708 37.1544L66.2715 37.042H63.3982L63.1718 37.264V40.8455L62.9455 41.0676H61.5118L61.2854 40.8455L61.2914 31.4979ZM63.1778 33.1377V35.2097L63.4042 35.4317H66.7243C67.8079 35.4317 68.3541 35.0203 68.3541 34.2062C68.3541 33.3182 67.8079 32.9216 66.7243 32.9216H63.4042L63.1778 33.1377Z" fill="#0A1321"/>
<path d="M80.7503 39.0547H76.0087L75.8034 39.185L75.0097 40.9373L74.8014 41.0675H73.413L73.2047 40.7538L77.4877 31.3646L77.6958 31.2343H79.1868L79.3951 31.3646L83.6751 40.7538L83.4698 41.0675H81.9607L81.7554 40.9373L80.9586 39.185L80.7503 39.0547ZM80.0531 37.1426L78.6014 33.9517H78.1878L76.7331 37.1426L76.9413 37.4385H79.8419L80.0531 37.1426Z" fill="#0A1321"/>
<path d="M85.9329 36.1716C85.9329 33.3034 88.0456 31.1101 90.9672 31.1101C93.7984 31.1101 95.1325 32.8239 95.5369 33.9902L95.3225 34.2861H93.8134L93.6233 34.1825C93.3395 33.7485 92.946 33.3939 92.4812 33.1532C92.0163 32.9125 91.4958 32.7939 90.9702 32.809C89.0989 32.809 87.8917 34.3394 87.8917 36.1747C87.8917 38.0098 89.108 39.5519 90.9672 39.5519C92.5759 39.5519 93.3456 38.7054 93.6505 38.1756L93.8467 38.063H95.3255L95.5399 38.3592C95.1686 39.4602 93.895 41.251 90.9672 41.251C88.0396 41.251 85.9329 39.0399 85.9329 36.1716Z" fill="#0A1321"/>
<path d="M99.3939 31.264H107.588L107.815 31.486V32.6405L107.588 32.8624H101.277L101.051 33.0844V34.8604L101.277 35.0823H105.05L105.276 35.3045V36.4885L105.05 36.7104H101.277L101.051 36.9353V39.1938L101.277 39.4159H107.588L107.815 39.6379V40.8219L107.588 41.0439H99.3939L99.1675 40.8219V31.4978L99.3939 31.264Z" fill="#0A1321"/>
<path d="M148.293 31.264H156.487L156.714 31.486V32.6405L156.487 32.8624H150.176L149.949 33.0844V34.8604L150.176 35.0823H153.946L154.171 35.3045V36.4885L153.946 36.7104H150.176L149.949 36.9353V39.1938L150.176 39.4159H156.487L156.714 39.6379V40.8219L156.487 41.0439H148.293L148.063 40.8219V31.4978L148.293 31.264Z" fill="#0A1321"/>
<path d="M117.893 39.0547H113.151L112.946 39.185L112.152 40.9373L111.944 41.0675H110.537L110.329 40.7538L114.612 31.3646L114.82 31.2343H116.311L116.519 31.3646L120.814 40.7538L120.609 41.0675H119.1L118.892 40.9373L118.098 39.185L117.893 39.0547ZM117.177 37.1426L115.729 33.9517H115.315L113.857 37.1426L114.065 37.4385H116.966L117.177 37.1426Z" fill="#0A1321"/>
<path d="M124.101 31.4979L124.327 31.2759H129.459C131.638 31.2759 132.806 32.2675 132.806 33.9221C132.809 34.2843 132.712 34.6406 132.525 34.9532C132.339 35.2657 132.07 35.5231 131.746 35.6982V36.0858C132.146 36.2941 132.477 36.6082 132.704 36.9923C132.93 37.3764 133.042 37.8152 133.026 38.2585C133.026 39.9694 131.846 41.0587 129.54 41.0587H124.327L124.101 40.8367V31.4979ZM125.957 33.0696V35.0262L126.184 35.2482H129.25C130.334 35.2482 130.868 34.8486 130.868 34.0465C130.868 33.2442 130.319 32.8476 129.25 32.8476H126.184L125.957 33.0696ZM125.957 37.0272V39.2738L126.184 39.4958H129.305C130.53 39.4958 131.091 39.0281 131.091 38.1431C131.091 37.2581 130.488 36.8052 129.305 36.8052H126.184L125.957 37.0272Z" fill="#0A1321"/>
<path d="M144.508 41.0676H136.902L136.675 40.8455V31.4979L136.902 31.2759H138.333L138.559 31.4979V39.1761L138.785 39.3981H144.52L144.747 39.6202V40.8455L144.508 41.0676Z" fill="#0A1321"/>
<path d="M164.993 41.0675H160.268L160.046 40.8485V39.6645L160.268 39.4454H164.993L165.215 39.6645V40.8485L164.993 41.0675Z" fill="url(#paint5_linear_1539_10371)"/>
</g>
<defs>
<linearGradient id="paint0_linear_1539_10371" x1="20.9376" y1="22.9727" x2="26.2912" y2="41.897" gradientUnits="userSpaceOnUse">
<stop stop-color="#2152CF"/>
<stop offset="1" stop-color="#608BFF"/>
</linearGradient>
<linearGradient id="paint1_linear_1539_10371" x1="41.0363" y1="32.1333" x2="34.1812" y2="19.734" gradientUnits="userSpaceOnUse">
<stop stop-color="#B5B4B4"/>
<stop offset="1" stop-color="#DCDCDC"/>
</linearGradient>
<linearGradient id="paint2_linear_1539_10371" x1="41.0363" y1="47.2351" x2="34.1812" y2="34.8358" gradientUnits="userSpaceOnUse">
<stop stop-color="#B5B4B4"/>
<stop offset="1" stop-color="#DCDCDC"/>
</linearGradient>
<linearGradient id="paint3_linear_1539_10371" x1="25.5548" y1="40.7626" x2="16.7771" y2="36.2618" gradientUnits="userSpaceOnUse">
<stop stop-color="#B5B4B4"/>
<stop offset="1" stop-color="#DCDCDC"/>
</linearGradient>
<linearGradient id="paint4_linear_1539_10371" x1="43.735" y1="46.2381" x2="35.0025" y2="28.2175" gradientUnits="userSpaceOnUse">
<stop stop-color="#B5B4B4"/>
<stop offset="1" stop-color="#DCDCDC"/>
</linearGradient>
<linearGradient id="paint5_linear_1539_10371" x1="165" y1="37.5001" x2="161.383" y2="35.4732" gradientUnits="userSpaceOnUse">
<stop stop-color="#497EDC"/>
<stop offset="1" stop-color="#AEC2FF"/>
</linearGradient>
</defs>
</svg>
