<svg width="184" height="72" viewBox="0 0 184 72" fill="none" xmlns="http://www.w3.org/2000/svg">
<rect width="184" height="72" fill="#F9FDFE"/>
<g clip-path="url(#clip0_3700_2657)">
<path fill-rule="evenodd" clip-rule="evenodd" d="M148.446 43.0167C147.975 43.0167 147.569 43.4061 147.367 44.3146L147.358 44.3569C146.956 46.2257 146.543 48.143 144.733 48.0786C143.585 48.0786 143.248 46.4563 143.315 46.0668L143.518 35.8782C143.585 34.9047 142.843 33.9961 141.762 33.9313H141.425C140.817 33.9313 140.007 34.061 140.007 34.3855C140.007 34.4909 140.057 34.5689 140.122 34.6706C140.257 34.8822 140.457 35.1963 140.412 36.0729L140.277 42.173C140.277 45.2232 138.251 48.0137 136.496 47.9489C136.496 47.9489 132.579 49.117 134.875 36.2675C134.913 36.0838 134.973 35.8862 135.034 35.6861C135.294 34.8259 135.569 33.919 134.2 33.8664C132.275 33.8134 132.097 34.4065 131.915 35.014C131.873 35.1523 131.832 35.2915 131.769 35.4239C131.364 38.4091 131.094 41.3943 131.026 44.4445V44.6391C130.486 46.1967 129.676 47.7542 128.325 47.6893C127.38 47.6893 126.772 47.0403 126.84 45.6775L127.043 32.3738C129.406 32.4386 131.769 32.4386 135.415 32.4386C136.563 32.4386 137.103 28.2853 135.753 29.5183C132.714 29.5832 129.811 29.5832 127.11 29.5832L127.178 25.4947C127.178 24.4564 126.232 23.5478 124.747 23.5478C124.139 23.5478 123.329 23.6776 123.261 24.0021C123.237 24.1177 123.29 24.2003 123.366 24.3175C123.501 24.5293 123.71 24.8538 123.666 25.6894L123.599 29.5183C121.168 29.4534 119.548 29.3236 119.548 29.3236C118.265 29.3236 119.007 32.2439 120.425 32.2439C121.438 32.3088 122.519 32.3738 123.531 32.3738L123.329 43.6008C122.856 45.4179 121.978 47.6893 120.358 47.6244C119.21 47.6244 119.21 46.002 119.21 45.6125L119.345 37.5005C119.413 35.4887 118.67 33.0875 115.699 33.0875C113.471 33.0227 111.85 34.9047 110.567 37.3059V35.359C110.567 34.3206 109.622 33.4121 108.136 33.4121C107.529 33.4121 106.989 33.6717 106.921 34.126C106.989 34.5802 107.056 35.0345 107.056 35.4887L106.921 42.173L106.718 42.7572C106.313 44.6391 105.436 47.4297 103.612 47.3647C102.532 47.3647 102.059 46.3264 102.127 45.353L102.262 39.0581C102.262 38.0197 101.317 37.1112 99.8312 37.1112C99.2234 37.1112 98.6158 37.3708 98.6158 37.8251C98.7508 38.2792 98.7508 38.7335 98.7508 39.1878L98.6833 45.0285C98.1431 46.2615 97.3329 47.235 96.1175 47.235C94.5645 47.235 93.5516 45.8721 93.6191 43.6008C93.7542 37.3708 97.8055 35.4887 101.182 35.4887C101.427 35.4887 101.654 35.5237 101.873 35.5574C102.075 35.5886 102.27 35.6186 102.465 35.6186C102.87 35.6186 103.072 35.359 103.072 34.6451C103.072 33.6067 102.194 32.7631 101.182 32.7631H101.047C95.5097 32.6982 90.2431 36.1377 90.108 43.4061C90.108 43.7306 90.108 44.0551 90.1755 44.3795C89.6353 45.8073 88.8926 47.0403 87.6097 47.0403C86.8669 47.0403 86.2592 46.5211 86.1242 45.8721L86.4618 25.6245C86.4618 23.7425 85.584 22.834 84.0986 22.834C83.4908 22.834 82.6805 22.9637 82.6131 23.2882C82.589 23.4038 82.6421 23.4865 82.7173 23.6037C82.8532 23.8154 83.0616 24.14 83.0181 24.9755L82.8832 32.6334C77.954 33.2174 73.7002 36.1377 73.5651 42.7572V43.6656C72.6873 45.4179 71.2019 46.8456 68.7035 46.7807C67.083 46.8456 65.53 45.9371 64.7873 44.5094C68.9061 42.173 71.607 39.7719 71.6745 36.8516C71.7421 34.2557 70.189 32.4386 67.6907 32.3738C64.2471 32.3088 60.5333 35.6834 60.4659 41.1996C60.4659 42.1082 60.6009 43.0167 60.871 43.9252C58.5752 45.6775 55.9419 47.1052 53.1735 48.1436C53.9228 44.8509 54.6617 41.7009 55.3983 38.5603C56.52 33.778 57.6366 29.0173 58.7778 23.8074C59.0056 23.0959 59.2454 22.6151 59.4161 22.2727C59.6504 21.8032 59.7548 21.5939 59.5205 21.4062C58.5752 20.6275 55.8068 20.8871 55.4017 22.8988C54.4563 27.7012 53.0384 33.8014 51.8906 38.4739C50.0674 38.2792 48.1768 38.6687 46.6238 39.6421C45.3514 37.7203 43.8441 35.3658 42.3126 32.9737C40.9998 30.9229 39.6692 28.8445 38.4537 26.9873C37.4408 25.4298 34.6724 25.949 34.0647 26.9873C33.9217 27.2279 34.0249 27.3229 34.2839 27.5614C34.5141 27.7733 34.8672 28.0984 35.2801 28.7395C37.1181 31.3892 38.7741 33.9557 40.4034 36.4806C43.3232 41.0055 46.1569 45.3972 49.7974 49.8958C50.27 50.4798 51.0803 50.7394 51.823 50.4798V50.5447L52.7684 50.0905L51.8906 50.5447C54.4563 50.1553 57.6974 48.7925 61.8838 46.2615C63.1667 48.5979 65.7325 49.9606 68.4335 49.8958C70.7967 50.0255 73.16 49.1819 74.7805 47.4946C75.7259 49.117 77.5489 50.0905 79.4395 50.0255C80.925 50.0255 82.4105 49.4415 83.4908 48.4032C84.2336 49.5063 85.5165 50.1553 86.8669 50.1553C88.6226 50.1553 90.2431 49.3116 91.2559 47.9489C92.1337 49.3766 93.7542 50.2851 95.5097 50.2851C96.9953 50.2851 98.4132 49.701 99.4261 48.5979C100.169 49.7659 101.452 50.4149 102.87 50.4149C104.423 50.4149 105.908 49.7659 106.921 48.5979C106.921 50.1553 108.136 50.4798 109.082 50.4798C110.365 50.4798 110.365 49.4415 110.365 48.6627L110.5 42.3029C110.905 38.8634 113.741 36.0729 115.024 36.0729C115.901 36.0729 115.969 37.2409 115.901 38.5389L115.766 46.4563C115.699 48.6627 117.117 50.5447 119.48 50.6096C121.168 50.6096 122.721 49.8309 123.734 48.5979C124.342 49.9606 125.76 50.8692 127.313 50.7394C129.068 50.7394 130.689 49.9606 131.702 48.5979C132.377 50.0255 133.93 50.9341 135.55 50.9341C137.508 50.9341 138.994 49.7011 140.142 47.884C140.344 49.7011 141.897 50.999 143.788 50.999C147.704 51.0639 149.055 48.0137 149.933 45.1584C150 45.0285 150 44.9636 150 44.8338C150 43.9902 149.19 43.0167 148.446 43.0167ZM67.3533 35.2938C67.961 35.2938 68.2986 35.878 68.2986 36.8514C68.2311 39.4472 66.408 40.7451 64.3824 41.9781C64.3824 41.8484 64.3654 41.7185 64.3485 41.5888C64.3317 41.459 64.3148 41.3292 64.3148 41.1994C64.2473 39.3175 65.1251 35.2938 67.3533 35.2938ZM80.2499 47.2991C81.3977 47.2342 82.4105 46.5853 82.8832 45.6118L83.0857 34.9039C80.1148 35.423 77.3464 37.3699 77.2788 42.8213C77.2113 45.9363 78.6968 47.2991 80.2499 47.2991Z" fill="#FF693D"/>
</g>
<defs>
<clipPath id="clip0_3700_2657">
<rect width="116" height="30" fill="white" transform="translate(34 21)"/>
</clipPath>
</defs>
</svg>
