<svg width="184" height="72" viewBox="0 0 184 72" fill="none" xmlns="http://www.w3.org/2000/svg">
<rect width="184" height="72" fill="#F9FDFE"/>
<g clip-path="url(#clip0_3700_2663)">
<mask id="mask0_3700_2663" style="mask-type:luminance" maskUnits="userSpaceOnUse" x="38" y="24" width="108" height="24">
<path d="M38.9636 47.0352H145.561V24.9636H38.9636V47.0352Z" fill="white"/>
</mask>
<g mask="url(#mask0_3700_2663)">
<mask id="mask1_3700_2663" style="mask-type:luminance" maskUnits="userSpaceOnUse" x="39" y="25" width="106" height="22">
<path d="M39 47H145V25H39V47Z" fill="white"/>
</mask>
<g mask="url(#mask1_3700_2663)">
<path d="M46.8894 46.6731V37.7037L38.9636 25.3627H44.0852L49.1764 33.7934L54.1653 25.3627H59.1978L51.243 37.7329V46.6731H46.8894Z" fill="#EE2722"/>
<path d="M59.3699 38.954C59.3699 40.4853 59.7387 41.6581 60.477 42.4717C61.2147 43.286 62.125 43.6922 63.2074 43.6922C64.2891 43.6922 65.197 43.286 65.9305 42.4717C66.6627 41.6581 67.0297 40.4758 67.0297 38.9248C67.0297 37.4126 66.6627 36.2499 65.9305 35.4363C65.197 34.622 64.2891 34.2158 63.2074 34.2158C62.125 34.2158 61.2147 34.622 60.477 35.4363C59.7387 36.2499 59.3699 37.4221 59.3699 38.954ZM55.1193 38.7363C55.1193 37.3798 55.4584 36.0668 56.1374 34.7974C56.8163 33.5274 57.7782 32.558 59.0234 31.8899C60.2675 31.2206 61.6575 30.8859 63.1922 30.8859C65.5634 30.8859 67.507 31.6447 69.0224 33.1611C70.5372 34.6775 71.2949 36.5935 71.2949 38.9099C71.2949 41.2459 70.5299 43.181 69 44.7165C67.4701 46.2531 65.5434 47.0209 63.2219 47.0209C61.7853 47.0209 60.4152 46.7017 59.1118 46.0611C57.8078 45.4228 56.8163 44.485 56.1374 43.2496C55.4584 42.0136 55.1193 40.5098 55.1193 38.7363Z" fill="#EE2722"/>
<path d="M83.0448 46.6731V44.3627C82.4743 45.1859 81.7238 45.835 80.7935 46.3092C79.8644 46.7835 78.8826 47.0209 77.8494 47.0209C76.7967 47.0209 75.8519 46.7942 75.0154 46.3384C74.1796 45.8827 73.5746 45.2432 73.2003 44.4194C72.8266 43.5956 72.6394 42.4574 72.6394 41.0037V31.2349H76.787V38.3282C76.787 40.5002 76.8627 41.8293 77.016 42.3202C77.168 42.8082 77.446 43.1959 77.8494 43.4829C78.2527 43.768 78.7645 43.9118 79.3847 43.9118C80.0928 43.9118 80.7275 43.7203 81.2884 43.3361C81.8492 42.9537 82.2332 42.4783 82.4397 41.9122C82.6463 41.3449 82.7492 39.9574 82.7492 37.7484V31.2349H86.8969V46.6731H83.0448Z" fill="#EE2722"/>
<path d="M99.473 38.8377V35.2477H108.889V43.7358C107.974 44.6097 106.648 45.3774 104.911 46.0401C103.175 46.7041 101.416 47.0352 99.6353 47.0352C97.3732 47.0352 95.3993 46.5681 93.7173 45.6333C92.0348 44.698 90.7701 43.3617 89.924 41.6211C89.0779 39.8816 88.6552 37.9894 88.6552 35.9451C88.6552 33.7266 89.127 31.7545 90.0718 30.0293C91.0161 28.3035 92.3988 26.9816 94.2188 26.0606C95.6064 25.3531 97.3332 25 99.3991 25C102.085 25 104.184 25.5541 105.694 26.6637C107.204 27.7732 108.176 29.3075 108.609 31.2647L104.27 32.0641C103.965 31.0177 103.392 30.1916 102.55 29.5855C101.709 28.98 100.659 28.6764 99.3991 28.6764C97.4907 28.6764 95.9728 29.2729 94.8469 30.4654C93.7192 31.6572 93.1571 33.4253 93.1571 35.7703C93.1571 38.3002 93.727 40.1971 94.8681 41.4612C96.0098 42.7252 97.5052 43.3581 99.3549 43.3581C100.27 43.3581 101.187 43.181 102.108 42.8278C103.028 42.4741 103.817 42.0452 104.476 41.5417V38.8377H99.473Z" fill="#BBBABA"/>
<path d="M114.366 38.954C114.366 40.4853 114.735 41.6581 115.474 42.4717C116.211 43.286 117.121 43.6922 118.204 43.6922C119.286 43.6922 120.194 43.286 120.927 42.4717C121.659 41.6581 122.026 40.4758 122.026 38.9248C122.026 37.4126 121.659 36.2499 120.927 35.4363C120.194 34.622 119.286 34.2158 118.204 34.2158C117.121 34.2158 116.211 34.622 115.474 35.4363C114.735 36.2499 114.366 37.4221 114.366 38.954ZM110.116 38.7363C110.116 37.3798 110.455 36.0668 111.134 34.7974C111.813 33.5274 112.775 32.558 114.019 31.8899C115.265 31.2206 116.653 30.8859 118.189 30.8859C120.56 30.8859 122.504 31.6447 124.018 33.1611C125.534 34.6775 126.292 36.5935 126.292 38.9099C126.292 41.2459 125.526 43.181 123.997 44.7165C122.466 46.2531 120.54 47.0209 118.218 47.0209C116.781 47.0209 115.411 46.7017 114.108 46.0611C112.804 45.4228 111.813 44.485 111.134 43.2496C110.455 42.0136 110.116 40.5098 110.116 38.7363Z" fill="#BBBABA"/>
</g>
<mask id="mask2_3700_2663" style="mask-type:luminance" maskUnits="userSpaceOnUse" x="38" y="24" width="108" height="24">
<path d="M38.9636 47.0352H145.561V24.9636H38.9636V47.0352Z" fill="white"/>
</mask>
<g mask="url(#mask2_3700_2663)">
<path d="M132.034 46.6731L125.717 31.2349H130.071L133.023 39.1151L133.879 41.7446C134.105 41.0771 134.248 40.635 134.307 40.4221C134.445 39.9866 134.593 39.5493 134.75 39.1151L137.731 31.2349H141.996L135.768 46.6731H132.034Z" fill="#BBBABA"/>
<path d="M142.347 28.2344H142.789C143 28.2344 143.145 28.2033 143.222 28.1413C143.299 28.0793 143.337 27.9969 143.337 27.8949C143.337 27.8293 143.319 27.7703 143.281 27.7184C143.244 27.6659 143.193 27.6271 143.127 27.6014C143.061 27.5764 142.94 27.5633 142.761 27.5633H142.347V28.2344ZM141.983 29.4865V27.262H142.758C143.024 27.262 143.216 27.2829 143.334 27.3241C143.453 27.3646 143.548 27.4362 143.618 27.5388C143.688 27.6408 143.724 27.7494 143.724 27.8645C143.724 28.0274 143.665 28.1687 143.547 28.2892C143.429 28.4097 143.273 28.4777 143.078 28.4921C143.158 28.5249 143.222 28.5642 143.27 28.6096C143.361 28.6973 143.473 28.8446 143.604 29.051L143.88 29.4865H143.434L143.234 29.1357C143.076 28.8601 142.95 28.6877 142.853 28.6179C142.786 28.5666 142.689 28.5416 142.561 28.5416H142.347V29.4865H141.983ZM142.903 26.6184C142.608 26.6184 142.321 26.6923 142.042 26.8415C141.763 26.9906 141.545 27.203 141.387 27.4797C141.23 27.7565 141.151 28.0447 141.151 28.3441C141.151 28.6418 141.229 28.9269 141.384 29.2001C141.537 29.4733 141.754 29.6857 142.033 29.8384C142.311 29.9911 142.6 30.0675 142.903 30.0675C143.205 30.0675 143.496 29.9911 143.774 29.8384C144.052 29.6857 144.268 29.4733 144.422 29.2001C144.575 28.9269 144.652 28.6418 144.652 28.3441C144.652 28.0447 144.574 27.7565 144.417 27.4797C144.261 27.203 144.042 26.9906 143.763 26.8415C143.482 26.6923 143.196 26.6184 142.903 26.6184ZM142.903 26.276C143.255 26.276 143.6 26.3648 143.935 26.5426C144.27 26.721 144.532 26.9757 144.719 27.3073C144.907 27.6384 145 27.9844 145 28.3441C145 28.7002 144.908 29.0427 144.723 29.3713C144.539 29.7 144.281 29.9553 143.947 30.1373C143.614 30.3186 143.267 30.4093 142.903 30.4093C142.54 30.4093 142.192 30.3186 141.859 30.1373C141.526 29.9553 141.267 29.7 141.081 29.3713C140.896 29.0427 140.803 28.7002 140.803 28.3441C140.803 27.9844 140.897 27.6384 141.085 27.3073C141.274 26.9757 141.536 26.721 141.871 26.5426C142.207 26.3648 142.551 26.276 142.903 26.276Z" fill="#BBBABA"/>
</g>
</g>
</g>
<defs>
<clipPath id="clip0_3700_2663">
<rect width="106" height="22" fill="white" transform="translate(39 25)"/>
</clipPath>
</defs>
</svg>
