<svg width="132" height="28" viewBox="0 0 132 28" fill="none" xmlns="http://www.w3.org/2000/svg">
<g clip-path="url(#clip0_1955_27217)">
<path fill-rule="evenodd" clip-rule="evenodd" d="M31.4626 10.5781C31.2544 11.3571 30.851 11.9288 30.2522 12.2939C29.6527 12.6589 28.8119 12.8417 27.7273 12.8417H24.2817L25.4913 8.31487H28.9369C30.0206 8.31487 30.7646 8.4974 31.1689 8.86237C31.5723 9.22777 31.6708 9.79957 31.4626 10.5781ZM35.0308 10.4806C35.469 8.84254 35.2874 7.58492 34.4862 6.70882C33.6849 5.83272 32.2808 5.39491 30.2756 5.39491H22.5839L17.9546 22.7214H21.6915L23.5579 15.7371H26.0085C26.5581 15.7371 26.9906 15.8265 27.307 16.005C27.624 16.1838 27.8096 16.5002 27.8669 16.9539L28.5335 22.7214H32.5374L31.8878 17.3436C31.7555 16.1429 31.2076 15.4372 30.2449 15.2264C31.4723 14.8699 32.5003 14.2771 33.3282 13.4496C34.1554 12.6225 34.7234 11.633 35.0308 10.4806Z" fill="#072654"/>
<path fill-rule="evenodd" clip-rule="evenodd" d="M44.1129 16.516C43.8006 17.6839 43.3196 18.5765 42.6701 19.1928C42.0197 19.8095 41.2418 20.1175 40.3365 20.1175C39.4133 20.1175 38.7871 19.8135 38.4571 19.2049C38.1254 18.5968 38.1141 17.717 38.4224 16.5646C38.7298 15.4129 39.2204 14.5126 39.8958 13.8631C40.5704 13.2148 41.3604 12.8899 42.2665 12.8899C43.1719 12.8899 43.7852 13.2027 44.1031 13.8271C44.4211 14.4515 44.4251 15.3478 44.1129 16.516ZM45.7509 10.3835L45.2829 12.1357C45.0803 11.5028 44.689 11.0002 44.1096 10.6271C43.5294 10.254 42.8105 10.067 41.9534 10.067C40.902 10.067 39.8909 10.339 38.9211 10.8824C37.9511 11.4262 37.103 12.1927 36.3776 13.1821C35.6522 14.1718 35.1204 15.2992 34.7823 16.5646C34.4442 17.8303 34.3764 18.9456 34.5798 19.9107C34.7831 20.8762 35.2237 21.6183 35.9023 22.1375C36.5802 22.657 37.4533 22.916 38.5208 22.916C39.3778 22.916 40.1944 22.7376 40.9691 22.3807C41.7437 22.0242 42.4013 21.5289 42.9428 20.8964L42.4546 22.7214H46.0696L49.366 10.3835H45.7509Z" fill="#072654"/>
<path fill-rule="evenodd" clip-rule="evenodd" d="M62.3651 10.3835H51.8588L51.1245 13.1335H57.2386L49.1548 20.1417L48.4648 22.7214H59.3108L60.0459 19.9718H53.4953L61.7018 12.8656L62.3651 10.3835Z" fill="#072654"/>
<path fill-rule="evenodd" clip-rule="evenodd" d="M71.615 16.4918C71.2898 17.7081 70.808 18.6174 70.1706 19.2175C69.5331 19.8176 68.7617 20.1174 67.8563 20.1174C65.9632 20.1174 65.3402 18.9095 65.9858 16.4918C66.307 15.2911 66.7911 14.3867 67.4383 13.7785C68.0862 13.1699 68.8706 12.8657 69.7929 12.8657C70.6983 12.8657 71.3091 13.1699 71.6239 13.7785C71.9385 14.3867 71.9361 15.2911 71.615 16.4918ZM73.73 10.8456C72.898 10.3268 71.8352 10.067 70.5409 10.067C69.2305 10.067 68.0169 10.3268 66.8993 10.8456C65.7817 11.3652 64.8303 12.1114 64.0452 13.0846C63.2591 14.0581 62.6927 15.1936 62.3457 16.4918C61.9987 17.7899 61.9584 18.925 62.2247 19.8985C62.4902 20.8721 63.0421 21.6183 63.8829 22.1375C64.723 22.6571 65.7978 22.916 67.1083 22.916C68.4025 22.916 69.6041 22.6571 70.7137 22.1375C71.8215 21.6183 72.7697 20.8721 73.5556 19.8985C74.3407 18.925 74.9072 17.7899 75.2542 16.4918C75.6012 15.1936 75.6416 14.0581 75.3761 13.0846C75.1098 12.1114 74.561 11.3652 73.73 10.8456Z" fill="#072654"/>
<path fill-rule="evenodd" clip-rule="evenodd" d="M111.541 16.516C111.229 17.6839 110.748 18.5765 110.098 19.1928C109.449 19.8095 108.669 20.1175 107.764 20.1175C106.842 20.1175 106.215 19.8135 105.885 19.2049C105.554 18.5968 105.542 17.717 105.851 16.5646C106.158 15.4129 106.649 14.5126 107.324 13.8631C107.999 13.2148 108.789 12.8899 109.695 12.8899C110.6 12.8899 111.214 13.2027 111.531 13.8271C111.85 14.4515 111.853 15.3478 111.541 16.516ZM113.179 10.3835L112.711 12.1357C112.509 11.5028 112.117 11.0002 111.538 10.6271C110.958 10.254 110.239 10.067 109.382 10.067C108.33 10.067 107.319 10.339 106.349 10.8824C105.379 11.4262 104.531 12.1927 103.806 13.1821C103.081 14.1718 102.549 15.2992 102.211 16.5646C101.873 17.8303 101.806 18.9456 102.008 19.9107C102.211 20.8762 102.651 21.6183 103.331 22.1375C104.009 22.657 104.882 22.916 105.949 22.916C106.806 22.916 107.623 22.7376 108.397 22.3807C109.172 22.0242 109.83 21.5289 110.371 20.8964L109.883 22.7214H113.498L116.794 10.3835H113.179Z" fill="#072654"/>
<path fill-rule="evenodd" clip-rule="evenodd" d="M86.6191 13.6932L87.5406 10.3349C87.2275 10.1726 86.8127 10.0914 86.2955 10.0914C85.47 10.0914 84.6752 10.2981 83.9094 10.712C83.2518 11.0672 82.6918 11.5656 82.2189 12.1902L82.6983 10.3818L81.6516 10.3835H79.0843L75.7627 22.7214H79.4277L81.1505 16.2729C81.4015 15.332 81.8517 14.598 82.503 14.0707C83.1525 13.5435 83.9635 13.2796 84.9343 13.2796C85.5329 13.2796 86.0938 13.4176 86.6191 13.6932Z" fill="#072654"/>
<path fill-rule="evenodd" clip-rule="evenodd" d="M96.8209 16.5644C96.5126 17.7169 96.0349 18.5966 95.3877 19.2048C94.739 19.8134 93.9627 20.1173 93.0573 20.1173C92.1512 20.1173 91.5339 19.8093 91.2054 19.1926C90.8762 18.5763 90.8681 17.684 91.1804 16.5158C91.4927 15.3476 91.9784 14.4513 92.6386 13.8269C93.2986 13.2025 94.0821 12.8897 94.9883 12.8897C95.8775 12.8897 96.482 13.2147 96.8023 13.8633C97.1218 14.5124 97.1283 15.4131 96.8209 16.5644ZM99.3821 10.8822C98.7019 10.3388 97.836 10.0673 96.7854 10.0673C95.863 10.0673 94.9851 10.2781 94.1539 10.6998C93.3204 11.1222 92.645 11.6972 92.1269 12.4276L92.1386 12.3467L92.7543 10.3816H92.0458V10.3833H89.1768L88.2658 13.7951C88.2553 13.8348 88.2464 13.8718 88.2358 13.9119L84.478 27.9777H88.1424L90.0346 20.8966C90.2201 21.5287 90.6059 22.024 91.1901 22.3805C91.7743 22.7374 92.4949 22.9159 93.3527 22.9159C94.4203 22.9159 95.4353 22.6569 96.3996 22.1373C97.3631 21.6185 98.2007 20.876 98.9109 19.9105C99.6217 18.9458 100.146 17.8301 100.484 16.5644C100.823 15.299 100.893 14.1717 100.697 13.1819C100.501 12.1925 100.061 11.4261 99.3821 10.8822Z" fill="#072654"/>
<path fill-rule="evenodd" clip-rule="evenodd" d="M131.968 10.3869L131.97 10.3835H129.751C129.68 10.3835 129.617 10.3855 129.552 10.3869H128.4L127.811 11.21C127.764 11.272 127.717 11.3345 127.666 11.4069L127.602 11.5022L122.92 18.0412L121.95 10.3835H118.115L120.057 22.0198L115.769 27.9779H115.891H118.08H119.589L120.628 26.5014C120.659 26.4574 120.685 26.4214 120.718 26.3749L121.931 24.6504L121.965 24.601L127.392 16.8857L131.964 10.392L131.97 10.3869H131.968Z" fill="#072654"/>
<path fill-rule="evenodd" clip-rule="evenodd" d="M8.53785 7.37987L7.44092 11.4286L13.7176 7.35711L9.61286 22.7176L13.7812 22.7214L19.845 0.0336761L8.53785 7.37987Z" fill="#3395FF"/>
<path fill-rule="evenodd" clip-rule="evenodd" d="M1.78183 16.2641L0.0561523 22.7214H8.60037C8.60037 22.7214 12.0952 9.58841 12.0961 9.58464C12.0929 9.58674 1.78183 16.2641 1.78183 16.2641Z" fill="#072654"/>
</g>
<defs>
<clipPath id="clip0_1955_27217">
<rect width="132" height="28" fill="white"/>
</clipPath>
</defs>
</svg>
