<svg width="96" height="40" viewBox="0 0 96 40" fill="none" xmlns="http://www.w3.org/2000/svg">
<g clip-path="url(#clip0_1048_566)">
<path fill-rule="evenodd" clip-rule="evenodd" d="M95.8783 20.5696C95.8783 13.7874 92.58 8.43573 86.2761 8.43573C79.9455 8.43573 76.1152 13.7874 76.1152 20.5166C76.1152 28.4911 80.6371 32.518 87.1272 32.518C90.2925 32.518 92.6864 31.8027 94.4952 30.796V25.4974C92.6864 26.3981 90.6117 26.9545 87.9784 26.9545C85.3983 26.9545 83.1108 26.0537 82.8182 22.9275H95.8251C95.8251 22.5831 95.8783 21.2055 95.8783 20.5696ZM82.7384 18.0528C82.7384 15.059 84.5737 13.8139 86.2495 13.8139C87.872 13.8139 89.6009 15.059 89.6009 18.0528H82.7384Z" fill="#635BFF"/>
<path fill-rule="evenodd" clip-rule="evenodd" d="M65.848 8.43573C63.2413 8.43573 61.5656 9.65442 60.6346 10.5022L60.2888 8.85962H54.437V39.7507L61.0868 38.3465L61.1134 30.849C62.0709 31.5378 63.4807 32.518 65.8214 32.518C70.5826 32.518 74.9183 28.703 74.9183 20.3047C74.8917 12.6217 70.5028 8.43573 65.848 8.43573ZM64.2521 26.6895C62.6827 26.6895 61.7517 26.1332 61.1134 25.4444L61.0868 15.6154C61.7783 14.8471 62.7359 14.3172 64.2521 14.3172C66.6726 14.3172 68.3483 17.0195 68.3483 20.4901C68.3483 24.0402 66.6992 26.6895 64.2521 26.6895Z" fill="#635BFF"/>
<path fill-rule="evenodd" clip-rule="evenodd" d="M45.2866 6.87263L51.963 5.44199V0.0638733L45.2866 1.46801V6.87263Z" fill="#635BFF"/>
<path d="M51.963 8.88611H45.2866V32.0677H51.963V8.88611Z" fill="#635BFF"/>
<path fill-rule="evenodd" clip-rule="evenodd" d="M38.1314 10.8466L37.7058 8.88611H31.9604V32.0677H38.6102V16.3572C40.1796 14.3172 42.8395 14.6881 43.664 14.9795V8.88611C42.8129 8.56819 39.7008 7.98534 38.1314 10.8466Z" fill="#635BFF"/>
<path fill-rule="evenodd" clip-rule="evenodd" d="M24.8322 3.13708L18.342 4.51473L18.3154 25.7358C18.3154 29.6568 21.2679 32.5445 25.2046 32.5445C27.3857 32.5445 28.9816 32.1471 29.8594 31.6703V26.2921C29.0082 26.6366 24.8056 27.8552 24.8056 23.9342V14.5292H29.8594V8.88611H24.8056L24.8322 3.13708Z" fill="#635BFF"/>
<path fill-rule="evenodd" clip-rule="evenodd" d="M6.85114 15.6154C6.85114 14.5822 7.70231 14.1848 9.11206 14.1848C11.1336 14.1848 13.6871 14.7941 15.7086 15.8803V9.65442C13.5009 8.78014 11.3198 8.43573 9.11206 8.43573C3.71245 8.43573 0.121582 11.244 0.121582 15.9333C0.121582 23.2454 10.2292 22.0797 10.2292 25.2324C10.2292 26.4511 9.16526 26.8485 7.67571 26.8485C5.46799 26.8485 2.64849 25.9477 0.414171 24.729V31.0344C2.88788 32.0942 5.38819 32.5445 7.67571 32.5445C13.2083 32.5445 17.012 29.8157 17.012 25.0735C16.9854 17.1785 6.85114 18.5826 6.85114 15.6154Z" fill="#635BFF"/>
</g>
<defs>
<clipPath id="clip0_1048_566">
<rect width="96" height="40" fill="white"/>
</clipPath>
</defs>
</svg>
