<svg width="44" height="44" viewBox="0 0 44 44" fill="none" xmlns="http://www.w3.org/2000/svg">
<g id="Github" clip-path="url(#clip0_1955_27195)">
<path id="Vector" d="M22 0C34.155 0 44 9.845 44 22C43.9988 26.6096 42.5521 31.1027 39.8636 34.847C37.175 38.5912 33.3799 41.3981 29.0125 42.8725C27.9125 43.0925 27.5 42.405 27.5 41.8275C27.5 41.085 27.5275 38.72 27.5275 35.7775C27.5275 33.715 26.84 32.395 26.0425 31.7075C30.9375 31.1575 36.08 29.2875 36.08 20.845C36.08 18.425 35.2275 16.4725 33.825 14.9325C34.045 14.3825 34.815 12.1275 33.605 9.1025C33.605 9.1025 31.7625 8.4975 27.555 11.3575C25.795 10.8625 23.925 10.615 22.055 10.615C20.185 10.615 18.315 10.8625 16.555 11.3575C12.3475 8.525 10.505 9.1025 10.505 9.1025C9.295 12.1275 10.065 14.3825 10.285 14.9325C8.8825 16.4725 8.03 18.4525 8.03 20.845C8.03 29.26 13.145 31.1575 18.04 31.7075C17.4075 32.2575 16.83 33.22 16.6375 34.65C15.3725 35.2275 12.21 36.1625 10.23 32.835C9.8175 32.175 8.58 30.5525 6.8475 30.58C5.005 30.6075 6.105 31.625 6.875 32.0375C7.81 32.56 8.8825 34.5125 9.13 35.145C9.57 36.3825 11 38.7475 16.5275 37.73C16.5275 39.5725 16.555 41.305 16.555 41.8275C16.555 42.405 16.1425 43.065 15.0425 42.8725C10.6608 41.414 6.84952 38.6128 4.14945 34.8663C1.44938 31.1197 -0.00242132 26.6181 3.03136e-06 22C3.03136e-06 9.845 9.845 0 22 0Z" fill="#C7154A"/>
</g>
<defs>
<clipPath id="clip0_1955_27195">
<rect width="44" height="44" fill="white"/>
</clipPath>
</defs>
</svg>
