<svg width="50" height="48" viewBox="0 0 50 48" fill="none" xmlns="http://www.w3.org/2000/svg">
<g id="Layer_1" clip-path="url(#clip0_1955_27200)">
<path id="Vector" d="M35.7393 41.6966C34.7478 42.3856 34.4993 43.7529 35.1847 44.75C35.8701 45.7472 37.2286 45.9972 38.2209 45.3082C39.2124 44.6192 39.4601 43.252 38.7747 42.2548C38.0893 41.2569 36.7309 41.0076 35.7393 41.6966ZM23.0024 45.5312C22.3909 45.9562 22.237 46.8001 22.6601 47.4156C23.0824 48.0311 23.9209 48.1851 24.5332 47.7601C25.1447 47.3343 25.2986 46.4904 24.8755 45.8749C24.4532 45.2594 23.6147 45.1061 23.0024 45.5312ZM7.52935 39.237C7.64166 39.7634 8.15781 40.0979 8.68012 39.9841C9.20319 39.8703 9.5355 39.3523 9.42243 38.8259C9.30935 38.2994 8.79396 37.9658 8.27089 38.0788C7.74858 38.1926 7.4155 38.7105 7.52858 39.237M3.80166 24.1603C4.45243 23.2058 4.21089 21.9012 3.26166 21.2463C2.31243 20.5913 1.01627 20.8344 0.365502 21.789C-0.285267 22.7436 -0.0437288 24.0481 0.904733 24.7031C1.85396 25.358 3.15012 25.1149 3.80089 24.1603M10.9217 10.6429C11.6401 10.1436 11.8201 9.15183 11.324 8.42873C10.827 7.70563 9.84165 7.52447 9.12319 8.02383C8.40473 8.52318 8.22473 9.51492 8.72089 10.238C9.21781 10.9603 10.2032 11.1423 10.9217 10.6429ZM15.6378 0.87957C15.5086 0.278021 14.9193 -0.10443 14.3217 0.0256343C13.7232 0.155699 13.3432 0.747957 13.4724 1.35028C13.6017 1.95183 14.1909 2.33428 14.7886 2.20421C15.387 2.07415 15.767 1.48112 15.6378 0.87957ZM29.7547 2.35209C29.167 1.36731 27.897 1.04834 26.9193 1.63983C25.9409 2.23054 25.624 3.50796 26.2109 4.49273C26.7986 5.4775 28.0686 5.7957 29.0463 5.20499C30.0247 4.6135 30.3417 3.33609 29.7547 2.35209ZM39.897 17.2181C40.054 15.1549 39.5417 13.029 38.2817 11.1941C35.8247 7.61738 31.3393 6.30512 27.4593 7.72112C23.9924 5.48602 19.4063 5.39234 15.807 7.89454C13.9855 9.16112 12.687 10.9031 11.9555 12.8393C10.8963 12.9833 9.85166 13.3402 8.91089 13.9944C5.80319 16.1552 4.98319 20.3683 6.95473 23.5619C4.27858 26.0285 3.66166 30.1348 5.69473 33.3067C6.90089 35.1872 8.7955 36.3206 10.8301 36.6574C10.8678 38.1926 11.3255 39.734 12.2578 41.0912C14.8078 44.8042 19.867 45.734 23.557 43.1691C23.6978 43.0708 23.807 42.9461 23.9401 42.8409C25.997 44.6881 29.084 44.9923 31.4524 43.3456C32.7163 42.4677 33.524 41.1895 33.877 39.8006C35.7301 39.8695 37.6163 39.3957 39.2593 38.253C43.2001 35.5131 44.257 30.1565 41.7363 26.1144C43.7601 24.3972 44.1955 21.3941 42.6409 19.1769C41.9478 18.1874 40.967 17.5379 39.897 17.2174M44.3501 15.9431C45.1501 15.3872 45.3509 14.284 44.7978 13.4788C44.2447 12.6736 43.1486 12.4723 42.3486 13.0282C41.5486 13.5841 41.3478 14.6873 41.9009 15.4925C42.454 16.2976 43.5501 16.4989 44.3501 15.9431ZM47.7586 26.3072C47.6055 25.5949 46.9086 25.1436 46.2017 25.2969C45.4947 25.4509 45.0447 26.1516 45.1978 26.8631C45.3501 27.5753 46.047 28.0267 46.7547 27.8734C47.4617 27.7193 47.9117 27.0187 47.7586 26.3072ZM49.9786 19.9541C49.8647 19.4254 49.347 19.0886 48.8217 19.2032C48.2955 19.3178 47.9617 19.8388 48.0747 20.3683C48.1886 20.8971 48.707 21.2331 49.2324 21.1193C49.7578 21.0047 50.0924 20.4829 49.9793 19.9541" fill="#C7154A"/>
<path id="Vector_2" d="M35.1757 33.0395C34.875 31.1063 31.3173 32.5974 31.0973 30.4785C30.7865 27.4723 35.228 20.9946 34.878 18.48C34.5634 16.2163 33.0473 15.7417 31.728 15.7185C30.4465 15.6952 30.108 15.9004 29.675 16.1543C29.425 16.2999 29.0657 16.5887 28.5673 16.1117C28.2357 15.7943 28.0173 15.5721 27.6665 15.2911C27.488 15.1471 27.2034 14.9667 26.7273 14.8963C26.2503 14.8258 25.6334 14.8963 25.2411 15.065C24.848 15.2346 24.5403 15.5311 24.2173 15.8129C23.895 16.0947 23.0773 17.0168 22.315 16.6761C21.9842 16.529 20.865 15.9662 20.0565 15.6147C18.4965 14.9357 16.2465 16.0359 15.4365 17.4852C14.2311 19.6405 11.8511 28.1102 11.4903 29.2274C10.6819 31.7357 12.515 33.7804 14.9857 33.6619C16.0303 33.6124 16.7257 33.2284 17.3857 32.0207C17.7673 31.3231 21.3503 21.9074 21.6165 21.4552C21.8096 21.1277 22.4542 20.6957 23.0011 20.9776C23.5473 21.2594 23.6565 21.8477 23.5757 22.4021C23.445 23.2986 20.918 29.0423 20.8211 29.6927C20.6565 30.7974 21.178 31.4121 22.318 31.4725C23.0996 31.5143 23.878 31.2317 24.4965 30.0588C24.8427 29.4031 28.8273 21.3732 29.1796 20.8367C29.5673 20.2483 29.8788 20.0547 30.2734 20.0756C30.5796 20.0911 31.0696 20.1701 30.9473 21.0937C30.8273 21.9995 27.6227 27.8911 27.2873 29.3342C26.8373 31.2627 27.8896 33.216 29.6226 34.0715C30.728 34.6165 35.565 35.5502 35.175 33.041" fill="white"/>
</g>
<defs>
<clipPath id="clip0_1955_27200">
<rect width="50" height="48" fill="white"/>
</clipPath>
</defs>
</svg>
