<svg width="116" height="14" viewBox="0 0 116 14" fill="none" xmlns="http://www.w3.org/2000/svg">
<path fill-rule="evenodd" clip-rule="evenodd" d="M0.679705 0H5.66721C7.83668 0 9.38631 0.413232 10.3161 1.23969C11.2459 2.05191 11.7107 3.21323 11.7107 4.72366C11.7107 5.63562 11.5189 6.42646 11.1352 7.09618C10.7515 7.7659 10.1021 8.23613 9.18707 8.50687V8.54962L12.127 12.9903C12.4162 13.4271 12.0913 14 11.5543 14H8.45653C8.27943 14 8.14661 13.9287 8.05806 13.7863L5.20232 9.12671H4.11758V13.6794C4.11758 13.8931 4.00689 14 3.78552 14H0.67969C0.304307 14 -7.50876e-07 13.7062 0 13.3437L1.4517e-05 0.656249C1.49317e-05 0.293813 0.304323 0 0.679705 0ZM5.73359 6.00611H4.11756V3.3771H5.80001C6.43461 3.3771 6.89212 3.48397 7.17253 3.69771C7.45294 3.91145 7.59314 4.24631 7.59314 4.70229C7.59314 5.15827 7.4308 5.49313 7.10612 5.70687C6.79619 5.90636 6.33869 6.00611 5.73359 6.00611Z" fill="#C7154A"/>
<path fill-rule="evenodd" clip-rule="evenodd" d="M14.6862 3.41985H17.7915V13.3437C17.7915 13.7062 18.0958 14 18.4712 14H21.2294C21.6047 14 21.909 13.7062 21.909 13.3437V3.41985H25.4289C25.6355 3.41985 25.7388 3.3201 25.7388 3.12061L25.738 0.656046C25.7379 0.293689 25.4337 0 25.0584 0H13.0688C12.715 0 12.4243 0.261064 12.3921 0.594562C12.7952 0.770541 13.1396 0.985585 13.4255 1.23969C14.0671 1.80017 14.4873 2.52689 14.6862 3.41985Z" fill="#C7154A"/>
<path fill-rule="evenodd" clip-rule="evenodd" d="M31.1919 0H34.5331C35.0221 0 35.4558 0.302881 35.609 0.751208L39.8397 13.1382C39.9848 13.5628 39.6573 14 39.1942 14H35.981C35.7892 14 35.6711 13.9145 35.6268 13.7435L35.0731 11.713H30.7152L30.181 13.7221C30.1367 13.9074 30.0113 14 29.8047 14H26.5503C26.0877 14 25.7602 13.5635 25.9045 13.1391L30.1156 0.752637C30.2682 0.303581 30.7024 0 31.1919 0ZM31.5336 8.63512H34.2337L33.6566 6.51908C33.509 5.97761 33.3688 5.44326 33.236 4.91603C33.1179 4.37455 33.0072 3.8402 32.9039 3.31298H32.8375C32.7342 3.85445 32.6161 4.39593 32.4833 4.9374C32.3652 5.47888 32.2324 6.02036 32.0848 6.56183L31.5336 8.63512Z" fill="#C7154A"/>
<path d="M113.84 14C113.184 14 112.649 13.8899 112.236 13.6696C111.836 13.4494 111.544 13.1121 111.359 12.6578C111.173 12.2035 111.081 11.6185 111.081 10.9027V4.44985H109.348C109.249 4.44985 109.199 4.40167 109.199 4.30531V3.62389C109.199 3.5413 109.249 3.5 109.348 3.5H111.102L111.252 1.13569C111.266 1.03933 111.316 0.99115 111.402 0.99115H112.065C112.164 0.99115 112.214 1.03933 112.214 1.13569V3.5H115.786C115.886 3.5 115.935 3.5413 115.935 3.62389V4.30531C115.935 4.40167 115.886 4.44985 115.786 4.44985H112.214V10.882C112.214 11.6667 112.357 12.2242 112.642 12.5546C112.927 12.8712 113.398 13.0295 114.053 13.0295C114.367 13.0295 114.681 12.9951 114.994 12.9263C115.322 12.8574 115.608 12.7679 115.85 12.6578C115.893 12.644 115.928 12.6509 115.957 12.6785C115.985 12.6922 116 12.7198 116 12.7611V13.4631C116 13.5457 115.964 13.6008 115.893 13.6283C115.622 13.7384 115.308 13.8279 114.952 13.8968C114.595 13.9656 114.225 14 113.84 14Z" fill="#C7154A"/>
<path d="M104.831 14C104.731 14 104.681 13.9518 104.681 13.8554V3.62386C104.681 3.54126 104.731 3.49996 104.831 3.49996H105.686C105.772 3.49996 105.815 3.54126 105.815 3.62386V13.8554C105.815 13.9518 105.772 14 105.686 14H104.831ZM105.258 1.81708C104.988 1.81708 104.781 1.74825 104.638 1.61059C104.51 1.45916 104.446 1.26643 104.446 1.03241V0.867222C104.446 0.646966 104.51 0.468008 104.638 0.330349C104.781 0.178923 104.988 0.10321 105.258 0.10321C105.529 0.10321 105.729 0.178923 105.857 0.330349C106 0.468008 106.071 0.646966 106.071 0.867222V1.03241C106.071 1.26643 106 1.45916 105.857 1.61059C105.729 1.74825 105.529 1.81708 105.258 1.81708Z" fill="#C7154A"/>
<path d="M86.3742 14C86.2743 14 86.2244 13.9518 86.2244 13.8554V6.17401C86.2244 5.80233 86.2102 5.42377 86.1817 5.03832C86.1674 4.63911 86.1389 4.26742 86.0961 3.92328C86.0819 3.82691 86.1318 3.77873 86.2458 3.77873H87.0371C87.0942 3.77873 87.1298 3.78562 87.1441 3.79938C87.1726 3.79938 87.1868 3.82691 87.1868 3.88198C87.2154 4.14353 87.2439 4.41885 87.2724 4.70794C87.3152 4.99702 87.3365 5.29987 87.3365 5.61649C88.0352 4.91443 88.6982 4.39132 89.3255 4.04717C89.9671 3.70302 90.6158 3.53094 91.2717 3.53094C92.0131 3.53094 92.6048 3.71679 93.0468 4.08847C93.4887 4.46015 93.7739 5.0039 93.9022 5.71974C94.6436 4.97637 95.328 4.42573 95.9553 4.06782C96.5969 3.7099 97.2599 3.53094 97.9443 3.53094C98.8425 3.53094 99.5197 3.81315 99.976 4.37755C100.446 4.94196 100.682 5.75415 100.682 6.81413V13.8554C100.682 13.9518 100.639 14 100.553 14H99.698C99.5982 14 99.5483 13.9518 99.5483 13.8554V6.89673C99.5483 6.11207 99.3914 5.52013 99.0778 5.12092C98.7783 4.70794 98.3078 4.50145 97.6662 4.50145C97.1244 4.50145 96.5613 4.68729 95.9767 5.05897C95.3921 5.41688 94.7434 5.94687 94.0305 6.64894V13.8554C94.0305 13.9518 93.9806 14 93.8808 14H93.0468C92.9469 14 92.897 13.9518 92.897 13.8554V6.89673C92.897 6.11207 92.7402 5.52013 92.4265 5.12092C92.1271 4.70794 91.6566 4.50145 91.015 4.50145C90.4732 4.50145 89.9101 4.68729 89.3255 5.05897C88.7409 5.41688 88.0851 5.94687 87.3579 6.64894V13.8554C87.3579 13.9518 87.3152 14 87.2296 14H86.3742Z" fill="#C7154A"/>
<path d="M68.0226 14C67.9228 14 67.8729 13.9518 67.8729 13.8554V6.17401C67.8729 5.80233 67.8586 5.42377 67.8301 5.03832C67.8159 4.63911 67.7873 4.26742 67.7446 3.92328C67.7303 3.82691 67.7802 3.77873 67.8943 3.77873H68.6856C68.7426 3.77873 68.7782 3.78562 68.7925 3.79938C68.821 3.79938 68.8353 3.82691 68.8353 3.88198C68.8638 4.14353 68.8923 4.41885 68.9208 4.70794C68.9636 4.99702 68.985 5.29987 68.985 5.61649C69.6836 4.91443 70.3466 4.39132 70.9739 4.04717C71.6155 3.70302 72.2642 3.53094 72.9201 3.53094C73.6615 3.53094 74.2532 3.71679 74.6952 4.08847C75.1372 4.46015 75.4223 5.0039 75.5506 5.71974C76.292 4.97637 76.9764 4.42573 77.6038 4.06782C78.2453 3.7099 78.9083 3.53094 79.5927 3.53094C80.4909 3.53094 81.1682 3.81315 81.6244 4.37755C82.0949 4.94196 82.3302 5.75415 82.3302 6.81413V13.8554C82.3302 13.9518 82.2874 14 82.2019 14H81.3464C81.2466 14 81.1967 13.9518 81.1967 13.8554V6.89673C81.1967 6.11207 81.0399 5.52013 80.7262 5.12092C80.4268 4.70794 79.9563 4.50145 79.3147 4.50145C78.7729 4.50145 78.2097 4.68729 77.6251 5.05897C77.0406 5.41688 76.3919 5.94687 75.679 6.64894V13.8554C75.679 13.9518 75.6291 14 75.5293 14H74.6952C74.5954 14 74.5455 13.9518 74.5455 13.8554V6.89673C74.5455 6.11207 74.3886 5.52013 74.075 5.12092C73.7756 4.70794 73.3051 4.50145 72.6635 4.50145C72.1217 4.50145 71.5585 4.68729 70.9739 5.05897C70.3894 5.41688 69.7335 5.94687 69.0064 6.64894V13.8554C69.0064 13.9518 68.9636 14 68.878 14H68.0226Z" fill="#C7154A"/>
<path d="M59.0533 14C58.1265 14 57.4137 13.7178 56.9146 13.1534C56.4299 12.5752 56.1875 11.7286 56.1875 10.6136V3.62389C56.1875 3.5413 56.2374 3.5 56.3372 3.5H57.1927C57.2782 3.5 57.321 3.5413 57.321 3.62389V10.5516C57.321 11.3913 57.4849 12.0108 57.8129 12.41C58.1551 12.8092 58.6683 13.0089 59.3527 13.0089C60.0086 13.0089 60.643 12.8161 61.2561 12.4307C61.8834 12.0315 62.5749 11.4395 63.3306 10.6549L63.3092 11.7286C62.8387 12.238 62.3682 12.6647 61.8977 13.0089C61.4272 13.3392 60.9567 13.587 60.4862 13.7522C60.0157 13.9174 59.5381 14 59.0533 14ZM63.4589 13.7522C63.4162 13.7522 63.3734 13.7384 63.3306 13.7109C63.3021 13.6834 63.2878 13.649 63.2878 13.6077C63.2451 13.3048 63.2094 12.9951 63.1809 12.6785C63.1666 12.3619 63.1524 12.0384 63.1381 11.708L63.0953 11.1504V3.62389C63.0953 3.5413 63.1381 3.5 63.2237 3.5H64.0791C64.1789 3.5 64.2288 3.5413 64.2288 3.62389V11.3569C64.2288 11.7286 64.236 12.1072 64.2502 12.4926C64.2787 12.8643 64.3144 13.236 64.3572 13.6077C64.3714 13.704 64.3144 13.7522 64.1861 13.7522H63.4589Z" fill="#C7154A"/>
<path d="M48.1658 14C47.0537 14 46.1484 13.8555 45.4497 13.5664C44.7654 13.2635 44.2592 12.8299 43.9313 12.2655C43.6176 11.7011 43.475 11.0197 43.5036 10.2212C43.5178 10.0698 43.5749 9.9941 43.6747 9.9941H44.4873C44.6014 9.9941 44.6584 10.0629 44.6584 10.2006C44.6584 11.1917 44.9436 11.9145 45.5139 12.3687C46.0842 12.8092 46.9967 13.0295 48.2514 13.0295C49.506 13.0295 50.4185 12.8368 50.9888 12.4513C51.5734 12.0521 51.8657 11.4258 51.8657 10.5723C51.8657 10.0629 51.7802 9.64995 51.6091 9.33333C51.438 9.00295 51.1671 8.72075 50.7964 8.48672C50.4257 8.2527 49.9409 8.01868 49.3421 7.78466L46.5405 6.62832C45.8703 6.353 45.3285 6.06391 44.9151 5.76106C44.5016 5.44444 44.2022 5.08653 44.0168 4.68731C43.8457 4.27433 43.7602 3.77876 43.7602 3.20059C43.7745 2.14061 44.1665 1.34218 44.9365 0.805309C45.7064 0.268436 46.79 0 48.1872 0C49.1995 0 50.0478 0.144542 50.7322 0.433628C51.4166 0.708948 51.9299 1.11504 52.272 1.65192C52.6285 2.18879 52.7853 2.85644 52.7425 3.65487C52.7283 3.82006 52.6784 3.90265 52.5928 3.90265H51.7588C51.716 3.90265 51.6803 3.88889 51.6518 3.86136C51.6233 3.82006 51.6091 3.75123 51.6091 3.65487C51.6518 2.78761 51.3809 2.12684 50.7964 1.67257C50.2118 1.20452 49.3278 0.970501 48.1444 0.970501C47.1179 0.970501 46.3195 1.14946 45.7491 1.50737C45.1931 1.85152 44.9079 2.39528 44.8937 3.13864C44.8937 3.59292 44.965 3.97148 45.1076 4.27434C45.2644 4.56342 45.5068 4.82497 45.8347 5.059C46.1769 5.27925 46.6331 5.51327 47.2034 5.76106L50.0051 6.9174C50.7322 7.22025 51.3168 7.52999 51.7588 7.84661C52.2008 8.14946 52.5144 8.51425 52.6998 8.941C52.8994 9.36775 52.9992 9.90462 52.9992 10.5516C52.9992 11.6804 52.6142 12.5408 51.8443 13.1327C51.0887 13.7109 49.8625 14 48.1658 14Z" fill="#C7154A"/>
<path d="M12.6875 7.4375C12.6875 6.59181 13.3976 5.90625 14.2734 5.90625H15.8594V7.4375C15.8594 8.28319 15.1493 8.96875 14.2734 8.96875H12.6875V7.4375Z" fill="#C7154A"/>
</svg>
