<svg width="44" height="44" viewBox="0 0 44 44" fill="none" xmlns="http://www.w3.org/2000/svg">
<g id="Slack-1 1" clip-path="url(#clip0_1955_27186)">
<path id="Vector" d="M16.0615 0.108521C13.6422 0.108521 11.6813 2.07385 11.6813 4.49752C11.6807 5.07331 11.7935 5.64358 12.0133 6.17577C12.2332 6.70796 12.5556 7.19163 12.9624 7.59919C13.3691 8.00675 13.8521 8.3302 14.3839 8.55108C14.9156 8.77196 15.4857 8.88594 16.0615 8.88652H20.4424V4.49752C20.4434 3.33458 19.9824 2.21888 19.1608 1.39581C18.3393 0.57273 17.2244 0.109687 16.0615 0.108521ZM16.0615 11.8125H4.3802C1.96093 11.8125 0 13.7779 0 16.2023C0 18.6259 1.96093 20.5913 4.3802 20.5913H16.0622C18.4807 20.5913 20.4424 18.6259 20.4424 16.2023C20.4424 13.7779 18.4807 11.8125 16.0615 11.8125Z" fill="#C7154A"/>
<path id="Vector_2" d="M43.8057 16.2024C43.8057 13.778 41.844 11.8126 39.4247 11.8126C37.0055 11.8126 35.0445 13.778 35.0445 16.2024V20.5914H39.4247C40.5877 20.5902 41.7025 20.1272 42.5241 19.3041C43.3457 18.481 43.8067 17.3653 43.8057 16.2024ZM32.1244 16.2024V4.49764C32.1254 3.33471 31.6644 2.219 30.8428 1.39593C30.0213 0.572852 28.9064 0.109809 27.7435 0.108643C25.3242 0.108643 23.3633 2.07398 23.3633 4.49764V16.2016C23.3633 18.6268 25.3242 20.5921 27.7435 20.5921C28.9064 20.5909 30.0213 20.1279 30.8428 19.3048C31.6644 18.4817 32.1254 17.3653 32.1244 16.2024Z" fill="#C7154A"/>
<path id="Vector_3" d="M27.7435 44.0001C28.9064 43.9989 30.0213 43.5359 30.8428 42.7128C31.6644 41.8897 32.1254 40.774 32.1244 39.6111C32.1254 38.4481 31.6644 37.3324 30.8428 36.5094C30.0213 35.6863 28.9064 35.2232 27.7435 35.2221H23.3633V39.6111C23.3633 42.0347 25.3242 44.0001 27.7435 44.0001ZM27.7435 32.2961H39.4255C41.844 32.2961 43.8057 30.3307 43.8057 27.9063C43.8067 26.7434 43.3457 25.6277 42.5241 24.8046C41.7025 23.9815 40.5877 23.5185 39.4247 23.5173H27.7435C25.3242 23.5173 23.3633 25.4827 23.3633 27.9063C23.3627 28.4821 23.4755 29.0524 23.6954 29.5846C23.9152 30.1168 24.2377 30.6004 24.6444 31.008C25.0511 31.4156 25.5342 31.739 26.0659 31.9599C26.5976 32.1808 27.1677 32.2955 27.7435 32.2961Z" fill="#C7154A"/>
<g id="Group">
<path id="Vector_4" d="M2.21014e-06 27.9063C-0.000575896 28.4821 0.112263 29.0523 0.332076 29.5845C0.551888 30.1167 0.874371 30.6004 1.28111 31.0079C1.68785 31.4155 2.17088 31.739 2.70262 31.9598C3.23437 32.1807 3.80441 32.2947 4.3802 32.2953C5.54314 32.2941 6.65799 31.8311 7.47955 31.008C8.30112 30.1849 8.76211 29.0692 8.76114 27.9063V23.5173H4.3802C1.96094 23.5173 2.21014e-06 25.4826 2.21014e-06 27.9063ZM11.6813 27.9063V39.6103C11.6813 42.0347 13.6422 44 16.0615 44C17.2244 43.9988 18.3393 43.5358 19.1608 42.7127C19.9824 41.8896 20.4434 40.7739 20.4424 39.611V27.9063C20.443 27.3304 20.3301 26.7601 20.1103 26.2279C19.8904 25.6956 19.5679 25.2119 19.161 24.8043C18.7542 24.3968 18.2711 24.0733 17.7393 23.8525C17.2074 23.6317 16.6373 23.5178 16.0615 23.5173C13.6422 23.5173 11.6813 25.4826 11.6813 27.9063Z" fill="#C7154A"/>
</g>
</g>
<defs>
<clipPath id="clip0_1955_27186">
<rect width="44" height="44" fill="white"/>
</clipPath>
</defs>
</svg>
