<svg width="168" height="43" viewBox="0 0 168 43" fill="none" xmlns="http://www.w3.org/2000/svg">
<path fill-rule="evenodd" clip-rule="evenodd" d="M19.9012 19.0003C17.2512 19.0003 15.1029 21.3543 15.1029 24.258C15.1029 27.1617 17.2512 29.5157 19.9012 29.5157C22.5511 29.5157 24.6994 27.1617 24.6994 24.258C24.6994 21.3543 22.5511 19.0003 19.9012 19.0003ZM10.3047 24.258C10.3047 18.4505 14.6012 13.7427 19.9012 13.7427C25.2011 13.7427 29.4976 18.4505 29.4976 24.258C29.4976 30.0654 25.2011 34.7733 19.9012 34.7733C14.6012 34.7733 10.3047 30.0654 10.3047 24.258Z" fill="url(#paint0_linear)"/>
<path d="M27.9551 8.10673C26.375 7.15891 24.9096 5.97685 23.8657 4.64307C22.8322 3.32266 22.3002 1.97617 22.3002 0.598145H17.502C17.502 3.57572 18.6776 6.09075 20.2235 8.06583C21.7589 10.0276 23.7445 11.575 25.6511 12.7186C29.3781 14.9542 31.8965 19.2855 31.8965 24.2576C31.8965 27.4924 30.8302 30.4542 29.0617 32.7441C30.116 32.2797 31.2264 31.9026 32.3669 31.6683C33.3307 31.4704 34.3445 31.3699 35.3765 31.4171C36.2255 29.2165 36.6947 26.7971 36.6947 24.2576C36.6947 17.2882 33.1581 11.2276 27.9551 8.10673Z" fill="url(#paint1_linear)"/>
<path d="M6.49609 35.3515C7.81215 37.2626 9.49245 38.922 11.5038 40.1946C17.0122 43.6792 23.5706 43.3532 28.6386 39.9764C30.1777 38.9507 31.8447 38.1511 33.4207 37.8274C34.981 37.507 36.3114 37.6755 37.4004 38.3644L39.7995 33.811C37.4463 32.3224 34.8707 32.1805 32.5369 32.6599C30.2185 33.1361 28.0028 34.2467 26.1456 35.4841C22.5153 37.9029 17.8327 38.1273 13.903 35.6412C11.3405 34.0201 9.53043 31.5196 8.60685 28.6885C8.44683 29.9225 8.18945 31.1664 7.80395 32.3671C7.47821 33.3815 7.05017 34.395 6.49609 35.3515Z" fill="url(#paint2_linear)"/>
<path d="M17.8222 5.9917C15.6575 6.2861 13.5098 7.05038 11.5019 8.32063C5.99357 11.8054 2.97208 18.192 3.10694 24.6896C3.1479 26.663 2.94636 28.6446 2.41416 30.3022C1.88731 31.9431 1.08912 33.1212 0 33.8102L2.39911 38.3636C4.75243 36.8747 6.15236 34.5017 6.94045 32.0471C7.72317 29.6092 7.95334 26.9512 7.90394 24.5701C7.80733 19.9157 9.9713 15.36 13.901 12.8739C16.4593 11.2554 19.3356 10.7869 22.0312 11.322C21.1356 10.5529 20.281 9.68659 19.5246 8.72015C18.8866 7.90508 18.3006 6.99378 17.8222 5.9917Z" fill="url(#paint3_linear)"/>
<path d="M100.461 16.4981V15.9461C100.461 14.0392 101.613 12.8434 103.384 12.8434V9.41748C101.701 9.41748 99.6348 10.0316 98.6015 11.2274C97.5683 12.4232 97.0371 13.9745 97.0371 15.9461V31.7853H100.461V19.6331H103.384V16.4981H100.461Z" fill="black"/>
<path d="M108.807 9.41748H105.383V31.7853H108.807V9.41748Z" fill="black"/>
<path d="M147.477 16.4979H144.053V31.7851H147.477V22.6017C147.477 22.3957 147.541 22.1946 147.666 22.0413C148.86 20.5831 150.482 19.8219 152.554 19.7299V16.207C150.488 16.207 148.805 16.9504 147.477 18.4371V16.4979Z" fill="black"/>
<path d="M125.214 16.498H121.819V26.6141C120.727 28.1332 119.517 28.8765 118.188 28.8765C116.063 28.8765 114.764 27.3252 114.764 24.7073V16.498H111.369V24.9335C111.369 27.1636 111.93 28.9412 113.052 30.2663C114.174 31.5914 115.65 32.2701 117.48 32.2701C119.103 32.2701 120.55 31.6883 121.819 30.4925V31.7853H125.214V16.498Z" fill="black"/>
<path d="M88.5952 15.9609C87.0013 15.9609 85.5549 16.5427 84.2856 17.7062V16.4457H80.8613V31.7329H84.2856V21.5522C85.3778 20.0978 86.5881 19.3545 87.887 19.3545C90.0124 19.3545 91.3112 20.8412 91.3112 23.5237V31.7329H94.706V23.2975C94.706 21.0675 94.145 19.2899 93.0232 17.9647C91.9015 16.6396 90.4256 15.9609 88.5952 15.9609Z" fill="black"/>
<path fill-rule="evenodd" clip-rule="evenodd" d="M78.7055 24.1056C78.7055 21.8109 77.9972 19.9041 76.5803 18.385C75.193 16.866 73.4217 16.0903 71.2962 16.0903C69.1708 16.0903 67.3997 16.866 65.9829 18.385C64.566 19.9041 63.8574 21.8109 63.8574 24.1056C63.8574 26.4326 64.566 28.3718 65.9829 29.9232C67.3997 31.4422 69.1708 32.2178 71.2962 32.2178C73.3922 32.2178 75.1635 31.4422 76.5803 29.9232C77.9972 28.3718 78.7055 26.4326 78.7055 24.1056ZM75.311 24.1056C75.311 25.4307 74.9271 26.5619 74.1893 27.4669C73.4512 28.3718 72.477 28.8243 71.2962 28.8243C70.1154 28.8243 69.1412 28.3718 68.3739 27.4669C67.6358 26.5619 67.2522 25.4307 67.2522 24.1056C67.2522 21.4877 68.9052 19.4839 71.2962 19.4839C73.6578 19.4839 75.311 21.4877 75.311 24.1056Z" fill="black"/>
<path fill-rule="evenodd" clip-rule="evenodd" d="M141.973 24.3291C141.973 24.583 141.956 24.9443 141.921 25.413H130.905C131.098 26.5654 131.598 27.4833 132.404 28.1669C133.228 28.831 134.244 29.163 135.453 29.163C136.996 29.163 138.266 28.5966 139.265 27.4638L141.027 29.7197C140.396 30.5595 139.598 31.1943 138.635 31.624C137.67 32.0536 136.584 32.2685 135.375 32.2685C133.832 32.2685 132.474 31.9267 131.299 31.2431C130.125 30.5595 129.214 29.6122 128.566 28.4013C127.935 27.1709 127.619 25.7841 127.619 24.2412C127.619 22.7177 127.926 21.3506 128.539 20.1396C129.17 18.9092 130.038 17.9521 131.142 17.2685C132.246 16.585 133.491 16.2432 134.875 16.2432C136.242 16.2432 137.46 16.585 138.529 17.2685C139.616 17.9326 140.457 18.8799 141.053 20.1103C141.667 21.3213 141.973 22.7275 141.973 24.3291ZM134.875 19.1728C134.675 19.1728 134.482 19.1855 134.293 19.2108H134.236C133.443 19.3129 132.753 19.633 132.165 20.171C131.457 20.8167 131.025 21.6836 130.869 22.772H138.723C138.585 21.7021 138.161 20.8351 137.453 20.171C136.879 19.633 136.191 19.3129 135.39 19.2108H135.348C135.201 19.1859 135.045 19.1728 134.875 19.1728Z" fill="black"/>
<path fill-rule="evenodd" clip-rule="evenodd" d="M167.999 16.5399H164.605V18.1583C163.639 16.9851 162.014 16.2432 160.254 16.2432C158.305 16.2432 156.723 16.9183 155.335 18.502C153.978 20.0534 153.299 21.9279 153.299 24.158C153.299 26.388 153.978 28.2626 155.335 29.8139C156.723 31.3652 158.376 32.1409 160.324 32.1409C161.977 32.1409 163.394 31.6561 164.605 30.7189V31.7854H167.999V16.5399ZM160.524 28.7073C162.843 28.7073 164.722 26.6479 164.722 24.1074C164.722 21.567 162.843 19.5076 160.524 19.5076C158.206 19.5076 156.327 21.567 156.327 24.1074C156.327 26.6479 158.206 28.7073 160.524 28.7073Z" fill="black"/>
<path d="M51.3889 24.0691C51.3889 26.6891 53.0419 28.6945 55.4034 28.6945C57.1452 28.6945 58.444 27.6271 58.7687 25.9775H62.252C62.0454 27.7565 61.2778 29.2444 60.0085 30.3765C58.7392 31.5086 57.2042 32.0585 55.4034 32.0585C53.3075 32.0585 51.5365 31.2822 50.1196 29.7619C48.7027 28.2417 47.9941 26.3333 47.9941 24.0691C47.9941 21.7725 48.7027 19.8642 50.1196 18.3439C51.5365 16.8237 53.3075 16.0474 55.4034 16.0474C57.1747 16.0474 58.7097 16.6296 59.979 17.7617C61.2778 18.8938 62.0454 20.3493 62.252 22.1284H58.7687C58.444 20.4787 57.1452 19.4437 55.4034 19.4437C53.0419 19.4437 51.3889 21.4491 51.3889 24.0691Z" fill="black"/>
<defs>
<linearGradient id="paint0_linear" x1="19.9012" y1="13.7427" x2="19.9012" y2="34.7733" gradientUnits="userSpaceOnUse">
<stop stop-color="#0BBAA1"/>
<stop offset="1" stop-color="#1A65D9"/>
</linearGradient>
<linearGradient id="paint1_linear" x1="23.4601" y1="1.36206" x2="33.482" y2="31.4784" gradientUnits="userSpaceOnUse">
<stop stop-color="#08CC96"/>
<stop offset="0.606518" stop-color="#0DB4A5"/>
<stop offset="1" stop-color="#0DB4A5" stop-opacity="0"/>
</linearGradient>
<linearGradient id="paint2_linear" x1="39.7995" y1="35.4739" x2="9.52349" y2="29.9902" gradientUnits="userSpaceOnUse">
<stop stop-color="#186DD4"/>
<stop offset="0.519825" stop-color="#196AD5"/>
<stop offset="1" stop-color="#196AD5" stop-opacity="0"/>
</linearGradient>
<linearGradient id="paint3_linear" x1="7.0724" y1="37.1021" x2="24.27" y2="17.6598" gradientUnits="userSpaceOnUse">
<stop stop-color="#1B63DB"/>
<stop offset="0.572055" stop-color="#0CB7A3"/>
<stop offset="1" stop-color="#0DB4A5" stop-opacity="0"/>
</linearGradient>
</defs>
</svg>
