<?xml version="1.0" encoding="UTF-8" standalone="no"?>
<svg
   xmlns:dc="http://purl.org/dc/elements/1.1/"
   xmlns:cc="http://creativecommons.org/ns#"
   xmlns:rdf="http://www.w3.org/1999/02/22-rdf-syntax-ns#"
   xmlns:svg="http://www.w3.org/2000/svg"
   xmlns="http://www.w3.org/2000/svg"
   xmlns:sodipodi="http://sodipodi.sourceforge.net/DTD/sodipodi-0.dtd"
   xmlns:inkscape="http://www.inkscape.org/namespaces/inkscape"
   viewBox="0 0 700 700"
   version="1.1"
   id="svg18"
   sodipodi:docname="my-cujoo-logo.svg"
   width="700"
   height="700"
   inkscape:export-filename="C:\Users\alex\sites\my-cujoo-logo-0.png"
   inkscape:export-xdpi="561.73999"
   inkscape:export-ydpi="561.73999"
   inkscape:version="0.92.3 (2405546, 2018-03-11)">
  <metadata
     id="metadata24">
    <rdf:RDF>
      <cc:Work
         rdf:about="">
        <dc:format>image/svg+xml</dc:format>
        <dc:type
           rdf:resource="http://purl.org/dc/dcmitype/StillImage" />
        <dc:title></dc:title>
      </cc:Work>
    </rdf:RDF>
  </metadata>
  <defs
     id="defs22" />
  <sodipodi:namedview
     pagecolor="#ffffff"
     bordercolor="#666666"
     borderopacity="1"
     objecttolerance="10"
     gridtolerance="10"
     guidetolerance="10"
     inkscape:pageopacity="0"
     inkscape:pageshadow="2"
     inkscape:window-width="1600"
     inkscape:window-height="838"
     id="namedview20"
     showgrid="false"
     inkscape:zoom="0.35355339"
     inkscape:cx="-25.310242"
     inkscape:cy="371.50043"
     inkscape:window-x="-8"
     inkscape:window-y="-8"
     inkscape:window-maximized="1"
     inkscape:current-layer="g16"
     inkscape:document-units="cm"
     units="cm" />
  <g
     id="g16"
     style="fill:none;fill-rule:evenodd"
     transform="matrix(4.2320262,0,0,4.2320262,121.47059,100.31045)">
    <g
       transform="translate(0.00399887)"
       id="g14"
       style="fill:none;fill-rule:nonzero"
       inkscape:export-filename="C:\Users\alex\sites\my-cujoo-logo-4.png"
       inkscape:export-xdpi="84.122932"
       inkscape:export-ydpi="84.122932">
      <path
         d="m 104.647,15.549 -6.2,1.025 V 0.143 H 9.553 v 26.038 l -8.438,6.853 -1.05,0.852 v 60.615 l 3.287,-0.542 6.2,-1.025 v 5.846 l 1.716,0.74 41.615,17.86 1.11,0.477 1.11,-0.477 41.621,-17.867 1.715,-0.739 V 83.321 l 8.438,-6.853 1.05,-0.853 V 15.006 Z"
         id="path4"
         inkscape:connector-curvature="0"
         style="fill:#ffffff" />
      <path
         d="M 95.616,2.986 V 96.903 L 54,114.763 12.384,96.903 V 2.986 Z"
         id="path6"
         inkscape:connector-curvature="0"
         style="fill:#38d430" />
      <path
         d="m 20.68,18.636 0.208,9.767 -4.178,0.686 V 11.74 l 5.857,-0.965 2.415,8.945 0.095,-0.018 2.09,-9.678 6.052,-0.995 v 17.354 l -4.368,0.715 0.131,-9.773 -0.113,-0.006 -2.486,10.185 -3.163,0.518 -2.445,-9.404 z m 23.986,5.87 -4.48,0.733 v -7.104 l -5.033,-9.422 5.406,-0.888 2.107,4.756 2.018,-5.43 5.269,-0.864 -5.287,11.11 z"
         id="path8"
         inkscape:connector-curvature="0"
         style="fill:#ffffff" />
      <path
         d="M 12.384,33.672 V 27.533 L 2.896,35.245 V 91.158 L 95.616,75.83 v 6.138 l 9.488,-7.705 V 18.35 Z"
         id="path10"
         inkscape:connector-curvature="0"
         style="fill:#000000" />
      <path
         d="m 17.268,52.361 v -5.65 l -2.973,1.043 v 26.74 l 2.973,-1.036 v -5.71 l 6.557,-2.306 V 78.124 L 8.22,83.667 V 42.575 L 23.826,37.033 V 50.06 Z M 42.95,34.113 V 75.204 L 27.344,80.747 V 39.655 l 5.792,-2.056 v 33.624 l 4.017,-1.406 V 36.169 Z M 62.082,31.198 62.076,72.29 46.47,77.832 V 62.391 l 5.845,-2.092 v 7.58 l 3.519,-1.257 V 41.48 L 46.47,44.823 V 36.742 Z M 75.22,64.47 71.583,65.776 V 38.72 l 3.637,-1.299 v 27.05 z M 65.595,33.827 V 74.912 L 81.202,69.37 V 28.278 Z M 94.191,61.55 90.554,62.856 V 35.799 L 94.19,34.5 V 61.55 Z M 84.566,30.906 v 41.086 l 15.607,-5.543 V 25.364 Z"
         id="path12"
         inkscape:connector-curvature="0"
         style="fill:#ffffff" />
    </g>
  </g>
</svg>
