<svg id="svg" version="1.1" xmlns="http://www.w3.org/2000/svg" xmlns:xlink="http://www.w3.org/1999/xlink" width="400" height="178.99761336515513" viewBox="0, 0, 400,178.99761336515513"><g id="svgg"><path id="path0" d="M248.165 67.450 C 247.048 67.661,246.273 69.172,246.444 70.807 C 246.506 71.402,246.637 71.916,246.734 71.949 C 246.832 71.981,246.911 72.088,246.911 72.185 C 246.911 72.394,247.191 72.683,247.802 73.105 C 248.187 73.372,248.767 73.411,252.304 73.411 C 255.840 73.411,256.377 73.447,256.471 73.694 C 256.531 73.850,256.580 80.443,256.580 88.346 C 256.580 102.913,256.631 104.208,257.253 105.372 C 258.421 107.559,261.079 107.414,262.191 105.103 C 262.578 104.299,262.578 104.265,262.623 89.257 C 262.647 80.985,262.709 74.035,262.760 73.814 L 262.854 73.411 267.042 73.411 L 271.229 73.411 272.052 72.612 L 272.874 71.813 272.874 70.478 C 272.874 69.019,272.626 68.381,271.821 67.769 C 271.370 67.427,249.826 67.136,248.165 67.450 M285.648 67.441 C 284.961 67.540,283.839 68.582,283.696 69.255 C 283.639 69.522,283.517 69.925,283.425 70.152 C 283.203 70.701,283.203 103.515,283.425 104.065 C 283.517 104.291,283.639 104.695,283.696 104.963 C 283.753 105.231,284.118 105.785,284.507 106.193 L 285.213 106.936 286.382 106.862 C 287.528 106.789,288.630 106.159,288.630 105.576 C 288.630 105.479,288.769 105.247,288.938 105.060 C 289.216 104.752,289.253 104.002,289.318 97.293 C 289.404 88.371,289.139 88.941,292.927 89.530 C 294.548 89.782,297.021 91.475,297.041 92.346 C 297.043 92.469,297.125 92.569,297.221 92.569 C 297.318 92.569,297.447 92.771,297.509 93.017 C 297.571 93.263,297.688 93.465,297.769 93.465 C 297.850 93.465,297.973 93.646,298.043 93.868 C 298.112 94.089,298.218 94.311,298.278 94.360 C 298.499 94.539,299.910 97.502,299.910 97.785 C 299.910 97.945,300.031 98.176,300.179 98.299 C 300.327 98.422,300.448 98.666,300.448 98.843 C 300.448 99.020,300.508 99.191,300.582 99.224 C 300.656 99.257,300.847 99.566,301.007 99.910 C 301.167 100.255,301.630 101.208,302.037 102.028 C 302.443 102.848,302.775 103.634,302.775 103.774 C 302.775 103.914,302.854 104.029,302.951 104.029 C 303.048 104.029,303.177 104.230,303.239 104.476 C 303.301 104.722,303.423 104.924,303.511 104.924 C 303.599 104.924,303.673 105.025,303.677 105.148 C 303.707 106.293,306.057 107.277,307.464 106.733 C 308.915 106.173,309.737 103.790,308.953 102.417 C 308.812 102.171,308.694 101.787,308.690 101.564 C 308.687 101.341,308.607 101.019,308.514 100.848 C 308.420 100.677,308.212 100.215,308.053 99.821 C 307.304 97.975,306.655 96.611,306.491 96.538 C 306.417 96.506,306.356 96.334,306.356 96.157 C 306.356 95.981,306.235 95.736,306.088 95.613 C 305.940 95.491,305.819 95.239,305.819 95.054 C 305.819 94.869,305.757 94.718,305.681 94.718 C 305.605 94.718,305.384 94.416,305.190 94.047 C 304.351 92.447,301.789 89.346,301.306 89.346 C 301.228 89.346,301.164 89.105,301.164 88.809 C 301.164 88.436,301.251 88.272,301.450 88.272 C 301.608 88.272,302.031 88.143,302.390 87.984 C 303.538 87.478,304.295 87.111,304.387 87.014 C 304.436 86.962,304.839 86.641,305.282 86.299 C 305.725 85.958,306.113 85.623,306.144 85.555 C 306.174 85.486,306.435 85.163,306.723 84.837 C 307.010 84.511,307.247 84.153,307.249 84.042 C 307.250 83.931,307.372 83.739,307.520 83.617 C 307.668 83.494,307.789 83.207,307.789 82.979 C 307.789 82.750,307.860 82.520,307.947 82.466 C 308.034 82.412,308.160 82.006,308.226 81.564 C 308.292 81.122,308.422 80.713,308.515 80.656 C 308.732 80.522,308.737 75.435,308.521 75.301 C 308.431 75.245,308.300 74.861,308.230 74.446 C 308.099 73.672,308.060 73.562,307.550 72.546 C 307.386 72.218,307.252 71.838,307.252 71.702 C 307.252 70.907,303.524 67.860,302.552 67.860 C 302.419 67.860,302.212 67.762,302.092 67.643 C 301.876 67.427,287.010 67.244,285.648 67.441 M323.635 67.486 C 322.797 67.694,322.316 68.071,322.015 68.754 C 321.862 69.100,321.661 69.522,321.567 69.693 C 321.352 70.086,321.335 103.370,321.549 103.807 C 321.633 103.978,321.842 104.411,322.014 104.769 C 322.238 105.235,322.588 105.552,323.252 105.888 L 324.177 106.356 333.802 106.356 L 343.427 106.356 344.122 105.917 C 345.188 105.244,345.950 102.606,345.210 102.149 C 345.112 102.088,345.031 101.886,345.031 101.700 C 345.031 101.513,344.762 101.156,344.433 100.904 L 343.834 100.448 335.928 100.448 C 328.260 100.448,328.011 100.437,327.663 100.090 C 327.171 99.597,327.101 89.398,327.587 88.912 C 327.833 88.665,328.747 88.630,334.913 88.630 C 342.265 88.630,343.056 88.550,343.061 87.802 C 343.061 87.691,343.183 87.499,343.330 87.377 C 343.727 87.048,343.695 84.928,343.284 84.315 C 342.530 83.192,343.043 83.259,335.196 83.259 C 326.252 83.259,327.305 83.952,327.305 78.066 C 327.305 72.169,326.162 72.874,335.730 72.874 L 343.439 72.874 343.942 72.381 C 345.259 71.092,345.260 68.951,343.945 67.760 C 343.541 67.394,325.008 67.145,323.635 67.486 M359.373 67.452 C 358.710 67.536,358.025 68.142,357.520 69.091 C 357.011 70.047,357.039 103.446,357.550 104.447 C 358.552 106.413,358.199 106.356,369.480 106.356 C 378.225 106.356,379.071 106.330,379.609 106.043 C 380.327 105.660,380.828 105.116,380.836 104.711 C 380.839 104.544,380.922 104.358,381.021 104.297 C 381.619 103.927,380.700 100.806,379.993 100.806 C 379.869 100.806,379.767 100.725,379.767 100.627 C 379.767 100.510,377.026 100.448,371.901 100.448 C 367.223 100.448,363.848 100.377,363.575 100.273 L 363.115 100.098 363.115 94.579 C 363.115 90.525,363.173 89.003,363.330 88.845 C 363.490 88.685,365.369 88.630,370.678 88.630 C 378.650 88.630,378.392 88.670,379.061 87.357 C 379.700 86.104,379.422 84.453,378.424 83.583 C 378.097 83.298,377.463 83.270,371.050 83.265 C 366.941 83.261,363.844 83.186,363.575 83.084 L 363.115 82.909 363.115 78.066 L 363.115 73.223 363.575 73.048 C 363.847 72.945,367.129 72.874,371.634 72.874 L 379.233 72.874 379.735 72.427 C 380.861 71.423,380.865 69.002,379.743 67.926 L 379.207 67.413 369.594 67.394 C 364.308 67.383,359.708 67.409,359.373 67.452 M299.201 73.218 C 301.316 73.961,302.596 76.012,302.596 78.658 C 302.596 79.207,302.516 79.706,302.417 79.767 C 302.319 79.828,302.238 80.118,302.238 80.411 C 302.238 81.290,300.628 83.259,299.909 83.259 C 299.752 83.259,299.547 83.329,299.454 83.415 C 298.626 84.177,289.914 84.522,289.532 83.808 C 289.254 83.289,289.282 73.368,289.561 73.089 C 289.960 72.690,298.006 72.798,299.201 73.218 M60.430 80.880 C 60.134 80.923,59.816 81.033,59.722 81.124 C 59.629 81.215,59.446 81.289,59.316 81.289 C 59.005 81.289,57.833 82.503,57.833 82.826 C 57.833 82.966,57.753 83.080,57.654 83.080 C 57.550 83.080,57.475 83.677,57.475 84.512 C 57.475 85.348,57.550 85.944,57.654 85.944 C 57.753 85.944,57.833 86.060,57.833 86.200 C 57.833 86.546,58.871 87.594,59.534 87.919 C 59.985 88.140,62.038 88.197,72.337 88.272 C 82.230 88.344,84.592 88.406,84.554 88.593 C 84.507 88.825,84.043 89.371,82.543 90.963 C 82.099 91.433,81.294 92.294,80.752 92.877 C 80.210 93.461,78.438 95.339,76.813 97.051 C 75.188 98.764,73.335 100.727,72.695 101.413 C 71.360 102.845,67.942 106.432,66.859 107.538 C 66.457 107.949,65.952 108.509,65.738 108.781 C 65.524 109.053,63.919 110.760,62.173 112.574 C 59.068 115.799,58.488 116.412,56.332 118.738 C 55.752 119.363,54.422 120.761,53.376 121.844 C 52.330 122.927,50.959 124.378,50.328 125.067 C 49.697 125.756,47.844 127.727,46.211 129.447 C 44.577 131.166,42.798 133.054,42.256 133.641 C 38.245 137.991,35.649 140.588,35.441 140.459 C 35.218 140.321,35.226 139.710,35.452 139.570 C 35.551 139.509,35.631 139.278,35.631 139.057 C 35.631 138.835,35.749 138.498,35.894 138.306 C 36.039 138.115,36.159 137.782,36.163 137.567 C 36.166 137.351,36.243 137.128,36.334 137.072 C 36.424 137.016,36.556 136.712,36.625 136.396 C 36.694 136.080,36.811 135.698,36.885 135.548 C 37.260 134.782,37.601 133.891,37.601 133.676 C 37.601 133.543,37.721 133.203,37.868 132.921 C 38.015 132.639,38.136 132.267,38.137 132.095 C 38.137 131.923,38.218 131.782,38.317 131.782 C 38.415 131.782,38.496 131.596,38.496 131.368 C 38.496 131.141,38.614 130.798,38.759 130.607 C 38.903 130.416,39.024 130.083,39.027 129.867 C 39.031 129.652,39.107 129.429,39.198 129.373 C 39.289 129.317,39.420 129.012,39.490 128.697 C 39.559 128.381,39.676 127.999,39.750 127.848 C 40.121 127.091,40.466 126.193,40.466 125.984 C 40.466 125.764,40.808 124.934,41.193 124.219 C 41.285 124.048,41.361 123.761,41.361 123.582 C 41.361 123.402,41.479 123.099,41.624 122.908 C 41.768 122.717,41.889 122.429,41.892 122.268 C 41.895 122.106,42.018 121.744,42.165 121.462 C 42.313 121.180,42.433 120.813,42.434 120.646 C 42.435 120.480,42.516 120.294,42.614 120.233 C 42.713 120.172,42.794 119.986,42.794 119.819 C 42.795 119.653,42.916 119.286,43.063 119.004 C 43.210 118.722,43.330 118.392,43.330 118.270 C 43.330 118.063,43.681 117.220,44.058 116.520 C 44.150 116.349,44.226 116.062,44.226 115.883 C 44.226 115.703,44.344 115.400,44.488 115.209 C 44.633 115.018,44.754 114.729,44.757 114.568 C 44.760 114.407,44.883 114.045,45.030 113.763 C 45.177 113.481,45.298 113.114,45.299 112.947 C 45.299 112.780,45.380 112.594,45.479 112.534 C 45.577 112.473,45.658 112.232,45.658 111.999 C 45.658 111.765,45.779 111.454,45.927 111.306 C 46.074 111.158,46.195 110.835,46.195 110.587 C 46.195 110.340,46.276 110.088,46.374 110.027 C 46.473 109.966,46.553 109.483,46.553 108.953 C 46.553 108.423,46.473 107.939,46.374 107.878 C 46.276 107.817,46.195 107.621,46.195 107.441 C 46.195 107.017,44.818 105.640,44.394 105.640 C 44.215 105.640,44.018 105.560,43.957 105.461 C 43.896 105.363,43.413 105.282,42.883 105.282 C 42.353 105.282,41.869 105.363,41.808 105.461 C 41.748 105.560,41.562 105.642,41.395 105.644 C 40.928 105.649,39.845 106.723,39.502 107.520 C 39.333 107.914,39.118 108.376,39.024 108.547 C 38.931 108.718,38.854 108.988,38.854 109.146 C 38.854 109.305,38.743 109.648,38.608 109.910 C 38.473 110.171,38.220 110.828,38.046 111.370 C 37.872 111.911,37.660 112.431,37.576 112.525 C 37.491 112.618,37.419 112.860,37.416 113.062 C 37.413 113.264,37.292 113.585,37.147 113.776 C 37.003 113.968,36.885 114.305,36.885 114.527 C 36.885 114.748,36.810 114.976,36.719 115.032 C 36.628 115.088,36.497 115.392,36.428 115.708 C 36.296 116.309,36.239 116.454,35.751 117.427 C 35.587 117.755,35.452 118.174,35.452 118.357 C 35.452 118.540,35.372 118.739,35.273 118.800 C 35.175 118.861,35.094 119.047,35.093 119.214 C 35.092 119.380,34.971 119.747,34.824 120.029 C 34.677 120.311,34.554 120.674,34.551 120.835 C 34.548 120.996,34.427 121.284,34.283 121.476 C 34.138 121.667,34.020 121.957,34.020 122.120 C 34.020 122.391,33.708 123.174,33.292 123.946 C 33.200 124.117,33.124 124.403,33.124 124.583 C 33.124 124.762,33.006 125.066,32.862 125.257 C 32.717 125.448,32.596 125.743,32.593 125.912 C 32.588 126.192,32.244 127.104,31.849 127.885 C 31.763 128.056,31.689 128.338,31.686 128.511 C 31.683 128.685,31.562 128.984,31.418 129.175 C 31.273 129.366,31.155 129.704,31.155 129.925 C 31.155 130.147,31.081 130.374,30.990 130.430 C 30.899 130.486,30.768 130.791,30.698 131.106 C 30.566 131.707,30.509 131.852,30.021 132.826 C 29.857 133.154,29.722 133.527,29.722 133.656 C 29.722 133.784,29.602 134.120,29.455 134.402 C 29.308 134.684,29.187 135.051,29.186 135.218 C 29.186 135.384,29.105 135.570,29.006 135.631 C 28.908 135.692,28.827 135.923,28.827 136.145 C 28.827 136.366,28.709 136.704,28.564 136.895 C 28.420 137.086,28.299 137.371,28.296 137.528 C 28.291 137.792,27.967 138.593,27.562 139.344 C 27.470 139.515,27.395 139.802,27.395 139.981 C 27.395 140.161,27.277 140.464,27.132 140.655 C 26.987 140.846,26.866 141.134,26.863 141.296 C 26.860 141.457,26.737 141.819,26.590 142.101 C 26.443 142.383,26.322 142.750,26.322 142.917 C 26.321 143.083,26.240 143.269,26.141 143.330 C 26.043 143.391,25.962 143.622,25.962 143.844 C 25.962 144.065,25.844 144.403,25.700 144.594 C 25.555 144.785,25.434 145.074,25.431 145.235 C 25.428 145.396,25.305 145.758,25.158 146.040 C 25.011 146.322,24.890 146.694,24.889 146.867 C 24.889 147.039,24.808 147.180,24.709 147.180 C 24.611 147.180,24.530 147.366,24.530 147.593 C 24.530 147.821,24.412 148.163,24.267 148.354 C 24.123 148.545,24.002 148.834,23.999 148.995 C 23.995 149.156,23.872 149.518,23.725 149.800 C 23.578 150.083,23.457 150.450,23.457 150.616 C 23.456 150.783,23.375 150.969,23.277 151.030 C 23.178 151.090,23.098 151.321,23.098 151.543 C 23.098 151.765,22.979 152.102,22.835 152.293 C 22.690 152.485,22.569 152.770,22.566 152.927 C 22.561 153.191,22.237 153.991,21.833 154.742 C 21.741 154.913,21.665 155.200,21.665 155.380 C 21.665 155.559,21.547 155.862,21.402 156.054 C 21.039 156.534,21.035 158.518,21.397 158.818 C 21.544 158.941,21.665 159.165,21.665 159.317 C 21.665 159.671,22.914 160.788,23.311 160.788 C 23.477 160.788,23.663 160.868,23.724 160.967 C 23.785 161.065,24.234 161.146,24.722 161.146 C 25.528 161.146,25.871 161.046,26.679 160.576 C 26.826 160.490,27.088 160.372,27.261 160.314 C 27.433 160.256,27.574 160.152,27.574 160.083 C 27.574 160.013,27.997 159.510,28.514 158.964 C 29.031 158.418,30.421 156.940,31.603 155.680 C 32.784 154.420,34.155 152.979,34.649 152.478 C 35.142 151.977,36.591 150.439,37.869 149.060 C 39.147 147.681,40.597 146.142,41.090 145.639 C 41.584 145.137,42.914 143.732,44.047 142.518 C 45.179 141.304,46.589 139.792,47.180 139.158 C 47.771 138.525,49.100 137.134,50.134 136.067 C 51.168 135.000,52.538 133.556,53.178 132.857 C 53.818 132.158,54.785 131.120,55.327 130.551 C 59.718 125.935,62.251 123.256,63.307 122.113 C 64.478 120.846,66.979 118.222,69.066 116.071 C 69.581 115.540,70.169 114.894,70.372 114.635 C 70.575 114.377,72.168 112.684,73.911 110.872 C 76.996 107.668,77.625 107.005,79.678 104.795 C 80.219 104.212,81.992 102.333,83.617 100.621 C 85.242 98.908,87.095 96.944,87.735 96.255 C 88.375 95.566,89.302 94.588,89.794 94.081 C 90.937 92.904,94.296 89.313,95.949 87.501 L 97.225 86.102 97.225 84.534 C 97.225 82.757,96.681 81.810,95.281 81.150 C 94.658 80.855,62.306 80.605,60.430 80.880 " stroke="none" fill="#04a3db" fill-rule="evenodd"></path><path id="path1" d="M89.884 19.593 C 89.539 19.821,88.975 20.307,88.630 20.673 C 88.286 21.039,87.601 21.755,87.108 22.264 C 86.616 22.773,85.286 24.192,84.154 25.419 C 83.021 26.645,81.690 28.055,81.195 28.551 C 80.700 29.048,79.290 30.540,78.061 31.868 C 76.833 33.196,75.425 34.694,74.933 35.197 C 74.440 35.700,73.030 37.180,71.799 38.485 C 70.568 39.791,69.199 41.240,68.756 41.705 C 68.312 42.170,66.983 43.582,65.801 44.841 C 64.620 46.101,63.250 47.546,62.757 48.053 C 62.265 48.560,60.900 50.009,59.723 51.273 C 58.546 52.538,57.136 54.029,56.590 54.587 C 56.043 55.145,54.669 56.607,53.536 57.836 C 52.404 59.064,51.074 60.480,50.582 60.982 C 49.816 61.763,48.003 63.671,44.405 67.481 C 43.962 67.950,42.632 69.365,41.450 70.625 C 40.269 71.884,38.899 73.330,38.406 73.837 C 37.914 74.343,36.549 75.792,35.372 77.057 C 34.195 78.321,32.785 79.812,32.239 80.370 C 31.692 80.928,30.318 82.388,29.185 83.614 C 27.319 85.634,25.063 88.010,22.113 91.061 C 19.642 93.617,19.177 94.371,19.166 95.838 C 19.153 97.580,20.149 98.877,21.930 99.438 C 23.370 99.892,55.060 99.884,56.564 99.429 C 59.750 98.466,60.277 94.285,57.437 92.514 C 56.993 92.237,55.907 92.211,44.873 92.211 C 32.571 92.211,32.229 92.198,32.229 91.721 C 32.229 91.479,34.820 88.584,37.332 86.020 C 37.825 85.517,39.235 84.037,40.466 82.732 C 41.697 81.426,43.066 79.978,43.509 79.513 C 43.953 79.048,45.363 77.557,46.643 76.198 C 47.923 74.840,49.253 73.435,49.599 73.077 C 49.944 72.719,50.785 71.822,51.468 71.083 C 52.151 70.345,54.008 68.371,55.594 66.697 C 57.181 65.022,59.120 62.968,59.902 62.131 C 60.685 61.295,61.607 60.320,61.952 59.965 C 62.296 59.610,63.585 58.252,64.816 56.947 C 66.047 55.642,67.417 54.195,67.860 53.732 C 68.303 53.268,69.714 51.777,70.994 50.418 C 72.274 49.059,73.603 47.654,73.948 47.295 C 74.293 46.936,75.622 45.517,76.903 44.141 C 79.486 41.363,80.747 40.107,80.953 40.107 C 81.238 40.107,81.261 40.420,81.011 40.902 C 80.869 41.177,80.752 41.549,80.752 41.729 C 80.752 41.909,80.671 42.106,80.573 42.167 C 80.474 42.227,80.394 42.401,80.394 42.553 C 80.394 42.705,80.284 43.082,80.150 43.393 C 79.671 44.505,79.467 45.032,79.105 46.098 C 78.903 46.693,78.668 47.256,78.581 47.350 C 78.495 47.444,78.424 47.662,78.424 47.836 C 78.424 48.010,78.310 48.417,78.171 48.741 C 78.031 49.064,77.789 49.623,77.634 49.982 C 77.478 50.342,77.350 50.751,77.350 50.892 C 77.350 51.034,77.295 51.204,77.227 51.272 C 77.101 51.398,76.973 51.727,76.280 53.715 C 76.056 54.355,75.803 54.956,75.717 55.049 C 75.630 55.143,75.560 55.362,75.560 55.536 C 75.560 55.814,75.254 56.645,74.844 57.481 C 74.770 57.632,74.653 58.014,74.584 58.330 C 74.514 58.645,74.383 58.950,74.292 59.006 C 74.202 59.062,74.127 59.258,74.127 59.441 C 74.127 59.624,74.010 60.002,73.866 60.281 C 73.722 60.560,73.394 61.392,73.136 62.131 C 72.581 63.723,72.173 64.803,71.983 65.180 C 71.907 65.331,71.788 65.713,71.719 66.029 C 71.650 66.345,71.518 66.649,71.428 66.705 C 71.337 66.761,71.262 66.999,71.262 67.234 C 71.262 67.468,71.190 67.705,71.101 67.760 C 70.479 68.144,69.873 71.392,70.202 72.579 C 71.086 75.760,76.563 75.870,77.255 72.721 C 77.322 72.413,77.452 72.116,77.543 72.060 C 77.634 72.003,77.708 71.776,77.708 71.555 C 77.708 71.333,77.826 70.995,77.971 70.804 C 78.116 70.613,78.236 70.314,78.240 70.141 C 78.243 69.967,78.322 69.685,78.416 69.514 C 78.658 69.072,79.089 68.013,79.198 67.592 C 79.295 67.214,80.108 64.978,80.370 64.369 C 80.454 64.172,80.655 63.706,80.817 63.333 C 80.978 62.961,81.110 62.513,81.110 62.339 C 81.110 62.166,81.181 61.947,81.267 61.853 C 81.353 61.760,81.607 61.159,81.830 60.519 C 82.524 58.531,82.651 58.202,82.778 58.076 C 82.845 58.008,82.901 57.837,82.901 57.696 C 82.901 57.555,83.014 57.186,83.152 56.876 C 83.291 56.565,83.542 55.909,83.711 55.416 C 83.988 54.611,84.230 53.990,84.688 52.910 C 84.772 52.713,84.881 52.390,84.930 52.193 C 85.026 51.811,85.842 49.567,86.102 48.970 C 86.456 48.158,86.706 47.496,87.045 46.471 C 87.242 45.876,87.468 45.228,87.547 45.031 C 87.627 44.834,87.831 44.311,88.001 43.868 C 88.170 43.424,88.371 42.938,88.447 42.787 C 88.523 42.636,88.641 42.255,88.711 41.939 C 88.780 41.623,88.911 41.319,89.002 41.263 C 89.093 41.207,89.167 41.013,89.167 40.834 C 89.167 40.654,89.288 40.276,89.435 39.994 C 89.582 39.712,89.703 39.356,89.703 39.203 C 89.704 39.051,89.775 38.849,89.862 38.756 C 89.948 38.662,90.201 38.062,90.425 37.422 C 91.118 35.433,91.246 35.105,91.372 34.978 C 91.440 34.910,91.496 34.728,91.496 34.572 C 91.497 34.416,91.618 34.057,91.765 33.775 C 91.912 33.493,92.032 33.157,92.032 33.029 C 92.032 32.900,92.150 32.567,92.294 32.288 C 92.437 32.010,92.766 31.177,93.023 30.439 C 93.578 28.846,93.987 27.767,94.176 27.389 C 94.252 27.238,94.371 26.856,94.440 26.540 C 94.510 26.225,94.641 25.921,94.732 25.864 C 94.823 25.808,94.898 25.626,94.898 25.459 C 94.899 25.293,95.020 24.926,95.167 24.644 C 95.537 23.934,95.536 21.435,95.166 21.128 C 95.018 21.005,94.897 20.804,94.897 20.680 C 94.897 19.486,91.245 18.695,89.884 19.593 M116.831 66.785 C 112.836 67.674,108.863 70.987,108.863 73.431 C 108.863 73.577,108.792 73.774,108.705 73.868 C 108.125 74.494,108.128 79.911,108.709 81.289 C 110.032 84.426,111.315 85.801,114.235 87.210 C 114.875 87.519,115.612 87.884,115.874 88.022 C 116.135 88.160,116.513 88.272,116.714 88.272 C 116.914 88.272,117.122 88.344,117.176 88.431 C 117.230 88.518,117.578 88.646,117.948 88.716 C 118.318 88.785,118.702 88.905,118.800 88.982 C 118.899 89.059,119.221 89.164,119.517 89.214 C 120.005 89.297,120.698 89.518,121.665 89.899 C 121.862 89.977,122.225 90.097,122.471 90.167 C 125.901 91.140,127.486 95.450,125.552 98.552 C 124.817 99.732,124.200 100.197,122.241 101.048 C 120.488 101.811,117.168 101.279,115.843 100.024 C 114.821 99.057,113.518 96.858,113.518 96.102 C 113.518 95.943,113.444 95.767,113.353 95.711 C 113.262 95.655,113.133 95.360,113.066 95.055 C 112.451 92.256,109.893 91.241,108.314 93.170 C 106.558 95.314,108.119 100.859,111.366 104.014 C 115.048 107.592,122.789 108.050,127.523 104.970 C 128.675 104.221,129.056 103.881,130.080 102.686 C 130.724 101.934,132.140 98.921,132.140 98.302 C 132.140 98.113,132.261 97.494,132.408 96.927 C 132.931 94.922,132.268 89.692,131.403 88.988 C 131.342 88.939,131.235 88.713,131.164 88.486 C 130.843 87.459,126.949 84.154,126.060 84.154 C 125.973 84.154,125.634 84.019,125.305 83.855 C 124.332 83.367,124.187 83.310,123.586 83.178 C 123.270 83.109,122.966 82.978,122.910 82.887 C 122.854 82.796,122.614 82.722,122.377 82.722 C 122.140 82.722,121.681 82.607,121.358 82.468 C 121.035 82.328,120.286 82.076,119.696 81.908 C 119.105 81.739,118.545 81.531,118.451 81.445 C 118.358 81.359,118.140 81.289,117.968 81.289 C 117.681 81.289,116.316 80.534,115.350 79.841 C 114.261 79.059,113.621 76.152,114.279 74.975 C 116.203 71.534,121.363 70.836,123.865 73.678 C 124.524 74.428,124.676 74.697,125.956 77.395 C 126.692 78.947,127.457 79.678,128.344 79.678 C 129.008 79.678,130.105 79.161,130.245 78.782 C 130.300 78.635,130.517 78.232,130.728 77.887 C 132.146 75.570,129.861 69.907,126.858 68.295 C 126.661 68.189,126.258 67.981,125.962 67.833 C 125.667 67.686,125.157 67.430,124.829 67.265 C 124.501 67.100,124.082 66.965,123.898 66.965 C 123.713 66.965,123.099 66.844,122.532 66.697 C 121.178 66.344,118.637 66.384,116.831 66.785 M186.140 66.783 C 184.935 67.344,183.348 69.509,183.348 70.591 C 183.348 70.752,183.268 70.933,183.169 70.994 C 183.071 71.055,182.990 71.281,182.989 71.497 C 182.988 71.712,182.868 72.120,182.720 72.402 C 182.573 72.684,182.453 73.029,182.453 73.168 C 182.453 73.465,181.628 76.104,181.269 76.953 C 181.132 77.277,181.021 77.724,181.021 77.947 C 181.021 78.170,180.952 78.429,180.867 78.523 C 180.699 78.709,180.231 80.148,180.040 81.063 C 179.973 81.382,179.844 81.689,179.753 81.745 C 179.663 81.801,179.588 82.035,179.588 82.264 C 179.588 82.493,179.468 82.911,179.321 83.193 C 179.174 83.476,179.053 83.848,179.052 84.022 C 179.052 84.196,178.980 84.478,178.894 84.649 C 178.808 84.820,178.596 85.443,178.423 86.034 C 178.087 87.183,177.666 88.495,177.446 89.078 C 177.371 89.275,177.166 89.919,176.990 90.510 C 176.813 91.101,176.480 92.155,176.248 92.851 C 176.017 93.548,175.828 94.221,175.828 94.346 C 175.828 94.472,175.717 94.828,175.580 95.139 C 175.444 95.449,175.198 96.186,175.033 96.777 C 174.868 97.368,174.657 97.991,174.564 98.162 C 174.472 98.333,174.395 98.615,174.395 98.789 C 174.394 98.963,174.273 99.336,174.126 99.618 C 173.979 99.900,173.859 100.273,173.859 100.446 C 173.859 100.620,173.738 101.051,173.590 101.405 C 172.507 103.997,173.913 106.893,176.256 106.893 C 178.054 106.893,178.713 105.826,180.123 100.627 C 180.243 100.184,180.454 99.496,180.591 99.099 C 180.729 98.702,180.842 98.249,180.842 98.093 C 180.842 97.938,181.009 97.598,181.213 97.338 L 181.584 96.867 187.524 96.869 C 193.950 96.872,194.206 96.894,194.365 97.468 C 194.424 97.679,194.535 98.013,194.612 98.209 C 194.925 99.012,195.345 100.423,195.345 100.675 C 195.345 100.823,195.465 101.175,195.612 101.457 C 195.759 101.739,195.880 102.146,195.881 102.362 C 195.881 102.578,195.962 102.804,196.061 102.865 C 196.159 102.926,196.240 103.100,196.240 103.251 C 196.240 103.871,197.200 105.725,197.872 106.401 C 198.563 107.097,200.241 107.120,201.043 106.445 C 202.258 105.423,202.719 103.111,202.077 101.259 C 201.940 100.862,201.486 99.449,201.069 98.120 C 200.652 96.791,200.247 95.542,200.169 95.345 C 200.091 95.148,199.989 94.785,199.942 94.539 C 199.855 94.078,199.512 93.044,199.289 92.569 C 199.219 92.422,199.021 91.817,198.848 91.226 C 198.675 90.636,198.428 89.870,198.298 89.526 C 198.169 89.181,197.801 88.053,197.481 87.019 C 197.161 85.985,196.841 85.058,196.771 84.960 C 196.701 84.861,196.602 84.539,196.551 84.244 C 196.470 83.765,196.327 83.311,195.874 82.095 C 195.655 81.507,195.233 80.195,194.896 79.051 C 194.721 78.460,194.516 77.816,194.440 77.619 C 194.363 77.422,194.163 76.817,193.995 76.276 C 193.827 75.734,193.629 75.167,193.555 75.017 C 193.481 74.866,193.360 74.465,193.286 74.127 C 193.211 73.789,193.092 73.389,193.019 73.238 C 192.825 72.829,192.301 71.153,192.301 70.937 C 192.301 70.459,191.182 68.411,190.568 67.767 C 189.315 66.451,187.647 66.081,186.140 66.783 M143.248 67.380 C 141.136 67.940,140.695 71.575,142.560 73.042 C 142.987 73.378,143.318 73.408,147.204 73.452 L 151.388 73.500 151.490 88.451 C 151.606 105.378,151.581 105.082,152.987 106.401 C 153.778 107.144,155.680 107.131,156.427 106.378 C 157.886 104.907,157.821 105.684,157.923 88.541 L 158.013 73.500 162.247 73.452 L 166.482 73.405 167.216 72.670 C 168.554 71.332,168.252 68.321,166.701 67.548 C 165.901 67.149,144.690 66.997,143.248 67.380 M216.115 67.309 C 214.870 67.555,214.246 68.186,213.726 69.728 C 213.217 71.239,213.279 102.959,213.794 104.580 C 214.396 106.472,214.918 106.895,216.647 106.891 C 219.362 106.884,219.517 106.363,219.517 97.241 C 219.517 90.885,219.553 89.898,219.791 89.699 C 220.145 89.406,223.964 89.584,224.566 89.921 C 226.332 90.912,227.595 92.531,229.285 95.971 C 229.503 96.415,230.214 97.856,230.865 99.175 C 231.517 100.493,232.050 101.672,232.050 101.794 C 232.050 101.916,232.171 102.116,232.319 102.238 C 232.466 102.361,232.587 102.574,232.587 102.711 C 232.587 102.849,232.789 103.281,233.035 103.671 C 233.281 104.061,233.483 104.465,233.483 104.570 C 233.483 105.600,235.274 106.893,236.700 106.893 C 239.603 106.893,240.347 104.521,238.722 100.448 C 238.243 99.247,237.602 97.782,237.273 97.135 C 237.123 96.840,236.922 96.437,236.825 96.240 C 236.063 94.684,234.772 92.553,234.084 91.717 C 233.901 91.495,233.509 91.001,233.214 90.620 C 232.919 90.239,232.411 89.743,232.086 89.518 C 231.081 88.823,231.437 88.351,233.393 87.787 C 234.931 87.344,237.366 84.969,238.128 83.169 C 239.236 80.552,239.340 75.734,238.341 73.321 C 237.113 70.354,235.473 68.673,232.856 67.699 C 231.559 67.216,218.162 66.904,216.115 67.309 M229.504 73.326 C 231.668 74.033,232.659 75.660,232.665 78.517 L 232.670 80.489 231.957 81.548 C 230.630 83.520,229.022 83.975,223.369 83.975 C 220.110 83.975,219.875 83.953,219.702 83.629 C 219.343 82.958,219.460 73.285,219.830 73.052 C 220.349 72.724,228.359 72.951,229.504 73.326 M188.074 75.664 C 188.134 75.819,188.183 76.092,188.183 76.270 C 188.183 76.448,188.303 76.824,188.450 77.106 C 188.597 77.388,188.718 77.827,188.719 78.081 C 188.719 78.336,188.777 78.601,188.848 78.672 C 188.972 78.796,189.291 79.823,189.606 81.110 C 189.690 81.455,189.842 81.979,189.943 82.274 C 190.137 82.841,190.886 85.362,191.352 87.019 C 191.504 87.560,191.700 88.143,191.786 88.314 C 191.872 88.485,191.943 88.792,191.943 88.995 C 191.943 89.198,192.068 89.606,192.221 89.901 C 192.853 91.124,192.805 91.137,187.723 91.137 L 183.169 91.137 183.169 90.409 C 183.169 90.009,183.264 89.505,183.380 89.290 C 183.495 89.075,183.652 88.617,183.728 88.272 C 183.918 87.404,184.265 86.105,184.421 85.676 C 184.493 85.479,184.689 84.834,184.858 84.244 C 185.026 83.653,185.270 82.807,185.399 82.363 C 185.528 81.920,185.733 81.195,185.855 80.752 C 186.136 79.729,186.532 78.383,186.857 77.350 C 186.996 76.907,187.110 76.430,187.109 76.290 C 187.107 75.688,187.888 75.180,188.074 75.664 " stroke="none" fill="#f9f9f9" fill-rule="evenodd"></path><path id="path2" d="M0.000 89.526 L 0.000 179.051 200.000 179.051 L 400.000 179.051 400.000 89.526 L 400.000 0.000 200.000 0.000 L 0.000 0.000 0.000 89.526 M93.920 19.343 C 95.613 20.388,96.312 22.421,95.624 24.293 C 95.413 24.866,95.073 25.819,94.868 26.410 C 94.663 27.001,94.424 27.561,94.338 27.654 C 94.251 27.748,94.181 27.967,94.181 28.141 C 94.181 28.315,94.068 28.722,93.930 29.045 C 93.712 29.558,93.487 30.132,92.927 31.603 C 92.853 31.799,92.661 32.303,92.501 32.722 C 92.342 33.140,92.082 33.825,91.924 34.244 C 91.766 34.662,91.565 35.144,91.477 35.315 C 91.388 35.486,91.316 35.773,91.316 35.953 C 91.316 36.132,91.198 36.435,91.053 36.626 C 90.909 36.818,90.788 37.106,90.785 37.267 C 90.781 37.428,90.659 37.791,90.511 38.073 C 90.364 38.355,90.243 38.713,90.243 38.869 C 90.242 39.025,90.186 39.208,90.119 39.275 C 89.992 39.402,89.865 39.730,89.171 41.719 C 88.948 42.359,88.695 42.959,88.608 43.053 C 88.522 43.146,88.451 43.365,88.451 43.539 C 88.451 43.826,88.119 44.719,87.713 45.521 C 87.627 45.692,87.556 45.922,87.556 46.031 C 87.556 46.141,87.446 46.484,87.312 46.795 C 86.926 47.686,86.545 48.685,86.040 50.134 C 85.783 50.873,85.454 51.705,85.311 51.984 C 85.167 52.263,85.049 52.596,85.049 52.725 C 85.049 52.853,84.929 53.189,84.782 53.471 C 84.635 53.753,84.514 54.111,84.513 54.267 C 84.513 54.423,84.457 54.606,84.389 54.674 C 84.263 54.800,84.135 55.129,83.442 57.117 C 83.218 57.757,82.965 58.358,82.879 58.451 C 82.792 58.545,82.722 58.764,82.722 58.938 C 82.722 59.111,82.607 59.518,82.468 59.842 C 82.328 60.165,82.087 60.724,81.931 61.083 C 81.775 61.443,81.647 61.853,81.647 61.994 C 81.647 62.135,81.592 62.305,81.525 62.373 C 81.398 62.499,81.271 62.828,80.577 64.816 C 80.353 65.457,80.100 66.057,80.014 66.150 C 79.927 66.244,79.857 66.463,79.857 66.637 C 79.857 66.811,79.743 67.218,79.603 67.541 C 79.464 67.864,79.222 68.423,79.066 68.783 C 78.910 69.142,78.782 69.526,78.782 69.636 C 78.782 69.745,78.712 69.975,78.625 70.146 C 78.260 70.868,77.887 71.828,77.887 72.047 C 77.887 72.754,76.168 75.022,75.632 75.022 C 75.516 75.022,75.191 75.143,74.909 75.290 C 72.121 76.743,68.608 72.788,69.944 69.702 C 70.106 69.329,70.297 68.863,70.370 68.666 C 70.442 68.469,70.598 68.070,70.716 67.778 C 70.834 67.487,71.096 66.762,71.298 66.167 C 71.499 65.572,71.735 65.009,71.822 64.915 C 71.908 64.821,71.979 64.575,71.979 64.367 C 71.979 64.160,72.097 63.833,72.241 63.642 C 72.386 63.451,72.507 63.163,72.510 63.002 C 72.513 62.841,72.636 62.478,72.783 62.196 C 72.930 61.914,73.051 61.556,73.052 61.400 C 73.052 61.244,73.108 61.061,73.176 60.993 C 73.302 60.867,73.430 60.538,74.123 58.550 C 74.347 57.910,74.600 57.309,74.686 57.216 C 74.773 57.122,74.843 56.903,74.843 56.729 C 74.843 56.442,75.176 55.549,75.581 54.747 C 75.668 54.576,75.739 54.347,75.739 54.237 C 75.739 54.128,75.849 53.784,75.983 53.474 C 76.369 52.582,76.749 51.583,77.254 50.134 C 77.512 49.396,77.840 48.563,77.984 48.285 C 78.128 48.006,78.245 47.628,78.245 47.445 C 78.245 47.261,78.326 47.062,78.424 47.001 C 78.523 46.940,78.603 46.766,78.603 46.615 C 78.603 46.463,78.713 46.085,78.847 45.775 C 79.327 44.662,79.530 44.135,79.892 43.069 C 80.094 42.474,80.330 41.911,80.416 41.817 C 80.502 41.724,80.571 41.442,80.568 41.191 C 80.564 40.756,80.528 40.773,79.818 41.540 C 78.869 42.564,73.430 48.295,72.247 49.516 C 71.755 50.025,70.348 51.520,69.120 52.839 C 67.893 54.158,66.442 55.691,65.897 56.246 C 65.352 56.800,64.503 57.689,64.011 58.221 C 61.192 61.266,58.708 63.915,57.923 64.713 C 57.431 65.214,55.980 66.746,54.700 68.117 C 53.420 69.489,51.970 71.026,51.477 71.533 C 50.376 72.667,45.700 77.613,43.777 79.678 C 42.997 80.515,41.953 81.616,41.457 82.125 C 40.480 83.128,40.184 83.442,36.431 87.456 C 35.056 88.927,33.628 90.428,33.259 90.792 C 32.889 91.156,32.587 91.503,32.587 91.564 C 32.587 91.624,37.885 91.675,44.360 91.677 C 57.210 91.680,56.947 91.660,58.211 92.721 C 60.512 94.653,59.967 98.241,57.172 99.557 C 56.008 100.105,22.522 100.111,21.285 99.564 C 19.659 98.845,18.913 97.657,18.913 95.787 C 18.913 93.929,18.921 93.919,23.515 89.167 C 24.039 88.626,25.630 86.936,27.050 85.413 C 28.471 83.889,29.876 82.399,30.172 82.100 C 30.469 81.802,31.351 80.873,32.133 80.036 C 33.745 78.310,38.579 73.193,39.660 72.070 C 40.054 71.660,41.538 70.082,42.958 68.563 C 44.378 67.044,45.829 65.506,46.181 65.146 C 47.359 63.942,48.798 62.421,51.401 59.629 C 52.822 58.106,54.227 56.615,54.523 56.317 C 54.820 56.019,55.702 55.090,56.484 54.252 C 58.488 52.106,62.921 47.419,65.362 44.866 C 66.499 43.677,67.950 42.143,68.585 41.457 C 69.220 40.771,70.063 39.875,70.457 39.466 C 70.850 39.057,72.220 37.605,73.500 36.239 C 76.884 32.627,78.265 31.163,78.874 30.542 C 79.171 30.239,80.053 29.306,80.834 28.469 C 82.342 26.854,87.577 21.329,88.630 20.242 C 90.083 18.743,92.331 18.360,93.920 19.343 M123.569 66.540 C 124.098 66.700,124.784 66.941,125.094 67.077 C 125.405 67.212,125.747 67.323,125.855 67.323 C 125.963 67.323,126.052 67.395,126.052 67.483 C 126.052 67.571,126.252 67.693,126.496 67.754 C 127.723 68.062,130.230 71.068,130.976 73.126 C 133.045 78.830,128.183 82.754,125.633 77.440 C 123.868 73.761,123.314 73.093,121.576 72.548 C 118.804 71.677,114.593 73.314,114.593 75.261 C 114.593 75.414,114.512 75.588,114.414 75.649 C 114.070 75.861,114.224 77.350,114.691 78.337 C 115.191 79.393,116.215 80.259,117.637 80.826 C 118.080 81.002,118.566 81.209,118.717 81.285 C 118.868 81.361,119.271 81.483,119.612 81.556 C 119.953 81.629,120.313 81.750,120.412 81.825 C 120.510 81.899,120.833 82.002,121.128 82.052 C 121.641 82.139,122.019 82.261,123.635 82.858 C 124.840 83.303,125.226 83.461,125.753 83.723 C 126.032 83.862,126.345 83.975,126.449 83.975 C 127.111 83.975,130.886 87.015,130.886 87.548 C 130.886 87.651,130.947 87.735,131.021 87.736 C 131.162 87.737,132.117 89.710,132.493 90.779 C 132.795 91.635,132.941 96.019,132.704 97.135 C 132.276 99.155,132.168 99.512,131.650 100.627 C 129.052 106.210,122.650 108.674,115.667 106.777 C 111.027 105.516,107.283 100.543,107.263 95.613 C 107.255 93.439,109.113 91.437,110.684 91.928 C 110.815 91.969,111.137 92.049,111.399 92.106 C 112.031 92.244,112.990 93.610,113.421 94.987 C 114.728 99.156,116.808 101.150,119.863 101.161 C 125.538 101.182,128.248 94.711,123.967 91.360 C 123.559 91.040,123.135 90.779,123.025 90.779 C 122.914 90.779,122.684 90.703,122.513 90.611 C 121.696 90.171,120.949 89.883,120.608 89.877 C 120.402 89.874,120.031 89.756,119.785 89.615 C 119.539 89.474,119.132 89.356,118.881 89.353 C 118.630 89.349,118.348 89.276,118.254 89.190 C 118.161 89.105,117.601 88.890,117.010 88.714 C 116.419 88.538,115.734 88.295,115.488 88.175 C 115.242 88.055,114.557 87.729,113.966 87.452 C 111.292 86.197,109.792 84.595,108.530 81.647 C 107.644 79.577,107.647 75.410,108.536 73.232 C 109.721 70.331,111.276 68.604,113.697 67.499 C 114.141 67.297,114.643 67.054,114.814 66.959 C 114.985 66.864,115.278 66.786,115.465 66.786 C 115.652 66.786,116.076 66.668,116.407 66.524 C 117.301 66.136,122.272 66.147,123.569 66.540 M189.620 66.544 C 191.100 67.531,191.985 68.896,192.738 71.352 C 192.919 71.943,193.130 72.587,193.206 72.784 C 193.282 72.981,193.473 73.545,193.630 74.038 C 193.787 74.530,194.237 75.940,194.631 77.171 C 195.025 78.402,195.484 79.852,195.651 80.394 C 195.818 80.936,196.019 81.455,196.098 81.549 C 196.176 81.642,196.240 81.872,196.240 82.059 C 196.240 82.246,196.350 82.653,196.485 82.963 C 196.620 83.273,196.873 84.011,197.047 84.602 C 197.222 85.192,197.425 85.837,197.499 86.034 C 197.712 86.598,198.106 87.813,198.923 90.421 C 199.339 91.750,199.746 92.999,199.826 93.196 C 199.907 93.393,200.109 94.038,200.276 94.628 C 200.442 95.219,200.690 95.957,200.826 96.267 C 200.963 96.577,201.074 96.984,201.074 97.171 C 201.074 97.358,201.138 97.588,201.217 97.681 C 201.295 97.775,201.505 98.335,201.683 98.926 C 201.861 99.517,202.120 100.325,202.257 100.722 C 202.394 101.119,202.507 101.651,202.507 101.904 C 202.507 102.157,202.592 102.609,202.696 102.908 C 203.274 104.566,201.173 107.431,199.379 107.431 C 197.564 107.431,196.585 105.837,194.872 100.090 C 194.710 99.548,194.515 98.944,194.438 98.747 C 194.361 98.550,194.250 98.167,194.191 97.896 L 194.084 97.404 187.818 97.404 L 181.552 97.404 181.308 97.986 C 181.174 98.306,180.924 99.051,180.753 99.642 C 180.581 100.233,180.381 100.918,180.308 101.164 C 180.236 101.410,180.034 102.095,179.861 102.686 C 179.533 103.808,179.492 103.917,178.862 105.372 C 178.249 106.785,177.412 107.431,176.192 107.431 C 174.949 107.431,173.142 105.765,173.142 104.619 C 173.142 104.432,173.050 104.187,172.937 104.074 C 172.718 103.855,172.936 102.354,173.398 100.895 C 173.522 100.501,173.766 99.696,173.938 99.105 C 174.111 98.514,174.325 97.891,174.414 97.720 C 174.502 97.549,174.575 97.279,174.575 97.120 C 174.575 96.961,174.686 96.577,174.823 96.267 C 174.959 95.957,175.207 95.219,175.373 94.628 C 175.540 94.038,175.740 93.393,175.817 93.196 C 175.894 92.999,176.089 92.395,176.250 91.853 C 176.410 91.312,176.853 89.902,177.234 88.720 C 177.614 87.538,178.185 85.725,178.502 84.691 C 178.820 83.657,179.153 82.671,179.244 82.500 C 179.335 82.329,179.409 82.036,179.409 81.849 C 179.409 81.662,179.529 81.278,179.677 80.996 C 179.824 80.714,179.945 80.341,179.945 80.168 C 179.946 79.994,180.017 79.712,180.103 79.541 C 180.189 79.370,180.399 78.747,180.568 78.156 C 180.738 77.565,180.990 76.817,181.128 76.493 C 181.266 76.170,181.379 75.786,181.379 75.641 C 181.379 75.495,181.449 75.236,181.535 75.065 C 181.622 74.894,181.835 74.270,182.010 73.679 C 183.823 67.556,184.829 66.251,187.740 66.250 C 188.778 66.249,189.300 66.331,189.620 66.544 M166.626 67.235 C 168.730 68.353,169.081 71.349,167.310 73.066 L 166.677 73.679 162.434 73.769 L 158.192 73.859 158.102 89.167 C 158.004 105.987,158.073 104.975,156.923 106.341 C 156.179 107.225,154.239 107.809,153.894 107.252 C 153.833 107.153,153.634 107.073,153.450 107.073 C 153.267 107.073,152.831 106.738,152.481 106.330 C 151.269 104.914,151.298 105.338,151.298 89.020 C 151.298 80.944,151.249 74.208,151.189 74.052 C 151.095 73.806,150.576 73.769,147.225 73.769 C 141.860 73.769,141.182 73.387,141.182 70.368 C 141.182 68.634,141.554 67.868,142.697 67.253 L 143.509 66.816 154.646 66.801 L 165.782 66.786 166.626 67.235 M231.961 67.126 C 232.551 67.245,233.111 67.418,233.205 67.512 C 233.299 67.605,233.484 67.681,233.616 67.681 C 233.903 67.681,235.531 68.725,236.173 69.321 C 240.388 73.228,240.458 82.782,236.297 86.283 C 235.119 87.274,233.043 88.451,232.473 88.451 C 231.904 88.451,232.017 89.013,232.717 89.667 C 233.497 90.397,235.452 92.976,235.452 93.276 C 235.452 93.380,235.520 93.465,235.603 93.465 C 235.733 93.465,238.129 98.109,238.513 99.105 C 238.589 99.302,238.764 99.745,238.902 100.090 C 239.411 101.359,239.612 101.986,239.734 102.692 C 239.803 103.090,239.919 103.510,239.991 103.626 C 240.454 104.376,239.105 106.637,237.892 107.142 C 235.481 108.146,234.428 107.183,231.582 101.373 C 227.971 93.999,227.667 93.409,227.261 92.966 C 227.137 92.832,227.037 92.657,227.037 92.576 C 227.037 92.496,226.602 91.988,226.071 91.449 C 224.840 90.198,223.968 89.884,221.727 89.884 L 220.062 89.884 220.006 97.001 C 219.945 104.632,219.899 105.062,219.022 106.154 C 218.187 107.193,216.061 107.889,215.667 107.252 C 215.606 107.153,215.414 107.073,215.240 107.073 C 214.828 107.073,213.980 106.047,213.583 105.069 C 213.062 103.786,213.085 70.236,213.608 69.092 C 214.120 67.970,214.375 67.694,215.343 67.215 L 216.204 66.789 223.545 66.850 C 228.323 66.889,231.261 66.985,231.961 67.126 M271.244 67.109 C 273.608 68.021,273.984 71.895,271.849 73.343 C 271.409 73.641,270.879 73.690,267.234 73.769 L 263.115 73.859 263.023 88.988 C 262.924 105.209,262.942 104.904,262.000 106.151 C 260.809 107.729,257.939 107.549,257.105 105.845 C 256.293 104.185,256.332 104.981,256.268 88.958 L 256.207 73.798 252.141 73.739 C 246.746 73.660,246.195 73.356,246.195 70.456 C 246.195 68.389,246.645 67.666,248.316 67.052 C 249.416 66.647,270.181 66.699,271.244 67.109 M301.565 67.194 C 307.889 68.579,311.044 76.845,307.834 83.617 C 306.819 85.759,303.558 88.451,301.980 88.451 C 301.476 88.451,301.688 89.065,302.443 89.794 C 305.438 92.689,309.442 100.759,309.470 103.961 C 309.492 106.432,307.289 107.945,305.039 107.005 C 303.870 106.517,303.628 106.101,299.208 96.995 C 296.244 90.889,295.195 89.901,291.593 89.830 L 289.794 89.794 289.684 96.956 C 289.623 100.895,289.516 104.360,289.446 104.655 C 288.719 107.709,284.976 108.212,283.575 105.443 L 283.086 104.476 283.086 87.108 L 283.086 69.740 283.575 68.772 C 284.079 67.774,284.760 67.264,286.005 66.949 C 287.035 66.689,300.207 66.896,301.565 67.194 M343.160 67.085 C 345.374 67.840,345.986 70.695,344.338 72.581 C 343.725 73.283,343.340 73.319,335.542 73.411 L 327.932 73.500 327.932 78.066 L 327.932 82.632 334.915 82.722 C 339.594 82.782,342.046 82.879,342.346 83.016 C 344.107 83.822,344.509 86.508,343.126 88.218 L 342.575 88.899 335.253 88.988 L 327.932 89.078 327.932 94.449 L 327.932 99.821 335.721 99.912 C 344.497 100.015,344.348 99.992,345.302 101.432 C 345.848 102.256,345.796 104.423,345.209 105.306 C 344.301 106.675,344.737 106.625,333.675 106.625 C 322.939 106.625,323.122 106.641,322.176 105.607 C 321.056 104.384,321.128 105.672,321.128 86.750 L 321.128 69.561 321.513 68.845 C 322.026 67.893,322.635 67.394,323.672 67.075 C 325.038 66.655,341.923 66.664,343.160 67.085 M378.927 67.071 C 381.392 67.910,381.761 71.759,379.491 72.950 C 378.816 73.304,378.427 73.326,371.173 73.418 C 366.987 73.470,363.543 73.531,363.518 73.552 C 363.280 73.755,363.511 82.518,363.757 82.613 C 363.913 82.673,366.985 82.722,370.585 82.722 C 378.007 82.722,378.279 82.758,379.076 83.859 C 379.725 84.755,379.824 86.926,379.255 87.790 C 378.505 88.926,378.759 88.890,370.815 88.988 L 363.563 89.078 363.516 94.348 C 363.479 98.444,363.519 99.649,363.695 99.761 C 363.819 99.840,367.144 99.908,371.083 99.912 C 378.444 99.919,379.419 99.997,380.327 100.643 C 381.915 101.774,381.831 104.867,380.178 106.128 L 379.527 106.625 369.486 106.625 L 359.445 106.625 358.648 106.177 C 356.665 105.063,356.683 105.245,356.676 86.914 C 356.668 67.754,356.643 67.931,359.445 67.082 C 360.816 66.667,377.712 66.657,378.927 67.071 M289.796 73.253 C 289.742 73.392,289.720 75.760,289.746 78.516 L 289.794 83.527 294.181 83.519 C 300.777 83.507,302.059 82.691,302.059 78.502 C 302.059 75.496,300.939 73.878,298.547 73.430 C 296.621 73.069,289.918 72.933,289.796 73.253 M220.096 78.373 L 220.143 83.527 224.440 83.508 C 230.885 83.478,232.408 82.511,232.408 78.446 C 232.408 74.316,230.941 73.412,224.035 73.290 L 220.048 73.219 220.096 78.373 M187.507 76.322 C 187.408 76.444,187.271 76.886,187.203 77.304 C 187.134 77.722,187.004 78.110,186.914 78.165 C 186.824 78.221,186.750 78.440,186.750 78.653 C 186.750 78.865,186.638 79.364,186.500 79.761 C 186.363 80.158,186.152 80.846,186.032 81.289 C 185.911 81.732,185.707 82.457,185.578 82.901 C 185.449 83.344,185.207 84.190,185.040 84.781 C 184.873 85.372,184.666 85.995,184.579 86.166 C 184.493 86.337,184.423 86.619,184.423 86.793 C 184.424 87.084,184.292 87.551,183.603 89.679 C 183.241 90.800,183.162 90.779,187.662 90.779 C 192.616 90.779,192.365 91.019,191.121 87.460 C 190.982 87.063,190.868 86.564,190.868 86.352 C 190.868 86.139,190.795 85.920,190.705 85.865 C 190.615 85.809,190.484 85.425,190.414 85.010 C 190.344 84.596,190.228 84.133,190.155 83.982 C 189.900 83.447,189.436 81.863,189.436 81.525 C 189.436 81.336,189.364 81.105,189.276 81.012 C 189.188 80.918,189.033 80.479,188.931 80.036 C 188.830 79.593,188.612 78.787,188.448 78.245 C 188.283 77.704,188.107 77.038,188.055 76.766 C 187.944 76.175,187.751 76.020,187.507 76.322 M95.526 80.941 C 97.360 81.886,98.150 83.802,97.542 85.830 C 97.343 86.495,94.878 89.347,92.031 92.207 C 91.686 92.554,90.356 93.964,89.077 95.341 C 87.797 96.717,86.347 98.255,85.855 98.758 C 85.363 99.261,84.033 100.673,82.901 101.895 C 81.768 103.117,79.955 105.038,78.872 106.164 C 75.571 109.594,74.967 110.229,74.054 111.221 C 73.149 112.203,72.717 112.661,67.672 117.995 C 66.042 119.718,64.068 121.813,63.287 122.650 C 62.506 123.487,61.624 124.415,61.327 124.713 C 61.031 125.011,59.745 126.381,58.470 127.757 C 57.195 129.133,55.375 131.065,54.425 132.050 C 51.104 135.493,49.626 137.050,47.370 139.484 C 46.686 140.221,44.829 142.193,43.242 143.868 C 41.655 145.542,39.718 147.596,38.936 148.433 C 38.155 149.270,37.273 150.199,36.976 150.497 C 36.539 150.936,32.286 155.488,31.605 156.245 C 29.925 158.115,26.975 160.912,26.410 161.170 C 23.109 162.674,19.716 159.110,21.166 155.662 C 21.327 155.281,21.795 154.042,22.208 152.910 C 22.620 151.777,23.019 150.689,23.095 150.492 C 23.172 150.295,23.355 149.812,23.504 149.418 C 23.746 148.774,24.152 147.715,24.532 146.732 C 24.609 146.535,24.808 145.971,24.976 145.479 C 25.143 144.987,25.393 144.330,25.532 144.019 C 25.670 143.709,25.783 143.343,25.783 143.205 C 25.783 143.067,25.854 142.878,25.940 142.784 C 26.027 142.691,26.262 142.127,26.464 141.532 C 26.666 140.937,26.928 140.212,27.046 139.921 C 27.402 139.041,27.513 138.741,28.106 137.064 C 28.418 136.177,28.739 135.291,28.819 135.094 C 28.898 134.897,29.085 134.414,29.233 134.020 C 29.895 132.264,30.126 131.674,30.255 131.418 C 30.331 131.267,30.450 130.885,30.519 130.569 C 30.589 130.253,30.720 129.949,30.811 129.893 C 30.901 129.837,30.976 129.610,30.976 129.390 C 30.976 129.169,31.045 128.912,31.130 128.818 C 31.215 128.725,31.369 128.406,31.472 128.111 C 31.574 127.816,31.911 126.889,32.220 126.052 C 32.529 125.215,32.907 124.167,33.060 123.724 C 33.214 123.281,33.445 122.677,33.573 122.381 C 33.702 122.086,34.143 120.918,34.552 119.785 C 34.962 118.653,35.378 117.528,35.477 117.286 C 35.576 117.044,35.823 116.359,36.024 115.764 C 36.226 115.169,36.462 114.606,36.548 114.512 C 36.635 114.419,36.705 114.161,36.705 113.941 C 36.705 113.720,36.780 113.494,36.871 113.437 C 36.962 113.381,37.093 113.077,37.162 112.761 C 37.231 112.446,37.350 112.064,37.426 111.913 C 37.555 111.656,37.787 111.066,38.448 109.311 C 38.939 108.008,38.987 107.882,39.176 107.408 C 40.400 104.336,44.960 104.165,46.495 107.134 C 47.157 108.414,46.798 110.910,45.648 113.024 C 45.555 113.195,45.479 113.424,45.479 113.534 C 45.479 113.643,45.369 113.987,45.235 114.297 C 44.862 115.159,44.479 116.160,43.957 117.637 C 43.696 118.375,43.358 119.302,43.206 119.696 C 43.054 120.090,42.868 120.573,42.793 120.770 C 42.718 120.967,42.527 121.470,42.367 121.889 C 42.207 122.308,41.962 122.952,41.822 123.321 C 41.681 123.691,41.353 124.597,41.092 125.336 C 40.479 127.072,40.110 128.035,39.910 128.422 C 39.822 128.593,39.749 128.822,39.749 128.932 C 39.749 129.042,39.636 129.385,39.497 129.695 C 39.358 130.006,38.982 130.985,38.662 131.871 C 38.342 132.757,38.012 133.559,37.930 133.653 C 37.847 133.746,37.780 133.965,37.780 134.139 C 37.780 134.313,37.648 134.760,37.486 135.133 C 37.325 135.505,37.133 135.971,37.060 136.168 C 36.796 136.879,36.301 138.151,36.038 138.794 C 35.661 139.715,35.903 139.977,36.495 139.286 C 36.758 138.979,37.296 138.392,37.690 137.983 C 38.084 137.574,39.534 136.037,40.913 134.566 C 42.292 133.095,43.703 131.605,44.049 131.255 C 44.395 130.904,45.722 129.490,46.997 128.111 C 48.272 126.732,49.681 125.237,50.128 124.788 C 50.575 124.338,51.944 122.888,53.172 121.565 C 54.399 120.241,56.212 118.318,57.200 117.291 C 59.271 115.139,60.804 113.531,61.952 112.309 C 62.395 111.837,63.885 110.249,65.264 108.780 C 66.643 107.311,68.053 105.822,68.397 105.472 C 68.742 105.121,70.072 103.707,71.352 102.330 C 72.632 100.953,74.082 99.415,74.575 98.913 C 75.067 98.410,76.397 97.000,77.529 95.778 C 78.662 94.556,80.474 92.639,81.558 91.518 C 82.641 90.397,83.628 89.375,83.751 89.247 C 84.522 88.446,84.748 88.462,71.755 88.410 L 59.534 88.362 58.899 87.931 C 56.318 86.183,56.544 82.232,59.303 80.872 C 60.336 80.362,94.531 80.428,95.526 80.941 " stroke="none" fill="#040404" fill-rule="evenodd"></path><path id="path3" d="M248.316 67.052 C 246.645 67.666,246.195 68.389,246.195 70.456 C 246.195 73.356,246.746 73.660,252.141 73.739 L 256.207 73.798 256.268 88.958 C 256.332 104.981,256.293 104.185,257.105 105.845 C 257.939 107.549,260.809 107.729,262.000 106.151 C 262.942 104.904,262.924 105.209,263.023 88.988 L 263.115 73.859 267.234 73.769 C 270.879 73.690,271.409 73.641,271.849 73.343 C 273.984 71.895,273.608 68.021,271.244 67.109 C 270.181 66.699,249.416 66.647,248.316 67.052 M286.005 66.949 C 284.760 67.264,284.079 67.774,283.575 68.772 L 283.086 69.740 283.086 87.108 L 283.086 104.476 283.575 105.443 C 284.976 108.212,288.719 107.709,289.446 104.655 C 289.516 104.360,289.623 100.895,289.684 96.956 L 289.794 89.794 291.593 89.830 C 295.195 89.901,296.244 90.889,299.208 96.995 C 303.628 106.101,303.870 106.517,305.039 107.005 C 307.289 107.945,309.492 106.432,309.470 103.961 C 309.442 100.759,305.438 92.689,302.443 89.794 C 301.688 89.065,301.476 88.451,301.980 88.451 C 302.874 88.451,305.819 86.543,306.774 85.346 C 309.574 81.834,309.788 75.209,307.230 71.160 C 305.916 69.080,303.977 67.722,301.565 67.194 C 300.207 66.896,287.035 66.689,286.005 66.949 M323.672 67.075 C 322.635 67.394,322.026 67.893,321.513 68.845 L 321.128 69.561 321.128 86.750 C 321.128 105.672,321.056 104.384,322.176 105.607 C 323.122 106.641,322.939 106.625,333.675 106.625 C 344.737 106.625,344.301 106.675,345.209 105.306 C 345.796 104.423,345.848 102.256,345.302 101.432 C 344.348 99.992,344.497 100.015,335.721 99.912 L 327.932 99.821 327.932 94.449 L 327.932 89.078 335.253 88.988 L 342.575 88.899 343.126 88.218 C 344.509 86.508,344.107 83.822,342.346 83.016 C 342.046 82.879,339.594 82.782,334.915 82.722 L 327.932 82.632 327.932 78.066 L 327.932 73.500 335.542 73.411 C 343.340 73.319,343.725 73.283,344.338 72.581 C 345.986 70.695,345.374 67.840,343.160 67.085 C 341.923 66.664,325.038 66.655,323.672 67.075 M359.445 67.082 C 356.643 67.931,356.668 67.754,356.676 86.914 C 356.683 105.245,356.665 105.063,358.648 106.177 L 359.445 106.625 369.486 106.625 L 379.527 106.625 380.178 106.128 C 381.831 104.867,381.915 101.774,380.327 100.643 C 379.419 99.997,378.444 99.919,371.083 99.912 C 367.144 99.908,363.819 99.840,363.695 99.761 C 363.519 99.649,363.479 98.444,363.516 94.348 L 363.563 89.078 370.815 88.988 C 378.759 88.890,378.505 88.926,379.255 87.790 C 379.824 86.926,379.725 84.755,379.076 83.859 C 378.279 82.758,378.007 82.722,370.585 82.722 C 366.985 82.722,363.913 82.673,363.757 82.613 C 363.511 82.518,363.280 73.755,363.518 73.552 C 363.543 73.531,366.987 73.470,371.173 73.418 C 378.427 73.326,378.816 73.304,379.491 72.950 C 381.761 71.759,381.392 67.910,378.927 67.071 C 377.712 66.657,360.816 66.667,359.445 67.082 M271.821 67.769 C 272.626 68.381,272.874 69.019,272.874 70.478 L 272.874 71.813 272.052 72.612 L 271.229 73.411 267.042 73.411 L 262.854 73.411 262.760 73.814 C 262.709 74.035,262.647 80.985,262.623 89.257 C 262.578 104.265,262.578 104.299,262.191 105.103 C 261.079 107.414,258.421 107.559,257.253 105.372 C 256.631 104.208,256.580 102.913,256.580 88.346 C 256.580 80.443,256.531 73.850,256.471 73.694 C 256.377 73.447,255.840 73.411,252.304 73.411 C 248.767 73.411,248.187 73.372,247.802 73.105 C 247.191 72.683,246.911 72.394,246.911 72.185 C 246.911 72.088,246.832 71.981,246.734 71.949 C 246.008 71.704,246.498 68.625,247.390 67.827 C 247.904 67.367,247.991 67.364,259.982 67.389 C 271.039 67.412,271.365 67.423,271.821 67.769 M302.092 67.643 C 302.212 67.762,302.419 67.860,302.552 67.860 C 303.524 67.860,307.252 70.907,307.252 71.702 C 307.252 71.838,307.386 72.218,307.550 72.546 C 308.060 73.562,308.099 73.672,308.230 74.446 C 308.300 74.861,308.431 75.245,308.521 75.301 C 308.737 75.435,308.732 80.522,308.515 80.656 C 308.422 80.713,308.292 81.122,308.226 81.564 C 308.160 82.006,308.034 82.412,307.947 82.466 C 307.860 82.520,307.789 82.750,307.789 82.979 C 307.789 83.207,307.668 83.494,307.520 83.617 C 307.372 83.739,307.250 83.931,307.249 84.042 C 307.247 84.153,307.010 84.511,306.723 84.837 C 306.435 85.163,306.174 85.486,306.144 85.555 C 306.113 85.623,305.725 85.958,305.282 86.299 C 304.839 86.641,304.436 86.962,304.387 87.014 C 304.295 87.111,303.538 87.478,302.390 87.984 C 302.031 88.143,301.608 88.272,301.450 88.272 C 301.251 88.272,301.164 88.436,301.164 88.809 C 301.164 89.105,301.228 89.346,301.306 89.346 C 301.789 89.346,304.351 92.447,305.190 94.047 C 305.384 94.416,305.605 94.718,305.681 94.718 C 305.757 94.718,305.819 94.869,305.819 95.054 C 305.819 95.239,305.940 95.491,306.088 95.613 C 306.235 95.736,306.356 95.981,306.356 96.157 C 306.356 96.334,306.417 96.506,306.491 96.538 C 306.655 96.611,307.304 97.975,308.053 99.821 C 308.212 100.215,308.420 100.677,308.514 100.848 C 308.607 101.019,308.687 101.341,308.690 101.564 C 308.694 101.787,308.812 102.171,308.953 102.417 C 309.737 103.790,308.915 106.173,307.464 106.733 C 306.057 107.277,303.707 106.293,303.677 105.148 C 303.673 105.025,303.599 104.924,303.511 104.924 C 303.423 104.924,303.301 104.722,303.239 104.476 C 303.177 104.230,303.048 104.029,302.951 104.029 C 302.854 104.029,302.775 103.914,302.775 103.774 C 302.775 103.634,302.443 102.848,302.037 102.028 C 301.630 101.208,301.167 100.255,301.007 99.910 C 300.847 99.566,300.656 99.257,300.582 99.224 C 300.508 99.191,300.448 99.020,300.448 98.843 C 300.448 98.666,300.327 98.422,300.179 98.299 C 300.031 98.176,299.910 97.945,299.910 97.785 C 299.910 97.502,298.499 94.539,298.278 94.360 C 298.218 94.311,298.112 94.089,298.043 93.868 C 297.973 93.646,297.850 93.465,297.769 93.465 C 297.688 93.465,297.571 93.263,297.509 93.017 C 297.447 92.771,297.318 92.569,297.221 92.569 C 297.125 92.569,297.043 92.469,297.041 92.346 C 297.021 91.475,294.548 89.782,292.927 89.530 C 289.139 88.941,289.404 88.371,289.318 97.293 C 289.253 104.002,289.216 104.752,288.938 105.060 C 288.769 105.247,288.630 105.479,288.630 105.576 C 288.630 106.159,287.528 106.789,286.382 106.862 L 285.213 106.936 284.507 106.193 C 284.118 105.785,283.753 105.231,283.696 104.963 C 283.639 104.695,283.517 104.291,283.425 104.065 C 283.203 103.515,283.203 70.701,283.425 70.152 C 283.517 69.925,283.639 69.522,283.696 69.255 C 283.839 68.582,284.961 67.540,285.648 67.441 C 287.010 67.244,301.876 67.427,302.092 67.643 M343.945 67.760 C 345.260 68.951,345.259 71.092,343.942 72.381 L 343.439 72.874 335.730 72.874 C 326.162 72.874,327.305 72.169,327.305 78.066 C 327.305 83.952,326.252 83.259,335.196 83.259 C 343.043 83.259,342.530 83.192,343.284 84.315 C 343.695 84.928,343.727 87.048,343.330 87.377 C 343.183 87.499,343.061 87.691,343.061 87.802 C 343.056 88.550,342.265 88.630,334.913 88.630 C 328.747 88.630,327.833 88.665,327.587 88.912 C 327.101 89.398,327.171 99.597,327.663 100.090 C 328.011 100.437,328.260 100.448,335.928 100.448 L 343.834 100.448 344.433 100.904 C 344.762 101.156,345.031 101.513,345.031 101.700 C 345.031 101.886,345.112 102.088,345.210 102.149 C 345.950 102.606,345.188 105.244,344.122 105.917 L 343.427 106.356 333.802 106.356 L 324.177 106.356 323.252 105.888 C 322.588 105.552,322.238 105.235,322.014 104.769 C 321.842 104.411,321.633 103.978,321.549 103.807 C 321.335 103.370,321.352 70.086,321.567 69.693 C 321.661 69.522,321.862 69.100,322.015 68.754 C 322.637 67.343,322.595 67.348,333.867 67.383 C 343.184 67.412,343.577 67.426,343.945 67.760 M379.743 67.926 C 380.865 69.002,380.861 71.423,379.735 72.427 L 379.233 72.874 371.634 72.874 C 367.129 72.874,363.847 72.945,363.575 73.048 L 363.115 73.223 363.115 78.066 L 363.115 82.909 363.575 83.084 C 363.844 83.186,366.941 83.261,371.050 83.265 C 377.463 83.270,378.097 83.298,378.424 83.583 C 379.422 84.453,379.700 86.104,379.061 87.357 C 378.392 88.670,378.650 88.630,370.678 88.630 C 365.369 88.630,363.490 88.685,363.330 88.845 C 363.173 89.003,363.115 90.525,363.115 94.579 L 363.115 100.098 363.575 100.273 C 363.848 100.377,367.223 100.448,371.901 100.448 C 377.026 100.448,379.767 100.510,379.767 100.627 C 379.767 100.725,379.869 100.806,379.993 100.806 C 380.700 100.806,381.619 103.927,381.021 104.297 C 380.922 104.358,380.839 104.544,380.836 104.711 C 380.828 105.116,380.327 105.660,379.609 106.043 C 379.071 106.330,378.225 106.356,369.480 106.356 C 358.199 106.356,358.552 106.413,357.550 104.447 C 357.039 103.446,357.011 70.047,357.520 69.091 C 358.495 67.259,357.704 67.370,369.594 67.394 L 379.207 67.413 379.743 67.926 M289.561 73.089 C 289.282 73.368,289.254 83.289,289.532 83.808 C 289.914 84.522,298.626 84.177,299.454 83.415 C 299.547 83.329,299.752 83.259,299.909 83.259 C 300.628 83.259,302.238 81.290,302.238 80.411 C 302.238 80.118,302.319 79.828,302.417 79.767 C 302.516 79.706,302.596 79.207,302.596 78.658 C 302.596 76.012,301.316 73.961,299.201 73.218 C 298.006 72.798,289.960 72.690,289.561 73.089 M298.547 73.430 C 300.939 73.878,302.059 75.496,302.059 78.502 C 302.059 82.691,300.777 83.507,294.181 83.519 L 289.794 83.527 289.746 78.516 C 289.720 75.760,289.742 73.392,289.796 73.253 C 289.918 72.933,296.621 73.069,298.547 73.430 M59.303 80.872 C 56.544 82.232,56.318 86.183,58.899 87.931 L 59.534 88.362 71.755 88.410 C 84.748 88.462,84.522 88.446,83.751 89.247 C 83.628 89.375,82.641 90.397,81.558 91.518 C 80.474 92.639,78.662 94.556,77.529 95.778 C 76.397 97.000,75.067 98.410,74.575 98.913 C 74.082 99.415,72.632 100.953,71.352 102.330 C 70.072 103.707,68.742 105.121,68.397 105.472 C 68.053 105.822,66.643 107.311,65.264 108.780 C 63.885 110.249,62.395 111.837,61.952 112.309 C 60.804 113.531,59.271 115.139,57.200 117.291 C 56.212 118.318,54.399 120.241,53.172 121.565 C 51.944 122.888,50.575 124.338,50.128 124.788 C 49.681 125.237,48.272 126.732,46.997 128.111 C 45.722 129.490,44.395 130.904,44.049 131.255 C 43.703 131.605,42.292 133.095,40.913 134.566 C 39.534 136.037,38.084 137.574,37.690 137.983 C 37.296 138.392,36.758 138.979,36.495 139.286 C 35.903 139.977,35.661 139.715,36.038 138.794 C 36.301 138.151,36.796 136.879,37.060 136.168 C 37.133 135.971,37.325 135.505,37.486 135.133 C 37.648 134.760,37.780 134.313,37.780 134.139 C 37.780 133.965,37.847 133.746,37.930 133.653 C 38.012 133.559,38.342 132.757,38.662 131.871 C 38.982 130.985,39.358 130.006,39.497 129.695 C 39.636 129.385,39.749 129.042,39.749 128.932 C 39.749 128.822,39.822 128.593,39.910 128.422 C 40.110 128.035,40.479 127.072,41.092 125.336 C 41.353 124.597,41.681 123.691,41.822 123.321 C 41.962 122.952,42.207 122.308,42.367 121.889 C 42.527 121.470,42.718 120.967,42.793 120.770 C 42.868 120.573,43.054 120.090,43.206 119.696 C 43.358 119.302,43.696 118.375,43.957 117.637 C 44.479 116.160,44.862 115.159,45.235 114.297 C 45.369 113.987,45.479 113.643,45.479 113.534 C 45.479 113.424,45.555 113.195,45.648 113.024 C 46.798 110.910,47.157 108.414,46.495 107.134 C 44.960 104.165,40.400 104.336,39.176 107.408 C 38.987 107.882,38.939 108.008,38.448 109.311 C 37.787 111.066,37.555 111.656,37.426 111.913 C 37.350 112.064,37.231 112.446,37.162 112.761 C 37.093 113.077,36.962 113.381,36.871 113.437 C 36.780 113.494,36.705 113.720,36.705 113.941 C 36.705 114.161,36.635 114.419,36.548 114.512 C 36.462 114.606,36.226 115.169,36.024 115.764 C 35.823 116.359,35.576 117.044,35.477 117.286 C 35.378 117.528,34.962 118.653,34.552 119.785 C 34.143 120.918,33.702 122.086,33.573 122.381 C 33.445 122.677,33.214 123.281,33.060 123.724 C 32.907 124.167,32.529 125.215,32.220 126.052 C 31.911 126.889,31.574 127.816,31.472 128.111 C 31.369 128.406,31.215 128.725,31.130 128.818 C 31.045 128.912,30.976 129.169,30.976 129.390 C 30.976 129.610,30.901 129.837,30.811 129.893 C 30.720 129.949,30.589 130.253,30.519 130.569 C 30.450 130.885,30.331 131.267,30.255 131.418 C 30.126 131.674,29.895 132.264,29.233 134.020 C 29.085 134.414,28.898 134.897,28.819 135.094 C 28.739 135.291,28.418 136.177,28.106 137.064 C 27.513 138.741,27.402 139.041,27.046 139.921 C 26.928 140.212,26.666 140.937,26.464 141.532 C 26.262 142.127,26.027 142.691,25.940 142.784 C 25.854 142.878,25.783 143.067,25.783 143.205 C 25.783 143.343,25.670 143.709,25.532 144.019 C 25.393 144.330,25.143 144.987,24.976 145.479 C 24.808 145.971,24.609 146.535,24.532 146.732 C 24.152 147.715,23.746 148.774,23.504 149.418 C 23.355 149.812,23.172 150.295,23.095 150.492 C 23.019 150.689,22.620 151.777,22.208 152.910 C 21.795 154.042,21.327 155.281,21.166 155.662 C 19.716 159.110,23.109 162.674,26.410 161.170 C 26.975 160.912,29.925 158.115,31.605 156.245 C 32.286 155.488,36.539 150.936,36.976 150.497 C 37.273 150.199,38.155 149.270,38.936 148.433 C 39.718 147.596,41.655 145.542,43.242 143.868 C 44.829 142.193,46.686 140.221,47.370 139.484 C 49.626 137.050,51.104 135.493,54.425 132.050 C 55.375 131.065,57.195 129.133,58.470 127.757 C 59.745 126.381,61.031 125.011,61.327 124.713 C 61.624 124.415,62.506 123.487,63.287 122.650 C 64.068 121.813,66.042 119.718,67.672 117.995 C 72.717 112.661,73.149 112.203,74.054 111.221 C 74.967 110.229,75.571 109.594,78.872 106.164 C 79.955 105.038,81.768 103.117,82.901 101.895 C 84.033 100.673,85.363 99.261,85.855 98.758 C 86.347 98.255,87.797 96.717,89.077 95.341 C 90.356 93.964,91.686 92.554,92.031 92.207 C 94.878 89.347,97.343 86.495,97.542 85.830 C 98.150 83.802,97.360 81.886,95.526 80.941 C 94.531 80.428,60.336 80.362,59.303 80.872 M95.281 81.150 C 96.681 81.810,97.225 82.757,97.225 84.534 L 97.225 86.102 95.949 87.501 C 94.296 89.313,90.937 92.904,89.794 94.081 C 89.302 94.588,88.375 95.566,87.735 96.255 C 87.095 96.944,85.242 98.908,83.617 100.621 C 81.992 102.333,80.219 104.212,79.678 104.795 C 77.625 107.005,76.996 107.668,73.911 110.872 C 72.168 112.684,70.575 114.377,70.372 114.635 C 70.169 114.894,69.581 115.540,69.066 116.071 C 66.979 118.222,64.478 120.846,63.307 122.113 C 62.251 123.256,59.718 125.935,55.327 130.551 C 54.785 131.120,53.818 132.158,53.178 132.857 C 52.538 133.556,51.168 135.000,50.134 136.067 C 49.100 137.134,47.771 138.525,47.180 139.158 C 46.589 139.792,45.179 141.304,44.047 142.518 C 42.914 143.732,41.584 145.137,41.090 145.639 C 40.597 146.142,39.147 147.681,37.869 149.060 C 36.591 150.439,35.142 151.977,34.649 152.478 C 34.155 152.979,32.784 154.420,31.603 155.680 C 30.421 156.940,29.031 158.418,28.514 158.964 C 27.997 159.510,27.574 160.013,27.574 160.083 C 27.574 160.152,27.433 160.256,27.261 160.314 C 27.088 160.372,26.826 160.490,26.679 160.576 C 25.871 161.046,25.528 161.146,24.722 161.146 C 24.234 161.146,23.785 161.065,23.724 160.967 C 23.663 160.868,23.477 160.788,23.311 160.788 C 22.914 160.788,21.665 159.671,21.665 159.317 C 21.665 159.165,21.544 158.941,21.397 158.818 C 21.035 158.518,21.039 156.534,21.402 156.054 C 21.547 155.862,21.665 155.559,21.665 155.380 C 21.665 155.200,21.741 154.913,21.833 154.742 C 22.237 153.991,22.561 153.191,22.566 152.927 C 22.569 152.770,22.690 152.485,22.835 152.293 C 22.979 152.102,23.098 151.765,23.098 151.543 C 23.098 151.321,23.178 151.090,23.277 151.030 C 23.375 150.969,23.456 150.783,23.457 150.616 C 23.457 150.450,23.578 150.083,23.725 149.800 C 23.872 149.518,23.995 149.156,23.999 148.995 C 24.002 148.834,24.123 148.545,24.267 148.354 C 24.412 148.163,24.530 147.821,24.530 147.593 C 24.530 147.366,24.611 147.180,24.709 147.180 C 24.808 147.180,24.889 147.039,24.889 146.867 C 24.890 146.694,25.011 146.322,25.158 146.040 C 25.305 145.758,25.428 145.396,25.431 145.235 C 25.434 145.074,25.555 144.785,25.700 144.594 C 25.844 144.403,25.962 144.065,25.962 143.844 C 25.962 143.622,26.043 143.391,26.141 143.330 C 26.240 143.269,26.321 143.083,26.322 142.917 C 26.322 142.750,26.443 142.383,26.590 142.101 C 26.737 141.819,26.860 141.457,26.863 141.296 C 26.866 141.134,26.987 140.846,27.132 140.655 C 27.277 140.464,27.395 140.161,27.395 139.981 C 27.395 139.802,27.470 139.515,27.562 139.344 C 27.967 138.593,28.291 137.792,28.296 137.528 C 28.299 137.371,28.420 137.086,28.564 136.895 C 28.709 136.704,28.827 136.366,28.827 136.145 C 28.827 135.923,28.908 135.692,29.006 135.631 C 29.105 135.570,29.186 135.384,29.186 135.218 C 29.187 135.051,29.308 134.684,29.455 134.402 C 29.602 134.120,29.722 133.784,29.722 133.656 C 29.722 133.527,29.857 133.154,30.021 132.826 C 30.509 131.852,30.566 131.707,30.698 131.106 C 30.768 130.791,30.899 130.486,30.990 130.430 C 31.081 130.374,31.155 130.147,31.155 129.925 C 31.155 129.704,31.273 129.366,31.418 129.175 C 31.562 128.984,31.683 128.685,31.686 128.511 C 31.689 128.338,31.763 128.056,31.849 127.885 C 32.244 127.104,32.588 126.192,32.593 125.912 C 32.596 125.743,32.717 125.448,32.862 125.257 C 33.006 125.066,33.124 124.762,33.124 124.583 C 33.124 124.403,33.200 124.117,33.292 123.946 C 33.708 123.174,34.020 122.391,34.020 122.120 C 34.020 121.957,34.138 121.667,34.283 121.476 C 34.427 121.284,34.548 120.996,34.551 120.835 C 34.554 120.674,34.677 120.311,34.824 120.029 C 34.971 119.747,35.092 119.380,35.093 119.214 C 35.094 119.047,35.175 118.861,35.273 118.800 C 35.372 118.739,35.452 118.540,35.452 118.357 C 35.452 118.174,35.587 117.755,35.751 117.427 C 36.239 116.454,36.296 116.309,36.428 115.708 C 36.497 115.392,36.628 115.088,36.719 115.032 C 36.810 114.976,36.885 114.748,36.885 114.527 C 36.885 114.305,37.003 113.968,37.147 113.776 C 37.292 113.585,37.413 113.264,37.416 113.062 C 37.419 112.860,37.491 112.618,37.576 112.525 C 37.660 112.431,37.872 111.911,38.046 111.370 C 38.220 110.828,38.473 110.171,38.608 109.910 C 38.743 109.648,38.854 109.305,38.854 109.146 C 38.854 108.988,38.931 108.718,39.024 108.547 C 39.118 108.376,39.333 107.914,39.502 107.520 C 39.845 106.723,40.928 105.649,41.395 105.644 C 41.562 105.642,41.748 105.560,41.808 105.461 C 41.869 105.363,42.353 105.282,42.883 105.282 C 43.413 105.282,43.896 105.363,43.957 105.461 C 44.018 105.560,44.215 105.640,44.394 105.640 C 44.818 105.640,46.195 107.017,46.195 107.441 C 46.195 107.621,46.276 107.817,46.374 107.878 C 46.473 107.939,46.553 108.423,46.553 108.953 C 46.553 109.483,46.473 109.966,46.374 110.027 C 46.276 110.088,46.195 110.340,46.195 110.587 C 46.195 110.835,46.074 111.158,45.927 111.306 C 45.779 111.454,45.658 111.765,45.658 111.999 C 45.658 112.232,45.577 112.473,45.479 112.534 C 45.380 112.594,45.299 112.780,45.299 112.947 C 45.298 113.114,45.177 113.481,45.030 113.763 C 44.883 114.045,44.760 114.407,44.757 114.568 C 44.754 114.729,44.633 115.018,44.488 115.209 C 44.344 115.400,44.226 115.703,44.226 115.883 C 44.226 116.062,44.150 116.349,44.058 116.520 C 43.681 117.220,43.330 118.063,43.330 118.270 C 43.330 118.392,43.210 118.722,43.063 119.004 C 42.916 119.286,42.795 119.653,42.794 119.819 C 42.794 119.986,42.713 120.172,42.614 120.233 C 42.516 120.294,42.435 120.480,42.434 120.646 C 42.433 120.813,42.313 121.180,42.165 121.462 C 42.018 121.744,41.895 122.106,41.892 122.268 C 41.889 122.429,41.768 122.717,41.624 122.908 C 41.479 123.099,41.361 123.402,41.361 123.582 C 41.361 123.761,41.285 124.048,41.193 124.219 C 40.808 124.934,40.466 125.764,40.466 125.984 C 40.466 126.193,40.121 127.091,39.750 127.848 C 39.676 127.999,39.559 128.381,39.490 128.697 C 39.420 129.012,39.289 129.317,39.198 129.373 C 39.107 129.429,39.031 129.652,39.027 129.867 C 39.024 130.083,38.903 130.416,38.759 130.607 C 38.614 130.798,38.496 131.141,38.496 131.368 C 38.496 131.596,38.415 131.782,38.317 131.782 C 38.218 131.782,38.137 131.923,38.137 132.095 C 38.136 132.267,38.015 132.639,37.868 132.921 C 37.721 133.203,37.601 133.543,37.601 133.676 C 37.601 133.891,37.260 134.782,36.885 135.548 C 36.811 135.698,36.694 136.080,36.625 136.396 C 36.556 136.712,36.424 137.016,36.334 137.072 C 36.243 137.128,36.166 137.351,36.163 137.567 C 36.159 137.782,36.039 138.115,35.894 138.306 C 35.749 138.498,35.631 138.835,35.631 139.057 C 35.631 139.278,35.551 139.509,35.452 139.570 C 35.226 139.710,35.218 140.321,35.441 140.459 C 35.649 140.588,38.245 137.991,42.256 133.641 C 42.798 133.054,44.577 131.166,46.211 129.447 C 47.844 127.727,49.697 125.756,50.328 125.067 C 50.959 124.378,52.330 122.927,53.376 121.844 C 54.422 120.761,55.752 119.363,56.332 118.738 C 58.488 116.412,59.068 115.799,62.173 112.574 C 63.919 110.760,65.524 109.053,65.738 108.781 C 65.952 108.509,66.457 107.949,66.859 107.538 C 67.942 106.432,71.360 102.845,72.695 101.413 C 73.335 100.727,75.188 98.764,76.813 97.051 C 78.438 95.339,80.210 93.461,80.752 92.877 C 81.294 92.294,82.099 91.433,82.543 90.963 C 84.043 89.371,84.507 88.825,84.554 88.593 C 84.592 88.406,82.230 88.344,72.337 88.272 C 62.038 88.197,59.985 88.140,59.534 87.919 C 58.871 87.594,57.833 86.546,57.833 86.200 C 57.833 86.060,57.753 85.944,57.654 85.944 C 57.550 85.944,57.475 85.348,57.475 84.512 C 57.475 83.677,57.550 83.080,57.654 83.080 C 57.753 83.080,57.833 82.966,57.833 82.826 C 57.833 82.503,59.005 81.289,59.316 81.289 C 59.446 81.289,59.629 81.215,59.722 81.124 C 60.225 80.636,94.244 80.660,95.281 81.150 " stroke="none" fill="#04769e" fill-rule="evenodd"></path><path id="path4" d="M90.613 18.920 C 90.016 19.047,89.372 19.476,88.630 20.242 C 87.577 21.329,82.342 26.854,80.834 28.469 C 80.053 29.306,79.171 30.239,78.874 30.542 C 78.265 31.163,76.884 32.627,73.500 36.239 C 72.220 37.605,70.850 39.057,70.457 39.466 C 70.063 39.875,69.220 40.771,68.585 41.457 C 67.950 42.143,66.499 43.677,65.362 44.866 C 62.921 47.419,58.488 52.106,56.484 54.252 C 55.702 55.090,54.820 56.019,54.523 56.317 C 54.227 56.615,52.822 58.106,51.401 59.629 C 48.798 62.421,47.359 63.942,46.181 65.146 C 45.829 65.506,44.378 67.044,42.958 68.563 C 41.538 70.082,40.054 71.660,39.660 72.070 C 38.579 73.193,33.745 78.310,32.133 80.036 C 31.351 80.873,30.469 81.802,30.172 82.100 C 29.876 82.399,28.471 83.889,27.050 85.413 C 25.630 86.936,24.039 88.626,23.515 89.167 C 18.921 93.919,18.913 93.929,18.913 95.787 C 18.913 97.657,19.659 98.845,21.285 99.564 C 22.522 100.111,56.008 100.105,57.172 99.557 C 59.967 98.241,60.512 94.653,58.211 92.721 C 56.947 91.660,57.210 91.680,44.360 91.677 C 37.885 91.675,32.587 91.624,32.587 91.564 C 32.587 91.503,32.889 91.156,33.259 90.792 C 33.628 90.428,35.056 88.927,36.431 87.456 C 40.184 83.442,40.480 83.128,41.457 82.125 C 41.953 81.616,42.997 80.515,43.777 79.678 C 45.700 77.613,50.376 72.667,51.477 71.533 C 51.970 71.026,53.420 69.489,54.700 68.117 C 55.980 66.746,57.431 65.214,57.923 64.713 C 58.708 63.915,61.192 61.266,64.011 58.221 C 64.503 57.689,65.352 56.800,65.897 56.246 C 66.442 55.691,67.893 54.158,69.120 52.839 C 70.348 51.520,71.755 50.025,72.247 49.516 C 73.430 48.295,78.869 42.564,79.818 41.540 C 80.528 40.773,80.564 40.756,80.568 41.191 C 80.571 41.442,80.502 41.724,80.416 41.817 C 80.330 41.911,80.094 42.474,79.892 43.069 C 79.530 44.135,79.327 44.662,78.847 45.775 C 78.713 46.085,78.603 46.463,78.603 46.615 C 78.603 46.766,78.523 46.940,78.424 47.001 C 78.326 47.062,78.245 47.261,78.245 47.445 C 78.245 47.628,78.128 48.006,77.984 48.285 C 77.840 48.563,77.512 49.396,77.254 50.134 C 76.749 51.583,76.369 52.582,75.983 53.474 C 75.849 53.784,75.739 54.128,75.739 54.237 C 75.739 54.347,75.668 54.576,75.581 54.747 C 75.176 55.549,74.843 56.442,74.843 56.729 C 74.843 56.903,74.773 57.122,74.686 57.216 C 74.600 57.309,74.347 57.910,74.123 58.550 C 73.430 60.538,73.302 60.867,73.176 60.993 C 73.108 61.061,73.052 61.244,73.052 61.400 C 73.051 61.556,72.930 61.914,72.783 62.196 C 72.636 62.478,72.513 62.841,72.510 63.002 C 72.507 63.163,72.386 63.451,72.241 63.642 C 72.097 63.833,71.979 64.160,71.979 64.367 C 71.979 64.575,71.908 64.821,71.822 64.915 C 71.735 65.009,71.499 65.572,71.298 66.167 C 71.096 66.762,70.834 67.487,70.716 67.778 C 70.598 68.070,70.442 68.469,70.370 68.666 C 70.297 68.863,70.106 69.329,69.944 69.702 C 68.608 72.788,72.121 76.743,74.909 75.290 C 75.191 75.143,75.516 75.022,75.632 75.022 C 76.168 75.022,77.887 72.754,77.887 72.047 C 77.887 71.828,78.260 70.868,78.625 70.146 C 78.712 69.975,78.782 69.745,78.782 69.636 C 78.782 69.526,78.910 69.142,79.066 68.783 C 79.222 68.423,79.464 67.864,79.603 67.541 C 79.743 67.218,79.857 66.811,79.857 66.637 C 79.857 66.463,79.927 66.244,80.014 66.150 C 80.100 66.057,80.353 65.457,80.577 64.816 C 81.271 62.828,81.398 62.499,81.525 62.373 C 81.592 62.305,81.647 62.135,81.647 61.994 C 81.647 61.853,81.775 61.443,81.931 61.083 C 82.087 60.724,82.328 60.165,82.468 59.842 C 82.607 59.518,82.722 59.111,82.722 58.938 C 82.722 58.764,82.792 58.545,82.879 58.451 C 82.965 58.358,83.218 57.757,83.442 57.117 C 84.135 55.129,84.263 54.800,84.389 54.674 C 84.457 54.606,84.513 54.423,84.513 54.267 C 84.514 54.111,84.635 53.753,84.782 53.471 C 84.929 53.189,85.049 52.853,85.049 52.725 C 85.049 52.596,85.167 52.263,85.311 51.984 C 85.454 51.705,85.783 50.873,86.040 50.134 C 86.545 48.685,86.926 47.686,87.312 46.795 C 87.446 46.484,87.556 46.141,87.556 46.031 C 87.556 45.922,87.627 45.692,87.713 45.521 C 88.119 44.719,88.451 43.826,88.451 43.539 C 88.451 43.365,88.522 43.146,88.608 43.053 C 88.695 42.959,88.948 42.359,89.171 41.719 C 89.865 39.730,89.992 39.402,90.119 39.275 C 90.186 39.208,90.242 39.025,90.243 38.869 C 90.243 38.713,90.364 38.355,90.511 38.073 C 90.659 37.791,90.781 37.428,90.785 37.267 C 90.788 37.106,90.909 36.818,91.053 36.626 C 91.198 36.435,91.316 36.132,91.316 35.953 C 91.316 35.773,91.388 35.486,91.477 35.315 C 91.565 35.144,91.766 34.662,91.924 34.244 C 92.082 33.825,92.342 33.140,92.501 32.722 C 92.661 32.303,92.853 31.799,92.927 31.603 C 93.487 30.132,93.712 29.558,93.930 29.045 C 94.068 28.722,94.181 28.315,94.181 28.141 C 94.181 27.967,94.251 27.748,94.338 27.654 C 94.424 27.561,94.663 27.001,94.868 26.410 C 95.073 25.819,95.413 24.866,95.624 24.293 C 96.312 22.421,95.613 20.388,93.920 19.343 C 93.305 18.962,91.498 18.732,90.613 18.920 M93.955 19.807 C 94.473 20.164,94.897 20.557,94.897 20.680 C 94.897 20.804,95.018 21.005,95.166 21.128 C 95.536 21.435,95.537 23.934,95.167 24.644 C 95.020 24.926,94.899 25.293,94.898 25.459 C 94.898 25.626,94.823 25.808,94.732 25.864 C 94.641 25.921,94.510 26.225,94.440 26.540 C 94.371 26.856,94.252 27.238,94.176 27.389 C 93.987 27.767,93.578 28.846,93.023 30.439 C 92.766 31.177,92.437 32.010,92.294 32.288 C 92.150 32.567,92.032 32.900,92.032 33.029 C 92.032 33.157,91.912 33.493,91.765 33.775 C 91.618 34.057,91.497 34.416,91.496 34.572 C 91.496 34.728,91.440 34.910,91.372 34.978 C 91.246 35.105,91.118 35.433,90.425 37.422 C 90.201 38.062,89.948 38.662,89.862 38.756 C 89.775 38.849,89.704 39.051,89.703 39.203 C 89.703 39.356,89.582 39.712,89.435 39.994 C 89.288 40.276,89.167 40.654,89.167 40.834 C 89.167 41.013,89.093 41.207,89.002 41.263 C 88.911 41.319,88.780 41.623,88.711 41.939 C 88.641 42.255,88.523 42.636,88.447 42.787 C 88.371 42.938,88.170 43.424,88.001 43.868 C 87.831 44.311,87.627 44.834,87.547 45.031 C 87.468 45.228,87.242 45.876,87.045 46.471 C 86.706 47.496,86.456 48.158,86.102 48.970 C 85.842 49.567,85.026 51.811,84.930 52.193 C 84.881 52.390,84.772 52.713,84.688 52.910 C 84.230 53.990,83.988 54.611,83.711 55.416 C 83.542 55.909,83.291 56.565,83.152 56.876 C 83.014 57.186,82.901 57.555,82.901 57.696 C 82.901 57.837,82.845 58.008,82.778 58.076 C 82.651 58.202,82.524 58.531,81.830 60.519 C 81.607 61.159,81.353 61.760,81.267 61.853 C 81.181 61.947,81.110 62.166,81.110 62.339 C 81.110 62.513,80.978 62.961,80.817 63.333 C 80.655 63.706,80.454 64.172,80.370 64.369 C 80.108 64.978,79.295 67.214,79.198 67.592 C 79.089 68.013,78.658 69.072,78.416 69.514 C 78.322 69.685,78.243 69.967,78.240 70.141 C 78.236 70.314,78.116 70.613,77.971 70.804 C 77.826 70.995,77.708 71.333,77.708 71.555 C 77.708 71.776,77.634 72.003,77.543 72.060 C 77.452 72.116,77.322 72.413,77.255 72.721 C 76.563 75.870,71.086 75.760,70.202 72.579 C 69.873 71.392,70.479 68.144,71.101 67.760 C 71.190 67.705,71.262 67.468,71.262 67.234 C 71.262 66.999,71.337 66.761,71.428 66.705 C 71.518 66.649,71.650 66.345,71.719 66.029 C 71.788 65.713,71.907 65.331,71.983 65.180 C 72.173 64.803,72.581 63.723,73.136 62.131 C 73.394 61.392,73.722 60.560,73.866 60.281 C 74.010 60.002,74.127 59.624,74.127 59.441 C 74.127 59.258,74.202 59.062,74.292 59.006 C 74.383 58.950,74.514 58.645,74.584 58.330 C 74.653 58.014,74.770 57.632,74.844 57.481 C 75.254 56.645,75.560 55.814,75.560 55.536 C 75.560 55.362,75.630 55.143,75.717 55.049 C 75.803 54.956,76.056 54.355,76.280 53.715 C 76.973 51.727,77.101 51.398,77.227 51.272 C 77.295 51.204,77.350 51.034,77.350 50.892 C 77.350 50.751,77.478 50.342,77.634 49.982 C 77.789 49.623,78.031 49.064,78.171 48.741 C 78.310 48.417,78.424 48.010,78.424 47.836 C 78.424 47.662,78.495 47.444,78.581 47.350 C 78.668 47.256,78.903 46.693,79.105 46.098 C 79.467 45.032,79.671 44.505,80.150 43.393 C 80.284 43.082,80.394 42.705,80.394 42.553 C 80.394 42.401,80.474 42.227,80.573 42.167 C 80.671 42.106,80.752 41.909,80.752 41.729 C 80.752 41.549,80.869 41.177,81.011 40.902 C 81.261 40.420,81.238 40.107,80.953 40.107 C 80.747 40.107,79.486 41.363,76.903 44.141 C 75.622 45.517,74.293 46.936,73.948 47.295 C 73.603 47.654,72.274 49.059,70.994 50.418 C 69.714 51.777,68.303 53.268,67.860 53.732 C 67.417 54.195,66.047 55.642,64.816 56.947 C 63.585 58.252,62.296 59.610,61.952 59.965 C 61.607 60.320,60.685 61.295,59.902 62.131 C 59.120 62.968,57.181 65.022,55.594 66.697 C 54.008 68.371,52.151 70.345,51.468 71.083 C 50.785 71.822,49.944 72.719,49.599 73.077 C 49.253 73.435,47.923 74.840,46.643 76.198 C 45.363 77.557,43.953 79.048,43.509 79.513 C 43.066 79.978,41.697 81.426,40.466 82.732 C 39.235 84.037,37.825 85.517,37.332 86.020 C 34.820 88.584,32.229 91.479,32.229 91.721 C 32.229 92.198,32.571 92.211,44.873 92.211 C 55.907 92.211,56.993 92.237,57.437 92.514 C 60.277 94.285,59.750 98.466,56.564 99.429 C 55.060 99.884,23.370 99.892,21.930 99.438 C 20.149 98.877,19.153 97.580,19.166 95.838 C 19.177 94.371,19.642 93.617,22.113 91.061 C 25.063 88.010,27.319 85.634,29.185 83.614 C 30.318 82.388,31.692 80.928,32.239 80.370 C 32.785 79.812,34.195 78.321,35.372 77.057 C 36.549 75.792,37.914 74.343,38.406 73.837 C 38.899 73.330,40.269 71.884,41.450 70.625 C 42.632 69.365,43.962 67.950,44.405 67.481 C 48.003 63.671,49.816 61.763,50.582 60.982 C 51.074 60.480,52.404 59.064,53.536 57.836 C 54.669 56.607,56.043 55.145,56.590 54.587 C 57.136 54.029,58.546 52.538,59.723 51.273 C 60.900 50.009,62.265 48.560,62.757 48.053 C 63.250 47.546,64.620 46.101,65.801 44.841 C 66.983 43.582,68.312 42.170,68.756 41.705 C 69.199 41.240,70.568 39.791,71.799 38.485 C 73.030 37.180,74.440 35.700,74.933 35.197 C 75.425 34.694,76.833 33.196,78.061 31.868 C 79.290 30.540,80.700 29.048,81.195 28.551 C 81.690 28.055,83.021 26.645,84.154 25.419 C 85.286 24.192,86.616 22.773,87.108 22.264 C 87.601 21.755,88.286 21.039,88.630 20.673 C 90.279 18.921,92.212 18.606,93.955 19.807 M116.407 66.524 C 116.076 66.668,115.652 66.786,115.465 66.786 C 115.278 66.786,114.985 66.864,114.814 66.959 C 114.643 67.054,114.141 67.297,113.697 67.499 C 111.276 68.604,109.721 70.331,108.536 73.232 C 107.647 75.410,107.644 79.577,108.530 81.647 C 109.792 84.595,111.292 86.197,113.966 87.452 C 114.557 87.729,115.242 88.055,115.488 88.175 C 115.734 88.295,116.419 88.538,117.010 88.714 C 117.601 88.890,118.161 89.105,118.254 89.190 C 118.348 89.276,118.630 89.349,118.881 89.353 C 119.132 89.356,119.539 89.474,119.785 89.615 C 120.031 89.756,120.402 89.874,120.608 89.877 C 120.949 89.883,121.696 90.171,122.513 90.611 C 122.684 90.703,122.914 90.779,123.025 90.779 C 123.518 90.779,125.120 92.287,125.681 93.280 C 126.041 93.916,126.054 96.989,125.699 97.689 C 124.075 100.900,119.997 102.046,116.652 100.234 C 115.485 99.601,114.227 97.558,113.421 94.987 C 112.990 93.610,112.031 92.244,111.399 92.106 C 111.137 92.049,110.815 91.969,110.684 91.928 C 110.119 91.751,109.042 92.099,108.491 92.635 C 107.127 93.961,106.937 95.514,107.750 98.668 C 110.489 109.284,126.993 110.636,131.650 100.627 C 132.168 99.512,132.276 99.155,132.704 97.135 C 132.941 96.019,132.795 91.635,132.493 90.779 C 132.117 89.710,131.162 87.737,131.021 87.736 C 130.947 87.735,130.886 87.651,130.886 87.548 C 130.886 87.015,127.111 83.975,126.449 83.975 C 126.345 83.975,126.032 83.862,125.753 83.723 C 125.226 83.461,124.840 83.303,123.635 82.858 C 122.019 82.261,121.641 82.139,121.128 82.052 C 120.833 82.002,120.510 81.899,120.412 81.825 C 120.313 81.750,119.953 81.629,119.612 81.556 C 119.271 81.483,118.868 81.361,118.717 81.285 C 118.566 81.209,118.080 81.002,117.637 80.826 C 116.215 80.259,115.191 79.393,114.691 78.337 C 114.224 77.350,114.070 75.861,114.414 75.649 C 114.512 75.588,114.593 75.414,114.593 75.261 C 114.593 73.842,118.151 71.911,120.179 72.230 C 122.103 72.532,122.920 72.948,123.727 74.038 C 124.443 75.005,124.591 75.269,125.633 77.440 C 127.176 80.656,129.525 80.868,131.110 77.933 C 132.516 75.329,129.414 68.486,126.496 67.754 C 126.252 67.693,126.052 67.571,126.052 67.483 C 126.052 67.395,125.963 67.323,125.855 67.323 C 125.747 67.323,125.405 67.212,125.094 67.077 C 123.104 66.208,117.898 65.877,116.407 66.524 M185.554 66.747 C 184.044 67.749,183.383 69.041,182.010 73.679 C 181.835 74.270,181.622 74.894,181.535 75.065 C 181.449 75.236,181.379 75.495,181.379 75.641 C 181.379 75.786,181.266 76.170,181.128 76.493 C 180.990 76.817,180.738 77.565,180.568 78.156 C 180.399 78.747,180.189 79.370,180.103 79.541 C 180.017 79.712,179.946 79.994,179.945 80.168 C 179.945 80.341,179.824 80.714,179.677 80.996 C 179.529 81.278,179.409 81.662,179.409 81.849 C 179.409 82.036,179.335 82.329,179.244 82.500 C 179.153 82.671,178.820 83.657,178.502 84.691 C 178.185 85.725,177.614 87.538,177.234 88.720 C 176.853 89.902,176.410 91.312,176.250 91.853 C 176.089 92.395,175.894 92.999,175.817 93.196 C 175.740 93.393,175.540 94.038,175.373 94.628 C 175.207 95.219,174.959 95.957,174.823 96.267 C 174.686 96.577,174.575 96.961,174.575 97.120 C 174.575 97.279,174.502 97.549,174.414 97.720 C 174.325 97.891,174.111 98.514,173.938 99.105 C 173.766 99.696,173.522 100.501,173.398 100.895 C 172.936 102.354,172.718 103.855,172.937 104.074 C 173.050 104.187,173.142 104.432,173.142 104.619 C 173.142 105.765,174.949 107.431,176.192 107.431 C 177.412 107.431,178.249 106.785,178.862 105.372 C 179.492 103.917,179.533 103.808,179.861 102.686 C 180.034 102.095,180.236 101.410,180.308 101.164 C 180.381 100.918,180.581 100.233,180.753 99.642 C 180.924 99.051,181.174 98.306,181.308 97.986 L 181.552 97.404 187.818 97.404 L 194.084 97.404 194.191 97.896 C 194.250 98.167,194.361 98.550,194.438 98.747 C 194.515 98.944,194.710 99.548,194.872 100.090 C 196.585 105.837,197.564 107.431,199.379 107.431 C 201.173 107.431,203.274 104.566,202.696 102.908 C 202.592 102.609,202.507 102.157,202.507 101.904 C 202.507 101.651,202.394 101.119,202.257 100.722 C 202.120 100.325,201.861 99.517,201.683 98.926 C 201.505 98.335,201.295 97.775,201.217 97.681 C 201.138 97.588,201.074 97.358,201.074 97.171 C 201.074 96.984,200.963 96.577,200.826 96.267 C 200.690 95.957,200.442 95.219,200.276 94.628 C 200.109 94.038,199.907 93.393,199.826 93.196 C 199.746 92.999,199.339 91.750,198.923 90.421 C 198.106 87.813,197.712 86.598,197.499 86.034 C 197.425 85.837,197.222 85.192,197.047 84.602 C 196.873 84.011,196.620 83.273,196.485 82.963 C 196.350 82.653,196.240 82.246,196.240 82.059 C 196.240 81.872,196.176 81.642,196.098 81.549 C 196.019 81.455,195.818 80.936,195.651 80.394 C 195.484 79.852,195.025 78.402,194.631 77.171 C 194.237 75.940,193.787 74.530,193.630 74.038 C 193.473 73.545,193.282 72.981,193.206 72.784 C 193.130 72.587,192.919 71.943,192.738 71.352 C 191.985 68.896,191.100 67.531,189.620 66.544 C 188.831 66.018,186.476 66.135,185.554 66.747 M122.532 66.697 C 123.099 66.844,123.713 66.965,123.898 66.965 C 124.082 66.965,124.501 67.100,124.829 67.265 C 125.157 67.430,125.667 67.686,125.962 67.833 C 126.258 67.981,126.661 68.189,126.858 68.295 C 129.861 69.907,132.146 75.570,130.728 77.887 C 130.517 78.232,130.300 78.635,130.245 78.782 C 130.105 79.161,129.008 79.678,128.344 79.678 C 127.457 79.678,126.692 78.947,125.956 77.395 C 124.676 74.697,124.524 74.428,123.865 73.678 C 121.363 70.836,116.203 71.534,114.279 74.975 C 113.621 76.152,114.261 79.059,115.350 79.841 C 116.316 80.534,117.681 81.289,117.968 81.289 C 118.140 81.289,118.358 81.359,118.451 81.445 C 118.545 81.531,119.105 81.739,119.696 81.908 C 120.286 82.076,121.035 82.328,121.358 82.468 C 121.681 82.607,122.140 82.722,122.377 82.722 C 122.614 82.722,122.854 82.796,122.910 82.887 C 122.966 82.978,123.270 83.109,123.586 83.178 C 124.187 83.310,124.332 83.367,125.305 83.855 C 125.634 84.019,125.973 84.154,126.060 84.154 C 126.949 84.154,130.843 87.459,131.164 88.486 C 131.235 88.713,131.342 88.939,131.403 88.988 C 132.268 89.692,132.931 94.922,132.408 96.927 C 132.261 97.494,132.140 98.113,132.140 98.302 C 132.140 100.064,129.743 103.526,127.523 104.970 C 122.789 108.050,115.048 107.592,111.366 104.014 C 108.119 100.859,106.558 95.314,108.314 93.170 C 109.893 91.241,112.451 92.256,113.066 95.055 C 113.133 95.360,113.262 95.655,113.353 95.711 C 113.444 95.767,113.518 95.943,113.518 96.102 C 113.518 96.858,114.821 99.057,115.843 100.024 C 117.168 101.279,120.488 101.811,122.241 101.048 C 124.200 100.197,124.817 99.732,125.552 98.552 C 127.486 95.450,125.901 91.140,122.471 90.167 C 122.225 90.097,121.862 89.977,121.665 89.899 C 120.698 89.518,120.005 89.297,119.517 89.214 C 119.221 89.164,118.899 89.059,118.800 88.982 C 118.702 88.905,118.318 88.785,117.948 88.716 C 117.578 88.646,117.230 88.518,117.176 88.431 C 117.122 88.344,116.914 88.272,116.714 88.272 C 116.513 88.272,116.135 88.160,115.874 88.022 C 115.612 87.884,114.875 87.519,114.235 87.210 C 111.315 85.801,110.032 84.426,108.709 81.289 C 108.128 79.911,108.125 74.494,108.705 73.868 C 108.792 73.774,108.863 73.577,108.863 73.431 C 108.863 72.123,111.499 68.936,113.356 67.998 C 116.129 66.598,120.030 66.045,122.532 66.697 M189.206 66.738 C 190.399 67.284,192.301 69.865,192.301 70.937 C 192.301 71.153,192.825 72.829,193.019 73.238 C 193.092 73.389,193.211 73.789,193.286 74.127 C 193.360 74.465,193.481 74.866,193.555 75.017 C 193.629 75.167,193.827 75.734,193.995 76.276 C 194.163 76.817,194.363 77.422,194.440 77.619 C 194.516 77.816,194.721 78.460,194.896 79.051 C 195.233 80.195,195.655 81.507,195.874 82.095 C 196.327 83.311,196.470 83.765,196.551 84.244 C 196.602 84.539,196.701 84.861,196.771 84.960 C 196.841 85.058,197.161 85.985,197.481 87.019 C 197.801 88.053,198.169 89.181,198.298 89.526 C 198.428 89.870,198.675 90.636,198.848 91.226 C 199.021 91.817,199.219 92.422,199.289 92.569 C 199.512 93.044,199.855 94.078,199.942 94.539 C 199.989 94.785,200.091 95.148,200.169 95.345 C 200.247 95.542,200.652 96.791,201.069 98.120 C 201.486 99.449,201.940 100.862,202.077 101.259 C 203.590 105.624,199.177 109.267,197.096 105.372 C 196.615 104.471,196.240 103.542,196.240 103.251 C 196.240 103.100,196.159 102.926,196.061 102.865 C 195.962 102.804,195.881 102.578,195.881 102.362 C 195.880 102.146,195.759 101.739,195.612 101.457 C 195.465 101.175,195.345 100.823,195.345 100.675 C 195.345 100.423,194.925 99.012,194.612 98.209 C 194.535 98.013,194.424 97.679,194.365 97.468 C 194.206 96.894,193.950 96.872,187.524 96.869 L 181.584 96.867 181.213 97.338 C 181.009 97.598,180.842 97.938,180.842 98.093 C 180.842 98.249,180.729 98.702,180.591 99.099 C 180.454 99.496,180.243 100.184,180.123 100.627 C 178.713 105.826,178.054 106.893,176.256 106.893 C 173.913 106.893,172.507 103.997,173.590 101.405 C 173.738 101.051,173.859 100.620,173.859 100.446 C 173.859 100.273,173.979 99.900,174.126 99.618 C 174.273 99.336,174.394 98.963,174.395 98.789 C 174.395 98.615,174.472 98.333,174.564 98.162 C 174.657 97.991,174.868 97.368,175.033 96.777 C 175.198 96.186,175.444 95.449,175.580 95.139 C 175.717 94.828,175.828 94.472,175.828 94.346 C 175.828 94.221,176.017 93.548,176.248 92.851 C 176.480 92.155,176.813 91.101,176.990 90.510 C 177.166 89.919,177.371 89.275,177.446 89.078 C 177.666 88.495,178.087 87.183,178.423 86.034 C 178.596 85.443,178.808 84.820,178.894 84.649 C 178.980 84.478,179.052 84.196,179.052 84.022 C 179.053 83.848,179.174 83.476,179.321 83.193 C 179.468 82.911,179.588 82.493,179.588 82.264 C 179.588 82.035,179.663 81.801,179.753 81.745 C 179.844 81.689,179.973 81.382,180.040 81.063 C 180.231 80.148,180.699 78.709,180.867 78.523 C 180.952 78.429,181.021 78.170,181.021 77.947 C 181.021 77.724,181.132 77.277,181.269 76.953 C 181.628 76.104,182.453 73.465,182.453 73.168 C 182.453 73.029,182.573 72.684,182.720 72.402 C 182.868 72.120,182.988 71.712,182.989 71.497 C 182.990 71.281,183.071 71.055,183.169 70.994 C 183.268 70.933,183.348 70.752,183.348 70.591 C 183.348 70.121,184.468 68.027,184.975 67.548 C 186.094 66.492,187.910 66.145,189.206 66.738 M142.697 67.253 C 141.554 67.868,141.182 68.634,141.182 70.368 C 141.182 73.387,141.860 73.769,147.225 73.769 C 150.576 73.769,151.095 73.806,151.189 74.052 C 151.249 74.208,151.298 80.944,151.298 89.020 C 151.298 105.338,151.269 104.914,152.481 106.330 C 152.831 106.738,153.267 107.073,153.450 107.073 C 153.634 107.073,153.833 107.153,153.894 107.252 C 154.239 107.809,156.179 107.225,156.923 106.341 C 158.073 104.975,158.004 105.987,158.102 89.167 L 158.192 73.859 162.434 73.769 L 166.677 73.679 167.310 73.066 C 169.081 71.349,168.730 68.353,166.626 67.235 L 165.782 66.786 154.646 66.801 L 143.509 66.816 142.697 67.253 M215.343 67.215 C 214.375 67.694,214.120 67.970,213.608 69.092 C 213.085 70.236,213.062 103.786,213.583 105.069 C 213.980 106.047,214.828 107.073,215.240 107.073 C 215.414 107.073,215.606 107.153,215.667 107.252 C 216.061 107.889,218.187 107.193,219.022 106.154 C 219.899 105.062,219.945 104.632,220.006 97.001 L 220.062 89.884 221.727 89.884 C 223.968 89.884,224.840 90.198,226.071 91.449 C 226.602 91.988,227.037 92.496,227.037 92.576 C 227.037 92.657,227.137 92.832,227.261 92.966 C 227.667 93.409,227.971 93.999,231.582 101.373 C 234.428 107.183,235.481 108.146,237.892 107.142 C 239.105 106.637,240.454 104.376,239.991 103.626 C 239.919 103.510,239.803 103.090,239.734 102.692 C 239.612 101.986,239.411 101.359,238.902 100.090 C 238.764 99.745,238.589 99.302,238.513 99.105 C 238.129 98.109,235.733 93.465,235.603 93.465 C 235.520 93.465,235.452 93.380,235.452 93.276 C 235.452 92.976,233.497 90.397,232.717 89.667 C 232.017 89.013,231.904 88.451,232.473 88.451 C 233.043 88.451,235.119 87.274,236.297 86.283 C 240.458 82.782,240.388 73.228,236.173 69.321 C 235.531 68.725,233.903 67.681,233.616 67.681 C 233.484 67.681,233.299 67.605,233.205 67.512 C 232.746 67.054,230.614 66.908,223.545 66.850 L 216.204 66.789 215.343 67.215 M166.701 67.548 C 168.252 68.321,168.554 71.332,167.216 72.670 L 166.482 73.405 162.247 73.452 L 158.013 73.500 157.923 88.541 C 157.821 105.684,157.886 104.907,156.427 106.378 C 155.680 107.131,153.778 107.144,152.987 106.401 C 151.581 105.082,151.606 105.378,151.490 88.451 L 151.388 73.500 147.204 73.452 C 143.318 73.408,142.987 73.378,142.560 73.042 C 140.695 71.575,141.136 67.940,143.248 67.380 C 144.690 66.997,165.901 67.149,166.701 67.548 M230.528 67.326 C 234.489 67.708,236.730 69.427,238.341 73.321 C 239.340 75.734,239.236 80.552,238.128 83.169 C 237.366 84.969,234.931 87.344,233.393 87.787 C 231.437 88.351,231.081 88.823,232.086 89.518 C 232.411 89.743,232.919 90.239,233.214 90.620 C 233.509 91.001,233.901 91.495,234.084 91.717 C 234.772 92.553,236.063 94.684,236.825 96.240 C 236.922 96.437,237.123 96.840,237.273 97.135 C 237.602 97.782,238.243 99.247,238.722 100.448 C 240.347 104.521,239.603 106.893,236.700 106.893 C 235.274 106.893,233.483 105.600,233.483 104.570 C 233.483 104.465,233.281 104.061,233.035 103.671 C 232.789 103.281,232.587 102.849,232.587 102.711 C 232.587 102.574,232.466 102.361,232.319 102.238 C 232.171 102.116,232.050 101.916,232.050 101.794 C 232.050 101.672,231.517 100.493,230.865 99.175 C 230.214 97.856,229.503 96.415,229.285 95.971 C 227.595 92.531,226.332 90.912,224.566 89.921 C 223.964 89.584,220.145 89.406,219.791 89.699 C 219.553 89.898,219.517 90.885,219.517 97.241 C 219.517 106.363,219.362 106.884,216.647 106.891 C 214.918 106.895,214.396 106.472,213.794 104.580 C 213.279 102.959,213.217 71.239,213.726 69.728 C 214.246 68.186,214.870 67.555,216.115 67.309 C 217.081 67.118,228.513 67.132,230.528 67.326 M219.830 73.052 C 219.460 73.285,219.343 82.958,219.702 83.629 C 219.875 83.953,220.110 83.975,223.369 83.975 C 229.022 83.975,230.630 83.520,231.957 81.548 L 232.670 80.489 232.665 78.517 C 232.659 75.660,231.668 74.033,229.504 73.326 C 228.359 72.951,220.349 72.724,219.830 73.052 M228.927 73.528 C 232.421 74.176,233.787 79.771,231.039 82.184 C 229.656 83.397,229.215 83.486,224.440 83.508 L 220.143 83.527 220.096 78.373 L 220.048 73.219 224.035 73.290 C 226.227 73.329,228.429 73.436,228.927 73.528 M187.405 75.708 C 187.242 75.888,187.109 76.150,187.109 76.290 C 187.110 76.430,186.996 76.907,186.857 77.350 C 186.532 78.383,186.136 79.729,185.855 80.752 C 185.733 81.195,185.528 81.920,185.399 82.363 C 185.270 82.807,185.026 83.653,184.858 84.244 C 184.689 84.834,184.493 85.479,184.421 85.676 C 184.265 86.105,183.918 87.404,183.728 88.272 C 183.652 88.617,183.495 89.075,183.380 89.290 C 183.264 89.505,183.169 90.009,183.169 90.409 L 183.169 91.137 187.723 91.137 C 192.805 91.137,192.853 91.124,192.221 89.901 C 192.068 89.606,191.943 89.198,191.943 88.995 C 191.943 88.792,191.872 88.485,191.786 88.314 C 191.700 88.143,191.504 87.560,191.352 87.019 C 190.886 85.362,190.137 82.841,189.943 82.274 C 189.842 81.979,189.690 81.455,189.606 81.110 C 189.291 79.823,188.972 78.796,188.848 78.672 C 188.777 78.601,188.719 78.336,188.719 78.081 C 188.718 77.827,188.597 77.388,188.450 77.106 C 188.303 76.824,188.183 76.448,188.183 76.270 C 188.183 75.417,187.871 75.192,187.405 75.708 M188.055 76.766 C 188.107 77.038,188.283 77.704,188.448 78.245 C 188.612 78.787,188.830 79.593,188.931 80.036 C 189.033 80.479,189.188 80.918,189.276 81.012 C 189.364 81.105,189.436 81.336,189.436 81.525 C 189.436 81.863,189.900 83.447,190.155 83.982 C 190.228 84.133,190.344 84.596,190.414 85.010 C 190.484 85.425,190.615 85.809,190.705 85.865 C 190.795 85.920,190.868 86.139,190.868 86.352 C 190.868 86.564,190.982 87.063,191.121 87.460 C 192.365 91.019,192.616 90.779,187.662 90.779 C 183.162 90.779,183.241 90.800,183.603 89.679 C 184.292 87.551,184.424 87.084,184.423 86.793 C 184.423 86.619,184.493 86.337,184.579 86.166 C 184.666 85.995,184.873 85.372,185.040 84.781 C 185.207 84.190,185.449 83.344,185.578 82.901 C 185.707 82.457,185.911 81.732,186.032 81.289 C 186.152 80.846,186.363 80.158,186.500 79.761 C 186.638 79.364,186.750 78.865,186.750 78.653 C 186.750 78.440,186.824 78.221,186.914 78.165 C 187.004 78.110,187.134 77.722,187.203 77.304 C 187.408 76.058,187.867 75.768,188.055 76.766 " stroke="none" fill="#848484" fill-rule="evenodd"></path></g></svg>