<svg width="2500" height="762" viewBox="0 0 2500 762" fill="none" xmlns="http://www.w3.org/2000/svg">
<path d="M69.125 523.95C69.125 633.425 211.65 722.2 387.5 722.2C563.35 722.2 705.875 633.413 705.875 523.95C705.875 414.488 563.337 325.712 387.5 325.712C211.662 325.712 69.125 414.475 69.125 523.95Z" fill="white"/>
<path d="M394.913 706.05C239.288 721.4 104.95 651.075 94.825 548.888C84.725 446.725 202.737 351.45 358.337 336.063C513.975 320.663 648.325 391.013 658.425 493.15C668.512 595.35 550.55 690.65 394.913 706.05V706.05ZM706.2 366.863C692.962 362.913 683.887 360.2 690.812 342.813C705.825 305.038 707.375 272.463 691.1 249.213C660.587 205.625 577.087 207.963 481.375 248.05C481.375 247.988 451.325 261.2 459 237.363C473.725 190.025 471.5 150.388 448.588 127.5C396.675 75.5375 258.588 129.463 140.163 247.838C51.4875 336.525 0 430.513 0 511.788C0 667.25 199.363 761.763 394.4 761.763C650.062 761.763 820.138 613.213 820.138 495.288C820.138 424.025 760.125 383.588 706.2 366.863" fill="#E6162D"/>
<path d="M875.975 82.375C814.238 13.925 723.163 -12.1625 639.1 5.69999H639.075C634.452 6.68736 630.07 8.57555 626.177 11.2567C622.284 13.9379 618.958 17.3596 616.387 21.3264C613.817 25.2932 612.053 29.7274 611.196 34.376C610.339 39.0245 610.406 43.7962 611.394 48.4187C612.381 53.0413 614.269 57.4241 616.951 61.3169C619.632 65.2097 623.053 68.5363 627.02 71.1067C630.987 73.6771 635.421 75.4411 640.07 76.2978C644.718 77.1546 649.49 77.0874 654.113 76.1C713.913 63.4 778.625 82 822.55 130.6C843.364 153.666 857.738 181.806 864.227 212.19C870.715 242.574 869.089 274.131 859.513 303.687L859.525 303.7C858.065 308.198 857.506 312.941 857.882 317.655C858.257 322.37 859.559 326.964 861.713 331.174C863.867 335.385 866.831 339.129 870.434 342.192C874.038 345.255 878.21 347.577 882.712 349.025C891.788 351.96 901.657 351.173 910.153 346.837C918.649 342.501 925.076 334.971 928.025 325.9L928.037 325.75C954.387 243.975 937.738 150.75 875.975 82.375" fill="#FF9933"/>
<path d="M781.15 167.938C751.1 134.6 706.738 121.938 665.775 130.65C661.699 131.396 657.814 132.952 654.35 135.226C650.886 137.5 647.914 140.445 645.609 143.889C643.304 147.332 641.713 151.203 640.931 155.272C640.149 159.341 640.191 163.526 641.055 167.578C641.919 171.631 643.587 175.469 645.961 178.865C648.335 182.261 651.366 185.147 654.875 187.35C658.384 189.554 662.3 191.031 666.39 191.695C670.48 192.358 674.662 192.194 678.687 191.213V191.238C688.865 189.061 699.435 189.597 709.34 192.791C719.245 195.985 728.137 201.726 735.125 209.437C742.101 217.169 746.915 226.602 749.081 236.788C751.247 246.973 750.689 257.549 747.463 267.45H747.487C744.96 275.269 745.64 283.772 749.378 291.089C753.117 298.407 759.608 303.941 767.425 306.475C775.247 308.997 783.751 308.31 791.067 304.564C798.382 300.818 803.911 294.321 806.437 286.5C819.312 246.663 811.263 201.262 781.15 167.938" fill="#FF9933"/>
<path d="M403.5 520.988C398.05 530.313 386.025 534.788 376.6 530.9C367.325 527.075 364.413 516.675 369.688 507.525C375.113 498.425 386.688 493.988 395.925 497.65C405.325 501.088 408.7 511.625 403.5 520.988ZM353.913 584.65C338.863 608.663 306.625 619.188 282.338 608.1C258.413 597.213 251.35 569.3 266.425 545.888C281.288 522.575 312.438 512.175 336.538 522.275C360.913 532.675 368.713 560.388 353.913 584.65ZM410.475 414.675C336.413 395.4 252.7 432.313 220.538 497.575C187.775 564.125 219.463 638 294.263 662.162C371.775 687.15 463.125 648.863 494.888 577.013C526.225 506.788 487.113 434.488 410.475 414.675ZM1299.49 197.338C1347.31 196.913 1392.53 192.338 1435.21 183.65L1437.3 209.375C1390.14 215.163 1350.29 218.963 1317.77 220.738L1296.9 298.538H1423.12L1417.05 321.25H1367.59L1320.71 496.238H1295.13L1342 321.25H1290.82L1286.44 337.625C1268.14 405.963 1236.93 459.187 1192.84 497.25C1188.94 489.959 1184.74 482.832 1180.25 475.887C1218.37 444.487 1245.71 398.075 1262.19 336.6L1299.49 197.338V197.338ZM1191.04 385.363C1198.68 400.701 1205.79 416.297 1212.36 432.125L1186.31 446.825C1181.02 430.271 1174.62 414.093 1167.15 398.4L1191.04 385.363V385.363ZM1113.89 207.362H1188.57C1185.81 197.389 1182.82 187.478 1179.61 177.638L1204.42 167.625C1208.51 178.975 1212.13 190.437 1215.23 202.025L1202.24 207.362H1275.7L1269.96 228.725H1108.16L1113.89 207.362ZM1082.1 284.85H1137.75C1131.99 269.825 1126.21 256.9 1120.46 246.112L1142.54 233.413C1147.76 242.325 1154.16 254.9 1161.82 271.15L1138.64 284.85H1184.25C1200.9 268.016 1217.12 250.752 1232.87 233.075L1253.84 246.438C1239.94 259.459 1225.85 272.265 1211.56 284.85H1263.97L1258.24 306.213H1076.38L1082.1 284.85V284.85ZM1075.02 347.3H1145.55L1154.04 315.575H1178.95L1170.44 347.3H1238.21L1232.46 368.663H1164.71L1141.34 455.825C1135.04 479.425 1120.11 491.225 1096.6 491.225C1086.71 491.225 1075.55 491.125 1063.16 490.9C1064.21 483.538 1065.19 475.088 1066.15 465.525C1079.16 466.863 1089.47 467.513 1097.1 467.513C1107.9 467.513 1114.86 461.863 1117.91 450.5L1139.8 368.675H1069.29L1075.02 347.3V347.3ZM1091.9 383.688L1112.55 394.375C1094.86 417.67 1076.44 440.394 1057.3 462.513C1051.67 458.5 1045.14 454.475 1037.7 450.487C1053.52 433.575 1071.57 411.313 1091.9 383.688V383.688ZM1734.9 230.412H1585.53L1574.63 271.138H1724L1734.9 230.412ZM1707.26 333.6L1718.24 292.525H1568.88L1557.89 333.6H1707.26ZM1729.76 366.987L1741.16 387.7C1716.67 400.85 1688.73 414.4 1657.28 428.463C1675.15 446.05 1700.29 458.05 1732.66 464.5C1725.54 470.513 1716.78 479.112 1706.41 490.237C1640.54 471.1 1603.02 426.25 1593.81 355.65H1551.96L1523.59 461.513C1551.01 452.853 1578.14 443.277 1604.92 432.8C1601.25 444.825 1598.84 454.275 1597.69 461.188C1569.7 470.1 1541.69 480 1513.65 490.9C1506.94 493.775 1500.34 496.894 1493.86 500.25L1484.21 476.888C1491.15 473.35 1495.94 466.75 1498.5 457.188L1565.15 208.4H1652.6C1650.38 197.601 1647.71 186.9 1644.6 176.325L1671.32 166.975C1675.32 180.615 1678.67 194.439 1681.34 208.4H1767.07L1725.09 365.025H1698.81L1701.34 355.65H1620.41C1624.44 376.8 1632.09 395.625 1643.34 412.1C1670.9 399.6 1699.71 384.587 1729.76 366.987ZM1495.98 174.963C1509.89 188.3 1525.37 204.6 1542.36 223.725C1532.47 231.525 1523.84 238.413 1516.46 244.413C1497.81 221.063 1483.46 204.025 1473.43 193.338L1495.98 174.963V174.963ZM1459.66 261.475C1473.8 273.275 1489.99 288.413 1508.34 306.9C1497.31 316.25 1488.67 323.487 1482.47 328.587C1462.47 306.125 1447.36 290.212 1437.19 280.837L1459.66 261.475ZM1467.57 359.65C1475.72 363.663 1483.91 367.45 1492.2 371C1466.94 415.313 1442.8 457.713 1419.73 498.238L1392.34 488.25C1416.34 451.05 1441.44 408.187 1467.57 359.65ZM2101.85 257.137H2060.38L2058.47 260.288C2046.59 305.938 2042.51 345.913 2046.24 380.175C2063.75 352.588 2082.29 311.562 2101.85 257.137V257.137ZM2080.2 170.3L2102.61 174.313C2093.74 194.235 2084.16 213.835 2073.89 233.075H2148.41L2141.96 257.15H2125.36C2103.41 320.937 2078.79 371.425 2051.41 408.575C2058.01 433.413 2069.7 454.613 2086.39 472.213C2079 480.888 2071.86 489.463 2065.01 497.913C2049.64 478.799 2038.31 456.761 2031.71 433.138C2011.64 456.4 1987.84 478.788 1960.33 500.263C1957 493.007 1953.21 485.975 1948.97 479.212C1980.25 456.287 2006.03 432.337 2026.33 407.425C2021.71 376.462 2023.14 341.8 2030.7 303.375C2024.69 311.975 2018.56 320.25 2012.26 328.275C2008.92 322.076 2004.92 316.251 2000.34 310.9C2030.8 272.825 2057.43 225.963 2080.2 170.3V170.3ZM1886.22 282.5L1908.16 200.688H1930.27L1914.41 259.8H1942.79L1965.53 174.975H1988.32L1965.6 259.8H1993.95L2009.87 200.363H2032.02L2007.15 293.225H1985.01L1987.85 282.525H1886.22V282.5ZM1885.16 312.225H1995.11L1988.84 335.6H1878.91L1885.16 312.225V312.225ZM1937.54 389.05H1891.9L1887.8 404.413C1877.06 444.475 1857.8 472.963 1829.94 489.9C1827.2 482.544 1823.93 475.4 1820.15 468.525C1841.46 456.937 1856.5 434.7 1865.35 401.725L1874.82 366.325H1966.79L1951.23 424.425C1966.23 414.12 1981.13 403.661 1995.92 393.05C1995.41 402.838 1995.05 411.388 1994.9 418.75C1976.99 430.343 1959.37 442.371 1942.05 454.825C1935.72 459.5 1929.9 463.937 1924.63 468.175L1912.69 446.812C1920.52 440.8 1925.83 432.8 1928.51 422.762L1937.54 389.05V389.05ZM1798.46 259.125C1835.11 230.638 1864.67 201.575 1887.14 171.95L1905.48 183.65C1874.59 221.75 1839.08 255.85 1799.76 285.163C1799.55 276.474 1799.11 267.792 1798.46 259.125V259.125ZM1767.9 366.663C1801.81 337.288 1833.24 302.675 1862.09 262.8L1882.15 273.15C1869.5 289.862 1856.26 306.126 1842.47 321.913L1795.49 497.225H1771.96L1809.59 356.962C1796.88 369.713 1783.58 381.863 1769.74 393.375C1769.35 384.457 1768.74 375.55 1767.9 366.663V366.663ZM2458.64 208.05C2446.35 200.445 2433.71 193.417 2420.76 186.988L2436.01 169.95C2449.06 175.891 2461.86 182.355 2474.39 189.325L2458.64 208.05ZM2436.81 272.825H2372.16L2366.16 295.2H2430.79L2436.81 272.825ZM2354.71 337.95H2419.36L2425.44 315.225H2360.8L2354.71 337.95ZM2277.31 295.188H2341.29L2347.27 272.812H2283.34L2277.31 295.188ZM2265.88 337.95H2329.81L2335.89 315.225H2271.95L2265.88 337.95ZM2229.35 436.788L2249.4 420.1C2262.8 430.23 2275.56 441.163 2287.64 452.838L2266.3 470.512C2254.71 458.496 2242.37 447.231 2229.35 436.788V436.788ZM2409.07 376.338L2413.99 357.975H2349.32L2343.64 379.338H2318.73L2324.47 357.975H2260.51L2253.79 383.025H2228.87L2263.96 252.1H2352.85L2358.76 230.038H2252.95L2258.69 208.675H2364.46L2374.85 169.938H2399.75L2389.37 208.675H2500L2494.25 230.038H2383.61L2377.68 252.1H2467.23L2433.98 376.325H2409.07V376.338ZM2199.2 397.038H2376.59L2381.76 377.688H2407.32L2402.15 397.038H2457.81L2452.08 418.413H2396.41L2386.14 456.85C2379.38 482 2362.21 494.588 2334.52 494.588C2321.39 494.588 2305.2 494.325 2285.94 493.9C2286.91 486.775 2287.76 478.55 2288.43 469.175C2306.69 470.738 2323.06 471.525 2337.57 471.525C2350.27 471.525 2358.23 465.513 2361.43 453.488L2370.85 418.4H2193.46L2199.2 397.038V397.038ZM2150.11 264.137H2185.04L2210.26 169.95H2235.87L2210.61 264.137H2243.81L2237.38 288.188H2204.17L2147.79 498.6H2122.21L2178.6 288.188H2143.69L2150.11 264.137V264.137ZM1204.89 592.575L1122.71 731.637H1103.09L1095.93 628.363L1036.29 731.637H1016.37L1006.77 592.575H1031.09L1037.29 696.238L1097.47 592.575H1115.17L1122.39 696.663L1185.34 592.575H1204.89V592.575ZM1321.92 647.912C1323.77 640.1 1324.24 633.187 1323.17 627.125C1322.1 621.087 1318.95 615.912 1313.74 611.65C1308.5 607.362 1301.4 605.212 1292.44 605.212C1280.4 605.212 1269.15 609.113 1258.69 616.8C1248.22 624.513 1240.74 634.875 1236.23 647.912H1321.92ZM1311.94 690.175L1333.4 694.3C1326.11 706.187 1315.45 716.025 1301.41 723.787C1287.58 731.537 1271.98 735.568 1256.12 735.488C1234.81 735.488 1219.37 728.8 1209.79 715.425C1200.19 702.05 1198.29 684.55 1204.09 662.837C1210.04 640.7 1221.68 622.825 1239.01 609.187C1256.35 595.525 1275.37 588.688 1296.05 588.688C1316.44 588.688 1331.19 595 1340.19 607.575C1349.21 620.138 1350.55 638.963 1344.1 664.013H1230.83C1225.18 685.038 1226.31 699.213 1234.21 706.563C1241.88 713.815 1252.08 717.777 1262.63 717.6C1282.5 717.6 1298.95 708.438 1311.94 690.175ZM1437.84 543.687L1431.41 567.775H1405.31L1411.74 543.687H1437.84ZM1424 592.562L1386.73 731.637H1362.48L1399.76 592.562H1424V592.562ZM1473.9 677.1C1471.21 691.4 1473.35 701.75 1480.35 708.2C1487.11 714.546 1496.09 718.004 1505.36 717.838C1517.74 717.838 1529.01 713.075 1539.16 703.512C1549.26 693.95 1556.58 680.862 1561.04 664.225C1565.85 646.3 1565.95 632.213 1561.36 621.988C1556.79 611.725 1548 606.612 1535.01 606.612C1524.81 606.612 1514.63 610.262 1504.49 617.575C1494.49 624.648 1486.78 634.483 1482.29 645.875L1473.9 677.1V677.1ZM1446.75 731.637H1435.04L1485.41 543.687H1509.64L1490.34 615.7C1506.27 597.713 1524.02 588.7 1543.59 588.7C1561.49 588.7 1574.81 595.013 1583.52 607.6C1592.26 620.175 1593.39 638.463 1586.95 662.463C1581.43 683.113 1570.85 700.475 1555.18 714.475C1539.55 728.5 1522.19 735.513 1503.17 735.513C1481.96 735.513 1468.11 726.55 1461.58 708.662L1446.75 731.637ZM1666.4 717.587C1678.74 717.587 1690.3 713.038 1701.06 703.938C1711.88 694.863 1719.81 680.713 1724.96 661.538C1730.1 642.275 1729.49 628.287 1723.06 619.6C1716.64 610.962 1707.59 606.612 1695.81 606.612C1683.77 606.612 1672.41 610.988 1661.7 619.75C1651.03 628.513 1643.13 642.4 1638.05 661.388C1632.66 681.5 1632.99 695.9 1638.99 704.562C1645.05 713.25 1654.15 717.587 1666.4 717.587V717.587ZM1659.76 735.475C1638.35 735.475 1623.55 728.412 1615.32 714.25C1607.1 700.087 1605.85 682.562 1611.44 661.612C1617.4 639.462 1628.86 621.762 1645.89 608.55C1662.94 595.3 1681.49 588.7 1701.55 588.7C1723.06 588.7 1738.15 595.65 1746.81 609.587C1755.5 623.5 1757.06 640.9 1751.47 661.738C1745.66 683.425 1734.19 701.138 1717.15 714.888C1700.1 728.625 1680.98 735.475 1659.76 735.475V735.475ZM1810.17 700.775L1801.93 731.637H1767.3L1775.56 700.775H1810.17ZM1953.46 682.875L1974.49 686.312C1967.26 701.687 1957.2 713.725 1944.25 722.425C1931.53 731.07 1916.48 735.627 1901.1 735.488C1879.57 735.488 1865.09 728.387 1857.61 714.262C1850.12 700.087 1849.13 682.825 1854.59 662.438C1860.24 641.325 1870.89 623.725 1886.56 609.712C1902.19 595.725 1920.25 588.688 1940.74 588.688C1957.73 588.688 1970.14 593.225 1977.96 602.25C1985.76 611.3 1989.01 622.987 1987.61 637.3L1964.7 641.012C1966.72 618.087 1957.39 606.612 1936.66 606.612C1923.29 606.612 1911.64 611.663 1901.73 621.825C1891.84 631.975 1884.71 645.113 1880.36 661.25C1875.6 679.1 1875.47 692.937 1879.97 702.775C1884.44 712.65 1893.21 717.6 1906.15 717.6C1926.18 717.6 1941.94 706 1953.46 682.875V682.875ZM2057.07 717.587C2069.4 717.587 2080.95 713.038 2091.74 703.938C2102.5 694.863 2110.44 680.713 2115.59 661.538C2120.76 642.275 2120.13 628.287 2113.69 619.6C2107.29 610.962 2098.21 606.612 2086.49 606.612C2074.41 606.612 2063.07 610.988 2052.36 619.75C2041.69 628.513 2033.81 642.4 2028.69 661.388C2023.3 681.5 2023.63 695.9 2029.64 704.562C2035.68 713.25 2044.77 717.587 2057.07 717.587V717.587ZM2050.39 735.475C2028.98 735.475 2014.19 728.412 2005.97 714.25C1997.76 700.087 1996.48 682.562 2002.11 661.612C2008.03 639.462 2019.49 621.762 2036.54 608.55C2053.56 595.3 2072.11 588.7 2092.17 588.7C2113.69 588.7 2128.8 595.65 2137.48 609.587C2146.15 623.5 2147.69 640.9 2142.1 661.738C2136.29 683.425 2124.84 701.138 2107.77 714.888C2090.76 728.625 2071.6 735.475 2050.39 735.475V735.475ZM2368.71 731.637H2345.1L2368.29 645.162C2370.65 636.262 2371.74 629.588 2371.57 625.113C2371.35 620.675 2369.09 616.587 2364.71 612.875C2360.36 609.162 2354.85 607.3 2348.14 607.3C2338.91 607.3 2328.93 611.113 2318.33 618.638C2307.7 626.213 2300.34 637.787 2296.16 653.287L2275.16 731.637H2251.7L2276.21 640.063C2279.51 627.863 2278.54 619.238 2273.35 614.163C2270.92 611.728 2268.02 609.807 2264.83 608.512C2261.64 607.217 2258.22 606.576 2254.78 606.625C2244.48 606.625 2234.45 610.537 2224.72 618.45C2215.17 626.077 2208.35 636.594 2205.27 648.425L2182.95 731.625H2159.8L2197.08 592.55H2217.93L2210.77 619.275C2227.86 598.875 2246.59 588.712 2266.98 588.712C2278.2 588.712 2286.85 591.95 2292.93 598.462C2298.96 605 2301.91 612.825 2301.74 622.037C2318.39 599.812 2337.76 588.712 2359.91 588.712C2370.51 588.712 2379.08 591.413 2385.63 596.813C2392.14 602.225 2395.66 608.462 2396.22 615.475C2396.74 622.5 2395.27 632.4 2391.89 645.15L2368.71 731.637V731.637Z" fill="black"/>
<path d="M1299.49 197.338C1347.31 196.913 1392.53 192.338 1435.21 183.65L1437.3 209.375C1390.14 215.163 1350.29 218.963 1317.77 220.738L1296.9 298.538H1423.12L1417.05 321.25H1367.59L1320.71 496.238H1295.12L1342 321.25H1290.82L1286.44 337.625C1268.14 405.963 1236.93 459.188 1192.84 497.25C1188.94 489.959 1184.74 482.832 1180.25 475.888C1218.38 444.488 1245.71 398.075 1262.19 336.6L1299.49 197.338ZM1191.04 385.363C1198.68 400.701 1205.79 416.297 1212.36 432.125L1186.31 446.825C1181.02 430.271 1174.62 414.093 1167.15 398.4L1191.04 385.363ZM1113.89 207.362H1188.57C1185.81 197.389 1182.82 187.478 1179.61 177.638L1204.42 167.625C1208.51 178.975 1212.13 190.437 1215.23 202.025L1202.24 207.362H1275.7L1269.96 228.725H1108.16L1113.89 207.362ZM1082.1 284.85H1137.75C1131.99 269.825 1126.21 256.9 1120.46 246.112L1142.54 233.413C1147.76 242.325 1154.16 254.9 1161.83 271.15L1138.64 284.85H1184.25C1200.9 268.016 1217.12 250.752 1232.88 233.075L1253.84 246.438C1239.94 259.459 1225.85 272.265 1211.56 284.85H1263.97L1258.24 306.213H1076.38L1082.1 284.85ZM1075.02 347.3H1145.55L1154.04 315.575H1178.95L1170.44 347.3H1238.21L1232.46 368.663H1164.71L1141.34 455.825C1135.04 479.425 1120.11 491.225 1096.6 491.225C1086.71 491.225 1075.55 491.125 1063.16 490.9C1064.21 483.537 1065.19 475.088 1066.15 465.525C1079.16 466.863 1089.47 467.513 1097.1 467.513C1107.9 467.513 1114.86 461.863 1117.91 450.5L1139.8 368.675H1069.29L1075.02 347.3ZM1091.9 383.688L1112.55 394.375C1094.86 417.67 1076.44 440.394 1057.3 462.513C1051.67 458.5 1045.14 454.475 1037.7 450.487C1053.53 433.575 1071.57 411.312 1091.9 383.688ZM1734.9 230.412H1585.53L1574.62 271.138H1724L1734.9 230.412ZM1707.26 333.6L1718.24 292.525H1568.88L1557.89 333.6H1707.26ZM1729.76 366.988L1741.16 387.7C1716.67 400.85 1688.73 414.4 1657.28 428.463C1675.15 446.05 1700.29 458.05 1732.66 464.5C1725.54 470.513 1716.77 479.112 1706.41 490.237C1640.54 471.1 1603.02 426.25 1593.81 355.65H1551.96L1523.59 461.513C1551.01 452.853 1578.14 443.277 1604.92 432.8C1601.25 444.825 1598.84 454.275 1597.69 461.188C1569.7 470.1 1541.69 480 1513.65 490.9C1506.94 493.775 1500.34 496.894 1493.86 500.25L1484.21 476.888C1491.15 473.35 1495.94 466.75 1498.5 457.188L1565.15 208.4H1652.6C1650.38 197.601 1647.71 186.9 1644.6 176.325L1671.32 166.975C1675.32 180.615 1678.67 194.439 1681.34 208.4H1767.07L1725.09 365.025H1698.81L1701.34 355.65H1620.41C1624.44 376.8 1632.09 395.625 1643.34 412.1C1670.9 399.6 1699.71 384.588 1729.76 366.988ZM1495.97 174.963C1509.89 188.3 1525.38 204.6 1542.36 223.725C1532.48 231.525 1523.84 238.413 1516.46 244.413C1497.81 221.063 1483.46 204.025 1473.43 193.338L1495.97 174.963ZM1459.66 261.475C1473.8 273.275 1489.99 288.413 1508.34 306.9C1497.31 316.25 1488.67 323.487 1482.47 328.587C1462.47 306.125 1447.36 290.212 1437.19 280.837L1459.66 261.475ZM1467.57 359.65C1475.72 363.662 1483.91 367.45 1492.2 371C1466.94 415.313 1442.8 457.713 1419.72 498.238L1392.34 488.25C1416.34 451.05 1441.44 408.187 1467.57 359.65ZM2101.85 257.137H2060.38L2058.47 260.288C2046.59 305.938 2042.51 345.913 2046.24 380.175C2063.75 352.588 2082.29 311.562 2101.85 257.137ZM2080.2 170.3L2102.61 174.313C2093.74 194.235 2084.16 213.835 2073.89 233.075H2148.41L2141.96 257.15H2125.36C2103.41 320.937 2078.79 371.425 2051.41 408.575C2058.01 433.413 2069.7 454.613 2086.39 472.213C2079 480.888 2071.86 489.463 2065.01 497.913C2049.64 478.799 2038.31 456.761 2031.71 433.138C2011.64 456.4 1987.84 478.788 1960.33 500.263C1957 493.007 1953.21 485.975 1948.97 479.212C1980.25 456.287 2006.03 432.337 2026.33 407.425C2021.71 376.462 2023.14 341.8 2030.7 303.375C2024.69 311.975 2018.56 320.25 2012.26 328.275C2008.92 322.076 2004.92 316.251 2000.34 310.9C2030.8 272.825 2057.42 225.963 2080.2 170.3ZM1886.22 282.5L1908.16 200.688H1930.27L1914.41 259.8H1942.79L1965.53 174.975H1988.32L1965.6 259.8H1993.95L2009.87 200.362H2032.02L2007.15 293.225H1985.01L1987.85 282.525H1886.22V282.5ZM1885.16 312.225H1995.11L1988.84 335.6H1878.91L1885.16 312.225ZM1937.54 389.05H1891.9L1887.8 404.413C1877.06 444.475 1857.8 472.963 1829.94 489.9C1827.2 482.544 1823.93 475.4 1820.15 468.525C1841.46 456.937 1856.5 434.7 1865.35 401.725L1874.82 366.325H1966.79L1951.23 424.425C1966.23 414.12 1981.13 403.661 1995.92 393.05C1995.41 402.838 1995.05 411.388 1994.9 418.75C1976.99 430.343 1959.37 442.371 1942.05 454.825C1935.72 459.5 1929.9 463.937 1924.62 468.175L1912.69 446.812C1920.52 440.8 1925.83 432.8 1928.51 422.762L1937.54 389.05ZM1798.46 259.125C1835.11 230.637 1864.67 201.575 1887.14 171.95L1905.48 183.65C1874.59 221.75 1839.08 255.85 1799.76 285.163C1799.55 276.474 1799.11 267.792 1798.46 259.125ZM1767.9 366.663C1801.81 337.288 1833.24 302.675 1862.09 262.8L1882.15 273.15C1869.5 289.862 1856.26 306.126 1842.47 321.913L1795.49 497.225H1771.96L1809.59 356.962C1796.88 369.713 1783.58 381.863 1769.74 393.375C1769.35 384.457 1768.74 375.55 1767.9 366.663ZM2458.64 208.05C2446.35 200.445 2433.71 193.417 2420.76 186.988L2436.01 169.95C2449.06 175.891 2461.86 182.355 2474.39 189.325L2458.64 208.05ZM2436.81 272.825H2372.16L2366.16 295.2H2430.79L2436.81 272.825ZM2354.71 337.95H2419.36L2425.44 315.225H2360.8L2354.71 337.95ZM2277.31 295.188H2341.29L2347.27 272.812H2283.34L2277.31 295.188ZM2265.88 337.95H2329.81L2335.89 315.225H2271.95L2265.88 337.95ZM2229.35 436.788L2249.4 420.1C2262.8 430.23 2275.56 441.163 2287.64 452.838L2266.3 470.512C2254.71 458.496 2242.37 447.231 2229.35 436.788ZM2409.07 376.338L2413.99 357.975H2349.32L2343.64 379.338H2318.73L2324.47 357.975H2260.51L2253.79 383.025H2228.88L2263.96 252.1H2352.85L2358.76 230.038H2252.95L2258.69 208.675H2364.46L2374.85 169.938H2399.75L2389.38 208.675H2500L2494.25 230.038H2383.61L2377.68 252.1H2467.23L2433.98 376.325H2409.07V376.338ZM2199.2 397.038H2376.59L2381.76 377.688H2407.32L2402.15 397.038H2457.81L2452.07 418.413H2396.41L2386.14 456.85C2379.38 482 2362.21 494.588 2334.52 494.588C2321.39 494.588 2305.2 494.325 2285.94 493.9C2286.91 486.775 2287.76 478.55 2288.43 469.175C2306.69 470.738 2323.06 471.525 2337.57 471.525C2350.27 471.525 2358.23 465.512 2361.43 453.487L2370.85 418.4H2193.46L2199.2 397.038ZM2150.11 264.137H2185.04L2210.26 169.95H2235.87L2210.61 264.137H2243.81L2237.38 288.188H2204.18L2147.79 498.6H2122.21L2178.6 288.188H2143.69L2150.11 264.137ZM1204.89 592.575L1122.71 731.637H1103.09L1095.93 628.363L1036.29 731.637H1016.37L1006.78 592.575H1031.09L1037.29 696.238L1097.47 592.575H1115.17L1122.39 696.663L1185.34 592.575H1204.89ZM1321.92 647.912C1323.77 640.1 1324.24 633.187 1323.17 627.125C1322.1 621.087 1318.95 615.912 1313.74 611.65C1308.5 607.362 1301.4 605.212 1292.44 605.212C1280.4 605.212 1269.15 609.113 1258.69 616.8C1248.22 624.513 1240.74 634.875 1236.22 647.912H1321.92ZM1311.94 690.175L1333.4 694.3C1326.11 706.187 1315.45 716.025 1301.41 723.788C1287.58 731.537 1271.98 735.568 1256.12 735.488C1234.81 735.488 1219.37 728.8 1209.79 715.425C1200.19 702.05 1198.29 684.55 1204.09 662.837C1210.04 640.7 1221.68 622.825 1239.01 609.188C1256.35 595.525 1275.37 588.688 1296.05 588.688C1316.44 588.688 1331.19 595 1340.19 607.575C1349.21 620.138 1350.55 638.963 1344.1 664.013H1230.83C1225.18 685.038 1226.31 699.213 1234.21 706.563C1241.88 713.815 1252.08 717.777 1262.62 717.6C1282.5 717.6 1298.95 708.438 1311.94 690.175ZM1437.84 543.688L1431.41 567.775H1405.31L1411.74 543.688H1437.84ZM1424 592.562L1386.73 731.637H1362.47L1399.76 592.562H1424ZM1473.9 677.1C1471.21 691.4 1473.35 701.75 1480.35 708.2C1487.11 714.546 1496.09 718.004 1505.36 717.837C1517.74 717.837 1529.01 713.075 1539.16 703.512C1549.26 693.95 1556.58 680.863 1561.04 664.225C1565.85 646.3 1565.95 632.213 1561.36 621.988C1556.79 611.725 1548 606.612 1535.01 606.612C1524.81 606.612 1514.63 610.262 1504.49 617.575C1494.49 624.648 1486.78 634.483 1482.29 645.875L1473.9 677.1ZM1446.75 731.637H1435.04L1485.41 543.688H1509.64L1490.34 615.7C1506.28 597.713 1524.03 588.7 1543.59 588.7C1561.49 588.7 1574.81 595.013 1583.53 607.6C1592.26 620.175 1593.39 638.462 1586.95 662.462C1581.43 683.112 1570.85 700.475 1555.18 714.475C1539.55 728.5 1522.19 735.513 1503.17 735.513C1481.96 735.513 1468.11 726.55 1461.58 708.663L1446.75 731.637ZM1666.4 717.587C1678.74 717.587 1690.3 713.038 1701.06 703.938C1711.88 694.863 1719.81 680.713 1724.96 661.538C1730.1 642.275 1729.49 628.288 1723.06 619.6C1716.64 610.963 1707.59 606.612 1695.81 606.612C1683.77 606.612 1672.41 610.988 1661.7 619.75C1651.03 628.512 1643.13 642.4 1638.05 661.388C1632.66 681.5 1632.99 695.9 1638.99 704.562C1645.05 713.25 1654.15 717.587 1666.4 717.587ZM1659.76 735.475C1638.35 735.475 1623.55 728.412 1615.32 714.25C1607.1 700.087 1605.85 682.562 1611.44 661.612C1617.4 639.462 1628.86 621.762 1645.89 608.55C1662.94 595.3 1681.49 588.7 1701.55 588.7C1723.06 588.7 1738.15 595.65 1746.81 609.587C1755.5 623.5 1757.06 640.9 1751.47 661.738C1745.66 683.425 1734.19 701.137 1717.15 714.887C1700.1 728.625 1680.98 735.475 1659.76 735.475ZM1810.17 700.775L1801.93 731.637H1767.3L1775.56 700.775H1810.17ZM1953.46 682.875L1974.49 686.312C1967.26 701.687 1957.2 713.725 1944.25 722.425C1931.53 731.07 1916.48 735.627 1901.1 735.488C1879.57 735.488 1865.09 728.387 1857.61 714.262C1850.12 700.087 1849.13 682.825 1854.59 662.438C1860.24 641.325 1870.89 623.725 1886.56 609.712C1902.19 595.725 1920.25 588.688 1940.74 588.688C1957.73 588.688 1970.14 593.225 1977.96 602.25C1985.76 611.3 1989.01 622.987 1987.61 637.3L1964.7 641.012C1966.72 618.087 1957.39 606.612 1936.66 606.612C1923.29 606.612 1911.64 611.663 1901.72 621.825C1891.84 631.975 1884.71 645.112 1880.36 661.25C1875.6 679.1 1875.47 692.937 1879.97 702.775C1884.44 712.65 1893.21 717.6 1906.15 717.6C1926.18 717.6 1941.94 706 1953.46 682.875ZM2057.07 717.587C2069.4 717.587 2080.95 713.038 2091.74 703.938C2102.5 694.863 2110.44 680.713 2115.59 661.538C2120.76 642.275 2120.12 628.288 2113.69 619.6C2107.29 610.963 2098.21 606.612 2086.49 606.612C2074.41 606.612 2063.07 610.988 2052.36 619.75C2041.69 628.512 2033.81 642.4 2028.69 661.388C2023.3 681.5 2023.63 695.9 2029.64 704.562C2035.68 713.25 2044.77 717.587 2057.07 717.587ZM2050.39 735.475C2028.98 735.475 2014.19 728.412 2005.97 714.25C1997.76 700.087 1996.48 682.562 2002.11 661.612C2008.03 639.462 2019.49 621.762 2036.54 608.55C2053.56 595.3 2072.11 588.7 2092.17 588.7C2113.69 588.7 2128.8 595.65 2137.47 609.587C2146.15 623.5 2147.69 640.9 2142.1 661.738C2136.29 683.425 2124.84 701.137 2107.77 714.887C2090.76 728.625 2071.6 735.475 2050.39 735.475ZM2368.71 731.637H2345.1L2368.29 645.162C2370.65 636.262 2371.74 629.588 2371.57 625.113C2371.35 620.675 2369.09 616.587 2364.71 612.875C2360.36 609.162 2354.85 607.3 2348.14 607.3C2338.91 607.3 2328.92 611.113 2318.32 618.638C2307.7 626.213 2300.34 637.788 2296.16 653.288L2275.16 731.637H2251.7L2276.21 640.062C2279.51 627.863 2278.54 619.238 2273.35 614.163C2270.91 611.728 2268.02 609.807 2264.83 608.512C2261.64 607.217 2258.22 606.576 2254.78 606.625C2244.48 606.625 2234.45 610.537 2224.72 618.45C2215.17 626.077 2208.35 636.594 2205.27 648.425L2182.95 731.625H2159.8L2197.08 592.55H2217.93L2210.78 619.275C2227.86 598.875 2246.59 588.712 2266.98 588.712C2278.2 588.712 2286.85 591.95 2292.93 598.462C2298.96 605 2301.91 612.825 2301.74 622.038C2318.39 599.813 2337.76 588.712 2359.91 588.712C2370.51 588.712 2379.08 591.413 2385.62 596.813C2392.14 602.225 2395.66 608.462 2396.22 615.475C2396.74 622.5 2395.27 632.4 2391.89 645.15L2368.71 731.637Z" fill="white"/>
</svg>
