<svg width="47" height="34" viewBox="0 0 47 34" fill="none" xmlns="http://www.w3.org/2000/svg">
<g clip-path="url(#clip0_3864_25420)">
<path d="M38.1908 34H8.69598C8.34457 33.933 7.99316 33.872 7.64174 33.7928C6.63515 33.5613 5.70004 33.1591 4.80661 32.6412C3.79407 32.0502 2.94234 31.2642 2.19782 30.3685C1.60816 29.6556 1.1138 28.8573 0.792168 27.9799C0.547966 27.3158 0.375238 26.6272 0.178685 25.9509C0.101255 25.6767 0.0595615 25.3903 0 25.11C0 19.6627 0 14.2154 0 8.7681C0.0595615 8.51828 0.125079 8.26846 0.172728 8.01864C0.54201 6.05054 1.4533 4.381 2.82322 2.9491C3.75238 1.98029 4.83044 1.2491 6.04549 0.72509C7.29033 0.194982 8.6126 0 9.95869 0C19.2682 0.0121864 28.5776 0.0365591 37.8871 0.0609319C38.3219 0.0609319 38.7626 0.0913979 39.1855 0.194982C40.5078 0.517921 41.7467 1.01756 42.8724 1.83405C44.0934 2.72975 45.0404 3.83871 45.779 5.16093C46.6724 6.75735 47 8.5 47.006 10.3036C47.0119 15.0867 46.9762 19.8699 46.9583 24.647C46.9583 24.7932 47.0298 24.9455 47.006 25.0796C46.9523 25.3964 46.8451 25.7011 46.7856 26.0118C46.4163 28.0226 45.4633 29.7165 44.0636 31.1423C43.1702 32.0563 42.1219 32.7692 40.9426 33.2384C40.3231 33.4821 39.668 33.6283 39.0307 33.8111C38.7567 33.8842 38.4827 33.933 38.2028 33.9878L38.1908 34ZM30.9065 17.0609C30.9065 17.0609 30.9363 17.0305 30.9482 17.0183C30.9363 17.0122 30.9184 17 30.9065 16.9939C30.841 16.9208 30.7874 16.8233 30.7099 16.7806C30.2811 16.543 29.8463 16.3237 29.4115 16.0982C28.8695 15.8179 28.3334 15.5376 27.7914 15.2634C27.7021 15.038 27.5651 14.9283 27.3209 15.0258C27.2017 14.9649 27.0886 14.8979 26.9695 14.8369C25.2005 13.9168 23.4315 12.9968 21.6566 12.0889C20.3641 11.4247 19.0656 10.7667 17.7732 10.1025C17.4039 9.91362 17.0406 10.1452 17.0406 10.5656C17.0406 14.8004 17.0406 19.0351 17.0406 23.2699C17.0406 23.3674 17.0346 23.471 17.0406 23.5685C17.0703 23.8731 17.4396 24.0986 17.7017 23.9767C18.5177 23.5867 19.3337 23.1968 20.1497 22.8007C21.3766 22.1975 22.5976 21.5821 23.8246 20.9789C25.2005 20.3086 26.5823 19.6505 27.9582 18.9803C28.7265 18.6086 29.4949 18.2308 30.2632 17.8591C30.6027 17.6946 30.9422 17.5362 30.9005 17.0609H30.9065Z" fill="#C7154A"/>
<path d="M27.7915 15.2634C28.3335 15.5437 28.8755 15.8179 29.4115 16.0981C29.8463 16.3236 30.2811 16.5429 30.71 16.7806C30.7874 16.8232 30.841 16.9207 30.9065 16.9938C30.9065 17.0182 30.9065 17.0426 30.9065 17.0609C30.9482 17.5361 30.6087 17.6946 30.2692 17.8591C29.5009 18.2308 28.7325 18.6085 27.9642 18.9802C26.5883 19.6444 25.2065 20.3024 23.8306 20.9788C22.6036 21.582 21.3826 22.1974 20.1557 22.8006C19.3456 23.1967 18.5237 23.5867 17.7077 23.9766C17.4456 24.1046 17.0823 23.873 17.0466 23.5684C17.0346 23.4709 17.0466 23.3673 17.0466 23.2698C17.0466 19.0351 17.0466 14.8003 17.0466 10.5655C17.0466 10.1451 17.4099 9.91355 17.7792 10.1024C19.0776 10.7605 20.3701 11.4186 21.6626 12.0888C23.4375 13.0028 25.2065 13.9229 26.9755 14.8368C27.0946 14.8978 27.2077 14.9587 27.3269 15.0257C27.4817 15.1049 27.6425 15.1842 27.7974 15.2634H27.7915Z" fill="white"/>
</g>
<defs>
<clipPath id="clip0_3864_25420">
<rect width="47" height="34" fill="white"/>
</clipPath>
</defs>
</svg>
