<svg width="184" height="72" viewBox="0 0 184 72" fill="none" xmlns="http://www.w3.org/2000/svg">
<rect width="184" height="72" fill="#F9FDFE"/>
<path d="M56.5489 26.4732H61.6261V34.8024C59.9307 35.1465 58.6324 35.3208 57.2092 35.3208C51.6412 35.3208 49.6782 32.1258 49.6782 26.8664C49.6782 21.2138 52.3997 18.0188 57.8249 18.0188C58.5119 18.0188 59.8102 18.068 61.4298 18.3137V23.6446H60.2519L59.5872 21.607C58.9492 19.6677 58.1907 18.7069 56.9861 18.7069C54.9026 18.7069 53.7961 21.531 53.7961 26.8172C53.7961 32.1258 54.2378 34.6326 56.9593 34.6326C57.3296 34.6326 57.7669 34.5835 58.1863 34.4628V28.265L56.5444 27.1345V26.4732H56.5489ZM61.5279 48.8335C61.5279 52.1759 59.2481 54.0929 55.2238 54.0929C54.1218 54.0929 52.5023 53.9231 50.9809 53.6728V47.1399H52.1588L52.6495 48.686C53.7515 52.2474 54.5367 53.4271 55.9377 53.4271C57.41 53.4271 58.4629 52.1268 58.4629 50.4064C58.4629 49.0077 57.8026 48.0247 56.3793 47.2606L53.9255 45.9334C52.0338 44.928 51.0032 43.3551 51.0032 41.4381C51.0032 38.5381 53.3812 36.7954 57.285 36.7954C58.1684 36.7954 59.199 36.8713 60.8409 37.0903V42.4212H59.663L59.0027 40.3836C58.3379 38.2208 57.6286 37.4344 56.3303 37.4344C54.8803 37.4344 54.0237 38.3683 54.0237 39.7178C54.0237 40.9198 54.6884 41.7822 55.9867 42.5195L58.4629 43.9181C60.5464 45.0978 61.5279 46.6707 61.5279 48.8335ZM72.3738 52.6942L72.8646 53.4315V53.8024H69.1125L68.9385 52.377C68.5459 53.4584 67.5153 54.0974 66.1902 54.0974C64.2271 54.0974 63.0002 52.8685 63.0002 50.8532C63.0002 48.8871 64.1022 47.5868 67.4885 46.2596L68.934 45.6966V43.8556C68.934 42.2335 68.6396 41.5722 67.7339 41.5722C66.9977 41.5722 66.5828 41.9654 65.869 43.7573L65.0614 45.7636H63.9594V41.7554C65.405 41.313 66.855 41.0181 68.1042 41.0181C70.8748 41.0181 72.3738 42.3452 72.3738 44.7537V52.6942ZM73.7926 28.7834C73.7926 32.9614 71.5619 35.3208 68.6886 35.3208C65.8199 35.3208 63.5891 32.9614 63.5891 28.7834C63.5891 24.6053 65.8199 22.246 68.6931 22.246C71.5619 22.246 73.7926 24.6053 73.7926 28.7834ZM68.9385 50.6298V46.3803L68.4745 46.5769C67.0245 47.1667 66.4847 48.4939 66.4847 50.4332C66.4847 51.8855 66.8282 52.7166 67.6357 52.7166C68.4433 52.7166 68.9385 51.9301 68.9385 50.6298ZM70.1877 28.7834C70.1877 24.0647 69.7951 22.8135 68.6931 22.8135C67.5911 22.8135 67.1985 24.0647 67.1985 28.7834C67.1985 33.5021 67.5911 34.7533 68.6931 34.7533C69.7951 34.7533 70.1877 33.5021 70.1877 28.7834ZM82.5059 50.7505L82.9476 50.9739C82.1624 53.2349 81.1586 54.0929 79.2178 54.0929C76.0546 54.0929 74.2878 51.7112 74.2878 47.5555C74.2878 43.4043 76.3491 41.0181 79.7086 41.0181C80.6143 41.0181 81.8189 41.1656 82.8495 41.5811V45.7592H81.6984L81.2344 44.1863C80.6187 42.0995 80.2796 41.5588 79.664 41.5588C78.6824 41.5588 77.8972 42.8368 77.8972 47.7029C77.8972 51.6084 78.4861 53.0339 79.9807 53.0339C80.9846 53.0383 81.8412 52.3993 82.5059 50.7505ZM79.7799 35.0259H75.3631V34.6594L75.8538 33.9221V20.2084L75.3631 19.4711V19.1002L79.2892 18.8053V33.9177L79.7799 34.655V35.0259ZM85.8164 35.3208C83.1172 35.3208 81.4976 32.8631 81.4976 28.6627C81.4976 24.4847 83.1885 22.2505 85.7896 22.2505C87.1147 22.2505 87.8508 22.7643 88.1676 23.7966V20.2084L87.6768 19.4711V19.1002L91.6029 18.8053V33.9177L92.0937 34.655V35.0214H88.6093L88.3416 33.1536C87.9534 34.7533 87.2173 35.3208 85.8164 35.3208ZM94.4271 52.6942L94.9178 53.4315V53.8024H90.5009V53.4315L90.9917 52.6942V43.8466C90.9917 42.7921 90.6749 42.1531 89.912 42.1531C89.0019 42.1531 88.3416 42.9172 88.3416 44.4141V52.6942L88.8323 53.4315V53.8024H84.4155V53.4315L84.9062 52.6942V38.9805L84.4155 38.2432V37.8768L88.3416 37.5818V42.667C88.7833 41.6124 89.7871 41.0226 91.2103 41.0226C93.2225 41.0226 94.4226 42.3005 94.4226 44.7806V52.6942H94.4271ZM85.107 28.7074C85.107 33.1312 85.4996 34.4807 86.5793 34.4807C87.9267 34.4807 88.172 32.5414 88.172 28.6583C88.172 24.9003 87.9044 23.0324 86.6016 23.0324C85.4996 23.0324 85.107 24.3596 85.107 28.7074ZM109.739 33.9177L110.23 34.655V35.0214H105.813V34.655L106.304 33.9177V24.802C106.304 23.9172 106.009 23.3765 105.322 23.3765C104.465 23.3765 103.778 24.1406 103.778 25.6108V33.9177L104.269 34.655V35.0214H99.8523V34.655L100.343 33.9177V24.802C100.343 23.9172 100.049 23.3765 99.3615 23.3765C98.5049 23.3765 97.8178 24.1406 97.8178 25.6108V33.9177L98.3086 34.655V35.0214H93.8917V34.655L94.3825 33.9177V23.9172L93.8917 23.3274V22.9609L97.4252 22.5409H97.7197L97.8178 23.9172C98.2327 22.8358 99.2634 22.246 100.664 22.246C102.159 22.246 103.14 22.9833 103.582 24.3104C103.948 23.0324 105.103 22.246 106.576 22.246C108.512 22.246 109.739 23.524 109.739 26.004V33.9177ZM105.153 50.1874C105.153 52.3234 103.778 54.0929 100.468 54.0929C99.6113 54.0929 98.4558 53.9946 96.6668 53.6728V49.1061H97.6706L97.9874 50.0891C98.7726 52.5959 99.531 53.5299 100.736 53.5299C101.864 53.5299 102.601 52.7166 102.601 51.4654C102.601 50.4332 102.083 49.7227 100.861 49.0569L98.7503 47.9264C97.4029 47.1891 96.6668 46.0362 96.6668 44.6108C96.6668 42.3765 98.4112 41.0226 101.302 41.0226C102.137 41.0226 103.216 41.1432 104.394 41.389V44.9772H103.39L102.873 43.6724C102.284 42.0995 101.722 41.5856 100.789 41.5856C99.7853 41.5856 99.1964 42.1754 99.1964 43.1585C99.1964 43.9941 99.6872 44.5571 100.887 45.2453L102.971 46.425C104.39 47.2382 105.153 48.3911 105.153 50.1874ZM121.027 33.9177L121.517 34.655V35.0214H117.765L117.596 33.5959C117.203 34.6773 116.172 35.3163 114.847 35.3163C112.884 35.3163 111.657 34.0875 111.657 32.0722C111.657 30.1061 112.759 28.8057 116.146 27.4786L117.591 26.9156V25.0745C117.591 23.4525 117.297 22.7911 116.391 22.7911C115.655 22.7911 115.24 23.1844 114.526 24.9762L113.719 26.9915H112.612V22.9878C114.062 22.5454 115.508 22.2505 116.757 22.2505C119.528 22.2505 121.027 23.5776 121.027 25.9861V33.9177ZM117.591 31.8532V27.6037L117.127 27.8003C115.682 28.3902 115.142 29.7173 115.142 31.6566C115.142 33.1089 115.485 33.9445 116.293 33.9445C117.1 33.9445 117.591 33.158 117.591 31.8532ZM133.635 34.655V35.0214H129.218V34.655L129.709 33.9177V25.0701C129.709 24.011 129.392 23.3765 128.629 23.3765C127.719 23.3765 127.059 24.1406 127.059 25.6376V33.9177L127.549 34.655V35.0214H123.132V34.655L123.623 33.9177V23.9172L123.132 23.3274V22.9609L126.666 22.5409H126.96L127.059 23.9172C127.473 22.8358 128.482 22.246 129.927 22.246C131.939 22.246 133.14 23.524 133.14 26.004V33.9177L133.635 34.655Z" fill="black"/>
</svg>
