<svg width="184" height="72" viewBox="0 0 184 72" fill="none" xmlns="http://www.w3.org/2000/svg">
<rect width="184" height="72" fill="#F9FDFE"/>
<g clip-path="url(#clip0_1539_10305)">
<path d="M51.1501 42.2043V41.6474C51.1501 41.0602 51.219 40.5528 51.357 40.1251C51.4948 39.6976 51.6683 39.3543 51.8772 39.0952C52.0863 38.8362 52.3779 38.6204 52.7514 38.4476C53.125 38.275 53.4888 38.1674 53.8429 38.1251L55.1833 37.9652L58.2486 37.5999C59.5049 37.45 60.3677 37.3472 60.8367 37.291V36.6114C60.8367 35.4746 60.6103 34.699 60.1576 34.2841C59.7048 33.8695 58.937 33.6623 57.8542 33.6623C56.5224 33.6623 55.3685 33.8192 54.3918 34.1331L54.2322 35.7747H52.0976V32.394C52.9594 32.1562 53.9611 31.9669 55.1028 31.8259C56.2444 31.685 57.2283 31.6146 58.0548 31.6146H59.0943C62.1505 31.6146 63.6789 33.2167 63.6789 36.4208V43.54C63.9902 43.5571 64.6348 43.6081 65.6136 43.693V45.8315H60.8371V43.7589C59.8749 44.5064 59.0086 45.0516 58.2381 45.3947C57.4675 45.7379 56.5615 45.9093 55.5193 45.9093H55.025C54.2945 45.9093 53.7066 45.8661 53.2613 45.7801C52.816 45.6937 52.4241 45.5189 52.0855 45.2555C51.747 44.992 51.5067 44.6163 51.3641 44.1283C51.2213 43.6401 51.1501 42.9991 51.1501 42.2043ZM54.1256 41.9306C54.1256 42.6664 54.2786 43.1722 54.5849 43.448C54.8912 43.7237 55.4572 43.8617 56.2828 43.8617H56.7089C57.4189 43.8617 58.0982 43.7023 58.7462 43.3836C59.3941 43.0644 60.0913 42.5945 60.8369 41.9734V38.8764C59.0326 39.0503 57.5482 39.2197 56.3842 39.3849C55.516 39.4852 54.9226 39.6755 54.604 39.9555C54.2851 40.2355 54.1258 40.7308 54.1258 41.4413L54.1256 41.9306ZM66.2181 41.0883V36.1763C66.2181 34.7165 66.5804 33.5995 67.3055 32.8263C68.0305 32.0531 69.0067 31.6664 70.2342 31.6664H70.7013C71.8131 31.6664 72.6825 31.7593 73.3097 31.9451C73.9367 32.1309 74.8374 32.5392 76.0114 33.1698V29.0615C75.7889 29.0184 75.0774 28.9492 73.8767 28.854V27.1173H78.8535V43.5764C79.2004 43.5893 79.845 43.6282 80.7881 43.693V45.5074H76.0116V43.6025C74.9886 44.3888 74.0858 44.9697 73.3032 45.3454C72.5204 45.7213 71.6176 45.9092 70.5948 45.9092H70.101C68.8735 45.9092 67.9197 45.5184 67.2392 44.7362C66.5582 43.9546 66.2181 42.7384 66.2181 41.0883ZM69.06 40.2851C69.06 41.4554 69.2423 42.2903 69.607 42.7891C69.9716 43.2882 70.5854 43.5377 71.4483 43.5377H71.8754C72.6047 43.5377 73.2718 43.413 73.8767 43.1635C74.4815 42.914 75.193 42.5009 76.0114 41.9242V35.0574C75.0774 34.5498 74.3638 34.2337 73.87 34.1089C73.3764 33.9842 72.7115 33.9216 71.8754 33.9216H71.3816C70.5545 33.9216 69.9607 34.167 69.6005 34.6576C69.2403 35.1482 69.0602 35.8796 69.0602 36.8518L69.06 40.2851ZM80.1385 29.0873V27.1173H84.8084V33.2618C85.9023 32.6226 86.7938 32.1886 87.4835 31.9589C88.1728 31.7291 89.0555 31.6144 90.132 31.6144H90.6255C91.8529 31.6144 92.8205 31.9836 93.5272 32.7224C94.2347 33.4612 94.5881 34.5563 94.5881 36.0078V41.0883C94.5881 44.3024 93.0846 45.9093 90.0783 45.9093H89.6781C87.979 45.9093 85.4086 45.7974 81.9662 45.5744V29.267C81.1657 29.1985 80.5564 29.1387 80.1385 29.0873ZM84.8084 43.6429C86.0712 43.7887 87.3921 43.8617 88.771 43.8617H89.2113C90.0831 43.8617 90.7235 43.6088 91.1325 43.103C91.5416 42.5971 91.7463 41.7699 91.7463 40.6211V37.329C91.7463 36.1115 91.5749 35.2307 91.2326 34.6863C90.89 34.1421 90.3052 33.8697 89.4781 33.8697H88.9577C88.1659 33.8697 87.4854 33.9533 86.9163 34.1207C86.3472 34.288 85.6441 34.62 84.8084 35.1171V43.6429ZM96.1402 40.1292V37.2393C96.1402 35.3731 96.6634 33.9691 97.7096 33.0272C98.7556 32.0857 100.293 31.6146 102.323 31.6146H103.208C105.184 31.6146 106.648 32.0531 107.601 32.93C108.553 33.8069 109.029 35.1527 109.029 36.9671V40.0775H98.982V41.0302C98.982 42.0086 99.2665 42.7403 99.8348 43.2251C100.403 43.7099 101.202 43.9524 102.232 43.9524H103.378C104.896 43.9524 105.868 43.4932 106.294 42.575L106.401 42.1629H108.642V43.9788C108.043 44.6349 107.265 45.1361 106.308 45.4817C105.351 45.827 104.336 46 103.263 46H102.324C100.151 46 98.577 45.5334 97.6025 44.6003C96.6276 43.6673 96.1402 42.1769 96.1402 40.1292ZM98.982 38.1074H106.481V36.4405C106.481 35.51 106.19 34.8015 105.608 34.3147C105.026 33.828 104.221 33.5844 103.191 33.5844H102.365C101.3 33.5844 100.469 33.8451 99.8745 34.3662C99.2793 34.8876 98.982 35.6437 98.982 36.6343V38.1074ZM110.608 42.2043V41.6474C110.608 41.0602 110.676 40.5528 110.814 40.1251C110.952 39.6976 111.126 39.3543 111.335 39.0952C111.544 38.8362 111.835 38.6204 112.209 38.4476C112.583 38.275 112.946 38.1674 113.3 38.1251L114.641 37.9652L117.706 37.5999C118.962 37.45 119.825 37.3472 120.294 37.291V36.6114C120.294 35.4746 120.068 34.699 119.615 34.2841C119.162 33.8695 118.394 33.6623 117.312 33.6623C115.98 33.6623 114.826 33.8192 113.849 34.1331L113.689 35.7747H111.555V32.394C112.416 32.1562 113.418 31.9669 114.56 31.8259C115.701 31.685 116.686 31.6146 117.512 31.6146H118.551C121.607 31.6146 123.136 33.2167 123.136 36.4208V43.54C123.447 43.5571 124.092 43.6081 125.07 43.693V45.8315H120.294V43.7589C119.332 44.5064 118.466 45.0516 117.695 45.3947C116.924 45.7379 116.018 45.9093 114.976 45.9093H114.482C113.751 45.9093 113.164 45.8661 112.718 45.7801C112.273 45.6937 111.881 45.5189 111.542 45.2555C111.204 44.992 110.963 44.6163 110.821 44.1283C110.678 43.6403 110.608 42.9991 110.608 42.2043ZM113.583 41.9306C113.583 42.6664 113.736 43.1722 114.042 43.448C114.348 43.7237 114.915 43.8617 115.74 43.8617H116.166C116.876 43.8617 117.555 43.7023 118.204 43.3836C118.852 43.0644 119.548 42.5945 120.294 41.9734V38.8764C118.49 39.0503 117.006 39.2197 115.841 39.3849C114.974 39.4852 114.38 39.6755 114.061 39.9555C113.742 40.2355 113.583 40.7308 113.583 41.4413V41.9306ZM124.755 33.9732V31.9255H126.006C126.217 31.9255 126.361 31.8822 126.439 31.795C126.517 31.7083 126.556 31.5561 126.556 31.3387V28.1039C127.571 27.9561 128.519 27.8691 129.398 27.8431V31.9254H133.334V33.973H129.398V40.9842C129.398 42.0557 129.511 42.7643 129.738 43.1097C129.965 43.4552 130.439 43.628 131.159 43.628H131.399C132.475 43.628 133.343 43.6021 134.001 43.5502V45.1611C132.747 45.72 131.417 45.9996 130.011 45.9996H129.704C128.628 45.9996 127.834 45.7029 127.323 45.1102C126.811 44.5169 126.556 43.5796 126.556 42.2981V33.9728H124.755V33.9732Z" fill="#0F1125"/>
</g>
<defs>
<clipPath id="clip0_1539_10305">
<rect width="84" height="20" fill="white" transform="translate(50 26)"/>
</clipPath>
</defs>
</svg>
