<svg width="184" height="72" viewBox="0 0 184 72" fill="none" xmlns="http://www.w3.org/2000/svg">
<rect width="184" height="72" fill="#F9FDFE"/>
<g clip-path="url(#clip0_1539_10344)">
<path d="M97.548 28.582L99.0912 23.3892L100.672 28.582H97.548ZM105.244 33.118L101.193 20.862C101.103 20.5918 101 20.4142 100.885 20.331C100.769 20.2478 100.582 20.2054 100.326 20.2054H98.088C97.8306 20.2054 97.6416 20.251 97.519 20.3404C97.3968 20.43 97.297 20.6044 97.22 20.862L93.1312 33.118C93.0794 33.1826 93.0544 33.3098 93.0544 33.503C93.0544 33.7998 93.2342 33.9474 93.5944 33.9474H95.2722C95.4268 33.9474 95.5516 33.941 95.648 33.9286C95.7446 33.916 95.8216 33.883 95.8798 33.8312C95.9378 33.7808 95.9886 33.7024 96.0342 33.6002C96.079 33.4966 96.127 33.3616 96.1786 33.195L96.8152 31.0526H101.425L102.08 33.1558C102.132 33.3364 102.183 33.4778 102.235 33.5814C102.286 33.6834 102.344 33.7634 102.408 33.8218C102.473 33.8798 102.55 33.9158 102.64 33.9286C102.729 33.941 102.846 33.9474 102.987 33.9474H104.781C105.14 33.9474 105.321 33.7998 105.321 33.503C105.321 33.4134 105.318 33.352 105.311 33.3208C105.304 33.2878 105.282 33.2202 105.244 33.118ZM103.255 38.0524H101.963C101.628 38.0524 101.406 38.101 101.297 38.197C101.188 38.2942 101.134 38.4906 101.134 38.786V46.0614L97.315 38.767C97.1604 38.4578 97.009 38.2612 96.8614 38.1782C96.7132 38.0948 96.4534 38.0524 96.0804 38.0524H94.8844C94.5502 38.0524 94.328 38.101 94.219 38.197C94.1098 38.2942 94.055 38.4906 94.055 38.786V51.0608C94.055 51.3578 94.106 51.5526 94.2094 51.65C94.3122 51.7456 94.5306 51.7944 94.8648 51.7944H96.177C96.5106 51.7944 96.7326 51.7456 96.8418 51.65C96.9508 51.5526 97.0058 51.358 97.0058 51.0608V43.7648L100.825 51.0796C100.979 51.3892 101.13 51.5856 101.278 51.6688C101.426 51.7534 101.686 51.7944 102.059 51.7944H103.255C103.589 51.7944 103.811 51.7456 103.921 51.65C104.03 51.5526 104.085 51.358 104.085 51.0608V38.786C104.085 38.4906 104.03 38.2942 103.921 38.197C103.811 38.101 103.589 38.0524 103.255 38.0524ZM109.661 36.8902L112.991 40.2202V56.9912H71.009V40.2174L74.3358 36.8906C74.4528 36.7737 74.5456 36.6348 74.6089 36.482C74.6722 36.3292 74.7047 36.1654 74.7047 36C74.7047 35.8346 74.6722 35.6708 74.6089 35.518C74.5456 35.3652 74.4528 35.2263 74.3358 35.1094L71.0088 31.7826V15.0086H112.991V31.7788L109.661 35.109C109.544 35.2259 109.452 35.3648 109.388 35.5176C109.325 35.6704 109.292 35.8342 109.292 35.9996C109.292 36.165 109.325 36.3288 109.388 36.4816C109.452 36.6344 109.544 36.7733 109.661 36.8902H109.661ZM116 12H68V33.2266L70.7734 36L68 38.7734V60H116V38.7734L113.227 36L116 33.2266V12ZM89.3406 48.9374H83.9186L89.6282 40.9094C89.718 40.7806 89.7762 40.6772 89.8022 40.6C89.8282 40.5232 89.8408 40.4336 89.8408 40.33V38.786C89.8408 38.4906 89.7856 38.2942 89.6762 38.197C89.5668 38.101 89.3438 38.0524 89.0084 38.0524H80.7646C80.4676 38.0524 80.2746 38.1074 80.1842 38.2158C80.0938 38.3258 80.0488 38.5534 80.0488 38.9022V40.0598C80.0488 40.4068 80.0938 40.6362 80.1842 40.7446C80.2746 40.8546 80.4676 40.9094 80.7646 40.9094H85.8536L80.2222 48.9374C80.0796 49.118 80.0086 49.2986 80.0086 49.4776V51.0608C80.0086 51.3578 80.0638 51.5526 80.1732 51.65C80.2828 51.7456 80.5056 51.7944 80.8412 51.7944H89.3406C89.6374 51.7944 89.8312 51.7394 89.9218 51.631C90.0116 51.521 90.0572 51.2932 90.0572 50.9446V49.7872C90.0572 49.4398 90.0116 49.2122 89.9218 49.1024C89.8312 48.9924 89.6374 48.9374 89.3406 48.9374ZM86.8168 28.4656C86.8168 28.9936 86.7816 29.4348 86.7108 29.7882C86.6402 30.1416 86.5248 30.429 86.364 30.6474C86.2032 30.8656 85.9912 31.0196 85.7274 31.1108C85.4638 31.2002 85.139 31.2458 84.7534 31.2458H83.1722V22.907H84.7536C85.4866 22.907 86.0132 23.1238 86.335 23.554C86.656 23.9846 86.817 24.696 86.817 25.687L86.8168 28.4656ZM89.5754 22.888C89.125 21.974 88.5114 21.2986 87.7334 20.862C86.955 20.4238 85.9748 20.2054 84.792 20.2054H80.838C80.5036 20.2054 80.2816 20.254 80.1724 20.35C80.0634 20.4472 80.0084 20.6436 80.0084 20.939V33.2138C80.0084 33.5108 80.0634 33.7054 80.1724 33.803C80.2816 33.8986 80.5036 33.9474 80.838 33.9474H85.2736C87.3698 33.9474 88.8036 33.0536 89.5752 31.2646C89.7548 30.8532 89.8804 30.4386 89.9512 30.019C90.0218 29.6012 90.057 29.0704 90.057 28.428V25.8222C90.057 25.0886 90.0218 24.5092 89.951 24.085C89.8834 23.6701 89.7571 23.267 89.5754 22.888Z" fill="#0C161C"/>
</g>
<defs>
<clipPath id="clip0_1539_10344">
<rect width="48" height="48" fill="white" transform="translate(68 12)"/>
</clipPath>
</defs>
</svg>
