<svg width="184" height="72" viewBox="0 0 184 72" fill="none" xmlns="http://www.w3.org/2000/svg">
<rect width="184" height="72" fill="#F9FDFE"/>
<g clip-path="url(#clip0_1539_10341)">
<path d="M33.0312 36C33.0312 45.35 40.6812 53 50.0312 53C59.3813 53 67.0312 45.35 67.0312 36C67.0312 26.65 59.3813 19 50.0312 19C40.6812 19 33.0312 26.65 33.0312 36Z" fill="#1ECCB0"/>
<path d="M47.6938 45.6688C47.0563 44.6063 46.2063 43.65 45.1438 43.0125C44.0813 42.375 43.0188 41.8438 41.7438 41.525C41.6376 41.525 41.5313 41.525 41.4251 41.6313C41.3188 41.7375 41.3188 41.8438 41.3188 41.95C41.3188 42.0563 41.3188 42.1625 41.4251 42.1625C42.8063 44.1813 44.9313 45.6688 47.2688 46.3063H47.3751C47.4813 46.3063 47.4813 46.3063 47.5876 46.3063C47.5876 46.3063 47.6938 46.3063 47.6938 46.2L47.8001 46.0938C47.8001 46.0938 47.8001 45.9875 47.8001 45.8813C47.8001 45.775 47.8001 45.6688 47.6938 45.6688Z" fill="white"/>
<path d="M60.2313 33.1313V33.025C59.7001 31.1125 58.6376 29.4125 57.1501 28.1375C55.6626 26.8625 53.9626 25.9063 52.0501 25.5875H51.9438C51.8376 25.5875 51.7313 25.5875 51.6251 25.6938C51.5188 25.8 51.5188 25.9063 51.5188 26.0125V26.1188C52.4751 31.9625 51.8376 37.9125 49.7126 43.4375C49.7126 43.5438 49.6063 43.5438 49.6063 43.65C49.6063 43.7563 49.5001 43.7563 49.3938 43.7563C49.2876 43.7563 49.2876 43.7563 49.1813 43.7563C49.1813 43.7563 49.0751 43.7563 49.0751 43.65L48.9688 43.5438C48.9688 43.5438 48.9688 43.4375 48.9688 43.3313C48.9688 43.3313 48.8626 42.5875 48.8626 42.2688C48.2251 37.1688 46.7376 32.2813 44.2938 27.7125C44.2938 27.6063 44.1876 27.6063 44.1876 27.6063L44.0813 27.5C44.0813 27.5 43.9751 27.5 43.8688 27.5C43.7626 27.5 43.7626 27.5 43.6563 27.5C42.1688 28.6688 41.0001 30.1563 40.2563 31.9625C40.2563 32.0688 40.2563 32.175 40.2563 32.2813C40.2563 32.3875 40.3626 32.4938 40.4688 32.4938C42.8063 33.9813 44.7188 35.8938 46.1001 38.3375C47.4813 40.675 48.2251 43.4375 48.3313 46.0938C48.3313 46.2 48.3313 46.3063 48.4376 46.4125C48.5438 46.5188 48.6501 46.5188 48.6501 46.5188C48.8626 46.5188 49.1813 46.625 49.3938 46.625C49.5001 46.625 49.6063 46.625 49.7126 46.5188C49.8188 46.4125 49.8188 46.4125 49.8188 46.3063C50.3501 43.5438 51.5188 40.8875 53.3251 38.6563C55.1313 36.425 57.3626 34.725 60.0188 33.5563C60.1251 33.5563 60.1251 33.45 60.2313 33.45C60.2313 33.2375 60.2313 33.2375 60.2313 33.1313Z" fill="white"/>
<path d="M59.2749 41.2062C59.2749 41.1 59.2749 40.9938 59.1687 40.8875C59.0624 40.7813 58.9562 40.7812 58.8499 40.7812H58.7437C55.4499 41.525 52.4749 43.3312 50.3499 45.8812C50.2437 45.9875 50.2437 46.0938 50.2437 46.2C50.2437 46.3063 50.2437 46.4125 50.3499 46.5187C50.4562 46.625 50.5624 46.625 50.6687 46.625C52.3687 46.5188 54.0687 45.9875 55.5562 45.1375C57.0437 44.2875 58.3187 43.0125 59.1687 41.525C59.2749 41.4188 59.2749 41.3125 59.2749 41.2062Z" fill="white"/>
<path d="M75.85 42.375C75 42.375 74.15 42.2688 73.4062 41.8438C72.7687 41.525 72.2375 40.9938 71.8125 40.3563C71.4937 39.6125 71.2812 38.8688 71.2812 38.125V37.8063H74.2562C74.2562 38.3375 74.3625 38.7625 74.575 39.1875C74.7875 39.4 75.2125 39.6125 75.5312 39.6125C75.85 39.6125 76.275 39.6125 76.5937 39.4C76.8062 39.2938 76.9125 38.975 77.0188 38.7625C77.125 38.4438 77.125 38.125 77.125 37.8063V28.775H80.4187V37.7C80.525 38.975 80.1 40.25 79.25 41.2063C78.825 41.6313 78.1875 41.95 77.6562 42.1625C77.0187 42.2688 76.4875 42.375 75.85 42.375Z" fill="#141414"/>
<path d="M83.7125 30.7937C83.3937 30.7937 83.075 30.6875 82.8625 30.5812C82.65 30.475 82.4375 30.2625 82.225 30.05C82.1187 29.8375 82.0125 29.5187 82.0125 29.2C82.0125 28.8812 82.1187 28.5625 82.225 28.35C82.3312 28.1375 82.5437 27.925 82.8625 27.8187C83.1812 27.7125 83.3937 27.6062 83.7125 27.6062C84.0312 27.6062 84.35 27.7125 84.5625 27.8187C84.775 27.925 84.9874 28.1375 85.1999 28.35C85.3062 28.5625 85.4124 28.8812 85.4124 29.2C85.4124 29.5187 85.3062 29.7312 85.1999 30.05C85.0937 30.2625 84.8812 30.475 84.5625 30.5812C84.35 30.6875 84.0312 30.7937 83.7125 30.7937ZM82.225 42.0562V32.175H85.1999V42.0562H82.225Z" fill="#141414"/>
<path d="M91.7875 42.375C90.8312 42.375 89.875 42.1625 89.1312 41.7375C88.3875 41.3125 87.75 40.675 87.325 39.9313C86.9 39.0813 86.6875 38.125 86.6875 37.1688C86.6875 36.2125 86.9 35.2563 87.325 34.4063C87.75 33.6625 88.2812 33.025 89.1312 32.6C89.9812 32.175 90.9375 31.9625 91.7875 31.9625C92.7437 31.9625 93.5937 32.175 94.4437 32.6C95.1875 33.025 95.825 33.6625 96.1438 34.4063C96.5688 35.2563 96.7812 36.2125 96.7812 37.1688C96.7812 38.125 96.5688 39.0813 96.1438 39.9313C95.7188 40.675 95.0813 41.3125 94.3375 41.7375C93.5938 42.1625 92.6375 42.375 91.7875 42.375ZM91.7875 40.1438C92.2125 40.1438 92.6375 40.0375 92.9563 39.825C93.275 39.5063 93.5937 39.1875 93.7 38.7625C93.9125 38.2313 93.9125 37.7 93.9125 37.1688C93.9125 36.6375 93.8062 36.1063 93.7 35.6813C93.5937 35.2563 93.3812 34.9375 93.0625 34.6188C92.7438 34.3 92.3188 34.1938 91.8938 34.1938C91.4688 34.1938 91.15 34.3 90.8313 34.5125C90.5125 34.725 90.3 35.15 90.0875 35.4688C89.875 36 89.875 36.5313 89.875 37.0625C89.875 37.5938 89.9813 38.125 90.0875 38.6563C90.1938 39.0813 90.4063 39.4 90.8313 39.7188C90.9375 39.9313 91.3625 40.0375 91.7875 40.1438Z" fill="#141414"/>
<path d="M103.475 42.375C102.519 42.375 101.563 42.2687 100.713 41.95C99.8625 41.6312 99.1188 41.2062 98.5875 40.5687C98.0563 39.9312 97.7375 39.0812 97.7375 38.3375V38.125H101.031C101.031 38.4437 101.138 38.8687 101.35 39.0812C101.563 39.4 101.881 39.5062 102.306 39.6125C102.731 39.7187 103.156 39.825 103.581 39.825C104.113 39.825 104.75 39.7187 105.175 39.5062C105.388 39.4 105.494 39.2937 105.706 39.0812C105.813 38.8687 105.919 38.6562 105.813 38.4437C105.813 38.2312 105.706 37.9125 105.6 37.8062C105.388 37.5937 105.175 37.3812 104.963 37.275C104.538 37.0625 104.113 36.9562 103.688 36.85L101.244 36.2125C100.606 36.1062 100.075 35.7875 99.5438 35.3625C99.1188 35.0437 98.6938 34.6187 98.4813 34.1937C98.2688 33.6625 98.1625 33.1312 98.1625 32.6C98.1625 31.75 98.375 31.0062 98.9063 30.3687C99.4375 29.7312 100.075 29.3062 100.819 28.9875C101.563 28.5625 102.519 28.4562 103.369 28.5625C104.325 28.5625 105.175 28.6687 106.025 28.9875C106.769 29.2 107.406 29.7312 107.831 30.2625C108.256 30.9 108.575 31.6437 108.575 32.3875H105.388C105.388 32.175 105.281 31.9625 105.175 31.75C105.069 31.5375 104.963 31.4312 104.75 31.325C104.219 31.1125 103.688 30.9 103.156 31.0062C102.731 31.0062 102.2 31.1125 101.775 31.325C101.563 31.4312 101.456 31.5375 101.35 31.6437C101.244 31.75 101.244 31.9625 101.244 32.175C101.244 32.3875 101.244 32.6 101.35 32.8125C101.456 33.025 101.669 33.1312 101.881 33.2375C102.2 33.3437 102.625 33.5562 102.944 33.5562L104.538 33.9812C105.388 34.1937 106.131 34.5125 106.875 34.8312C107.513 35.15 107.938 35.4687 108.363 36C108.788 36.5312 109 37.275 108.894 37.9125C108.894 38.7625 108.681 39.5062 108.256 40.25C107.725 40.8875 107.088 41.4187 106.344 41.7375C105.494 42.1625 104.431 42.375 103.475 42.375Z" fill="#141414"/>
<path d="M113.356 42.375C112.719 42.375 112.081 42.2688 111.55 42.0563C111.019 41.8438 110.594 41.4188 110.381 40.9938C110.063 40.4625 109.956 39.9313 109.956 39.2938C109.956 38.7625 110.063 38.3375 110.275 37.9125C110.488 37.4875 110.806 37.1688 111.231 36.85C112.4 36.2125 113.675 36 114.844 36.1063H116.331V35.7875C116.331 35.4688 116.331 35.0438 116.225 34.725C116.119 34.5125 115.906 34.3 115.694 34.0875C115.375 33.9813 115.056 33.875 114.844 33.875C114.419 33.875 113.994 33.9813 113.675 34.1938C113.569 34.3 113.463 34.4063 113.356 34.5125C113.25 34.6188 113.25 34.8313 113.25 34.9375H110.381C110.381 34.3 110.594 33.7688 111.019 33.3438C111.444 32.8125 111.975 32.4938 112.613 32.2813C113.356 32.0688 114.206 31.9625 115.056 31.9625C115.906 31.9625 116.756 32.0688 117.5 32.3875C118.138 32.6 118.563 33.1313 118.881 33.6625C119.2 34.4063 119.413 35.15 119.306 35.8938V42.0563H116.65L116.544 40.8875C116.225 41.3125 115.906 41.7375 115.375 41.95C114.738 42.1625 113.994 42.375 113.356 42.375ZM114.419 40.25C114.738 40.25 115.163 40.1438 115.481 40.0375C115.8 39.9313 116.013 39.6125 116.119 39.4C116.331 39.0813 116.331 38.6563 116.331 38.3375V37.7H115.269C114.844 37.7 114.419 37.7 113.994 37.8063C113.675 37.9125 113.463 38.0188 113.25 38.2313C113.144 38.3375 113.038 38.4438 113.038 38.55C113.038 38.6563 112.931 38.8688 112.931 38.975C112.931 39.1875 112.931 39.2938 113.038 39.5063C113.144 39.7188 113.25 39.825 113.356 39.9313C113.675 40.1438 113.994 40.25 114.419 40.25Z" fill="#141414"/>
<path d="M123.875 42.375C123.238 42.375 122.6 42.2688 122.069 42.0563C121.538 41.8438 121.113 41.4188 120.9 40.9938C120.581 40.4625 120.475 39.9313 120.475 39.2938C120.475 38.7625 120.581 38.3375 120.794 37.9125C121.006 37.4875 121.325 37.1688 121.75 36.85C122.919 36.2125 124.194 36 125.469 36H126.956V35.6813C126.956 35.3625 126.956 34.9375 126.85 34.6188C126.744 34.4063 126.531 34.1938 126.319 34.0875C126 33.9813 125.681 33.875 125.469 33.875C125.044 33.875 124.619 33.9813 124.3 34.1938C124.194 34.3 124.088 34.4063 123.981 34.5125C123.875 34.6188 123.875 34.8313 123.875 34.9375H121.006C121.006 34.3 121.219 33.7688 121.644 33.3438C122.069 32.8125 122.6 32.4938 123.238 32.2813C123.981 32.0688 124.831 31.9625 125.681 31.9625C126.531 31.9625 127.381 32.0688 128.125 32.3875C128.763 32.6 129.188 33.1313 129.506 33.6625C129.825 34.4063 130.038 35.15 129.931 35.8938V42.0563H127.169L127.063 40.8875C126.744 41.3125 126.425 41.7375 125.894 41.95C125.256 42.1625 124.513 42.375 123.875 42.375ZM124.938 40.25C125.256 40.25 125.681 40.1438 126 40.0375C126.319 39.9313 126.531 39.6125 126.638 39.4C126.85 39.0813 126.85 38.6563 126.85 38.3375V37.7H125.788C125.363 37.7 124.938 37.7 124.513 37.8063C124.194 37.9125 123.981 38.0188 123.769 38.2313C123.663 38.3375 123.556 38.4438 123.556 38.55C123.556 38.6563 123.45 38.8688 123.45 38.975C123.45 39.1875 123.45 39.2938 123.556 39.5063C123.663 39.7188 123.769 39.825 123.875 39.9313C124.194 40.1438 124.513 40.25 124.938 40.25Z" fill="#141414"/>
<path d="M133.65 42.0563L130.462 32.175H133.65L135.456 38.7625L137.262 32.175H140.131L136.944 42.0563H133.65Z" fill="#141414"/>
<path d="M141.194 42.0563V32.175H144.063V33.5563C144.381 33.025 144.806 32.6 145.338 32.3875C145.869 32.0688 146.4 31.9625 147.038 31.9625C147.675 31.9625 148.313 32.0688 148.95 32.3875C149.481 32.7063 149.906 33.1313 150.119 33.6625C150.438 34.3 150.544 35.0438 150.544 35.7875V42.1625H147.569V36.6375C147.569 36 147.463 35.3625 147.144 34.8313C147.038 34.6188 146.825 34.5125 146.613 34.4063C146.4 34.3 146.188 34.3 145.975 34.3C145.763 34.3 145.444 34.3 145.231 34.4063C145.019 34.5125 144.806 34.6188 144.594 34.8313C144.275 35.3625 144.063 36 144.169 36.6375V42.0563H141.194Z" fill="#141414"/>
</g>
<defs>
<clipPath id="clip0_1539_10341">
<rect width="118" height="34" fill="white" transform="translate(33 19)"/>
</clipPath>
</defs>
</svg>
