<svg width="184" height="72" viewBox="0 0 184 72" fill="none" xmlns="http://www.w3.org/2000/svg">
<rect width="184" height="72" fill="#F9FDFE"/>
<g clip-path="url(#clip0_1539_10317)">
<path d="M117.379 23.7355C117.379 22.5969 118.31 21.6734 119.457 21.6734H143.421C144.569 21.6734 145.499 22.5969 145.499 23.7355V48.3985C145.499 49.5375 144.569 50.4607 143.421 50.4607H119.457C118.31 50.4607 117.379 49.5375 117.379 48.3985V23.7355Z" fill="#006699"/>
<path fill-rule="evenodd" clip-rule="evenodd" d="M38.6627 45.7867H50.3979V41.8675H42.9096V26.9143H38.6627V45.7867Z" fill="black"/>
<path fill-rule="evenodd" clip-rule="evenodd" d="M56.3394 45.7867V32.788H52.0922V45.7867H56.3394ZM54.2158 31.0132C55.6969 31.0132 56.6187 30.0151 56.6187 28.7668C56.5911 27.4917 55.6969 26.5216 54.244 26.5216C52.791 26.5216 51.8411 27.4917 51.8411 28.7668C51.8411 30.0151 52.7627 31.0132 54.1881 31.0132H54.2158Z" fill="black"/>
<path fill-rule="evenodd" clip-rule="evenodd" d="M58.3114 45.7867H62.5586V38.5275C62.5586 38.139 62.5863 37.7509 62.6986 37.4732C63.0054 36.6973 63.7042 35.8934 64.8776 35.8934C66.4146 35.8934 67.0294 37.0858 67.0294 38.8322V45.7867H71.2763V38.3333C71.2763 34.3405 69.1807 32.4826 66.3864 32.4826C64.0953 32.4826 63.0893 33.7855 62.5304 34.6729H62.5587V32.788H58.3115C58.3672 34.0078 58.3114 45.7867 58.3114 45.7867Z" fill="black"/>
<path fill-rule="evenodd" clip-rule="evenodd" d="M77.2678 26.9143H73.0204V45.7867H77.2678V41.5724L78.3292 40.2131L81.6544 45.7867H86.8792L81.2913 37.7178L86.181 32.228H81.0678C81.0678 32.228 77.5752 37.1397 77.2678 37.722V26.9143Z" fill="black"/>
<path fill-rule="evenodd" clip-rule="evenodd" d="M98.2375 40.3646C98.2933 40.0308 98.3773 39.3903 98.3773 38.6664C98.3773 35.306 96.7005 31.8949 92.286 31.8949C87.5637 31.8949 85.3844 35.6941 85.3844 39.1399C85.3844 43.4019 88.0388 46.0637 92.6771 46.0637C94.5213 46.0637 96.2255 45.7868 97.6228 45.2044L97.0637 42.351C95.9183 42.7376 94.7447 42.9307 93.2919 42.9307C91.308 42.9307 89.5758 42.1025 89.4359 40.337L98.2375 40.3639V40.3646ZM89.4082 37.4416C89.5199 36.3323 90.2464 34.696 92.0626 34.696C93.9901 34.696 94.4375 36.4435 94.4375 37.4416H89.4082Z" fill="black"/>
<path fill-rule="evenodd" clip-rule="evenodd" d="M108.861 26.9144V33.4474H108.805C108.19 32.533 106.904 31.923 105.201 31.923C101.931 31.923 99.0533 34.5848 99.081 39.1318C99.081 43.3469 101.68 46.0918 104.921 46.0918C106.681 46.0918 108.358 45.3152 109.196 43.8177H109.28L109.447 45.7868H113.22C113.164 44.8717 113.107 43.2911 113.107 41.7386V26.9144H108.861ZM108.861 39.77C108.861 40.1023 108.833 40.4354 108.777 40.7124C108.526 41.9048 107.519 42.7364 106.29 42.7364C104.53 42.7364 103.384 41.2947 103.384 39.021C103.384 36.8862 104.362 35.1672 106.318 35.1672C107.631 35.1672 108.553 36.0819 108.805 37.2185C108.861 37.4686 108.861 37.7459 108.861 37.9952V39.77Z" fill="black"/>
<path fill-rule="evenodd" clip-rule="evenodd" d="M125.903 45.7714V32.7723H121.656V45.7714H125.903ZM123.78 30.9975C125.261 30.9975 126.183 29.9993 126.183 28.7518C126.155 27.4763 125.261 26.5058 123.808 26.5058C122.355 26.5058 121.405 27.4763 121.405 28.7518C121.405 29.9993 122.327 30.9975 123.752 30.9975H123.78Z" fill="white"/>
<path fill-rule="evenodd" clip-rule="evenodd" d="M128.253 45.7714H132.501V38.5121C132.501 38.1236 132.528 37.7355 132.64 37.4578C132.947 36.6815 133.646 35.8776 134.82 35.8776C136.356 35.8776 136.971 37.0697 136.971 38.8172V45.7714H141.218V38.3179C141.218 34.3251 139.123 32.4672 136.328 32.4672C134.037 32.4672 133.031 33.7701 132.472 34.6575H132.501V32.7723H128.254C128.309 33.992 128.253 45.7714 128.253 45.7714Z" fill="white"/>
</g>
<defs>
<clipPath id="clip0_1539_10317">
<rect width="108" height="30" fill="white" transform="translate(38 21)"/>
</clipPath>
</defs>
</svg>
