<svg width="184" height="72" viewBox="0 0 184 72" fill="none" xmlns="http://www.w3.org/2000/svg">
<rect width="184" height="72" fill="#F9FDFE"/>
<g clip-path="url(#clip0_1539_10320)">
<path d="M111.257 28.9449C110.484 29.5037 109.57 29.853 108.516 29.853C106.126 29.853 104.229 27.967 104.229 25.6618C104.229 23.3567 106.197 21.4706 108.516 21.4706C109.57 21.4706 110.484 21.8199 111.257 22.3787L112.171 21.4706C111.187 20.6324 109.922 20.1434 108.516 20.1434C105.424 20.1434 102.894 22.5883 102.894 25.592C102.894 28.5956 105.424 31.0405 108.516 31.0405C109.922 31.0405 111.187 30.5515 112.171 29.7133L111.257 28.9449Z" fill="black"/>
<path d="M94.6706 38.5846C95.0923 38.5846 95.514 38.2353 95.514 37.7463C95.514 37.2573 95.1626 36.9081 94.6706 36.9081C94.249 36.9081 93.8273 37.2573 93.8273 37.7463C93.8273 38.2353 94.1787 38.5846 94.6706 38.5846Z" fill="#FE414D"/>
<path d="M95.3031 40.1213H94.0381V51.0184H95.3031V40.1213Z" fill="#FE414D"/>
<path d="M67.6125 25.6618C67.6125 22.6581 65.2229 20.2831 62.3414 20.2831C60.7952 20.2831 59.3193 20.9816 58.3354 22.1691V20.2831H57.0703V35.0919H58.3354V29.2941C59.3193 30.4816 60.7952 31.1801 62.3414 31.1801C65.2229 31.1103 67.6125 28.6654 67.6125 25.6618ZM62.2711 29.8529C60.0924 29.8529 58.3354 28.1066 58.2651 25.8713V25.7316C58.2651 23.4265 60.0924 21.6103 62.2711 21.6103C64.4498 21.6103 66.2771 23.4963 66.2771 25.7316C66.2771 27.9669 64.5201 29.8529 62.2711 29.8529Z" fill="black"/>
<path d="M72.3916 51.0184C73.9378 51.0184 75.4137 50.3199 76.3976 49.1324V51.0184H77.6627V40.1213H76.3976V42.0074C75.4137 40.8199 73.9378 40.1213 72.3916 40.1213C69.51 40.1213 67.1205 42.5662 67.1205 45.5C67.1205 48.5735 69.51 51.0184 72.3916 51.0184ZM68.3855 45.5699C68.3855 43.2647 70.2129 41.4485 72.3916 41.4485C74.5703 41.4485 76.3976 43.3346 76.3976 45.5699V45.7096C76.3273 47.9449 74.5703 49.6912 72.3916 49.6912C70.2129 49.761 68.3855 47.875 68.3855 45.5699Z" fill="#FE414D"/>
<path d="M91.6486 45.5698C91.6486 42.5662 89.2591 40.1912 86.3775 40.1912C84.8313 40.1912 83.3554 40.8897 82.3715 42.0772V40.1912H81.1064V55H82.3715V49.2022C83.3554 50.3897 84.8313 51.0882 86.3775 51.0882C89.2591 51.0184 91.6486 48.5735 91.6486 45.5698ZM86.3775 49.761C84.1988 49.761 82.4418 48.0147 82.3715 45.7794V45.6397C82.3715 43.3345 84.1988 41.5184 86.3775 41.5184C88.5562 41.5184 90.3836 43.4044 90.3836 45.6397C90.3836 47.875 88.5562 49.761 86.3775 49.761Z" fill="#FE414D"/>
<path d="M77.241 20.2133V26.6397C77.241 28.3861 75.8353 29.7831 74.008 29.853C72.251 29.853 70.8454 28.4559 70.8454 26.6397V20.2133H69.5803V26.6397C69.5803 29.0846 71.5482 31.1103 74.008 31.1103C76.4679 31.1103 78.506 29.0846 78.506 26.6397V20.2133H77.241Z" fill="black"/>
<path d="M86.3775 20.2132C84.8313 20.2132 83.3554 20.9118 82.3715 22.0993V17H81.1064V31.1103H82.3715V29.2243C83.3554 30.4118 84.8313 31.1103 86.3775 31.1103C89.2591 31.1103 91.6486 28.6654 91.6486 25.7316C91.6486 22.6581 89.2591 20.2132 86.3775 20.2132ZM90.3836 25.7316C90.3836 28.0368 88.5562 29.8529 86.3775 29.8529C84.1988 29.8529 82.3715 27.9669 82.3715 25.7316V25.5919C82.4418 23.3566 84.1988 21.6103 86.3775 21.6103C88.5562 21.5404 90.3836 23.4265 90.3836 25.7316Z" fill="black"/>
<path d="M99.7309 18.6765C100.153 18.6765 100.574 18.3272 100.574 17.8382C100.574 17.3493 100.223 17 99.7309 17C99.3093 17 98.8876 17.3493 98.8876 17.8382C98.8876 18.3272 99.239 18.6765 99.7309 18.6765Z" fill="black"/>
<path d="M100.363 20.2133H99.0984V31.1103H100.363V20.2133Z" fill="black"/>
<path d="M115.825 18.6765C116.247 18.6765 116.669 18.3272 116.669 17.8382C116.669 17.3493 116.317 17 115.825 17C115.404 17 114.982 17.3493 114.982 17.8382C114.982 18.3272 115.333 18.6765 115.825 18.6765Z" fill="black"/>
<path d="M116.458 20.2133H115.193V31.1103H116.458V20.2133Z" fill="black"/>
<path d="M115.685 40.1213C114.49 40.1213 113.295 40.6103 112.452 41.5184V40.1213H111.187V51.0184H112.452V44.5919C112.522 42.8456 113.928 41.4485 115.685 41.4485C117.442 41.4485 118.847 42.8456 118.847 44.5919V51.0184H120.112V44.5919C120.183 42.1471 118.145 40.1213 115.685 40.1213Z" fill="#FE414D"/>
<path d="M126.859 49.761H126.719C126.578 49.761 126.368 49.8308 126.086 49.8308C125.594 49.8308 125.313 49.4816 125.313 48.7132V41.3088H126.859V40.0514H125.313V36.4191H123.978V40.0514H122.432V41.3088H123.978V48.783C123.978 49.6213 124.119 50.1102 124.47 50.4595C124.751 50.8088 125.243 50.9485 125.735 50.9485C126.157 50.9485 126.508 50.8786 126.789 50.8088H126.859V49.761Z" fill="#FE414D"/>
<path d="M106.689 47.875C105.986 49.0625 104.721 49.761 103.315 49.761C101.207 49.761 99.4498 48.0845 99.3092 45.9191H107.954C108.305 45.9191 108.586 45.6397 108.586 45.3603V45.2904C108.375 42.4264 106.126 40.261 103.315 40.261C100.363 40.261 97.9739 42.7058 97.9739 45.7095C97.9739 48.7132 100.363 51.0882 103.315 51.0882C105.072 51.0882 106.759 50.1801 107.743 48.6433L106.689 47.875ZM103.386 41.4485C105.283 41.4485 106.9 42.7757 107.251 44.6617H99.3795C99.8715 42.7757 101.418 41.4485 103.386 41.4485Z" fill="#FE414D"/>
<path d="M64.1687 45.7794C64.1687 45.7794 63.8173 45.5 63.4659 45.3603C63.1145 45.2206 62.6225 45.011 61.498 44.8014C61.3574 44.7316 61.2169 44.7316 61.0763 44.7316C60.3735 44.522 59.8112 44.3125 59.3896 44.0331C58.9679 43.6838 58.8273 43.4044 58.8273 43.0551C58.8273 42.636 59.1084 42.2867 59.5301 41.9375C60.0221 41.5882 60.7249 41.3786 61.498 41.4485C62.4116 41.5183 63.1145 41.9375 63.8173 42.4963L63.8876 42.5661L64.8012 41.7279C64.6606 41.5882 64.6606 41.5882 64.3795 41.3786C63.6767 40.8897 62.7631 40.3308 61.498 40.3308C60.4438 40.261 59.5301 40.4706 58.757 40.9595C57.9839 41.5183 57.492 42.2867 57.492 43.0551C57.492 43.6838 57.6325 44.2426 58.1948 44.8014C58.8976 45.5 60.0924 45.8492 61.0763 46.0588C61.99 46.1985 62.7631 46.5478 63.1847 46.897C63.6767 47.3161 63.8876 47.6654 63.8876 48.1544C63.8876 48.5735 63.5361 49.0625 63.0442 49.3419C62.5522 49.6911 61.7791 49.9007 61.0763 49.9007C60.0924 49.8308 59.0382 49.4117 57.9839 48.6433L57.9137 48.5735L57 49.4117L57.0703 49.4816C58.2651 50.5294 59.6004 51.0882 61.006 51.1581C62.0602 51.2279 62.9739 50.9485 63.747 50.3897C64.5904 49.8308 65.0823 49.0625 65.0823 48.2242C65.3635 47.1764 64.8715 46.3382 64.1687 45.7794Z" fill="#FE414D"/>
<path d="M126.016 25.8713C126.016 25.8713 125.665 25.5919 125.313 25.4522C124.962 25.3125 124.47 25.1029 123.345 24.8934C123.205 24.8235 123.064 24.8235 122.924 24.8235C122.221 24.6139 121.659 24.4044 121.237 24.125C120.815 23.7757 120.675 23.4963 120.675 23.147C120.675 22.7279 120.956 22.3786 121.378 22.0294C121.869 21.6801 122.572 21.4706 123.345 21.5404C124.259 21.6103 124.962 22.0294 125.665 22.5882L125.735 22.6581L126.649 21.8198C126.508 21.6801 126.508 21.6801 126.227 21.4706C125.524 20.9816 124.61 20.4228 123.345 20.4228C122.291 20.3529 121.378 20.5625 120.604 21.0514C119.831 21.6103 119.339 22.3786 119.339 23.147C119.339 23.7757 119.48 24.3345 120.042 24.8934C120.745 25.5919 121.94 25.9411 122.924 26.1507C123.837 26.2904 124.61 26.6397 125.032 26.9889C125.524 27.4081 125.735 27.7573 125.735 28.2463C125.735 28.6654 125.384 29.1544 124.892 29.4338C124.4 29.7831 123.627 29.9926 122.924 29.9926C121.94 29.9228 120.886 29.5036 119.831 28.7353L119.761 28.6654L118.847 29.5036L118.918 29.5735C120.112 30.6213 121.448 31.1801 122.853 31.25C123.908 31.3198 124.821 31.0404 125.594 30.4816C126.438 29.9228 126.93 29.1544 126.93 28.3161C127.211 27.2684 126.789 26.4301 126.016 25.8713Z" fill="black"/>
<path d="M95.3033 17.0698H94.0382V31.1103H95.3033V17.0698Z" fill="black"/>
</g>
<defs>
<clipPath id="clip0_1539_10320">
<rect width="70" height="38" fill="white" transform="translate(57 17)"/>
</clipPath>
</defs>
</svg>
