<svg width="184" height="72" viewBox="0 0 184 72" fill="none" xmlns="http://www.w3.org/2000/svg">
<rect width="184" height="72" fill="#F9FDFE"/>
<g clip-path="url(#clip0_1539_10332)">
<path d="M144 46.5331C143.899 46.5521 143.797 46.5868 143.699 46.5868C140.263 46.5868 136.826 46.5868 133.392 46.5868C133.323 46.5868 133.253 46.5773 133.155 46.571V40.4796H134.607C134.616 40.2964 134.625 40.1606 134.625 40.028C134.625 38.1333 134.625 36.2386 134.625 34.344C134.625 34.3061 134.625 34.2682 134.625 34.2303C134.599 32.3703 133.222 31.4072 131.651 32.1651C130.85 32.5503 130.679 33.3335 130.67 34.1734C130.656 36.1565 130.664 38.1396 130.667 40.1228C130.667 40.2206 130.679 40.3185 130.685 40.4575H132.128V46.5615H121.318V40.4764H122.767V31.9788H121.312V25.8715H130.65V28.3694C130.997 28.0062 131.278 27.7157 131.552 27.422C133.502 25.3221 136.843 24.6905 139.178 26.001C140.757 26.8884 141.608 28.3883 142.053 30.2072C142.366 31.483 142.478 32.7872 142.478 34.104C142.478 36.0618 142.478 38.0196 142.478 39.9775V40.4733H144V46.5363V46.5331Z" fill="#282827"/>
<path d="M69.0547 25.1074C70.8714 25.1389 72.6504 25.3884 74.3253 26.2126C76.6656 27.362 78.1727 29.3199 78.8669 31.9914C79.567 34.685 79.5728 37.4134 78.8525 40.1007C78.002 43.2585 76.0725 45.3268 73.1914 46.2616C70.3623 47.1773 67.5042 47.1742 64.6867 46.1889C61.7043 45.1437 59.8384 42.8985 59.0979 39.5891C58.5309 37.0565 58.5396 34.4987 59.2078 31.9882C60.1364 28.502 62.3175 26.3894 65.5198 25.5684C66.6711 25.2747 67.8658 25.1832 69.0403 25C69.0461 25.0347 69.049 25.0726 69.0547 25.1074ZM67.0674 35.9608C67.0674 36.6934 67.0674 37.426 67.0674 38.1554C67.0674 38.2312 67.0732 38.307 67.079 38.3828C67.1571 39.4565 67.6575 40.1007 68.6035 40.2207C69.9544 40.388 70.9495 39.9301 70.9958 38.1933C71.0363 36.6555 71.0247 35.1145 70.9697 33.5766C70.9292 32.4966 70.397 31.9093 69.4163 31.7893C67.9815 31.6125 67.0963 32.2409 67.0674 33.9145C67.0559 34.5966 67.0674 35.2787 67.0674 35.9576V35.9608Z" fill="#282827"/>
<path d="M93.2612 31.9881H91.4156V25.8715H101.419V31.9787C101.08 31.9787 100.725 32.0071 100.374 31.9692C100.059 31.9376 99.9406 32.0639 99.8596 32.3923C98.7545 36.9901 97.6322 41.5816 96.5242 46.1793C96.4519 46.4825 96.3565 46.6025 96.0469 46.5993C92.4368 46.5867 88.8295 46.5867 85.2194 46.5993C84.959 46.5993 84.8462 46.533 84.771 46.2362C83.6255 41.6132 82.4626 36.9933 81.3171 32.3671C81.2361 32.045 81.1088 31.9502 80.8224 31.9724C80.4897 31.9976 80.1571 31.9787 79.8013 31.9787V25.8746H90.4003V31.9787H88.7977C88.7601 32.0418 88.737 32.0608 88.737 32.0797C88.7196 33.7565 88.6184 35.4459 88.951 37.0975C89.194 38.3038 89.7263 39.3648 90.5941 40.189C90.947 40.5237 91.0251 40.5237 91.3838 40.1827C92.2459 39.368 92.7723 38.3196 93.0182 37.1291C93.3625 35.4523 93.241 33.7407 93.2554 31.9881H93.2612Z" fill="#282827"/>
<path d="M41.0617 46.53V40.4954H47.3303C47.3447 40.7196 47.3592 40.9533 47.3795 41.2912C48.146 41.2091 48.8866 41.1333 49.6271 41.0449C49.7255 41.0323 49.8238 40.9691 49.9135 40.9154C50.1478 40.7702 50.3098 40.5744 50.3098 40.2554C50.3098 39.9207 50.1449 39.6744 49.8788 39.5891C49.2945 39.3965 48.7014 39.2165 48.1026 39.1123C46.6736 38.8692 45.2504 38.5976 43.9197 37.9502C42.699 37.3566 41.5911 36.5955 40.8679 35.3135C38.95 31.9157 40.3414 27.52 43.8069 26.0042C45.1665 25.4106 46.5897 25.18 48.0419 25.1358C50.1565 25.0695 52.2364 25.379 54.3134 25.7548C54.7878 25.84 55.2795 25.8021 55.7655 25.8148C56.0751 25.8211 56.3875 25.8148 56.7317 25.8148V31.9378H50.466C50.466 31.6441 50.4573 31.3567 50.466 31.0725C50.4747 30.8609 50.3908 30.7599 50.2028 30.7757C49.5837 30.8325 48.9618 30.8925 48.3427 30.9683C48.2097 30.9841 48.0506 31.0315 47.9609 31.1294C47.8076 31.2967 47.6051 31.5146 47.6051 31.7104C47.6051 31.9093 47.796 32.2125 47.9667 32.2788C48.4295 32.462 48.9184 32.5725 49.4044 32.6609C50.4978 32.8567 51.6058 32.9735 52.6905 33.2104C53.8071 33.4535 54.8601 33.9177 55.7858 34.6724C57.2119 35.8313 57.8136 37.4418 57.8917 39.3239C57.9553 40.8144 57.7326 42.2449 56.9863 43.5301C55.9941 45.2385 54.4927 46.1037 52.7368 46.53C51.0735 46.9311 49.3899 46.9689 47.7006 46.8616C45.5426 46.7226 43.3933 46.4574 41.2266 46.5616C41.1832 46.5616 41.1369 46.549 41.0559 46.5332L41.0617 46.53Z" fill="#282827"/>
<path d="M112.452 40.4608H115.535V46.5648H103.131V40.4734H104.563V31.9978H103.137V25.8685H112.466C112.466 26.5822 112.475 27.2864 112.463 27.9906C112.457 28.2558 112.524 28.4011 112.712 28.3821C113.146 27.7853 113.496 27.179 113.953 26.6927C115.023 25.5559 116.36 25.177 117.818 25.3538C118.445 25.4296 119.064 25.5969 119.681 25.7548C119.782 25.7801 119.924 25.9664 119.924 26.0801C119.938 28.1011 119.932 30.1221 119.929 32.1431C119.929 32.1778 119.912 32.2126 119.898 32.2662C119.258 32.1841 118.622 32.0452 117.983 32.0326C117.074 32.0136 116.151 32.001 115.258 32.1431C113.846 32.3673 112.952 33.2957 112.651 34.843C112.29 36.6903 112.547 38.5598 112.452 40.4608Z" fill="#282827"/>
<path d="M67.0675 35.9608C67.0675 35.2787 67.0588 34.5966 67.0675 33.9177C67.0964 32.2441 67.9816 31.6157 69.4164 31.7925C70.3999 31.9125 70.9322 32.4998 70.9698 33.5798C71.0247 35.1177 71.0363 36.6587 70.9958 38.1965C70.9495 39.9333 69.9544 40.3912 68.6035 40.2238C67.6576 40.107 67.1571 39.4628 67.079 38.386C67.0732 38.3102 67.0675 38.2344 67.0675 38.1586C67.0675 37.426 67.0675 36.6934 67.0675 35.964V35.9608Z" fill="white"/>
</g>
<defs>
<clipPath id="clip0_1539_10332">
<rect width="104" height="22" fill="white" transform="translate(40 25)"/>
</clipPath>
</defs>
</svg>
