<svg width="118" height="32" viewBox="0 0 118 32" fill="none" xmlns="http://www.w3.org/2000/svg">
<g clip-path="url(#clip0_2622_19022)">
<path d="M86.7295 2.91795C86.7295 1.70346 87.746 0.718332 88.9999 0.718332H115.183C116.436 0.718332 117.453 1.70346 117.453 2.91795V29.2252C117.453 30.4401 116.436 31.4248 115.183 31.4248H88.9999C87.746 31.4248 86.7295 30.4401 86.7295 29.2252V2.91795Z" fill="#006699"/>
<path fill-rule="evenodd" clip-rule="evenodd" d="M0.724121 26.4395H13.5459V22.2589H5.36418V6.30889H0.724121V26.4395Z" fill="black"/>
<path fill-rule="evenodd" clip-rule="evenodd" d="M20.0374 26.4395V12.5742H15.3969V26.4395H20.0374ZM17.7172 10.681C19.3354 10.681 20.3426 9.61632 20.3426 8.28489C20.3125 6.92475 19.3354 5.88997 17.748 5.88997C16.1604 5.88997 15.1226 6.92475 15.1226 8.28489C15.1226 9.61632 16.1296 10.681 17.6869 10.681H17.7172Z" fill="black"/>
<path fill-rule="evenodd" clip-rule="evenodd" d="M22.1919 26.4395H26.8324V18.6963C26.8324 18.2819 26.8626 17.8679 26.9853 17.5716C27.3206 16.7441 28.0841 15.8865 29.3661 15.8865C31.0454 15.8865 31.7172 17.1585 31.7172 19.0212V26.4395H36.3572V18.4891C36.3572 14.2301 34.0676 12.2484 31.0145 12.2484C28.5113 12.2484 27.4122 13.6381 26.8015 14.5846H26.8325V12.5742H22.192C22.2529 13.8752 22.1919 26.4395 22.1919 26.4395Z" fill="black"/>
<path fill-rule="evenodd" clip-rule="evenodd" d="M42.9039 6.30889H38.2632V26.4395H42.9039V21.9442L44.0636 20.4942L47.6966 26.4395H53.4053L47.2999 17.8326L52.6423 11.9768H47.0558C47.0558 11.9768 43.2397 17.2159 42.9039 17.8371V6.30889Z" fill="black"/>
<path fill-rule="evenodd" clip-rule="evenodd" d="M65.8152 20.6559C65.8762 20.2997 65.968 19.6166 65.968 18.8444C65.968 15.26 64.1359 11.6214 59.3126 11.6214C54.1531 11.6214 51.772 15.674 51.772 19.3495C51.772 23.8956 54.6722 26.7349 59.7399 26.7349C61.7549 26.7349 63.6169 26.4394 65.1435 25.8183L64.5327 22.7746C63.2812 23.187 61.999 23.393 60.4116 23.393C58.2441 23.393 56.3515 22.5096 56.1986 20.6263L65.8152 20.655V20.6559ZM56.1684 17.538C56.2904 16.3547 57.0842 14.6093 59.0686 14.6093C61.1745 14.6093 61.6633 16.4733 61.6633 17.538H56.1684Z" fill="black"/>
<path fill-rule="evenodd" clip-rule="evenodd" d="M77.4217 6.30871V13.2773H77.3608C76.689 12.302 75.2844 11.6512 73.4227 11.6512C69.8506 11.6512 66.7063 14.4905 66.7365 19.3407C66.7365 23.8367 69.5758 26.7646 73.1171 26.7646C75.0403 26.7646 76.872 25.9363 77.7878 24.339H77.8796L78.0628 26.4393H82.1844C82.1233 25.4632 82.0618 23.7773 82.0618 22.1213V6.30871H77.4217ZM77.4217 20.0214C77.4217 20.3759 77.3912 20.7312 77.3299 21.0266C77.0556 22.2985 75.9562 23.1856 74.6133 23.1856C72.6899 23.1856 71.4382 21.6478 71.4382 19.2225C71.4382 16.9453 72.5069 15.1117 74.6436 15.1117C76.0782 15.1117 77.0858 16.0874 77.3608 17.2998C77.4217 17.5665 77.4217 17.8624 77.4217 18.1282V20.0214Z" fill="black"/>
<path fill-rule="evenodd" clip-rule="evenodd" d="M96.0428 26.4229V12.5572H91.4023V26.4229H96.0428ZM93.7225 10.664C95.3407 10.664 96.3479 9.59931 96.3479 8.2687C96.3178 6.90815 95.3407 5.87296 93.7532 5.87296C92.1658 5.87296 91.1279 6.90815 91.1279 8.2687C91.1279 9.59931 92.1349 10.664 93.6922 10.664H93.7225Z" fill="white"/>
<path fill-rule="evenodd" clip-rule="evenodd" d="M98.6104 26.4229H103.251V18.6797C103.251 18.2653 103.281 17.8513 103.404 17.555C103.739 16.727 104.503 15.8695 105.784 15.8695C107.464 15.8695 108.135 17.141 108.135 19.005V26.4229H112.775V18.4725C112.775 14.2135 110.486 12.2318 107.433 12.2318C104.93 12.2318 103.831 13.6215 103.22 14.568H103.251V12.5572H98.6105C98.6714 13.8582 98.6104 26.4229 98.6104 26.4229Z" fill="white"/>
</g>
<defs>
<clipPath id="clip0_2622_19022">
<rect width="118" height="32" fill="white"/>
</clipPath>
</defs>
</svg>
