<svg width="114" height="30" viewBox="0 0 114 30" fill="none" xmlns="http://www.w3.org/2000/svg">
<g id="Group">
<path id="Vector" d="M36.5122 23.2209L37.9315 19.9327C39.4652 21.0744 41.5026 21.6681 43.517 21.6681C45.005 21.6681 45.9435 21.0973 45.9435 20.2296C45.9206 17.8091 37.0387 19.7044 36.97 13.6303C36.9471 10.5477 39.6941 8.17286 43.5857 8.17286C45.8977 8.17286 48.2098 8.74373 49.858 10.0453L48.5303 13.402C47.0194 12.4429 45.1423 11.7579 43.3568 11.7579C42.1435 11.7579 41.3423 12.3288 41.3423 13.0595C41.3652 15.4343 50.3158 14.1327 50.4074 19.9327C50.4074 23.0839 47.7291 25.2988 43.8833 25.2988C41.0676 25.2988 38.4809 24.6366 36.5122 23.2209ZM90.9712 18.7453C90.2616 19.9784 88.9339 20.8233 87.4002 20.8233C85.1339 20.8233 83.3026 18.9965 83.3026 16.7359C83.3026 14.4752 85.1339 12.6485 87.4002 12.6485C88.9339 12.6485 90.2616 13.4933 90.9712 14.7264L94.8857 12.5571C93.4206 9.95397 90.605 8.17286 87.4002 8.17286C82.6616 8.17286 78.8158 12.0091 78.8158 16.7359C78.8158 21.4626 82.6616 25.2988 87.4002 25.2988C90.6279 25.2988 93.4206 23.5406 94.8857 20.9146L90.9712 18.7453ZM52.3761 1.07129H57.2749V24.9792H52.3761V1.07129ZM96.8086 1.07129V24.9792H101.707V17.8091L107.522 24.9792H113.794L106.4 16.4618L113.245 8.51538H107.247L101.707 15.1146V1.07129H96.8086ZM71.8339 18.791C71.1242 19.9555 69.6592 20.8233 68.011 20.8233C65.7447 20.8233 63.9134 18.9965 63.9134 16.7359C63.9134 14.4752 65.7447 12.6485 68.011 12.6485C69.6592 12.6485 71.1242 13.5618 71.8339 14.7492V18.791ZM71.8339 8.51538V10.4563C71.0327 9.10908 69.0411 8.17286 66.958 8.17286C62.6544 8.17286 59.2664 11.9634 59.2664 16.713C59.2664 21.4626 62.6544 25.2988 66.958 25.2988C69.0411 25.2988 71.0327 24.3626 71.8339 23.0154V24.9563H76.7327V8.51538H71.8339Z" fill="black"/>
<path id="Vector_2" d="M6.22648 18.7681C6.22648 20.435 4.87588 21.7823 3.20479 21.7823C1.53371 21.7823 0.183105 20.435 0.183105 18.7681C0.183105 17.1011 1.53371 15.7539 3.20479 15.7539H6.22648V18.7681ZM7.73732 18.7681C7.73732 17.1011 9.08792 15.7539 10.759 15.7539C12.4301 15.7539 13.7807 17.1011 13.7807 18.7681V26.3035C13.7807 27.9704 12.4301 29.3177 10.759 29.3177C9.08792 29.3177 7.73732 27.9704 7.73732 26.3035V18.7681Z" fill="#E01E5A"/>
<path id="Vector_3" d="M10.759 6.66555C9.08787 6.66555 7.73726 5.31831 7.73726 3.65138C7.73726 1.98445 9.08787 0.637207 10.759 0.637207C12.43 0.637207 13.7806 1.98445 13.7806 3.65138V6.66555H10.759ZM10.759 8.19548C12.43 8.19548 13.7806 9.54272 13.7806 11.2096C13.7806 12.8766 12.43 14.2238 10.759 14.2238H3.18184C1.51076 14.2238 0.160156 12.8766 0.160156 11.2096C0.160156 9.54272 1.51076 8.19548 3.18184 8.19548H10.759Z" fill="#36C5F0"/>
<path id="Vector_4" d="M22.8687 11.2096C22.8687 9.54272 24.2193 8.19548 25.8904 8.19548C27.5614 8.19548 28.912 9.54272 28.912 11.2096C28.912 12.8766 27.5614 14.2238 25.8904 14.2238H22.8687V11.2096ZM21.3578 11.2096C21.3578 12.8766 20.0072 14.2238 18.3361 14.2238C16.6651 14.2238 15.3145 12.8766 15.3145 11.2096V3.65138C15.3145 1.98445 16.6651 0.637207 18.3361 0.637207C20.0072 0.637207 21.3578 1.98445 21.3578 3.65138V11.2096Z" fill="#2EB67D"/>
<path id="Vector_5" d="M18.3361 23.2893C20.0072 23.2893 21.3578 24.6366 21.3578 26.3035C21.3578 27.9704 20.0072 29.3177 18.3361 29.3177C16.6651 29.3177 15.3145 27.9704 15.3145 26.3035V23.2893H18.3361ZM18.3361 21.7823C16.6651 21.7823 15.3145 20.435 15.3145 18.7681C15.3145 17.1011 16.6651 15.7539 18.3361 15.7539H25.9132C27.5843 15.7539 28.9349 17.1011 28.9349 18.7681C28.9349 20.435 27.5843 21.7823 25.9132 21.7823H18.3361Z" fill="#ECB22E"/>
</g>
</svg>
