<svg width="70" height="24" viewBox="0 0 70 24" fill="none" xmlns="http://www.w3.org/2000/svg">
<g clip-path="url(#clip0_2622_19026)">
<path d="M4.02733 17.1405C4.32315 17.9158 4.73269 18.5787 5.25605 19.1292C5.7794 19.6798 6.39942 20.1012 7.1161 20.3933C7.83286 20.6855 8.61216 20.8315 9.45405 20.8315C10.2732 20.8315 11.0411 20.6798 11.7579 20.3764C12.4746 20.073 13.1003 19.6461 13.635 19.0955C14.1697 18.5449 14.585 17.8877 14.8808 17.1236C15.1766 16.3596 15.3245 15.5057 15.3245 14.5618V0H18.9081V23.5955H15.3586V21.4045C14.5622 22.2359 13.6236 22.8764 12.5428 23.3259C11.462 23.7753 10.296 24 9.04451 24C7.77026 24 6.58142 23.7809 5.47785 23.3427C4.37435 22.9045 3.41864 22.2809 2.61096 21.4719C1.80327 20.6629 1.16611 19.6911 0.699693 18.5562C0.233206 17.4214 0 16.1574 0 14.764V0H3.58365V14.5618C3.58365 15.5057 3.73152 16.3652 4.02733 17.1405Z" fill="#010202"/>
<path d="M25.0853 0V8.59549C25.8817 7.80898 26.8032 7.18545 27.8499 6.72473C28.8965 6.26401 30.0342 6.03369 31.2628 6.03369C32.5371 6.03369 33.7315 6.26961 34.8465 6.74151C35.9614 7.21342 36.9284 7.85389 37.7475 8.66292C38.5667 9.47195 39.2152 10.4269 39.693 11.5281C40.1708 12.6292 40.4097 13.7978 40.4097 15.0337C40.4097 16.2696 40.1708 17.4326 39.693 18.5224C39.2152 19.6123 38.5667 20.5618 37.7475 21.3707C36.9284 22.1797 35.9614 22.8202 34.8465 23.2921C33.7315 23.764 32.537 23.9999 31.2628 23.9999C30.0341 23.9999 28.8908 23.7696 27.8328 23.3089C26.7748 22.8482 25.8475 22.2246 25.0512 21.4381V23.5954H21.6382V0H25.0853ZM25.4778 17.3595C25.7849 18.0787 26.2116 18.7079 26.7577 19.2472C27.3038 19.7866 27.9409 20.2136 28.669 20.5282C29.3971 20.8428 30.1821 21.0001 31.024 21.0001C31.8431 21.0001 32.6167 20.8428 33.3448 20.5282C34.0729 20.2136 34.7042 19.7866 35.239 19.2472C35.7737 18.708 36.2003 18.0787 36.5189 17.3595C36.8374 16.6405 36.9967 15.8652 36.9967 15.0337C36.9967 14.2023 36.8374 13.4213 36.5189 12.691C36.2003 11.9607 35.7737 11.3259 35.239 10.7865C34.7043 10.2473 34.0729 9.82586 33.3448 9.52252C32.6166 9.21918 31.8431 9.0674 31.024 9.0674C30.2049 9.0674 29.4313 9.2191 28.7032 9.52252C27.9751 9.82593 27.338 10.2473 26.7918 10.7865C26.2458 11.3259 25.8135 11.9607 25.4949 12.691C25.1764 13.4213 25.0171 14.2023 25.0171 15.0337C25.017 15.8652 25.1706 16.6405 25.4778 17.3595Z" fill="#010202"/>
<path d="M42.3548 11.5617C42.8098 10.483 43.4357 9.53361 44.232 8.71339C45.0282 7.89317 45.9726 7.24711 47.0648 6.7752C48.157 6.3033 49.3401 6.06738 50.6143 6.06738C51.8658 6.06738 53.0262 6.29211 54.0956 6.74149C55.165 7.19094 56.0865 7.81456 56.8601 8.61233C57.6338 9.41002 58.2368 10.3539 58.669 11.4438C59.1013 12.5337 59.3175 13.7191 59.3175 15V16.1124H45.1535C45.2673 16.809 45.4949 17.4551 45.8362 18.0505C46.1775 18.646 46.6041 19.1629 47.116 19.6011C47.628 20.0393 48.2082 20.382 48.8567 20.6291C49.5052 20.8763 50.1934 21 50.9215 21C52.9921 21 54.6645 20.1572 55.9387 18.4718L58.4302 20.292C57.5656 21.4381 56.4962 22.337 55.222 22.9887C53.9478 23.6403 52.5143 23.9662 50.9216 23.9662C49.6246 23.9662 48.4131 23.7414 47.2868 23.292C46.1604 22.8426 45.1821 22.2133 44.3516 21.4043C43.5211 20.5953 42.8669 19.6459 42.3891 18.556C41.9113 17.4662 41.6724 16.2807 41.6724 14.9999C41.6722 13.7864 41.8998 12.6403 42.3548 11.5617ZM47.1501 10.2302C46.1831 11.0279 45.5403 12.0897 45.2218 13.4156H55.8363C55.5405 12.0897 54.9091 11.0279 53.942 10.2302C52.975 9.43247 51.843 9.03359 50.5461 9.03359C49.2491 9.03359 48.1172 9.43247 47.1501 10.2302Z" fill="#010202"/>
<path d="M65.7679 10.6179C65.0398 11.4044 64.6757 12.4718 64.6757 13.8202V23.5955H61.2285V6.40446H64.6415V8.52806C65.0738 7.83143 65.637 7.28084 66.331 6.87636C67.0249 6.47181 67.8497 6.26953 68.8054 6.26953H69.9999V9.43809H68.5665C67.4289 9.43816 66.496 9.83138 65.7679 10.6179Z" fill="#010202"/>
</g>
<defs>
<clipPath id="clip0_2622_19026">
<rect width="70" height="24" fill="white"/>
</clipPath>
</defs>
</svg>
