<svg width="126" height="30" viewBox="0 0 126 30" fill="none" xmlns="http://www.w3.org/2000/svg">
<g id="Group">
<path id="Vector" d="M73.0802 15.9646C73.0802 13.0019 71.8031 10.3843 67.4837 10.3843C65.2677 10.3843 63.5073 11.0115 62.5528 11.5604L63.2524 13.9373C64.1311 13.3899 65.5333 12.939 66.8567 12.939C69.0435 12.936 69.4017 14.1643 69.4017 14.954V15.1442C64.6283 15.1365 61.6108 16.7742 61.6108 20.1095C61.6108 22.1475 63.1428 24.0582 65.8206 24.0582C67.4544 24.0582 68.835 23.4034 69.6596 22.3699H69.7399C69.7399 22.3699 70.2836 24.6287 73.2902 23.7653C73.1374 22.8192 73.0802 21.8224 73.0802 20.611V15.9646ZM69.5192 19.0928C69.5192 19.3321 69.4991 19.5805 69.428 19.7936C69.1531 20.706 68.205 21.4697 67.0251 21.4697C66.0291 21.4697 65.2476 20.91 65.2476 19.7369C65.2476 17.9427 67.2428 17.449 69.5192 17.4612" fill="#0071CE"/>
<path id="Vector_2" d="M0 6.35352C0 6.35352 3.11788 19.02 3.61362 21.0717C4.19735 23.4701 5.24283 24.3564 8.26038 23.766L10.2093 15.9116C10.7019 13.9657 11.037 12.5702 11.3551 10.5874H11.4091C11.63 12.5901 11.9481 13.9657 12.3512 15.9178C12.3512 15.9178 13.1464 19.4861 13.5588 21.3554C13.9603 23.2247 15.0907 24.404 18.0511 23.766L22.6902 6.35352H18.9452L17.3531 13.8859C16.9315 16.068 16.5485 17.7871 16.2505 19.7867H16.1964C15.9277 17.8085 15.5864 16.16 15.1479 14.0224L13.4986 6.35352H9.59155L7.83104 13.8261C7.32913 16.1079 6.85969 17.9373 6.56472 19.8741H6.51377C6.20956 18.0569 5.79724 15.7429 5.36018 13.547C5.36018 13.547 4.31469 8.19675 3.94564 6.35352" fill="#0071CE"/>
<path id="Vector_3" d="M33.1268 15.9646C33.1268 13.0019 31.8465 10.3843 27.5271 10.3843C25.3173 10.3843 23.5537 11.0115 22.5994 11.5604L23.2989 13.9373C24.1746 13.3899 25.5752 12.939 26.9033 12.939C29.09 12.936 29.4482 14.1643 29.4482 14.954V15.1442C24.6749 15.1365 21.6543 16.7742 21.6543 20.1095C21.6543 22.1475 23.1924 24.0582 25.8578 24.0582C27.5071 24.0582 28.8754 23.4034 29.7 22.3699H29.7833C29.7833 22.3699 30.33 24.6287 33.3337 23.7653C33.1793 22.8192 33.1268 21.8224 33.1268 20.611V15.9646ZM29.5626 19.0928C29.5626 19.3321 29.5425 19.5805 29.4745 19.7936C29.1965 20.706 28.2484 21.4697 27.0655 21.4697C26.0755 21.4697 25.2911 20.91 25.2911 19.7369C25.2911 17.9427 27.2862 17.449 29.5626 17.4612" fill="#0071CE"/>
<path id="Vector_4" d="M35.0698 6.35352V23.7599H38.634V20.0689V6.35352H35.0698Z" fill="#0071CE"/>
<path id="Vector_5" d="M84.019 6.35352V19.1963C84.019 20.969 84.3541 22.205 85.0753 22.9625C85.7085 23.6265 86.7446 24.0589 87.9785 24.0589C89.038 24.0589 90.0741 23.8565 90.5637 23.6802L90.5204 20.9153C90.1544 20.9997 89.7359 21.0717 89.1614 21.0717C87.9446 21.0717 87.5431 20.3065 87.5431 18.7148V13.7985H90.6471V10.4724H87.5431V6.35352" fill="#0071CE"/>
<path id="Vector_6" d="M74.8066 10.6864V23.7653H78.4913V17.0671C78.4913 16.7068 78.5144 16.3955 78.5716 16.1072C78.8464 14.6949 79.9259 13.8008 81.481 13.8008C81.9149 13.8008 82.2099 13.8484 82.5373 13.899V10.4702C82.2624 10.4211 82.0755 10.395 81.7374 10.395C80.3583 10.395 78.7954 11.2645 78.136 13.1583H78.045V10.6864" fill="#0071CE"/>
<path id="Vector_7" d="M40.7036 10.6864V23.7653H44.294V16.0888C44.294 15.7284 44.3342 15.3604 44.4623 15.0276C44.7542 14.2502 45.4785 13.35 46.6413 13.35C48.0868 13.35 48.7694 14.5615 48.7694 16.3096V23.7653H52.3506V15.9968C52.3506 15.6579 52.3985 15.2423 52.4988 14.9418C52.7861 14.06 53.5705 13.35 54.6547 13.35C56.1155 13.35 56.8228 14.5354 56.8228 16.5964V23.7653H60.4009V16.0535C60.4009 12.0021 58.3254 10.395 55.9688 10.395C54.9326 10.395 54.108 10.648 53.3667 11.1019C52.7397 11.4838 52.19 12.022 51.6973 12.7259H51.6433C51.0765 11.3182 49.7454 10.395 48.0064 10.395C45.7765 10.395 44.7635 11.5129 44.1674 12.4575H44.1133V10.6864" fill="#0071CE"/>
<path id="Vector_8" d="M109.93 10.0994C110.635 10.0994 111.228 9.73446 111.305 9.26521L112.003 1.41386C112.003 0.636391 111.081 0 109.93 0C108.774 0 107.858 0.636391 107.858 1.41386L108.562 9.26521C108.636 9.73446 109.226 10.0994 109.93 10.0994Z" fill="#FFC220"/>
<path id="Vector_9" d="M105.648 12.5562C105.997 11.9428 105.977 11.262 105.6 10.9584L99.0829 6.43309C98.405 6.04053 97.3903 6.50823 96.8097 7.49885C96.2306 8.48794 96.348 9.59817 97.012 9.98307L104.227 13.3046C104.689 13.4763 105.292 13.1573 105.648 12.5501" fill="#FFC220"/>
<path id="Vector_10" d="M114.212 12.5497C114.581 13.157 115.185 13.476 115.634 13.3134L122.849 9.98271C123.519 9.59015 123.62 8.49065 123.053 7.50156C122.474 6.51094 121.453 6.04631 120.777 6.4312L114.258 10.9519C113.897 11.2601 113.871 11.944 114.22 12.5559" fill="#FFC220"/>
<path id="Vector_11" d="M109.93 19.9067C110.635 19.9067 111.228 20.2717 111.305 20.7409L112.003 28.5923C112.003 29.3698 111.081 30 109.93 30C108.774 30 107.858 29.3698 107.858 28.5923L108.562 20.7409C108.636 20.2717 109.226 19.9067 109.93 19.9067Z" fill="#FFC220"/>
<path id="Vector_12" d="M114.212 17.4567C114.581 16.8479 115.185 16.5228 115.634 16.6991L122.849 20.0237C123.519 20.4086 123.62 21.5173 123.053 22.5079C122.474 23.4909 121.453 23.9586 120.777 23.5737L114.258 19.0469C113.897 18.7417 113.871 18.0609 114.22 17.4567" fill="#FFC220"/>
<path id="Vector_13" d="M105.648 17.4501C105.997 18.062 105.977 18.7413 105.6 19.048L99.0829 23.5671C98.405 23.9597 97.3903 23.4905 96.8097 22.5075C96.2306 21.5184 96.348 20.4082 97.012 20.0233L104.227 16.6987C104.689 16.5239 105.292 16.846 105.648 17.4501Z" fill="#FFC220"/>
<path id="Vector_14" d="M124.96 22.8849H125.05C125.172 22.8849 125.221 22.9232 125.235 23.0198C125.262 23.1272 125.276 23.1992 125.302 23.2299H125.533C125.513 23.2069 125.487 23.1486 125.473 23.0137C125.447 22.8971 125.387 22.8312 125.302 22.8082V22.7867C125.419 22.7607 125.487 22.6825 125.487 22.5859C125.487 22.4984 125.447 22.4356 125.407 22.3957C125.33 22.3589 125.255 22.3298 125.092 22.3298C124.947 22.3298 124.84 22.342 124.755 22.362V23.2299H124.96V22.8849ZM124.967 22.4892L125.072 22.4754C125.195 22.4754 125.262 22.5322 125.262 22.6119C125.262 22.7009 125.172 22.7423 125.058 22.7423H124.967V22.4892ZM125.098 21.9004C124.591 21.9004 124.19 22.293 124.19 22.7745C124.19 23.2682 124.591 23.6608 125.098 23.6608C125.611 23.6608 126 23.2682 126 22.7745C126 22.293 125.611 21.9004 125.098 21.9004ZM125.098 22.0767C125.487 22.0767 125.776 22.3896 125.776 22.7745C125.776 23.1624 125.487 23.4845 125.098 23.4783C124.709 23.4783 124.414 23.1624 124.414 22.7745C124.414 22.3896 124.709 22.0767 125.092 22.0767" fill="#FFC220"/>
</g>
</svg>
