<svg width="184" height="72" viewBox="0 0 184 72" fill="none" xmlns="http://www.w3.org/2000/svg">
<rect width="184" height="72" fill="#F9FDFE"/>
<g clip-path="url(#clip0_1539_10265)">
<path d="M17.9999 36C17.9999 27.7157 24.831 21 33.2576 21C41.6843 21 48.5154 27.7157 48.5154 36C48.5154 44.2843 41.6843 51 33.2576 51C24.831 51 17.9999 44.2843 17.9999 36Z" fill="#66C61C"/>
<path d="M37.4527 31.4261H28.9039C26.0711 31.4261 23.7747 33.6838 23.7747 36.4688V36.4688C23.7747 39.2537 26.0711 41.5114 28.9039 41.5114H37.4527C40.2855 41.5114 42.582 39.2537 42.582 36.4688V36.4688C42.582 33.6838 40.2855 31.4261 37.4527 31.4261Z" fill="#FAFEF5"/>
<path d="M37.4526 40.671C39.8133 40.671 41.727 38.7896 41.727 36.4688C41.727 34.148 39.8133 32.2666 37.4526 32.2666C35.0919 32.2666 33.1782 34.148 33.1782 36.4688C33.1782 38.7896 35.0919 40.671 37.4526 40.671Z" fill="#66C61C"/>
<path d="M57.8396 28.5437V43.4565H63.7019C66.5473 43.4565 68.3873 41.7107 68.3873 39.2918C68.3873 37.4409 67.1892 36.1158 65.713 35.7582C66.9752 35.3375 67.9166 34.0966 67.9166 32.5611C67.9166 30.2474 66.2478 28.5437 63.2953 28.5437H57.8396ZM60.7493 34.7065V30.9836H62.8246C64.2581 30.9836 65.0069 31.6987 65.0069 32.8345C65.0069 33.9703 64.1939 34.7065 62.846 34.7065H60.7493ZM60.7493 41.0376V37.1044H63.1884C64.6646 37.1044 65.4348 37.9246 65.4348 39.1025C65.4348 40.3015 64.579 41.0376 63.1456 41.0376H60.7493Z" fill="black"/>
<path d="M72.1767 37.1043C72.2409 36.1578 73.0539 35.064 74.5302 35.064C76.1562 35.064 76.8408 36.0736 76.8836 37.1043H72.1767ZM77.1617 39.7965C76.8194 40.722 76.092 41.374 74.7654 41.374C73.3534 41.374 72.1767 40.3854 72.1125 39.0183H79.6435C79.6435 38.9762 79.6863 38.5555 79.6863 38.1559C79.6863 34.8326 77.7394 32.7924 74.4874 32.7924C71.7916 32.7924 69.3098 34.9378 69.3098 38.2401C69.3098 41.7316 71.8558 43.7718 74.7441 43.7718C77.3329 43.7718 79.0017 42.2785 79.5365 40.4907L77.1617 39.7965Z" fill="black"/>
<path d="M84.7268 30.016H82.1594V31.4673C82.1594 32.3928 81.6459 33.1079 80.5334 33.1079H79.9985V35.5898H81.9027V40.4066C81.9027 42.4047 83.1864 43.6037 85.2402 43.6037C86.0747 43.6037 86.5882 43.4564 86.8449 43.3512V41.0375C86.6951 41.0796 86.31 41.1217 85.9677 41.1217C85.1547 41.1217 84.7268 40.8272 84.7268 39.9228V35.5898H86.8449V33.1079H84.7268V30.016Z" fill="black"/>
<path d="M91.9778 30.016H89.4104V31.4673C89.4104 32.3928 88.897 33.1079 87.7844 33.1079H87.2495V35.5898H89.1537V40.4066C89.1537 42.4047 90.4374 43.6037 92.4913 43.6037C93.3257 43.6037 93.8392 43.4564 94.0959 43.3512V41.0375C93.9461 41.0796 93.561 41.1217 93.2187 41.1217C92.4057 41.1217 91.9778 40.8272 91.9778 39.9228V35.5898H94.0959V33.1079H91.9778V30.016Z" fill="black"/>
<path d="M97.6689 37.1043C97.733 36.1578 98.5463 35.064 100.022 35.064C101.649 35.064 102.333 36.0736 102.376 37.1043H97.6689ZM102.654 39.7965C102.312 40.722 101.585 41.374 100.258 41.374C98.8461 41.374 97.6689 40.3854 97.6049 39.0183H105.136C105.136 38.9762 105.179 38.5555 105.179 38.1559C105.179 34.8326 103.232 32.7924 99.9797 32.7924C97.2844 32.7924 94.802 34.9378 94.802 38.2401C94.802 41.7316 97.3485 43.7718 100.237 43.7718C102.825 43.7718 104.494 42.2785 105.029 40.4907L102.654 39.7965Z" fill="black"/>
<path d="M113.041 33.0659C112.827 33.0448 112.613 33.0238 112.378 33.0238C111.48 33.0238 110.024 33.2762 109.382 34.6434V33.108H106.622V43.4565H109.468V38.7239C109.468 36.4944 110.73 35.8002 112.185 35.8002C112.442 35.8002 112.72 35.8212 113.041 35.8844V33.0659Z" fill="black"/>
<path d="M116.907 43.4564V37.3988C116.907 36.263 117.634 35.3585 118.875 35.3585C120.159 35.3585 120.736 36.1998 120.736 37.3146V43.4564H123.56V37.3988C123.56 36.284 124.288 35.3585 125.507 35.3585C126.813 35.3585 127.369 36.1998 127.369 37.3146V43.4564H130.129V36.7467C130.129 33.9703 128.268 32.8135 126.321 32.8135C124.93 32.8135 123.818 33.2762 122.983 34.5382C122.448 33.4234 121.292 32.8135 119.859 32.8135C118.704 32.8135 117.356 33.3603 116.778 34.37V33.1079H114.061V43.4564H116.907Z" fill="black"/>
<path d="M136.951 41.2268C135.56 41.2268 134.276 40.2172 134.276 38.2821C134.276 36.326 135.56 35.3374 136.951 35.3374C138.341 35.3374 139.625 36.326 139.625 38.2821C139.625 40.2382 138.341 41.2268 136.951 41.2268ZM136.951 32.7924C133.806 32.7924 131.431 35.085 131.431 38.2821C131.431 41.4582 133.806 43.7718 136.951 43.7718C140.096 43.7718 142.47 41.4582 142.47 38.2821C142.47 35.085 140.096 32.7924 136.951 32.7924Z" fill="black"/>
<path d="M154.062 28.2281H151.26V34.1386C150.96 33.5917 150.104 32.8555 148.286 32.8555C145.311 32.8555 143.236 35.2323 143.236 38.2611C143.236 41.3951 145.375 43.7088 148.371 43.7088C149.783 43.7088 150.853 43.0778 151.324 42.2575C151.324 42.7412 151.388 43.2461 151.43 43.4564H154.148C154.105 43.0358 154.062 42.2786 154.062 41.5844V28.2281ZM146.103 38.2611C146.103 36.4102 147.258 35.3585 148.713 35.3585C150.168 35.3585 151.302 36.3891 151.302 38.2401C151.302 40.1121 150.168 41.2058 148.713 41.2058C147.216 41.2058 146.103 40.1121 146.103 38.2611Z" fill="black"/>
<path d="M158.369 37.1043C158.433 36.1578 159.246 35.064 160.722 35.064C162.348 35.064 163.033 36.0736 163.076 37.1043H158.369ZM163.354 39.7965C163.012 40.722 162.284 41.374 160.958 41.374C159.546 41.374 158.369 40.3854 158.305 39.0183H165.836C165.836 38.9762 165.879 38.5555 165.879 38.1559C165.879 34.8326 163.932 32.7924 160.68 32.7924C157.984 32.7924 155.502 34.9378 155.502 38.2401C155.502 41.7316 158.048 43.7718 160.937 43.7718C163.525 43.7718 165.194 42.2785 165.729 40.4907L163.354 39.7965Z" fill="black"/>
</g>
<defs>
<clipPath id="clip0_1539_10265">
<rect width="148" height="30" fill="white" transform="translate(18 21)"/>
</clipPath>
</defs>
</svg>
