<svg width="184" height="72" viewBox="0 0 184 72" fill="none" xmlns="http://www.w3.org/2000/svg">
<rect width="184" height="72" fill="#F9FDFE"/>
<g clip-path="url(#clip0_3700_2630)">
<path d="M48.1297 38.1108H39.9055V46.8429H36V25.297H39.9055V34.3237H48.1297V25.297H52.0343V46.8429H48.1297V38.1108Z" fill="#213343"/>
<path d="M64.5306 39.8788C64.5306 41.6733 63.0803 43.1334 61.3003 43.1334C59.5198 43.1334 58.0705 41.6733 58.0705 39.8788V30.6505H54.3723V39.8788C54.3723 43.7289 57.4803 46.8607 61.3003 46.8607C65.1195 46.8607 68.2275 43.7289 68.2275 39.8788V30.6505H64.5306V39.8788Z" fill="#213343"/>
<path d="M91.9722 31.6007C91.9722 29.7086 93.2147 29.1086 94.575 29.1086C95.6703 29.1086 97.1197 29.9489 98.0654 30.9698L100.491 28.0884C99.2787 26.438 96.8237 25.297 94.812 25.297C90.7881 25.297 87.8889 27.6684 87.8889 31.6007C87.8889 38.8942 96.7349 36.5823 96.7349 40.6654C96.7349 41.9245 95.5224 43.0361 94.1324 43.0361C91.9425 43.0361 91.2321 41.9556 90.2267 40.8148L87.5341 43.6357C89.2509 45.767 91.3803 46.8482 93.9247 46.8482C97.741 46.8482 100.818 44.4468 100.818 40.6943C100.818 32.5905 91.9722 35.1121 91.9722 31.6007Z" fill="#213343"/>
<path d="M146.697 43.401C144.509 43.401 143.888 42.4473 143.888 40.9856V34.5156H147.289V31.2359H143.888V26.9117L140.132 28.6112V41.7909C140.132 45.1607 142.438 46.8607 145.603 46.8607C146.076 46.8607 146.727 46.8298 147.083 46.7414L148 43.3424C147.586 43.3712 147.113 43.401 146.697 43.401Z" fill="#213343"/>
<path d="M78.627 30.7585C76.7926 30.7585 75.5122 31.2952 74.2757 32.5185V25.4257H70.5657V38.5708C70.5657 43.4909 74.0949 46.8607 78.0605 46.8607C82.4686 46.8607 86.3309 43.431 86.3309 38.8099C86.3309 34.2473 82.7694 30.7585 78.627 30.7585ZM78.604 43.0973C76.2798 43.0973 74.396 41.1985 74.396 38.8561C74.396 36.5138 76.2798 34.6149 78.604 34.6149C80.9278 34.6149 82.8118 36.5138 82.8118 38.8561C82.8118 41.1985 80.9278 43.0973 78.604 43.0973Z" fill="#213343"/>
<path d="M118.905 38.6157C118.905 33.9946 115.043 30.5649 110.634 30.5649C106.669 30.5649 103.14 33.9347 103.14 38.8548V52H106.85V44.9071C108.086 46.1305 109.367 46.6671 111.201 46.6671C115.343 46.6671 118.905 43.1783 118.905 38.6157ZM115.386 38.5695C115.386 40.9118 113.502 42.8107 111.178 42.8107C108.854 42.8107 106.97 40.9118 106.97 38.5695C106.97 36.2272 108.854 34.3283 111.178 34.3283C113.502 34.3283 115.386 36.2272 115.386 38.5695Z" fill="#213343"/>
<path d="M130.893 30.3838V26.6277C131.866 26.1645 132.547 25.1727 132.547 24.0215V23.9347C132.547 22.3462 131.258 21.0465 129.682 21.0465H129.596C128.02 21.0465 126.73 22.3462 126.73 23.9347V24.0215C126.73 25.1727 127.412 26.1647 128.384 26.6278V30.3839C126.936 30.6094 125.613 31.2115 124.521 32.0975L114.289 24.075C114.356 23.8137 114.403 23.5446 114.404 23.2621C114.406 21.4628 112.961 20.0023 111.176 20C109.39 19.9978 107.941 21.4545 107.939 23.2538C107.937 25.0531 109.382 26.5136 111.167 26.5159C111.749 26.5166 112.288 26.35 112.76 26.0795L122.825 33.9714C121.969 35.2737 121.467 36.8337 121.467 38.5129C121.467 40.2711 122.018 41.8972 122.95 43.2348L119.889 46.3201C119.647 46.247 119.396 46.1957 119.13 46.1957C117.663 46.1957 116.474 47.3944 116.474 48.8729C116.474 50.3515 117.663 51.5501 119.13 51.5501C120.597 51.5501 121.786 50.3515 121.786 48.8729C121.786 48.6052 121.735 48.352 121.663 48.1081L124.69 45.0563C126.065 46.1138 127.776 46.749 129.639 46.749C134.152 46.749 137.81 43.0616 137.81 38.5129C137.81 34.3953 134.809 30.9934 130.893 30.3838ZM129.639 42.7354C127.325 42.7354 125.449 40.845 125.449 38.5129C125.449 36.1809 127.325 34.2904 129.639 34.2904C131.952 34.2904 133.828 36.1809 133.828 38.5129C133.828 40.845 131.952 42.7354 129.639 42.7354Z" fill="#FF5C35"/>
</g>
<defs>
<clipPath id="clip0_3700_2630">
<rect width="112" height="32" fill="white" transform="translate(36 20)"/>
</clipPath>
</defs>
</svg>
