<svg width="1200" height="465" viewBox="0 0 1200 465" fill="none" xmlns="http://www.w3.org/2000/svg">
<rect width="1200" height="465" fill="#E5E5E5"/>
<rect width="1200" height="465" fill="white"/>
<path d="M274.542 167.22H249.166C231.392 167.22 217.252 172.002 207.108 181.451C196.892 190.978 191.713 204.826 191.713 222.593V297.136H221.144V219.993C221.144 211.688 223.575 205.45 228.572 200.933C233.621 196.372 240.549 194.058 249.166 194.058H274.542C283.159 194.058 290.086 196.372 295.142 200.933C300.068 205.385 302.563 211.799 302.563 219.993V297.136H331.995V222.593C331.995 204.82 326.809 190.978 316.593 181.451C306.469 172.009 292.322 167.22 274.542 167.22V167.22ZM548.944 167.22H523.567C505.8 167.22 491.653 172.002 481.516 181.451C481.262 181.685 481.061 181.945 480.82 182.185C480.58 181.945 480.372 181.685 480.125 181.451C470 172.009 455.853 167.22 438.074 167.22H412.697C394.931 167.22 380.777 172.002 370.646 181.451C360.424 190.978 355.245 204.826 355.245 222.593V297.136H384.67V219.993C384.67 211.688 387.107 205.45 392.104 200.933C397.153 196.372 404.08 194.058 412.697 194.058H438.074C446.684 194.058 453.618 196.372 458.674 200.933C463.6 205.385 466.101 211.799 466.101 219.993V297.136H495.539V219.993C495.539 211.688 497.976 205.45 502.967 200.933C508.023 196.372 514.95 194.058 523.567 194.058H548.944C557.554 194.058 564.481 196.372 569.537 200.933C574.469 205.385 576.965 211.799 576.965 219.993V297.136H606.39V222.593C606.39 204.82 601.21 190.971 590.995 181.451C580.864 172.009 566.723 167.22 548.944 167.22V167.22ZM960.086 227.277C962.25 224.775 963.842 221.688 964.849 218.049C965.876 214.215 966.383 208.925 966.383 201.874C966.383 188.8 961.847 179.279 952.866 173.567C945.965 169.356 935.899 167.218 922.928 167.218H829.383V297.135H930.687C944.775 297.135 955.361 294.016 962.159 287.881C969.092 281.61 972.602 271.265 972.602 257.131C972.602 242.691 968.397 232.67 960.086 227.277V227.277ZM923.266 215.742H858.821V194.232H923.09C935.424 194.232 937.133 199.561 937.133 205.325C937.133 210.738 935.457 215.742 923.266 215.742ZM858.821 242.919H927.243C941.429 242.919 943.339 249.404 943.339 255.746C943.339 265.839 938.933 269.952 928.107 269.952H858.821V242.919Z" fill="#231F20"/>
<path d="M1034.05 167.48H1045.19V169.566H1040.82V181.264H1038.41V169.566H1034.05V167.48ZM1046.76 167.48H1050.16L1053.96 178.268H1054.01L1057.72 167.48H1061.08V181.264H1058.77V170.626H1058.74L1054.92 181.264H1052.92L1049.1 170.626H1049.07V181.264H1046.76V167.48ZM1025.37 167.361H995.469V297.146H1025.37V167.361Z" fill="#231F20"/>
<path d="M626.045 211.924C626.11 211.82 626.182 211.716 626.247 211.612L626.656 210.994C627.033 210.468 627.397 209.974 627.793 209.474C627.956 209.246 628.04 209.142 628.125 209.032L628.307 208.804C629.028 207.934 629.873 207.043 630.919 206.043L631.231 205.75C631.744 205.276 632.297 204.795 632.875 204.314C633.168 204.074 633.453 203.833 633.765 203.586L633.915 203.476C635.539 202.221 637.255 201.091 639.133 200.032L639.744 199.687C641.076 198.959 642.428 198.296 643.845 197.686L644 197.621C644.683 197.322 645.398 197.042 646.125 196.756C646.444 196.639 646.756 196.522 647.081 196.405C648.341 195.937 649.687 195.502 651.064 195.093C651.487 194.963 651.922 194.833 652.37 194.709C652.565 194.664 652.754 194.605 652.936 194.547C653.215 194.462 653.495 194.378 653.8 194.3C656.14 193.663 658.408 193.163 660.507 192.76L660.533 192.753C661.527 192.565 662.488 192.396 663.405 192.253C663.424 192.246 663.444 192.246 663.463 192.24C663.548 192.227 663.632 192.214 663.723 192.201C663.853 192.181 663.99 192.155 664.113 192.136L664.237 192.123C665.036 191.999 665.796 191.896 666.505 191.805L666.726 191.772V191.778C667.447 191.687 668.116 191.61 668.733 191.545C668.857 191.532 668.98 191.525 669.104 191.512L669.266 191.493C669.331 191.486 669.396 191.48 669.455 191.473C669.546 191.467 669.637 191.46 669.715 191.454L669.741 191.447C670.176 191.408 670.559 191.376 670.91 191.35C670.962 191.343 671.014 191.337 671.066 191.337C671.287 191.317 671.502 191.304 671.684 191.291L671.918 191.285C672.555 191.213 673.308 191.168 674.056 191.168H761.31C768.173 191.168 774.288 194.423 778.206 199.466L777.907 197.829C777.777 197.198 777.641 196.561 777.478 195.911L777.309 195.21C777.14 194.56 776.958 193.897 776.757 193.228L776.256 191.662C775.964 190.771 775.633 189.881 775.269 188.984C775.256 188.958 775.243 188.932 775.236 188.906C771.532 179.873 764.319 170.847 750.341 167.962C750.12 167.916 749.899 167.864 749.678 167.825C749.087 167.715 748.476 167.611 747.865 167.513C747.787 167.507 747.702 167.494 747.631 167.481C747.04 167.403 746.429 167.338 745.811 167.273C745.33 167.221 744.85 167.182 744.356 167.149C744.031 167.13 743.706 167.097 743.374 167.084L743.173 167.072C742.302 167.033 741.412 167 740.496 167H675.7C648.803 167 626.832 187.028 626.045 211.924" fill="#7CCCED"/>
<path d="M781.999 257.102C781.934 257.407 781.856 257.726 781.765 258.057C781.759 258.09 781.752 258.129 781.739 258.161C781.655 258.493 781.564 258.831 781.46 259.182C781.453 259.221 781.44 259.259 781.421 259.305C781.323 259.656 781.213 260.02 781.089 260.39C781.076 260.424 781.065 260.459 781.057 260.494C780.927 260.884 780.79 261.287 780.641 261.69L780.621 261.748C779.666 264.367 778.262 267.363 776.215 270.521L776.157 270.599C775.839 271.093 775.501 271.594 775.143 272.094C775.111 272.133 775.091 272.165 775.065 272.198C774.695 272.718 774.311 273.231 773.908 273.757C773.902 273.764 773.895 273.777 773.882 273.783C772.628 275.408 771.186 277.052 769.542 278.683C769.529 278.696 769.509 278.709 769.503 278.722C768.989 279.229 768.463 279.73 767.91 280.23C767.809 280.324 767.706 280.415 767.599 280.503C767.131 280.938 766.643 281.361 766.143 281.783C766 281.9 765.857 282.024 765.707 282.141C765.22 282.537 764.72 282.933 764.213 283.33C764.05 283.46 763.888 283.583 763.725 283.707C763.193 284.11 762.64 284.506 762.075 284.909C761.925 285.013 761.776 285.123 761.627 285.227C760.957 285.689 760.268 286.15 759.56 286.605C759.502 286.644 759.449 286.67 759.397 286.709C757.838 287.697 756.174 288.665 754.4 289.601C754.173 289.718 753.939 289.828 753.718 289.945C753.062 290.276 752.405 290.621 751.723 290.939C751.417 291.089 751.099 291.232 750.787 291.381C750.157 291.674 749.52 291.96 748.87 292.246C748.519 292.401 748.155 292.551 747.798 292.7C747.154 292.973 746.492 293.24 745.822 293.506C745.445 293.649 745.068 293.799 744.679 293.942C743.977 294.208 743.255 294.468 742.521 294.728C742.151 294.858 741.793 294.994 741.41 295.118C740.546 295.41 739.655 295.696 738.752 295.976C738.492 296.054 738.239 296.138 737.979 296.223C736.835 296.56 735.678 296.892 734.483 297.21H754.27C784.624 297.21 809.325 276.435 809.325 250.903V213.303C809.325 189.252 787.406 169.425 759.495 167.203C759.515 167.216 759.534 167.229 759.56 167.235L759.807 167.352C760.444 167.658 760.983 167.918 761.496 168.19L761.99 168.45C762.562 168.762 763.115 169.081 763.654 169.419L764.005 169.646C764.577 170.01 765.012 170.302 765.435 170.608C765.545 170.679 765.681 170.77 765.818 170.874C766.299 171.225 766.773 171.596 767.235 171.966L767.729 172.382C768.144 172.733 768.56 173.084 768.957 173.467C769.061 173.558 769.191 173.688 769.321 173.812C769.678 174.15 770.022 174.494 770.36 174.845C770.484 174.968 770.614 175.111 770.744 175.254C771.173 175.709 771.543 176.125 771.894 176.547C772.024 176.69 772.154 176.859 772.29 177.028C772.537 177.334 772.804 177.659 773.057 178.003C773.155 178.127 773.285 178.296 773.402 178.458C773.713 178.874 774.025 179.309 774.311 179.745L774.675 180.284C774.903 180.641 775.137 180.999 775.345 181.363L775.689 181.922C775.93 182.331 776.131 182.708 776.339 183.078L776.67 183.702C776.891 184.131 777.112 184.553 777.314 184.976L778.016 186.516C778.126 186.769 778.204 186.945 778.275 187.12C778.438 187.491 778.62 187.946 778.795 188.394L778.997 188.927C779.133 189.291 779.257 189.648 779.38 190.012C779.426 190.123 779.491 190.305 779.543 190.487C779.647 190.779 779.757 191.11 779.861 191.435L780.121 192.287C780.258 192.748 780.381 193.19 780.504 193.619L780.881 195.133C780.914 195.25 780.953 195.419 780.992 195.594C781.083 195.978 781.18 196.433 781.278 196.881L781.349 197.206L781.837 199.955C781.85 200.007 781.869 200.13 781.882 200.254C782.012 201.092 782.129 201.982 782.214 202.827L782.226 203.009C782.311 203.704 782.376 204.523 782.434 205.27C782.486 205.894 782.538 206.72 782.577 207.532L782.688 212.737V251.734C782.688 253.521 782.46 255.302 782.019 257.017C782.012 257.05 782.005 257.076 781.999 257.102" fill="#0492D2"/>
<path d="M633.351 208.545C632.383 209.468 631.629 210.267 631.025 210.995C630.973 211.06 630.882 211.177 630.784 211.281L630.531 211.632C630.18 212.08 629.848 212.529 629.53 212.97L629.147 213.536C628.861 213.984 628.562 214.465 628.302 214.92L628.126 215.219C627.873 215.693 627.632 216.161 627.424 216.597C627.171 217.142 626.983 217.591 626.827 218.007C626.632 218.494 626.521 218.832 626.43 219.131L626.385 219.28C626.3 219.553 626.235 219.774 626.183 219.963L626.138 220.171C626.105 220.307 626.079 220.424 626.06 220.522L626.027 220.697L626.021 250.889C626.021 276.428 648.213 297.21 675.493 297.21H716.382C749.101 292.81 764.795 280.671 772.32 270.053C769.077 272.002 765.295 273.107 761.312 273.107H674.057C662.269 273.107 652.684 263.515 652.684 251.734V212.542C652.684 206.134 655.498 200.344 660.014 196.412L654.666 197.68C654.412 197.745 654.185 197.816 653.964 197.881C653.737 197.953 653.516 198.018 653.275 198.083C652.859 198.2 652.463 198.31 652.067 198.433C650.747 198.823 649.474 199.246 648.271 199.681C647.959 199.792 647.667 199.902 647.375 200.013C646.673 200.286 645.978 200.559 645.321 200.844L645.165 200.909C643.872 201.481 642.637 202.086 641.402 202.761L640.922 203.021C639.115 204.042 637.536 205.081 636.152 206.154L635.866 206.368C635.08 206.992 634.313 207.648 633.637 208.279L633.351 208.545Z" fill="#4CAFDF"/>
<path d="M167.997 167.243H138V297.426H167.997V167.243Z" fill="#231F20"/>
</svg>
