<?xml version="1.0" encoding="utf-8"?>
<!-- Generator: Adobe Illustrator 26.0.3, SVG Export Plug-In . SVG Version: 6.00 Build 0)  -->
<svg version="1.1" id="Layer_1" xmlns="http://www.w3.org/2000/svg" xmlns:xlink="http://www.w3.org/1999/xlink" x="0px" y="0px"
	 viewBox="0 0 600 195.6" style="enable-background:new 0 0 600 195.6;" xml:space="preserve">
<style type="text/css">
	.st0{fill:#231F20;}
	.st1{fill:#FEFEFE;}
	.st2{fill:#9E242E;}
	.st3{fill:#FF912E;}
	.st4{fill:#F41CB2;}
	.st5{fill:#F25511;}
</style>
<g>
	<path class="st0" d="M563.6,82.4c9-3,18.9-5,28.2-2c5.3,1.8,8.2,7.4,8.1,12.8c0.1,11,0.3,22.1-0.2,33.1c-3.2,0-6.4,0-9.5,0
		c-0.4-1.8-0.7-3.5-1.1-5.2c-5.9,4.7-13.8,8.1-21.4,5.2c-8.6-3.4-9.7-16.3-3.2-22.3c6.5-6.1,15.9-6.1,24.2-8
		c-0.5-2.8-0.9-6.4-4.2-7.2c-6.6-2-13.3,1-19.6,2.8C564.3,88.6,563.9,85.5,563.6,82.4 M574.1,107.9c-3.1,2.4-3.2,8.4,0.8,10
		c4.8,1.8,9.5-1.5,13.4-4.1c0-3.6,0-7.2,0-10.7C583.4,104,578,104.5,574.1,107.9"/>
	<path class="st0" d="M315.4,60.3c5.3-0.3,10.7-0.4,16-0.2c6.3,16.1,10.4,33,17.2,48.9c5.6-16.2,10.8-32.6,16.4-48.8
		c5.3-0.2,10.6-0.2,16,0c1.5,22,3.8,44.1,4.8,66.1c-4.1,0-8.2,0-12.3,0c-1.5-15.7-2.1-31.5-3.7-47.3c-6.3,15.5-10.8,31.6-16.5,47.3
		c-3.8,0.2-7.7,0.1-11.6-0.1c-5.6-15.7-10-31.8-16.6-47.1c-1.3,15.7-2,31.4-3.4,47.1c-3.7,0-7.4,0-11,0
		C311.6,104.2,314,82.3,315.4,60.3"/>
	<path class="st0" d="M498.2,65.3c3.7-0.8,7.5-1.3,11.3-1.6c0.1,5.3,0.1,10.6,0.1,16c3.1,0.1,6.2,0.2,9.3,0.3c0.6,3,1.1,6.1,1.6,9.2
		c-3.6,0.2-7.2,0.3-10.8,0.4c0.1,8.1-0.5,16.2,0.3,24.2c1.2,3.9,6.3,2.8,9.4,3.5c0.6,3.1,1,6.2,1.4,9.3c-5.9,0.6-12.5,1.4-17.7-2
		c-3.5-2.3-4.6-6.6-4.7-10.5c-0.4-8.2,0.1-16.3-0.2-24.5c-2.2-0.2-4.3-0.4-6.4-0.7c0.1-2.9,0.2-5.9,0.3-8.8c2.1-0.2,4.2-0.4,6.3-0.6
		C498,74.8,498.1,70.1,498.2,65.3"/>
	<path class="st0" d="M392.8,80.9c4-0.8,8-1.2,12-1.4c3.6,10.6,6.9,21.4,10.6,32c3.8-10.3,6.8-20.9,10.1-31.4
		c3.8-0.2,7.7-0.3,11.5-0.3c-4.3,14.1-9.9,27.8-14.7,41.7c-2.5,6.4-4.1,13.7-9.3,18.6c-4.3,3.9-10.5,4.1-16,3.1
		c-0.5-3.1-1-6.1-1.5-9.2c2.7,0,5.4,0.1,8-0.3c3.6-1.2,6.7-5.6,5.1-9.4C403.5,109.8,397.8,95.5,392.8,80.9"/>
	<path class="st0" d="M444.6,79.8c3.2,0,6.5,0.1,9.7,0.1c0.4,2,0.9,4,1.3,6c5-4.1,10.9-8,17.7-7c5.9,0.2,10.6,5.6,10.7,11.4
		c0.3,11.9,0.1,23.9,0.1,35.8c-3.7,0.1-7.4,0.1-11,0.2c-1-10.8,0.2-21.7-0.6-32.6c-0.5-4.5-6-5.6-9.5-3.8c-2.9,1.5-6.9,3.5-6.7,7.4
		c-0.2,9.6,0.1,19.2,0,28.9c-3.9,0.1-7.8,0.1-11.7,0C444.6,110.7,444.5,95.3,444.6,79.8"/>
	<path class="st0" d="M529.3,79.8c3.3,0,6.6,0,9.9,0c0.4,2.7,0.8,5.4,1.3,8.1c4.1-4.2,8.6-8.7,14.8-9.2c1,3.7,1.5,7.5,1.7,11.3
		c-6.1,1.4-13.1,3.9-15.9,10c-0.6,8.7,0.1,17.4-0.2,26.1c-3.9,0.1-7.7,0-11.6-0.1C529.4,110.7,529.3,95.3,529.3,79.8"/>
	<path class="st1" d="M59.6,17.5C65.3,10.8,71.4,3.5,80,0.8c9.7-2.6,17.9,5.1,24,11.5c16,18.2,27.5,39.8,38.3,61.3
		c5.9-13.1,13.1-25.6,20.7-37.8c7.2-11,14.7-22.2,25-30.6c4.8-3.7,11.5-7.2,17.4-4.1c8.5,4.5,14.9,11.9,20.9,19.2
		C239,36.8,249,55.1,258,73.7c11.3,24,21,49,25.1,75.3c1.2,12.2,2.3,25.9-5,36.5c-5.7,8.3-16.5,11.2-26,9.5
		c-8.3-2.9-15.6-8.4-21.1-15.3c-12.9-16-20.6-35.4-27.8-54.5c-1.1-3.3-2.3-6.6-3.5-10c-0.8,3.4-1.7,6.7-2.8,10
		c-7.3,19.4-15.1,39.1-28.4,55.2c-5.3,6.6-12.4,11.6-20.4,14.5c-11.5,2.4-22.7-3.6-30.1-12c-14.6-15.9-22.7-36.3-30.1-56.2
		c-1.4-4.1-2.9-8.2-3.9-12.4c-1.2,4.3-2.6,8.4-4.2,12.6c-6.7,18.4-14.4,36.8-26.6,52.2c-6.6,7.9-15.3,15.7-26.1,16.2
		c-10,0.9-19.7-5.6-23.5-14.7c-5.5-12.6-3.9-26.9-1.4-40.1c5.2-25.2,14.8-49.3,26.1-72.3C37.3,50.6,47.2,33.1,59.6,17.5 M65.3,23
		C53,38.8,43.2,56.3,34.4,74.2c-11,23.1-20.9,47.2-25.1,72.5c-1.5,7-1.5,14.3-0.8,21.4c0.8,6.7,3.5,13.9,9.7,17.4
		c5.9,3.5,13.5,2.1,18.9-1.7c9.6-6.7,16-17,21.5-27.1c11.8-22.6,19.6-47.2,25.5-71.9c6.2,25.4,14.1,50.6,26.5,73.7
		c4.9,8.5,10.2,17.4,18.3,23.3c4.1,3.7,9.5,6.2,15,5.6c6.2-0.6,11.5-4.6,15.8-8.9c7.5-7.7,12.9-17.1,17.7-26.6
		c10.2-21,17.3-43.3,22.8-66c6.9,27.4,15.4,54.8,30.1,79.1c5.5,8.5,12,17.3,21.7,21.3c6.8,2.8,15.4,0.3,19.3-6
		c4.7-7.6,5.1-17,4.4-25.7c-1-14-5.1-27.6-9.5-40.8c-8.9-25.6-20.7-50.2-35.1-73.2c-6.6-10.3-13.5-20.6-22.8-28.7
		c-3.3-2.9-8.1-5.7-12.3-2.8c-8,4.9-13.6,12.7-19.1,20c-13.6,19.4-24.8,40.5-34,62.3c-0.3,0.3-0.8,1-1.1,1.3
		c-0.8-2.5-1.6-4.9-2.7-7.3c-9.4-20.4-19.9-40.4-33.3-58.6c-4.6-6-9.3-12.1-15.4-16.5c-2.6-1.9-6.1-3.5-9.3-1.9
		C74.6,11.5,69.9,17.5,65.3,23"/>
	<path class="st2" d="M65.3,23c4.6-5.5,9.2-11.5,15.9-14.5c3.2-1.6,6.7,0,9.3,1.9c6.2,4.4,10.9,10.5,15.4,16.5
		c13.3,18.2,23.8,38.2,33.3,58.6c1.1,2.3,1.9,4.8,2.7,7.3c-12.2-20.9-23.5-42.6-38.9-61.4c-4.5-5.3-9.2-10.9-15.7-13.7
		c-3.7-1.6-7.5,0.5-10.5,2.5c-11,9.2-19.2,21.3-26.9,33.3c-18.1,28.8-31.7,60.4-40.7,93.2c4.2-25.4,14.1-49.4,25.1-72.5
		C43.2,56.3,53,38.8,65.3,23"/>
	<path class="st2" d="M196.1,9.2c4.2-2.9,9-0.1,12.3,2.8c9.3,8.1,16.2,18.4,22.8,28.7c14.4,23,26.2,47.6,35.1,73.2
		c4.5,13.2,8.6,26.8,9.5,40.8c-1.5-9.8-4-19.4-7.4-28.7c-8.5-25.6-20.2-50-34.5-72.8c-6.2-9.8-12.9-19.4-20.9-27.8
		c-3.2-3.2-6.7-6.5-11.1-8c-3.4-1.1-6.6,1.3-9.3,3c-7.4,5.8-13.2,13.4-18.7,20.9c-9.8,13.8-18.4,28.4-26.3,43.4
		c-1.3,2.4-2.9,4.6-4.7,6.7c9.2-21.8,20.4-42.9,34-62.3C182.6,21.8,188.1,14,196.1,9.2"/>
	<path class="st3" d="M76.9,20.2c3-2,6.8-4.1,10.5-2.5c6.5,2.8,11.2,8.4,15.7,13.7c15.4,18.8,26.6,40.5,38.9,61.4
		c-7.7,21.8-16.8,43.8-17.3,67.2c-0.4,7.5,1.6,14.9,4.4,21.8c-8.1-5.9-13.3-14.8-18.3-23.3c-12.4-23.1-20.3-48.3-26.5-73.7
		C79.6,63.6,75.4,42,76.9,20.2"/>
	<path class="st4" d="M192.7,20.5c2.8-1.7,5.9-4.1,9.3-3c4.4,1.4,7.8,4.8,11.1,8c8,8.4,14.7,18,20.9,27.8
		c14.3,22.8,26,47.3,34.5,72.8c3.3,9.3,5.8,18.9,7.4,28.7c0.7,8.7,0.3,18.1-4.4,25.7c-3.9,6.4-12.5,8.8-19.3,6
		c-9.7-3.9-16.2-12.8-21.7-21.3c-14.7-24.3-23.3-51.7-30.1-79.1C195.6,64.6,191.3,42.6,192.7,20.5"/>
	<path class="st4" d="M50,53.5c7.7-12,15.8-24.1,26.9-33.3c-1.4,21.8,2.7,43.4,7.3,64.6c-5.9,24.8-13.7,49.3-25.5,71.9
		c-5.5,10.1-11.9,20.4-21.5,27.1c-5.4,3.8-13,5.2-18.9,1.7c-6.2-3.5-8.8-10.7-9.7-17.4c-0.8-7.1-0.7-14.4,0.8-21.4
		C18.3,113.9,31.9,82.4,50,53.5"/>
	<path class="st5" d="M174,41.4c5.5-7.6,11.3-15.1,18.7-20.9c-1.4,22.1,2.9,44.1,7.6,65.5c-5.5,22.6-12.6,45-22.8,66
		c-4.8,9.5-10.2,18.9-17.7,26.6c-4.3,4.3-9.6,8.2-15.8,8.9c-5.6,0.6-11-2-15-5.6c-2.8-6.9-4.8-14.3-4.4-21.8
		c0.5-23.4,9.6-45.4,17.3-67.2c0.3-0.3,0.8-1,1.1-1.3c1.8-2,3.4-4.3,4.7-6.7C155.6,69.8,164.2,55.3,174,41.4"/>
</g>
</svg>
