<svg width="120" height="48" viewBox="0 0 120 48" fill="none" xmlns="http://www.w3.org/2000/svg">
<g clip-path="url(#clip0_2258_2242)">
<path d="M42.99 18.4484C44.0217 17.895 45.2 17.6167 46.525 17.6167C48.0667 17.6167 49.4633 17.9967 50.7117 18.7567C51.96 19.5167 52.9483 20.5984 53.6767 21.9984C54.405 23.4 54.7683 25.0234 54.7683 26.87C54.7683 28.7167 54.405 30.3517 53.6767 31.7734C52.9483 33.1967 51.96 34.2984 50.7117 35.08C49.4617 35.8617 48.0667 36.2534 46.525 36.2534C45.2 36.2534 44.0317 35.9817 43.0217 35.4384C42.0117 34.895 41.1917 34.2117 40.5617 33.385V47.9967H36V17.9117H40.5617V20.5184C41.1483 19.6934 41.9567 19.0034 42.9883 18.45L42.99 18.4484ZM49.4417 24.0534C48.9967 23.26 48.41 22.6584 47.6817 22.245C46.9533 21.8334 46.1667 21.6267 45.32 21.6267C44.4733 21.6267 43.7183 21.8384 42.99 22.2617C42.2617 22.685 41.675 23.3 41.23 24.1034C40.785 24.9067 40.5617 25.8517 40.5617 26.9384C40.5617 28.025 40.7833 28.97 41.23 29.7734C41.675 30.5767 42.2617 31.19 42.99 31.615C43.7183 32.0384 44.4933 32.25 45.32 32.25C46.1467 32.25 46.955 32.0334 47.6817 31.5984C48.41 31.1634 48.995 30.545 49.4417 29.7417C49.8867 28.9384 50.11 27.9817 50.11 26.875C50.11 25.7684 49.8867 24.85 49.4417 24.0567V24.0534Z" fill="#C7154A"/>
<path d="M62.9465 17.9117V35.9633H58.3849V17.9117H62.9465ZM63.4982 11.8333C63.4982 13.3983 62.2299 14.6667 60.6649 14.6667C59.0999 14.6667 57.8315 13.3983 57.8315 11.8333C57.8315 10.2683 59.0999 9 60.6649 9C62.2299 9 63.4982 10.2683 63.4982 11.8333Z" fill="#C7154A"/>
<path d="M82.9535 19.6868C84.2785 21.0451 84.9418 22.9401 84.9418 25.3718V35.9618H80.3801V25.9918C80.3801 24.5584 80.0218 23.4551 79.3051 22.6851C78.5885 21.9134 77.6101 21.5284 76.3718 21.5284C75.1335 21.5284 74.1185 21.9151 73.3901 22.6851C72.6618 23.4568 72.2985 24.5584 72.2985 25.9918V35.9618H67.7368V17.9101H72.2985V20.1584C72.9068 19.3768 73.6835 18.7634 74.6285 18.3168C75.5735 17.8718 76.6101 17.6484 77.7401 17.6484C79.8901 17.6484 81.6285 18.3284 82.9535 19.6851V19.6868Z" fill="#C7154A"/>
<path d="M92.8918 35.0983C91.5018 34.3283 90.4101 33.2367 89.6168 31.8233C88.8234 30.4117 88.4268 28.7817 88.4268 26.935C88.4268 25.0883 88.8334 23.46 89.6484 22.0467C90.4634 20.635 91.5768 19.5433 92.9884 18.7717C94.4001 18 95.9751 17.615 97.7134 17.615C99.4518 17.615 101.025 18.0017 102.438 18.7717C103.85 19.5433 104.963 20.635 105.778 22.0467C106.593 23.4583 107 25.0883 107 26.935C107 28.7817 106.582 30.41 105.745 31.8233C104.908 33.235 103.778 34.3267 102.357 35.0983C100.933 35.87 99.3434 36.255 97.5834 36.255C95.8234 36.255 94.2818 35.87 92.8918 35.0983ZM99.9134 31.6767C100.642 31.275 101.222 30.6717 101.657 29.8683C102.092 29.065 102.308 28.0867 102.308 26.935C102.308 25.22 101.857 23.9 100.957 22.9767C100.055 22.0533 98.9534 21.5917 97.6501 21.5917C96.3468 21.5917 95.2551 22.0533 94.3751 22.9767C93.4951 23.9 93.0551 25.22 93.0551 26.935C93.0551 28.65 93.4834 29.97 94.3418 30.8933C95.2001 31.8167 96.2801 32.2783 97.5834 32.2783C98.4084 32.2783 99.1851 32.0783 99.9134 31.675V31.6767Z" fill="#C7154A"/>
<path d="M115.96 21.6583V30.3917C115.96 31 116.107 31.44 116.4 31.7117C116.693 31.9833 117.187 32.1183 117.882 32.1183H120V35.9633H117.133C113.288 35.9633 111.367 34.095 111.367 30.3583V21.6583H109.217V17.9117H111.367V13L115.962 12V17.9117H120.002V21.6583H115.962H115.96Z" fill="#C7154A"/>
<path d="M20.0305 46.7567L14.4922 45.3717C13.6155 45.1517 13.0005 44.365 13.0005 43.46V37.9983C13.0005 37.1567 13.3489 36.3967 13.9072 35.8517C16.6405 35.4283 19.0722 34.1083 20.8822 32.2083C23.4839 29.4767 24.5089 25.63 23.7639 21.9567L21.0005 9H17.0005V4C17.0005 3.44833 16.5522 3 16.0005 3C15.4489 3 15.0005 3.44833 15.0005 4V11C15.0005 11.5517 14.5522 12 14.0005 12C13.4489 12 13.0005 11.5517 13.0005 11V10C13.0005 9.44833 12.5522 9 12.0005 9C11.4489 9 11.0005 9.44833 11.0005 10V16.7583C11.7655 16.2467 12.6955 15.9617 13.6939 16.0033C15.9722 16.0983 17.8505 17.9367 17.9905 20.2133C18.1522 22.8283 16.0789 25 13.4989 25C12.5739 25 11.7139 24.72 10.9989 24.2417V29C10.9989 29.5517 10.5505 30 9.99886 30C9.44719 30 8.99886 29.5517 8.99886 29V7C8.99886 6.44833 8.55053 6 7.99886 6C7.44719 6 6.99886 6.44833 6.99886 7V9H2.99886L0.237192 21.9567C-0.507808 25.6317 0.515526 29.4767 3.11886 32.2083C4.92886 34.11 7.36053 35.4283 10.0939 35.8517C10.6522 36.3967 11.0005 37.1567 11.0005 37.9983V43.4C11.0005 44.3383 10.3622 45.1567 9.45053 45.385L3.97053 46.755C3.40053 46.8983 3.00053 47.41 3.00053 47.9983H21.0005C21.0005 47.41 20.6005 46.8983 20.0305 46.755V46.7567Z" fill="#C7154A"/>
<path d="M13.5005 23C14.8812 23 16.0005 21.8807 16.0005 20.5C16.0005 19.1193 14.8812 18 13.5005 18C12.1198 18 11.0005 19.1193 11.0005 20.5C11.0005 21.8807 12.1198 23 13.5005 23Z" fill="#C7154A"/>
<path d="M8.00049 5C8.55277 5 9.00049 4.55228 9.00049 4C9.00049 3.44772 8.55277 3 8.00049 3C7.4482 3 7.00049 3.44772 7.00049 4C7.00049 4.55228 7.4482 5 8.00049 5Z" fill="#C7154A"/>
<path d="M12.0005 8C12.5528 8 13.0005 7.55228 13.0005 7C13.0005 6.44772 12.5528 6 12.0005 6C11.4482 6 11.0005 6.44772 11.0005 7C11.0005 7.55228 11.4482 8 12.0005 8Z" fill="#C7154A"/>
<path d="M16.0005 2C16.5528 2 17.0005 1.55228 17.0005 1C17.0005 0.447715 16.5528 0 16.0005 0C15.4482 0 15.0005 0.447715 15.0005 1C15.0005 1.55228 15.4482 2 16.0005 2Z" fill="#C7154A"/>
</g>
<defs>
<clipPath id="clip0_2258_2242">
<rect width="120" height="48" fill="white"/>
</clipPath>
</defs>
</svg>
