<svg width="184" height="72" viewBox="0 0 184 72" fill="none" xmlns="http://www.w3.org/2000/svg">
<rect width="184" height="72" fill="#F9FDFE"/>
<g clip-path="url(#clip0_1539_10421)">
<mask id="mask0_1539_10421" style="mask-type:luminance" maskUnits="userSpaceOnUse" x="24" y="29" width="136" height="14">
<path d="M24 29H159.526V42.8021H24V29Z" fill="white"/>
</mask>
<g mask="url(#mask0_1539_10421)">
<mask id="mask1_1539_10421" style="mask-type:luminance" maskUnits="userSpaceOnUse" x="24" y="29" width="136" height="14">
<path d="M24 29H159.526V42.8021H24V29Z" fill="white"/>
</mask>
<g mask="url(#mask1_1539_10421)">
<path d="M31.1848 30.9109C33.3025 30.9109 35.016 32.0343 35.2662 33.5789H37.5379C37.1336 30.9986 34.5154 29.1731 31.204 29.1731C27.5077 29.1731 24.1001 31.4023 24.1001 35.9662C24.1001 40.5125 27.4692 42.7593 31.204 42.7593C34.5731 42.7593 37.1721 40.9337 37.4802 38.3359H35.3047C35.0736 39.8805 33.341 41.004 31.1848 41.004C28.3548 41.004 26.3141 39.2486 26.3141 35.9662C26.3333 32.6837 28.3548 30.9109 31.1848 30.9109Z" fill="#1F1F1D"/>
<path d="M41.0994 29.3311H39.078V42.6013H41.0994V29.3311Z" fill="#1F1F1D"/>
<path d="M48.0109 32.8943C44.8728 32.8943 42.6012 34.9656 42.6012 37.8267C42.6012 40.6879 44.8728 42.7592 48.0109 42.7592C51.149 42.7592 53.4015 40.6879 53.4015 37.8267C53.4015 34.9656 51.149 32.8943 48.0109 32.8943ZM48.0109 41.1267C46.0088 41.1267 44.6612 39.7576 44.6612 37.8092C44.6612 35.8608 46.0088 34.4916 48.0109 34.4916C49.9746 34.4916 51.3415 35.8608 51.3415 37.8092C51.3415 39.7751 49.9939 41.1267 48.0109 41.1267Z" fill="#1F1F1D"/>
<path d="M62.2378 38.3006C62.2378 40.3544 60.8325 41.1267 59.5618 41.1267C58.3105 41.1267 56.9051 40.3544 56.9051 38.3006V33.0347H54.8259V38.248C54.8259 41.2847 57.0784 42.7416 59.5618 42.7416C62.0838 42.7416 64.3171 41.2847 64.3171 38.248V33.0347H62.2378V38.3006Z" fill="#1F1F1D"/>
<path d="M74.0777 34.439C73.4617 33.5087 72.1911 32.8768 70.7472 32.8768C67.5514 32.8768 65.7417 34.9656 65.7417 37.8093C65.7417 40.6529 67.5514 42.7417 70.7665 42.7417C72.1526 42.7417 73.4425 42.1098 74.0777 41.1619V42.5837H76.08V29.3311H74.0585V34.439H74.0777ZM70.9974 41.1268C69.0723 41.1268 67.8017 39.7928 67.8017 37.8093C67.8017 35.8257 69.0723 34.4917 70.9974 34.4917C73.1344 34.4917 74.2125 36.0539 74.2125 37.8093C74.2125 39.5821 73.1344 41.1268 70.9974 41.1268Z" fill="#1F1F1D"/>
<path d="M89.845 29.3311H87.1112L80.7388 35.422V29.3311H78.5634V42.6013H80.7388V38.0901L82.8373 36.0539L87.8043 42.6013H90.4417L84.3197 34.6321L89.845 29.3311Z" fill="#1F1F1D"/>
<path d="M93.5803 29.3311H91.3279V31.3848H93.5803V29.3311Z" fill="#1F1F1D"/>
<path d="M93.4837 33.0347H91.4623V42.5836H93.4837V33.0347Z" fill="#1F1F1D"/>
<path d="M99.144 30.0508H97.1226V33.0348H94.9856V34.6322H97.1226V39.4593C97.1226 41.4077 98.4702 42.5838 100.588 42.5838H102.224V40.9864H100.742C99.7216 40.9864 99.1247 40.4247 99.1247 39.3891V34.6322H102.224V33.0348H99.1247V30.0508H99.144Z" fill="#1F1F1D"/>
<path d="M108.077 34.5092C109.482 34.5092 110.695 35.2991 110.887 36.3874H112.909C112.62 34.2283 110.502 32.8943 108.038 32.8943C104.727 32.8943 102.84 35.1938 102.84 37.8267C102.84 40.4597 104.727 42.7592 108.038 42.7592C110.695 42.7592 112.562 41.39 112.909 39.389H110.907C110.579 40.4773 109.521 41.1443 108.077 41.1443C105.998 41.1443 104.939 39.6698 104.939 37.8267C104.939 35.9836 105.978 34.5092 108.077 34.5092Z" fill="#1F1F1D"/>
<path d="M119.609 32.8944C118.049 32.8944 116.798 33.5438 116.24 34.7374V29.3311H114.218V42.6013H116.24V37.4231C116.24 35.7555 117.395 34.5444 119.05 34.5444C120.533 34.5444 121.495 35.5624 121.495 37.0896V42.6013H123.517V36.721C123.517 34.439 121.977 32.8944 119.609 32.8944Z" fill="#1F1F1D"/>
<path d="M130.274 41.1794C128.445 41.1794 127.155 39.9507 127.001 38.1427H134.991C135.01 37.9672 135.03 37.6688 135.03 37.423C135.03 35.0007 133.297 32.8943 130.062 32.8943C126.847 32.8943 125.018 35.0884 125.018 37.7741C125.018 40.4246 127.04 42.7592 130.274 42.7592C132.854 42.7592 134.74 41.4602 135.106 39.4943H133.085C132.815 40.565 131.814 41.1794 130.274 41.1794ZM130.062 34.3688C131.795 34.3688 132.873 35.3342 132.989 36.7911H127.04C127.367 35.1938 128.426 34.3688 130.062 34.3688Z" fill="#1F1F1D"/>
<path d="M141.364 32.8943C138.841 32.8943 136.608 34.3512 136.608 37.3879V42.6012H138.687V37.3352C138.687 35.2815 140.092 34.5092 141.364 34.5092C142.614 34.5092 144.02 35.2815 144.02 37.3352V42.6012H146.099V37.3879C146.099 34.3512 143.847 32.8943 141.364 32.8943Z" fill="#1F1F1D"/>
<path d="M149.622 35.5799C149.622 34.8427 150.354 34.3512 151.432 34.3512C152.337 34.3512 153.492 34.79 153.627 35.8783H155.513C155.418 34.0703 153.781 32.8767 151.413 32.8767C149.237 32.8767 147.697 33.9826 147.697 35.6326C147.697 39.7049 153.646 37.3703 153.646 39.9155C153.646 40.6177 152.876 41.1969 151.663 41.1969C150.315 41.1969 149.449 40.565 149.314 39.4767H147.428C147.582 41.4778 149.219 42.7416 151.663 42.7416C154.031 42.7416 155.591 41.6358 155.591 39.8804C155.591 35.5272 149.622 37.9496 149.622 35.5799Z" fill="#1F1F1D"/>
<path d="M158.304 30.6651C158.304 30.2965 158.036 30.0508 157.573 30.0508H156.688V32.1221H157.015V31.3146H157.593C157.786 31.3146 157.919 31.4375 157.939 31.6306L157.978 32.1221H158.304L158.266 31.5955C158.247 31.3848 158.151 31.2269 157.978 31.1391C158.171 31.0513 158.304 30.8933 158.304 30.6651ZM157.554 31.0338H156.996V30.3141H157.554C157.843 30.3141 157.958 30.4721 157.958 30.6651C157.958 30.8582 157.843 31.0338 157.554 31.0338Z" fill="#1F1F1D"/>
<path d="M157.438 29.3311C156.341 29.3311 155.494 30.1034 155.494 31.1039C155.494 32.1045 156.341 32.8768 157.438 32.8768C158.536 32.8768 159.382 32.1045 159.382 31.1039C159.382 30.1034 158.536 29.3311 157.438 29.3311ZM157.438 32.6135C156.514 32.6135 155.801 31.9465 155.801 31.0864C155.801 30.2263 156.514 29.5592 157.438 29.5592C158.362 29.5592 159.074 30.2263 159.074 31.0864C159.074 31.964 158.362 32.6135 157.438 32.6135Z" fill="#1F1F1D"/>
</g>
</g>
</g>
<defs>
<clipPath id="clip0_1539_10421">
<rect width="136" height="14" fill="white" transform="translate(24 29)"/>
</clipPath>
</defs>
</svg>
