<svg width="184" height="72" viewBox="0 0 184 72" fill="none" xmlns="http://www.w3.org/2000/svg">
<rect width="184" height="72" fill="#F9FDFE"/>
<g clip-path="url(#clip0_3700_2624)">
<path fill-rule="evenodd" clip-rule="evenodd" d="M126.915 35.0135L121.173 44.9212L116.275 44.9407L126.915 26.2922L137.515 44.9407H132.539L126.915 35.0135ZM111.455 40.6276H116.941L114.394 44.9407H107.243L107.262 39.689V26.4068H111.475L111.455 40.6276ZM96.4077 26.4078C101.639 26.4272 105.871 30.5664 105.852 35.683C105.832 40.7811 101.6 44.9212 96.3679 44.9212C91.1561 44.9018 86.9239 40.7627 86.9239 35.6451C86.9433 30.5469 91.1755 26.4078 96.4077 26.4078ZM96.3883 40.6091C99.1897 40.6091 101.442 38.4045 101.442 35.683C101.462 32.9624 99.1897 30.7384 96.4077 30.7384C93.6247 30.7189 91.352 32.943 91.352 35.6645C91.3326 38.3851 93.6063 40.6091 96.3883 40.6091ZM79.126 34.211C79.0678 33.4434 78.8708 32.428 78.5769 31.4515C77.9721 29.4346 76.9207 27.5803 75.501 26.0269C74.756 25.2224 73.9141 24.4743 72.6589 23.593C71.702 23.12 70.7612 22.6151 69.8381 22.0792C69.2308 21.7343 68.5053 21.3116 67.5459 21.0056C66.4084 20.7366 65.2457 20.5891 64.0772 20.5654C62.9422 20.5265 61.8044 20.6237 60.7073 20.8336C59.5511 21.025 58.5908 21.331 57.3171 21.6381C54.4362 22.8837 52.2032 24.7619 50.2826 27.2541C43.5817 36.6255 49.6366 49.7541 60.8247 51.3058C62.6668 51.5555 64.5088 51.4593 66.2519 51.0571L67.4868 50.7316C67.5256 50.7121 67.5847 50.6927 67.6235 50.6927L69.0349 50.1564C69.1125 50.1175 69.1717 50.0981 69.2502 50.0602L69.8381 49.792C70.9659 49.2344 72.0247 48.5464 72.9926 47.7419C72.1115 48.5437 71.1533 49.2562 70.132 49.8688L70.1902 49.9076C70.3871 49.8493 70.5627 49.792 70.7586 49.7541C70.7586 49.7541 70.7586 50.0602 70.7198 50.0028C70.4065 50.2331 70.8964 50.0223 71.523 49.6958C72.1506 49.3703 72.7578 48.9671 73.3059 48.5075C74.11 47.8371 74.8152 47.1084 75.8143 45.921C76.8328 44.1381 78.1074 42.5854 78.6953 40.4964C78.8912 39.9407 79.0668 39.2897 79.1851 38.6183C79.3015 37.9478 79.3811 37.258 79.3811 36.5487C79.3617 35.8394 79.2831 35.1107 79.126 34.211ZM64.6262 49.965C68.0552 49.4276 70.9352 47.531 73.2865 44.9436C73.9335 44.004 74.4427 43.1412 75.0694 42.2026C75.8531 40.2856 75.7949 38.5804 76.0491 37.3736C76.3634 35.1874 75.6184 33.4249 74.9918 31.5468C74.0314 29.3616 72.7578 27.7331 70.5239 26.468C64.8803 22.9799 57.1998 23.9564 53.536 29.1701C53.5166 29.1701 53.4177 29.3042 53.2217 29.5724C53.4769 28.4997 54.1239 27.8672 54.7699 27.2531C56.6905 25.682 58.9245 24.4354 61.4717 23.8233C64.3526 23.5162 67.2122 23.8233 69.7789 25.0689C73.6202 27.2531 76.1674 30.6849 76.8134 34.7463V38.5036C76.0103 44.656 70.7198 49.3324 64.6262 49.965ZM78.7147 35.9735C78.5769 26.9665 69.6227 20.8909 60.9033 22.1181C58.356 22.7496 55.5731 24.0147 53.5942 25.7782C52.6339 26.4098 52.1838 27.5796 51.2235 28.5182C47.3823 34.1342 48.0496 41.3213 52.8299 45.6917C53.443 46.2989 54.0978 46.8626 54.7893 47.3785C50.7928 44.9815 48.9896 41.3583 48.3629 36.9519C48.3629 35.3798 48.6763 33.8272 49.009 32.256C51.2439 25.375 58.2775 20.373 65.9396 21.6381C67.2132 21.9451 68.4868 22.2706 69.7808 22.5776C71.3872 23.2092 72.9741 24.1488 74.2478 25.3954C75.5214 26.64 76.4817 28.2121 77.442 29.7638C78.088 31.0104 78.4023 32.5815 78.7156 33.8272C78.7738 34.5365 78.7738 35.2652 78.7156 35.9745L78.7147 35.9735Z" fill="black"/>
<path fill-rule="evenodd" clip-rule="evenodd" d="M70.7587 36.1076C70.7587 39.9795 67.5062 43.1227 63.4894 43.1227C59.4735 43.1227 56.2201 39.9795 56.2201 36.1076C56.2201 32.2366 59.4725 29.0934 63.4894 29.0934C67.5062 29.0934 70.7587 32.2366 70.7587 36.1085V36.1076Z" fill="white"/>
<path fill-rule="evenodd" clip-rule="evenodd" d="M70.7984 34.9193C70.7004 34.383 70.5433 33.9613 70.3871 33.3676C69.7595 32.0637 68.839 31.0483 67.6236 30.1855C63.0781 27.1774 56.8273 30.0709 56.1619 35.2079C55.9077 37.2396 56.6323 39.1945 57.9254 40.6898C57.5335 40.2866 57.1028 39.8659 56.8089 39.3859L56.7701 39.4248C56.8089 39.5394 56.966 39.6162 57.0048 39.7308C57.0048 39.7308 56.8477 39.7308 56.8875 39.7114C56.7701 39.5783 56.8681 39.7891 57.0436 40.0757C57.2008 40.3633 57.3967 40.6325 57.6315 40.8812C57.9651 41.2456 58.3173 41.5711 58.9051 42.0122C59.7684 42.4523 60.5318 43.0276 61.5309 43.2957C61.8054 43.3735 62.1187 43.4492 62.433 43.5066C62.7657 43.5649 63.079 43.5843 63.4321 43.5843C63.7648 43.5843 64.1179 43.5454 64.5486 43.4677C64.9927 43.4153 65.4317 43.3259 65.861 43.2005C66.82 42.9114 67.7034 42.4137 68.4481 41.7431C68.8206 41.3991 69.3502 40.958 69.7605 40.3828C70.0942 39.7318 70.133 39.4053 70.2901 39.1177C70.4463 38.8301 70.6422 38.5046 70.78 38.0635C70.8923 37.5402 70.9578 37.0079 70.9759 36.4729C70.9565 35.9366 70.9177 35.4187 70.7994 34.9203L70.7984 34.9193ZM66.1346 31.3554C66.801 31.7382 66.899 31.7955 66.5459 31.5468C67.0561 31.6614 67.3694 31.949 67.6827 32.2366C68.4471 33.0994 69.0737 34.1148 69.387 35.2837C69.5636 36.6061 69.4258 37.9284 68.8584 39.0983C67.8399 40.8803 66.2132 42.0686 64.2731 42.394C64.0578 42.394 63.823 42.394 63.6067 42.4135C64.1558 42.3173 64.5089 41.9724 65.508 41.608C66.5847 41.2252 67.8001 39.4432 68.3889 38.4075C70.1126 35.5897 68.0746 32.9838 66.1346 31.3554ZM62.4515 42.4319C59.4735 42.1259 57.1804 39.692 56.8671 36.8742C57.1406 38.4463 58.0815 39.6531 59.3552 40.7267C59.8062 41.0143 60.4717 41.4166 60.9227 41.7042C61.6871 41.9918 62.1372 42.2988 62.8821 42.4329L62.4515 42.4319ZM70.4647 37.3153C70.3289 37.91 70.1912 38.4842 70.0534 39.0789C69.7595 39.8076 69.3288 40.5548 68.741 41.1484C68.1532 41.7431 67.4082 42.2026 66.6642 42.6438C66.0764 42.9498 65.3314 43.1033 64.7242 43.2559C64.3711 43.2947 63.9598 43.1412 63.6067 43.1228C67.9572 43.0071 70.9352 38.9642 70.2892 34.9582C69.9749 33.7893 69.3482 32.773 68.5839 31.7576C68.2706 31.3165 67.6624 31.0483 67.2123 30.6072C64.4885 28.902 60.8839 29.2469 58.8265 31.4895C58.538 31.7841 58.2694 32.0977 58.0224 32.4281C59.1204 30.8181 60.8839 29.6881 62.9995 29.3616C63.7445 29.3422 64.5088 29.4772 65.2529 29.6113C68.5451 30.6072 70.9944 33.7893 70.4647 37.3163V37.3153Z" fill="#D7DF23"/>
</g>
<defs>
<clipPath id="clip0_3700_2624">
<rect width="91" height="32" fill="white" transform="translate(47 20)"/>
</clipPath>
</defs>
</svg>
