<svg width="184" height="72" viewBox="0 0 184 72" fill="none" xmlns="http://www.w3.org/2000/svg">
<rect width="184" height="72" fill="#F9FDFE"/>
<g clip-path="url(#clip0_1539_10418)">
<path d="M72.1338 33.7668C72.1338 34.7251 71.4184 35.3249 70.1756 35.3249H67.9654C67.9397 35.3253 67.9142 35.3206 67.8903 35.311C67.8665 35.3014 67.8448 35.2871 67.8266 35.2689C67.8085 35.2508 67.7941 35.2292 67.7845 35.2054C67.7749 35.1816 67.7701 35.1562 67.7706 35.1305V32.3696C67.7701 32.3439 67.7749 32.3185 67.7845 32.2947C67.7941 32.2709 67.8085 32.2493 67.8266 32.2312C67.8448 32.213 67.8665 32.1987 67.8903 32.1891C67.9142 32.1795 67.9397 32.1748 67.9654 32.1753H70.1588C71.3814 32.1753 72.1338 32.698 72.1338 33.73V33.7668ZM76.235 42.1434L73.0944 37.5664C74.7302 36.8729 75.8017 35.5561 75.8017 33.5457V33.5088C75.8284 32.949 75.7392 32.3897 75.5399 31.8657C75.3405 31.3417 75.0352 30.8643 74.6429 30.4631C73.7595 29.5651 72.3656 29.0391 70.3536 29.0391H64.3176C64.2919 29.0386 64.2664 29.0433 64.2426 29.0529C64.2187 29.0625 64.1971 29.0768 64.1789 29.095C64.1607 29.1131 64.1464 29.1347 64.1367 29.1585C64.1271 29.1823 64.1224 29.2078 64.1228 29.2334V41.9658C64.1224 41.9915 64.1271 42.0169 64.1367 42.0407C64.1464 42.0645 64.1607 42.0861 64.1789 42.1042C64.1971 42.1224 64.2187 42.1367 64.2426 42.1463C64.2664 42.1559 64.2919 42.1606 64.3176 42.1602H67.5892C67.6152 42.1611 67.6411 42.1567 67.6653 42.1473C67.6896 42.1379 67.7116 42.1237 67.7302 42.1055C67.7487 42.0873 67.7634 42.0655 67.7732 42.0415C67.783 42.0175 67.7879 41.9918 67.7874 41.9658V38.3739C67.7865 38.348 67.7909 38.3222 67.8003 38.298C67.8097 38.2738 67.824 38.2518 67.8422 38.2333C67.8604 38.2148 67.8822 38.2002 67.9063 38.1904C67.9304 38.1806 67.9562 38.1758 67.9822 38.1762H69.3661C69.3661 38.1762 69.3862 38.1762 69.4937 38.3404L71.9289 41.9926C71.964 42.0411 72.0099 42.0808 72.0629 42.1087C72.1159 42.1366 72.1747 42.1519 72.2346 42.1535L76.235 42.1434ZM90.47 35.6164C90.47 37.5095 89.1265 39.1245 87.1111 39.1245C85.0958 39.1245 83.7522 37.4726 83.7522 35.5795V35.5393C83.7522 33.6462 85.0958 32.0312 87.0809 32.0312C89.066 32.0312 90.4633 33.683 90.4633 35.5795L90.47 35.6164ZM94.195 35.5795V35.5393C94.195 31.7698 91.172 28.7476 87.1246 28.7476C83.0771 28.7476 80.0171 31.8033 80.0171 35.5896V35.6264C80.0171 39.3959 83.0401 42.4182 87.091 42.4182C91.1418 42.4182 94.1984 39.359 94.1984 35.5896M105.746 36.7924C105.746 36.7924 105.82 36.9767 105.622 36.9767H103.066C103.066 36.9767 102.868 36.9767 102.938 36.7924L104.282 33.4418C104.282 33.4418 104.352 33.2609 104.426 33.4418L105.746 36.7924ZM107.762 41.9725C107.785 42.0253 107.823 42.0703 107.871 42.1023C107.92 42.1344 107.976 42.1521 108.034 42.1535H111.55C111.55 42.1535 111.745 42.1535 111.671 41.9725L106.217 29.1228C106.193 29.0703 106.155 29.0255 106.106 28.9935C106.058 28.9615 106.002 28.9437 105.944 28.9419H102.817C102.76 28.9437 102.703 28.9615 102.655 28.9935C102.607 29.0255 102.569 29.0703 102.545 29.1228L97.0904 41.9725C97.0904 41.9725 97.0165 42.1535 97.2113 42.1535H100.654C100.712 42.1519 100.767 42.134 100.815 42.102C100.863 42.0699 100.9 42.025 100.923 41.9725L101.719 39.9923C101.742 39.9398 101.779 39.8949 101.827 39.8629C101.875 39.8308 101.93 39.813 101.988 39.8114H106.69C106.748 39.8131 106.804 39.831 106.852 39.863C106.9 39.895 106.938 39.9398 106.962 39.9923L107.762 41.9725ZM124.613 35.6063C124.613 37.7273 123.166 38.9268 120.982 38.9268H119.686C119.66 38.9272 119.634 38.9225 119.611 38.9129C119.587 38.9033 119.565 38.889 119.547 38.8709C119.529 38.8527 119.514 38.8311 119.505 38.8074C119.495 38.7836 119.49 38.7581 119.491 38.7325V32.4433C119.49 32.4177 119.495 32.3922 119.505 32.3684C119.514 32.3446 119.529 32.323 119.547 32.3049C119.565 32.2867 119.587 32.2724 119.611 32.2628C119.634 32.2532 119.66 32.2485 119.686 32.249H120.976C123.159 32.249 124.606 33.4686 124.606 35.5695L124.613 35.6063ZM128.355 35.5493V35.5125C128.355 31.7229 125.628 29.0223 120.925 29.0223H116.038C116.012 29.0219 115.987 29.0266 115.963 29.0362C115.939 29.0458 115.917 29.0601 115.899 29.0782C115.881 29.0964 115.867 29.118 115.857 29.1417C115.847 29.1655 115.843 29.191 115.843 29.2166V41.9491C115.843 41.9747 115.847 42.0002 115.857 42.024C115.867 42.0477 115.881 42.0694 115.899 42.0875C115.917 42.1056 115.939 42.1199 115.963 42.1295C115.987 42.1391 116.012 42.1439 116.038 42.1434H120.845C125.584 42.1434 128.348 39.3289 128.348 35.5393M133.128 41.9491C133.128 41.9747 133.132 42.0002 133.142 42.024C133.152 42.0477 133.166 42.0694 133.184 42.0875C133.202 42.1056 133.224 42.1199 133.248 42.1295C133.272 42.1391 133.297 42.1439 133.323 42.1434H136.598C136.623 42.1439 136.649 42.1391 136.673 42.1295C136.697 42.1199 136.718 42.1056 136.737 42.0875C136.755 42.0694 136.769 42.0477 136.779 42.024C136.788 42.0002 136.793 41.9747 136.793 41.9491V29.2166C136.793 29.191 136.788 29.1655 136.779 29.1417C136.769 29.118 136.755 29.0964 136.737 29.0782C136.718 29.0601 136.697 29.0458 136.673 29.0362C136.649 29.0266 136.623 29.0219 136.598 29.0223H133.323C133.297 29.0219 133.272 29.0266 133.248 29.0362C133.224 29.0458 133.202 29.0601 133.184 29.0782C133.166 29.0964 133.152 29.118 133.142 29.1417C133.132 29.1655 133.128 29.191 133.128 29.2166V41.9491ZM145.831 39.0474C145.805 39.0483 145.779 39.044 145.755 39.0346C145.731 39.0252 145.709 39.0109 145.69 38.9927C145.672 38.9746 145.657 38.9528 145.647 38.9288C145.638 38.9048 145.633 38.879 145.633 38.8531V37.1644C145.633 37.1384 145.638 37.1127 145.647 37.0886C145.657 37.0646 145.672 37.0429 145.69 37.0247C145.709 37.0065 145.731 36.9923 145.755 36.9829C145.779 36.9735 145.805 36.9691 145.831 36.97H151.756C151.783 36.9705 151.809 36.9657 151.833 36.9559C151.857 36.9461 151.879 36.9316 151.898 36.9131C151.916 36.8947 151.931 36.8727 151.94 36.8485C151.95 36.8243 151.955 36.7984 151.955 36.7723V34.3029C151.955 34.2768 151.95 34.2509 151.94 34.2267C151.931 34.2025 151.916 34.1806 151.898 34.1621C151.879 34.1437 151.857 34.1291 151.833 34.1193C151.809 34.1096 151.783 34.1048 151.756 34.1052H145.831C145.805 34.1061 145.779 34.1018 145.755 34.0924C145.731 34.083 145.709 34.0687 145.69 34.0506C145.672 34.0324 145.657 34.0106 145.647 33.9866C145.638 33.9626 145.633 33.9368 145.633 33.9109V32.3126C145.633 32.2867 145.638 32.2609 145.647 32.2369C145.657 32.2129 145.672 32.1912 145.69 32.173C145.709 32.1548 145.731 32.1406 145.755 32.1312C145.779 32.1218 145.805 32.1174 145.831 32.1183H152.415C152.441 32.1188 152.467 32.1139 152.491 32.1042C152.515 32.0944 152.537 32.0799 152.556 32.0614C152.574 32.043 152.589 32.021 152.599 31.9968C152.609 31.9726 152.613 31.9467 152.613 31.9206V29.2166C152.613 29.1907 152.609 29.165 152.599 29.1409C152.589 29.1169 152.574 29.0952 152.556 29.077C152.537 29.0588 152.515 29.0446 152.491 29.0352C152.467 29.0258 152.441 29.0214 152.415 29.0223H142.221C142.195 29.0214 142.169 29.0258 142.144 29.0352C142.12 29.0446 142.098 29.0588 142.08 29.077C142.061 29.0952 142.046 29.1169 142.037 29.1409C142.027 29.165 142.022 29.1907 142.022 29.2166V41.9491C142.022 41.975 142.027 42.0008 142.037 42.0248C142.046 42.0488 142.061 42.0705 142.08 42.0887C142.098 42.1069 142.12 42.1211 142.144 42.1305C142.169 42.1399 142.195 42.1443 142.221 42.1434H152.509C152.535 42.1443 152.561 42.1399 152.585 42.1305C152.609 42.1211 152.631 42.1069 152.65 42.0887C152.668 42.0705 152.683 42.0488 152.693 42.0248C152.703 42.0008 152.708 41.975 152.707 41.9491V39.2552C152.707 39.2291 152.703 39.2032 152.693 39.179C152.683 39.1548 152.668 39.1328 152.65 39.1144C152.632 39.0959 152.609 39.0814 152.585 39.0716C152.561 39.0618 152.535 39.057 152.509 39.0575L145.831 39.0474Z" fill="#351C13"/>
<path d="M45.8335 49.8197C43.0113 49.8197 40.2525 48.9848 37.906 47.4207C35.5595 45.8565 33.7306 43.6333 32.6508 41.0323C31.5709 38.4313 31.2885 35.5692 31.8394 32.8081C32.3902 30.047 33.7495 27.5108 35.7453 25.5204C37.7411 23.5299 40.2839 22.1746 43.0519 21.6258C45.82 21.0769 48.689 21.3593 51.2962 22.4371C53.9034 23.5149 56.1316 25.3398 57.6991 27.6809C59.2665 30.022 60.1028 32.7743 60.1021 35.5895C60.1021 37.4585 59.733 39.3092 59.0159 41.0359C58.2988 42.7626 57.2478 44.3315 55.9228 45.6529C54.5978 46.9744 53.0248 48.0225 51.2936 48.7374C49.5625 49.4524 47.7072 49.8201 45.8335 49.8197Z" fill="#76CCCD"/>
<path d="M52.0676 33.1235C52.0676 33.1235 52.5345 28.9922 46.5892 28.9922H40.2577C40.2304 28.9917 40.2032 28.9968 40.178 29.0071C40.1527 29.0174 40.1297 29.0327 40.1106 29.0522C40.0914 29.0716 40.0764 29.0947 40.0665 29.1201C40.0565 29.1455 40.0519 29.1727 40.0528 29.1999V35.3115H31.575C31.575 35.4053 31.575 35.4957 31.575 35.5896C31.575 35.9246 31.575 36.2597 31.6119 36.5947H48.4937C50.5359 36.578 52.0676 35.5192 52.0676 33.1235ZM48.4668 33.6763C48.4668 34.6815 47.7178 35.3115 46.4112 35.3115H44.0768C44.0497 35.3119 44.0229 35.3069 43.9978 35.2968C43.9728 35.2867 43.95 35.2717 43.9309 35.2526C43.9118 35.2335 43.8967 35.2108 43.8865 35.1858C43.8764 35.1608 43.8714 35.134 43.8719 35.1071V32.2088C43.871 32.1815 43.8756 32.1544 43.8855 32.129C43.8955 32.1036 43.9105 32.0805 43.9296 32.061C43.9488 32.0416 43.9717 32.0263 43.997 32.016C44.0223 32.0056 44.0494 32.0006 44.0768 32.001H46.3944C47.6775 32.001 48.4668 32.5539 48.4668 33.6361V33.6763Z" fill="#351C13"/>
<path d="M40.2578 42.4852H43.6771C43.7044 42.4861 43.7317 42.4814 43.7571 42.4715C43.7826 42.4616 43.8057 42.4467 43.8252 42.4275C43.8447 42.4084 43.8601 42.3856 43.8704 42.3603C43.8808 42.3351 43.8859 42.308 43.8854 42.2808V38.5046C43.8853 38.4633 43.8973 38.4229 43.92 38.3883C43.9427 38.3538 43.975 38.3267 44.013 38.3103H45.5581C45.6032 38.3589 45.6437 38.4117 45.679 38.4678L48.2352 42.3042C48.2718 42.355 48.3196 42.3968 48.3749 42.4264C48.4302 42.456 48.4916 42.4727 48.5543 42.4751H52.773L49.4511 37.9149L49.3167 37.7306C49.1409 37.5259 48.9238 37.3604 48.6795 37.245C48.4353 37.1295 48.1695 37.0666 47.8993 37.0605H31.6489C31.6926 37.4894 31.7598 37.9115 31.8404 38.327H40.0462V42.2808C40.0457 42.3083 40.0509 42.3357 40.0614 42.3611C40.072 42.3866 40.0876 42.4096 40.1075 42.4288C40.1273 42.448 40.1509 42.4629 40.1768 42.4726C40.2026 42.4823 40.2302 42.4865 40.2578 42.4852Z" fill="#351C13"/>
<path d="M95.7737 44.7569H96.5731L98.7396 49.7024H97.8192L97.3188 48.5163H94.9978L94.4939 49.7024H93.6072L95.7737 44.7569ZM97.0097 47.7524L96.1599 45.7889L95.3169 47.7524H97.0097Z" fill="#351C13"/>
<path d="M101.823 47.6183V44.7938H102.69V47.5848C102.69 48.4962 103.16 48.9854 103.932 48.9854C104.705 48.9854 105.168 48.523 105.168 47.6183V44.7938H106.035V47.5781C106.035 49.0424 105.205 49.7795 103.919 49.7795C102.632 49.7795 101.823 49.0424 101.823 47.6183Z" fill="#351C13"/>
<path d="M107.419 44.7938H109.357C110.506 44.7938 111.228 45.4438 111.228 46.4356C111.228 47.5346 110.341 48.1109 109.26 48.1109H108.282V49.689H107.419V44.7938ZM109.286 47.3469C109.958 47.3469 110.351 46.9817 110.351 46.4691C110.351 45.8928 109.935 45.5912 109.286 45.5912H108.279V47.3604L109.286 47.3469Z" fill="#351C13"/>
<path d="M111.927 48.9854L112.447 48.3689C112.862 48.7736 113.418 49.0029 113.999 49.0088C114.533 49.0088 114.872 48.7609 114.872 48.389C114.872 48.0539 114.674 47.8495 113.76 47.6384C112.712 47.3871 112.121 47.0789 112.121 46.1742C112.121 45.3332 112.827 44.7502 113.801 44.7502C114.45 44.7374 115.082 44.956 115.584 45.3667L115.121 46.0201C114.741 45.708 114.269 45.5301 113.777 45.5141C113.273 45.5141 112.978 45.7721 112.978 46.0971C112.978 46.4757 113.203 46.6433 114.143 46.8678C115.185 47.1191 115.725 47.491 115.725 48.3052C115.725 49.2233 115.003 49.7728 113.969 49.7728C113.213 49.7741 112.485 49.4932 111.927 48.9854Z" fill="#351C13"/>
<path d="M118.849 47.2598C118.842 46.925 118.903 46.5922 119.028 46.2814C119.153 45.9706 119.339 45.6882 119.577 45.4512C119.814 45.2143 120.097 45.0276 120.408 44.9026C120.719 44.7775 121.053 44.7165 121.389 44.7234C121.745 44.7099 122.1 44.7709 122.432 44.9025C122.763 45.034 123.064 45.2332 123.313 45.4873L122.759 46.124C122.581 45.9365 122.368 45.7861 122.132 45.6814C121.895 45.5767 121.64 45.5199 121.382 45.5141C121.16 45.5175 120.941 45.5654 120.738 45.655C120.535 45.7446 120.352 45.8742 120.2 46.0358C120.048 46.1975 119.931 46.388 119.855 46.596C119.778 46.804 119.745 47.0252 119.756 47.2464C119.747 47.4678 119.781 47.6889 119.858 47.8969C119.935 48.1048 120.052 48.2955 120.204 48.4578C120.355 48.6202 120.537 48.751 120.739 48.8427C120.941 48.9344 121.16 48.9852 121.382 48.9921C121.648 48.9894 121.912 48.9314 122.154 48.8218C122.397 48.7122 122.615 48.5534 122.793 48.3555L123.347 48.915C123.099 49.1989 122.791 49.4242 122.446 49.5749C122.1 49.7256 121.725 49.7977 121.348 49.7862C121.016 49.7894 120.687 49.726 120.38 49.5998C120.073 49.4736 119.795 49.287 119.562 49.0513C119.329 48.8157 119.146 48.5356 119.023 48.2278C118.901 47.9201 118.842 47.5909 118.849 47.2598Z" fill="#351C13"/>
<path d="M124.019 47.8864C124.019 47.363 124.227 46.861 124.598 46.4909C124.969 46.1208 125.472 45.9128 125.997 45.9128C126.522 45.9128 127.025 46.1208 127.396 46.4909C127.767 46.861 127.975 47.363 127.975 47.8864C127.975 48.1441 127.922 48.3991 127.821 48.6364C127.72 48.8737 127.573 49.0885 127.388 49.2683C127.203 49.448 126.983 49.5891 126.743 49.6832C126.502 49.7773 126.245 49.8226 125.987 49.8163C125.73 49.8226 125.474 49.7773 125.234 49.6829C124.995 49.5886 124.777 49.4472 124.593 49.2672C124.409 49.0871 124.264 48.8721 124.165 48.6349C124.067 48.3977 124.017 48.1432 124.019 47.8864ZM127.126 47.8864C127.132 47.733 127.107 47.5799 127.053 47.4363C126.999 47.2926 126.916 47.1614 126.81 47.0504C126.703 46.9393 126.576 46.8508 126.434 46.7901C126.293 46.7294 126.141 46.6977 125.987 46.6969C125.835 46.6962 125.684 46.7266 125.544 46.7862C125.404 46.8459 125.278 46.9335 125.173 47.0437C125.068 47.1538 124.987 47.2843 124.935 47.4269C124.882 47.5695 124.86 47.7213 124.868 47.873C124.863 48.0258 124.887 48.1783 124.941 48.3215C124.995 48.4647 125.078 48.5957 125.183 48.7068C125.288 48.8179 125.415 48.9068 125.555 48.9685C125.696 49.0301 125.847 49.0632 126 49.0658C126.152 49.0647 126.302 49.0328 126.441 48.9722C126.579 48.9116 126.704 48.8235 126.808 48.7132C126.912 48.6029 126.992 48.4727 127.044 48.3306C127.095 48.1884 127.117 48.0373 127.109 47.8864H127.126Z" fill="#351C13"/>
<path d="M128.929 46H129.779V46.5461C129.898 46.3532 130.065 46.1936 130.263 46.0822C130.461 45.9709 130.684 45.9114 130.911 45.9095C131.139 45.8986 131.365 45.9543 131.561 46.0698C131.757 46.1853 131.915 46.3555 132.016 46.5595C132.157 46.3573 132.344 46.1925 132.563 46.0792C132.782 45.9659 133.026 45.9076 133.272 45.9095C134.082 45.9095 134.576 46.4221 134.576 47.3268V49.6723H133.722V47.5982C133.722 47.0085 133.45 46.6935 132.97 46.6935C132.49 46.6935 132.177 47.0286 132.177 47.6116V49.7024H131.327V47.5915C131.327 47.0152 131.045 46.6935 130.575 46.6935C130.105 46.6935 129.779 47.0286 129.779 47.6183V49.7024H128.929V46Z" fill="#351C13"/>
<path d="M135.741 46H136.591V46.6165C136.725 46.4041 136.911 46.229 137.131 46.1077C137.351 45.9865 137.599 45.9229 137.851 45.9229C138.727 45.9229 139.58 46.6165 139.58 47.8428C139.58 49.0692 138.737 49.7661 137.851 49.7661C137.602 49.7663 137.356 49.7052 137.137 49.5883C136.917 49.4714 136.73 49.3023 136.591 49.096V50.7947H135.741V46ZM138.714 47.8562C138.726 47.7082 138.707 47.5594 138.66 47.4187C138.612 47.278 138.537 47.1484 138.437 47.0378C138.338 46.9272 138.217 46.8379 138.082 46.7752C137.947 46.7126 137.801 46.678 137.652 46.6735C137.503 46.6781 137.356 46.7127 137.22 46.7751C137.084 46.8375 136.962 46.9264 136.861 47.0367C136.76 47.147 136.682 47.2764 136.633 47.4172C136.583 47.5579 136.562 47.7072 136.571 47.8562C136.561 48.0056 136.581 48.1555 136.631 48.2968C136.68 48.4382 136.758 48.5681 136.859 48.6789C136.96 48.7897 137.082 48.8789 137.218 48.9414C137.355 49.0038 137.502 49.0382 137.652 49.0424C137.802 49.0398 137.95 49.0064 138.086 48.9442C138.222 48.882 138.344 48.7924 138.443 48.681C138.543 48.5696 138.619 48.4388 138.665 48.2968C138.712 48.1549 138.728 48.0049 138.714 47.8562Z" fill="#351C13"/>
<path d="M142.828 49.7024V49.2467C142.682 49.4212 142.498 49.5599 142.289 49.6522C142.081 49.7445 141.854 49.7881 141.626 49.7795C140.924 49.7795 140.306 49.3774 140.306 48.6369C140.306 47.8194 140.944 47.424 141.811 47.424C142.155 47.4104 142.499 47.4534 142.828 47.5513V47.4809C142.828 46.9717 142.493 46.6902 141.915 46.6902C141.549 46.6911 141.187 46.7699 140.853 46.9214L140.622 46.2513C141.063 46.0423 141.547 45.9368 142.036 45.943C143.131 45.943 143.665 46.5193 143.665 47.5078V49.7024H142.828ZM142.849 48.1511C142.576 48.052 142.289 48.0021 141.999 48.0036C141.465 48.0036 141.149 48.2214 141.149 48.58C141.149 48.915 141.465 49.1261 141.864 49.1261C142.429 49.1261 142.849 48.8111 142.849 48.3488V48.1511Z" fill="#351C13"/>
<path d="M144.807 46H145.657V46.573C145.777 46.3736 145.947 46.2089 146.15 46.0949C146.353 45.981 146.582 45.9217 146.816 45.9229C147.652 45.9229 148.139 46.4825 148.139 47.347V49.6924H147.286V47.5982C147.286 47.0219 147 46.6936 146.493 46.6936C146.375 46.6908 146.258 46.7134 146.15 46.7597C146.041 46.8061 145.944 46.8751 145.865 46.9622C145.785 47.0492 145.726 47.1523 145.69 47.2643C145.654 47.3764 145.643 47.4948 145.657 47.6117V49.7024H144.807V46Z" fill="#351C13"/>
<path d="M148.972 50.6205L149.257 49.9906C149.41 50.0767 149.582 50.1239 149.758 50.128C149.996 50.128 150.144 50.0241 150.285 49.7024L148.74 46.0167H149.647L150.698 48.7642L151.662 46.0167H152.549L151.071 49.823C150.775 50.5803 150.446 50.8617 149.848 50.8617C149.54 50.8616 149.237 50.7782 148.972 50.6205Z" fill="#351C13"/>
</g>
<defs>
<clipPath id="clip0_1539_10418">
<rect width="122" height="30" fill="white" transform="translate(31 21)"/>
</clipPath>
</defs>
</svg>
