<svg width="184" height="72" viewBox="0 0 184 72" fill="none" xmlns="http://www.w3.org/2000/svg">
<rect width="184" height="72" fill="#F9FDFE"/>
<g clip-path="url(#clip0_3700_2544)">
<path d="M93.3831 50.8775C99.8449 50.5672 106.141 48.2057 110.225 44.5609C110.925 43.9353 111.685 43.1305 112.199 42.4676C113.495 40.799 114.236 39.1463 114.528 37.2734C114.582 36.9252 114.589 36.7802 114.589 35.9997C114.589 35.0472 114.561 34.7567 114.397 34.0214C113.772 31.2128 111.871 28.5728 108.856 26.3261C105.076 23.5084 99.8268 21.6367 94.4543 21.1909C89.9031 20.8133 85.1312 21.5175 80.8808 23.194C76.4261 24.9511 72.9294 27.596 71.0089 30.6609C70.1899 31.9681 69.7002 33.2634 69.4722 34.726C69.4179 35.0742 69.4109 35.2193 69.4109 35.9997C69.4109 36.9522 69.4391 37.2427 69.6028 37.978C70.2285 40.787 72.1288 43.4264 75.1435 45.6734C78.9282 48.4943 84.16 50.3586 89.5592 50.8101C90.6562 50.9018 92.2802 50.9304 93.3831 50.8775Z" fill="white"/>
<path d="M75.9314 41.7828C74.5421 41.6869 73.5126 41.2845 72.7254 40.5294C71.9115 39.7488 71.419 38.6829 71.2211 37.2734C71.1621 36.8533 71.1539 35.5521 71.2073 35.0918C71.4031 33.404 71.9078 32.2054 72.7874 31.3383C73.1075 31.0228 73.4606 30.7764 73.911 30.5541C74.6792 30.1749 75.4693 30.0084 76.5009 30.0083C78.5716 30.0082 80.2244 30.8947 80.9764 32.4089C81.2395 32.9386 81.4365 33.6477 81.4464 34.1004L81.4503 34.2788H78.4958L78.4319 34.0353C78.2256 33.249 77.8028 32.7424 77.1925 32.55C76.9377 32.4697 76.2667 32.4646 75.9721 32.5407C75.6582 32.6218 75.3588 32.7846 75.1291 32.9989C74.6936 33.4053 74.4534 33.8797 74.2837 34.669C74.2124 35.0004 74.2102 35.0367 74.2097 35.8913C74.2094 36.8396 74.2339 37.1056 74.3715 37.6346C74.6095 38.5501 75.1291 39.1253 75.8805 39.3053C76.1922 39.38 76.6833 39.3806 76.9725 39.3068C77.6762 39.1269 78.2335 38.5232 78.4158 37.7433C78.4396 37.6414 78.4673 37.5275 78.4773 37.4903L78.4955 37.4225H81.4232L81.4314 37.5199C81.4433 37.6627 81.3409 38.1309 81.2162 38.5037C80.596 40.3577 79.1584 41.507 77.1654 41.7424C76.8924 41.7746 76.1603 41.7985 75.9314 41.7828ZM87.5794 41.781C85.7977 41.6691 84.3054 40.9297 83.3772 39.699C82.9644 39.1517 82.6416 38.4573 82.4535 37.7119C82.2291 36.8229 82.1868 35.5712 82.348 34.5906C82.7505 32.1424 84.3807 30.5123 86.8472 30.0917C87.4731 29.9849 88.3869 29.9795 89.0248 30.0787C91.4387 30.4541 93.0817 32.0098 93.5583 34.3713C93.6867 35.0075 93.7339 36.0092 93.6671 36.6813C93.4117 39.25 91.9587 41.0062 89.602 41.5946C88.9693 41.7526 88.2222 41.8214 87.5794 41.781ZM88.7115 39.2283C89.1549 39.1113 89.4425 38.9597 89.7386 38.6871C90.2836 38.1851 90.5974 37.3638 90.6546 36.2892C90.7129 35.1946 90.5458 34.285 90.1685 33.6421C89.9232 33.2242 89.6106 32.9367 89.1795 32.7322C88.8732 32.5869 88.6929 32.5395 88.2913 32.4984C87.9404 32.4626 87.481 32.4933 87.1726 32.5732C86.9259 32.6372 86.4888 32.8614 86.291 33.0254C85.8549 33.3871 85.5414 33.9754 85.3799 34.7353C85.3197 35.0183 85.3078 35.1554 85.2955 35.7058C85.2759 36.5806 85.3267 36.9914 85.5282 37.5881C85.8511 38.5447 86.5275 39.133 87.471 39.2781C87.7492 39.3208 88.4704 39.2919 88.7115 39.2283ZM104.496 41.772C103.457 41.6636 102.638 41.2399 102.1 40.532C101.93 40.3084 101.717 39.8773 101.641 39.6042C101.47 38.9851 101.458 38.1411 101.614 37.5138C101.921 36.2728 102.786 35.4408 104.149 35.0775C104.336 35.0276 105.039 34.9086 105.982 34.7669C106.824 34.6406 107.59 34.5182 107.685 34.4951C108.017 34.4142 108.266 34.2394 108.381 34.0071C108.462 33.8453 108.455 33.3644 108.37 33.1466C108.29 32.9436 108.067 32.7019 107.855 32.5889C107.559 32.4314 107.335 32.3897 106.713 32.3759C106.057 32.3614 105.868 32.3903 105.531 32.5564C105.093 32.7721 104.856 33.108 104.736 33.6828L104.691 33.8996H103.281H101.872L101.88 33.7505C101.894 33.5072 102.016 32.9464 102.128 32.6093C102.329 32.0085 102.586 31.5829 102.995 31.1726C103.377 30.7892 103.778 30.5416 104.328 30.3498C105.029 30.1052 105.73 30.0088 106.808 30.0089C107.712 30.009 108.354 30.0992 109.033 30.3219C110.333 30.7478 111.056 31.4884 111.289 32.6329C111.326 32.8147 111.334 33.326 111.349 36.4741C111.366 39.8485 111.371 40.119 111.416 40.2952C111.511 40.6645 111.685 40.9274 111.89 41.0122C111.933 41.0302 111.976 41.0714 111.984 41.1037C112.01 41.1982 112.003 41.392 111.973 41.4488C111.946 41.4997 111.899 41.5012 110.385 41.5012H108.825L108.786 41.4081C108.717 41.2424 108.617 40.817 108.582 40.5391C108.564 40.3901 108.539 40.2573 108.527 40.2441C108.515 40.2308 108.386 40.3323 108.24 40.4695C107.443 41.2167 106.715 41.5831 105.735 41.7292C105.395 41.7799 104.776 41.8013 104.496 41.772ZM106.322 39.6435C107.399 39.4559 108.207 38.7818 108.404 37.9051C108.44 37.7487 108.448 37.5483 108.448 36.8956C108.448 36.3593 108.439 36.0811 108.421 36.0811C108.405 36.0811 108.347 36.1108 108.292 36.1472C108.029 36.3185 107.481 36.4731 106.563 36.6349C105.913 36.7496 105.585 36.8349 105.312 36.9609C105.037 37.0882 104.857 37.2256 104.717 37.4149C104.57 37.6142 104.5 37.8016 104.46 38.0979C104.358 38.8659 104.732 39.4564 105.438 39.6426C105.636 39.6949 106.026 39.6952 106.322 39.6435ZM94.6894 41.4831C94.6794 41.4732 94.6713 38.9562 94.6713 35.8898C94.6713 30.8309 94.6753 30.313 94.7142 30.2981C94.7916 30.2684 97.3827 30.2795 97.4393 30.3097C97.4896 30.3366 97.4918 30.3761 97.4918 31.2718C97.4918 31.8259 97.502 32.2058 97.5169 32.2058C97.5306 32.2058 97.6292 32.0534 97.7358 31.8671C98.3477 30.7981 98.8998 30.3197 99.7888 30.0882C99.9974 30.0339 100.094 30.0259 100.556 30.0251C100.847 30.0246 101.107 30.033 101.133 30.0438C101.178 30.0622 101.18 30.1523 101.174 31.5333L101.167 33.0033L100.583 32.9952C99.7298 32.9834 99.3234 33.0515 98.8333 33.2888C98.2473 33.5725 97.866 34.0799 97.6921 34.8074C97.6473 34.9949 97.6424 35.26 97.6287 38.2221C97.6205 39.9883 97.6039 41.4487 97.5919 41.4673C97.5748 41.4937 97.2539 41.5012 96.1387 41.5012C95.3515 41.5012 94.6993 41.4931 94.6894 41.4831Z" fill="#EB212E"/>
<path d="M90.8474 55.9709C87.7647 55.8082 84.4633 55.0431 81.4374 53.7903C76.8555 51.8932 73.1661 49.0319 70.8678 45.5932C69.9455 44.2133 69.2076 42.6736 68.7443 41.1623C68.3791 39.9711 68.1412 38.717 68.035 37.4225C67.9883 36.854 67.9883 35.1454 68.035 34.5769C68.2812 31.576 69.2193 28.8711 70.8684 26.4068C72.848 23.4489 75.8296 20.9308 79.5649 19.0623C83.453 17.1174 87.9903 16 92 16C96.0097 16 100.547 17.1174 104.435 19.0623C108.17 20.9304 111.149 23.4464 113.132 26.4062C114.051 27.7781 114.792 29.3249 115.256 30.8371C115.621 32.0283 115.859 33.2824 115.965 34.5769C116.012 35.1454 116.012 36.854 115.965 37.4225C115.776 39.7321 115.204 41.7788 114.185 43.791C112.842 46.4443 110.793 48.7736 108.055 50.7565C103.255 54.2338 96.532 56.2709 90.8474 55.9709ZM93.3831 50.8774C99.8449 50.5671 106.141 48.2057 110.225 44.5609C110.926 43.9353 111.685 43.1304 112.199 42.4676C113.495 40.799 114.236 39.1463 114.528 37.2734C114.582 36.9252 114.589 36.7801 114.589 35.9997C114.589 35.0472 114.561 34.7567 114.397 34.0214C113.772 31.2128 111.871 28.5727 108.856 26.326C105.076 23.5083 99.8268 21.6367 94.4544 21.1909C89.9031 20.8133 85.1312 21.5175 80.8808 23.194C76.4261 24.951 72.9294 27.5959 71.009 30.6609C70.1899 31.9681 69.7002 33.2634 69.4722 34.726C69.4179 35.0742 69.4109 35.2193 69.4109 35.9997C69.4109 36.9522 69.4391 37.2427 69.6029 37.978C70.2285 40.787 72.1288 43.4263 75.1435 45.6734C78.9282 48.4943 84.1601 50.3585 89.5592 50.81C90.6562 50.9018 92.2802 50.9304 93.3831 50.8774Z" fill="#283F93"/>
</g>
<defs>
<clipPath id="clip0_3700_2544">
<rect width="48" height="40" fill="white" transform="translate(68 16)"/>
</clipPath>
</defs>
</svg>
