<svg width="184" height="72" viewBox="0 0 184 72" fill="none" xmlns="http://www.w3.org/2000/svg">
<rect width="184" height="72" fill="#F9FDFE"/>
<path d="M65.8205 22.6875V31.6995C65.8205 31.6995 68.996 31.6995 70.6955 31.5705C72.032 31.3365 72.278 31.2075 72.524 29.871L73.016 27.9135H74.4695L74.2235 32.1915L74.3525 36.5745H72.887L72.524 34.863C72.161 33.645 71.669 33.3975 70.6955 33.2805C69.4775 33.1515 65.8205 33.1515 65.8205 33.1515V40.71C65.8205 42.1635 66.5585 42.7845 68.258 42.7845H73.379C74.9615 42.7845 76.5425 42.6555 77.528 40.347L78.8525 37.4175H80.0825C79.9535 38.0265 79.3445 43.3935 79.2275 44.601C79.2275 44.601 74.5985 44.484 72.653 44.484H63.875L58.637 44.601V43.2765L60.3365 42.9015C61.5665 42.6555 61.9295 42.2925 61.9295 41.319C61.9295 41.319 62.0585 38.0265 62.0585 32.541C62.0585 27.069 61.9295 23.775 61.9295 23.775C61.9295 22.6845 61.5665 22.4385 60.3365 22.1925L58.637 21.8325V20.496L63.758 20.601H73.508C75.4535 20.601 78.734 20.25 78.734 20.25C78.734 20.25 78.617 22.3125 78.488 27.1875H77.1515L76.6595 25.476C76.1795 23.2845 75.452 22.194 74.105 22.194H66.4415C65.8205 22.1955 65.8205 22.3125 65.8205 22.6875ZM85.5545 23.649H87.02V28.77L92.024 28.524L91.778 30.8445L86.903 30.4695V39.4935C86.903 42.048 87.758 43.032 89.2235 43.032C90.548 43.032 91.532 42.294 91.895 41.685L92.621 42.54C91.895 44.2395 89.8325 45.0945 87.875 45.0945C85.4495 45.0945 83.48 43.641 83.48 40.8405V30.597H80.573V29.379C83.012 29.133 84.8285 27.6675 85.5545 23.649ZM96.0425 39.363L97.0145 41.6835C97.3775 42.6555 98.2325 43.641 100.178 43.641C102.252 43.641 103.107 42.54 103.107 41.2035C103.107 37.0545 94.94 38.274 94.94 32.6715C94.94 29.508 97.4945 28.0305 100.787 28.0305C102.252 28.0305 104.444 28.2765 105.545 28.7685C105.299 29.9865 105.17 31.569 105.17 32.7885L103.962 32.9055L103.107 30.468C102.861 29.871 101.877 29.3775 100.67 29.3775C99.2045 29.3775 97.7405 29.9865 97.7405 31.569C97.7405 35.343 106.154 34.4985 106.154 40.101C106.154 43.2765 103.353 44.976 99.932 44.976C97.3775 44.976 94.811 43.992 94.811 43.992C95.057 42.5385 94.94 40.9575 94.811 39.363H96.0425ZM105.546 51.0585C105.909 49.722 106.155 48.024 106.401 46.4295L107.738 46.3125L108.23 48.867C108.347 49.476 108.71 49.968 109.683 49.968C111.266 49.968 113.34 48.996 115.296 45.585C114.429 43.5105 111.875 36.819 109.554 31.698C108.945 30.351 108.828 30.2325 107.984 29.9865L107.363 29.7525V28.5225L111.03 28.6515L115.53 28.4055V29.625L114.429 29.871C113.574 29.988 113.222 30.468 113.222 30.9615C113.222 31.0905 113.222 31.2075 113.339 31.4535C113.573 32.1915 115.53 37.665 116.996 41.3205C118.203 38.766 120.524 33.036 120.887 32.0625C121.016 31.5705 121.133 31.4535 121.133 31.0905C121.133 30.4695 120.77 30.1065 119.925 29.8725L119.058 29.625V28.407L122.48 28.524L125.643 28.407V29.625L125.034 30.105C123.816 30.597 123.687 30.714 123.206 31.698L117.851 44.2365C114.675 51.432 111.383 52.041 109.073 52.041C107.609 52.0425 106.508 51.6675 105.546 51.0585Z" fill="#F45800"/>
</svg>
