<svg width="184" height="72" viewBox="0 0 184 72" fill="none" xmlns="http://www.w3.org/2000/svg">
<rect width="184" height="72" fill="#F9FDFE"/>
<g clip-path="url(#clip0_1539_10362)">
<path d="M92.1082 43.3469C84.9231 43.3469 79.0921 37.6108 79.0921 30.5301C79.0921 23.4366 84.9231 17.7046 92.1082 17.7046C99.2996 17.7046 105.123 23.4366 105.123 30.5301C105.123 37.6108 99.2996 43.3469 92.1082 43.3469ZM92.1082 11.3008C81.3368 11.3008 72.6021 19.9093 72.6021 30.5301C72.6021 41.1427 81.3368 49.7486 92.1082 49.7486C102.884 49.7486 111.633 41.1427 111.633 30.5301C111.633 19.9093 102.884 11.3008 92.1082 11.3008Z" fill="#CC0000"/>
<path d="M92.1082 23.9407C88.416 23.9407 85.4244 26.8811 85.4244 30.53C85.4244 34.1669 88.4159 37.1161 92.1082 37.1161C95.8039 37.1161 98.802 34.1668 98.802 30.53C98.802 26.8812 95.8039 23.9407 92.1082 23.9407Z" fill="#CC0000"/>
<path d="M74.4658 54.7639H72.3143V53.4557H78.1959V54.7639H76.0444V60.5293H74.4658V54.7639Z" fill="#CC0000"/>
<path d="M77.5122 60.5293H79.1101L79.6736 58.9537H82.3582L82.9013 60.5293H84.5399L81.8553 53.4557H80.2369L77.5122 60.5293ZM81.021 55.1987H81.0408L81.9453 57.7947H80.0866L81.021 55.1987Z" fill="#CC0000"/>
<path d="M85.1626 60.5293H86.742V57.7654H88.3195C89.1146 57.7654 89.4056 58.0921 89.5159 58.8347C89.5973 59.3996 89.5768 60.0833 89.7681 60.5294H91.3457C91.0645 60.1333 91.0749 59.3 91.0443 58.8544C90.9938 58.1401 90.7735 57.3979 89.9987 57.2V57.1804C90.794 56.8636 91.1355 56.2402 91.1355 55.4069C91.1355 54.3378 90.3205 53.4561 89.0339 53.4561H85.1627L85.1626 60.5293ZM86.742 54.6643H88.4716C89.1743 54.6643 89.5567 54.9616 89.5567 55.6444C89.5567 56.3574 89.1743 56.6551 88.4716 56.6551H86.742V54.6643Z" fill="#CC0000"/>
<path d="M97.4085 59.7264C96.8549 60.4308 96.1323 60.6992 95.4382 60.6992C93.2166 60.6992 91.9092 59.062 91.9092 57.0211C91.9092 54.9219 93.2165 53.2881 95.4382 53.2881C96.9057 53.2881 98.2937 54.1796 98.4651 55.7831H96.9561C96.7748 54.9998 96.1817 54.5951 95.4382 54.5951C94.0204 54.5951 93.4867 55.7831 93.4867 57.0211C93.4867 58.2006 94.0204 59.3888 95.4382 59.3888C96.464 59.3888 97.056 58.8443 97.1469 57.863H95.5591V56.7053H98.5747V60.5293H97.5685L97.4085 59.7264Z" fill="#CC0000"/>
<path d="M99.6509 53.4557H105.018V54.7639H101.229V56.2789H104.707V57.4886H101.229V59.2211H105.099V60.5293H99.6509V53.4557Z" fill="#CC0000"/>
<path d="M107.955 54.7639H105.803V53.4557H111.686V54.7639H109.533V60.5293H107.955V54.7639Z" fill="#CC0000"/>
</g>
<defs>
<clipPath id="clip0_1539_10362">
<rect width="40" height="50" fill="white" transform="translate(72 11)"/>
</clipPath>
</defs>
</svg>
