<svg width="184" height="72" viewBox="0 0 184 72" fill="none" xmlns="http://www.w3.org/2000/svg">
<rect width="184" height="72" fill="#F9FDFE"/>
<g clip-path="url(#clip0_1539_10365)">
<path d="M102.08 36.9647C102.08 34.002 100.803 31.3844 96.4836 31.3844C94.2676 31.3844 92.5071 32.0116 91.5527 32.5606L92.2523 34.9374C93.131 34.39 94.5332 33.9392 95.8566 33.9392C98.0433 33.9361 98.4016 35.1644 98.4016 35.9541V36.1443C93.6282 36.1366 90.6107 37.7744 90.6107 41.1097C90.6107 43.1476 92.1427 45.0583 94.8205 45.0583C96.4543 45.0583 97.8348 44.4035 98.6595 43.37H98.7398C98.7398 43.37 99.2835 45.6288 102.29 44.7654C102.137 43.8193 102.08 42.8225 102.08 41.6111V36.9647ZM98.519 40.093C98.519 40.3322 98.499 40.5806 98.4279 40.7938C98.153 41.7062 97.2048 42.4698 96.0249 42.4698C95.029 42.4698 94.2475 41.9101 94.2475 40.737C94.2475 38.9429 96.2427 38.4491 98.519 38.4614" fill="#0071CE"/>
<path d="M29 27.3533C29 27.3533 32.1179 40.0197 32.6136 42.0715C33.1973 44.4698 34.2428 45.3562 37.2604 44.7658L39.2093 36.9114C39.7019 34.9654 40.037 33.57 40.3551 31.5872H40.4091C40.63 33.5899 40.9481 34.9654 41.3512 36.9175C41.3512 36.9175 42.1464 40.4859 42.5588 42.3552C42.9603 44.2245 44.0907 45.4037 47.0511 44.7658L51.6902 27.3533H47.9452L46.3531 34.8857C45.9315 37.0678 45.5485 38.7868 45.2505 40.7865H45.1964C44.9277 38.8083 44.5864 37.1598 44.1479 35.0221L42.4986 27.3533H38.5915L36.831 34.8259C36.3291 37.1077 35.8597 38.9371 35.5647 40.8739H35.5138C35.2096 39.0567 34.7972 36.7427 34.3602 34.5468C34.3602 34.5468 33.3147 29.1965 32.9456 27.3533" fill="#0071CE"/>
<path d="M62.1265 36.9647C62.1265 34.002 60.8462 31.3844 56.5269 31.3844C54.3171 31.3844 52.5535 32.0116 51.5992 32.5606L52.2987 34.9374C53.1743 34.39 54.575 33.9392 55.9031 33.9392C58.0897 33.9361 58.448 35.1644 58.448 35.9541V36.1443C53.6747 36.1366 50.6541 37.7744 50.6541 41.1097C50.6541 43.1476 52.1922 45.0583 54.8576 45.0583C56.5068 45.0583 57.8751 44.4035 58.6998 43.37H58.7831C58.7831 43.37 59.3298 45.6288 62.3334 44.7654C62.179 43.8193 62.1265 42.8225 62.1265 41.6111V36.9647ZM58.5623 40.093C58.5623 40.3322 58.5423 40.5806 58.4743 40.7938C58.1962 41.7062 57.2481 42.4698 56.0652 42.4698C55.0753 42.4698 54.2908 41.9101 54.2908 40.737C54.2908 38.9429 56.286 38.4491 58.5623 38.4614" fill="#0071CE"/>
<path d="M64.0698 27.3533V44.7597H67.634V41.0686V27.3533H64.0698Z" fill="#0071CE"/>
<path d="M113.019 27.3533V40.1961C113.019 41.9688 113.354 43.2047 114.075 43.9623C114.708 44.6263 115.745 45.0587 116.979 45.0587C118.038 45.0587 119.074 44.8563 119.564 44.6799L119.52 41.9151C119.154 41.9994 118.736 42.0715 118.161 42.0715C116.945 42.0715 116.543 41.3063 116.543 39.7146V34.7983H119.647V31.4722H116.543V27.3533" fill="#0071CE"/>
<path d="M103.807 31.6864V44.7653H107.492V38.0671C107.492 37.7068 107.515 37.3955 107.572 37.1072C107.847 35.6949 108.926 34.8008 110.481 34.8008C110.915 34.8008 111.21 34.8484 111.538 34.899V31.4702C111.263 31.4211 111.076 31.395 110.738 31.395C109.359 31.395 107.796 32.2645 107.136 34.1583H107.045V31.6864" fill="#0071CE"/>
<path d="M69.7037 31.6864V44.7653H73.2941V37.0888C73.2941 36.7284 73.3343 36.3604 73.4625 36.0276C73.7544 35.2502 74.4786 34.35 75.6415 34.35C77.0869 34.35 77.7695 35.5615 77.7695 37.3096V44.7653H81.3507V36.9968C81.3507 36.6579 81.3986 36.2423 81.4989 35.9418C81.7862 35.06 82.5707 34.35 83.6548 34.35C85.1157 34.35 85.823 35.5354 85.823 37.5964V44.7653H89.401V37.0535C89.401 33.0021 87.3255 31.395 84.9689 31.395C83.9328 31.395 83.1081 31.648 82.3668 32.1019C81.7398 32.4838 81.1901 33.022 80.6974 33.7259H80.6434C80.0767 32.3182 78.7455 31.395 77.0066 31.395C74.7767 31.395 73.7636 32.5129 73.1675 33.4575H73.1134V31.6864" fill="#0071CE"/>
<path d="M138.93 31.0994C139.635 31.0994 140.228 30.7345 140.305 30.2652L141.003 22.4139C141.003 21.6364 140.081 21 138.93 21C137.774 21 136.858 21.6364 136.858 22.4139L137.562 30.2652C137.636 30.7345 138.226 31.0994 138.93 31.0994Z" fill="#FFC220"/>
<path d="M134.648 33.5562C134.997 32.9428 134.976 32.262 134.6 31.9584L128.083 27.4331C127.405 27.0405 126.39 27.5082 125.81 28.4989C125.23 29.4879 125.348 30.5982 126.012 30.9831L133.227 34.3046C133.689 34.4763 134.292 34.1573 134.648 33.5501" fill="#FFC220"/>
<path d="M143.212 33.5497C143.581 34.157 144.185 34.476 144.634 34.3134L151.849 30.9827C152.52 30.5902 152.62 29.4906 152.053 28.5016C151.474 27.5109 150.453 27.0463 149.777 27.4312L143.259 31.9519C142.897 32.2601 142.871 32.944 143.22 33.5559" fill="#FFC220"/>
<path d="M138.93 40.9067C139.635 40.9067 140.228 41.2717 140.305 41.7409L141.003 49.5923C141.003 50.3698 140.081 51 138.93 51C137.774 51 136.858 50.3698 136.858 49.5923L137.562 41.7409C137.636 41.2717 138.226 40.9067 138.93 40.9067Z" fill="#FFC220"/>
<path d="M143.212 38.4568C143.581 37.848 144.185 37.5229 144.634 37.6993L151.849 41.0238C152.52 41.4087 152.62 42.5174 152.053 43.508C151.474 44.491 150.453 44.9587 149.777 44.5738L143.259 40.047C142.897 39.7418 142.871 39.061 143.22 38.4568" fill="#FFC220"/>
<path d="M134.648 38.4501C134.997 39.062 134.976 39.7413 134.6 40.048L128.083 44.5671C127.405 44.9597 126.39 44.4905 125.81 43.5075C125.23 42.5184 125.348 41.4082 126.012 41.0233L133.227 37.6987C133.689 37.5239 134.292 37.846 134.648 38.4501Z" fill="#FFC220"/>
<path d="M153.961 43.8849H154.05C154.172 43.8849 154.222 43.9232 154.236 44.0198C154.262 44.1272 154.276 44.1992 154.302 44.2299H154.534C154.514 44.2069 154.487 44.1486 154.473 44.0137C154.447 43.8971 154.387 43.8312 154.302 43.8082V43.7867C154.419 43.7607 154.487 43.6825 154.487 43.5859C154.487 43.4984 154.447 43.4356 154.407 43.3957C154.33 43.3589 154.256 43.3298 154.092 43.3298C153.947 43.3298 153.84 43.342 153.755 43.362V44.2299H153.961V43.8849ZM153.967 43.4892L154.072 43.4754C154.195 43.4754 154.262 43.5322 154.262 43.6119C154.262 43.7009 154.172 43.7423 154.058 43.7423H153.967V43.4892ZM154.098 42.9004C153.592 42.9004 153.19 43.293 153.19 43.7745C153.19 44.2682 153.592 44.6608 154.098 44.6608C154.611 44.6608 155 44.2682 155 43.7745C155 43.293 154.611 42.9004 154.098 42.9004ZM154.098 43.0767C154.487 43.0767 154.776 43.3896 154.776 43.7745C154.776 44.1624 154.487 44.4845 154.098 44.4783C153.709 44.4783 153.414 44.1624 153.414 43.7745C153.414 43.3896 153.709 43.0767 154.092 43.0767" fill="#FFC220"/>
</g>
<defs>
<clipPath id="clip0_1539_10365">
<rect width="126" height="30" fill="white" transform="translate(29 21)"/>
</clipPath>
</defs>
</svg>
