<svg width="24" height="48" viewBox="0 0 24 48" fill="none" xmlns="http://www.w3.org/2000/svg">
<path d="M20.0305 46.7567L14.4922 45.3717C13.6155 45.1517 13.0005 44.365 13.0005 43.46V37.9983C13.0005 37.1567 13.3489 36.3967 13.9072 35.8517C16.6405 35.4283 19.0722 34.1083 20.8822 32.2083C23.4839 29.4767 24.5089 25.63 23.7639 21.9567L21.0005 9H17.0005V4C17.0005 3.44833 16.5522 3 16.0005 3C15.4489 3 15.0005 3.44833 15.0005 4V11C15.0005 11.5517 14.5522 12 14.0005 12C13.4489 12 13.0005 11.5517 13.0005 11V10C13.0005 9.44833 12.5522 9 12.0005 9C11.4489 9 11.0005 9.44833 11.0005 10V16.7583C11.7655 16.2467 12.6955 15.9617 13.6939 16.0033C15.9722 16.0983 17.8505 17.9367 17.9905 20.2133C18.1522 22.8283 16.0789 25 13.4989 25C12.5739 25 11.7139 24.72 10.9989 24.2417V29C10.9989 29.5517 10.5505 30 9.99886 30C9.4472 30 8.99886 29.5517 8.99886 29V7C8.99886 6.44833 8.55053 6 7.99886 6C7.4472 6 6.99886 6.44833 6.99886 7V9H2.99886L0.237195 21.9567C-0.507805 25.6317 0.515529 29.4767 3.11886 32.2083C4.92886 34.11 7.36053 35.4283 10.0939 35.8517C10.6522 36.3967 11.0005 37.1567 11.0005 37.9983V43.4C11.0005 44.3383 10.3622 45.1567 9.45053 45.385L3.97053 46.755C3.40053 46.8983 3.00053 47.41 3.00053 47.9983H21.0005C21.0005 47.41 20.6005 46.8983 20.0305 46.755V46.7567Z" fill="#C7154A"/>
<path d="M13.5005 23C14.8812 23 16.0005 21.8807 16.0005 20.5C16.0005 19.1193 14.8812 18 13.5005 18C12.1198 18 11.0005 19.1193 11.0005 20.5C11.0005 21.8807 12.1198 23 13.5005 23Z" fill="#C7154A"/>
<path d="M8.00053 5C8.55281 5 9.00053 4.55228 9.00053 4C9.00053 3.44772 8.55281 3 8.00053 3C7.44824 3 7.00053 3.44772 7.00053 4C7.00053 4.55228 7.44824 5 8.00053 5Z" fill="#C7154A"/>
<path d="M12.0005 8C12.5528 8 13.0005 7.55228 13.0005 7C13.0005 6.44772 12.5528 6 12.0005 6C11.4482 6 11.0005 6.44772 11.0005 7C11.0005 7.55228 11.4482 8 12.0005 8Z" fill="#C7154A"/>
<path d="M16.0005 2C16.5528 2 17.0005 1.55228 17.0005 1C17.0005 0.447715 16.5528 0 16.0005 0C15.4482 0 15.0005 0.447715 15.0005 1C15.0005 1.55228 15.4482 2 16.0005 2Z" fill="#C7154A"/>
</svg>
