<svg width="184" height="72" viewBox="0 0 184 72" fill="none" xmlns="http://www.w3.org/2000/svg">
<rect width="184" height="72" fill="#F9FDFE"/>
<g clip-path="url(#clip0_1539_10293)">
<path d="M64.2601 41.6859C64.2601 35.9927 68.9712 31.5604 75.1111 31.5604C78.6637 31.5604 81.9074 33.127 83.761 35.496L81.0965 38.1324C80.3898 37.2371 79.488 36.511 78.4584 36.0082C77.4288 35.5054 76.2978 35.2389 75.1497 35.2285C71.4812 35.2285 68.5465 37.9414 68.5465 41.6859C68.5465 45.4686 71.4812 48.1814 75.1497 48.1814C76.3389 48.18 77.5117 47.9069 78.5767 47.3833C79.6417 46.8597 80.5701 46.0998 81.2896 45.1629L83.9154 47.7228C82.1391 50.2066 78.7409 51.8495 75.1111 51.8495C68.9712 51.8495 64.2601 47.4172 64.2601 41.6859Z" fill="#255BE3"/>
<path d="M87.3909 32.2482H91.6001V51.1617H87.3909V32.2482Z" fill="#255BE3"/>
<path d="M99.4389 46.08V35.7635H94.8436V32.2482H99.6322V28.1981L103.571 26.2876V32.2482H109.827V35.7635H103.571V45.3922C103.571 47.3028 104.652 48.1432 106.699 48.1432C107.764 48.1486 108.817 47.9271 109.788 47.4937V51.0853C108.572 51.6133 107.254 51.8742 105.926 51.8495C102.181 51.8495 99.4389 49.8246 99.4389 46.08Z" fill="#255BE3"/>
<path d="M113.147 32.2482H117.357V51.1617H113.147V32.2482Z" fill="#255BE3"/>
<path d="M102.335 20.2123C105.792 20.2042 109.2 21.0193 112.271 22.5887C115.343 24.1582 117.988 26.436 119.982 29.2297H115.078C113.47 27.4619 111.505 26.0482 109.31 25.0805C107.115 24.1129 104.738 23.6128 102.335 23.6128C99.9314 23.6128 97.5549 24.1129 95.3597 25.0805C93.1644 26.0482 91.1991 27.4619 89.5917 29.2297H84.6875C86.6821 26.436 89.3268 24.1582 92.3983 22.5887C95.4697 21.0193 98.8778 20.2042 102.335 20.2123Z" fill="#FF3C28"/>
</g>
<defs>
<clipPath id="clip0_1539_10293">
<rect width="56" height="32" fill="white" transform="translate(64 20)"/>
</clipPath>
</defs>
</svg>
