<svg width="184" height="72" viewBox="0 0 184 72" fill="none" xmlns="http://www.w3.org/2000/svg">
<rect width="184" height="72" fill="#F9FDFE"/>
<g clip-path="url(#clip0_1539_10302)">
<path d="M96.1194 25.4808C96.1194 23.0146 98.205 21.0215 100.774 21.0215C103.344 21.0215 105.432 23.0185 105.432 25.4808C105.432 27.9431 103.346 29.94 100.774 29.94C98.2027 29.94 96.1194 27.9469 96.1194 25.4808ZM109 43.0477H107.959C105.824 43.0477 104.748 41.54 104.748 39.1654V34.7062H96.8581V41.0262C96.8581 47.8931 101.431 50.7754 105.857 50.7754H109V43.0477ZM82.9019 45.1692C82.9019 42.8723 84.1785 41.8277 86.771 41.8277H93.2039V34.6862H82.9019V31.7377C82.9019 29.4054 84.9241 28.1377 87.3389 28.1377H93.1939V21H85.326C79.1434 21 75 24.2569 75 31.0846V50.7577H82.9019V45.1692Z" fill="#00B899"/>
</g>
<defs>
<clipPath id="clip0_1539_10302">
<rect width="34" height="30" fill="white" transform="translate(75 21)"/>
</clipPath>
</defs>
</svg>
