<svg width="184" height="72" viewBox="0 0 184 72" fill="none" xmlns="http://www.w3.org/2000/svg">
<rect width="184" height="72" fill="#F9FDFE"/>
<g clip-path="url(#clip0_3700_2575)">
<path d="M70.1357 38.8937C71.7535 32.0786 67.5108 25.2493 60.6593 23.6401C53.8077 22.0308 46.9419 26.251 45.3241 33.0661C43.7062 39.8812 47.9489 46.7104 54.8005 48.3197C61.652 49.929 68.5178 45.7088 70.1357 38.8937Z" fill="#5F259F"/>
<path d="M109.447 43.225V38.6209C109.447 37.4875 109.02 36.9209 107.952 36.9209C107.524 36.9209 107.026 36.9917 106.741 37.0625V43.7917C106.741 44.0042 106.527 44.2167 106.314 44.2167H104.676C104.462 44.2167 104.249 44.0042 104.249 43.7917V35.9292C104.249 35.6459 104.462 35.4334 104.676 35.3625C105.744 35.0084 106.812 34.7959 107.952 34.7959C110.515 34.7959 111.939 36.1417 111.939 38.6209V43.8625C111.939 44.075 111.726 44.2875 111.512 44.2875H110.515C109.874 44.2875 109.447 43.7917 109.447 43.225ZM115.856 40.4625L115.785 41.1C115.785 41.95 116.355 42.4459 117.28 42.4459C117.992 42.4459 118.633 42.2334 119.345 41.8792C119.417 41.8792 119.488 41.8084 119.559 41.8084C119.702 41.8084 119.773 41.8792 119.844 41.95C119.915 42.0209 120.058 42.2334 120.058 42.2334C120.2 42.4459 120.342 42.7292 120.342 42.9417C120.342 43.2959 120.129 43.65 119.844 43.7917C119.061 44.2167 118.135 44.4292 117.138 44.4292C115.999 44.4292 115.073 44.1459 114.361 43.5792C113.649 42.9417 113.221 42.0917 113.221 41.0292V38.2667C113.221 36.0709 114.645 34.725 117.067 34.725C119.417 34.725 120.77 36 120.77 38.2667V39.9667C120.77 40.1792 120.556 40.3917 120.342 40.3917H115.856V40.4625ZM115.785 38.9042H118.491V38.1959C118.491 37.3459 117.992 36.7792 117.138 36.7792C116.283 36.7792 115.785 37.275 115.785 38.1959V38.9042ZM133.944 40.4625L133.873 41.1C133.873 41.95 134.442 42.4459 135.368 42.4459C136.08 42.4459 136.721 42.2334 137.433 41.8792C137.505 41.8792 137.576 41.8084 137.647 41.8084C137.789 41.8084 137.861 41.8792 137.932 41.95C138.003 42.0209 138.145 42.2334 138.145 42.2334C138.288 42.4459 138.43 42.7292 138.43 42.9417C138.43 43.2959 138.217 43.65 137.932 43.7917C137.149 44.2167 136.223 44.4292 135.226 44.4292C134.086 44.4292 133.161 44.1459 132.449 43.5792C131.736 42.9417 131.309 42.0917 131.309 41.0292V38.2667C131.309 36.0709 132.733 34.725 135.155 34.725C137.505 34.725 138.858 36 138.858 38.2667V39.9667C138.858 40.1792 138.644 40.3917 138.43 40.3917H133.944V40.4625ZM133.873 38.9042H136.579V38.1959C136.579 37.3459 136.08 36.7792 135.226 36.7792C134.371 36.7792 133.873 37.275 133.873 38.1959V38.9042ZM92 44.2875H92.997C93.2106 44.2875 93.4243 44.075 93.4243 43.8625V38.6209C93.4243 36.2125 92.1425 34.7959 90.0061 34.7959C89.3652 34.7959 88.6531 34.9375 88.2258 35.0792V32.4584C88.2258 31.8917 87.7273 31.3959 87.1576 31.3959H86.1606C85.947 31.3959 85.7334 31.6084 85.7334 31.8209V43.8625C85.7334 44.075 85.947 44.2875 86.1606 44.2875H87.7985C88.0122 44.2875 88.2258 44.075 88.2258 43.8625V37.2042C88.5819 37.0625 89.0803 36.9917 89.4364 36.9917C90.5046 36.9917 90.9319 37.4875 90.9319 38.6917V43.2959C91.0031 43.7917 91.4303 44.2875 92 44.2875ZM102.753 38.3375V40.9584C102.753 43.1542 101.258 44.5 98.7652 44.5C96.344 44.5 94.7773 43.1542 94.7773 40.9584V38.3375C94.7773 36.1417 96.2728 34.7959 98.7652 34.7959C101.258 34.7959 102.753 36.1417 102.753 38.3375ZM100.261 38.3375C100.261 37.4875 99.7622 36.9209 98.8364 36.9209C97.9106 36.9209 97.4122 37.4167 97.4122 38.3375V40.9584C97.4122 41.8084 97.9106 42.3042 98.8364 42.3042C99.7622 42.3042 100.261 41.8084 100.261 40.9584V38.3375ZM84.3803 37.1334C84.3803 39.4 82.6713 40.9584 80.3925 40.9584C79.8228 40.9584 79.3243 40.8875 78.8258 40.675V43.8625C78.8258 44.075 78.6122 44.2875 78.3985 44.2875H76.7606C76.547 44.2875 76.3334 44.075 76.3334 43.8625V32.6C76.3334 32.3167 76.547 32.1042 76.7606 32.0334C77.8288 31.6792 78.897 31.4667 80.0364 31.4667C82.6 31.4667 84.3803 33.025 84.3803 35.4334V37.1334ZM81.8167 35.2917C81.8167 34.1584 81.0334 33.5917 79.9652 33.5917C79.3243 33.5917 78.897 33.8042 78.897 33.8042V38.4792C79.3243 38.6917 79.5379 38.7625 80.0364 38.7625C81.1046 38.7625 81.8879 38.125 81.8879 37.0625V35.2917H81.8167ZM130.383 37.1334C130.383 39.4 128.674 40.9584 126.395 40.9584C125.826 40.9584 125.327 40.8875 124.829 40.675V43.8625C124.829 44.075 124.615 44.2875 124.402 44.2875H122.764C122.55 44.2875 122.336 44.075 122.336 43.8625V32.6C122.336 32.3167 122.55 32.1042 122.764 32.0334C123.832 31.6792 124.9 31.4667 126.039 31.4667C128.603 31.4667 130.383 33.025 130.383 35.4334V37.1334ZM127.82 35.2917C127.82 34.1584 127.036 33.5917 125.968 33.5917C125.327 33.5917 124.9 33.8042 124.9 33.8042V38.4792C125.327 38.6917 125.541 38.7625 126.039 38.7625C127.108 38.7625 127.891 38.125 127.891 37.0625V35.2917H127.82Z" fill="#5F259F"/>
<path d="M63.5151 32.6708C63.5151 32.175 63.0878 31.75 62.5894 31.75H60.8803L56.9636 27.2875C56.6075 26.8625 56.0378 26.7208 55.4681 26.8625L54.1151 27.2875C53.9015 27.3583 53.8303 27.6416 53.9727 27.7833L58.2454 31.8208H51.7651C51.5515 31.8208 51.4091 31.9625 51.4091 32.175V32.8833C51.4091 33.3791 51.8363 33.8041 52.3348 33.8041H53.3318V37.2041C53.3318 39.7541 54.6848 41.2416 56.9636 41.2416C57.6757 41.2416 58.2454 41.1708 58.9575 40.8875V43.1541C58.9575 43.7916 59.456 44.2875 60.0969 44.2875H61.0939C61.3075 44.2875 61.5212 44.0749 61.5212 43.8624V33.7333H63.1591C63.3727 33.7333 63.5151 33.5916 63.5151 33.3791V32.6708ZM58.9575 38.7625C58.5303 38.975 57.9606 39.0458 57.5333 39.0458C56.3939 39.0458 55.8242 38.4791 55.8242 37.2041V33.8041H58.9575V38.7625Z" fill="white"/>
</g>
<defs>
<clipPath id="clip0_3700_2575">
<rect width="94" height="34" fill="white" transform="translate(45 19)"/>
</clipPath>
</defs>
</svg>
