<svg width="184" height="72" viewBox="0 0 184 72" fill="none" xmlns="http://www.w3.org/2000/svg">
<rect width="184" height="72" fill="#F9FDFE"/>
<g clip-path="url(#clip0_1539_10281)">
<path fill-rule="evenodd" clip-rule="evenodd" d="M59.556 32.8225C59.3605 33.5458 58.9815 34.0767 58.419 34.4157C57.8558 34.7546 57.066 34.9244 56.0471 34.9244H52.8103L53.9466 30.7209H57.1834C58.2015 30.7209 58.9004 30.8904 59.2801 31.2293C59.6591 31.5686 59.7516 32.0996 59.556 32.8225ZM62.908 32.7319C63.3197 31.2109 63.149 30.0431 62.3964 29.2296C61.6436 28.4161 60.3247 28.0095 58.4409 28.0095H51.2155L46.8667 44.0984H50.3771L52.1304 37.613H54.4325C54.9487 37.613 55.3551 37.696 55.6523 37.8617C55.9501 38.0278 56.1245 38.3216 56.1783 38.7429L56.8044 44.0984H60.5657L59.9555 39.1047C59.8312 37.9898 59.3165 37.3345 58.4122 37.1388C59.5651 36.8077 60.5308 36.2572 61.3086 35.4888C62.0856 34.7208 62.6192 33.8021 62.908 32.7319Z" fill="#072654"/>
<path fill-rule="evenodd" clip-rule="evenodd" d="M71.4397 38.3363C71.1463 39.4207 70.6945 40.2496 70.0843 40.8218C69.4734 41.3945 68.7426 41.6805 67.8921 41.6805C67.0249 41.6805 66.4367 41.3982 66.1266 40.8331C65.8151 40.2684 65.8045 39.4515 66.0941 38.3813C66.3829 37.312 66.8437 36.4759 67.4782 35.8728C68.1119 35.2709 68.854 34.9692 69.7052 34.9692C70.5558 34.9692 71.1319 35.2596 71.4305 35.8394C71.7293 36.4192 71.733 37.2515 71.4397 38.3363ZM72.9784 32.6417L72.5388 34.2688C72.3485 33.6811 71.9809 33.2144 71.4366 32.868C70.8916 32.5215 70.2162 32.3479 69.4111 32.3479C68.4234 32.3479 67.4736 32.6004 66.5625 33.1051C65.6514 33.61 64.8546 34.3218 64.1732 35.2404C63.4918 36.1595 62.9922 37.2064 62.6746 38.3813C62.357 39.5567 62.2933 40.5923 62.4843 41.4884C62.6754 42.385 63.0892 43.0741 63.7267 43.5562C64.3635 44.0386 65.1837 44.2791 66.1865 44.2791C66.9916 44.2791 67.7587 44.1135 68.4864 43.782C69.2141 43.451 69.8318 42.9911 70.3405 42.4037L69.8819 44.0984H73.2778L76.3744 32.6417H72.9784Z" fill="#072654"/>
<path fill-rule="evenodd" clip-rule="evenodd" d="M88.5854 32.6417H78.7159L78.026 35.1954H83.7696L76.1757 41.703L75.5276 44.0984H85.7163L86.4068 41.5451H80.2532L87.9623 34.9466L88.5854 32.6417Z" fill="#072654"/>
<path fill-rule="evenodd" clip-rule="evenodd" d="M97.2747 38.3137C96.9692 39.4432 96.5167 40.2875 95.9179 40.8448C95.319 41.402 94.5943 41.6804 93.7439 41.6804C91.9655 41.6804 91.3803 40.5588 91.9867 38.3137C92.2884 37.1988 92.7432 36.359 93.3512 35.7943C93.9598 35.2292 94.6967 34.9466 95.5631 34.9466C96.4136 34.9466 96.9874 35.2292 97.2831 35.7943C97.5786 36.359 97.5764 37.1988 97.2747 38.3137ZM99.2615 33.0708C98.48 32.5891 97.4817 32.3479 96.2658 32.3479C95.0348 32.3479 93.8947 32.5891 92.8449 33.0708C91.795 33.5533 90.9012 34.2462 90.1637 35.1499C89.4253 36.0539 88.8932 37.1083 88.5673 38.3137C88.2413 39.5191 88.2034 40.5731 88.4536 41.4771C88.703 42.3812 89.2215 43.0741 90.0113 43.5562C90.8004 44.0386 91.8101 44.2791 93.0412 44.2791C94.257 44.2791 95.3857 44.0386 96.428 43.5562C97.4688 43.0741 98.3595 42.3812 99.0978 41.4771C99.8353 40.5731 100.367 39.5191 100.693 38.3137C101.019 37.1083 101.057 36.0539 100.808 35.1499C100.558 34.2462 100.042 33.5533 99.2615 33.0708Z" fill="#072654"/>
<path fill-rule="evenodd" clip-rule="evenodd" d="M134.781 38.3363C134.488 39.4207 134.036 40.2496 133.426 40.8218C132.816 41.3945 132.083 41.6805 131.233 41.6805C130.367 41.6805 129.778 41.3982 129.468 40.8331C129.157 40.2684 129.146 39.4515 129.436 38.3813C129.724 37.312 130.185 36.4759 130.82 35.8728C131.453 35.2709 132.196 34.9692 133.047 34.9692C133.897 34.9692 134.473 35.2596 134.772 35.8394C135.071 36.4192 135.074 37.2515 134.781 38.3363ZM136.32 32.6417L135.88 34.2688C135.69 33.6811 135.322 33.2144 134.778 32.868C134.233 32.5215 133.558 32.3479 132.753 32.3479C131.765 32.3479 130.815 32.6004 129.904 33.1051C128.993 33.61 128.196 34.3218 127.515 35.2404C126.833 36.1595 126.334 37.2064 126.016 38.3813C125.698 39.5567 125.635 40.5923 125.826 41.4884C126.017 42.385 126.43 43.0741 127.068 43.5562C127.705 44.0386 128.525 44.2791 129.528 44.2791C130.333 44.2791 131.1 44.1135 131.828 43.782C132.556 43.451 133.173 42.9911 133.682 42.4037L133.223 44.0984H136.619L139.716 32.6417H136.32Z" fill="#072654"/>
<path fill-rule="evenodd" clip-rule="evenodd" d="M111.369 35.715L112.235 32.5966C111.941 32.446 111.551 32.3705 111.066 32.3705C110.29 32.3705 109.543 32.5625 108.824 32.9468C108.206 33.2766 107.68 33.7395 107.236 34.3194L107.686 32.6401L106.703 32.6418H104.291L101.171 44.0984H104.614L106.232 38.1105C106.468 37.2368 106.891 36.5552 107.503 36.0656C108.113 35.576 108.875 35.331 109.787 35.331C110.349 35.331 110.876 35.4591 111.369 35.715Z" fill="#072654"/>
<path fill-rule="evenodd" clip-rule="evenodd" d="M120.953 38.3812C120.663 39.4513 120.215 40.2682 119.607 40.833C118.997 41.3981 118.268 41.6803 117.417 41.6803C116.566 41.6803 115.986 41.3943 115.678 40.8217C115.368 40.2494 115.361 39.4209 115.654 38.3361C115.948 37.2513 116.404 36.419 117.024 35.8392C117.644 35.2594 118.38 34.969 119.231 34.969C120.067 34.969 120.634 35.2707 120.935 35.8731C121.236 36.4757 121.242 37.3121 120.953 38.3812ZM123.359 33.1049C122.72 32.6002 121.906 32.3481 120.919 32.3481C120.053 32.3481 119.228 32.5439 118.448 32.9354C117.665 33.3277 117.03 33.8617 116.543 34.5399L116.554 34.4647L117.133 32.64H116.467V32.6416H113.772L112.916 35.8097C112.906 35.8465 112.898 35.8809 112.888 35.9181L109.358 48.9793H112.8L114.578 42.404C114.752 42.9909 115.114 43.4508 115.663 43.7819C116.212 44.1132 116.889 44.279 117.695 44.279C118.698 44.279 119.651 44.0385 120.557 43.556C121.462 43.0743 122.249 42.3848 122.916 41.4883C123.584 40.5925 124.077 39.5565 124.394 38.3812C124.712 37.2062 124.778 36.1594 124.594 35.2403C124.409 34.3216 123.997 33.6099 123.359 33.1049Z" fill="#072654"/>
<path fill-rule="evenodd" clip-rule="evenodd" d="M153.97 32.645L153.972 32.6418H151.887C151.82 32.6418 151.762 32.6437 151.701 32.645H150.619L150.065 33.4093C150.021 33.4669 149.977 33.5249 149.929 33.5921L149.868 33.6806L145.471 39.7526L144.559 32.6418H140.957L142.781 43.447L138.752 48.9795H138.867H140.924H142.341L143.318 47.6084C143.346 47.5676 143.371 47.5341 143.402 47.491L144.541 45.8897L144.574 45.8438L149.671 38.6796L153.966 32.6498L153.972 32.645H153.97Z" fill="#072654"/>
<path fill-rule="evenodd" clip-rule="evenodd" d="M38.0204 29.8527L36.99 33.6122L42.8863 29.8316L39.0303 44.0949L42.946 44.0984L48.6423 23.0312L38.0204 29.8527Z" fill="#3395FF"/>
<path fill-rule="evenodd" clip-rule="evenodd" d="M31.6739 38.1024L30.0529 44.0984H38.0792C38.0792 44.0984 41.3622 31.9035 41.3631 31.9C41.3601 31.902 31.6739 38.1024 31.6739 38.1024Z" fill="#072654"/>
</g>
<defs>
<clipPath id="clip0_1539_10281">
<rect width="124" height="26" fill="white" transform="translate(30 23)"/>
</clipPath>
</defs>
</svg>
