<svg width="184" height="72" viewBox="0 0 184 72" fill="none" xmlns="http://www.w3.org/2000/svg">
<rect width="184" height="72" fill="#F9FDFE"/>
<g clip-path="url(#clip0_3700_2581)">
<path d="M59.4492 30.701C58.2591 30.701 57.0015 31.2904 56.2157 32.1972H56.1708V26.5072H53.9926V43.0559H55.9911V41.8997H56.036C56.7994 42.7838 58.1916 43.3959 59.4043 43.3959C62.548 43.3959 64.569 40.9022 64.569 37.0484C64.569 33.308 62.4582 30.701 59.4492 30.701ZM59.0674 41.401C57.4282 41.401 56.1708 40.2675 56.1708 38.7713V35.5523C56.1708 33.9428 57.4282 32.7186 59.0674 32.7186C61.2006 32.7186 62.3907 34.2828 62.3907 37.0484C62.3907 39.8368 61.2006 41.401 59.0674 41.401Z" fill="#00C805"/>
<path d="M46.9193 30.7009C43.6857 30.7009 41.4626 33.3079 41.4626 37.0484C41.4626 40.8795 43.6183 43.3958 46.9193 43.3958C50.1753 43.3958 52.3085 40.8795 52.3085 37.0484C52.3085 33.3079 50.1078 30.7009 46.9193 30.7009ZM46.9193 41.4009C44.8759 41.4009 43.6183 39.7233 43.6183 37.0484C43.6183 34.3734 44.8759 32.7185 46.9193 32.7185C48.8953 32.7185 50.1529 34.4187 50.1529 37.0484C50.1529 39.7007 48.8953 41.4009 46.9193 41.4009Z" fill="#00C805"/>
<path d="M40.4521 31.7891C40.4521 28.9781 38.3863 27.1873 35.1527 27.1873H29V43.0558H31.2455V36.7764H34.4566C36.9267 36.7764 37.8249 37.7738 37.8249 40.5394V43.0558H40.003V40.5394C40.003 38.0073 39.2396 36.5021 37.5756 35.8832C39.28 35.2802 40.4521 33.8611 40.4521 31.7891ZM34.9731 34.7588H31.2455V29.2502H34.9506C37.0839 29.2502 38.1842 30.1796 38.1842 32.0158C38.1842 33.784 37.0614 34.7588 34.9731 34.7588Z" fill="#00C805"/>
<path d="M76.4477 30.7009C75.1903 30.7009 73.843 31.313 73.1918 32.1971H73.1469V31.041H71.0137V43.0558H73.1918V35.5068C73.1918 33.8066 74.2921 32.7412 76.0212 32.7412C77.7278 32.7412 78.5361 33.7386 78.5361 35.8242V43.0558H80.7367V35.1895C80.7367 32.4238 79.0751 30.7009 76.4477 30.7009Z" fill="#00C805"/>
<path d="M111.972 30.7009C108.738 30.7009 106.515 33.3079 106.515 37.0484C106.515 40.8795 108.671 43.3958 111.972 43.3958C115.228 43.3958 117.361 40.8795 117.361 37.0484C117.361 33.3079 115.161 30.7009 111.972 30.7009ZM111.972 41.4009C109.928 41.4009 108.671 39.7233 108.671 37.0484C108.671 34.3734 109.928 32.7185 111.972 32.7185C113.948 32.7185 115.205 34.4187 115.205 37.0484C115.205 39.7007 113.948 41.4009 111.972 41.4009Z" fill="#00C805"/>
<path d="M127.107 26.5072V32.1972H127.062C126.276 31.2678 125.041 30.701 123.851 30.701C120.842 30.701 118.708 33.3533 118.708 37.0484C118.708 40.9022 120.729 43.3959 123.873 43.3959C125.086 43.3959 126.478 42.7838 127.241 41.8997H127.286V43.0559H129.285V26.5072H127.107ZM127.107 38.7713C127.107 40.2675 125.849 41.401 124.21 41.401C122.077 41.401 120.887 39.8368 120.887 37.0484C120.887 34.2828 122.077 32.7186 124.21 32.7186C125.849 32.7186 127.107 33.9428 127.107 35.5523V38.7713Z" fill="#00C805"/>
<path d="M99.7787 30.7009C96.5451 30.7009 94.3221 33.3079 94.3221 37.0484C94.3221 40.8795 96.4778 43.3958 99.7787 43.3958C103.035 43.3958 105.168 40.8795 105.168 37.0484C105.168 33.3079 102.967 30.7009 99.7787 30.7009ZM99.7787 41.4009C97.7354 41.4009 96.4778 39.7233 96.4778 37.0484C96.4778 34.3734 97.7354 32.7185 99.7787 32.7185C101.755 32.7185 103.012 34.4187 103.012 37.0484C103.012 39.7007 101.755 41.4009 99.7787 41.4009Z" fill="#00C805"/>
<path d="M68.6333 26.5072H66.2755V28.8421H68.6333V26.5072Z" fill="#00C805"/>
<path d="M88.5063 30.701C87.1814 30.701 85.8341 31.3358 85.2053 32.2425H85.1604V26.5072H82.9823V43.0559H85.1604V35.5069C85.1604 33.8747 86.328 32.7413 87.9897 32.7413C89.6289 32.7413 90.572 33.8294 90.572 35.711V43.0559H92.7503V35.1669C92.7503 32.4239 91.111 30.701 88.5063 30.701Z" fill="#00C805"/>
<path d="M68.5436 31.041H66.3655V43.0557H68.5436V31.041Z" fill="#00C805"/>
<path d="M144.303 43.627L144.139 43.6814C143.084 44.0351 141.523 44.5814 140.122 45.2321C140.048 45.2683 139.998 45.3681 139.998 45.3681C139.971 45.4293 139.94 45.5041 139.904 45.588L139.899 45.5992C139.742 45.9598 139.527 46.5015 139.432 46.7238L139.36 46.8983C139.349 46.9255 139.356 46.9572 139.378 46.9776C139.392 46.9913 139.408 46.998 139.426 46.998C139.435 46.998 139.446 46.9957 139.457 46.9913L139.625 46.9097C140.009 46.7259 140.494 46.4471 141.002 46.2023L141.02 46.1933C141.988 45.7308 143.079 45.2071 143.737 44.8897C143.737 44.8897 143.843 44.8331 143.896 44.7265L144.388 43.7291C144.402 43.7041 144.397 43.6724 144.379 43.6497C144.359 43.627 144.33 43.618 144.303 43.627Z" fill="#00C805"/>
<path d="M140.369 42.0833C140.438 41.9473 140.757 41.3261 140.829 41.1878L140.842 41.1629C142.98 37.0938 145.585 33.2536 148.583 29.7534L148.666 29.6559C148.691 29.6265 148.695 29.5811 148.677 29.5471C148.657 29.5109 148.619 29.4927 148.58 29.4973L148.455 29.5154C146.488 29.7897 144.496 30.1683 142.533 30.6421C142.338 30.6965 142.212 30.8257 142.185 30.8552C140.717 32.6302 139.327 34.4981 138.051 36.4137C137.988 36.5112 137.966 36.6381 137.982 36.7424C137.995 36.8444 138.303 39.236 138.77 41.0723C137.611 44.4387 136.576 48.875 136.576 48.875C136.567 48.9045 136.574 48.9339 136.589 48.9589C136.607 48.9838 136.634 48.9974 136.666 48.9974H137.326C137.369 48.9974 137.405 48.9724 137.42 48.9339L137.465 48.8092C138.139 46.955 138.907 45.1232 139.756 43.3369C139.951 42.922 140.369 42.0833 140.369 42.0833Z" fill="#00C805"/>
<path d="M149.551 30.4811L149.548 30.3541C149.546 30.3133 149.521 30.2793 149.485 30.2657C149.45 30.2521 149.407 30.2635 149.38 30.2929L149.297 30.3881C145.801 34.4709 142.861 39.0002 140.562 43.8537L140.508 43.9671C140.49 44.0033 140.497 44.0464 140.524 44.0759C140.542 44.094 140.566 44.1053 140.591 44.1053C140.602 44.1053 140.616 44.103 140.629 44.0986L140.744 44.0509C142.709 43.2303 144.714 42.5185 146.706 41.9359C146.825 41.902 146.926 41.8158 146.982 41.7047C147.855 39.9863 149.883 36.6585 149.883 36.6585C149.935 36.5837 149.921 36.4726 149.921 36.4726C149.921 36.4726 149.573 32.4941 149.551 30.4811Z" fill="#00C805"/>
<path d="M154.071 24.7412C153.575 24.306 152.854 24.102 151.736 24.077C150.721 24.0543 149.515 24.2765 148.147 24.7299C147.943 24.8024 147.779 24.918 147.633 25.0609C146.243 26.378 144.891 27.7767 143.613 29.2184L143.515 29.3272C143.488 29.359 143.483 29.4043 143.503 29.4383C143.524 29.4746 143.566 29.4927 143.607 29.4837L143.75 29.4519C145.81 29.0076 147.889 28.6676 149.93 28.4431C150.065 28.4273 150.204 28.4726 150.303 28.5655C150.404 28.6585 150.46 28.7922 150.458 28.9305C150.424 30.9753 150.498 33.0291 150.678 35.0354L150.689 35.1669C150.694 35.2077 150.721 35.2394 150.761 35.2507C150.768 35.253 150.774 35.253 150.783 35.2553C150.813 35.2553 150.844 35.2417 150.864 35.2145L150.938 35.1079C152.088 33.4531 153.339 31.8435 154.655 30.3201C154.803 30.1501 154.841 30.0436 154.868 29.8894C155.281 27.219 154.643 25.2422 154.071 24.7412Z" fill="#00C805"/>
</g>
<defs>
<clipPath id="clip0_3700_2581">
<rect width="126" height="25" fill="white" transform="translate(29 24)"/>
</clipPath>
</defs>
</svg>
