<svg width="184" height="72" viewBox="0 0 184 72" fill="none" xmlns="http://www.w3.org/2000/svg">
<rect width="184" height="72" fill="#F9FDFE"/>
<g clip-path="url(#clip0_1539_10284)">
<path fill-rule="evenodd" clip-rule="evenodd" d="M129.904 36.4558C129.904 31.03 127.292 26.7487 122.302 26.7487C117.29 26.7487 114.258 31.03 114.258 36.4134C114.258 42.7929 117.838 46.0145 122.976 46.0145C125.482 46.0145 127.377 45.4423 128.809 44.6369V40.398C127.377 41.1186 125.734 41.5637 123.649 41.5637C121.607 41.5637 119.796 40.843 119.564 38.3421H129.861C129.861 38.0666 129.904 36.9644 129.904 36.4558ZM119.501 34.4423C119.501 32.0473 120.954 31.0512 122.281 31.0512C123.565 31.0512 124.934 32.0473 124.934 34.4423H119.501Z" fill="#635BFF"/>
<path fill-rule="evenodd" clip-rule="evenodd" d="M106.13 26.7487C104.066 26.7487 102.739 27.7236 102.002 28.4018L101.728 27.0878H97.0958V51.8006L102.36 50.6773L102.381 44.6793C103.139 45.2303 104.255 46.0145 106.108 46.0145C109.878 46.0145 113.31 42.9625 113.31 36.2438C113.289 30.0974 109.815 26.7487 106.13 26.7487ZM104.866 41.3517C103.624 41.3517 102.887 40.9066 102.381 40.3556L102.36 32.4924C102.908 31.8777 103.666 31.4539 104.866 31.4539C106.782 31.4539 108.109 33.6157 108.109 36.3922C108.109 39.2323 106.803 41.3517 104.866 41.3517Z" fill="#635BFF"/>
<path fill-rule="evenodd" clip-rule="evenodd" d="M89.8521 25.4981L95.1375 24.3536V20.0511L89.8521 21.1745V25.4981Z" fill="#635BFF"/>
<path d="M95.1375 27.1089H89.8521V45.6541H95.1375V27.1089Z" fill="#635BFF"/>
<path fill-rule="evenodd" clip-rule="evenodd" d="M84.1876 28.6774L83.8507 27.109H79.3022V45.6542H84.5666V33.0858C85.809 31.4539 87.9148 31.7506 88.5676 31.9837V27.109C87.8937 26.8546 85.43 26.3884 84.1876 28.6774Z" fill="#635BFF"/>
<path fill-rule="evenodd" clip-rule="evenodd" d="M73.6587 22.5098L68.5207 23.6119L68.4996 40.5887C68.4996 43.7255 70.837 46.0357 73.9535 46.0357C75.6803 46.0357 76.9437 45.7178 77.6386 45.3363V41.0338C76.9648 41.3093 73.6377 42.2843 73.6377 39.1475V31.6234H77.6386V27.109H73.6377L73.6587 22.5098Z" fill="#635BFF"/>
<path fill-rule="evenodd" clip-rule="evenodd" d="M59.4239 32.4924C59.4239 31.6658 60.0977 31.3479 61.2138 31.3479C62.8141 31.3479 64.8357 31.8354 66.4361 32.7043V27.7236C64.6883 27.0242 62.9616 26.7487 61.2138 26.7487C56.9391 26.7487 54.0963 28.9953 54.0963 32.7467C54.0963 38.5964 62.0982 37.6639 62.0982 40.186C62.0982 41.161 61.2559 41.4789 60.0767 41.4789C58.3289 41.4789 56.0968 40.7583 54.3279 39.7833V44.8276C56.2863 45.6754 58.2657 46.0357 60.0767 46.0357C64.4566 46.0357 67.4679 43.8527 67.4679 40.0588C67.4468 33.7429 59.4239 34.8662 59.4239 32.4924Z" fill="#635BFF"/>
</g>
<defs>
<clipPath id="clip0_1539_10284">
<rect width="76" height="32" fill="white" transform="translate(54 20)"/>
</clipPath>
</defs>
</svg>
