<svg width="184" height="72" viewBox="0 0 184 72" fill="none" xmlns="http://www.w3.org/2000/svg">
<rect width="184" height="72" fill="#F9FDFE"/>
<g clip-path="url(#clip0_1539_10287)">
<path d="M42.7963 43.86C41.7516 43.86 40.7571 43.67 39.8128 43.29C38.8685 42.91 38.0447 42.43 37.3416 41.85L38.5772 40.2C39.2201 40.72 39.8731 41.14 40.5361 41.46C41.2192 41.78 42.0027 41.94 42.8868 41.94C43.8511 41.94 44.5744 41.72 45.0566 41.28C45.5388 40.84 45.7799 40.3 45.7799 39.66C45.7799 39.28 45.6795 38.95 45.4785 38.67C45.2776 38.39 45.0164 38.15 44.695 37.95C44.3936 37.73 44.042 37.54 43.6402 37.38C43.2384 37.22 42.8365 37.06 42.4347 36.9C41.9123 36.72 41.39 36.52 40.8676 36.3C40.3452 36.06 39.8731 35.78 39.4511 35.46C39.0493 35.12 38.7178 34.73 38.4566 34.29C38.1954 33.85 38.0648 33.32 38.0648 32.7C38.0648 32.12 38.1753 31.58 38.3963 31.08C38.6374 30.56 38.969 30.12 39.3909 29.76C39.8329 29.38 40.3653 29.09 40.9881 28.89C41.611 28.67 42.3142 28.56 43.0977 28.56C44.0219 28.56 44.8658 28.72 45.6292 29.04C46.4128 29.36 47.0858 29.75 47.6484 30.21L46.4731 31.77C45.9708 31.39 45.4484 31.08 44.9059 30.84C44.3635 30.6 43.7708 30.48 43.1279 30.48C42.2037 30.48 41.5205 30.69 41.0785 31.11C40.6566 31.53 40.4457 32.02 40.4457 32.58C40.4457 32.92 40.5361 33.22 40.7169 33.48C40.8977 33.72 41.1388 33.94 41.4402 34.14C41.7416 34.32 42.0831 34.49 42.4648 34.65C42.8667 34.79 43.2785 34.94 43.7005 35.1C44.2228 35.3 44.7452 35.51 45.2676 35.73C45.81 35.95 46.2922 36.23 46.7142 36.57C47.1361 36.89 47.4776 37.29 47.7388 37.77C48.0201 38.25 48.1607 38.83 48.1607 39.51C48.1607 40.11 48.0402 40.67 47.7991 41.19C47.5781 41.71 47.2365 42.17 46.7744 42.57C46.3324 42.97 45.7699 43.28 45.0868 43.5C44.4237 43.74 43.6603 43.86 42.7963 43.86ZM51.8358 49.77C51.4942 49.77 51.1828 49.74 50.9015 49.68C50.6203 49.64 50.3591 49.57 50.118 49.47L50.6002 47.52C50.7609 47.56 50.9417 47.6 51.1426 47.64C51.3435 47.7 51.5344 47.73 51.7152 47.73C52.5591 47.73 53.2422 47.43 53.7646 46.83C54.307 46.25 54.7289 45.51 55.0303 44.61L55.3618 43.53L49.4851 28.92H52.0467L55.0303 36.99C55.2513 37.63 55.4824 38.31 55.7235 39.03C55.9846 39.73 56.2257 40.42 56.4467 41.1H56.5673C56.7883 40.44 56.9993 39.75 57.2002 39.03C57.4011 38.31 57.602 37.63 57.8029 36.99L60.4248 28.92H62.8358L57.3207 44.7C57.0595 45.42 56.7682 46.09 56.4467 46.71C56.1253 47.33 55.7435 47.86 55.3015 48.3C54.8595 48.76 54.3572 49.12 53.7947 49.38C53.2321 49.64 52.5792 49.77 51.8358 49.77ZM65.6625 43.5V28.92H67.7118L67.9228 31.02H68.0132C68.7164 30.32 69.4497 29.74 70.2132 29.28C70.9968 28.8 71.9009 28.56 72.9255 28.56C74.4726 28.56 75.5977 29.04 76.3009 30C77.0242 30.96 77.3858 32.38 77.3858 34.26V43.5H74.9146V34.59C74.9146 33.21 74.6936 32.22 74.2516 31.62C73.8096 31 73.1064 30.69 72.142 30.69C71.3785 30.69 70.7055 30.88 70.1228 31.26C69.5402 31.64 68.8771 32.2 68.1338 32.94V43.5H65.6625ZM82.1437 49.65V28.92H84.193L84.404 30.6H84.4944C85.1574 30.04 85.8807 29.56 86.6642 29.16C87.4679 28.76 88.3017 28.56 89.1656 28.56C90.1099 28.56 90.9437 28.74 91.667 29.1C92.3903 29.44 92.993 29.94 93.4752 30.6C93.9574 31.24 94.319 32.02 94.5601 32.94C94.8213 33.84 94.9519 34.86 94.9519 36C94.9519 37.24 94.7811 38.35 94.4396 39.33C94.098 40.29 93.6359 41.11 93.0533 41.79C92.4706 42.47 91.7976 42.99 91.0341 43.35C90.2706 43.69 89.467 43.86 88.6231 43.86C87.94 43.86 87.2569 43.71 86.5738 43.41C85.9108 43.11 85.2378 42.7 84.5547 42.18L84.6149 44.73V49.65H82.1437ZM88.2012 41.79C88.804 41.79 89.3565 41.66 89.8588 41.4C90.3811 41.12 90.8232 40.74 91.1848 40.26C91.5665 39.76 91.8579 39.15 92.0588 38.43C92.2798 37.71 92.3903 36.9 92.3903 36C92.3903 35.2 92.32 34.47 92.1793 33.81C92.0387 33.15 91.8076 32.59 91.4862 32.13C91.1848 31.65 90.783 31.28 90.2807 31.02C89.7985 30.76 89.2158 30.63 88.5327 30.63C87.9099 30.63 87.277 30.8 86.6341 31.14C86.0113 31.48 85.3382 31.97 84.6149 32.61V40.26C85.2779 40.82 85.9209 41.22 86.5437 41.46C87.1665 41.68 87.719 41.79 88.2012 41.79ZM103.14 43.86C101.573 43.86 100.427 43.38 99.704 42.42C99.0008 41.46 98.6492 40.04 98.6492 38.16V28.92H101.151V37.83C101.151 39.21 101.362 40.21 101.783 40.83C102.225 41.43 102.929 41.73 103.893 41.73C104.657 41.73 105.33 41.54 105.912 41.16C106.495 40.76 107.138 40.13 107.841 39.27V28.92H110.312V43.5H108.263L108.052 41.22H107.962C107.278 42.02 106.555 42.66 105.792 43.14C105.048 43.62 104.164 43.86 103.14 43.86ZM117.875 43.86C116.931 43.86 116.258 43.58 115.856 43.02C115.454 42.46 115.253 41.64 115.253 40.56V22.14H117.724V40.74C117.724 41.14 117.795 41.42 117.935 41.58C118.076 41.74 118.237 41.82 118.418 41.82C118.498 41.82 118.568 41.82 118.629 41.82C118.709 41.82 118.819 41.8 118.96 41.76L119.292 43.62C119.131 43.7 118.94 43.76 118.719 43.8C118.498 43.84 118.217 43.86 117.875 43.86ZM126.762 43.86C125.717 43.86 124.723 43.67 123.778 43.29C122.834 42.91 122.01 42.43 121.307 41.85L122.543 40.2C123.186 40.72 123.839 41.14 124.502 41.46C125.185 41.78 125.968 41.94 126.852 41.94C127.817 41.94 128.54 41.72 129.022 41.28C129.504 40.84 129.746 40.3 129.746 39.66C129.746 39.28 129.645 38.95 129.444 38.67C129.243 38.39 128.982 38.15 128.661 37.95C128.359 37.73 128.008 37.54 127.606 37.38C127.204 37.22 126.802 37.06 126.4 36.9C125.878 36.72 125.356 36.52 124.833 36.3C124.311 36.06 123.839 35.78 123.417 35.46C123.015 35.12 122.683 34.73 122.422 34.29C122.161 33.85 122.031 33.32 122.031 32.7C122.031 32.12 122.141 31.58 122.362 31.08C122.603 30.56 122.935 30.12 123.357 29.76C123.799 29.38 124.331 29.09 124.954 28.89C125.577 28.67 126.28 28.56 127.063 28.56C127.988 28.56 128.831 28.72 129.595 29.04C130.378 29.36 131.052 29.75 131.614 30.21L130.439 31.77C129.936 31.39 129.414 31.08 128.872 30.84C128.329 30.6 127.736 30.48 127.094 30.48C126.169 30.48 125.486 30.69 125.044 31.11C124.622 31.53 124.411 32.02 124.411 32.58C124.411 32.92 124.502 33.22 124.683 33.48C124.863 33.72 125.104 33.94 125.406 34.14C125.707 34.32 126.049 34.49 126.431 34.65C126.832 34.79 127.244 34.94 127.666 35.1C128.188 35.3 128.711 35.51 129.233 35.73C129.776 35.95 130.258 36.23 130.68 36.57C131.102 36.89 131.443 37.29 131.704 37.77C131.986 38.25 132.126 38.83 132.126 39.51C132.126 40.11 132.006 40.67 131.765 41.19C131.544 41.71 131.202 42.17 130.74 42.57C130.298 42.97 129.736 43.28 129.052 43.5C128.389 43.74 127.626 43.86 126.762 43.86ZM141.497 43.86C140.513 43.86 139.589 43.69 138.725 43.35C137.881 42.99 137.138 42.49 136.495 41.85C135.872 41.19 135.38 40.39 135.018 39.45C134.656 38.51 134.476 37.44 134.476 36.24C134.476 35.04 134.656 33.97 135.018 33.03C135.4 32.07 135.892 31.26 136.495 30.6C137.118 29.94 137.821 29.44 138.604 29.1C139.388 28.74 140.202 28.56 141.045 28.56C141.97 28.56 142.793 28.72 143.517 29.04C144.26 29.36 144.873 29.82 145.355 30.42C145.857 31.02 146.239 31.74 146.5 32.58C146.761 33.42 146.892 34.36 146.892 35.4C146.892 35.66 146.882 35.92 146.862 36.18C146.862 36.42 146.842 36.63 146.802 36.81H136.917C137.017 38.37 137.499 39.61 138.363 40.53C139.247 41.43 140.392 41.88 141.799 41.88C142.502 41.88 143.145 41.78 143.728 41.58C144.33 41.36 144.903 41.08 145.445 40.74L146.319 42.36C145.676 42.76 144.963 43.11 144.18 43.41C143.396 43.71 142.502 43.86 141.497 43.86ZM136.887 35.04H144.722C144.722 33.56 144.401 32.44 143.758 31.68C143.135 30.9 142.251 30.51 141.106 30.51C140.583 30.51 140.081 30.61 139.599 30.81C139.137 31.01 138.715 31.31 138.333 31.71C137.951 32.09 137.63 32.56 137.369 33.12C137.128 33.68 136.967 34.32 136.887 35.04Z" fill="#ED6B06"/>
</g>
<defs>
<clipPath id="clip0_1539_10287">
<rect width="110" height="28" fill="white" transform="translate(37 22)"/>
</clipPath>
</defs>
</svg>
