<svg width="184" height="72" viewBox="0 0 184 72" fill="none" xmlns="http://www.w3.org/2000/svg">
<rect width="184" height="72" fill="#F9FDFE"/>
<g clip-path="url(#clip0_1539_10299)">
<path fill-rule="evenodd" clip-rule="evenodd" d="M43.4971 44.8719C43.2197 45.172 42.752 45.1854 42.4577 44.902C42.1611 44.6196 42.1493 44.1452 42.4276 43.8437C42.7077 43.5441 43.1731 43.5321 43.4688 43.8154C43.7608 44.0974 43.7777 44.5695 43.4971 44.8719ZM52.5336 41.2758C52.2534 41.5787 51.788 41.5921 51.4919 41.3074C51.1972 41.0249 51.1826 40.55 51.4632 40.25C51.7433 39.9518 52.2083 39.9374 52.503 40.2222C52.7996 40.5041 52.8137 40.9776 52.5336 41.2758ZM55.7946 30.3175C55.5163 30.6184 55.049 30.6305 54.7543 30.3476C54.4582 30.0652 54.4463 29.5903 54.726 29.2893C55.0043 28.9892 55.4697 28.9758 55.7658 29.2605C56.0601 29.5453 56.0747 30.0174 55.7946 30.3175ZM51.0288 39.5372C50.6715 39.9221 50.0725 39.9374 49.6947 39.5733C49.3173 39.2097 49.2991 38.6036 49.6559 38.2187C50.0154 37.8342 50.6104 37.8152 50.9918 38.1793C51.3701 38.5438 51.3861 39.1504 51.0288 39.5372ZM53.5894 30.1412C53.2294 30.5275 52.6349 30.5442 52.2534 30.1806C51.8756 29.8129 51.8569 29.2091 52.2165 28.8227C52.5737 28.4378 53.1733 28.4193 53.5506 28.7856C53.9307 29.1492 53.9444 29.7558 53.5894 30.1412ZM42.7132 43.1286C42.3564 43.5131 41.7578 43.5321 41.3777 43.168C40.9999 42.8035 40.9839 42.1955 41.3412 41.812C41.7003 41.4275 42.2948 41.4085 42.6749 41.7739C43.055 42.1371 43.0709 42.7437 42.7137 43.1286M49.2416 22.4023C48.9532 22.7158 48.4664 22.7307 48.1598 22.4348C47.8513 22.138 47.8367 21.6441 48.1269 21.331C48.4194 21.0217 48.9049 21.005 49.211 21.3023C49.5181 21.5968 49.5322 22.0907 49.2416 22.4023ZM35.2171 40.0863C35.0081 40.3089 34.6604 40.3209 34.4414 40.1081C34.2224 39.8975 34.2119 39.5451 34.4186 39.3229C34.628 39.0989 34.9734 39.0892 35.1943 39.2997C35.4119 39.5098 35.4242 39.8623 35.2171 40.0863ZM32.9471 32.8482C32.7377 33.0704 32.3905 33.0815 32.1715 32.8696C31.9525 32.6595 31.9415 32.3066 32.1487 32.0844C32.3581 31.8604 32.703 31.8511 32.9225 32.0612C33.1415 32.2718 33.152 32.6242 32.9471 32.8482ZM35.7327 38.278C35.4566 38.5762 34.989 38.5911 34.6951 38.3063C34.3985 38.0244 34.3849 37.5504 34.665 37.2522C34.9447 36.9503 35.4101 36.9364 35.7067 37.2211C35.9987 37.5063 36.0128 37.978 35.7327 38.278ZM41.9444 40.9229C41.5242 41.376 40.8192 41.3983 40.3725 40.9693C39.9277 40.5394 39.9071 39.8256 40.3301 39.3711C40.7499 38.9166 41.4548 38.8995 41.9015 39.328C42.3487 39.7556 42.3664 40.4698 41.9444 40.9229ZM49.0449 37.6186C48.6247 38.0731 47.9198 38.0921 47.4753 37.6649C47.0287 37.235 47.0086 36.5213 47.4306 36.0696C47.8513 35.6151 48.5553 35.5951 49.002 36.0232C49.4469 36.4508 49.4674 37.1669 49.0449 37.6186ZM47.3841 23.7709C46.9981 24.1809 46.3566 24.2022 45.9505 23.8117C45.5444 23.4198 45.5261 22.7696 45.9094 22.355C46.2959 21.9413 46.9351 21.9209 47.343 22.3128C47.7491 22.7033 47.7674 23.3563 47.3841 23.7709ZM41.2075 21.818C40.9064 22.1408 40.4068 22.1565 40.0906 21.8514C39.7734 21.5453 39.7593 21.0375 40.0595 20.7161C40.3579 20.3919 40.858 20.3798 41.1765 20.6822C41.4913 20.9892 41.5077 21.4961 41.2071 21.8175M34.8356 31.4073C34.8356 31.8632 34.4715 32.2324 34.023 32.2324C33.5741 32.2324 33.209 31.8632 33.209 31.4073C33.209 30.951 33.5741 30.579 34.023 30.579C34.4715 30.579 34.8356 30.951 34.8356 31.4073ZM36.5672 36.1173C36.2099 36.5023 35.6131 36.519 35.2335 36.1535C34.8539 35.7904 34.8375 35.1838 35.197 34.8002C35.5538 34.4148 36.1506 34.3972 36.5307 34.7608C36.908 35.1253 36.9268 35.7306 36.5672 36.1173ZM41.1911 38.2539C40.7257 38.7543 39.9482 38.7747 39.4545 38.3026C38.959 37.8305 38.9371 37.0365 39.4043 36.538C39.8711 36.0343 40.6486 36.0139 41.1427 36.486C41.6355 36.9609 41.6579 37.7535 41.1911 38.2539ZM46.7239 35.6749C46.2571 36.1781 45.4773 36.1999 44.9855 35.7264C44.4922 35.252 44.4699 34.4626 44.9371 33.9604C45.4025 33.4581 46.1818 33.4354 46.6755 33.9103C47.1669 34.3833 47.1893 35.1759 46.7239 35.6749ZM48.1064 30.0573C47.6401 30.5586 46.8621 30.579 46.3689 30.106C45.8757 29.6325 45.8533 28.8417 46.3201 28.34C46.7845 27.8377 47.5648 27.8173 48.058 28.2908C48.5512 28.7657 48.5718 29.555 48.1064 30.0573ZM45.3067 25.4382C44.8559 25.9223 44.1026 25.9437 43.6258 25.4868C43.148 25.0268 43.1284 24.2625 43.5788 23.7765C44.0296 23.2923 44.7829 23.271 45.2601 23.7273C45.7369 24.1874 45.7593 24.9526 45.3067 25.4382ZM40.4985 24.2676C40.1147 24.679 39.4773 24.6975 39.0708 24.3093C38.667 23.9188 38.6483 23.2705 39.0302 22.8577C39.4139 22.4468 40.0536 22.4297 40.4583 22.8188C40.8644 23.207 40.8799 23.8562 40.4985 24.2676ZM35.2312 27.4319C34.9328 27.7537 34.4332 27.7686 34.1143 27.4648C33.7976 27.1592 33.7835 26.6523 34.0842 26.3295C34.3826 26.0077 34.8822 25.9928 35.2007 26.2971C35.5155 26.5994 35.5319 27.1096 35.2312 27.4319ZM40.2525 26.2766C40.3301 26.9547 39.8524 27.5678 39.1871 27.648C38.5187 27.7268 37.9132 27.2422 37.8366 26.5628C37.7572 25.8857 38.2363 25.2712 38.9024 25.1928C39.5686 25.1112 40.1736 25.5972 40.2525 26.2766ZM41.0752 34.0916C41.1683 34.9018 40.5979 35.636 39.8004 35.7306C39.0019 35.8256 38.281 35.2464 38.1879 34.4348C38.0944 33.6241 38.6647 32.8914 39.4632 32.7935C40.2589 32.7012 40.9817 33.28 41.0752 34.0916ZM45.3185 29.6417C45.3185 30.4682 44.661 31.1406 43.8466 31.1406C43.0308 31.1406 42.371 30.4682 42.371 29.6417C42.371 28.813 43.0308 28.1415 43.8466 28.1415C44.661 28.1415 45.3185 28.813 45.3185 29.6417ZM43.2576 25.6756C43.796 26.3105 43.7252 27.2682 43.0992 27.8164C42.4741 28.3599 41.5319 28.288 40.994 27.6545C40.4579 27.0182 40.529 26.0591 41.1523 25.5142C41.7774 24.9702 42.7219 25.0421 43.2576 25.6756ZM37.7978 32.1878C38.1998 32.6664 38.1473 33.3825 37.6782 33.7934C37.2106 34.2015 36.5042 34.1477 36.1023 33.6714C35.7003 33.1937 35.7532 32.4777 36.22 32.0677C36.6868 31.6582 37.3935 31.7125 37.7978 32.1874M43.9319 33.9956C43.3757 34.5939 42.4477 34.6208 41.8568 34.0554C41.2682 33.4896 41.2417 32.544 41.7979 31.9457C42.3564 31.3475 43.2845 31.3178 43.8753 31.8864C44.4639 32.4522 44.4904 33.396 43.9319 33.9956ZM37.6148 28.6637C37.195 29.1158 36.496 29.1348 36.0516 28.7073C35.6068 28.2806 35.5862 27.571 36.0069 27.1175C36.4267 26.6657 37.1261 26.6467 37.5706 27.0729C38.015 27.4973 38.035 28.212 37.6148 28.6637ZM36.9368 31.2019C36.5166 31.654 35.8116 31.6763 35.3649 31.245C34.9201 30.8179 34.9004 30.1018 35.3225 29.6487C35.7445 29.1956 36.4472 29.1738 36.8944 29.6023C37.341 30.0327 37.3593 30.7492 36.9368 31.2023" fill="#00B6DE"/>
<path fill-rule="evenodd" clip-rule="evenodd" d="M41.7049 30.1124C41.7049 31.2491 40.7988 32.1711 39.68 32.1711C38.5612 32.1711 37.6555 31.2491 37.6555 30.1124C37.6555 28.9771 38.5612 28.0547 39.68 28.0547C40.7988 28.0547 41.7045 28.9771 41.7045 30.1124M58.9681 36.6924H53.819V34.5692H66.4952V36.6924H61.3439V51.4128H58.9681V36.6924Z" fill="#002D5B"/>
<path fill-rule="evenodd" clip-rule="evenodd" d="M65.4758 39.1054H67.5656V41.0129H67.6121C68.2053 39.7324 69.4865 38.8142 70.7695 38.8142C71.4334 38.8142 71.7688 38.8884 72.2396 38.9835V41.0129C71.8377 40.8432 71.3869 40.7931 71.005 40.7931C69.0133 40.7931 67.7075 42.7261 67.7075 45.8134V51.4129H65.4758V39.1054ZM80.479 45.5476C80.0045 45.5476 79.5272 45.4999 79.0541 45.4999C77.8422 45.4999 74.8527 45.6937 74.8527 47.8642C74.8527 49.1669 76.0869 49.8667 77.1067 49.8667C79.316 49.8667 80.4795 48.4684 80.4795 46.6366L80.479 45.5476ZM73.8539 39.9731C74.9709 39.2997 76.3005 38.8137 77.8418 38.8137C81.3099 38.8137 82.7111 40.5515 82.7111 43.905V48.9999C82.7111 50.3996 82.7577 51.0507 82.8065 51.4129H80.7172V49.8194H80.6679C80.1482 50.5661 78.9569 51.7023 76.9183 51.7023C74.3047 51.7023 72.4774 50.5438 72.4774 47.8642C72.4774 44.7745 75.8013 43.8099 78.1041 43.8099C78.9829 43.8099 79.6007 43.8099 80.4795 43.8604C80.4795 41.7373 79.718 40.6493 77.4863 40.6493C76.2293 40.6493 74.8751 41.1326 73.9739 41.9038L73.8539 39.9731ZM89.9741 49.8667C92.49 49.8667 93.5358 47.3341 93.5358 45.2833C93.5358 42.989 92.3723 40.6493 89.9517 40.6493C87.5298 40.6493 86.5812 42.9658 86.6278 45.2095C86.5812 47.1425 87.5764 49.8667 89.9741 49.8667ZM93.6316 49.6752H93.5846C92.9901 50.5934 91.613 51.7018 89.4526 51.7018C85.7978 51.7018 84.2542 48.3952 84.2542 45.0412C84.2542 41.7373 85.9616 38.8142 89.4767 38.8142C91.5907 38.8142 92.7984 39.6606 93.4874 40.7931H93.5358V33.3148H95.7669V51.4129H93.6316V49.6752ZM105.975 44.0742C105.975 42.1932 104.882 40.6493 102.959 40.6493C100.776 40.6493 99.8748 42.4844 99.7087 44.0747L105.975 44.0742ZM107.425 50.9042C106.57 51.2204 105.597 51.7018 103.603 51.7018C99.3049 51.7018 97.3329 49.0472 97.3329 45.0412C97.3329 41.3983 99.5891 38.8142 103.008 38.8142C107.043 38.8142 108.351 41.8064 108.351 45.7661H99.7087C99.7087 48.2036 101.583 49.8667 103.697 49.8667C105.169 49.8667 106.879 49.0945 107.425 48.6363V50.9042ZM123.614 51.4129H121.027L117.894 41.0848H117.845L114.784 51.4129H112.196L108.302 39.1054H110.747L113.526 49.2884H113.571L116.657 39.1054H119.293L122.333 49.2884H122.381L125.324 39.1054H127.509L123.614 51.4129ZM136.104 44.0742C136.104 42.1932 135.01 40.6493 133.088 40.6493C130.904 40.6493 130 42.4844 129.836 44.0747L136.104 44.0742ZM137.552 50.9042C136.697 51.2204 135.722 51.7018 133.728 51.7018C129.432 51.7018 127.462 49.0472 127.462 45.0412C127.462 41.3983 129.716 38.8142 133.135 38.8142C137.17 38.8142 138.476 41.8064 138.476 45.7661H129.836C129.836 48.2036 131.712 49.8667 133.823 49.8667C135.296 49.8667 137.005 49.0945 137.552 48.6363V50.9042ZM145.86 40.6493C143.438 40.6493 142.275 42.989 142.275 45.2833C142.275 47.3341 143.318 49.8667 145.836 49.8667C148.234 49.8667 149.229 47.1425 149.185 45.2095C149.229 42.989 148.279 40.6493 145.86 40.6493ZM140.041 33.3148H142.275V40.7931H142.323C143.01 39.6606 144.222 38.8142 146.334 38.8142C149.849 38.8142 151.556 41.7373 151.556 45.0412C151.556 48.4207 150.015 51.7018 146.356 51.7018C144.198 51.7018 142.821 50.5934 142.228 49.6752H142.179V51.4129H140.041V33.3148Z" fill="#002D5B"/>
<path fill-rule="evenodd" clip-rule="evenodd" d="M51.0228 30.0016C50.6003 30.4533 49.8976 30.4733 49.4486 30.0461C49.0042 29.6176 48.9837 28.9015 49.4039 28.4466C49.8264 27.9953 50.5309 27.9763 50.9781 28.4035C51.4247 28.8334 51.4448 29.5471 51.0228 30.0016Z" fill="#00B6DE"/>
</g>
<defs>
<clipPath id="clip0_1539_10299">
<rect width="120" height="32" fill="white" transform="translate(32 20)"/>
</clipPath>
</defs>
</svg>
