<svg width="184" height="72" viewBox="0 0 184 72" fill="none" xmlns="http://www.w3.org/2000/svg">
<rect width="184" height="72" fill="#F9FDFE"/>
<path d="M66.0513 32.7774H64.6369L61.7134 23.4517H61.6637L58.7401 32.7774H57.3529L52.3146 18.9233H55.0167L58.0126 27.9243H58.0623L60.8639 18.9233H62.5177L65.3193 27.9243H65.369L68.3377 18.9233H71.0399L66.0467 32.7774H66.0513Z" fill="#3498DB"/>
<path d="M73.7516 26.973C74.3843 29.6501 76.4809 30.7497 78.1844 30.7497C80.0597 30.7497 81.4243 29.6222 82.0344 28.4252H84.5648C83.2725 32.0024 80.1817 33.1252 78.085 33.1252C74.2623 33.1252 71.2167 29.7476 71.2167 25.8224C71.2167 21.6699 74.3346 18.5474 78.1347 18.5474C81.9349 18.5474 84.976 21.6003 85.0031 25.6507C85.0031 26.1007 84.9534 26.8014 84.9308 26.9777H73.7516V26.973ZM82.4682 24.9733C82.3461 22.9458 80.5432 20.9229 78.1077 20.9229C75.6721 20.9229 73.8691 22.9504 73.7471 24.9733H82.4636H82.4682Z" fill="#3498DB"/>
<path d="M86.9271 18.9232H89.2407V21.0481H89.2904C90.5059 19.248 92.3585 18.5474 94.0892 18.5474C98.6666 18.5474 101.08 22.3241 101.08 26.0218C101.08 29.5248 98.522 33.1252 94.2609 33.1252C91.4367 33.1252 90.0224 31.6498 89.5118 30.7729H89.4621V37.3984H86.9271V18.9232ZM93.9174 20.9229C91.265 20.9229 89.4124 23.2752 89.4124 25.8224C89.4124 28.6247 91.4322 30.7497 93.9898 30.7497C96.3756 30.7497 98.5446 28.8011 98.5446 25.8734C98.5446 23.3958 96.6693 20.9229 93.9174 20.9229Z" fill="#2CAE6C"/>
<path d="M114.103 32.7774V30.6292H114.054C113.078 32.3273 111.302 33.1299 109.476 33.1299C104.921 33.1299 102.319 29.5528 102.319 25.906C102.319 22.5283 104.632 18.5568 109.476 18.5568C111.352 18.5568 113.082 19.3548 114.054 20.8812H114.103V18.9233H116.634V32.7774H114.103ZM109.476 20.923C106.358 20.923 104.849 23.6975 104.849 25.8735C104.849 28.3743 106.774 30.7498 109.454 30.7498C112.133 30.7498 114.153 28.5228 114.153 25.8735C114.153 22.9227 112.084 20.923 109.476 20.923Z" fill="#2CAE6C"/>
<path d="M123.941 37.403H121.311L123.286 32.5035L117.904 18.9279H120.633L124.601 29.678L128.667 18.9279H131.396L123.945 37.4076L123.941 37.403Z" fill="#2CAE6C"/>
<path d="M90.7638 44.0051H88.1069V44.2371H88.9518V48.7654C88.9518 50.1248 88.5858 50.5099 87.7634 50.5099C87.2483 50.5099 87.1624 50.1063 87.1624 49.9021C87.1624 49.4057 87.1353 49.1041 86.697 49.1041C86.2587 49.1041 86.2045 49.5634 86.2045 49.7026C86.2045 50.3243 86.4756 50.8022 87.6821 50.8022C89.119 50.8022 89.8872 50.3058 89.8872 48.6494V44.2417H90.7638V44.0097V44.0051Z" fill="black"/>
<path d="M91.122 49.7538C90.9729 49.7538 90.8508 49.8002 90.7514 49.9069C90.6475 50.0136 90.5978 50.1342 90.5978 50.2873C90.5978 50.4405 90.6475 50.5611 90.7514 50.6585C90.8554 50.7606 90.9774 50.8116 91.122 50.8116C91.2666 50.8116 91.3885 50.7606 91.497 50.6585C91.5964 50.5611 91.6506 50.4358 91.6506 50.2873C91.6506 50.1388 91.6009 50.009 91.497 49.9069C91.3976 49.8002 91.2756 49.7538 91.122 49.7538Z" fill="black"/>
<path d="M97.0217 49.7538C96.8771 49.7538 96.7506 49.8002 96.6512 49.9069C96.5518 50.0136 96.5021 50.1342 96.5021 50.2873C96.5021 50.4405 96.5518 50.5611 96.6512 50.6585C96.7596 50.7606 96.8771 50.8116 97.0217 50.8116C97.1663 50.8116 97.2928 50.7606 97.3967 50.6585C97.5007 50.5611 97.5504 50.4358 97.5504 50.2873C97.5504 50.1388 97.5007 50.009 97.3967 49.9069C97.2928 49.8002 97.1708 49.7538 97.0217 49.7538Z" fill="black"/>
<path d="M95.1698 44.0051H92.5671V44.2371H93.3308V49.4011C93.3308 49.8093 93.3081 49.9114 93.263 50.032C93.2133 50.1619 93.1093 50.2686 92.9512 50.3336C92.8337 50.3847 92.6529 50.4125 92.418 50.4171V50.6305H95.2195V50.4171C94.9801 50.4125 94.7993 50.3847 94.6818 50.3382C94.5146 50.2686 94.4062 50.1712 94.352 50.0367C94.3068 49.9207 94.2797 49.8186 94.2797 49.6144V47.8467H94.971C96.9818 47.8467 97.5512 47.0302 97.5512 45.9166C97.5512 44.8031 97.2032 44.0051 95.1653 44.0051M94.8084 47.5962H94.2752V44.2696H94.7587C96.313 44.2649 96.652 44.9191 96.652 45.9816C96.652 47.0441 96.0419 47.5962 94.8084 47.5962Z" fill="black"/>
<path d="M105.856 50.0182C105.82 49.8975 105.802 49.7537 105.802 49.5681V44.2417C105.802 44.2417 106.484 44.2417 106.475 44.2371C106.466 44.2371 106.475 44.0283 106.475 44.0283H104.821C104.799 44.0887 102.847 49.0763 102.847 49.0763C102.838 49.0948 102.82 49.1042 102.802 49.1042C102.779 49.1042 102.761 49.0902 102.756 49.0763C102.756 49.0763 100.678 44.0887 100.655 44.0283H98.8207V44.2417H99.6159V49.3732C99.6159 49.3732 99.5979 49.8372 99.5979 49.8418C99.5843 49.9624 99.5482 50.0738 99.4895 50.162C99.4262 50.2594 99.3268 50.329 99.1957 50.3754C99.1099 50.4032 98.9788 50.4264 98.8207 50.4264V50.6399H100.637V50.4311C100.484 50.4264 100.416 50.4078 100.325 50.3801C100.19 50.3336 100.09 50.2687 100.027 50.1713C99.9684 50.0831 99.9278 49.9717 99.9187 49.8418L99.8961 49.3732V44.9423H100.005C100.005 44.9423 102.359 50.5795 102.381 50.6399H102.576L104.803 45.0027H104.862V49.5727C104.862 49.7676 104.844 49.9207 104.803 50.0367C104.758 50.1713 104.663 50.278 104.528 50.3476C104.424 50.3939 104.27 50.4218 104.067 50.4311V50.6445H106.606V50.4311C106.403 50.4218 106.245 50.3939 106.141 50.3429C105.992 50.2687 105.897 50.162 105.856 50.0274" fill="black"/>
<path d="M109.268 45.7822C107.912 45.7822 107.063 46.7055 107.063 48.3155C107.063 50.6771 108.852 50.8302 109.236 50.8302C110 50.8302 111.451 50.3384 111.451 48.2691C111.451 46.6591 110.524 45.7822 109.268 45.7822ZM109.25 50.5379C108.233 50.5379 108.075 50.0136 108.075 48.3387C108.075 47.0442 108.152 46.0745 109.25 46.0745C110.434 46.0745 110.438 47.0813 110.438 48.2598C110.438 49.9533 110.158 50.5379 109.25 50.5379Z" fill="black"/>
<path d="M114.997 45.8518C114.189 45.8518 113.935 46.3436 113.71 46.8447C113.71 46.8447 113.651 46.8447 113.646 46.8447C113.642 46.8447 113.529 46.1162 113.488 45.9028C113.172 45.9028 111.92 45.9028 111.92 45.9028V46.1487H112.77C112.77 46.1487 112.765 46.8911 112.765 47.1555V49.4197C112.765 49.7445 112.729 49.9718 112.661 50.1064C112.575 50.2687 112.381 50.3477 112.056 50.3477H111.92V50.6353H114.55V50.3477H114.41C114.067 50.3477 113.917 50.2687 113.823 50.1156C113.741 49.9811 113.701 49.7537 113.701 49.415V47.7169C113.701 47.1463 114.121 46.4921 114.622 46.4921C115.124 46.4921 115.137 47.3226 115.734 46.9885C116.059 46.8075 116.005 45.8518 114.997 45.8518Z" fill="black"/>
<path d="M125.467 50.1527C125.187 50.1527 125.097 49.9904 125.074 49.726L125.056 49.1181V47.1323C125.056 46.7055 124.988 46.4179 124.744 46.1627C124.5 45.9121 124.034 45.7822 123.357 45.7822C122.679 45.7822 122.223 45.9075 121.915 46.1487C121.617 46.3807 121.5 46.5988 121.5 46.9096C121.5 47.0534 121.536 47.1555 121.617 47.2251C121.698 47.2994 121.789 47.3319 121.902 47.3319C122.164 47.3319 122.308 47.1973 122.363 46.8447C122.403 46.5848 122.458 46.4317 122.584 46.2972C122.72 46.1534 122.928 46.0791 123.212 46.0791C123.542 46.0791 123.777 46.1719 123.904 46.3529C124.026 46.5246 124.089 46.7565 124.089 47.0442V47.8376C123.248 47.9165 121.26 48.0788 121.346 49.6331C121.378 50.2409 121.902 50.7745 122.575 50.7745C123.321 50.7745 123.795 50.3384 124.116 49.9904C124.166 50.3198 124.468 50.7188 125.01 50.7188C125.621 50.7188 125.986 50.4126 126.032 49.6424H125.874C125.833 49.9765 125.629 50.1574 125.463 50.1574M124.084 49.6563C124.084 49.6563 124.084 49.6842 124.066 49.6935L124.048 49.712C123.596 50.1296 123.253 50.2827 123.004 50.2827C122.358 50.2827 122.263 49.7306 122.263 49.4568C122.263 48.5753 123.443 48.1345 124.084 48.1345V49.661V49.6563Z" fill="black"/>
<path d="M130.854 50.1156C130.763 49.9811 130.692 49.7537 130.692 49.4104L130.705 47.2623C130.705 46.9514 130.664 46.6869 130.552 46.4689C130.438 46.2554 130.276 46.0977 130.077 45.991C129.874 45.8843 129.639 45.8333 129.381 45.8333C128.46 45.8333 128.089 46.4132 127.886 46.7519H127.799L127.637 45.8889H126.209V46.1348C126.476 46.1441 126.923 46.1533 126.923 46.1533V49.4104C126.923 49.6656 126.905 49.8466 126.869 49.9672C126.833 50.111 126.738 50.2131 126.607 50.2687C126.521 50.3059 126.385 50.3291 126.209 50.3337V50.6306H128.482V50.3291C128.251 50.3105 128.097 50.2456 128.016 50.1249C127.926 49.995 127.886 49.777 127.886 49.4522V48.1995C127.886 47.6752 127.886 47.1694 128.057 46.8586C128.247 46.5152 128.59 46.3296 128.974 46.3296C129.322 46.3296 129.503 46.4456 129.616 46.6684C129.711 46.854 129.769 47.3968 129.769 47.7726L129.756 49.3222C129.756 49.5821 129.787 49.7723 129.769 49.8929C129.742 50.0368 129.679 50.1481 129.571 50.2223C129.489 50.2781 129.367 50.3059 129.205 50.3198V50.6214H131.396V50.3244C131.121 50.3059 130.94 50.2363 130.859 50.1064" fill="black"/>
<path d="M120.569 45.5873C120.433 45.6336 120.343 45.7543 120.298 45.963C120.261 46.1533 120.189 46.2693 120.094 46.2972C119.999 46.325 119.895 46.3157 119.769 46.274C119.534 46.0513 119.082 45.7775 118.287 45.7775C117.008 45.7775 116.443 46.7147 116.443 47.5684C116.443 48.566 116.818 49.0531 117.64 49.2294C117.69 49.2387 117.69 49.299 117.645 49.3083C116.945 49.4521 116.321 49.6655 116.321 50.3522C116.321 50.7651 116.551 50.9925 116.845 51.1131C117.171 51.2477 117.631 51.3219 118.205 51.3312C118.707 51.3358 119.064 51.3544 119.299 51.3822C119.547 51.4101 119.751 51.4843 119.895 51.5956C120.044 51.7162 120.126 51.8926 120.126 52.1246C120.126 52.44 119.963 52.6952 119.633 52.8855C119.326 53.0617 118.91 53.15 118.386 53.15C117.939 53.15 117.573 53.0989 117.243 52.8901C116.999 52.737 116.949 52.4308 117.003 52.2081C117.049 51.9854 116.972 51.7487 116.719 51.707C116.579 51.6838 116.407 51.758 116.326 51.8879C116.249 52.0085 116.222 52.1477 116.222 52.3194C116.222 52.8855 116.646 53.1453 116.972 53.2427C117.464 53.3958 117.794 53.433 118.251 53.433C118.851 53.433 119.344 53.3402 119.692 53.1546C120.04 52.9736 120.284 52.7509 120.415 52.4958C120.551 52.2406 120.618 51.9761 120.618 51.7256C120.618 51.3868 120.546 51.1085 120.406 50.9043C119.95 50.2594 119.299 50.343 117.839 50.2687C117.139 50.2687 117.003 50.1388 117.003 49.9161C117.003 49.5913 117.265 49.4614 118.282 49.3036C119.281 49.1459 120.216 48.7654 120.216 47.5127C120.216 47.1508 120.135 46.84 120.035 46.6266C120.243 46.673 120.433 46.673 120.609 46.6126C120.813 46.5477 120.944 46.4456 121.02 46.2972C121.097 46.1487 121.115 46.0141 121.07 45.8796C120.984 45.5965 120.822 45.4991 120.573 45.578M118.314 49.0299C117.717 49.0299 117.374 48.8072 117.374 47.5591C117.374 46.6776 117.672 46.0234 118.314 46.0234C119.059 46.0234 119.276 46.6219 119.276 47.5406C119.276 48.8582 118.874 49.0299 118.314 49.0299Z" fill="black"/>
<path d="M77.7421 49.6033V49.1579H77.7529C78.0024 49.5031 78.4037 49.6812 78.8374 49.6812C79.6833 49.6812 80.3448 48.9241 80.3448 48.0611C80.3448 47.1703 79.6399 46.4353 78.7886 46.4353C78.382 46.4353 78.0024 46.6079 77.7584 46.9475H77.7475V45.4833H77.1836V49.6033H77.7421ZM78.7561 49.1523C78.1813 49.1523 77.7313 48.6624 77.7313 48.0499C77.7313 47.4653 78.1921 46.9642 78.7507 46.9642C79.3308 46.9642 79.7809 47.4765 79.7809 48.0611C79.7809 48.6624 79.3091 49.1523 78.7561 49.1523ZM81.8466 50.6333L83.5058 46.5188H82.8985L81.9929 48.9129L81.1091 46.5188H80.5018L81.7001 49.542L81.261 50.6333H81.8466Z" fill="black"/>
</svg>
