<svg width="80" height="80" viewBox="0 0 80 80" fill="none" xmlns="http://www.w3.org/2000/svg">
<path fill-rule="evenodd" clip-rule="evenodd" d="M12 5C11.9644 5 11.929 5.00026 11.8935 5.00079C11.3413 5.009 10.887 4.56799 10.8788 4.01577C10.8706 3.46354 11.3116 3.00922 11.8638 3.00101C11.9091 3.00034 11.9545 3 12 3H12.0979C12.6502 3 13.0979 3.44772 13.0979 4C13.0979 4.55228 12.6502 5 12.0979 5H12ZM15.993 4C15.993 3.44772 16.4407 3 16.993 3H17.1888C17.7411 3 18.1888 3.44772 18.1888 4C18.1888 4.55228 17.7411 5 17.1888 5H16.993C16.4407 5 15.993 4.55228 15.993 4ZM21.0839 4C21.0839 3.44772 21.5316 3 22.0839 3H22.2797C22.832 3 23.2797 3.44772 23.2797 4C23.2797 4.55228 22.832 5 22.2797 5H22.0839C21.5316 5 21.0839 4.55228 21.0839 4ZM26.1748 4C26.1748 3.44772 26.6225 3 27.1748 3H27.3706C27.9229 3 28.3706 3.44772 28.3706 4C28.3706 4.55228 27.9229 5 27.3706 5H27.1748C26.6225 5 26.1748 4.55228 26.1748 4ZM31.2657 4C31.2657 3.44772 31.7135 3 32.2657 3H32.4615C33.0138 3 33.4615 3.44772 33.4615 4C33.4615 4.55228 33.0138 5 32.4615 5H32.2657C31.7135 5 31.2657 4.55228 31.2657 4ZM36.3566 4C36.3566 3.44772 36.8044 3 37.3566 3H37.5525C38.1047 3 38.5525 3.44772 38.5525 4C38.5525 4.55228 38.1047 5 37.5525 5H37.3566C36.8044 5 36.3566 4.55228 36.3566 4ZM41.4476 4C41.4476 3.44772 41.8953 3 42.4476 3H42.6434C43.1956 3 43.6434 3.44772 43.6434 4C43.6434 4.55228 43.1956 5 42.6434 5H42.4476C41.8953 5 41.4476 4.55228 41.4476 4ZM46.5385 4C46.5385 3.44772 46.9862 3 47.5385 3H47.7343C48.2866 3 48.7343 3.44772 48.7343 4C48.7343 4.55228 48.2866 5 47.7343 5H47.5385C46.9862 5 46.5385 4.55228 46.5385 4ZM51.6294 4C51.6294 3.44772 52.0771 3 52.6294 3H52.8252C53.3775 3 53.8252 3.44772 53.8252 4C53.8252 4.55228 53.3775 5 52.8252 5H52.6294C52.0771 5 51.6294 4.55228 51.6294 4ZM56.7203 4C56.7203 3.44772 57.168 3 57.7203 3H57.9161C58.4684 3 58.9161 3.44772 58.9161 4C58.9161 4.55228 58.4684 5 57.9161 5H57.7203C57.168 5 56.7203 4.55228 56.7203 4ZM61.8112 4C61.8112 3.44772 62.2589 3 62.8112 3H63.007C63.5593 3 64.007 3.44772 64.007 4C64.007 4.55228 63.5593 5 63.007 5H62.8112C62.2589 5 61.8112 4.55228 61.8112 4ZM66.9021 4C66.9021 3.44772 67.3498 3 67.9021 3H68C68.0455 3 68.0909 3.00034 68.1362 3.00101C68.6884 3.00922 69.1294 3.46354 69.1212 4.01577C69.113 4.56799 68.6587 5.009 68.1065 5.00079C68.071 5.00026 68.0356 5 68 5H67.9021C67.3498 5 66.9021 4.55228 66.9021 4ZM7.14687 5.56193C7.53149 5.95827 7.52199 6.59137 7.12564 6.97598C7.07501 7.02512 7.02512 7.07501 6.97599 7.12564C6.59137 7.52198 5.95827 7.53149 5.56193 7.14687C5.16559 6.76225 5.15609 6.12916 5.5407 5.73282C5.60378 5.66782 5.66782 5.60377 5.73282 5.5407C6.12916 5.15608 6.76225 5.16559 7.14687 5.56193ZM72.8531 5.56193C73.2377 5.16559 73.8708 5.15609 74.2672 5.5407C74.3322 5.60378 74.3962 5.66782 74.4593 5.73282C74.8439 6.12916 74.8344 6.76225 74.4381 7.14687C74.0417 7.53149 73.4086 7.52199 73.024 7.12564C72.9749 7.07501 72.925 7.02512 72.8744 6.97599C72.478 6.59137 72.4685 5.95827 72.8531 5.56193ZM4.01577 10.8788C4.56799 10.887 5.009 11.3413 5.00079 11.8935C5.00026 11.929 5 11.9644 5 12V12.0979C5 12.6502 4.55228 13.0979 4 13.0979C3.44772 13.0979 3 12.6502 3 12.0979V12C3 11.9545 3.00034 11.9091 3.00101 11.8638C3.00922 11.3116 3.46354 10.8706 4.01577 10.8788ZM75.9842 10.8788C76.5365 10.8706 76.9908 11.3116 76.999 11.8638C76.9997 11.9091 77 11.9545 77 12V12.0979C77 12.6502 76.5523 13.0979 76 13.0979C75.4477 13.0979 75 12.6502 75 12.0979V12C75 11.9831 74.9999 11.9662 74.9998 11.9494C74.9997 11.9307 74.9995 11.9121 74.9992 11.8935C74.991 11.3413 75.432 10.887 75.9842 10.8788ZM4 15.993C4.55228 15.993 5 16.4407 5 16.993V17.1888C5 17.7411 4.55228 18.1888 4 18.1888C3.44772 18.1888 3 17.7411 3 17.1888V16.993C3 16.4407 3.44772 15.993 4 15.993ZM76 15.993C76.5523 15.993 77 16.4407 77 16.993V17.1888C77 17.7411 76.5523 18.1888 76 18.1888C75.4477 18.1888 75 17.7411 75 17.1888V16.993C75 16.4407 75.4477 15.993 76 15.993ZM4 21.0839C4.55228 21.0839 5 21.5316 5 22.0839V22.2797C5 22.832 4.55228 23.2797 4 23.2797C3.44772 23.2797 3 22.832 3 22.2797V22.0839C3 21.5316 3.44772 21.0839 4 21.0839ZM76 21.0839C76.5523 21.0839 77 21.5316 77 22.0839V22.2797C77 22.832 76.5523 23.2797 76 23.2797C75.4477 23.2797 75 22.832 75 22.2797V22.0839C75 21.5316 75.4477 21.0839 76 21.0839ZM4 26.1748C4.55228 26.1748 5 26.6225 5 27.1748V27.3706C5 27.9229 4.55228 28.3706 4 28.3706C3.44772 28.3706 3 27.9229 3 27.3706V27.1748C3 26.6225 3.44772 26.1748 4 26.1748ZM76 26.1748C76.5523 26.1748 77 26.6225 77 27.1748V27.3706C77 27.9229 76.5523 28.3706 76 28.3706C75.4477 28.3706 75 27.9229 75 27.3706V27.1748C75 26.6225 75.4477 26.1748 76 26.1748ZM4 31.2657C4.55228 31.2657 5 31.7134 5 32.2657V32.4615C5 33.0138 4.55228 33.4615 4 33.4615C3.44772 33.4615 3 33.0138 3 32.4615V32.2657C3 31.7134 3.44772 31.2657 4 31.2657ZM76 31.2657C76.5523 31.2657 77 31.7135 77 32.2657V32.4615C77 33.0138 76.5523 33.4615 76 33.4615C75.4477 33.4615 75 33.0138 75 32.4615V32.2657C75 31.7135 75.4477 31.2657 76 31.2657ZM4 36.3566C4.55228 36.3566 5 36.8044 5 37.3566V37.5524C5 38.1047 4.55228 38.5524 4 38.5524C3.44772 38.5524 3 38.1047 3 37.5524V37.3566C3 36.8044 3.44772 36.3566 4 36.3566ZM76 36.3566C76.5523 36.3566 77 36.8044 77 37.3566V37.5525C77 38.1047 76.5523 38.5525 76 38.5525C75.4477 38.5525 75 38.1047 75 37.5525V37.3566C75 36.8044 75.4477 36.3566 76 36.3566ZM4 41.4475C4.55228 41.4475 5 41.8953 5 42.4475V42.6434C5 43.1956 4.55228 43.6434 4 43.6434C3.44772 43.6434 3 43.1956 3 42.6434V42.4475C3 41.8953 3.44772 41.4475 4 41.4475ZM76 41.4476C76.5523 41.4476 77 41.8953 77 42.4476V42.6434C77 43.1956 76.5523 43.6434 76 43.6434C75.4477 43.6434 75 43.1956 75 42.6434V42.4476C75 41.8953 75.4477 41.4476 76 41.4476ZM4 46.5385C4.55228 46.5385 5 46.9862 5 47.5385V47.7343C5 48.2865 4.55228 48.7343 4 48.7343C3.44772 48.7343 3 48.2865 3 47.7343V47.5385C3 46.9862 3.44772 46.5385 4 46.5385ZM76 46.5385C76.5523 46.5385 77 46.9862 77 47.5385V47.7343C77 48.2866 76.5523 48.7343 76 48.7343C75.4477 48.7343 75 48.2866 75 47.7343V47.5385C75 46.9862 75.4477 46.5385 76 46.5385ZM4 51.6294C4.55228 51.6294 5 52.0771 5 52.6294V52.8252C5 53.3775 4.55228 53.8252 4 53.8252C3.44772 53.8252 3 53.3775 3 52.8252V52.6294C3 52.0771 3.44772 51.6294 4 51.6294ZM76 51.6294C76.5523 51.6294 77 52.0771 77 52.6294V52.8252C77 53.3775 76.5523 53.8252 76 53.8252C75.4477 53.8252 75 53.3775 75 52.8252V52.6294C75 52.0771 75.4477 51.6294 76 51.6294ZM4 56.7203C4.55228 56.7203 5 57.168 5 57.7203V57.9161C5 58.4684 4.55228 58.9161 4 58.9161C3.44772 58.9161 3 58.4684 3 57.9161V57.7203C3 57.168 3.44772 56.7203 4 56.7203ZM76 56.7203C76.5523 56.7203 77 57.168 77 57.7203V57.9161C77 58.4684 76.5523 58.9161 76 58.9161C75.4477 58.9161 75 58.4684 75 57.9161V57.7203C75 57.168 75.4477 56.7203 76 56.7203ZM4 61.8112C4.55228 61.8112 5 62.2589 5 62.8112V63.007C5 63.5593 4.55228 64.007 4 64.007C3.44772 64.007 3 63.5593 3 63.007V62.8112C3 62.2589 3.44772 61.8112 4 61.8112ZM76 61.8112C76.5523 61.8112 77 62.2589 77 62.8112V63.007C77 63.5593 76.5523 64.007 76 64.007C75.4477 64.007 75 63.5593 75 63.007V62.8112C75 62.2589 75.4477 61.8112 76 61.8112ZM76 66.9021C76.5523 66.9021 77 67.3498 77 67.9021V68C77 68.0268 76.9999 68.0536 76.9996 68.0803C76.9995 68.099 76.9993 68.1176 76.999 68.1362C76.9908 68.6884 76.5365 69.1294 75.9842 69.1212C75.432 69.113 74.991 68.6587 74.9992 68.1065C74.9997 68.071 75 68.0356 75 68V67.9021C75 67.3498 75.4477 66.9021 76 66.9021ZM4 66.9021C4.55228 66.9021 5 67.3498 5 67.9021V68C5 68.0356 5.00026 68.071 5.00079 68.1065C5.009 68.6587 4.56799 69.113 4.01577 69.1212C3.46354 69.1294 3.00922 68.6884 3.00101 68.1362C3.00034 68.0909 3 68.0455 3 68V67.9021C3 67.3498 3.44772 66.9021 4 66.9021ZM5.56193 72.8531C5.95827 72.4685 6.59137 72.478 6.97598 72.8744C7.02512 72.925 7.07501 72.9749 7.12564 73.024C7.52198 73.4086 7.53149 74.0417 7.14687 74.4381C6.76225 74.8344 6.12916 74.8439 5.73282 74.4593C5.66782 74.3962 5.60377 74.3322 5.5407 74.2672C5.15608 73.8708 5.16559 73.2377 5.56193 72.8531ZM74.4381 72.8531C74.8344 73.2377 74.8439 73.8708 74.4593 74.2672C74.3962 74.3322 74.3322 74.3962 74.2672 74.4593C73.8708 74.8439 73.2377 74.8344 72.8531 74.4381C72.4685 74.0417 72.478 73.4086 72.8744 73.024C72.9038 72.9954 72.933 72.9666 72.962 72.9375C72.9828 72.9166 73.0035 72.8955 73.024 72.8744C73.4086 72.478 74.0417 72.4685 74.4381 72.8531ZM10.8788 75.9842C10.887 75.432 11.3413 74.991 11.8935 74.9992C11.929 74.9997 11.9644 75 12 75H12.0979C12.6502 75 13.0979 75.4477 13.0979 76C13.0979 76.5523 12.6502 77 12.0979 77H12C11.9701 77 11.9402 76.9999 11.9104 76.9996C11.8949 76.9994 11.8793 76.9992 11.8638 76.999C11.3116 76.9908 10.8706 76.5365 10.8788 75.9842ZM69.1212 75.9842C69.1294 76.5365 68.6884 76.9908 68.1362 76.999C68.1009 76.9995 68.0656 76.9998 68.0302 77C68.0202 77 68.0101 77 68 77H67.9021C67.3498 77 66.9021 76.5523 66.9021 76C66.9021 75.4477 67.3498 75 67.9021 75H68C68.0356 75 68.071 74.9997 68.1065 74.9992C68.6587 74.991 69.113 75.432 69.1212 75.9842ZM15.993 76C15.993 75.4477 16.4407 75 16.993 75H17.1888C17.7411 75 18.1888 75.4477 18.1888 76C18.1888 76.5523 17.7411 77 17.1888 77H16.993C16.4407 77 15.993 76.5523 15.993 76ZM21.0839 76C21.0839 75.4477 21.5316 75 22.0839 75H22.2797C22.832 75 23.2797 75.4477 23.2797 76C23.2797 76.5523 22.832 77 22.2797 77H22.0839C21.5316 77 21.0839 76.5523 21.0839 76ZM26.1748 76C26.1748 75.4477 26.6225 75 27.1748 75H27.3706C27.9229 75 28.3706 75.4477 28.3706 76C28.3706 76.5523 27.9229 77 27.3706 77H27.1748C26.6225 77 26.1748 76.5523 26.1748 76ZM31.2657 76C31.2657 75.4477 31.7134 75 32.2657 75H32.4615C33.0138 75 33.4615 75.4477 33.4615 76C33.4615 76.5523 33.0138 77 32.4615 77H32.2657C31.7134 77 31.2657 76.5523 31.2657 76ZM36.3566 76C36.3566 75.4477 36.8044 75 37.3566 75H37.5524C38.1047 75 38.5524 75.4477 38.5524 76C38.5524 76.5523 38.1047 77 37.5524 77H37.3566C36.8044 77 36.3566 76.5523 36.3566 76ZM41.4475 76C41.4475 75.4477 41.8953 75 42.4475 75H42.6434C43.1956 75 43.6434 75.4477 43.6434 76C43.6434 76.5523 43.1956 77 42.6434 77H42.4475C41.8953 77 41.4475 76.5523 41.4475 76ZM46.5385 76C46.5385 75.4477 46.9862 75 47.5385 75H47.7343C48.2865 75 48.7343 75.4477 48.7343 76C48.7343 76.5523 48.2865 77 47.7343 77H47.5385C46.9862 77 46.5385 76.5523 46.5385 76ZM51.6294 76C51.6294 75.4477 52.0771 75 52.6294 75H52.8252C53.3775 75 53.8252 75.4477 53.8252 76C53.8252 76.5523 53.3775 77 52.8252 77H52.6294C52.0771 77 51.6294 76.5523 51.6294 76ZM56.7203 76C56.7203 75.4477 57.168 75 57.7203 75H57.9161C58.4684 75 58.9161 75.4477 58.9161 76C58.9161 76.5523 58.4684 77 57.9161 77H57.7203C57.168 77 56.7203 76.5523 56.7203 76ZM61.8112 76C61.8112 75.4477 62.2589 75 62.8112 75H63.007C63.5593 75 64.007 75.4477 64.007 76C64.007 76.5523 63.5593 77 63.007 77H62.8112C62.2589 77 61.8112 76.5523 61.8112 76Z" fill="#FF6B6B"/>
<path fill-rule="evenodd" clip-rule="evenodd" d="M12 5C8.13401 5 5 8.13401 5 12V68C5 71.866 8.13401 75 12 75H68C71.866 75 75 71.866 75 68V57.1053C75 56.553 75.4477 56.1053 76 56.1053C76.5523 56.1053 77 56.553 77 57.1053V68C77 72.9706 72.9706 77 68 77H12C7.02944 77 3 72.9706 3 68V12C3 7.02944 7.02944 3 12 3H22.8947C23.447 3 23.8947 3.44772 23.8947 4C23.8947 4.55228 23.447 5 22.8947 5H12Z" fill="#A0522D"/>
<g style="mix-blend-mode:multiply">
<path d="M12 50C12 48.3431 13.3431 47 15 47H31C32.6569 47 34 48.3431 34 50V66C34 67.6569 32.6569 69 31 69H15C13.3431 69 12 67.6569 12 66V50Z" fill="#87CEEB"/>
</g>
<g style="mix-blend-mode:multiply">
<path d="M22 24C22 22.3431 23.3431 21 25 21H57C58.6569 21 60 22.3431 60 24V56C60 57.6569 58.6569 59 57 59H23C22.4477 59 22 58.5523 22 58V24Z" fill="#FFD700"/>
</g>
<g style="mix-blend-mode:multiply">
<path fill-rule="evenodd" clip-rule="evenodd" d="M39 32H48C48.5523 32 49 32.4477 49 33V42C49 42.5523 48.5523 43 48 43C47.4477 43 47 42.5523 47 42V35.4142L23.7071 58.7071C23.3166 59.0976 22.6834 59.0976 22.2929 58.7071C21.9024 58.3166 21.9024 57.6834 22.2929 57.2929L45.5858 34H39C38.4477 34 38 33.5523 38 33C38 32.4477 38.4477 32 39 32Z" fill="#A0522D"/>
</g>
</svg>
