<svg width="80" height="80" viewBox="0 0 80 80" fill="none" xmlns="http://www.w3.org/2000/svg">
<g style="mix-blend-mode:multiply">
<path d="M28 32C28 29.7909 29.7909 28 32 28H48C50.2091 28 52 29.7909 52 32V48C52 50.2091 50.2091 52 48 52H32C29.7909 52 28 50.2091 28 48V32Z" fill="#87CEEB"/>
</g>
<g style="mix-blend-mode:multiply">
<circle cx="40" cy="19" r="5" fill="#008000"/>
</g>
<g style="mix-blend-mode:multiply">
<circle cx="40" cy="61" r="5" fill="#008000"/>
</g>
<g style="mix-blend-mode:multiply">
<circle cx="61" cy="40" r="5" fill="#008000"/>
</g>
<g style="mix-blend-mode:multiply">
<circle cx="19" cy="40" r="5" fill="#008000"/>
</g>
<g style="mix-blend-mode:multiply">
<path d="M38 21C38 19.8954 38.8954 19 40 19C41.1046 19 42 19.8954 42 21V30C42 31.1046 41.1046 32 40 32C38.8954 32 38 31.1046 38 30V21Z" fill="#008000"/>
</g>
<g style="mix-blend-mode:multiply">
<path d="M38 50C38 48.8954 38.8954 48 40 48C41.1046 48 42 48.8954 42 50V59C42 60.1046 41.1046 61 40 61C38.8954 61 38 60.1046 38 59V50Z" fill="#008000"/>
</g>
<g style="mix-blend-mode:multiply">
<path d="M59 38C60.1046 38 61 38.8954 61 40C61 41.1046 60.1046 42 59 42L50 42C48.8954 42 48 41.1046 48 40C48 38.8954 48.8954 38 50 38L59 38Z" fill="#008000"/>
</g>
<g style="mix-blend-mode:multiply">
<path d="M30 38C31.1046 38 32 38.8954 32 40C32 41.1046 31.1046 42 30 42L21 42C19.8954 42 19 41.1046 19 40C19 38.8954 19.8954 38 21 38L30 38Z" fill="#008000"/>
</g>
<path fill-rule="evenodd" clip-rule="evenodd" d="M39.9537 0.237728C39.9845 0.23757 40.0153 0.23757 40.0461 0.237728C40.5984 0.24056 41.0438 0.690565 41.041 1.24284C41.0381 1.79512 40.5881 2.24053 40.0358 2.2377C40.0119 2.23758 39.9879 2.23758 39.964 2.2377C39.4117 2.24053 38.9617 1.79512 38.9589 1.24284C38.956 0.690565 39.4014 0.24056 39.9537 0.237728ZM43.0956 1.79337C43.3693 1.31367 43.9801 1.14666 44.4598 1.42035L44.4999 1.44338L44.5434 1.46851C45.0217 1.74466 45.1856 2.35625 44.9095 2.83454C44.6333 3.31283 44.0217 3.47671 43.5434 3.20056L43.4999 3.17543L43.4687 3.1575C42.989 2.88381 42.822 2.27307 43.0956 1.79337ZM36.9042 1.79337C37.1779 2.27307 37.0108 2.88381 36.5312 3.1575L36.4999 3.17543L36.4564 3.20056C35.9781 3.47671 35.3665 3.31283 35.0903 2.83454C34.8142 2.35625 34.9781 1.74466 35.4564 1.46851L35.4999 1.44338L35.54 1.42035C36.0197 1.14666 36.6305 1.31367 36.9042 1.79337ZM32.4693 4.34781C32.7454 4.8261 32.5816 5.43769 32.1033 5.71383L32.0162 5.7641C31.5379 6.04024 30.9263 5.87636 30.6502 5.39807C30.374 4.91978 30.5379 4.30819 31.0162 4.03205L31.1033 3.98178C31.5816 3.70564 32.1931 3.86951 32.4693 4.34781ZM47.5305 4.34781C47.8067 3.86951 48.4183 3.70564 48.8965 3.98178L48.9836 4.03205C49.4619 4.30819 49.6258 4.91978 49.3496 5.39807C49.0735 5.87636 48.4619 6.04024 47.9836 5.7641L47.8965 5.71383C47.4183 5.43769 47.2544 4.8261 47.5305 4.34781ZM28.0291 6.91134C28.3053 7.38963 28.1414 8.00122 27.6631 8.27737L27.576 8.32763C27.0977 8.60377 26.4862 8.4399 26.21 7.96161C25.9339 7.48331 26.0977 6.87172 26.576 6.59558L26.6631 6.54531C27.1414 6.26917 27.753 6.43305 28.0291 6.91134ZM51.9707 6.91134C52.2468 6.43305 52.8584 6.26917 53.3367 6.54531L53.4238 6.59558C53.9021 6.87172 54.0659 7.48331 53.7898 7.96161C53.5137 8.4399 52.9021 8.60377 52.4238 8.32763L52.3367 8.27737C51.8584 8.00122 51.6945 7.38963 51.9707 6.91134ZM23.589 9.47487C23.8651 9.95317 23.7012 10.5648 23.2229 10.8409L23.1359 10.8912C22.6576 11.1673 22.046 11.0034 21.7698 10.5251C21.4937 10.0468 21.6576 9.43526 22.1359 9.15911L22.2229 9.10885C22.7012 8.83271 23.3128 8.99658 23.589 9.47487ZM56.4109 9.47487C56.687 8.99658 57.2986 8.8327 57.7769 9.10885L57.8639 9.15911C58.3422 9.43526 58.5061 10.0468 58.23 10.5251C57.9538 11.0034 57.3422 11.1673 56.8639 10.8912L56.7769 10.8409C56.2986 10.5648 56.1347 9.95317 56.4109 9.47487ZM19.1488 12.0384C19.4249 12.5167 19.2611 13.1283 18.7828 13.4044L18.6957 13.4547C18.2174 13.7308 17.6058 13.567 17.3297 13.0887C17.0535 12.6104 17.2174 11.9988 17.6957 11.7226L17.7828 11.6724C18.2611 11.3962 18.8726 11.5601 19.1488 12.0384ZM60.851 12.0384C61.1272 11.5601 61.7388 11.3962 62.2171 11.6724L62.3041 11.7226C62.7824 11.9988 62.9463 12.6104 62.6701 13.0887C62.394 13.567 61.7824 13.7308 61.3041 13.4547L61.2171 13.4044C60.7388 13.1283 60.5749 12.5167 60.851 12.0384ZM14.7086 14.6019C14.9848 15.0802 14.8209 15.6918 14.3426 15.968L14.2555 16.0182C13.7772 16.2944 13.1656 16.1305 12.8895 15.6522C12.6134 15.1739 12.7772 14.5623 13.2555 14.2862L13.3426 14.2359C13.8209 13.9598 14.4325 14.1236 14.7086 14.6019ZM65.2912 14.6019C65.5673 14.1236 66.1789 13.9598 66.6572 14.2359L66.7443 14.2862C67.2226 14.5623 67.3865 15.1739 67.1103 15.6522C66.8342 16.1305 66.2226 16.2944 65.7443 16.0182L65.6572 15.968C65.1789 15.6918 65.0151 15.0802 65.2912 14.6019ZM10.2684 17.1655C10.5446 17.6438 10.3807 18.2554 9.90242 18.5315L9.85889 18.5566L9.82773 18.5747C9.35086 18.8533 8.73844 18.6926 8.45985 18.2157C8.18126 17.7388 8.342 17.1264 8.81888 16.8478L8.85889 16.8246L8.90242 16.7994C9.38071 16.5233 9.9923 16.6872 10.2684 17.1655ZM69.7314 17.1655C70.0075 16.6872 70.6191 16.5233 71.0974 16.7994L71.1409 16.8246L71.1809 16.8478C71.6578 17.1264 71.8186 17.7388 71.54 18.2157C71.2614 18.6926 70.6489 18.8533 70.1721 18.5747L70.1409 18.5566L70.0974 18.5315C69.6191 18.2554 69.4552 17.6438 69.7314 17.1655ZM6.95574 19.7198C7.43261 19.9984 7.59335 20.6109 7.31476 21.0877C7.30267 21.1084 7.29069 21.1292 7.27882 21.15C7.00513 21.6297 6.39439 21.7967 5.91469 21.523C5.43499 21.2493 5.26798 20.6386 5.54166 20.1589C5.55692 20.1321 5.57232 20.1055 5.58786 20.0789C5.86645 19.602 6.47887 19.4413 6.95574 19.7198ZM73.0441 19.7198C73.5209 19.4413 74.1334 19.602 74.412 20.0789C74.4207 20.0938 74.4294 20.1088 74.438 20.1238C74.4448 20.1355 74.4515 20.1472 74.4581 20.1589C74.7318 20.6386 74.5648 21.2493 74.0851 21.523C73.6054 21.7967 72.9947 21.6297 72.721 21.15C72.7091 21.1292 72.6971 21.1084 72.6851 21.0877C72.4065 20.6109 72.5672 19.9984 73.0441 19.7198ZM5.36411 23.5777C5.91639 23.5805 6.36181 24.0305 6.35898 24.5828L6.35889 24.6188V24.6691C6.35889 25.2214 5.91117 25.6691 5.35889 25.6691C4.8066 25.6691 4.35889 25.2214 4.35889 24.6691V24.6188L4.359 24.5725C4.36183 24.0203 4.81184 23.5748 5.36411 23.5777ZM74.6357 23.5777C75.188 23.5748 75.638 24.0203 75.6408 24.5725L75.6409 24.6188V24.6691C75.6409 25.2214 75.1932 25.6691 74.6409 25.6691C74.0886 25.6691 73.6409 25.2214 73.6409 24.6691V24.6188L73.6408 24.5828C73.638 24.0305 74.0834 23.5805 74.6357 23.5777ZM5.35889 28.6956C5.91117 28.6956 6.35889 29.1433 6.35889 29.6956V29.7961C6.35889 30.3484 5.91117 30.7961 5.35889 30.7961C4.8066 30.7961 4.35889 30.3484 4.35889 29.7961V29.6956C4.35889 29.1433 4.8066 28.6956 5.35889 28.6956ZM74.6409 28.6956C75.1932 28.6956 75.6409 29.1433 75.6409 29.6956V29.7961C75.6409 30.3484 75.1932 30.7961 74.6409 30.7961C74.0886 30.7961 73.6409 30.3484 73.6409 29.7961V29.6956C73.6409 29.1433 74.0886 28.6956 74.6409 28.6956ZM5.35889 33.8227C5.91117 33.8227 6.35889 34.2704 6.35889 34.8227V34.9232C6.35889 35.4755 5.91117 35.9232 5.35889 35.9232C4.8066 35.9232 4.35889 35.4755 4.35889 34.9232V34.8227C4.35889 34.2704 4.8066 33.8227 5.35889 33.8227ZM74.6409 33.8227C75.1932 33.8227 75.6409 34.2704 75.6409 34.8227V34.9232C75.6409 35.4755 75.1932 35.9232 74.6409 35.9232C74.0886 35.9232 73.6409 35.4755 73.6409 34.9232V34.8227C73.6409 34.2704 74.0886 33.8227 74.6409 33.8227ZM5.35889 38.9497C5.91117 38.9497 6.35889 39.3975 6.35889 39.9497V40.0503C6.35889 40.6026 5.91117 41.0503 5.35889 41.0503C4.8066 41.0503 4.35889 40.6026 4.35889 40.0503V39.9497C4.35889 39.3975 4.8066 38.9497 5.35889 38.9497ZM74.6409 38.9497C75.1932 38.9497 75.6409 39.3975 75.6409 39.9497V40.0503C75.6409 40.6026 75.1932 41.0503 74.6409 41.0503C74.0886 41.0503 73.6409 40.6026 73.6409 40.0503V39.9497C73.6409 39.3975 74.0886 38.9497 74.6409 38.9497ZM5.35889 44.0768C5.91117 44.0768 6.35889 44.5245 6.35889 45.0768V45.1773C6.35889 45.7296 5.91117 46.1773 5.35889 46.1773C4.8066 46.1773 4.35889 45.7296 4.35889 45.1773V45.0768C4.35889 44.5245 4.8066 44.0768 5.35889 44.0768ZM74.6409 44.0768C75.1932 44.0768 75.6409 44.5245 75.6409 45.0768V45.1773C75.6409 45.7296 75.1932 46.1773 74.6409 46.1773C74.0886 46.1773 73.6409 45.7296 73.6409 45.1773V45.0768C73.6409 44.5245 74.0886 44.0768 74.6409 44.0768ZM5.35889 49.2039C5.91117 49.2039 6.35889 49.6516 6.35889 50.2039V50.3044C6.35889 50.8567 5.91117 51.3044 5.35889 51.3044C4.8066 51.3044 4.35889 50.8567 4.35889 50.3044V50.2039C4.35889 49.6516 4.8066 49.2039 5.35889 49.2039ZM74.6409 49.2039C75.1932 49.2039 75.6409 49.6516 75.6409 50.2039V50.3044C75.6409 50.8567 75.1932 51.3044 74.6409 51.3044C74.0886 51.3044 73.6409 50.8567 73.6409 50.3044V50.2039C73.6409 49.6516 74.0886 49.2039 74.6409 49.2039ZM5.35889 54.3309C5.91117 54.3309 6.35889 54.7787 6.35889 55.3309V55.3812L6.35898 55.4172C6.36181 55.9695 5.91639 56.4195 5.36411 56.4223C4.81184 56.4252 4.36183 55.9797 4.359 55.4275L4.35889 55.3812V55.3309C4.35889 54.7787 4.8066 54.3309 5.35889 54.3309ZM74.6409 54.3309C75.1932 54.3309 75.6409 54.7787 75.6409 55.3309V55.3812L75.6408 55.4275C75.638 55.9797 75.188 56.4252 74.6357 56.4223C74.0834 56.4195 73.638 55.9695 73.6408 55.4172L73.6409 55.3812V55.3309C73.6409 54.7787 74.0886 54.3309 74.6409 54.3309ZM5.91469 58.477C6.39439 58.2033 7.00513 58.3703 7.27882 58.85C7.29069 58.8708 7.30267 58.8916 7.31476 58.9123C7.59335 59.3891 7.43261 60.0016 6.95574 60.2802C6.47887 60.5588 5.86645 60.398 5.58786 59.9211C5.58047 59.9085 5.57311 59.8958 5.56578 59.8832C5.55771 59.8692 5.54967 59.8552 5.54167 59.8411C5.26798 59.3614 5.43499 58.7507 5.91469 58.477ZM74.0851 58.477C74.5648 58.7507 74.7318 59.3614 74.4581 59.8411C74.4429 59.8679 74.4275 59.8946 74.412 59.9211C74.1334 60.398 73.5209 60.5588 73.0441 60.2802C72.5672 60.0016 72.4065 59.3891 72.6851 58.9123C72.6971 58.8916 72.7091 58.8708 72.721 58.85C72.9947 58.3703 73.6054 58.2033 74.0851 58.477ZM8.45985 61.7843C8.73844 61.3074 9.35086 61.1467 9.82773 61.4253L9.85889 61.4434L9.90242 61.4685C10.3807 61.7447 10.5446 62.3562 10.2684 62.8345C9.9923 63.3128 9.38071 63.4767 8.90242 63.2006L8.85889 63.1754L8.81888 63.1522C8.342 62.8736 8.18126 62.2612 8.45985 61.7843ZM71.54 61.7843C71.8186 62.2612 71.6578 62.8736 71.1809 63.1522L71.1409 63.1754L71.0974 63.2006C70.6191 63.4767 70.0075 63.3128 69.7314 62.8345C69.4552 62.3562 69.6191 61.7447 70.0974 61.4685L70.1409 61.4434L70.1721 61.4253C70.6489 61.1467 71.2614 61.3074 71.54 61.7843ZM12.8895 64.3478C13.1656 63.8695 13.7772 63.7056 14.2555 63.9818L14.3426 64.032C14.8209 64.3082 14.9848 64.9198 14.7086 65.3981C14.4325 65.8764 13.8209 66.0402 13.3426 65.7641L13.2555 65.7138C12.7772 65.4377 12.6134 64.8261 12.8895 64.3478ZM67.1103 64.3478C67.3865 64.8261 67.2226 65.4377 66.7443 65.7138L66.6572 65.7641C66.1789 66.0402 65.5673 65.8764 65.2912 65.3981C65.0151 64.9198 65.1789 64.3082 65.6572 64.032L65.7443 63.9818C66.2226 63.7056 66.8342 63.8695 67.1103 64.3478ZM17.3297 66.9113C17.6058 66.4331 18.2174 66.2692 18.6957 66.5453L18.7828 66.5956C19.261 66.8717 19.4249 67.4833 19.1488 67.9616C18.8726 68.4399 18.261 68.6038 17.7828 68.3276L17.6957 68.2774C17.2174 68.0012 17.0535 67.3896 17.3297 66.9113ZM62.6701 66.9113C62.9463 67.3896 62.7824 68.0012 62.3041 68.2774L62.2171 68.3276C61.7388 68.6038 61.1272 68.4399 60.851 67.9616C60.5749 67.4833 60.7388 66.8717 61.2171 66.5956L61.3041 66.5453C61.7824 66.2692 62.394 66.4331 62.6701 66.9113ZM21.7698 69.4749C22.046 68.9966 22.6576 68.8327 23.1359 69.1088L23.2229 69.1591C23.7012 69.4353 23.8651 70.0468 23.589 70.5251C23.3128 71.0034 22.7012 71.1673 22.2229 70.8912L22.1359 70.8409C21.6576 70.5648 21.4937 69.9532 21.7698 69.4749ZM58.23 69.4749C58.5061 69.9532 58.3422 70.5648 57.8639 70.8409L57.7769 70.8912C57.2986 71.1673 56.687 71.0034 56.4109 70.5251C56.1347 70.0468 56.2986 69.4353 56.7769 69.1591L56.8639 69.1088C57.3422 68.8327 57.9538 68.9966 58.23 69.4749ZM26.21 72.0384C26.4862 71.5601 27.0977 71.3962 27.576 71.6724L27.6631 71.7226C28.1414 71.9988 28.3053 72.6104 28.0291 73.0887C27.753 73.567 27.1414 73.7308 26.6631 73.4547L26.576 73.4044C26.0977 73.1283 25.9339 72.5167 26.21 72.0384ZM53.7898 72.0384C54.0659 72.5167 53.9021 73.1283 53.4238 73.4044L53.3367 73.4547C52.8584 73.7308 52.2468 73.567 51.9707 73.0887C51.6945 72.6104 51.8584 71.9988 52.3367 71.7226L52.4238 71.6724C52.9021 71.3962 53.5137 71.5601 53.7898 72.0384ZM30.6502 74.6019C30.9263 74.1236 31.5379 73.9598 32.0162 74.2359L32.1033 74.2862C32.5816 74.5623 32.7454 75.1739 32.4693 75.6522C32.1931 76.1305 31.5816 76.2944 31.1033 76.0182L31.0162 75.968C30.5379 75.6918 30.374 75.0802 30.6502 74.6019ZM49.3496 74.6019C49.6258 75.0802 49.4619 75.6918 48.9836 75.968L48.8965 76.0182C48.4183 76.2944 47.8067 76.1305 47.5305 75.6522C47.2544 75.1739 47.4183 74.5623 47.8965 74.2862L47.9836 74.2359C48.4619 73.9598 49.0735 74.1236 49.3496 74.6019ZM35.0903 77.1655C35.3665 76.6872 35.9781 76.5233 36.4564 76.7994L36.4999 76.8246L36.5312 76.8425C37.0108 77.1162 37.1779 77.7269 36.9042 78.2066C36.6305 78.6863 36.0197 78.8534 35.54 78.5797L35.4999 78.5566L35.4564 78.5315C34.9781 78.2554 34.8142 77.6438 35.0903 77.1655ZM44.9095 77.1655C45.1856 77.6438 45.0217 78.2554 44.5434 78.5315L44.4999 78.5566L44.4598 78.5797C43.9801 78.8534 43.3693 78.6863 43.0956 78.2066C42.822 77.7269 42.989 77.1162 43.4687 76.8425L43.4999 76.8246L43.5434 76.7994C44.0217 76.5233 44.6333 76.6872 44.9095 77.1655ZM38.9589 78.7572C38.9617 78.2049 39.4117 77.7595 39.964 77.7623C39.9879 77.7624 40.0119 77.7624 40.0358 77.7623C40.5881 77.7595 41.0381 78.2049 41.041 78.7572C41.0438 79.3094 40.5984 79.7595 40.0461 79.7623C40.0153 79.7624 39.9845 79.7624 39.9537 79.7623C39.4014 79.7595 38.956 79.3094 38.9589 78.7572Z" fill="#FFA500"/>
<path fill-rule="evenodd" clip-rule="evenodd" d="M43.4999 3.17543C41.3341 1.925 38.6657 1.925 36.4999 3.17543L9.85889 18.5566C7.69308 19.8071 6.35889 22.1179 6.35889 24.6188V55.3812C6.35889 57.8821 7.69308 60.193 9.85889 61.4434L36.4999 76.8246C38.6657 78.075 41.3341 78.075 43.4999 76.8246L56.8204 69.134C57.2987 68.8578 57.9103 69.0217 58.1864 69.5C58.4626 69.9783 58.2987 70.5899 57.8204 70.866L44.4999 78.5566C41.7153 80.1643 38.2845 80.1643 35.4999 78.5566L8.85889 63.1754C6.07428 61.5677 4.35889 58.5966 4.35889 55.3812V24.6188C4.35889 21.4034 6.07428 18.4323 8.85889 16.8246L35.4999 1.44338C38.2845 -0.164314 41.7153 -0.164314 44.4999 1.44338L57.8204 9.13398C58.2987 9.41012 58.4626 10.0217 58.1864 10.5C57.9103 10.9783 57.2987 11.1422 56.8204 10.866L43.4999 3.17543Z" fill="#A0522D"/>
</svg>
