<svg width="80" height="80" viewBox="0 0 80 80" fill="none" xmlns="http://www.w3.org/2000/svg">
<g style="mix-blend-mode:multiply">
<path d="M22 25C22 23.8954 22.8954 23 24 23H34V30H24C22.8954 30 22 29.1046 22 28V25Z" fill="#008000"/>
</g>
<g style="mix-blend-mode:multiply">
<path d="M30 23H56C57.1046 23 58 23.8954 58 25V28C58 29.1046 57.1046 30 56 30H30V23Z" fill="#FFD700"/>
</g>
<g style="mix-blend-mode:multiply">
<path d="M22 34C22 32.8954 22.8954 32 24 32H34V39H24C22.8954 39 22 38.1046 22 37V34Z" fill="#008000"/>
</g>
<g style="mix-blend-mode:multiply">
<path d="M30 32H56C57.1046 32 58 32.8954 58 34V37C58 38.1046 57.1046 39 56 39H30V32Z" fill="#FFD700"/>
</g>
<g style="mix-blend-mode:multiply">
<path d="M22 43C22 41.8954 22.8954 41 24 41H34V48H24C22.8954 48 22 47.1046 22 46V43Z" fill="#008000"/>
</g>
<g style="mix-blend-mode:multiply">
<path d="M30 41H56C57.1046 41 58 41.8954 58 43V46C58 47.1046 57.1046 48 56 48H30V41Z" fill="#FFD700"/>
</g>
<g style="mix-blend-mode:multiply">
<path d="M22 52C22 50.8954 22.8954 50 24 50H34V57H24C22.8954 57 22 56.1046 22 55V52Z" fill="#008000"/>
</g>
<g style="mix-blend-mode:multiply">
<path d="M30 50H56C57.1046 50 58 50.8954 58 52V55C58 56.1046 57.1046 57 56 57H30V50Z" fill="#FFD700"/>
</g>
<path fill-rule="evenodd" clip-rule="evenodd" d="M39.9495 1.00003L40 1L40.0505 1.00003C40.6028 1.00073 41.0499 1.44901 41.0492 2.0013C41.0485 2.55358 40.6002 3.00073 40.0479 3.00003L40 3L39.9521 3.00003C39.3998 3.00073 38.9515 2.55358 38.9508 2.0013C38.9501 1.44901 39.3972 1.00073 39.9495 1.00003ZM44.9099 2.301C44.9949 1.7553 45.5062 1.38186 46.0519 1.46689L46.1515 1.48254C46.697 1.56898 47.0691 2.08126 46.9826 2.62674C46.8962 3.17221 46.3839 3.54433 45.8384 3.45788L45.744 3.44304C45.1983 3.35801 44.8249 2.8467 44.9099 2.301ZM35.0901 2.301C35.1751 2.8467 34.8017 3.35801 34.256 3.44304L34.1616 3.45788C33.6161 3.54433 33.1038 3.17221 33.0173 2.62674C32.9309 2.08126 33.303 1.56898 33.8485 1.48254L33.9481 1.46689C34.4938 1.38186 35.0051 1.7553 35.0901 2.301ZM50.7486 3.52769C50.9185 3.00218 51.4822 2.7139 52.0078 2.88379L52.1034 2.91485C52.6285 3.08611 52.9153 3.65058 52.7441 4.17565C52.5728 4.70071 52.0083 4.98753 51.4833 4.81627L51.3925 4.78681C50.867 4.61692 50.5787 4.05319 50.7486 3.52769ZM29.2514 3.52769C29.4213 4.05319 29.133 4.61692 28.6075 4.78681L28.5167 4.81627C27.9917 4.98753 27.4272 4.70071 27.2559 4.17565C27.0847 3.65058 27.3715 3.08611 27.8966 2.91485L27.9922 2.88379C28.5177 2.7139 29.0815 3.00218 29.2514 3.52769ZM56.3206 5.65881C56.5711 5.1666 57.1731 4.97065 57.6654 5.22114L57.7548 5.26682C58.2464 5.51859 58.4408 6.12117 58.189 6.61274C57.9372 7.1043 57.3347 7.29869 56.8431 7.04692L56.7582 7.00359C56.266 6.7531 56.0701 6.15102 56.3206 5.65881ZM23.6794 5.65881C23.9299 6.15102 23.734 6.7531 23.2418 7.00359L23.1569 7.04692C22.6653 7.29869 22.0627 7.1043 21.811 6.61274C21.5592 6.12118 21.7536 5.51859 22.2452 5.26682L22.3346 5.22114C22.8269 4.97065 23.4289 5.1666 23.6794 5.65881ZM18.5118 8.6388C18.8362 9.08576 18.7368 9.71108 18.2899 10.0355L18.2128 10.0916C17.7667 10.4171 17.1411 10.3194 16.8156 9.87324C16.49 9.42711 16.5878 8.80154 17.0339 8.47598L17.1151 8.4169C17.562 8.09249 18.1873 8.19183 18.5118 8.6388ZM61.4882 8.6388C61.8127 8.19183 62.438 8.09249 62.8849 8.4169L62.9661 8.47598C63.4122 8.80154 63.51 9.42711 63.1844 9.87324C62.8589 10.3194 62.2333 10.4171 61.7872 10.0916L61.7101 10.0355C61.2632 9.71108 61.1638 9.08576 61.4882 8.6388ZM13.8726 12.3892C14.2626 12.7802 14.2618 13.4134 13.8708 13.8034L13.8034 13.8708C13.4134 14.2618 12.7802 14.2626 12.3892 13.8726C11.9981 13.4825 11.9973 12.8494 12.3874 12.4584L12.4584 12.3874C12.8494 11.9973 13.4826 11.9981 13.8726 12.3892ZM66.1274 12.3892C66.5174 11.9981 67.1506 11.9973 67.5416 12.3874L67.6126 12.4584C68.0027 12.8494 68.0019 13.4826 67.6108 13.8726C67.2198 14.2626 66.5866 14.2618 66.1966 13.8708L66.1292 13.8034C65.7382 13.4134 65.7374 12.7802 66.1274 12.3892ZM9.87324 16.8156C10.3194 17.1411 10.4171 17.7667 10.0916 18.2128L10.0355 18.2899C9.71108 18.7368 9.08576 18.8362 8.6388 18.5118C8.19183 18.1873 8.09249 17.562 8.4169 17.1151L8.47598 17.0339C8.80154 16.5878 9.42711 16.49 9.87324 16.8156ZM70.1268 16.8156C70.5729 16.49 71.1985 16.5878 71.524 17.0339L71.5831 17.1151C71.9075 17.562 71.8082 18.1873 71.3612 18.5118C70.9142 18.8362 70.2889 18.7368 69.9645 18.2899L69.9084 18.2128C69.5829 17.7667 69.6806 17.1411 70.1268 16.8156ZM73.3873 21.811C73.8788 21.5592 74.4814 21.7536 74.7332 22.2452L74.7789 22.3346C75.0294 22.8269 74.8334 23.4289 74.3412 23.6794C73.849 23.9299 73.2469 23.734 72.9964 23.2418L72.9531 23.1569C72.7013 22.6653 72.8957 22.0627 73.3873 21.811ZM6.61274 21.811C7.1043 22.0628 7.29869 22.6653 7.04692 23.1569L7.00359 23.2418C6.7531 23.734 6.15102 23.9299 5.65881 23.6794C5.1666 23.4289 4.97065 22.8269 5.22114 22.3346L5.26682 22.2452C5.51859 21.7536 6.12117 21.5592 6.61274 21.811ZM4.17565 27.2559C4.70071 27.4272 4.98753 27.9917 4.81627 28.5167L4.78681 28.6075C4.61692 29.133 4.05319 29.4213 3.52769 29.2514C3.00218 29.0815 2.7139 28.5178 2.88379 27.9922L2.91485 27.8966C3.08611 27.3715 3.65058 27.0847 4.17565 27.2559ZM75.8244 27.2559C76.3494 27.0847 76.9139 27.3715 77.0851 27.8966L77.1162 27.9922C77.2861 28.5177 76.9978 29.0815 76.4723 29.2514C75.9468 29.4213 75.3831 29.133 75.2132 28.6075L75.1837 28.5167C75.0125 27.9917 75.2993 27.4272 75.8244 27.2559ZM77.3733 33.0173C77.9187 32.9309 78.431 33.303 78.5175 33.8485L78.5331 33.9481C78.6181 34.4938 78.2447 35.0051 77.699 35.0901C77.1533 35.1751 76.642 34.8017 76.557 34.256L76.5421 34.1616C76.4557 33.6161 76.8278 33.1038 77.3733 33.0173ZM2.62674 33.0174C3.17221 33.1038 3.54433 33.6161 3.45788 34.1616L3.44304 34.256C3.35801 34.8017 2.8467 35.1751 2.301 35.0901C1.7553 35.0051 1.38186 34.4938 1.46689 33.9481L1.48254 33.8485C1.56898 33.303 2.08126 32.9309 2.62674 33.0174ZM2.0013 38.9508C2.55358 38.9515 3.00073 39.3998 3.00003 39.9521L3 40L3.00003 40.0479C3.00073 40.6002 2.55358 41.0485 2.0013 41.0492C1.44901 41.0499 1.00073 40.6028 1.00003 40.0505L1 40L1.00003 39.9495C1.00073 39.3972 1.44901 38.9501 2.0013 38.9508ZM77.9987 38.9508C78.551 38.9501 78.9993 39.3972 79 39.9495L79 40L79 40.0505C78.9993 40.6028 78.551 41.0499 77.9987 41.0492C77.4464 41.0485 76.9993 40.6002 77 40.0479L77 40L77 39.9521C76.9993 39.3998 77.4464 38.9515 77.9987 38.9508ZM2.301 44.9099C2.8467 44.8249 3.35801 45.1983 3.44304 45.744L3.45788 45.8384C3.54433 46.3839 3.17221 46.8962 2.62674 46.9827C2.08126 47.0691 1.56898 46.697 1.48254 46.1515L1.46689 46.0519C1.38186 45.5062 1.7553 44.9949 2.301 44.9099ZM77.699 44.9099C78.2447 44.9949 78.6181 45.5062 78.5331 46.0519L78.5175 46.1515C78.431 46.697 77.9187 47.0691 77.3733 46.9826C76.8278 46.8962 76.4557 46.3839 76.5421 45.8384L76.557 45.744C76.642 45.1983 77.1533 44.8249 77.699 44.9099ZM76.4723 50.7486C76.9978 50.9185 77.2861 51.4822 77.1162 52.0078L77.0851 52.1034C76.9139 52.6285 76.3494 52.9153 75.8244 52.7441C75.2993 52.5728 75.0125 52.0083 75.1837 51.4833L75.2132 51.3925C75.3831 50.867 75.9468 50.5787 76.4723 50.7486ZM3.52769 50.7486C4.05319 50.5787 4.61692 50.867 4.78681 51.3925L4.81627 51.4833C4.98753 52.0083 4.70071 52.5728 4.17565 52.7441C3.65058 52.9153 3.08611 52.6285 2.91485 52.1034L2.88379 52.0078C2.7139 51.4823 3.00218 50.9185 3.52769 50.7486ZM74.3412 56.3206C74.8334 56.5711 75.0294 57.1731 74.7789 57.6654L74.7332 57.7548C74.4814 58.2464 73.8788 58.4408 73.3873 58.189C72.8957 57.9372 72.7013 57.3347 72.9531 56.8431L72.9964 56.7582C73.2469 56.266 73.849 56.0701 74.3412 56.3206ZM5.65881 56.3206C6.15102 56.0701 6.7531 56.266 7.00359 56.7582L7.04692 56.8431C7.29869 57.3347 7.1043 57.9372 6.61274 58.189C6.12118 58.4408 5.51859 58.2464 5.26682 57.7548L5.22114 57.6654C4.97065 57.1731 5.1666 56.5711 5.65881 56.3206ZM8.6388 61.4882C9.08576 61.1638 9.71108 61.2632 10.0355 61.7101L10.0916 61.7872C10.4171 62.2333 10.3194 62.8589 9.87324 63.1844C9.42711 63.51 8.80154 63.4122 8.47598 62.9661L8.4169 62.8849C8.09249 62.438 8.19183 61.8127 8.6388 61.4882ZM71.3612 61.4882C71.8082 61.8127 71.9075 62.438 71.5831 62.8849L71.524 62.9661C71.1985 63.4122 70.5729 63.51 70.1268 63.1844C69.6806 62.8589 69.5829 62.2333 69.9084 61.7872L69.9645 61.7101C70.2889 61.2632 70.9142 61.1638 71.3612 61.4882ZM12.3892 66.1274C12.7802 65.7374 13.4134 65.7382 13.8034 66.1292L13.8708 66.1966C14.2618 66.5866 14.2626 67.2198 13.8726 67.6108C13.4825 68.0019 12.8494 68.0027 12.4584 67.6126L12.3874 67.5416C11.9973 67.1506 11.9981 66.5174 12.3892 66.1274ZM67.6108 66.1274C68.0019 66.5174 68.0027 67.1506 67.6126 67.5416L67.5416 67.6126C67.1506 68.0027 66.5174 68.0019 66.1274 67.6108C65.7374 67.2198 65.7382 66.5866 66.1292 66.1966L66.1966 66.1292C66.5866 65.7382 67.2198 65.7374 67.6108 66.1274ZM16.8156 70.1268C17.1411 69.6806 17.7667 69.5829 18.2128 69.9084L18.2899 69.9645C18.7368 70.2889 18.8362 70.9142 18.5118 71.3612C18.1873 71.8082 17.562 71.9075 17.1151 71.5831L17.0339 71.524C16.5878 71.1985 16.49 70.5729 16.8156 70.1268ZM63.1844 70.1268C63.51 70.5729 63.4122 71.1985 62.9661 71.524L62.8849 71.5831C62.438 71.9075 61.8127 71.8082 61.4882 71.3612C61.1638 70.9142 61.2632 70.2889 61.7101 69.9645L61.7872 69.9084C62.2333 69.5829 62.8589 69.6806 63.1844 70.1268ZM21.811 73.3873C22.0628 72.8957 22.6653 72.7013 23.1569 72.9531L23.2418 72.9964C23.734 73.2469 23.9299 73.849 23.6794 74.3412C23.4289 74.8334 22.8269 75.0294 22.3346 74.7789L22.2452 74.7332C21.7536 74.4814 21.5592 73.8788 21.811 73.3873ZM58.189 73.3873C58.4408 73.8788 58.2464 74.4814 57.7548 74.7332L57.6654 74.7789C57.1731 75.0294 56.5711 74.8334 56.3206 74.3412C56.0701 73.849 56.266 73.2469 56.7582 72.9964L56.8431 72.9531C57.3347 72.7013 57.9372 72.8957 58.189 73.3873ZM27.2559 75.8244C27.4272 75.2993 27.9917 75.0125 28.5167 75.1837L28.6075 75.2132C29.133 75.3831 29.4213 75.9468 29.2514 76.4723C29.0815 76.9978 28.5178 77.2861 27.9922 77.1162L27.8966 77.0851C27.3715 76.9139 27.0847 76.3494 27.2559 75.8244ZM52.7441 75.8244C52.9153 76.3494 52.6285 76.9139 52.1034 77.0851L52.0078 77.1162C51.4823 77.2861 50.9185 76.9978 50.7486 76.4723C50.5787 75.9468 50.867 75.3831 51.3925 75.2132L51.4833 75.1837C52.0083 75.0125 52.5728 75.2993 52.7441 75.8244ZM33.0174 77.3733C33.1038 76.8278 33.6161 76.4557 34.1616 76.5421L34.256 76.557C34.8017 76.642 35.1751 77.1533 35.0901 77.699C35.0051 78.2447 34.4938 78.6181 33.9481 78.5331L33.8485 78.5175C33.303 78.431 32.9309 77.9187 33.0174 77.3733ZM46.9827 77.3733C47.0691 77.9187 46.697 78.431 46.1515 78.5175L46.0519 78.5331C45.5062 78.6181 44.9949 78.2447 44.9099 77.699C44.8249 77.1533 45.1983 76.642 45.744 76.557L45.8384 76.5421C46.3839 76.4557 46.8962 76.8278 46.9827 77.3733ZM38.9508 77.9987C38.9515 77.4464 39.3998 76.9993 39.9521 77L40 77L40.0479 77C40.6002 76.9993 41.0485 77.4464 41.0492 77.9987C41.0499 78.551 40.6028 78.9993 40.0505 79L40 79L39.9495 79C39.3972 78.9993 38.9501 78.551 38.9508 77.9987Z" fill="#6A0DAD"/>
<path fill-rule="evenodd" clip-rule="evenodd" d="M40 77C60.4345 77 77 60.4345 77 40C77 30.6157 73.5077 22.0495 67.7503 15.5264C67.1992 14.902 66.6273 14.2963 66.0358 13.7105C65.6434 13.3219 65.6404 12.6887 66.029 12.2963C66.4176 11.9039 67.0508 11.9009 67.4432 12.2895C68.0665 12.9068 68.669 13.545 69.2497 14.2029C75.3173 21.0774 79 30.1098 79 40C79 61.5391 61.5391 79 40 79C29.1627 79 19.3563 74.5784 12.2895 67.4432C11.9009 67.0508 11.9039 66.4176 12.2963 66.029C12.6887 65.6403 13.3219 65.6434 13.7105 66.0358C20.4171 72.8073 29.718 77 40 77Z" fill="#A0522D"/>
</svg>
