<svg width="80" height="80" viewBox="0 0 80 80" fill="none" xmlns="http://www.w3.org/2000/svg">
<path fill-rule="evenodd" clip-rule="evenodd" d="M12 5L11.9726 5.00005C11.4203 5.00217 10.9708 4.55617 10.9687 4.00389C10.9666 3.45161 11.4126 3.00218 11.9649 3.00007L12 3H12.0252C12.5775 3 13.0252 3.44772 13.0252 4C13.0252 4.55228 12.5775 5 12.0252 5H12ZM16.0657 4C16.0657 3.44772 16.5134 3 17.0657 3H17.1161C17.6684 3 18.1161 3.44772 18.1161 4C18.1161 4.55228 17.6684 5 17.1161 5H17.0657C16.5134 5 16.0657 4.55228 16.0657 4ZM21.1566 4C21.1566 3.44772 21.6043 3 22.1566 3H22.207C22.7593 3 23.207 3.44772 23.207 4C23.207 4.55228 22.7593 5 22.207 5H22.1566C21.6043 5 21.1566 4.55228 21.1566 4ZM26.2475 4C26.2475 3.44772 26.6952 3 27.2475 3H27.2979C27.8502 3 28.2979 3.44772 28.2979 4C28.2979 4.55228 27.8502 5 27.2979 5H27.2475C26.6952 5 26.2475 4.55228 26.2475 4ZM31.3384 4C31.3384 3.44772 31.7862 3 32.3384 3H32.3888C32.9411 3 33.3888 3.44772 33.3888 4C33.3888 4.55228 32.9411 5 32.3888 5H32.3384C31.7862 5 31.3384 4.55228 31.3384 4ZM36.4293 4C36.4293 3.44772 36.8771 3 37.4293 3H37.4798C38.032 3 38.4798 3.44772 38.4798 4C38.4798 4.55228 38.032 5 37.4798 5H37.4293C36.8771 5 36.4293 4.55228 36.4293 4ZM41.5203 4C41.5203 3.44772 41.968 3 42.5203 3H42.5707C43.1229 3 43.5707 3.44772 43.5707 4C43.5707 4.55228 43.1229 5 42.5707 5H42.5203C41.968 5 41.5203 4.55228 41.5203 4ZM46.6112 4C46.6112 3.44772 47.0589 3 47.6112 3H47.6616C48.2139 3 48.6616 3.44772 48.6616 4C48.6616 4.55228 48.2139 5 47.6616 5H47.6112C47.0589 5 46.6112 4.55228 46.6112 4ZM51.7021 4C51.7021 3.44772 52.1498 3 52.7021 3H52.7525C53.3048 3 53.7525 3.44772 53.7525 4C53.7525 4.55228 53.3048 5 52.7525 5H52.7021C52.1498 5 51.7021 4.55228 51.7021 4ZM56.793 4C56.793 3.44772 57.2407 3 57.793 3H57.8434C58.3957 3 58.8434 3.44772 58.8434 4C58.8434 4.55228 58.3957 5 57.8434 5H57.793C57.2407 5 56.793 4.55228 56.793 4ZM61.8839 4C61.8839 3.44772 62.3316 3 62.8839 3H62.9343C63.4866 3 63.9343 3.44772 63.9343 4C63.9343 4.55228 63.4866 5 62.9343 5H62.8839C62.3316 5 61.8839 4.55228 61.8839 4ZM66.9748 4C66.9748 3.44772 67.4225 3 67.9748 3H68L68.0351 3.00007C68.5874 3.00218 69.0334 3.45161 69.0313 4.00389C69.0292 4.55617 68.5797 5.00217 68.0275 5.00005L68 5H67.9748C67.4225 5 66.9748 4.55228 66.9748 4ZM7.07502 5.61682C7.46403 6.00885 7.46158 6.64201 7.06955 7.03103L7.03103 7.06955C6.64201 7.46158 6.00885 7.46403 5.61682 7.07502C5.22479 6.686 5.22235 6.05284 5.61136 5.66081L5.66082 5.61136C6.05285 5.22235 6.68601 5.22479 7.07502 5.61682ZM72.925 5.61682C73.314 5.22479 73.9472 5.22235 74.3392 5.61136L74.3886 5.66082C74.7777 6.05285 74.7752 6.68601 74.3832 7.07502C73.9911 7.46403 73.358 7.46158 72.969 7.06955L72.9305 7.03103C72.5384 6.64201 72.536 6.00885 72.925 5.61682ZM75.9961 10.9687C76.5484 10.9666 76.9978 11.4126 76.9999 11.9649L77 12V12.0252C77 12.5775 76.5523 13.0252 76 13.0252C75.4477 13.0252 75 12.5775 75 12.0252V12L74.9999 11.9726C74.9978 11.4203 75.4438 10.9708 75.9961 10.9687ZM4.00389 10.9687C4.55617 10.9708 5.00217 11.4203 5.00005 11.9726L5 12V12.0252C5 12.5775 4.55228 13.0252 4 13.0252C3.44772 13.0252 3 12.5775 3 12.0252V12L3.00007 11.9649C3.00218 11.4126 3.45161 10.9666 4.00389 10.9687ZM4 16.0657C4.55228 16.0657 5 16.5134 5 17.0657V17.1161C5 17.6684 4.55228 18.1161 4 18.1161C3.44772 18.1161 3 17.6684 3 17.1161V17.0657C3 16.5134 3.44772 16.0657 4 16.0657ZM76 16.0657C76.5523 16.0657 77 16.5134 77 17.0657V17.1161C77 17.6684 76.5523 18.1161 76 18.1161C75.4477 18.1161 75 17.6684 75 17.1161V17.0657C75 16.5134 75.4477 16.0657 76 16.0657ZM76 21.1566C76.5523 21.1566 77 21.6043 77 22.1566V22.207C77 22.7593 76.5523 23.207 76 23.207C75.4477 23.207 75 22.7593 75 22.207V22.1566C75 21.6043 75.4477 21.1566 76 21.1566ZM4 21.1566C4.55228 21.1566 5 21.6043 5 22.1566V22.207C5 22.7593 4.55228 23.207 4 23.207C3.44772 23.207 3 22.7593 3 22.207V22.1566C3 21.6043 3.44772 21.1566 4 21.1566ZM4 26.2475C4.55228 26.2475 5 26.6952 5 27.2475V27.2979C5 27.8502 4.55228 28.2979 4 28.2979C3.44772 28.2979 3 27.8502 3 27.2979V27.2475C3 26.6952 3.44772 26.2475 4 26.2475ZM76 26.2475C76.5523 26.2475 77 26.6952 77 27.2475V27.2979C77 27.8502 76.5523 28.2979 76 28.2979C75.4477 28.2979 75 27.8502 75 27.2979V27.2475C75 26.6952 75.4477 26.2475 76 26.2475ZM4 31.3384C4.55228 31.3384 5 31.7861 5 32.3384V32.3888C5 32.9411 4.55228 33.3888 4 33.3888C3.44772 33.3888 3 32.9411 3 32.3888V32.3384C3 31.7861 3.44772 31.3384 4 31.3384ZM76 31.3384C76.5523 31.3384 77 31.7862 77 32.3384V32.3888C77 32.9411 76.5523 33.3888 76 33.3888C75.4477 33.3888 75 32.9411 75 32.3888V32.3384C75 31.7862 75.4477 31.3384 76 31.3384ZM4 36.4293C4.55228 36.4293 5 36.8771 5 37.4293V37.4797C5 38.032 4.55228 38.4797 4 38.4797C3.44772 38.4797 3 38.032 3 37.4797V37.4293C3 36.8771 3.44772 36.4293 4 36.4293ZM76 36.4293C76.5523 36.4293 77 36.8771 77 37.4293V37.4798C77 38.032 76.5523 38.4798 76 38.4798C75.4477 38.4798 75 38.032 75 37.4798V37.4293C75 36.8771 75.4477 36.4293 76 36.4293ZM4 41.5202C4.55228 41.5202 5 41.968 5 42.5202V42.5707C5 43.1229 4.55228 43.5707 4 43.5707C3.44772 43.5707 3 43.1229 3 42.5707V42.5202C3 41.968 3.44772 41.5202 4 41.5202ZM76 41.5203C76.5523 41.5203 77 41.968 77 42.5203V42.5707C77 43.1229 76.5523 43.5707 76 43.5707C75.4477 43.5707 75 43.1229 75 42.5707V42.5203C75 41.968 75.4477 41.5203 76 41.5203ZM4 46.6112C4.55228 46.6112 5 47.0589 5 47.6112V47.6616C5 48.2138 4.55228 48.6616 4 48.6616C3.44772 48.6616 3 48.2138 3 47.6616V47.6112C3 47.0589 3.44772 46.6112 4 46.6112ZM76 46.6112C76.5523 46.6112 77 47.0589 77 47.6112V47.6616C77 48.2139 76.5523 48.6616 76 48.6616C75.4477 48.6616 75 48.2139 75 47.6616V47.6112C75 47.0589 75.4477 46.6112 76 46.6112ZM4 51.7021C4.55228 51.7021 5 52.1498 5 52.7021V52.7525C5 53.3048 4.55228 53.7525 4 53.7525C3.44772 53.7525 3 53.3048 3 52.7525V52.7021C3 52.1498 3.44772 51.7021 4 51.7021ZM76 51.7021C76.5523 51.7021 77 52.1498 77 52.7021V52.7525C77 53.3048 76.5523 53.7525 76 53.7525C75.4477 53.7525 75 53.3048 75 52.7525V52.7021C75 52.1498 75.4477 51.7021 76 51.7021ZM4 56.793C4.55228 56.793 5 57.2407 5 57.793V57.8434C5 58.3957 4.55228 58.8434 4 58.8434C3.44772 58.8434 3 58.3957 3 57.8434V57.793C3 57.2407 3.44772 56.793 4 56.793ZM76 56.793C76.5523 56.793 77 57.2407 77 57.793V57.8434C77 58.3957 76.5523 58.8434 76 58.8434C75.4477 58.8434 75 58.3957 75 57.8434V57.793C75 57.2407 75.4477 56.793 76 56.793ZM4 61.8839C4.55228 61.8839 5 62.3316 5 62.8839V62.9343C5 63.4866 4.55228 63.9343 4 63.9343C3.44772 63.9343 3 63.4866 3 62.9343V62.8839C3 62.3316 3.44772 61.8839 4 61.8839ZM76 61.8839C76.5523 61.8839 77 62.3316 77 62.8839V62.9343C77 63.4866 76.5523 63.9343 76 63.9343C75.4477 63.9343 75 63.4866 75 62.9343V62.8839C75 62.3316 75.4477 61.8839 76 61.8839ZM4 66.9748C4.55228 66.9748 5 67.4225 5 67.9748V68L5.00005 68.0275C5.00217 68.5797 4.55617 69.0292 4.00389 69.0313C3.45161 69.0334 3.00218 68.5874 3.00007 68.0351L3 68V67.9748C3 67.4225 3.44772 66.9748 4 66.9748ZM76 66.9748C76.5523 66.9748 77 67.4225 77 67.9748V68L76.9999 68.0351C76.9978 68.5874 76.5484 69.0334 75.9961 69.0313C75.4438 69.0292 74.9978 68.5797 74.9999 68.0275L75 68V67.9748C75 67.4225 75.4477 66.9748 76 66.9748ZM5.61682 72.925C6.00885 72.536 6.64201 72.5384 7.03103 72.9304L7.06955 72.969C7.46158 73.358 7.46403 73.9911 7.07502 74.3832C6.686 74.7752 6.05284 74.7777 5.66081 74.3886L5.61136 74.3392C5.22235 73.9472 5.22479 73.314 5.61682 72.925ZM74.3832 72.925C74.7752 73.314 74.7777 73.9472 74.3886 74.3392L74.3392 74.3886C73.9472 74.7777 73.314 74.7752 72.925 74.3832C72.536 73.9911 72.5384 73.358 72.9304 72.969L72.969 72.9305C73.358 72.5384 73.9911 72.536 74.3832 72.925ZM10.9687 75.9961C10.9708 75.4438 11.4203 74.9978 11.9726 74.9999L12 75H12.0252C12.5775 75 13.0252 75.4477 13.0252 76C13.0252 76.5523 12.5775 77 12.0252 77H12L11.9649 76.9999C11.4126 76.9978 10.9666 76.5484 10.9687 75.9961ZM69.0313 75.9961C69.0334 76.5484 68.5874 76.9978 68.0351 76.9999L68 77H67.9748C67.4225 77 66.9748 76.5523 66.9748 76C66.9748 75.4477 67.4225 75 67.9748 75H68L68.0275 74.9999C68.5797 74.9978 69.0292 75.4438 69.0313 75.9961ZM16.0657 76C16.0657 75.4477 16.5134 75 17.0657 75H17.1161C17.6684 75 18.1161 75.4477 18.1161 76C18.1161 76.5523 17.6684 77 17.1161 77H17.0657C16.5134 77 16.0657 76.5523 16.0657 76ZM21.1566 76C21.1566 75.4477 21.6043 75 22.1566 75H22.207C22.7593 75 23.207 75.4477 23.207 76C23.207 76.5523 22.7593 77 22.207 77H22.1566C21.6043 77 21.1566 76.5523 21.1566 76ZM26.2475 76C26.2475 75.4477 26.6952 75 27.2475 75H27.2979C27.8502 75 28.2979 75.4477 28.2979 76C28.2979 76.5523 27.8502 77 27.2979 77H27.2475C26.6952 77 26.2475 76.5523 26.2475 76ZM31.3384 76C31.3384 75.4477 31.7861 75 32.3384 75H32.3888C32.9411 75 33.3888 75.4477 33.3888 76C33.3888 76.5523 32.9411 77 32.3888 77H32.3384C31.7861 77 31.3384 76.5523 31.3384 76ZM36.4293 76C36.4293 75.4477 36.8771 75 37.4293 75H37.4797C38.032 75 38.4797 75.4477 38.4797 76C38.4797 76.5523 38.032 77 37.4797 77H37.4293C36.8771 77 36.4293 76.5523 36.4293 76ZM41.5202 76C41.5202 75.4477 41.968 75 42.5202 75H42.5707C43.1229 75 43.5707 75.4477 43.5707 76C43.5707 76.5523 43.1229 77 42.5707 77H42.5202C41.968 77 41.5202 76.5523 41.5202 76ZM46.6112 76C46.6112 75.4477 47.0589 75 47.6112 75H47.6616C48.2138 75 48.6616 75.4477 48.6616 76C48.6616 76.5523 48.2138 77 47.6616 77H47.6112C47.0589 77 46.6112 76.5523 46.6112 76ZM51.7021 76C51.7021 75.4477 52.1498 75 52.7021 75H52.7525C53.3048 75 53.7525 75.4477 53.7525 76C53.7525 76.5523 53.3048 77 52.7525 77H52.7021C52.1498 77 51.7021 76.5523 51.7021 76ZM56.793 76C56.793 75.4477 57.2407 75 57.793 75H57.8434C58.3957 75 58.8434 75.4477 58.8434 76C58.8434 76.5523 58.3957 77 57.8434 77H57.793C57.2407 77 56.793 76.5523 56.793 76ZM61.8839 76C61.8839 75.4477 62.3316 75 62.8839 75H62.9343C63.4866 75 63.9343 75.4477 63.9343 76C63.9343 76.5523 63.4866 77 62.9343 77H62.8839C62.3316 77 61.8839 76.5523 61.8839 76Z" fill="#FF6B6B"/>
<path fill-rule="evenodd" clip-rule="evenodd" d="M3 12C3 7.02944 7.02944 3 12 3H43C43.5523 3 44 3.44772 44 4C44 4.55228 43.5523 5 43 5H12C8.13401 5 5 8.13401 5 12V42C5 42.5523 4.55228 43 4 43C3.44772 43 3 42.5523 3 42V12ZM76 37C76.5523 37 77 37.4477 77 38V68C77 72.9706 72.9706 77 68 77H37C36.4477 77 36 76.5523 36 76C36 75.4477 36.4477 75 37 75H68C71.866 75 75 71.866 75 68V38C75 37.4477 75.4477 37 76 37Z" fill="#A0522D"/>
<g style="mix-blend-mode:multiply">
<path fill-rule="evenodd" clip-rule="evenodd" d="M11 24C11 22.3431 12.3431 21 14 21H19.9523C26.1717 21 32.2005 23.1472 37.0197 27.0786L43.8769 32.6727C46.9113 35.1481 50.7071 36.5 54.6231 36.5H59V42.5H54.6231C49.3251 42.5 44.1894 40.6709 40.0842 37.3219L33.2269 31.7278C29.4787 28.67 24.7896 27 19.9523 27H14C12.3431 27 11 25.6569 11 24Z" fill="#FFD700"/>
</g>
<g style="mix-blend-mode:multiply">
<path fill-rule="evenodd" clip-rule="evenodd" d="M11 55C11 56.6569 12.3431 58 14 58H19.9523C26.1717 58 32.2005 55.8528 37.0197 51.9214L43.8769 46.3273C46.9113 43.8519 50.7071 42.5 54.6231 42.5H59V36.5H54.6231C49.3251 36.5 44.1894 38.3291 40.0842 41.6781L33.2269 47.2722C29.4787 50.33 24.7896 52 19.9523 52H14C12.3431 52 11 53.3431 11 55Z" fill="#C7154A"/>
</g>
<g style="mix-blend-mode:multiply">
<path d="M59 46.9188V32.0812C59 31.655 59.4991 31.4242 59.8238 31.7003L67.6554 38.3571C68.3601 38.9561 68.3601 40.0439 67.6554 40.6429L59.8238 47.2998C59.4991 47.5758 59 47.345 59 46.9188Z" fill="#FFD700"/>
</g>
<g style="mix-blend-mode:multiply">
<path d="M59 46.9188V32.0812C59 31.655 59.4991 31.4242 59.8238 31.7003L67.6554 38.3571C68.3601 38.9561 68.3601 40.0439 67.6554 40.6429L59.8238 47.2998C59.4991 47.5758 59 47.345 59 46.9188Z" fill="#C7154A"/>
</g>
</svg>
