<svg width="184" height="72" viewBox="0 0 184 72" fill="none" xmlns="http://www.w3.org/2000/svg">
<rect width="184" height="72" fill="#F9FDFE"/>
<g clip-path="url(#clip0_1539_10275)">
<path d="M61.8685 25.8259C61.1713 25.8259 60.6099 26.3836 60.6099 27.0767V42.3461C60.6099 43.0392 61.1713 43.5969 61.8685 43.5969H71.5269C71.7093 43.5969 71.8562 43.451 71.8562 43.2697V41.5181C71.8562 41.3368 71.7093 41.1908 71.5269 41.1908H63.314V35.6067H70.6989C70.8813 35.6067 71.0281 35.4607 71.0281 35.2794V33.6242C71.0281 33.4429 70.8813 33.297 70.6989 33.297H63.314V28.1756H71.5269C71.7093 28.1756 71.8562 28.0297 71.8562 27.8484V26.1532C71.8562 25.9718 71.7093 25.8259 71.5269 25.8259H61.8685Z" fill="#191E3B"/>
<path d="M94.4741 30.2747C92.176 30.2747 90.749 31.0614 89.7935 32.3695V31.0029C89.7935 30.8215 89.6467 30.6755 89.4643 30.6755H87.4755C87.2931 30.6755 87.1462 30.8215 87.1462 31.0029V47.6727C87.1462 47.854 87.2931 48 87.4755 48H89.4986C89.681 48 89.8279 47.854 89.8279 47.6727V41.9699C90.7143 43.2386 92.1508 43.9897 94.4741 43.9896C98.3815 43.9896 100.814 40.9154 100.814 37.1281C100.814 33.3408 98.4318 30.2747 94.4741 30.2747ZM93.9067 32.4799C96.7178 32.4799 98.1008 34.561 98.1008 37.1281C98.1008 39.6952 96.7178 41.7763 93.9067 41.7763C91.0956 41.7763 89.7125 39.6952 89.7125 37.1281C89.7125 34.561 91.0956 32.4799 93.9067 32.4799Z" fill="#191E3B"/>
<path d="M133.717 30.6755H135.717C135.9 30.6755 136.046 30.8215 136.046 31.0028V43.2696C136.046 43.4509 135.9 43.5969 135.717 43.5969H133.717C133.535 43.5969 133.388 43.4509 133.388 43.2696V31.0028C133.388 30.8215 133.535 30.6755 133.717 30.6755Z" fill="#191E3B"/>
<path d="M133.688 25.8195H135.746C135.928 25.8195 136.075 25.9655 136.075 26.1468V28.1923C136.075 28.3736 135.928 28.5196 135.746 28.5196H133.688C133.506 28.5196 133.359 28.3736 133.359 28.1923V26.1468C133.359 25.9655 133.506 25.8195 133.688 25.8195Z" fill="#191E3B"/>
<path d="M123.195 43.9897C125.493 43.9897 126.92 43.2029 127.875 41.8948V43.2696C127.875 43.4509 128.022 43.5969 128.205 43.5969H130.193C130.376 43.5969 130.523 43.4509 130.523 43.2696V26.1533C130.523 25.9719 130.376 25.8259 130.193 25.8259H128.17C127.988 25.8259 127.841 25.9719 127.841 26.1533V32.367C126.89 31.1306 125.518 30.2747 123.195 30.2747C119.287 30.2747 116.854 33.3489 116.854 37.1362C116.854 40.9235 119.237 43.9897 123.195 43.9897ZM123.762 41.7844C120.951 41.7844 119.568 39.7033 119.568 37.1362C119.568 34.5691 120.951 32.488 123.762 32.488C126.573 32.488 127.956 34.5691 127.956 37.1362C127.956 39.7033 126.573 41.7844 123.762 41.7844Z" fill="#191E3B"/>
<path d="M144.672 30.2828C140.714 30.2828 138.332 33.3489 138.332 37.1362C138.332 40.9235 140.714 43.9897 144.672 43.9897C146.97 43.9897 148.397 43.2029 149.353 41.8948V43.2696C149.353 43.4509 149.5 43.5969 149.682 43.5969H151.671C151.853 43.5969 152 43.4509 152 43.2696V37.1362V31.0029C152 30.8216 151.853 30.6755 151.671 30.6755H149.682C149.5 30.6755 149.353 30.8216 149.353 31.0029V32.3776C148.397 31.0695 146.97 30.2828 144.672 30.2828ZM145.24 32.488C148.051 32.488 149.434 34.5691 149.434 37.1362C149.434 39.7033 148.051 41.7844 145.24 41.7844C142.428 41.7844 141.045 39.7033 141.045 37.1362C141.045 34.5691 142.428 32.488 145.24 32.488Z" fill="#191E3B"/>
<path d="M73.9861 30.6755C73.7019 30.6755 73.651 30.8986 73.78 31.0754L78.0131 36.8377L73.3669 43.197C73.2379 43.3736 73.2888 43.5969 73.5731 43.5969H75.8652C76.064 43.5969 76.1672 43.5294 76.2333 43.4325L79.3993 38.7882L82.6967 43.4325C82.7646 43.5281 82.8661 43.5969 83.0649 43.5969H85.4446C85.7289 43.5969 85.7803 43.3733 85.6508 43.197L80.9779 36.8377L85.1845 31.0754C85.3135 30.8986 85.2626 30.6755 84.9784 30.6755H82.7311C82.5323 30.6755 82.4293 30.7431 82.363 30.8399L79.585 34.8985L76.715 30.8399C76.6475 30.744 76.5457 30.6755 76.3469 30.6755H73.9861Z" fill="#191E3B"/>
<path d="M108.84 30.2747C104.861 30.2747 102.465 33.1192 102.465 37.1322C102.465 41.5581 105.297 43.9897 108.84 43.9896C113.123 43.9896 114.811 41.486 114.905 41.3922C115.014 41.2843 114.984 41.0835 114.893 40.9946L113.655 39.7882C113.564 39.6994 113.391 39.6857 113.271 39.8061C113.18 39.8967 111.673 41.7901 109.205 41.7901C106.581 41.7901 105.289 40.1921 105.115 37.8379H114.893C115.197 37.8379 115.213 37.5699 115.214 37.3939C115.234 32.6144 112.44 30.2747 108.84 30.2747ZM108.849 32.3545C111.256 32.3545 112.264 33.7933 112.477 35.8427H105.21C105.496 33.8336 106.557 32.3545 108.849 32.3545Z" fill="#191E3B"/>
<path d="M36.4745 24H49.1069C51.5857 24 53.5813 25.9837 53.5813 28.4478V41.005C53.5813 43.4692 51.5857 45.4529 49.1069 45.4529H36.4745C33.9956 45.4529 32 43.4692 32 41.005V28.4478C32 25.9837 33.9956 24 36.4745 24Z" fill="#FDDB32"/>
<path d="M38.035 27.8408C37.8339 27.8408 37.7075 27.8868 37.601 27.9926L35.4445 30.1363C35.4045 30.1761 35.382 30.2302 35.382 30.2865C35.3819 30.4037 35.4775 30.4987 35.5954 30.4987H44.9441L39.1968 36.2117C39.0835 36.3243 39.0176 36.3898 39.0177 36.6108L39.0176 38.1139C39.0177 38.205 39.0593 38.2838 39.1191 38.3433C39.1788 38.4027 39.2581 38.444 39.3497 38.444H40.8619C41.0842 38.444 41.15 38.3786 41.2633 38.266L47.0106 32.5529V41.8459C47.0106 41.9631 47.1062 42.0581 47.2241 42.0581C47.2807 42.0581 47.3351 42.0358 47.3751 41.996L49.5316 39.8523C49.6381 39.7464 49.6844 39.6207 49.6844 39.4208L49.6843 29.2733C49.6843 29.0852 49.6471 28.8989 49.5746 28.7251C49.5022 28.5513 49.396 28.3934 49.2622 28.2604C49.1284 28.1274 48.9695 28.0218 48.7947 27.9499C48.6198 27.8779 48.4324 27.8408 48.2432 27.8408L38.035 27.8408Z" fill="#191E3B"/>
<path d="M36.2035 38.8617H38.2778C38.4514 38.8617 38.591 39.0006 38.591 39.173V41.248C38.591 41.4205 38.4514 41.5593 38.2778 41.5593H36.2035C36.03 41.5593 35.8903 41.4205 35.8903 41.248V39.173C35.8903 39.0006 36.03 38.8617 36.2035 38.8617Z" fill="#191E3B"/>
</g>
<defs>
<clipPath id="clip0_1539_10275">
<rect width="120" height="24" fill="white" transform="translate(32 24)"/>
</clipPath>
</defs>
</svg>
