<svg width="184" height="72" viewBox="0 0 184 72" fill="none" xmlns="http://www.w3.org/2000/svg">
<rect width="184" height="72" fill="#F9FDFE"/>
<g clip-path="url(#clip0_1539_10278)">
<path fill-rule="evenodd" clip-rule="evenodd" d="M122.397 44.0571L113.011 53.4C112.624 53.7857 112.107 54 111.547 54H62.0333C61.4736 54 61 53.5286 61 52.9714V29.4C61 28.8429 61.2153 28.3286 61.6028 27.9429L70.9889 18.6C71.3764 18.2143 71.8931 18 72.4528 18H121.967C122.526 18 123 18.4714 123 19.0286V42.6C123 43.1571 122.785 43.6714 122.397 44.0571Z" fill="#FF8200"/>
<path fill-rule="evenodd" clip-rule="evenodd" d="M113.614 32.1428H110.126C109.911 32.1428 109.782 32.3143 109.782 32.4857V43.3286C109.782 43.5428 109.61 43.6714 109.438 43.6714H106.295C106.079 43.6714 105.95 43.5 105.95 43.3286V32.4857C105.95 32.2714 105.778 32.1428 105.606 32.1428H102.161C101.946 32.1428 101.817 31.9714 101.817 31.8V28.6714C101.817 28.4571 101.989 28.3286 102.161 28.3286H113.7C113.915 28.3286 114.045 28.5 114.045 28.6714V31.8C113.958 31.9714 113.786 32.1428 113.614 32.1428ZM100.008 43.7143H96.4779C96.3487 43.7143 96.2626 43.6714 96.1334 43.6286C96.0042 43.5428 95.9181 43.4571 95.8751 43.3714L93.507 39.3C93.464 39.2571 93.4209 39.2143 93.3348 39.2143H90.7945C90.7084 39.2143 90.6654 39.2571 90.6654 39.3428V43.2857C90.6654 43.5857 90.5362 43.7143 90.2348 43.7143H87.2209C86.9195 43.7143 86.7904 43.5857 86.7904 43.2857V28.7143C86.7904 28.4143 86.9195 28.2857 87.2209 28.2857H97.1237C97.4681 28.2857 97.8126 28.3714 98.114 28.5C98.4154 28.6286 98.7167 28.8428 98.932 29.0571C99.1473 29.2714 99.3626 29.5714 99.4917 29.8714C99.6209 30.1714 99.707 30.5143 99.707 30.8571V36.6428C99.707 37.2 99.5348 37.7143 99.1904 38.1428C98.8459 38.5714 98.4154 38.9143 97.8987 39.0428L97.8126 39.0857C97.7265 39.1286 97.6834 39.1714 97.7265 39.2143L97.7695 39.2571L100.138 43.3286C100.181 43.4143 100.224 43.5 100.181 43.5857C100.224 43.6714 100.138 43.7143 100.008 43.7143ZM95.8751 31.8428H90.7084V35.7H95.8751V31.8428ZM83.9056 43.7143H80.7626C80.5473 43.7143 80.4181 43.5428 80.4181 43.3714V38.2714C80.4181 38.0571 80.2459 37.9286 80.0737 37.9286H75.5529C75.3376 37.9286 75.2084 38.1 75.2084 38.2714V43.3286C75.2084 43.5428 75.0362 43.6714 74.864 43.6714H71.7209C71.5056 43.6714 71.3765 43.5 71.3765 43.3286V28.6286C71.3765 28.4143 71.5487 28.2857 71.7209 28.2857H74.864C75.0792 28.2857 75.2084 28.4571 75.2084 28.6286V33.6857C75.2084 33.9 75.3806 34.0286 75.5529 34.0286H79.9876C80.2029 34.0286 80.332 33.8571 80.332 33.6857V28.6286C80.332 28.4143 80.5042 28.2857 80.6765 28.2857H83.8195C84.0348 28.2857 84.164 28.4571 84.164 28.6286V43.3286C84.2501 43.5428 84.0779 43.7143 83.9056 43.7143Z" fill="white"/>
</g>
<defs>
<clipPath id="clip0_1539_10278">
<rect width="62" height="36" fill="white" transform="translate(61 18)"/>
</clipPath>
</defs>
</svg>
