<svg width="184" height="72" viewBox="0 0 184 72" fill="none" xmlns="http://www.w3.org/2000/svg">
<rect width="184" height="72" fill="#F9FDFE"/>
<g clip-path="url(#clip0_3700_2633)">
<path d="M54.7489 18.0728C49.2082 18.0728 44.7202 22.5091 44.7017 27.9637V42.9637C44.6832 44.1455 45.6251 45.1091 46.8256 45.1273C47.7306 45.1455 48.5433 44.6182 48.8757 43.7818C48.9865 43.5091 49.042 43.2364 49.0235 42.9455V36.0546C53.5854 39.1637 59.828 38.0364 62.9862 33.5637C66.1444 29.0728 64.9994 22.9273 60.4559 19.8182C58.7752 18.6909 56.7806 18.0728 54.7489 18.0728ZM54.7489 33.6C51.5907 33.6 49.0235 31.0728 49.0235 27.9637C49.0235 24.8546 51.5907 22.3273 54.7489 22.3273C57.9072 22.3273 60.4744 24.8546 60.4744 27.9637C60.4559 31.0728 57.9072 33.5818 54.7489 33.6ZM53.3268 48C49.2636 50.0364 44.4616 50.0364 40.3984 48C39.3087 47.4364 37.9604 47.8364 37.3694 48.9091C37.0739 49.4364 37.037 50.0728 37.2217 50.6364C37.4063 51.2 37.8311 51.6546 38.3667 51.9091C43.7044 54.5818 50.0024 54.5818 55.34 51.9091C56.4481 51.3637 56.8729 50.0364 56.3188 48.9455C55.7647 47.8909 54.435 47.4546 53.3268 48Z" fill="black"/>
<path d="M80.7905 31.0182C79.7378 31.0182 78.7035 31.3455 77.8354 31.9455C77.7431 31.3455 77.1706 30.9455 76.5611 31.0364C76.0255 31.1273 75.6191 31.5818 75.6191 32.1273V43.8546C75.6191 44.4546 76.1178 44.9455 76.7273 44.9455C77.3368 44.9455 77.8354 44.4546 77.8354 43.8546V40.3091C80.181 41.9091 83.4131 41.3455 85.0384 39.0364C86.6637 36.7273 86.0912 33.5455 83.7456 31.9455C82.8775 31.3273 81.8433 31.0182 80.7905 31.0182ZM80.7905 39C79.1652 39 77.8354 37.7091 77.8354 36.0909C77.8354 34.4909 79.1468 33.1818 80.7905 33.1818C82.4158 33.1818 83.7456 34.4727 83.7456 36.0909C83.7271 37.7091 82.4158 39 80.7905 39ZM125.56 31.0182C122.697 31.0182 120.389 33.2909 120.389 36.1091C120.389 38.9273 122.697 41.2 125.56 41.2C128.423 41.2 130.731 38.9273 130.731 36.1091C130.731 33.2909 128.423 31.0182 125.56 31.0182ZM125.56 39C123.935 39 122.605 37.7091 122.605 36.0909C122.605 34.4909 123.916 33.1818 125.56 33.1818C127.185 33.1818 128.515 34.4727 128.515 36.0909C128.515 37.7091 127.204 39 125.56 39ZM92.0567 31.0182C91.2626 31.0182 90.4869 31.2182 89.8035 31.6182V28.1091C89.8035 27.5091 89.3048 27.0182 88.6953 27.0182C88.0859 27.0182 87.5872 27.5091 87.5872 28.1091V40.1091C87.5872 40.7091 88.0859 41.2 88.6953 41.2C89.3048 41.2 89.8035 40.7091 89.8035 40.1091V35.4364C89.8035 34.2 90.8193 33.2 92.0752 33.2C93.3311 33.2 94.3469 34.2 94.3469 35.4364V40.1091C94.3654 40.7091 94.8825 41.1818 95.492 41.1636C96.083 41.1455 96.5448 40.6909 96.5632 40.1091V35.4364C96.5448 32.9818 94.5316 31.0182 92.0567 31.0182ZM114.441 31.0182C113.61 31.0182 112.798 31.2364 112.096 31.6727C111.856 31.1091 111.191 30.8546 110.637 31.1091C110.23 31.2909 109.972 31.6727 109.972 32.1091V40.1091C109.972 40.7091 110.471 41.2 111.08 41.2C111.69 41.2 112.188 40.7091 112.188 40.1091V35.4364C112.188 34.2 113.204 33.2 114.46 33.2C115.716 33.2 116.732 34.2 116.732 35.4364V40.1091C116.769 40.7091 117.286 41.1818 117.895 41.1455C118.468 41.1273 118.929 40.6727 118.948 40.1091V35.4364C118.929 32.9818 116.916 31.0182 114.441 31.0182ZM143.438 31.0182C142.145 31.0182 140.908 31.5636 140.058 32.5273C138.618 30.9091 136.198 30.5455 134.333 31.6727C134.093 31.1091 133.428 30.8546 132.874 31.1091C132.467 31.2909 132.209 31.6727 132.209 32.1091V40.1091C132.19 40.7091 132.671 41.2182 133.28 41.2364C133.89 41.2545 134.407 40.7818 134.425 40.1818C134.425 40.1636 134.425 40.1273 134.425 40.1091V35.4364C134.425 34.2 135.441 33.2 136.697 33.2C137.953 33.2 138.969 34.2 138.969 35.4364V40.1091C138.987 40.7091 139.504 41.1818 140.114 41.1636C140.705 41.1455 141.166 40.6909 141.185 40.1091V35.4364C141.203 34.2 142.238 33.2182 143.494 33.2546C144.712 33.2727 145.691 34.2364 145.71 35.4364V40.1091C145.728 40.7091 146.245 41.1818 146.855 41.1636C147.446 41.1455 147.908 40.6909 147.926 40.1091V35.4364C147.926 32.9818 145.913 31.0182 143.438 31.0182ZM103.231 31.0182C100.479 31.0182 98.207 33.1273 98.0592 35.8364C98.0592 35.9818 98.0592 36.0182 98.0592 36.1091C98.0592 38.9273 100.368 41.2 103.231 41.2C104.043 41.2 105.595 41.0546 106.851 40.0182C107.331 39.6364 107.386 38.9455 106.998 38.4727C106.61 38 105.909 37.9455 105.428 38.3273C104.671 38.9455 103.637 39.0182 103.212 39.0182C101.956 39.0182 100.83 38.2182 100.423 37.0545H107.275C107.885 37.0545 108.384 36.5636 108.384 35.9455C108.384 35.9273 108.384 35.9273 108.384 35.9091C108.291 33.1636 106.001 31 103.231 31.0182ZM100.442 35.1818C100.959 33.6727 102.64 32.8546 104.173 33.3636C105.041 33.6546 105.724 34.3273 106.019 35.1818H100.442Z" fill="black"/>
</g>
<defs>
<clipPath id="clip0_3700_2633">
<rect width="111" height="36" fill="white" transform="translate(37 18)"/>
</clipPath>
</defs>
</svg>
