<svg width="184" height="72" viewBox="0 0 184 72" fill="none" xmlns="http://www.w3.org/2000/svg">
<rect width="184" height="72" fill="#F9FDFE"/>
<g clip-path="url(#clip0_1539_10258)">
<path d="M70.793 44.5039L72.262 41.1023C73.8496 42.2834 75.9584 42.8976 78.0436 42.8976C79.5837 42.8976 80.5552 42.3071 80.5552 41.4094C80.5315 38.9055 71.3379 40.8661 71.2669 34.5826C71.2432 31.3937 74.0865 28.937 78.1147 28.937C80.5078 28.937 82.901 29.5275 84.607 30.874L83.2327 34.3464C81.6689 33.3543 79.7259 32.6456 77.8777 32.6456C76.6219 32.6456 75.7926 33.2362 75.7926 33.9921C75.8163 36.4488 85.0809 35.1023 85.1757 41.1023C85.1757 44.3622 82.4034 46.6535 78.4227 46.6535C75.5082 46.6535 72.8307 45.9685 70.793 44.5039ZM127.163 39.874C126.428 41.1496 125.054 42.0236 123.466 42.0236C121.121 42.0236 119.225 40.1338 119.225 37.7952C119.225 35.4567 121.121 33.5669 123.466 33.5669C125.054 33.5669 126.428 34.4409 127.163 35.7165L131.215 33.4724C129.698 30.7795 126.784 28.937 123.466 28.937C118.562 28.937 114.581 32.9055 114.581 37.7952C114.581 42.685 118.562 46.6535 123.466 46.6535C126.807 46.6535 129.698 44.8346 131.215 42.1181L127.163 39.874ZM87.2135 21.5905H92.2841V46.3228H87.2135V21.5905ZM133.205 21.5905V46.3228H138.276V38.9055L144.294 46.3228H150.787L143.133 37.5118L150.218 29.2913H144.01L138.276 36.1181V21.5905H133.205ZM107.354 39.9212C106.619 41.1259 105.103 42.0236 103.397 42.0236C101.051 42.0236 99.1556 40.1338 99.1556 37.7952C99.1556 35.4567 101.051 33.5669 103.397 33.5669C105.103 33.5669 106.619 34.5118 107.354 35.7401V39.9212ZM107.354 29.2913V31.2992C106.525 29.9055 104.463 28.937 102.307 28.937C97.8524 28.937 94.3456 32.8582 94.3456 37.7716C94.3456 42.685 97.8524 46.6535 102.307 46.6535C104.463 46.6535 106.525 45.685 107.354 44.2913V46.2992H112.425V29.2913H107.354Z" fill="black"/>
<path d="M39.4449 39.8977C39.4449 41.6221 38.0469 43.0158 36.3172 43.0158C34.5874 43.0158 33.1895 41.6221 33.1895 39.8977C33.1895 38.1732 34.5874 36.7795 36.3172 36.7795H39.4449V39.8977ZM41.0087 39.8977C41.0087 38.1732 42.4067 36.7795 44.1364 36.7795C45.8662 36.7795 47.2642 38.1732 47.2642 39.8977V47.6929C47.2642 49.4173 45.8662 50.811 44.1364 50.811C42.4067 50.811 41.0087 49.4173 41.0087 47.6929V39.8977Z" fill="#E01E5A"/>
<path d="M44.1365 27.3779C42.4067 27.3779 41.0087 25.9842 41.0087 24.2598C41.0087 22.5354 42.4067 21.1417 44.1365 21.1417C45.8662 21.1417 47.2642 22.5354 47.2642 24.2598V27.3779H44.1365ZM44.1365 28.9606C45.8662 28.9606 47.2642 30.3543 47.2642 32.0787C47.2642 33.8031 45.8662 35.1968 44.1365 35.1968H36.2935C34.5638 35.1968 33.1658 33.8031 33.1658 32.0787C33.1658 30.3543 34.5638 28.9606 36.2935 28.9606H44.1365Z" fill="#36C5F0"/>
<path d="M56.6711 32.0787C56.6711 30.3543 58.0691 28.9606 59.7988 28.9606C61.5285 28.9606 62.9265 30.3543 62.9265 32.0787C62.9265 33.8031 61.5285 35.1968 59.7988 35.1968H56.6711V32.0787ZM55.1072 32.0787C55.1072 33.8031 53.7092 35.1968 51.9795 35.1968C50.2498 35.1968 48.8518 33.8031 48.8518 32.0787V24.2598C48.8518 22.5354 50.2498 21.1417 51.9795 21.1417C53.7092 21.1417 55.1072 22.5354 55.1072 24.2598V32.0787Z" fill="#2EB67D"/>
<path d="M51.9795 44.5748C53.7092 44.5748 55.1072 45.9685 55.1072 47.6929C55.1072 49.4173 53.7092 50.811 51.9795 50.811C50.2498 50.811 48.8518 49.4173 48.8518 47.6929V44.5748H51.9795ZM51.9795 43.0158C50.2498 43.0158 48.8518 41.6221 48.8518 39.8977C48.8518 38.1732 50.2498 36.7795 51.9795 36.7795H59.8225C61.5522 36.7795 62.9502 38.1732 62.9502 39.8977C62.9502 41.6221 61.5522 43.0158 59.8225 43.0158H51.9795Z" fill="#ECB22E"/>
</g>
<defs>
<clipPath id="clip0_1539_10258">
<rect width="118" height="30" fill="white" transform="translate(33 21)"/>
</clipPath>
</defs>
</svg>
