<svg width="184" height="72" viewBox="0 0 184 72" fill="none" xmlns="http://www.w3.org/2000/svg">
<rect width="184" height="72" fill="#F9FDFE"/>
<g clip-path="url(#clip0_1539_10271)">
<path d="M96.6302 24.4562C95.3955 25.0513 94.8605 26.162 94.8605 29.1769C94.8605 29.1769 95.4778 28.5818 96.4656 28.2248C97.1859 27.967 97.7003 27.6298 98.0708 27.3719C99.1409 26.5984 99.3055 25.6661 99.3055 24.0397C99.2849 24.0397 97.5975 23.9405 96.6302 24.4562Z" fill="#FBBD71"/>
<path d="M89.0778 25.1506C88.0077 26.0035 87.7402 27.4712 87.7402 27.4712L84.283 40.2448L81.4431 29.7919C81.1756 28.6811 80.6405 27.3126 79.8379 26.3605C78.8502 25.1506 76.7923 25.0712 76.5453 25.0712C76.3601 25.0712 74.3228 25.1506 73.2527 26.3605C72.4502 27.3126 71.9151 28.6811 71.6476 29.7919L68.9723 40.2448L65.5151 27.4712C65.5151 27.4712 65.2476 26.1026 64.1775 25.1506C62.49 23.6828 60 24.0398 60 24.0398L66.5852 47.9407C66.5852 47.9407 68.7254 48.1192 69.7955 47.6035C71.2154 46.9093 71.9357 46.4134 72.7383 43.1407C73.5408 40.225 75.681 31.7357 75.8457 31.1407C75.928 30.8828 76.1132 30.1092 76.6482 30.1092C77.1833 30.1092 77.3685 30.8035 77.4508 31.1407C77.636 31.7357 79.7556 40.225 80.5582 43.1407C81.4431 46.3935 82.0604 46.9093 83.501 47.6035C84.5711 48.1192 86.7113 47.9407 86.7113 47.9407L93.2553 24.0398C93.2553 24.0398 90.7653 23.7026 89.0778 25.1506Z" fill="black"/>
<path d="M99.2849 27.8876C99.2849 27.8876 98.8321 28.4826 97.9472 28.9983C97.3299 29.3355 96.7948 29.514 96.1775 29.8512C95.1074 30.3669 94.8398 30.8826 94.8398 31.6562V31.914V33.2033V33.4611V47.8611C94.8398 47.8611 96.5273 48.0396 97.5974 47.5239C99.0173 46.8297 99.2849 46.1553 99.2849 43.2396V28.8396V27.8876Z" fill="black"/>
<path d="M115.645 36.0397L124 24.119C124 24.119 120.543 23.524 118.752 25.0711C117.6 26.0231 116.448 27.8083 116.448 27.8083L113.422 32.0926C113.237 32.3504 113.073 32.5289 112.805 32.5289C112.538 32.5289 112.27 32.2711 112.188 32.0926L109.163 27.8083C109.163 27.8083 107.928 26.1025 106.858 25.0711C105.088 23.524 101.61 24.119 101.61 24.119L109.698 36.0198L101.425 47.9207C101.425 47.9207 105.067 48.357 106.858 46.8099C108.01 45.8579 109.08 44.2314 109.08 44.2314L112.105 39.9471C112.291 39.6893 112.455 39.5107 112.723 39.5107C112.99 39.5107 113.258 39.7686 113.34 39.9471L116.365 44.2314C116.365 44.2314 117.518 45.8579 118.588 46.8099C120.358 48.357 123.918 47.9207 123.918 47.9207L115.645 36.0397Z" fill="black"/>
</g>
<defs>
<clipPath id="clip0_1539_10271">
<rect width="64" height="24" fill="white" transform="translate(60 24)"/>
</clipPath>
</defs>
</svg>
