<svg width="184" height="72" viewBox="0 0 184 72" fill="none" xmlns="http://www.w3.org/2000/svg">
<rect width="184" height="72" fill="#F9FDFE"/>
<g clip-path="url(#clip0_1539_10261)">
<path d="M74.6997 54.5621L77.032 51.2155H75.0828C74.9846 51.2155 74.9057 51.1372 74.9057 51.0397V50.7216C74.9057 50.6241 74.9846 50.5458 75.0828 50.5458H77.9672C78.0654 50.5458 78.1442 50.6241 78.1442 50.7216V50.8255C78.1442 50.8607 78.133 50.8942 78.1137 50.9246L75.8377 54.2728H77.9012C77.9994 54.2728 78.0783 54.3511 78.0783 54.4486V54.7666C78.0783 54.8641 77.9994 54.9424 77.9012 54.9424H74.8445C74.7464 54.9424 74.6675 54.8641 74.6675 54.7666V54.6644C74.6675 54.626 74.6787 54.5908 74.6997 54.5621Z" fill="black"/>
<path d="M84.0081 52.7242C84.0081 51.4281 84.9722 50.4819 86.3034 50.4819C87.6345 50.4819 88.5375 51.4281 88.5375 52.7338C88.5375 54.0395 87.6055 55 86.2647 55C84.9239 55 84.0081 54.0603 84.0081 52.7242ZM87.649 52.7402C87.649 51.8787 87.1951 51.158 86.2551 51.158C85.3151 51.158 84.903 51.8899 84.903 52.7673C84.903 53.5936 85.3988 54.3256 86.3082 54.3256C87.2434 54.324 87.649 53.5552 87.649 52.7402Z" fill="black"/>
<path d="M94.9695 50.5458H95.475C95.5731 50.5458 95.652 50.6241 95.652 50.7216V52.4077H97.6962V50.7216C97.6962 50.6241 97.7751 50.5458 97.8733 50.5458H98.3755C98.4737 50.5458 98.5525 50.6241 98.5525 50.7216V54.765C98.5525 54.8625 98.4737 54.9408 98.3755 54.9408H97.8733C97.7751 54.9408 97.6962 54.8625 97.6962 54.765V53.0758H95.652V54.765C95.652 54.8625 95.5731 54.9408 95.475 54.9408H94.9695C94.8713 54.9408 94.7925 54.8625 94.7925 54.765V50.7216C94.7925 50.6241 94.8713 50.5458 94.9695 50.5458Z" fill="black"/>
<path d="M104.804 52.7242C104.804 51.4281 105.768 50.4819 107.1 50.4819C108.431 50.4819 109.334 51.4281 109.334 52.7338C109.334 54.0395 108.402 55 107.061 55C105.72 55 104.804 54.0603 104.804 52.7242ZM108.444 52.7402C108.444 51.8787 107.99 51.158 107.05 51.158C106.11 51.158 105.698 51.8899 105.698 52.7673C105.698 53.5936 106.193 54.3256 107.103 54.3256C108.038 54.324 108.444 53.5552 108.444 52.7402Z" fill="black"/>
<path d="M87.4142 47.4486C86.7381 47.4486 86.0782 47.3048 85.4505 47.0331L70.9317 40.6084C69.7567 40.081 68.8392 39.1381 68.3885 37.9394C67.9218 36.7408 67.9539 35.4303 68.4851 34.2636L74.9558 19.848C76.0503 17.4347 78.9154 16.332 81.3459 17.4187L95.8647 23.8434C98.2952 24.9302 99.4058 27.775 98.3113 30.1882L91.8406 44.6038C91.3095 45.7705 90.3598 46.6815 89.1526 47.129C88.5892 47.3367 87.9936 47.4486 87.4142 47.4486ZM79.3822 19.6242C78.5452 19.6242 77.7404 20.1037 77.3702 20.9188L70.8995 35.3344C70.4006 36.4371 70.8995 37.7317 72.0102 38.2271L86.5289 44.6518C87.0601 44.8915 87.6556 44.9075 88.219 44.6997C88.7663 44.492 89.2009 44.0764 89.4423 43.549L95.913 29.1334C96.4119 28.0307 95.913 26.7362 94.8023 26.2407L80.2836 19.816C79.9778 19.6722 79.6719 19.6242 79.3822 19.6242Z" fill="#009C3E"/>
<path d="M132.155 47.4454H116.268C113.596 47.4454 111.423 45.2879 111.423 42.6349V26.8608C111.423 24.2078 113.596 22.0503 116.268 22.0503H132.155C134.827 22.0503 137 24.2078 137 26.8608V42.6349C137 45.2879 134.827 47.4454 132.155 47.4454ZM116.268 24.6713C115.061 24.6713 114.063 25.6462 114.063 26.8608V42.6349C114.063 43.8335 115.045 44.8244 116.268 44.8244H132.155C133.362 44.8244 134.36 43.8495 134.36 42.6349V26.8608C134.36 25.6622 133.378 24.6713 132.155 24.6713H116.268Z" fill="#FFAF00"/>
<path d="M73.3203 29.9261L71.3582 34.2955L72.2499 39.7565C72.443 40.9552 71.6221 42.0739 70.431 42.2657L54.7373 44.7908C54.1578 44.8867 53.5784 44.7429 53.0955 44.4073C52.6126 44.0716 52.3068 43.5602 52.2102 42.9849L49.667 27.4186C49.4738 26.2199 50.2947 25.1012 51.4859 24.9094L67.1796 22.3843C67.2923 22.3683 67.421 22.3523 67.5337 22.3523C68.0005 22.3523 68.4512 22.4962 68.8214 22.7679C69.3043 23.1035 69.6101 23.6149 69.7067 24.1902L70.5871 29.5793L72.5493 25.2099L72.3143 23.7747C72.105 22.5121 71.4129 21.3934 70.3666 20.6423C69.3204 19.8911 68.0327 19.5875 66.7611 19.7952L51.0674 22.3204C48.4292 22.7375 46.6425 25.2147 47.061 27.8357L49.6042 43.402C49.8135 44.6646 50.5056 45.7833 51.5518 46.5344C52.3728 47.1258 53.3546 47.4454 54.3687 47.4454C54.6423 47.4454 54.8998 47.4134 55.1735 47.3815L70.8511 44.8563C73.4909 44.4408 75.2776 41.9636 74.8591 39.3426L73.3203 29.9277V29.9261Z" fill="#F40014"/>
<path d="M92.2141 37.3241L94.2631 32.7565L93.5146 27.2939C93.4341 26.7186 93.5951 26.1433 93.9492 25.6798C94.3033 25.2163 94.8184 24.9127 95.3979 24.8327L111.14 22.7072C111.236 22.6912 111.333 22.6912 111.43 22.6912C112.027 22.6912 112.584 22.9373 112.989 23.34C113.654 22.7311 114.491 22.306 115.42 22.143C115.135 21.7371 114.784 21.3727 114.375 21.061C113.345 20.2779 112.073 19.9423 110.786 20.1181L95.0438 22.2437C93.7561 22.4195 92.6293 23.0747 91.8406 24.0976C91.0519 25.1204 90.7139 26.383 90.891 27.6615L92.2141 37.3257V37.3241Z" fill="#006EB9"/>
<path d="M118.383 39.8701L116.304 24.6873H116.268C115.061 24.6873 114.063 25.6622 114.063 26.8768V27.823L115.76 40.2057C115.84 40.781 115.679 41.3564 115.325 41.8198C114.971 42.2833 114.456 42.587 113.876 42.6669L98.1343 44.7925C96.927 44.9523 95.8164 44.1212 95.6555 42.9226L94.9392 37.6885L92.8901 42.2561L93.0318 43.2902C93.3698 45.6874 95.4462 47.4454 97.8284 47.4454C98.0377 47.4454 98.263 47.4295 98.4884 47.3975L114.23 45.2879C116.886 44.9203 118.737 42.4911 118.383 39.8701Z" fill="#006EB9"/>
</g>
<defs>
<clipPath id="clip0_1539_10261">
<rect width="90" height="38" fill="white" transform="translate(47 17)"/>
</clipPath>
</defs>
</svg>
