<svg width="184" height="72" viewBox="0 0 184 72" fill="none" xmlns="http://www.w3.org/2000/svg">
<rect width="184" height="72" fill="#F9FDFE"/>
<g clip-path="url(#clip0_3700_2636)">
<path d="M146.125 27.7688H139.004L134.07 44.0286H138.77L139.851 40.1432H145.077V40.1708L146.186 44.0563H151.003L146.125 27.7688ZM140.638 37.4977L142.478 30.9361L144.318 37.4977H140.638Z" fill="black"/>
<path d="M79.9184 27.7994H65.2922V31.7984H72.0661L64.6501 44.0562H80.0074V40.0572H73.0891L79.9184 27.7994Z" fill="black"/>
<path d="M131.062 37.3227C131.793 36.9207 132.405 36.3437 132.813 35.5948C133.25 34.7601 133.483 33.8393 133.455 32.891C133.428 31.9427 133.163 31.0496 132.697 30.2148C132.171 29.4076 131.412 28.7754 130.537 28.3734C129.603 27.9406 128.494 27.7104 127.237 27.7104H117.984V44.0562H122.685V36.9483L127.413 44.1145H132.872L128.611 37.955L128.875 37.9273C129.634 37.8997 130.392 37.6972 131.062 37.3227ZM128.055 34.935C127.674 35.3094 127.179 35.5396 126.623 35.5396H122.682V31.5406H126.623C127.148 31.5406 127.674 31.7432 128.055 32.1176C128.436 32.492 128.638 33.0107 128.638 33.5263C128.638 34.0419 128.436 34.5606 128.055 34.935Z" fill="black"/>
<path d="M107.241 27.2808C102.191 27.2808 98.2217 31.0803 98.2217 35.914C98.2217 40.7478 102.191 44.5473 107.241 44.5473C112.292 44.5473 116.233 40.7478 116.233 35.914C116.261 31.0803 112.292 27.2808 107.241 27.2808ZM110.393 39.0506C109.545 39.8271 108.409 40.2874 107.241 40.2874C106.366 40.2874 105.518 40.0296 104.79 39.5693C104.059 39.0813 103.506 38.4184 103.155 37.6112C102.805 36.804 102.719 35.9416 102.891 35.1068C103.066 34.2721 103.475 33.4956 104.089 32.8634C104.704 32.2588 105.49 31.826 106.366 31.6849C107.214 31.513 108.117 31.5989 108.934 31.9427C109.751 32.2588 110.424 32.8357 110.919 33.5539C111.416 34.2721 111.677 35.1068 111.677 35.9723C111.677 37.1232 111.21 38.2158 110.393 39.0506Z" fill="black"/>
<path d="M91.7673 37.8414C91.7673 38.5043 91.5031 39.1641 91.0085 39.6245C90.5108 40.1125 89.8687 40.3734 89.199 40.3734C88.5293 40.3734 87.8565 40.1156 87.3896 39.6245C86.9226 39.1365 86.6308 38.5012 86.6308 37.8414V27.7994H81.9028V37.381C81.9028 39.2808 82.6616 41.0946 84.0349 42.445C85.4081 43.7984 87.2452 44.5473 89.2021 44.5473C91.1283 44.5473 92.9961 43.7984 94.3693 42.445C95.7395 41.0915 96.5013 39.2808 96.5013 37.381V27.7994H91.7734V37.8414H91.7673Z" fill="black"/>
<path d="M149.768 28.1924H149.777L150.048 29.1561H150.318L150.582 28.1924H150.591V29.1561H150.957V27.7811H150.444L150.207 28.7018H150.195L149.959 27.7811H149.424V29.1561H149.768V28.1924Z" fill="black"/>
<path d="M148.435 29.1561H148.807V28.0972H149.277V27.7811H147.974V28.0972H148.435V29.1561Z" fill="black"/>
<path d="M54.2573 48H39.7171C38.9583 48 38.3163 47.5396 38.0521 46.8491C37.7879 46.1586 38.0213 45.3821 38.6081 44.9217L41.8491 42.3038H35.7756C35.0168 42.3038 34.3748 41.8435 34.1106 41.1529C33.8464 40.4624 34.0522 39.7136 34.6359 39.2256L40.9122 34.0757C41.4375 33.643 42.1963 33.7289 42.6356 34.2199C43.0749 34.7386 42.9858 35.4875 42.4881 35.9171L37.6465 39.913H44.8567L54.6658 32.0286H38.0828C37.0014 32.0286 35.9815 31.5959 35.192 30.8501C34.4332 30.1013 34.0246 29.0946 34.0246 28.0297C34.0246 26.9647 34.4332 25.9581 35.2227 25.1816C35.9815 24.4327 37.0045 24 38.0828 24H52.2113C52.9701 24 53.6121 24.4604 53.8763 25.1509C54.1405 25.8414 53.907 26.5903 53.3203 27.0783L50.1683 29.6409H56.5337C57.2925 29.6409 57.9345 30.1013 58.1987 30.7918C58.4599 31.4824 58.2294 32.2588 57.6458 32.7192L48.6814 39.913H54.2573C55.3386 39.913 56.3586 40.3458 57.1174 41.0916C57.8762 41.8404 58.3155 42.8471 58.3155 43.9396V43.998C58.3155 45.0629 57.9069 46.0696 57.1174 46.846C56.3586 47.598 55.3356 48 54.2573 48ZM41.6157 45.6123H54.2573C54.6966 45.6123 55.1051 45.4404 55.4246 45.1519C55.7441 44.8358 55.8916 44.4338 55.8916 44.001V43.9427C55.8916 43.51 55.7165 43.1079 55.4246 42.7918C55.1021 42.4757 54.6935 42.3315 54.2573 42.3315H45.7015L41.6157 45.6123ZM38.0828 26.3877C37.6435 26.3877 37.2349 26.5596 36.9154 26.8481C36.5928 27.1642 36.4484 27.5662 36.4484 27.999C36.4484 28.4317 36.6235 28.8338 36.9154 29.1499C37.238 29.466 37.6465 29.6102 38.0828 29.6102H46.3436L50.3434 26.3877H38.0828Z" fill="#00D2B9"/>
</g>
<defs>
<clipPath id="clip0_3700_2636">
<rect width="117" height="24" fill="white" transform="translate(34 24)"/>
</clipPath>
</defs>
</svg>
