<svg width="77" height="32" viewBox="0 0 77 32" fill="none" xmlns="http://www.w3.org/2000/svg">
<g clip-path="url(#clip0_2622_19010)">
<path fill-rule="evenodd" clip-rule="evenodd" d="M76.9024 16.4556C76.9024 11.0298 74.2569 6.74854 69.2006 6.74854C64.123 6.74854 61.0508 11.0298 61.0508 16.4133C61.0508 22.7928 64.6777 26.0144 69.8833 26.0144C72.4221 26.0144 74.3423 25.4421 75.793 24.6367V20.3978C74.3423 21.1184 72.6782 21.5635 70.566 21.5635C68.4966 21.5635 66.6618 20.8429 66.4271 18.342H76.8598C76.8598 18.0664 76.9024 16.9643 76.9024 16.4556ZM66.3631 14.4422C66.3631 12.0472 67.8352 11.051 69.1793 11.051C70.4807 11.051 71.8674 12.0472 71.8674 14.4422H66.3631Z" fill="#635BFF"/>
<path fill-rule="evenodd" clip-rule="evenodd" d="M52.8156 6.74854C50.7249 6.74854 49.3808 7.72349 48.6341 8.40171L48.3567 7.08765H43.6631V31.8005L48.9967 30.6772L49.0181 24.6791C49.7861 25.2302 50.9169 26.0144 52.7943 26.0144C56.6132 26.0144 60.0908 22.9624 60.0908 16.2437C60.0694 10.0973 56.5492 6.74854 52.8156 6.74854ZM51.5356 21.3516C50.2768 21.3516 49.5301 20.9065 49.0181 20.3554L48.9967 12.4923C49.5514 11.8776 50.3195 11.4537 51.5356 11.4537C53.477 11.4537 54.8211 13.6156 54.8211 16.3921C54.8211 19.2321 53.4984 21.3516 51.5356 21.3516Z" fill="#635BFF"/>
<path fill-rule="evenodd" clip-rule="evenodd" d="M36.3237 5.49827L41.6787 4.35376V0.0512695L36.3237 1.17458V5.49827Z" fill="#635BFF"/>
<path d="M41.6787 7.10889H36.3237V25.6541H41.6787V7.10889Z" fill="#635BFF"/>
<path fill-rule="evenodd" clip-rule="evenodd" d="M30.5849 8.67761L30.2435 7.10922H25.6353V25.6545H30.9689V13.0861C32.2277 11.4541 34.3611 11.7508 35.0225 11.984V7.10922C34.3398 6.85488 31.8436 6.3886 30.5849 8.67761Z" fill="#635BFF"/>
<path fill-rule="evenodd" clip-rule="evenodd" d="M19.9174 2.50977L14.7118 3.61188L14.6904 20.5887C14.6904 23.7255 17.0586 26.0357 20.2161 26.0357C21.9655 26.0357 23.2456 25.7178 23.9497 25.3363V21.0338C23.267 21.3093 19.8961 22.2843 19.8961 19.1475V11.6234H23.9497V7.10899H19.8961L19.9174 2.50977Z" fill="#635BFF"/>
<path fill-rule="evenodd" clip-rule="evenodd" d="M5.49532 12.4923C5.49532 11.6657 6.17803 11.3478 7.30877 11.3478C8.9302 11.3478 10.9783 11.8352 12.5998 12.7042V7.72348C10.829 7.02406 9.07954 6.74854 7.30877 6.74854C2.97783 6.74854 0.0976562 8.99516 0.0976562 12.7466C0.0976562 18.5963 8.20482 17.6637 8.20482 20.1859C8.20482 21.1608 7.35144 21.4788 6.1567 21.4788C4.38592 21.4788 2.12445 20.7581 0.332337 19.7832V24.8275C2.31646 25.6753 4.32192 26.0356 6.1567 26.0356C10.5943 26.0356 13.6452 23.8525 13.6452 20.0587C13.6238 13.7427 5.49532 14.866 5.49532 12.4923Z" fill="#635BFF"/>
</g>
<defs>
<clipPath id="clip0_2622_19010">
<rect width="77" height="32" fill="white"/>
</clipPath>
</defs>
</svg>
