<svg width="62" height="24" viewBox="0 0 62 24" fill="none" xmlns="http://www.w3.org/2000/svg">
<g id="Wix Logo" clip-path="url(#clip0_2622_19018)">
<path id="Vector" d="M35.4855 0.456408C34.2893 1.05145 33.771 2.16219 33.771 5.17707C33.771 5.17707 34.3691 4.58203 35.326 4.225C36.0237 3.96715 36.5221 3.62996 36.881 3.37211C37.9176 2.59856 38.0771 1.66632 38.0771 0.0398788C38.0572 0.0398788 36.4224 -0.0592947 35.4855 0.456408Z" fill="#FBBD71"/>
<path id="Vector_2" d="M28.1691 1.15045C27.1325 2.00334 26.8733 3.47111 26.8733 3.47111L23.5241 16.2447L20.773 5.79177C20.5138 4.68103 19.9955 3.31243 19.218 2.36037C18.2611 1.15045 16.2675 1.07111 16.0283 1.07111C15.8489 1.07111 13.8752 1.15045 12.8386 2.36037C12.0611 3.31243 11.5428 4.68103 11.2836 5.79177L8.69196 16.2447L5.34277 3.47111C5.34277 3.47111 5.0836 2.10251 4.04695 1.15045C2.41222 -0.31732 0 0.0397049 0 0.0397049L6.37942 23.9405C6.37942 23.9405 8.45273 24.119 9.48939 23.6033C10.865 22.9091 11.5627 22.4133 12.3402 19.1405C13.1177 16.2248 15.191 7.73557 15.3505 7.14053C15.4302 6.88268 15.6096 6.10913 16.128 6.10913C16.6463 6.10913 16.8257 6.80334 16.9055 7.14053C17.0849 7.73557 19.1383 16.2248 19.9158 19.1405C20.773 22.3934 21.3711 22.9091 22.7666 23.6033C23.8032 24.119 25.8765 23.9405 25.8765 23.9405L32.2161 0.0397049C32.2161 0.0397049 29.8039 -0.297485 28.1691 1.15045Z" fill="black"/>
<path id="Vector_3" d="M38.0571 3.8877C38.0571 3.8877 37.6185 4.48274 36.7613 4.99844C36.1632 5.33563 35.6449 5.51414 35.0468 5.85133C34.0101 6.36703 33.751 6.88274 33.751 7.65629V7.91414V9.2034V9.46125V23.8612C33.751 23.8612 35.3857 24.0398 36.4224 23.5241C37.7979 22.8298 38.0571 22.1555 38.0571 19.2398V4.83976V3.8877Z" fill="black"/>
<path id="Vector_4" d="M53.9059 12.0395L61.9998 0.118832C61.9998 0.118832 58.6506 -0.476209 56.9162 1.0709C55.7998 2.02296 54.6834 3.80809 54.6834 3.80809L51.7529 8.09238C51.5735 8.35024 51.414 8.52875 51.1548 8.52875C50.8956 8.52875 50.6365 8.2709 50.5567 8.09238L47.6262 3.80809C47.6262 3.80809 46.43 2.1023 45.3934 1.0709C43.6789 -0.476209 40.3098 0.118832 40.3098 0.118832L48.1445 12.0197L40.1304 23.9205C40.1304 23.9205 43.659 24.3568 45.3934 22.8097C46.5098 21.8577 47.5464 20.2312 47.5464 20.2312L50.477 15.9469C50.6564 15.6891 50.8159 15.5106 51.0751 15.5106C51.3342 15.5106 51.5934 15.7684 51.6731 15.9469L54.6037 20.2312C54.6037 20.2312 55.7201 21.8577 56.7567 22.8097C58.4712 24.3568 61.9201 23.9205 61.9201 23.9205L53.9059 12.0395Z" fill="black"/>
</g>
<defs>
<clipPath id="clip0_2622_19018">
<rect width="62" height="24" fill="white"/>
</clipPath>
</defs>
</svg>
