<svg width="184" height="72" viewBox="0 0 184 72" fill="none" xmlns="http://www.w3.org/2000/svg">
<rect width="184" height="72" fill="#F9FDFE"/>
<g clip-path="url(#clip0_1539_10414)">
<path d="M61.3106 30.2697C62.6972 30.2697 63.9353 30.6221 65.0247 31.3267C66.1241 32.0213 66.9858 33.0078 67.6098 34.2862C68.214 35.5143 68.5161 36.9588 68.5161 38.6198C68.5161 40.2304 68.214 41.6698 67.6098 42.9382C67.0056 44.2066 66.1538 45.1981 65.0544 45.9128C63.9451 46.6376 62.6972 47 61.3106 47C60.3003 47 59.3495 46.7886 58.458 46.3658C57.5667 45.943 56.804 45.3491 56.1701 44.5841V46.6225H51V25H56.1701V32.6705C56.804 31.9055 57.5667 31.3166 58.458 30.9039C59.3495 30.4811 60.3003 30.2697 61.3106 30.2697ZM59.7654 42.6362C60.4984 42.6362 61.1521 42.4651 61.7265 42.1228C62.301 41.7806 62.7517 41.3024 63.0785 40.6884C63.4054 40.0844 63.5688 39.3949 63.5688 38.6198C63.5688 37.8648 63.4054 37.1803 63.0785 36.5662C62.7517 35.9522 62.301 35.4741 61.7265 35.1318C61.1521 34.7895 60.4984 34.6184 59.7654 34.6184C59.0722 34.6184 58.4532 34.7895 57.9084 35.1318C57.3636 35.4639 56.9377 35.932 56.6307 36.5361C56.3237 37.1501 56.1701 37.8446 56.1701 38.6198C56.1701 39.3949 56.3237 40.0894 56.6307 40.7035C56.9377 41.3075 57.3636 41.7806 57.9084 42.1228C58.4532 42.4651 59.0722 42.6362 59.7654 42.6362Z" fill="#F8CB46"/>
<path d="M69.2239 46.6225V25H74.394V46.6225H69.2239Z" fill="#F8CB46"/>
<path d="M75.8595 46.6225V30.6321H80.9999V46.6225H75.8595Z" fill="#F8CB46"/>
<path d="M92.1668 30.2697C93.2661 30.2697 94.2565 30.5314 95.138 31.0549C96.0195 31.5683 96.7129 32.293 97.218 33.2292C97.7033 34.1754 97.946 35.2475 97.946 36.4454V46.6225H93.0136V37.6232C93.0136 37.0393 92.8997 36.5209 92.6719 36.068C92.454 35.6049 92.1419 35.2475 91.7359 34.9958C91.3397 34.7442 90.8742 34.6184 90.3394 34.6184C89.8342 34.6184 89.3687 34.7442 88.9428 34.9958C88.5169 35.2375 88.1852 35.5697 87.9474 35.9924C87.6998 36.3951 87.576 36.8682 87.576 37.4118L87.5463 46.6225H82.4059V30.6321H87.5463V32.4592C88.0316 31.7746 88.6803 31.2411 89.4926 30.8586C90.3047 30.466 91.1961 30.2697 92.1668 30.2697Z" fill="#F8CB46"/>
<path d="M109.306 37.6232L115.145 46.6225H109.306L105.889 40.9602L104.314 42.8174V46.6225H99.144V25H104.314V36.9437L109.276 30.6321H115.115L109.306 37.6232Z" fill="#F8CB46"/>
<path d="M75.8567 25.0017H81.0139V29.1009H75.8567V25.0017Z" fill="#F8CB46"/>
<path d="M115.965 46.5745V30.5842H121.106V46.5745H115.965Z" fill="#54B226"/>
<path d="M131.975 42.0598L133 45.427C132.535 45.88 131.946 46.2474 131.232 46.5293C130.528 46.8111 129.84 46.952 129.167 46.952C128.197 46.952 127.33 46.7356 126.567 46.3027C125.804 45.8598 125.21 45.2458 124.784 44.4606C124.358 43.6956 124.145 42.8148 124.145 41.8182V34.7668H122.08V30.5842H124.145V25.0018H129.078V30.5842H132.332V34.7668H129.078V40.8518C129.078 41.3652 129.211 41.783 129.479 42.1051C129.747 42.4272 130.088 42.5883 130.504 42.5883C130.801 42.5883 131.079 42.543 131.336 42.4524C131.594 42.3618 131.807 42.2309 131.975 42.0598Z" fill="#54B226"/>
<path d="M115.925 25.0018H121.082V29.1009H115.925V25.0018Z" fill="#54B226"/>
</g>
<defs>
<clipPath id="clip0_1539_10414">
<rect width="82" height="22" fill="white" transform="translate(51 25)"/>
</clipPath>
</defs>
</svg>
