<svg width="184" height="72" viewBox="0 0 184 72" fill="none" xmlns="http://www.w3.org/2000/svg">
<rect width="184" height="72" fill="#F9FDFE"/>
<g clip-path="url(#clip0_1539_10424)">
<path d="M63.0326 32.5102V39.5013H64.7898C65.2383 39.4947 65.6809 39.3989 66.0914 39.2197C66.5019 39.0405 66.872 38.7814 67.1798 38.4578C67.8115 37.7943 68.1571 36.9125 68.1431 36C68.1565 35.5467 68.0794 35.0954 67.9164 34.6717C67.7534 34.2481 67.5076 33.8606 67.1932 33.5315C66.8841 33.2075 66.5115 32.9496 66.0981 32.7738C65.6848 32.598 65.2396 32.508 64.7898 32.5093H63.0335L63.0326 32.5102ZM64.7898 30.3182C68.0651 30.3182 70.5428 32.8355 70.5428 36C70.5428 39.1644 68.0651 41.696 64.7898 41.696H60.9142C60.8772 41.6955 60.8407 41.6878 60.8068 41.6734C60.7728 41.6589 60.7421 41.638 60.7163 41.6117C60.6905 41.5855 60.6702 41.5544 60.6564 41.5204C60.6427 41.4864 60.6359 41.45 60.6364 41.4133V30.6124C60.6364 30.456 60.761 30.3289 60.9142 30.3289L64.7898 30.3182ZM78.985 39.7449C80.4726 39.7493 81.8158 38.8418 82.3884 37.4453C82.6689 36.763 82.7439 36.0147 82.6043 35.291C82.4646 34.5673 82.1163 33.8993 81.6017 33.368C81.096 32.8454 80.4424 32.4873 79.7272 32.341C79.012 32.1946 78.2689 32.267 77.5961 32.5484C76.2214 33.1244 75.3235 34.4871 75.3209 36C75.3209 38.0622 76.958 39.7351 78.985 39.7449ZM78.9859 30.0604C82.4332 30.0604 85.0687 32.7555 85.0687 36C85.0687 39.2444 82.4332 41.9395 78.985 41.9395C75.5377 41.9395 72.9247 39.2578 72.9247 36C72.9247 32.7422 75.561 30.0604 78.9859 30.0604ZM93.4428 39.7449C95.4707 39.7395 97.1114 38.0649 97.1096 36.0026C97.1069 33.9386 95.4626 32.2675 93.4356 32.2666C91.4068 32.2666 89.7616 33.9369 89.7589 36C89.7589 36.9938 90.1469 37.9466 90.8378 38.6489C91.176 38.9949 91.5807 39.2702 92.0279 39.4585C92.4752 39.6467 92.9569 39.7441 93.4428 39.7449ZM93.4419 30.0604C96.8784 30.0604 99.5139 32.7422 99.5139 36C99.5139 39.2578 96.8677 41.9395 93.4419 41.9395C90.017 41.9395 87.3591 39.2578 87.3591 36C87.3591 32.7422 89.9946 30.0604 93.4419 30.0604ZM107.552 32.5102H105.074V35.5191H107.552C107.748 35.5277 107.943 35.4964 108.126 35.4272C108.309 35.3579 108.476 35.2521 108.617 35.1164C108.903 34.8409 109.066 34.4586 109.07 34.0569C109.077 33.853 109.043 33.6499 108.969 33.4595C108.895 33.2692 108.783 33.0957 108.64 32.9493C108.499 32.8053 108.33 32.6921 108.142 32.6169C107.955 32.5417 107.754 32.5063 107.552 32.5129V32.5102ZM102.677 30.6124C102.677 30.456 102.803 30.3289 102.956 30.3289H107.621C109.845 30.3289 111.454 31.9866 111.454 34.0684C111.471 35.4764 110.696 36.7698 109.459 37.4L111.61 41.2693C111.64 41.3138 111.657 41.3656 111.659 41.4189C111.661 41.4723 111.648 41.5251 111.621 41.5715C111.595 41.6173 111.557 41.6546 111.51 41.6792C111.463 41.7038 111.41 41.7145 111.358 41.7102H109.47C109.417 41.7109 109.366 41.697 109.321 41.6699C109.276 41.6429 109.24 41.6038 109.217 41.5573L107.143 37.728H105.065V41.4044C105.066 41.4412 105.059 41.4776 105.045 41.5118C105.032 41.5459 105.011 41.5771 104.986 41.6034C104.96 41.6298 104.929 41.6508 104.895 41.6653C104.861 41.6798 104.824 41.6875 104.787 41.688H102.968C102.931 41.6875 102.895 41.6798 102.861 41.6653C102.827 41.6508 102.796 41.6298 102.77 41.6034C102.744 41.5771 102.724 41.5459 102.71 41.5118C102.697 41.4776 102.69 41.4412 102.691 41.4044L102.678 30.6133L102.677 30.6124ZM117.702 32.5635V39.5555H119.458C119.907 39.5495 120.349 39.4544 120.76 39.2757C121.171 39.0971 121.541 38.8386 121.849 38.5155C122.481 37.8529 122.828 36.9717 122.814 36.0595C122.829 35.6057 122.752 35.1536 122.59 34.7292C122.427 34.3048 122.182 33.9165 121.867 33.5866C121.558 33.262 121.184 33.0038 120.77 32.828C120.356 32.6522 119.91 32.5625 119.459 32.5644L117.702 32.5635ZM119.458 30.3689C122.734 30.3689 125.211 32.8889 125.211 36.0595C125.211 39.2302 122.734 41.7502 119.458 41.7502H115.594C115.557 41.7497 115.521 41.742 115.487 41.7275C115.453 41.713 115.422 41.692 115.396 41.6656C115.37 41.6393 115.35 41.6082 115.336 41.574C115.323 41.5399 115.316 41.5034 115.317 41.4666V30.6666C115.317 30.5093 115.441 30.3822 115.594 30.3822L119.458 30.3689ZM132.52 33.1493L131.161 36.888H133.877L132.52 33.1493ZM130.363 39.0009L129.473 41.4898C129.455 41.5483 129.418 41.5993 129.368 41.6347C129.318 41.6701 129.257 41.6879 129.196 41.6853H127.265C127.216 41.6899 127.167 41.6812 127.122 41.6602C127.077 41.6393 127.039 41.6068 127.012 41.5662C126.984 41.5251 126.966 41.4775 126.962 41.428C126.958 41.3785 126.967 41.3287 126.988 41.2835L131.158 30.4933C131.177 30.4364 131.215 30.3874 131.265 30.3537C131.315 30.32 131.375 30.3035 131.436 30.3066H133.595C133.656 30.3033 133.716 30.3197 133.766 30.3534C133.817 30.3871 133.855 30.4363 133.874 30.4933L138.045 41.2835C138.065 41.3288 138.074 41.3786 138.069 41.4281C138.065 41.4777 138.048 41.5252 138.019 41.5662C137.992 41.6066 137.954 41.6389 137.909 41.6597C137.864 41.6805 137.815 41.6891 137.766 41.6844H135.837C135.775 41.687 135.714 41.6692 135.664 41.6338C135.614 41.5984 135.577 41.5474 135.559 41.4889L134.669 39H130.363V39.0009ZM140.282 33.392C140.282 31.6053 141.8 30.0604 144.197 30.0604C145.488 30.0318 146.738 30.5108 147.674 31.3929C147.703 31.4196 147.725 31.4519 147.741 31.4876C147.756 31.5234 147.764 31.5619 147.764 31.6009C147.764 31.6398 147.756 31.6783 147.741 31.7141C147.725 31.7499 147.703 31.7821 147.674 31.8089L146.605 32.8889C146.579 32.9151 146.549 32.936 146.515 32.9502C146.481 32.9645 146.445 32.9718 146.408 32.9718C146.371 32.9718 146.335 32.9645 146.301 32.9502C146.267 32.936 146.236 32.9151 146.211 32.8889C145.707 32.4207 145.046 32.1555 144.356 32.1449C143.397 32.1449 142.688 32.7111 142.688 33.3644C142.688 35.4764 148.354 34.2578 148.354 38.3218C148.352 40.3813 146.822 41.9395 144.117 41.9395C143.366 41.9472 142.622 41.8049 141.927 41.5212C141.233 41.2374 140.603 40.8181 140.075 40.288C140.047 40.2612 140.024 40.229 140.008 40.1932C139.993 40.1575 139.985 40.1189 139.985 40.08C139.985 40.041 139.993 40.0025 140.008 39.9667C140.024 39.931 140.047 39.8987 140.075 39.872L141.109 38.8195C141.135 38.792 141.166 38.7701 141.201 38.7551C141.236 38.7401 141.273 38.7323 141.311 38.7323C141.349 38.7323 141.386 38.7401 141.421 38.7551C141.456 38.7701 141.487 38.792 141.512 38.8195C142.163 39.4595 143.04 39.8229 143.956 39.8329C145.154 39.8329 145.944 39.1822 145.944 38.3671C145.944 36.2542 140.28 37.4738 140.28 33.4089M158.629 30.5982V34.8684H153.833V30.5982C153.833 30.5615 153.827 30.5252 153.813 30.4911C153.799 30.4571 153.779 30.426 153.753 30.3998C153.727 30.3735 153.697 30.3526 153.663 30.3381C153.629 30.3237 153.592 30.316 153.555 30.3155H151.736C151.699 30.316 151.663 30.3237 151.629 30.3381C151.595 30.3526 151.564 30.3735 151.538 30.3998C151.512 30.426 151.492 30.4571 151.478 30.4911C151.465 30.5252 151.458 30.5615 151.458 30.5982V41.3866C151.458 41.5431 151.584 41.6702 151.736 41.6702H153.555C153.708 41.6702 153.833 41.5431 153.833 41.3866V37.0489H158.625V41.3866C158.625 41.5431 158.751 41.6702 158.903 41.6702H160.722C160.875 41.6702 161 41.5431 161 41.3866V30.5982C161.001 30.5615 160.994 30.5252 160.98 30.4911C160.966 30.4571 160.946 30.426 160.92 30.3998C160.894 30.3735 160.864 30.3526 160.83 30.3381C160.796 30.3237 160.759 30.316 160.722 30.3155H158.903C158.829 30.3174 158.759 30.3481 158.708 30.401C158.656 30.4539 158.628 30.5248 158.629 30.5982ZM50.4253 31.7555C49.1636 29.4355 46.6948 27.9911 44.0101 28H23.6972C23.56 28.0005 23.426 28.0411 23.312 28.1167C23.1979 28.1922 23.1087 28.2994 23.0556 28.4249C23.0033 28.5495 22.9896 28.6868 23.0165 28.8192C23.0433 28.9516 23.1093 29.0731 23.2061 29.168L27.6311 33.5235C28.0218 33.9093 28.5541 34.1253 29.1079 34.1253H43.4276C44.4483 34.1146 45.2826 34.9164 45.2933 35.9146C45.3041 36.9129 44.4859 37.7306 43.4653 37.7404H33.5929C33.4556 37.7405 33.3214 37.7806 33.207 37.8559C33.0925 37.9311 33.003 38.0381 32.9495 38.1635C32.8966 38.2883 32.8827 38.426 32.9093 38.5587C32.936 38.6915 33.0021 38.8133 33.0991 38.9084L37.5268 43.2675C37.9199 43.6531 38.4507 43.8691 39.0036 43.8684H43.4688C49.2783 43.8684 53.671 37.7884 50.4253 31.7529" fill="#FF3008"/>
</g>
<defs>
<clipPath id="clip0_1539_10424">
<rect width="138" height="16" fill="white" transform="translate(23 28)"/>
</clipPath>
</defs>
</svg>
