<svg width="184" height="72" viewBox="0 0 184 72" fill="none" xmlns="http://www.w3.org/2000/svg">
<rect width="184" height="72" fill="#F9FDFE"/>
<g clip-path="url(#clip0_3460_9281)">
<path d="M61.0273 41.1405C61.3231 41.9158 61.7327 42.5787 62.256 43.1292C62.7794 43.6798 63.3994 44.1012 64.1161 44.3933C64.8329 44.6855 65.6122 44.8315 66.4541 44.8315C67.2732 44.8315 68.0411 44.6798 68.7579 44.3764C69.4746 44.073 70.1003 43.6461 70.635 43.0955C71.1697 42.5449 71.585 41.8877 71.8808 41.1236C72.1766 40.3596 72.3245 39.5057 72.3245 38.5618V24H75.9081V47.5955H72.3586V45.4045C71.5622 46.2359 70.6236 46.8764 69.5428 47.3259C68.462 47.7753 67.296 48 66.0445 48C64.7703 48 63.5814 47.7809 62.4778 47.3427C61.3743 46.9045 60.4186 46.2809 59.611 45.4719C58.8033 44.6629 58.1661 43.6911 57.6997 42.5562C57.2332 41.4214 57 40.1574 57 38.764V24H60.5837V38.5618C60.5837 39.5057 60.7315 40.3652 61.0273 41.1405Z" fill="#010202"/>
<path d="M82.0853 24V32.5955C82.8817 31.809 83.8032 31.1854 84.8499 30.7247C85.8965 30.264 87.0342 30.0337 88.2628 30.0337C89.5371 30.0337 90.7315 30.2696 91.8465 30.7415C92.9614 31.2134 93.9284 31.8539 94.7475 32.6629C95.5667 33.472 96.2152 34.4269 96.693 35.5281C97.1708 36.6292 97.4097 37.7978 97.4097 39.0337C97.4097 40.2696 97.1708 41.4326 96.693 42.5224C96.2152 43.6123 95.5667 44.5618 94.7475 45.3707C93.9284 46.1797 92.9614 46.8202 91.8465 47.2921C90.7315 47.764 89.537 47.9999 88.2628 47.9999C87.0341 47.9999 85.8908 47.7696 84.8328 47.3089C83.7748 46.8482 82.8475 46.2246 82.0512 45.4381V47.5954H78.6382V24H82.0853ZM82.4778 41.3595C82.7849 42.0787 83.2116 42.7079 83.7577 43.2472C84.3038 43.7866 84.9409 44.2136 85.669 44.5282C86.3971 44.8428 87.1821 45.0001 88.024 45.0001C88.8431 45.0001 89.6167 44.8428 90.3448 44.5282C91.0729 44.2136 91.7042 43.7866 92.239 43.2472C92.7737 42.708 93.2003 42.0787 93.5189 41.3595C93.8374 40.6405 93.9967 39.8652 93.9967 39.0337C93.9967 38.2023 93.8374 37.4213 93.5189 36.691C93.2003 35.9607 92.7737 35.3259 92.239 34.7865C91.7043 34.2473 91.0729 33.8259 90.3448 33.5225C89.6166 33.2192 88.8431 33.0674 88.024 33.0674C87.2049 33.0674 86.4313 33.2191 85.7032 33.5225C84.9751 33.8259 84.338 34.2473 83.7918 34.7865C83.2458 35.3259 82.8135 35.9607 82.4949 36.691C82.1764 37.4213 82.0171 38.2023 82.0171 39.0337C82.017 39.8652 82.1706 40.6405 82.4778 41.3595Z" fill="#010202"/>
<path d="M99.3548 35.5619C99.8098 34.4832 100.436 33.5338 101.232 32.7136C102.028 31.8934 102.973 31.2473 104.065 30.7754C105.157 30.3035 106.34 30.0676 107.614 30.0676C108.866 30.0676 110.026 30.2923 111.096 30.7417C112.165 31.1911 113.086 31.8147 113.86 32.6125C114.634 33.4102 115.237 34.3541 115.669 35.4439C116.101 36.5339 116.317 37.7193 116.317 39.0002V40.1126H102.154C102.267 40.8092 102.495 41.4553 102.836 42.0507C103.178 42.6462 103.604 43.163 104.116 43.6012C104.628 44.0395 105.208 44.3822 105.857 44.6293C106.505 44.8765 107.193 45.0002 107.922 45.0002C109.992 45.0002 111.665 44.1574 112.939 42.472L115.43 44.2922C114.566 45.4383 113.496 46.3372 112.222 46.9888C110.948 47.6405 109.514 47.9664 107.922 47.9664C106.625 47.9664 105.413 47.7416 104.287 47.2922C103.16 46.8428 102.182 46.2135 101.352 45.4045C100.521 44.5955 99.8669 43.6461 99.3891 42.5562C98.9113 41.4664 98.6724 40.2809 98.6724 39C98.6722 37.7866 98.8998 36.6405 99.3548 35.5619ZM104.15 34.2303C103.183 35.0281 102.54 36.0899 102.222 37.4158H112.836C112.54 36.0899 111.909 35.0281 110.942 34.2303C109.975 33.4327 108.843 33.0338 107.546 33.0338C106.249 33.0338 105.117 33.4327 104.15 34.2303Z" fill="#010202"/>
<path d="M122.768 34.6179C122.04 35.4045 121.676 36.4719 121.676 37.8202V47.5956H118.229V30.4045H121.641V32.5281C122.074 31.8315 122.637 31.2809 123.331 30.8764C124.025 30.4719 124.85 30.2696 125.805 30.2696H127V33.4381H125.566C124.429 33.4382 123.496 33.8314 122.768 34.6179Z" fill="#010202"/>
</g>
<defs>
<clipPath id="clip0_3460_9281">
<rect width="70" height="24" fill="white" transform="translate(57 24)"/>
</clipPath>
</defs>
</svg>
