<?xml version="1.0" encoding="UTF-8"?>
<svg xmlns="http://www.w3.org/2000/svg" xmlns:xlink="http://www.w3.org/1999/xlink" width="687.64pt" height="153.6pt" viewBox="0 0 687.64 153.6" version="1.1">
<defs>
<clipPath id="clip1">
  <path d="M 591 96 L 681 96 L 681 153.601563 L 591 153.601563 Z M 591 96 "/>
</clipPath>
<clipPath id="clip2">
  <path d="M 558 0 L 687.640625 0 L 687.640625 153 L 558 153 Z M 558 0 "/>
</clipPath>
</defs>
<g id="surface1">
<path style=" stroke:none;fill-rule:nonzero;fill:rgb(0%,27.099609%,52.198792%);fill-opacity:1;" d="M 215.761719 39.574219 L 215.761719 71.871094 C 215.621094 82.539063 215.460938 87.402344 212.722656 92.429688 C 210.289063 96.394531 205.5625 100.511719 197.941406 100.511719 C 191.238281 100.511719 185.757813 97.601563 183.777344 90.910156 C 183.167969 88.929688 183.167969 86.339844 183.167969 83.300781 L 183.167969 49.953125 C 182.945313 44.535156 178.773438 40.121094 173.453125 39.574219 L 164.734375 39.574219 L 164.734375 83.601563 C 164.734375 95.03125 164.734375 102.183594 169.914063 108.734375 C 172.65625 112.234375 178.597656 117.574219 191.089844 117.574219 C 205.101563 117.574219 212.570313 111.023438 215.761719 107.972656 L 215.761719 108.046875 L 215.851563 108.046875 C 215.851563 112.207031 219.140625 115.59375 223.277344 115.746094 L 234.046875 115.746094 L 234.046875 39.574219 "/>
<path style=" stroke:none;fill-rule:nonzero;fill:rgb(0%,27.099609%,52.198792%);fill-opacity:1;" d="M 330.390625 17.003906 C 330.390625 22.917969 325.597656 27.710938 319.691406 27.710938 C 313.785156 27.710938 308.996094 22.917969 308.996094 17.003906 C 308.996094 11.097656 313.785156 6.308594 319.691406 6.308594 C 325.597656 6.308594 330.390625 11.097656 330.390625 17.003906 "/>
<path style=" stroke:none;fill-rule:nonzero;fill:rgb(0%,27.099609%,52.198792%);fill-opacity:1;" d="M 31.683594 101.882813 C 24.363281 101.882813 19.34375 98.84375 19.34375 92.890625 C 19.34375 84.8125 28.023438 83.289063 34.574219 82.378906 C 42.796875 81.011719 46.917969 79.640625 50.566406 77.808594 L 50.566406 86.191406 C 50.566406 88.472656 50.566406 90.753906 49.507813 93.042969 C 47.527344 97.605469 40.976563 101.882813 31.683594 101.882813 M 50.082031 109.820313 L 50.089844 109.820313 C 50.105469 109.8125 50.105469 109.8125 50.105469 109.804688 C 50.105469 109.996094 50.125 110.28125 50.144531 110.617188 C 50.496094 113.304688 52.65625 115.445313 55.359375 115.742188 L 72.199219 115.742188 C 68.851563 111.175781 68.851563 109.195313 68.851563 103.40625 L 68.851563 63.035156 C 68.851563 54.808594 68.691406 47.644531 59.707031 42.15625 C 53.007813 38.203125 44.167969 37.285156 36.855469 37.285156 C 31.976563 37.285156 13.851563 37.285156 6.542969 50.535156 C 5.171875 53.019531 4.472656 55.125 4.082031 57.167969 L 22.261719 60.898438 C 22.367188 59.449219 22.738281 57.953125 24.054688 56.328125 C 25.886719 53.886719 30.003906 51.457031 37.625 51.457031 C 45.449219 51.457031 48.542969 54.4375 49.773438 57.601563 C 50.957031 62.011719 48.976563 63.320313 45.582031 64.558594 C 41.90625 65.59375 38.050781 66.414063 26.953125 68.679688 C 19.644531 70.039063 7.902344 72.480469 2.429688 83.449219 C 0.910156 86.492188 0 89.992188 0 93.8125 C 0 106.90625 10.351563 117.574219 27.566406 117.574219 C 38.050781 117.574219 46.113281 113.171875 50.082031 109.820313 "/>
<path style=" stroke:none;fill-rule:nonzero;fill:rgb(0%,27.099609%,52.198792%);fill-opacity:1;" d="M 383.761719 101.273438 C 372.789063 101.273438 363.1875 92.589844 363.1875 76.890625 C 363.1875 62.878906 371.417969 53.746094 382.847656 53.746094 C 395.652344 53.746094 402.960938 64.40625 403.253906 77.046875 C 403.722656 89.691406 397.011719 101.273438 383.761719 101.273438 M 383 37.285156 C 360.289063 37.285156 344.144531 54.046875 344.144531 77.351563 C 344.144531 100.664063 359.988281 118.035156 383.761719 118.035156 C 406.773438 118.035156 422.453125 101.121094 422.453125 77.351563 C 422.304688 52.066406 404.171875 37.285156 383 37.285156 "/>
<path style=" stroke:none;fill-rule:nonzero;fill:rgb(0%,27.099609%,52.198792%);fill-opacity:1;" d="M 144.085938 78.554688 C 139.558594 74.335938 135.214844 73.195313 119.691406 68.914063 C 110.136719 66.40625 104.644531 64.390625 105.121094 58.925781 C 105.46875 54.984375 109.746094 51.535156 118.394531 52.285156 C 125.996094 52.960938 130.734375 55.816406 133.730469 58.917969 L 145.4375 47.753906 C 145.230469 47.59375 145.046875 47.425781 144.828125 47.265625 C 140 43.171875 131.972656 38.804688 120.4375 37.789063 C 99.652344 35.96875 86.921875 46.78125 85.789063 59.679688 C 85.1875 66.511719 87.691406 76.378906 105.378906 82.210938 C 108.039063 83.203125 120.285156 86.570313 122.8125 87.410156 C 125.199219 88.082031 130.65625 89.84375 130.222656 94.695313 C 129.902344 98.488281 124.792969 103.183594 114.328125 102.261719 C 105.679688 101.511719 99.773438 98.179688 95.691406 93.652344 L 82.359375 103.914063 C 90.597656 112.667969 102.691406 117.292969 113.992188 118.273438 C 137.515625 120.34375 149.371094 107.160156 150.40625 95.316406 C 150.960938 88.941406 148.46875 82.609375 144.085938 78.554688 "/>
<path style=" stroke:none;fill-rule:nonzero;fill:rgb(0%,27.099609%,52.198792%);fill-opacity:1;" d="M 271.527344 50.386719 L 271.527344 48 C 271.210938 43.410156 267.496094 39.761719 262.882813 39.566406 L 253.863281 39.566406 L 253.863281 115.742188 L 271.527344 115.742188 L 271.527344 87.5625 C 271.527344 74.917969 271.671875 67.140625 279.449219 61.207031 C 285.089844 56.9375 291.933594 56.785156 295.902344 56.636719 L 295.902344 37.894531 C 278.847656 37.445313 273.808594 46.433594 271.527344 50.386719 "/>
<path style=" stroke:none;fill-rule:nonzero;fill:rgb(0%,27.099609%,52.198792%);fill-opacity:1;" d="M 319.320313 39.574219 C 314.492188 39.769531 310.640625 43.738281 310.640625 48.609375 L 310.632813 48.609375 L 310.632813 115.746094 L 328.761719 115.746094 L 328.761719 39.574219 "/>
<path style=" stroke:none;fill-rule:nonzero;fill:rgb(0%,27.099609%,52.198792%);fill-opacity:1;" d="M 499.085938 46.425781 C 495.28125 41.246094 487.804688 37.285156 479.121094 37.285156 C 473.183594 37.285156 466.179688 39.265625 461.617188 42.613281 C 458.410156 44.746094 456.578125 47.1875 455.660156 48.566406 L 455.660156 48.558594 L 455.644531 48.609375 L 455.511719 48.609375 C 455.511719 43.738281 451.648438 39.769531 446.820313 39.574219 L 437.234375 39.574219 L 437.234375 115.742188 L 455.660156 115.742188 L 455.660156 82.679688 C 455.660156 77.050781 455.660156 69.269531 458.5625 63.648438 C 461.148438 58.609375 466.640625 55.109375 472.582031 55.109375 C 478.523438 55.109375 483.394531 58.609375 485.0625 65.320313 C 485.675781 67.449219 485.675781 71.257813 485.675781 76.902344 L 485.675781 108.195313 C 485.753906 112.289063 489.015625 115.59375 493.09375 115.742188 L 503.804688 115.742188 L 503.804688 70.957031 C 503.804688 61.058594 503.804688 52.824219 499.085938 46.425781 "/>
<path style=" stroke:none;fill-rule:nonzero;fill:rgb(57.299805%,75.299072%,12.199402%);fill-opacity:1;" d="M 546.398438 126.902344 C 543.289063 122.78125 540.546875 118.351563 538.265625 113.710938 L 538.152344 113.5 L 538.265625 113.277344 C 547.980469 96.207031 551.066406 81.984375 549.261719 62.578125 C 548.34375 52.78125 545.851563 43.289063 541.796875 34.351563 L 541.589844 33.90625 L 541.714844 33.695313 C 544.507813 29.097656 547.761719 24.757813 551.378906 20.789063 L 552.011719 20.109375 L 552.179688 21.019531 C 552.65625 23.601563 553.472656 26.136719 554.566406 28.558594 C 559.261719 38.910156 562.179688 49.917969 563.230469 61.289063 C 565.308594 83.722656 561.253906 101.785156 549.617188 121.675781 C 548.652344 123.332031 547.839844 125.035156 547.203125 126.785156 L 546.914063 127.574219 "/>
<g clip-path="url(#clip1)" clip-rule="nonzero">
<path style=" stroke:none;fill-rule:nonzero;fill:rgb(17.999268%,70.199585%,90.99884%);fill-opacity:1;" d="M 601.265625 153.601563 C 598.3125 153.601563 595.324219 153.433594 592.371094 153.121094 L 591.539063 153.027344 L 592.070313 152.371094 C 592.796875 151.46875 593.484375 150.515625 594.113281 149.523438 C 600.152344 140.101563 606.410156 133.921875 615.867188 125.816406 C 632.402344 111.644531 652.265625 102.171875 673.332031 98.46875 L 673.5625 98.425781 C 675.527344 98.132813 677.480469 97.648438 679.363281 96.996094 L 680.246094 96.675781 L 679.945313 97.578125 C 678.125 102.800781 675.773438 107.886719 672.945313 112.667969 L 672.839844 112.855469 L 672.636719 112.890625 C 655.21875 116.515625 638.746094 124.664063 624.992188 136.457031 C 617.992188 142.460938 613.074219 147.121094 608.671875 153.097656 L 608.539063 153.28125 L 608.335938 153.289063 C 605.949219 153.503906 603.574219 153.601563 601.265625 153.601563 "/>
</g>
<path style=" stroke:none;fill-rule:nonzero;fill:rgb(17.999268%,70.199585%,90.99884%);fill-opacity:1;" d="M 676.355469 46.460938 C 675.949219 46.382813 675.523438 46.3125 675.117188 46.238281 C 647.996094 41.890625 622.640625 27.320313 603.667969 5.21875 C 602.582031 3.953125 601.441406 2.566406 600.273438 1.09375 L 599.601563 0.234375 L 600.546875 0.144531 C 601.175781 0.136719 601.867188 0.117188 602.5625 0.117188 C 608.222656 0.117188 613.941406 0.71875 619.5625 1.886719 L 619.703125 1.914063 L 619.800781 2.011719 C 633.019531 15.386719 649.074219 25.03125 666.253906 29.910156 L 666.382813 29.957031 L 666.472656 30.070313 C 670.539063 34.925781 674.019531 40.21875 676.859375 45.796875 L 677.273438 46.65625 "/>
<g clip-path="url(#clip2)" clip-rule="nonzero">
<path style=" stroke:none;fill-rule:nonzero;fill:rgb(17.999268%,70.199585%,90.99884%);fill-opacity:1;" d="M 594.03125 49.660156 C 594.316406 51.890625 594.527344 53.675781 594.679688 55.285156 C 595.941406 68.871094 595.660156 81.398438 593.863281 93.582031 L 592.386719 103.449219 L 600.316406 97.402344 C 611.996094 88.5 624.65625 81.097656 637.960938 75.359375 L 646.582031 71.65625 L 637.960938 67.925781 C 624.761719 62.222656 612.15625 54.824219 600.519531 45.921875 L 592.785156 40.015625 Z M 566.644531 152.699219 C 565.203125 152.699219 563.769531 152.320313 562.515625 151.585938 L 562.027344 151.265625 C 561.894531 151.167969 561.789063 151.089844 561.675781 151.019531 C 558.191406 148.429688 557.289063 143.585938 559.605469 139.96875 C 559.953125 139.429688 560.296875 138.90625 560.648438 138.378906 L 561.050781 137.792969 L 561.09375 137.679688 C 575.980469 111.253906 581.140625 87.023438 578.332031 56.804688 C 576.890625 41.113281 572.851563 25.890625 566.359375 11.585938 C 564.496094 7.476563 566.324219 2.59375 570.445313 0.738281 C 571.507813 0.242188 572.636719 0.00390625 573.804688 0.00390625 C 575.203125 0.00390625 576.605469 0.367188 577.835938 1.058594 L 577.976563 1.136719 C 578.109375 1.214844 578.242188 1.304688 578.386719 1.390625 C 578.515625 1.488281 578.613281 1.550781 578.71875 1.621094 L 578.871094 1.734375 C 579.488281 2.214844 579.976563 2.683594 580.375 3.203125 C 581.886719 5.105469 583.398438 6.953125 584.882813 8.6875 C 610.15625 38.148438 644.210938 57.609375 680.75 63.476563 L 681.113281 63.558594 C 681.386719 63.621094 681.640625 63.675781 681.871094 63.761719 C 685.273438 64.804688 687.636719 68.023438 687.636719 71.558594 C 687.636719 71.835938 687.636719 72.074219 687.601563 72.292969 L 687.546875 72.859375 L 687.484375 73.179688 C 687.441406 73.390625 687.398438 73.601563 687.335938 73.789063 L 687.300781 73.929688 C 687.246094 74.113281 687.195313 74.300781 687.113281 74.476563 C 686.992188 74.785156 686.910156 74.972656 686.824219 75.148438 L 686.769531 75.253906 C 686.679688 75.449219 686.574219 75.617188 686.488281 75.777344 L 686.398438 75.910156 C 686.292969 76.078125 686.203125 76.234375 686.097656 76.378906 L 685.972656 76.527344 C 685.886719 76.660156 685.777344 76.792969 685.65625 76.933594 C 685.628906 76.960938 685.285156 77.332031 685.195313 77.421875 C 685.160156 77.457031 684.78125 77.808594 684.683594 77.882813 C 684.558594 77.984375 684.445313 78.085938 684.328125 78.164063 L 684.207031 78.253906 C 683.984375 78.410156 683.835938 78.507813 683.691406 78.597656 L 683.554688 78.667969 C 683.375 78.773438 683.199219 78.871094 683.019531 78.949219 L 682.90625 79.011719 C 682.738281 79.082031 682.546875 79.171875 682.347656 79.25 C 682.066406 79.347656 681.871094 79.410156 681.660156 79.472656 C 681.394531 79.542969 681.183594 79.597656 680.988281 79.632813 L 680.597656 79.703125 C 652.027344 84.597656 625.125 97.3125 602.820313 116.425781 C 591.636719 126.035156 583.089844 134.390625 575.058594 146.296875 L 574.953125 146.476563 L 574.425781 147.4375 C 574.195313 147.84375 573.972656 148.242188 573.734375 148.640625 C 572.265625 151.144531 569.5625 152.699219 566.644531 152.699219 "/>
</g>
</g>
</svg>
