<svg width="282" height="78" viewBox="0 0 282 78" fill="none" xmlns="http://www.w3.org/2000/svg">
<g clip-path="url(#clip0_4_55)">
<path d="M134.1 14H141.6L130.7 46.8H122.1L114 22.1L105.9 46.9H97.5L86.6 14H94.2L102 39L110 14H118.1L126.3 39.1L134.1 14Z" fill="black"/>
<path d="M173.6 33.1H149.4C149.6 34.8 150.3 36.4 151.2 37.8C152.1 39 153.3 40 154.6 40.6C156 41.2 157.5 41.5 159 41.5C160.7 41.5 162.4 41.2 164 40.6C165.6 40 167.2 39.1 168.5 38L172.1 43.1C170.3 44.7 168.2 45.9 165.9 46.6C163.5 47.3 161.1 47.7 158.6 47.7C155.6 47.8 152.6 47 149.9 45.6C147.4 44.2 145.3 42.1 144 39.5C142.6 36.9 141.9 33.9 141.9 30.4C141.8 27.3 142.6 24.2 144 21.4C145.3 18.9 147.3 16.8 149.8 15.3C152.4 13.8 155.3 13.1 158.3 13.1C161.1 13 163.9 13.8 166.4 15.3C168.8 16.8 170.7 18.9 171.9 21.4C173.3 24.2 173.9 27.3 173.9 30.4C173.7 31.1 173.7 32 173.6 33.1ZM166.4 27.6C166 25 165.1 23.1 163.6 21.6C162.2 20.2 160.3 19.5 158.1 19.5C155.7 19.5 153.7 20.2 152.2 21.7C150.7 23.2 149.8 25.1 149.4 27.6H166.4Z" fill="black"/>
<path d="M204.2 15.4C206.7 16.9 208.7 19 210.1 21.6C211.6 24.3 212.3 27.4 212.3 30.5C212.3 33.6 211.6 36.7 210.1 39.4C208.7 42 206.7 44.1 204.2 45.6C201.7 47.1 198.8 47.9 195.9 47.8C193.9 47.8 191.8 47.4 190 46.6C188.3 45.8 186.8 44.6 185.6 43.1V47H178.4V0.0999985H185.6V18C186.8 16.5 188.3 15.3 190 14.5C191.9 13.6 193.9 13.2 195.9 13.3C198.8 13.2 201.7 13.9 204.2 15.4ZM200.3 39.6C201.8 38.7 203 37.4 203.8 35.8C204.6 34.1 205 32.3 205 30.5C205 28.7 204.6 26.8 203.8 25.2C203 23.6 201.8 22.3 200.3 21.4C198.7 20.4 196.9 20 195.1 20C193.3 20 191.5 20.4 189.9 21.4C188.4 22.3 187.2 23.6 186.4 25.2C185.6 26.9 185.1 28.7 185.2 30.6C185.2 32.5 185.6 34.3 186.4 36C187.2 37.6 188.4 38.9 189.9 39.8C191.5 40.7 193.2 41.2 195.1 41.2C196.9 41 198.7 40.5 200.3 39.6Z" fill="black"/>
<path d="M247.8 33.1H223.6C223.8 34.8 224.5 36.4 225.4 37.8C226.3 39 227.5 40 228.8 40.6C230.2 41.2 231.7 41.5 233.2 41.5C234.9 41.5 236.6 41.2 238.2 40.6C239.8 40 241.4 39.1 242.7 38L246.3 43.1C244.5 44.7 242.4 45.9 240.1 46.6C237.7 47.3 235.3 47.7 232.8 47.7C229.8 47.8 226.8 47 224.1 45.6C221.6 44.2 219.5 42.1 218.2 39.5C216.8 36.9 216.1 33.9 216.1 30.4C216 27.3 216.8 24.2 218.2 21.4C219.5 18.9 221.5 16.8 224 15.3C226.6 13.8 229.5 13.1 232.5 13.1C235.3 13 238.1 13.8 240.6 15.3C243 16.8 244.9 18.9 246.1 21.4C247.5 24.2 248.1 27.3 248.1 30.4C248 31.1 247.9 32 247.8 33.1ZM240.6 27.6C240.2 25 239.3 23.1 237.8 21.6C236.4 20.2 234.5 19.5 232.2 19.5C229.8 19.5 227.8 20.2 226.3 21.7C224.8 23.1 223.9 25.1 223.5 27.6H240.6Z" fill="black"/>
<path d="M282 46.9H273.2L264.9 35.5L256.7 46.9H248.3L260.7 30.1L248.4 14H257.2L265.2 25L273.2 14H281.7L269.6 30L282 46.9Z" fill="black"/>
<path d="M195.7 74H194.2V60.8H196V65.8C196.4 65.3 196.8 64.9 197.4 64.6C198 64.3 198.6 64.2 199.2 64.2C199.8 64.2 200.4 64.3 201 64.5C201.6 64.8 202 65.1 202.4 65.6C203.1 66.5 203.4 67.7 203.4 69.1C203.4 70.8 202.9 72.1 202 73.1C201.6 73.5 201.1 73.8 200.6 74C200.1 74.2 199.5 74.3 199 74.3C198.4 74.3 197.8 74.2 197.2 73.9C196.7 73.6 196.2 73.2 195.8 72.7L195.7 74ZM201.6 69.1C201.6 67.9 201.3 67 200.7 66.4C200.5 66.2 200.2 66 199.8 65.8C199.5 65.7 199.1 65.6 198.8 65.6C198.4 65.6 198 65.7 197.6 65.8C197.2 66 196.9 66.2 196.7 66.5C196.2 67.2 195.9 68.1 196 69C196 70.2 196.3 71.2 196.9 71.8C197.1 72.1 197.5 72.3 197.8 72.4C198.1 72.5 198.5 72.6 198.9 72.6C199.3 72.6 199.7 72.5 200.1 72.4C200.5 72.2 200.8 72 201 71.6C201.4 71.2 201.6 70.3 201.6 69.1Z" fill="black"/>
<path d="M212.9 64.5L209.6 74.2C209.2 75.5 208.7 76.4 208.3 76.8C208.1 77.1 207.8 77.3 207.5 77.4C207.2 77.5 206.8 77.6 206.5 77.6C206.1 77.6 205.7 77.5 205.4 77.4V76C205.7 76.1 206 76.1 206.3 76.1C206.5 76.1 206.6 76.1 206.8 76C207 75.9 207.1 75.8 207.2 75.7C207.5 75.2 207.8 74.6 208 74H207.4L203.9 64.4H205.8L208.5 72.5L211.2 64.4L212.9 64.5Z" fill="black"/>
<path d="M237.1 60.8H233.8V74.1H237.1V60.8Z" fill="black"/>
<path d="M264.1 64.6C263.2 64.1 262.3 63.9 261.3 63.9C259.1 63.9 257.6 65.4 257.6 67.4C257.6 69.4 259 70.9 261.3 70.9C262.3 70.9 263.2 70.7 264.1 70.2V73.8C263.1 74.1 262.1 74.3 261.1 74.3C257.3 74.3 254 71.7 254 67.4C254 63.4 257 60.5 261.1 60.5C262.1 60.5 263.2 60.7 264.1 61V64.6Z" fill="black"/>
<path d="M229.2 64.6C228.3 64.1 227.4 63.9 226.4 63.9C224.2 63.9 222.7 65.4 222.7 67.4C222.7 69.4 224.1 70.9 226.4 70.9C227.4 70.9 228.3 70.7 229.2 70.2V73.8C228.2 74.1 227.2 74.3 226.1 74.3C222.3 74.3 219 71.7 219 67.4C219 63.4 222 60.5 226.1 60.5C227.1 60.5 228.2 60.7 229.2 61V64.6Z" fill="black"/>
<path d="M274.6 64C274.1 64 273.7 64.1 273.3 64.3C272.9 64.5 272.5 64.7 272.2 65.1C271.9 65.4 271.6 65.8 271.5 66.2C271.3 66.6 271.2 67.1 271.3 67.5C271.3 68 271.4 68.4 271.5 68.8C271.7 69.2 271.9 69.6 272.2 69.9C272.5 70.2 272.9 70.5 273.3 70.7C273.7 70.9 274.2 71 274.6 71C275.1 71 275.5 70.9 275.9 70.7C276.3 70.5 276.7 70.3 277 69.9C277.3 69.6 277.6 69.2 277.7 68.8C277.9 68.4 278 67.9 277.9 67.5C277.9 67 277.8 66.6 277.7 66.2C277.5 65.8 277.3 65.4 277 65.1C276.7 64.8 276.3 64.5 275.9 64.3C275.5 64 275.1 64 274.6 64ZM281.6 67.4C281.6 71.2 278.7 74.3 274.6 74.3C270.5 74.3 267.6 71.2 267.6 67.4C267.6 63.6 270.5 60.5 274.6 60.5C278.7 60.6 281.6 63.7 281.6 67.4Z" fill="black"/>
<path d="M249.8 63.8C248.9 63.6 248.1 63.4 247.2 63.4C245.9 63.4 245.1 63.8 245.1 64.5C245.1 65.3 246.1 65.6 246.6 65.8L247.5 66.1C249.7 66.8 250.7 68.3 250.7 69.9C250.7 73.2 247.8 74.3 245.2 74.3C244 74.3 242.8 74.2 241.6 73.9V70.8C242.6 71.1 243.7 71.3 244.8 71.3C246.5 71.3 247.2 70.8 247.2 70.1C247.2 69.4 246.5 69 245.7 68.8L245 68.6C243.2 68 241.6 66.9 241.6 64.7C241.6 62.2 243.4 60.6 246.5 60.6C247.6 60.6 248.7 60.8 249.8 61V63.8Z" fill="black"/>
<path d="M16.1 25.5C16.9 28.2 17.9 30.9 19.3 33.4C19.9 34.5 20.5 35.6 21.6 36.3C21.8 36.4 22 36.5 22.2 36.6C23.8 36.9 24.7 35.6 25.3 34.5C26.1 32.6 26.8 30.7 27.4 28.7C27.5 28.3 27.6 28 27.7 27.6C27.9 26.9 28.1 26.2 28.2 25.5L35.3 6.5C36.8 4.5 38.7 2.9 40.9 1.8C43 0.6 45.4 0 47.9 0C51.4 0 54.9 1.2 57.7 3.4C62.4 6.9 65.1 13.9 65.1 13.9C65.5 14.8 65.7 15.8 65.7 16.8C65.7 17.7 65.5 18.6 65.2 19.5C64.8 20.3 64.3 21.1 63.7 21.8C63.1 22.4 62.3 23 61.4 23.3C60.6 23.6 59.6 23.8 58.7 23.8C57.7 23.8 56.7 23.6 55.8 23.1C54.9 22.7 54.1 22 53.4 21.3C53.4 21.3 53.4 21.2 53.3 21.2C52.9 20.6 52.5 19.9 52.2 19.2C51.8 18.3 51.4 17.5 50.9 16.7C50.6 16.3 50.4 15.9 50.1 15.5C49.9 15.1 49.6 14.8 49.2 14.5C48.5 14 47.7 13.8 47 14.2L46.9 14.3C46.1 14.8 45.6 15.9 45.2 16.8C44.1 19.2 43.5 21.6 42.8 24.2C42.7 24.7 42.6 25.2 42.5 25.7L39.5 35.3L35.4 44.4C33.9 46.3 32 47.9 29.8 48.9C27.6 50 25.2 50.5 22.8 50.6C12.7 50.8 8 41.7 8 41.7C2.3 32.3 0.6 19.9 0.2 15.9C0 15 0 14.5 0 14.5C0 13.3 0.3 12 1 11C1.6 9.9 2.5 9 3.6 8.4C4.8 7.8 6 7.6 7.3 7.6C8.5 7.6 9.6 8 10.7 8.6C11.5 9.1 12.2 9.7 12.7 10.4C13.6 11.7 13.9 13.4 14 15C14.4 18.6 15.1 22.1 16.1 25.5Z" fill="url(#paint0_linear_4_55)"/>
<path d="M16.1 25.5C16.9 28.2 17.9 30.9 19.3 33.4C19.9 34.5 20.5 35.6 21.6 36.3C21.8 36.4 22 36.5 22.2 36.6C23.8 36.9 24.7 35.6 25.3 34.5C26.1 32.6 26.8 30.7 27.4 28.7C27.5 28.3 27.6 28 27.7 27.6C27.9 26.9 28.1 26.2 28.2 25.5L35.3 6.5C36.8 4.5 38.7 2.9 40.9 1.8C43 0.6 45.4 0 47.9 0C51.4 0 54.9 1.2 57.7 3.4C62.4 6.9 65.1 13.9 65.1 13.9C65.5 14.8 65.7 15.8 65.7 16.8C65.7 17.7 65.5 18.6 65.2 19.5C64.8 20.3 64.3 21.1 63.7 21.8C63.1 22.4 62.3 23 61.4 23.3C60.6 23.6 59.6 23.8 58.7 23.8C57.7 23.8 56.7 23.6 55.8 23.1C54.9 22.7 54.1 22 53.4 21.3C53.4 21.3 53.4 21.2 53.3 21.2C52.9 20.6 52.5 19.9 52.2 19.2C51.8 18.3 51.4 17.5 50.9 16.7C50.6 16.3 50.4 15.9 50.1 15.5C49.9 15.1 49.6 14.8 49.2 14.5C48.5 14 47.7 13.8 47 14.2L46.9 14.3C46.1 14.8 45.6 15.9 45.2 16.8C44.1 19.2 43.5 21.6 42.8 24.2C42.7 24.7 42.6 25.2 42.5 25.7L39.5 35.3L35.4 44.4C33.9 46.3 32 47.9 29.8 48.9C27.6 50 25.2 50.5 22.8 50.6C12.7 50.8 8 41.7 8 41.7C2.3 32.3 0.6 19.9 0.2 15.9C0 15 0 14.5 0 14.5C0 13.3 0.3 12 1 11C1.6 9.9 2.5 9 3.6 8.4C4.8 7.8 6 7.6 7.3 7.6C8.5 7.6 9.6 8 10.7 8.6C11.5 9.1 12.2 9.7 12.7 10.4C13.6 11.7 13.9 13.4 14 15C14.4 18.6 15.1 22.1 16.1 25.5Z" fill="url(#paint1_radial_4_55)"/>
<path d="M16.1 25.5C16.9 28.2 17.9 30.9 19.3 33.4C19.9 34.5 20.5 35.6 21.6 36.3C21.8 36.4 22 36.5 22.2 36.6C23.8 36.9 24.7 35.6 25.3 34.5C26.1 32.6 26.8 30.7 27.4 28.7C27.5 28.3 27.6 28 27.7 27.6C27.9 26.9 28.1 26.2 28.2 25.5L35.3 6.5C36.8 4.5 38.7 2.9 40.9 1.8C43 0.6 45.4 0 47.9 0C51.4 0 54.9 1.2 57.7 3.4C62.4 6.9 65.1 13.9 65.1 13.9C65.5 14.8 65.7 15.8 65.7 16.8C65.7 17.7 65.5 18.6 65.2 19.5C64.8 20.3 64.3 21.1 63.7 21.8C63.1 22.4 62.3 23 61.4 23.3C60.6 23.6 59.6 23.8 58.7 23.8C57.7 23.8 56.7 23.6 55.8 23.1C54.9 22.7 54.1 22 53.4 21.3C53.4 21.3 53.4 21.2 53.3 21.2C52.9 20.6 52.5 19.9 52.2 19.2C51.8 18.3 51.4 17.5 50.9 16.7C50.6 16.3 50.4 15.9 50.1 15.5C49.9 15.1 49.6 14.8 49.2 14.5C48.5 14 47.7 13.8 47 14.2L46.9 14.3C46.1 14.8 45.6 15.9 45.2 16.8C44.1 19.2 43.5 21.6 42.8 24.2C42.7 24.7 42.6 25.2 42.5 25.7L39.5 35.3L35.4 44.4C33.9 46.3 32 47.9 29.8 48.9C27.6 50 25.2 50.5 22.8 50.6C12.7 50.8 8 41.7 8 41.7C2.3 32.3 0.6 19.9 0.2 15.9C0 15 0 14.5 0 14.5C0 13.3 0.3 12 1 11C1.6 9.9 2.5 9 3.6 8.4C4.8 7.8 6 7.6 7.3 7.6C8.5 7.6 9.6 8 10.7 8.6C11.5 9.1 12.2 9.7 12.7 10.4C13.6 11.7 13.9 13.4 14 15C14.4 18.6 15.1 22.1 16.1 25.5Z" fill="url(#paint2_radial_4_55)"/>
<path d="M16.1 25.5C16.9 28.2 17.9 30.9 19.3 33.4C19.9 34.5 20.5 35.6 21.6 36.3C21.8 36.4 22 36.5 22.2 36.6C23.8 36.9 24.7 35.6 25.3 34.5C26.1 32.6 26.8 30.7 27.4 28.7C27.5 28.3 27.6 28 27.7 27.6C27.9 26.9 28.1 26.2 28.2 25.5L35.3 6.5C36.8 4.5 38.7 2.9 40.9 1.8C43 0.6 45.4 0 47.9 0C51.4 0 54.9 1.2 57.7 3.4C62.4 6.9 65.1 13.9 65.1 13.9C65.5 14.8 65.7 15.8 65.7 16.8C65.7 17.7 65.5 18.6 65.2 19.5C64.8 20.3 64.3 21.1 63.7 21.8C63.1 22.4 62.3 23 61.4 23.3C60.6 23.6 59.6 23.8 58.7 23.8C57.7 23.8 56.7 23.6 55.8 23.1C54.9 22.7 54.1 22 53.4 21.3C53.4 21.3 53.4 21.2 53.3 21.2C52.9 20.6 52.5 19.9 52.2 19.2C51.8 18.3 51.4 17.5 50.9 16.7C50.6 16.3 50.4 15.9 50.1 15.5C49.9 15.1 49.6 14.8 49.2 14.5C48.5 14 47.7 13.8 47 14.2L46.9 14.3C46.1 14.8 45.6 15.9 45.2 16.8C44.1 19.2 43.5 21.6 42.8 24.2C42.7 24.7 42.6 25.2 42.5 25.7L39.5 35.3L35.4 44.4C33.9 46.3 32 47.9 29.8 48.9C27.6 50 25.2 50.5 22.8 50.6C12.7 50.8 8 41.7 8 41.7C2.3 32.3 0.6 19.9 0.2 15.9C0 15 0 14.5 0 14.5C0 13.3 0.3 12 1 11C1.6 9.9 2.5 9 3.6 8.4C4.8 7.8 6 7.6 7.3 7.6C8.5 7.6 9.6 8 10.7 8.6C11.5 9.1 12.2 9.7 12.7 10.4C13.6 11.7 13.9 13.4 14 15C14.4 18.6 15.1 22.1 16.1 25.5Z" fill="url(#paint3_radial_4_55)"/>
<path d="M16.1 25.5C16.9 28.2 17.9 30.9 19.3 33.4C19.9 34.5 20.5 35.6 21.6 36.3C21.8 36.4 22 36.5 22.2 36.6C23.8 36.9 24.7 35.6 25.3 34.5C26.1 32.6 26.8 30.7 27.4 28.7C27.5 28.3 27.6 28 27.7 27.6C27.9 26.9 28.1 26.2 28.2 25.5L35.3 6.5C36.8 4.5 38.7 2.9 40.9 1.8C43 0.6 45.4 0 47.9 0C51.4 0 54.9 1.2 57.7 3.4C62.4 6.9 65.1 13.9 65.1 13.9C65.5 14.8 65.7 15.8 65.7 16.8C65.7 17.7 65.5 18.6 65.2 19.5C64.8 20.3 64.3 21.1 63.7 21.8C63.1 22.4 62.3 23 61.4 23.3C60.6 23.6 59.6 23.8 58.7 23.8C57.7 23.8 56.7 23.6 55.8 23.1C54.9 22.7 54.1 22 53.4 21.3C53.4 21.3 53.4 21.2 53.3 21.2C52.9 20.6 52.5 19.9 52.2 19.2C51.8 18.3 51.4 17.5 50.9 16.7C50.6 16.3 50.4 15.9 50.1 15.5C49.9 15.1 49.6 14.8 49.2 14.5C48.5 14 47.7 13.8 47 14.2L46.9 14.3C46.1 14.8 45.6 15.9 45.2 16.8C44.1 19.2 43.5 21.6 42.8 24.2C42.7 24.7 42.6 25.2 42.5 25.7L39.5 35.3L35.4 44.4C33.9 46.3 32 47.9 29.8 48.9C27.6 50 25.2 50.5 22.8 50.6C12.7 50.8 8 41.7 8 41.7C2.3 32.3 0.6 19.9 0.2 15.9C0 15 0 14.5 0 14.5C0 13.3 0.3 12 1 11C1.6 9.9 2.5 9 3.6 8.4C4.8 7.8 6 7.6 7.3 7.6C8.5 7.6 9.6 8 10.7 8.6C11.5 9.1 12.2 9.7 12.7 10.4C13.6 11.7 13.9 13.4 14 15C14.4 18.6 15.1 22.1 16.1 25.5Z" fill="url(#paint4_radial_4_55)"/>
<path d="M16.1 25.5C16.9 28.2 17.9 30.9 19.3 33.4C19.9 34.5 20.5 35.6 21.6 36.3C21.8 36.4 22 36.5 22.2 36.6C23.8 36.9 24.7 35.6 25.3 34.5C26.1 32.6 26.8 30.7 27.4 28.7C27.5 28.3 27.6 28 27.7 27.6C27.9 26.9 28.1 26.2 28.2 25.5L35.3 6.5C36.8 4.5 38.7 2.9 40.9 1.8C43 0.6 45.4 0 47.9 0C51.4 0 54.9 1.2 57.7 3.4C62.4 6.9 65.1 13.9 65.1 13.9C65.5 14.8 65.7 15.8 65.7 16.8C65.7 17.7 65.5 18.6 65.2 19.5C64.8 20.3 64.3 21.1 63.7 21.8C63.1 22.4 62.3 23 61.4 23.3C60.6 23.6 59.6 23.8 58.7 23.8C57.7 23.8 56.7 23.6 55.8 23.1C54.9 22.7 54.1 22 53.4 21.3C53.4 21.3 53.4 21.2 53.3 21.2C52.9 20.6 52.5 19.9 52.2 19.2C51.8 18.3 51.4 17.5 50.9 16.7C50.6 16.3 50.4 15.9 50.1 15.5C49.9 15.1 49.6 14.8 49.2 14.5C48.5 14 47.7 13.8 47 14.2L46.9 14.3C46.1 14.8 45.6 15.9 45.2 16.8C44.1 19.2 43.5 21.6 42.8 24.2C42.7 24.7 42.6 25.2 42.5 25.7L39.5 35.3L35.4 44.4C33.9 46.3 32 47.9 29.8 48.9C27.6 50 25.2 50.5 22.8 50.6C12.7 50.8 8 41.7 8 41.7C2.3 32.3 0.6 19.9 0.2 15.9C0 15 0 14.5 0 14.5C0 13.3 0.3 12 1 11C1.6 9.9 2.5 9 3.6 8.4C4.8 7.8 6 7.6 7.3 7.6C8.5 7.6 9.6 8 10.7 8.6C11.5 9.1 12.2 9.7 12.7 10.4C13.6 11.7 13.9 13.4 14 15C14.4 18.6 15.1 22.1 16.1 25.5Z" fill="url(#paint5_radial_4_55)"/>
<path d="M16.1 25.5C16.9 28.2 17.9 30.9 19.3 33.4C19.9 34.5 20.5 35.6 21.6 36.3C21.8 36.4 22 36.5 22.2 36.6C23.8 36.9 24.7 35.6 25.3 34.5C26.1 32.6 26.8 30.7 27.4 28.7C27.5 28.3 27.6 28 27.7 27.6C27.9 26.9 28.1 26.2 28.2 25.5L35.3 6.5C36.8 4.5 38.7 2.9 40.9 1.8C43 0.6 45.4 0 47.9 0C51.4 0 54.9 1.2 57.7 3.4C62.4 6.9 65.1 13.9 65.1 13.9C65.5 14.8 65.7 15.8 65.7 16.8C65.7 17.7 65.5 18.6 65.2 19.5C64.8 20.3 64.3 21.1 63.7 21.8C63.1 22.4 62.3 23 61.4 23.3C60.6 23.6 59.6 23.8 58.7 23.8C57.7 23.8 56.7 23.6 55.8 23.1C54.9 22.7 54.1 22 53.4 21.3C53.4 21.3 53.4 21.2 53.3 21.2C52.9 20.6 52.5 19.9 52.2 19.2C51.8 18.3 51.4 17.5 50.9 16.7C50.6 16.3 50.4 15.9 50.1 15.5C49.9 15.1 49.6 14.8 49.2 14.5C48.5 14 47.7 13.8 47 14.2L46.9 14.3C46.1 14.8 45.6 15.9 45.2 16.8C44.1 19.2 43.5 21.6 42.8 24.2C42.7 24.7 42.6 25.2 42.5 25.7L39.5 35.3L35.4 44.4C33.9 46.3 32 47.9 29.8 48.9C27.6 50 25.2 50.5 22.8 50.6C12.7 50.8 8 41.7 8 41.7C2.3 32.3 0.6 19.9 0.2 15.9C0 15 0 14.5 0 14.5C0 13.3 0.3 12 1 11C1.6 9.9 2.5 9 3.6 8.4C4.8 7.8 6 7.6 7.3 7.6C8.5 7.6 9.6 8 10.7 8.6C11.5 9.1 12.2 9.7 12.7 10.4C13.6 11.7 13.9 13.4 14 15C14.4 18.6 15.1 22.1 16.1 25.5Z" fill="url(#paint6_radial_4_55)"/>
<path d="M16.1 25.5C16.9 28.2 17.9 30.9 19.3 33.4C19.9 34.5 20.5 35.6 21.6 36.3C21.8 36.4 22 36.5 22.2 36.6C23.8 36.9 24.7 35.6 25.3 34.5C26.1 32.6 26.8 30.7 27.4 28.7C27.5 28.3 27.6 28 27.7 27.6C27.9 26.9 28.1 26.2 28.2 25.5L35.3 6.5C36.8 4.5 38.7 2.9 40.9 1.8C43 0.6 45.4 0 47.9 0C51.4 0 54.9 1.2 57.7 3.4C62.4 6.9 65.1 13.9 65.1 13.9C65.5 14.8 65.7 15.8 65.7 16.8C65.7 17.7 65.5 18.6 65.2 19.5C64.8 20.3 64.3 21.1 63.7 21.8C63.1 22.4 62.3 23 61.4 23.3C60.6 23.6 59.6 23.8 58.7 23.8C57.7 23.8 56.7 23.6 55.8 23.1C54.9 22.7 54.1 22 53.4 21.3C53.4 21.3 53.4 21.2 53.3 21.2C52.9 20.6 52.5 19.9 52.2 19.2C51.8 18.3 51.4 17.5 50.9 16.7C50.6 16.3 50.4 15.9 50.1 15.5C49.9 15.1 49.6 14.8 49.2 14.5C48.5 14 47.7 13.8 47 14.2L46.9 14.3C46.1 14.8 45.6 15.9 45.2 16.8C44.1 19.2 43.5 21.6 42.8 24.2C42.7 24.7 42.6 25.2 42.5 25.7L39.5 35.3L35.4 44.4C33.9 46.3 32 47.9 29.8 48.9C27.6 50 25.2 50.5 22.8 50.6C12.7 50.8 8 41.7 8 41.7C2.3 32.3 0.6 19.9 0.2 15.9C0 15 0 14.5 0 14.5C0 13.3 0.3 12 1 11C1.6 9.9 2.5 9 3.6 8.4C4.8 7.8 6 7.6 7.3 7.6C8.5 7.6 9.6 8 10.7 8.6C11.5 9.1 12.2 9.7 12.7 10.4C13.6 11.7 13.9 13.4 14 15C14.4 18.6 15.1 22.1 16.1 25.5Z" fill="url(#paint7_radial_4_55)"/>
<path d="M16.1 25.5C16.9 28.2 17.9 30.9 19.3 33.4C19.9 34.5 20.5 35.6 21.6 36.3C21.8 36.4 22 36.5 22.2 36.6C23.8 36.9 24.7 35.6 25.3 34.5C26.1 32.6 26.8 30.7 27.4 28.7C27.5 28.3 27.6 28 27.7 27.6C27.9 26.9 28.1 26.2 28.2 25.5L35.3 6.5C36.8 4.5 38.7 2.9 40.9 1.8C43 0.6 45.4 0 47.9 0C51.4 0 54.9 1.2 57.7 3.4C62.4 6.9 65.1 13.9 65.1 13.9C65.5 14.8 65.7 15.8 65.7 16.8C65.7 17.7 65.5 18.6 65.2 19.5C64.8 20.3 64.3 21.1 63.7 21.8C63.1 22.4 62.3 23 61.4 23.3C60.6 23.6 59.6 23.8 58.7 23.8C57.7 23.8 56.7 23.6 55.8 23.1C54.9 22.7 54.1 22 53.4 21.3C53.4 21.3 53.4 21.2 53.3 21.2C52.9 20.6 52.5 19.9 52.2 19.2C51.8 18.3 51.4 17.5 50.9 16.7C50.6 16.3 50.4 15.9 50.1 15.5C49.9 15.1 49.6 14.8 49.2 14.5C48.5 14 47.7 13.8 47 14.2L46.9 14.3C46.1 14.8 45.6 15.9 45.2 16.8C44.1 19.2 43.5 21.6 42.8 24.2C42.7 24.7 42.6 25.2 42.5 25.7L39.5 35.3L35.4 44.4C33.9 46.3 32 47.9 29.8 48.9C27.6 50 25.2 50.5 22.8 50.6C12.7 50.8 8 41.7 8 41.7C2.3 32.3 0.6 19.9 0.2 15.9C0 15 0 14.5 0 14.5C0 13.3 0.3 12 1 11C1.6 9.9 2.5 9 3.6 8.4C4.8 7.8 6 7.6 7.3 7.6C8.5 7.6 9.6 8 10.7 8.6C11.5 9.1 12.2 9.7 12.7 10.4C13.6 11.7 13.9 13.4 14 15C14.4 18.6 15.1 22.1 16.1 25.5Z" fill="url(#paint8_radial_4_55)"/>
<path d="M16.1 25.5C16.9 28.2 17.9 30.9 19.3 33.4C19.9 34.5 20.5 35.6 21.6 36.3C21.8 36.4 22 36.5 22.2 36.6C23.8 36.9 24.7 35.6 25.3 34.5C26.1 32.6 26.8 30.7 27.4 28.7C27.5 28.3 27.6 28 27.7 27.6C27.9 26.9 28.1 26.2 28.2 25.5L35.3 6.5C36.8 4.5 38.7 2.9 40.9 1.8C43 0.6 45.4 0 47.9 0C51.4 0 54.9 1.2 57.7 3.4C62.4 6.9 65.1 13.9 65.1 13.9C65.5 14.8 65.7 15.8 65.7 16.8C65.7 17.7 65.5 18.6 65.2 19.5C64.8 20.3 64.3 21.1 63.7 21.8C63.1 22.4 62.3 23 61.4 23.3C60.6 23.6 59.6 23.8 58.7 23.8C57.7 23.8 56.7 23.6 55.8 23.1C54.9 22.7 54.1 22 53.4 21.3C53.4 21.3 53.4 21.2 53.3 21.2C52.9 20.6 52.5 19.9 52.2 19.2C51.8 18.3 51.4 17.5 50.9 16.7C50.6 16.3 50.4 15.9 50.1 15.5C49.9 15.1 49.6 14.8 49.2 14.5C48.5 14 47.7 13.8 47 14.2L46.9 14.3C46.1 14.8 45.6 15.9 45.2 16.8C44.1 19.2 43.5 21.6 42.8 24.2C42.7 24.7 42.6 25.2 42.5 25.7L39.5 35.3L35.4 44.4C33.9 46.3 32 47.9 29.8 48.9C27.6 50 25.2 50.5 22.8 50.6C12.7 50.8 8 41.7 8 41.7C2.3 32.3 0.6 19.9 0.2 15.9C0 15 0 14.5 0 14.5C0 13.3 0.3 12 1 11C1.6 9.9 2.5 9 3.6 8.4C4.8 7.8 6 7.6 7.3 7.6C8.5 7.6 9.6 8 10.7 8.6C11.5 9.1 12.2 9.7 12.7 10.4C13.6 11.7 13.9 13.4 14 15C14.4 18.6 15.1 22.1 16.1 25.5Z" fill="url(#paint9_radial_4_55)"/>
<path d="M16.1 25.5C16.9 28.2 17.9 30.9 19.3 33.4C19.9 34.5 20.5 35.6 21.6 36.3C21.8 36.4 22 36.5 22.2 36.6C23.8 36.9 24.7 35.6 25.3 34.5C26.1 32.6 26.8 30.7 27.4 28.7C27.5 28.3 27.6 28 27.7 27.6C27.9 26.9 28.1 26.2 28.2 25.5L35.3 6.5C36.8 4.5 38.7 2.9 40.9 1.8C43 0.6 45.4 0 47.9 0C51.4 0 54.9 1.2 57.7 3.4C62.4 6.9 65.1 13.9 65.1 13.9C65.5 14.8 65.7 15.8 65.7 16.8C65.7 17.7 65.5 18.6 65.2 19.5C64.8 20.3 64.3 21.1 63.7 21.8C63.1 22.4 62.3 23 61.4 23.3C60.6 23.6 59.6 23.8 58.7 23.8C57.7 23.8 56.7 23.6 55.8 23.1C54.9 22.7 54.1 22 53.4 21.3C53.4 21.3 53.4 21.2 53.3 21.2C52.9 20.6 52.5 19.9 52.2 19.2C51.8 18.3 51.4 17.5 50.9 16.7C50.6 16.3 50.4 15.9 50.1 15.5C49.9 15.1 49.6 14.8 49.2 14.5C48.5 14 47.7 13.8 47 14.2L46.9 14.3C46.1 14.8 45.6 15.9 45.2 16.8C44.1 19.2 43.5 21.6 42.8 24.2C42.7 24.7 42.6 25.2 42.5 25.7L39.5 35.3L35.4 44.4C33.9 46.3 32 47.9 29.8 48.9C27.6 50 25.2 50.5 22.8 50.6C12.7 50.8 8 41.7 8 41.7C2.3 32.3 0.6 19.9 0.2 15.9C0 15 0 14.5 0 14.5C0 13.3 0.3 12 1 11C1.6 9.9 2.5 9 3.6 8.4C4.8 7.8 6 7.6 7.3 7.6C8.5 7.6 9.6 8 10.7 8.6C11.5 9.1 12.2 9.7 12.7 10.4C13.6 11.7 13.9 13.4 14 15C14.4 18.6 15.1 22.1 16.1 25.5Z" fill="url(#paint10_radial_4_55)"/>
<path d="M16.1 25.5C16.9 28.2 17.9 30.9 19.3 33.4C19.9 34.5 20.5 35.6 21.6 36.3C21.8 36.4 22 36.5 22.2 36.6C23.8 36.9 24.7 35.6 25.3 34.5C26.1 32.6 26.8 30.7 27.4 28.7C27.5 28.3 27.6 28 27.7 27.6C27.9 26.9 28.1 26.2 28.2 25.5L35.3 6.5C36.8 4.5 38.7 2.9 40.9 1.8C43 0.6 45.4 0 47.9 0C51.4 0 54.9 1.2 57.7 3.4C62.4 6.9 65.1 13.9 65.1 13.9C65.5 14.8 65.7 15.8 65.7 16.8C65.7 17.7 65.5 18.6 65.2 19.5C64.8 20.3 64.3 21.1 63.7 21.8C63.1 22.4 62.3 23 61.4 23.3C60.6 23.6 59.6 23.8 58.7 23.8C57.7 23.8 56.7 23.6 55.8 23.1C54.9 22.7 54.1 22 53.4 21.3C53.4 21.3 53.4 21.2 53.3 21.2C52.9 20.6 52.5 19.9 52.2 19.2C51.8 18.3 51.4 17.5 50.9 16.7C50.6 16.3 50.4 15.9 50.1 15.5C49.9 15.1 49.6 14.8 49.2 14.5C48.5 14 47.7 13.8 47 14.2L46.9 14.3C46.1 14.8 45.6 15.9 45.2 16.8C44.1 19.2 43.5 21.6 42.8 24.2C42.7 24.7 42.6 25.2 42.5 25.7L39.5 35.3L35.4 44.4C33.9 46.3 32 47.9 29.8 48.9C27.6 50 25.2 50.5 22.8 50.6C12.7 50.8 8 41.7 8 41.7C2.3 32.3 0.6 19.9 0.2 15.9C0 15 0 14.5 0 14.5C0 13.3 0.3 12 1 11C1.6 9.9 2.5 9 3.6 8.4C4.8 7.8 6 7.6 7.3 7.6C8.5 7.6 9.6 8 10.7 8.6C11.5 9.1 12.2 9.7 12.7 10.4C13.6 11.7 13.9 13.4 14 15C14.4 18.6 15.1 22.1 16.1 25.5Z" fill="url(#paint11_radial_4_55)"/>
<path d="M16.1 25.5C16.9 28.2 17.9 30.9 19.3 33.4C19.9 34.5 20.5 35.6 21.6 36.3C21.8 36.4 22 36.5 22.2 36.6C23.8 36.9 24.7 35.6 25.3 34.5C26.1 32.6 26.8 30.7 27.4 28.7C27.5 28.3 27.6 28 27.7 27.6C27.9 26.9 28.1 26.2 28.2 25.5L35.3 6.5C36.8 4.5 38.7 2.9 40.9 1.8C43 0.6 45.4 0 47.9 0C51.4 0 54.9 1.2 57.7 3.4C62.4 6.9 65.1 13.9 65.1 13.9C65.5 14.8 65.7 15.8 65.7 16.8C65.7 17.7 65.5 18.6 65.2 19.5C64.8 20.3 64.3 21.1 63.7 21.8C63.1 22.4 62.3 23 61.4 23.3C60.6 23.6 59.6 23.8 58.7 23.8C57.7 23.8 56.7 23.6 55.8 23.1C54.9 22.7 54.1 22 53.4 21.3C53.4 21.3 53.4 21.2 53.3 21.2C52.9 20.6 52.5 19.9 52.2 19.2C51.8 18.3 51.4 17.5 50.9 16.7C50.6 16.3 50.4 15.9 50.1 15.5C49.9 15.1 49.6 14.8 49.2 14.5C48.5 14 47.7 13.8 47 14.2L46.9 14.3C46.1 14.8 45.6 15.9 45.2 16.8C44.1 19.2 43.5 21.6 42.8 24.2C42.7 24.7 42.6 25.2 42.5 25.7L39.5 35.3L35.4 44.4C33.9 46.3 32 47.9 29.8 48.9C27.6 50 25.2 50.5 22.8 50.6C12.7 50.8 8 41.7 8 41.7C2.3 32.3 0.6 19.9 0.2 15.9C0 15 0 14.5 0 14.5C0 13.3 0.3 12 1 11C1.6 9.9 2.5 9 3.6 8.4C4.8 7.8 6 7.6 7.3 7.6C8.5 7.6 9.6 8 10.7 8.6C11.5 9.1 12.2 9.7 12.7 10.4C13.6 11.7 13.9 13.4 14 15C14.4 18.6 15.1 22.1 16.1 25.5Z" fill="url(#paint12_radial_4_55)"/>
<path d="M16.1 25.5C16.9 28.2 17.9 30.9 19.3 33.4C19.9 34.5 20.5 35.6 21.6 36.3C21.8 36.4 22 36.5 22.2 36.6C23.8 36.9 24.7 35.6 25.3 34.5C26.1 32.6 26.8 30.7 27.4 28.7C27.5 28.3 27.6 28 27.7 27.6C27.9 26.9 28.1 26.2 28.2 25.5L35.3 6.5C36.8 4.5 38.7 2.9 40.9 1.8C43 0.6 45.4 0 47.9 0C51.4 0 54.9 1.2 57.7 3.4C62.4 6.9 65.1 13.9 65.1 13.9C65.5 14.8 65.7 15.8 65.7 16.8C65.7 17.7 65.5 18.6 65.2 19.5C64.8 20.3 64.3 21.1 63.7 21.8C63.1 22.4 62.3 23 61.4 23.3C60.6 23.6 59.6 23.8 58.7 23.8C57.7 23.8 56.7 23.6 55.8 23.1C54.9 22.7 54.1 22 53.4 21.3C53.4 21.3 53.4 21.2 53.3 21.2C52.9 20.6 52.5 19.9 52.2 19.2C51.8 18.3 51.4 17.5 50.9 16.7C50.6 16.3 50.4 15.9 50.1 15.5C49.9 15.1 49.6 14.8 49.2 14.5C48.5 14 47.7 13.8 47 14.2L46.9 14.3C46.1 14.8 45.6 15.9 45.2 16.8C44.1 19.2 43.5 21.6 42.8 24.2C42.7 24.7 42.6 25.2 42.5 25.7L39.5 35.3L35.4 44.4C33.9 46.3 32 47.9 29.8 48.9C27.6 50 25.2 50.5 22.8 50.6C12.7 50.8 8 41.7 8 41.7C2.3 32.3 0.6 19.9 0.2 15.9C0 15 0 14.5 0 14.5C0 13.3 0.3 12 1 11C1.6 9.9 2.5 9 3.6 8.4C4.8 7.8 6 7.6 7.3 7.6C8.5 7.6 9.6 8 10.7 8.6C11.5 9.1 12.2 9.7 12.7 10.4C13.6 11.7 13.9 13.4 14 15C14.4 18.6 15.1 22.1 16.1 25.5Z" fill="url(#paint13_radial_4_55)"/>
<path d="M16.1 25.5C16.9 28.2 17.9 30.9 19.3 33.4C19.9 34.5 20.5 35.6 21.6 36.3C21.8 36.4 22 36.5 22.2 36.6C23.8 36.9 24.7 35.6 25.3 34.5C26.1 32.6 26.8 30.7 27.4 28.7C27.5 28.3 27.6 28 27.7 27.6C27.9 26.9 28.1 26.2 28.2 25.5L35.3 6.5C36.8 4.5 38.7 2.9 40.9 1.8C43 0.6 45.4 0 47.9 0C51.4 0 54.9 1.2 57.7 3.4C62.4 6.9 65.1 13.9 65.1 13.9C65.5 14.8 65.7 15.8 65.7 16.8C65.7 17.7 65.5 18.6 65.2 19.5C64.8 20.3 64.3 21.1 63.7 21.8C63.1 22.4 62.3 23 61.4 23.3C60.6 23.6 59.6 23.8 58.7 23.8C57.7 23.8 56.7 23.6 55.8 23.1C54.9 22.7 54.1 22 53.4 21.3C53.4 21.3 53.4 21.2 53.3 21.2C52.9 20.6 52.5 19.9 52.2 19.2C51.8 18.3 51.4 17.5 50.9 16.7C50.6 16.3 50.4 15.9 50.1 15.5C49.9 15.1 49.6 14.8 49.2 14.5C48.5 14 47.7 13.8 47 14.2L46.9 14.3C46.1 14.8 45.6 15.9 45.2 16.8C44.1 19.2 43.5 21.6 42.8 24.2C42.7 24.7 42.6 25.2 42.5 25.7L39.5 35.3L35.4 44.4C33.9 46.3 32 47.9 29.8 48.9C27.6 50 25.2 50.5 22.8 50.6C12.7 50.8 8 41.7 8 41.7C2.3 32.3 0.6 19.9 0.2 15.9C0 15 0 14.5 0 14.5C0 13.3 0.3 12 1 11C1.6 9.9 2.5 9 3.6 8.4C4.8 7.8 6 7.6 7.3 7.6C8.5 7.6 9.6 8 10.7 8.6C11.5 9.1 12.2 9.7 12.7 10.4C13.6 11.7 13.9 13.4 14 15C14.4 18.6 15.1 22.1 16.1 25.5Z" fill="url(#paint14_radial_4_55)"/>
<path d="M16.1 25.5C16.9 28.2 17.9 30.9 19.3 33.4C19.9 34.5 20.5 35.6 21.6 36.3C21.8 36.4 22 36.5 22.2 36.6C23.8 36.9 24.7 35.6 25.3 34.5C26.1 32.6 26.8 30.7 27.4 28.7C27.5 28.3 27.6 28 27.7 27.6C27.9 26.9 28.1 26.2 28.2 25.5L35.3 6.5C36.8 4.5 38.7 2.9 40.9 1.8C43 0.6 45.4 0 47.9 0C51.4 0 54.9 1.2 57.7 3.4C62.4 6.9 65.1 13.9 65.1 13.9C65.5 14.8 65.7 15.8 65.7 16.8C65.7 17.7 65.5 18.6 65.2 19.5C64.8 20.3 64.3 21.1 63.7 21.8C63.1 22.4 62.3 23 61.4 23.3C60.6 23.6 59.6 23.8 58.7 23.8C57.7 23.8 56.7 23.6 55.8 23.1C54.9 22.7 54.1 22 53.4 21.3C53.4 21.3 53.4 21.2 53.3 21.2C52.9 20.6 52.5 19.9 52.2 19.2C51.8 18.3 51.4 17.5 50.9 16.7C50.6 16.3 50.4 15.9 50.1 15.5C49.9 15.1 49.6 14.8 49.2 14.5C48.5 14 47.7 13.8 47 14.2L46.9 14.3C46.1 14.8 45.6 15.9 45.2 16.8C44.1 19.2 43.5 21.6 42.8 24.2C42.7 24.7 42.6 25.2 42.5 25.7L39.5 35.3L35.4 44.4C33.9 46.3 32 47.9 29.8 48.9C27.6 50 25.2 50.5 22.8 50.6C12.7 50.8 8 41.7 8 41.7C2.3 32.3 0.6 19.9 0.2 15.9C0 15 0 14.5 0 14.5C0 13.3 0.3 12 1 11C1.6 9.9 2.5 9 3.6 8.4C4.8 7.8 6 7.6 7.3 7.6C8.5 7.6 9.6 8 10.7 8.6C11.5 9.1 12.2 9.7 12.7 10.4C13.6 11.7 13.9 13.4 14 15C14.4 18.6 15.1 22.1 16.1 25.5Z" fill="url(#paint15_radial_4_55)"/>
<path d="M16.1 25.5C16.9 28.2 17.9 30.9 19.3 33.4C19.9 34.5 20.5 35.6 21.6 36.3C21.8 36.4 22 36.5 22.2 36.6C23.8 36.9 24.7 35.6 25.3 34.5C26.1 32.6 26.8 30.7 27.4 28.7C27.5 28.3 27.6 28 27.7 27.6C27.9 26.9 28.1 26.2 28.2 25.5L35.3 6.5C36.8 4.5 38.7 2.9 40.9 1.8C43 0.6 45.4 0 47.9 0C51.4 0 54.9 1.2 57.7 3.4C62.4 6.9 65.1 13.9 65.1 13.9C65.5 14.8 65.7 15.8 65.7 16.8C65.7 17.7 65.5 18.6 65.2 19.5C64.8 20.3 64.3 21.1 63.7 21.8C63.1 22.4 62.3 23 61.4 23.3C60.6 23.6 59.6 23.8 58.7 23.8C57.7 23.8 56.7 23.6 55.8 23.1C54.9 22.7 54.1 22 53.4 21.3C53.4 21.3 53.4 21.2 53.3 21.2C52.9 20.6 52.5 19.9 52.2 19.2C51.8 18.3 51.4 17.5 50.9 16.7C50.6 16.3 50.4 15.9 50.1 15.5C49.9 15.1 49.6 14.8 49.2 14.5C48.5 14 47.7 13.8 47 14.2L46.9 14.3C46.1 14.8 45.6 15.9 45.2 16.8C44.1 19.2 43.5 21.6 42.8 24.2C42.7 24.7 42.6 25.2 42.5 25.7L39.5 35.3L35.4 44.4C33.9 46.3 32 47.9 29.8 48.9C27.6 50 25.2 50.5 22.8 50.6C12.7 50.8 8 41.7 8 41.7C2.3 32.3 0.6 19.9 0.2 15.9C0 15 0 14.5 0 14.5C0 13.3 0.3 12 1 11C1.6 9.9 2.5 9 3.6 8.4C4.8 7.8 6 7.6 7.3 7.6C8.5 7.6 9.6 8 10.7 8.6C11.5 9.1 12.2 9.7 12.7 10.4C13.6 11.7 13.9 13.4 14 15C14.4 18.6 15.1 22.1 16.1 25.5Z" fill="url(#paint16_linear_4_55)"/>
<path d="M16.1 25.5C16.9 28.2 17.9 30.9 19.3 33.4C19.9 34.5 20.5 35.6 21.6 36.3C21.8 36.4 22 36.5 22.2 36.6C23.8 36.9 24.7 35.6 25.3 34.5C26.1 32.6 26.8 30.7 27.4 28.7C27.5 28.3 27.6 28 27.7 27.6C27.9 26.9 28.1 26.2 28.2 25.5L35.3 6.5C36.8 4.5 38.7 2.9 40.9 1.8C43 0.6 45.4 0 47.9 0C51.4 0 54.9 1.2 57.7 3.4C62.4 6.9 65.1 13.9 65.1 13.9C65.5 14.8 65.7 15.8 65.7 16.8C65.7 17.7 65.5 18.6 65.2 19.5C64.8 20.3 64.3 21.1 63.7 21.8C63.1 22.4 62.3 23 61.4 23.3C60.6 23.6 59.6 23.8 58.7 23.8C57.7 23.8 56.7 23.6 55.8 23.1C54.9 22.7 54.1 22 53.4 21.3C53.4 21.3 53.4 21.2 53.3 21.2C52.9 20.6 52.5 19.9 52.2 19.2C51.8 18.3 51.4 17.5 50.9 16.7C50.6 16.3 50.4 15.9 50.1 15.5C49.9 15.1 49.6 14.8 49.2 14.5C48.5 14 47.7 13.8 47 14.2L46.9 14.3C46.1 14.8 45.6 15.9 45.2 16.8C44.1 19.2 43.5 21.6 42.8 24.2C42.7 24.7 42.6 25.2 42.5 25.7L39.5 35.3L35.4 44.4C33.9 46.3 32 47.9 29.8 48.9C27.6 50 25.2 50.5 22.8 50.6C12.7 50.8 8 41.7 8 41.7C2.3 32.3 0.6 19.9 0.2 15.9C0 15 0 14.5 0 14.5C0 13.3 0.3 12 1 11C1.6 9.9 2.5 9 3.6 8.4C4.8 7.8 6 7.6 7.3 7.6C8.5 7.6 9.6 8 10.7 8.6C11.5 9.1 12.2 9.7 12.7 10.4C13.6 11.7 13.9 13.4 14 15C14.4 18.6 15.1 22.1 16.1 25.5Z" fill="url(#paint17_linear_4_55)"/>
<path d="M16.1 25.5C16.9 28.2 17.9 30.9 19.3 33.4C19.9 34.5 20.5 35.6 21.6 36.3C21.8 36.4 22 36.5 22.2 36.6C23.8 36.9 24.7 35.6 25.3 34.5C26.1 32.6 26.8 30.7 27.4 28.7C27.5 28.3 27.6 28 27.7 27.6C27.9 26.9 28.1 26.2 28.2 25.5L35.3 6.5C36.8 4.5 38.7 2.9 40.9 1.8C43 0.6 45.4 0 47.9 0C51.4 0 54.9 1.2 57.7 3.4C62.4 6.9 65.1 13.9 65.1 13.9C65.5 14.8 65.7 15.8 65.7 16.8C65.7 17.7 65.5 18.6 65.2 19.5C64.8 20.3 64.3 21.1 63.7 21.8C63.1 22.4 62.3 23 61.4 23.3C60.6 23.6 59.6 23.8 58.7 23.8C57.7 23.8 56.7 23.6 55.8 23.1C54.9 22.7 54.1 22 53.4 21.3C53.4 21.3 53.4 21.2 53.3 21.2C52.9 20.6 52.5 19.9 52.2 19.2C51.8 18.3 51.4 17.5 50.9 16.7C50.6 16.3 50.4 15.9 50.1 15.5C49.9 15.1 49.6 14.8 49.2 14.5C48.5 14 47.7 13.8 47 14.2L46.9 14.3C46.1 14.8 45.6 15.9 45.2 16.8C44.1 19.2 43.5 21.6 42.8 24.2C42.7 24.7 42.6 25.2 42.5 25.7L39.5 35.3L35.4 44.4C33.9 46.3 32 47.9 29.8 48.9C27.6 50 25.2 50.5 22.8 50.6C12.7 50.8 8 41.7 8 41.7C2.3 32.3 0.6 19.9 0.2 15.9C0 15 0 14.5 0 14.5C0 13.3 0.3 12 1 11C1.6 9.9 2.5 9 3.6 8.4C4.8 7.8 6 7.6 7.3 7.6C8.5 7.6 9.6 8 10.7 8.6C11.5 9.1 12.2 9.7 12.7 10.4C13.6 11.7 13.9 13.4 14 15C14.4 18.6 15.1 22.1 16.1 25.5Z" fill="url(#paint18_linear_4_55)"/>
<path d="M16.1 25.5C16.9 28.2 17.9 30.9 19.3 33.4C19.9 34.5 20.5 35.6 21.6 36.3C21.8 36.4 22 36.5 22.2 36.6C23.8 36.9 24.7 35.6 25.3 34.5C26.1 32.6 26.8 30.7 27.4 28.7C27.5 28.3 27.6 28 27.7 27.6C27.9 26.9 28.1 26.2 28.2 25.5L35.3 6.5C36.8 4.5 38.7 2.9 40.9 1.8C43 0.6 45.4 0 47.9 0C51.4 0 54.9 1.2 57.7 3.4C62.4 6.9 65.1 13.9 65.1 13.9C65.5 14.8 65.7 15.8 65.7 16.8C65.7 17.7 65.5 18.6 65.2 19.5C64.8 20.3 64.3 21.1 63.7 21.8C63.1 22.4 62.3 23 61.4 23.3C60.6 23.6 59.6 23.8 58.7 23.8C57.7 23.8 56.7 23.6 55.8 23.1C54.9 22.7 54.1 22 53.4 21.3C53.4 21.3 53.4 21.2 53.3 21.2C52.9 20.6 52.5 19.9 52.2 19.2C51.8 18.3 51.4 17.5 50.9 16.7C50.6 16.3 50.4 15.9 50.1 15.5C49.9 15.1 49.6 14.8 49.2 14.5C48.5 14 47.7 13.8 47 14.2L46.9 14.3C46.1 14.8 45.6 15.9 45.2 16.8C44.1 19.2 43.5 21.6 42.8 24.2C42.7 24.7 42.6 25.2 42.5 25.7L39.5 35.3L35.4 44.4C33.9 46.3 32 47.9 29.8 48.9C27.6 50 25.2 50.5 22.8 50.6C12.7 50.8 8 41.7 8 41.7C2.3 32.3 0.6 19.9 0.2 15.9C0 15 0 14.5 0 14.5C0 13.3 0.3 12 1 11C1.6 9.9 2.5 9 3.6 8.4C4.8 7.8 6 7.6 7.3 7.6C8.5 7.6 9.6 8 10.7 8.6C11.5 9.1 12.2 9.7 12.7 10.4C13.6 11.7 13.9 13.4 14 15C14.4 18.6 15.1 22.1 16.1 25.5Z" fill="url(#paint19_linear_4_55)"/>
<path d="M30.7 18.4L35.2 6.3C36.7 4.3 38.6 2.7 40.8 1.6C43 0.6 45.4 0 47.9 0C51.4 0 54.9 1.2 57.7 3.4C62.4 6.9 65.1 13.9 65.1 13.9C65.5 14.8 65.7 15.8 65.7 16.8C65.7 17.7 65.5 18.6 65.2 19.5C64.8 20.3 64.3 21.1 63.7 21.8C63.1 22.4 62.3 23 61.4 23.3C60.6 23.6 59.6 23.8 58.7 23.8C57.7 23.8 56.7 23.6 55.8 23.1C54.9 22.7 54.1 22 53.4 21.3C53.4 21.3 53.4 21.2 53.3 21.2C52.9 20.6 52.5 19.9 52.2 19.2C51.8 18.3 51.4 17.5 50.9 16.7C50.6 16.3 50.4 15.9 50.1 15.5C49.9 15.1 49.6 14.8 49.2 14.5C48.5 14 47.7 13.8 47 14.2L46.9 14.3C46.1 14.8 45.6 15.9 45.2 16.8C44.1 19.2 43.5 21.6 42.8 24.2C42.7 24.7 42.6 25.2 42.5 25.7L39.5 35.3L30.7 18.4Z" fill="url(#paint20_linear_4_55)"/>
<path d="M63.5 7.6C62.9 7.6 62.3 7.7 61.8 7.8C63.1 9.7 64.2 11.7 65.1 13.8C65.5 14.7 65.7 15.7 65.7 16.7C65.7 17.6 65.5 18.5 65.2 19.4C64.8 20.2 64.3 21 63.7 21.7C63.1 22.4 62.3 22.9 61.4 23.2C60.6 23.5 59.6 23.7 58.7 23.7C57.5 23.7 56.2 23.4 55.2 22.7L54.5 25.4C53.2 29.8 52.3 31.4 52.3 31.4C51.8 32.6 51.2 33.7 50.5 34.8C50 35.5 49.4 36.2 48.6 36.5C48.3 36.6 48 36.6 47.7 36.6C47.4 36.6 47.1 36.5 46.8 36.3C46.3 35.9 45.8 35.3 45.5 34.7C45.1 34 44.8 33.3 44.5 32.6C43.9 31.1 42.9 27.4 42.9 27.4L41.9 23.5L40.9 19.6L40.2 17C38.4 10.3 35.8 7 35.8 7C33.8 4.1 30.9 2 27.6 0.799998C23.8 -0.600002 19.8 0.199998 19.8 0.199998C13.5 1.4 10.2 5.7 8.79999 7.8C9.49999 8 10.1 8.2 10.7 8.6C11.5 9.1 12.2 9.7 12.7 10.4C13.6 11.7 13.9 13.4 14 15C14.4 18.5 15.1 21.9 16 25.3C18.1 18.2 20.7 14.9 20.7 14.9C21 14.5 21.3 14.2 21.7 14C21.9 13.9 22.1 13.8 22.4 13.8C22.8 13.8 23.3 13.9 23.6 14.1C23.7 14.1 23.7 14.2 23.8 14.2C24.1 14.5 24.4 14.8 24.7 15.2C25.2 16.2 25.7 17.1 26.1 18.2C26.9 20.4 27.6 23.2 27.6 23.2L29.6 31.2C31.1 36.7 32.3 39.3 32.3 39.3C35.4 46.4 40.1 48.4 40.1 48.4C42.4 49.6 45 50.3 47.6 50.4C50.1 50.5 52.6 50 54.8 48.9C57.2 47.7 59.4 45.9 61.1 43.8C62.2 42.5 63.9 39.3 63.9 39.3C65.8 35.6 67.2 31.7 68.2 27.7C68.9 25.2 69.4 22.7 69.8 20.1C70 18.8 70.2 17.6 70.3 16.3C70.5 15.1 70.5 13.9 70.2 12.7C70.1 12.5 70.1 12.3 70 12.1C69.4 10.6 68.3 9.4 66.9 8.6C65.9 7.9 64.7 7.6 63.5 7.6Z" fill="url(#paint21_linear_4_55)"/>
<path d="M63.5 7.6C62.9 7.6 62.3 7.7 61.8 7.8C63.1 9.7 64.2 11.7 65.1 13.8C65.5 14.7 65.7 15.7 65.7 16.7C65.7 17.6 65.5 18.5 65.2 19.4C64.8 20.2 64.3 21 63.7 21.7C63.1 22.4 62.3 22.9 61.4 23.2C60.6 23.5 59.6 23.7 58.7 23.7C57.5 23.7 56.2 23.4 55.2 22.7L54.5 25.4C53.2 29.8 52.3 31.4 52.3 31.4C51.8 32.6 51.2 33.7 50.5 34.8C50 35.5 49.4 36.2 48.6 36.5C48.3 36.6 48 36.6 47.7 36.6C47.4 36.6 47.1 36.5 46.8 36.3C46.3 35.9 45.8 35.3 45.5 34.7C45.1 34 44.8 33.3 44.5 32.6C43.9 31.1 42.9 27.4 42.9 27.4L41.9 23.5L40.9 19.6L40.2 17C38.4 10.3 35.8 7 35.8 7C33.8 4.1 30.9 2 27.6 0.799998C23.8 -0.600002 19.8 0.199998 19.8 0.199998C13.5 1.4 10.2 5.7 8.79999 7.8C9.49999 8 10.1 8.2 10.7 8.6C11.5 9.1 12.2 9.7 12.7 10.4C13.6 11.7 13.9 13.4 14 15C14.4 18.5 15.1 21.9 16 25.3C18.1 18.2 20.7 14.9 20.7 14.9C21 14.5 21.3 14.2 21.7 14C21.9 13.9 22.1 13.8 22.4 13.8C22.8 13.8 23.3 13.9 23.6 14.1C23.7 14.1 23.7 14.2 23.8 14.2C24.1 14.5 24.4 14.8 24.7 15.2C25.2 16.2 25.7 17.1 26.1 18.2C26.9 20.4 27.6 23.2 27.6 23.2L29.6 31.2C31.1 36.7 32.3 39.3 32.3 39.3C35.4 46.4 40.1 48.4 40.1 48.4C42.4 49.6 45 50.3 47.6 50.4C50.1 50.5 52.6 50 54.8 48.9C57.2 47.7 59.4 45.9 61.1 43.8C62.2 42.5 63.9 39.3 63.9 39.3C65.8 35.6 67.2 31.7 68.2 27.7C68.9 25.2 69.4 22.7 69.8 20.1C70 18.8 70.2 17.6 70.3 16.3C70.5 15.1 70.5 13.9 70.2 12.7C70.1 12.5 70.1 12.3 70 12.1C69.4 10.6 68.3 9.4 66.9 8.6C65.9 7.9 64.7 7.6 63.5 7.6Z" fill="url(#paint22_radial_4_55)"/>
<path d="M63.5 7.6C62.9 7.6 62.3 7.7 61.8 7.8C63.1 9.7 64.2 11.7 65.1 13.8C65.5 14.7 65.7 15.7 65.7 16.7C65.7 17.6 65.5 18.5 65.2 19.4C64.8 20.2 64.3 21 63.7 21.7C63.1 22.4 62.3 22.9 61.4 23.2C60.6 23.5 59.6 23.7 58.7 23.7C57.5 23.7 56.2 23.4 55.2 22.7L54.5 25.4C53.2 29.8 52.3 31.4 52.3 31.4C51.8 32.6 51.2 33.7 50.5 34.8C50 35.5 49.4 36.2 48.6 36.5C48.3 36.6 48 36.6 47.7 36.6C47.4 36.6 47.1 36.5 46.8 36.3C46.3 35.9 45.8 35.3 45.5 34.7C45.1 34 44.8 33.3 44.5 32.6C43.9 31.1 42.9 27.4 42.9 27.4L41.9 23.5L40.9 19.6L40.2 17C38.4 10.3 35.8 7 35.8 7C33.8 4.1 30.9 2 27.6 0.799998C23.8 -0.600002 19.8 0.199998 19.8 0.199998C13.5 1.4 10.2 5.7 8.79999 7.8C9.49999 8 10.1 8.2 10.7 8.6C11.5 9.1 12.2 9.7 12.7 10.4C13.6 11.7 13.9 13.4 14 15C14.4 18.5 15.1 21.9 16 25.3C18.1 18.2 20.7 14.9 20.7 14.9C21 14.5 21.3 14.2 21.7 14C21.9 13.9 22.1 13.8 22.4 13.8C22.8 13.8 23.3 13.9 23.6 14.1C23.7 14.1 23.7 14.2 23.8 14.2C24.1 14.5 24.4 14.8 24.7 15.2C25.2 16.2 25.7 17.1 26.1 18.2C26.9 20.4 27.6 23.2 27.6 23.2L29.6 31.2C31.1 36.7 32.3 39.3 32.3 39.3C35.4 46.4 40.1 48.4 40.1 48.4C42.4 49.6 45 50.3 47.6 50.4C50.1 50.5 52.6 50 54.8 48.9C57.2 47.7 59.4 45.9 61.1 43.8C62.2 42.5 63.9 39.3 63.9 39.3C65.8 35.6 67.2 31.7 68.2 27.7C68.9 25.2 69.4 22.7 69.8 20.1C70 18.8 70.2 17.6 70.3 16.3C70.5 15.1 70.5 13.9 70.2 12.7C70.1 12.5 70.1 12.3 70 12.1C69.4 10.6 68.3 9.4 66.9 8.6C65.9 7.9 64.7 7.6 63.5 7.6Z" fill="url(#paint23_radial_4_55)"/>
<path d="M63.5 7.6C62.9 7.6 62.3 7.7 61.8 7.8C63.1 9.7 64.2 11.7 65.1 13.8C65.5 14.7 65.7 15.7 65.7 16.7C65.7 17.6 65.5 18.5 65.2 19.4C64.8 20.2 64.3 21 63.7 21.7C63.1 22.4 62.3 22.9 61.4 23.2C60.6 23.5 59.6 23.7 58.7 23.7C57.5 23.7 56.2 23.4 55.2 22.7L54.5 25.4C53.2 29.8 52.3 31.4 52.3 31.4C51.8 32.6 51.2 33.7 50.5 34.8C50 35.5 49.4 36.2 48.6 36.5C48.3 36.6 48 36.6 47.7 36.6C47.4 36.6 47.1 36.5 46.8 36.3C46.3 35.9 45.8 35.3 45.5 34.7C45.1 34 44.8 33.3 44.5 32.6C43.9 31.1 42.9 27.4 42.9 27.4L41.9 23.5L40.9 19.6L40.2 17C38.4 10.3 35.8 7 35.8 7C33.8 4.1 30.9 2 27.6 0.799998C23.8 -0.600002 19.8 0.199998 19.8 0.199998C13.5 1.4 10.2 5.7 8.79999 7.8C9.49999 8 10.1 8.2 10.7 8.6C11.5 9.1 12.2 9.7 12.7 10.4C13.6 11.7 13.9 13.4 14 15C14.4 18.5 15.1 21.9 16 25.3C18.1 18.2 20.7 14.9 20.7 14.9C21 14.5 21.3 14.2 21.7 14C21.9 13.9 22.1 13.8 22.4 13.8C22.8 13.8 23.3 13.9 23.6 14.1C23.7 14.1 23.7 14.2 23.8 14.2C24.1 14.5 24.4 14.8 24.7 15.2C25.2 16.2 25.7 17.1 26.1 18.2C26.9 20.4 27.6 23.2 27.6 23.2L29.6 31.2C31.1 36.7 32.3 39.3 32.3 39.3C35.4 46.4 40.1 48.4 40.1 48.4C42.4 49.6 45 50.3 47.6 50.4C50.1 50.5 52.6 50 54.8 48.9C57.2 47.7 59.4 45.9 61.1 43.8C62.2 42.5 63.9 39.3 63.9 39.3C65.8 35.6 67.2 31.7 68.2 27.7C68.9 25.2 69.4 22.7 69.8 20.1C70 18.8 70.2 17.6 70.3 16.3C70.5 15.1 70.5 13.9 70.2 12.7C70.1 12.5 70.1 12.3 70 12.1C69.4 10.6 68.3 9.4 66.9 8.6C65.9 7.9 64.7 7.6 63.5 7.6Z" fill="url(#paint24_radial_4_55)"/>
<path d="M63.5 7.6C62.9 7.6 62.3 7.7 61.8 7.8C63.1 9.7 64.2 11.7 65.1 13.8C65.5 14.7 65.7 15.7 65.7 16.7C65.7 17.6 65.5 18.5 65.2 19.4C64.8 20.2 64.3 21 63.7 21.7C63.1 22.4 62.3 22.9 61.4 23.2C60.6 23.5 59.6 23.7 58.7 23.7C57.5 23.7 56.2 23.4 55.2 22.7L54.5 25.4C53.2 29.8 52.3 31.4 52.3 31.4C51.8 32.6 51.2 33.7 50.5 34.8C50 35.5 49.4 36.2 48.6 36.5C48.3 36.6 48 36.6 47.7 36.6C47.4 36.6 47.1 36.5 46.8 36.3C46.3 35.9 45.8 35.3 45.5 34.7C45.1 34 44.8 33.3 44.5 32.6C43.9 31.1 42.9 27.4 42.9 27.4L41.9 23.5L40.9 19.6L40.2 17C38.4 10.3 35.8 7 35.8 7C33.8 4.1 30.9 2 27.6 0.799998C23.8 -0.600002 19.8 0.199998 19.8 0.199998C13.5 1.4 10.2 5.7 8.79999 7.8C9.49999 8 10.1 8.2 10.7 8.6C11.5 9.1 12.2 9.7 12.7 10.4C13.6 11.7 13.9 13.4 14 15C14.4 18.5 15.1 21.9 16 25.3C18.1 18.2 20.7 14.9 20.7 14.9C21 14.5 21.3 14.2 21.7 14C21.9 13.9 22.1 13.8 22.4 13.8C22.8 13.8 23.3 13.9 23.6 14.1C23.7 14.1 23.7 14.2 23.8 14.2C24.1 14.5 24.4 14.8 24.7 15.2C25.2 16.2 25.7 17.1 26.1 18.2C26.9 20.4 27.6 23.2 27.6 23.2L29.6 31.2C31.1 36.7 32.3 39.3 32.3 39.3C35.4 46.4 40.1 48.4 40.1 48.4C42.4 49.6 45 50.3 47.6 50.4C50.1 50.5 52.6 50 54.8 48.9C57.2 47.7 59.4 45.9 61.1 43.8C62.2 42.5 63.9 39.3 63.9 39.3C65.8 35.6 67.2 31.7 68.2 27.7C68.9 25.2 69.4 22.7 69.8 20.1C70 18.8 70.2 17.6 70.3 16.3C70.5 15.1 70.5 13.9 70.2 12.7C70.1 12.5 70.1 12.3 70 12.1C69.4 10.6 68.3 9.4 66.9 8.6C65.9 7.9 64.7 7.6 63.5 7.6Z" fill="url(#paint25_radial_4_55)"/>
<path d="M63.5 7.6C62.9 7.6 62.3 7.7 61.8 7.8C63.1 9.7 64.2 11.7 65.1 13.8C65.5 14.7 65.7 15.7 65.7 16.7C65.7 17.6 65.5 18.5 65.2 19.4C64.8 20.2 64.3 21 63.7 21.7C63.1 22.4 62.3 22.9 61.4 23.2C60.6 23.5 59.6 23.7 58.7 23.7C57.5 23.7 56.2 23.4 55.2 22.7L54.5 25.4C53.2 29.8 52.3 31.4 52.3 31.4C51.8 32.6 51.2 33.7 50.5 34.8C50 35.5 49.4 36.2 48.6 36.5C48.3 36.6 48 36.6 47.7 36.6C47.4 36.6 47.1 36.5 46.8 36.3C46.3 35.9 45.8 35.3 45.5 34.7C45.1 34 44.8 33.3 44.5 32.6C43.9 31.1 42.9 27.4 42.9 27.4L41.9 23.5L40.9 19.6L40.2 17C38.4 10.3 35.8 7 35.8 7C33.8 4.1 30.9 2 27.6 0.799998C23.8 -0.600002 19.8 0.199998 19.8 0.199998C13.5 1.4 10.2 5.7 8.79999 7.8C9.49999 8 10.1 8.2 10.7 8.6C11.5 9.1 12.2 9.7 12.7 10.4C13.6 11.7 13.9 13.4 14 15C14.4 18.5 15.1 21.9 16 25.3C18.1 18.2 20.7 14.9 20.7 14.9C21 14.5 21.3 14.2 21.7 14C21.9 13.9 22.1 13.8 22.4 13.8C22.8 13.8 23.3 13.9 23.6 14.1C23.7 14.1 23.7 14.2 23.8 14.2C24.1 14.5 24.4 14.8 24.7 15.2C25.2 16.2 25.7 17.1 26.1 18.2C26.9 20.4 27.6 23.2 27.6 23.2L29.6 31.2C31.1 36.7 32.3 39.3 32.3 39.3C35.4 46.4 40.1 48.4 40.1 48.4C42.4 49.6 45 50.3 47.6 50.4C50.1 50.5 52.6 50 54.8 48.9C57.2 47.7 59.4 45.9 61.1 43.8C62.2 42.5 63.9 39.3 63.9 39.3C65.8 35.6 67.2 31.7 68.2 27.7C68.9 25.2 69.4 22.7 69.8 20.1C70 18.8 70.2 17.6 70.3 16.3C70.5 15.1 70.5 13.9 70.2 12.7C70.1 12.5 70.1 12.3 70 12.1C69.4 10.6 68.3 9.4 66.9 8.6C65.9 7.9 64.7 7.6 63.5 7.6Z" fill="url(#paint26_radial_4_55)"/>
<path d="M63.5 7.6C62.9 7.6 62.3 7.7 61.8 7.8C63.1 9.7 64.2 11.7 65.1 13.8C65.5 14.7 65.7 15.7 65.7 16.7C65.7 17.6 65.5 18.5 65.2 19.4C64.8 20.2 64.3 21 63.7 21.7C63.1 22.4 62.3 22.9 61.4 23.2C60.6 23.5 59.6 23.7 58.7 23.7C57.5 23.7 56.2 23.4 55.2 22.7L54.5 25.4C53.2 29.8 52.3 31.4 52.3 31.4C51.8 32.6 51.2 33.7 50.5 34.8C50 35.5 49.4 36.2 48.6 36.5C48.3 36.6 48 36.6 47.7 36.6C47.4 36.6 47.1 36.5 46.8 36.3C46.3 35.9 45.8 35.3 45.5 34.7C45.1 34 44.8 33.3 44.5 32.6C43.9 31.1 42.9 27.4 42.9 27.4L41.9 23.5L40.9 19.6L40.2 17C38.4 10.3 35.8 7 35.8 7C33.8 4.1 30.9 2 27.6 0.799998C23.8 -0.600002 19.8 0.199998 19.8 0.199998C13.5 1.4 10.2 5.7 8.79999 7.8C9.49999 8 10.1 8.2 10.7 8.6C11.5 9.1 12.2 9.7 12.7 10.4C13.6 11.7 13.9 13.4 14 15C14.4 18.5 15.1 21.9 16 25.3C18.1 18.2 20.7 14.9 20.7 14.9C21 14.5 21.3 14.2 21.7 14C21.9 13.9 22.1 13.8 22.4 13.8C22.8 13.8 23.3 13.9 23.6 14.1C23.7 14.1 23.7 14.2 23.8 14.2C24.1 14.5 24.4 14.8 24.7 15.2C25.2 16.2 25.7 17.1 26.1 18.2C26.9 20.4 27.6 23.2 27.6 23.2L29.6 31.2C31.1 36.7 32.3 39.3 32.3 39.3C35.4 46.4 40.1 48.4 40.1 48.4C42.4 49.6 45 50.3 47.6 50.4C50.1 50.5 52.6 50 54.8 48.9C57.2 47.7 59.4 45.9 61.1 43.8C62.2 42.5 63.9 39.3 63.9 39.3C65.8 35.6 67.2 31.7 68.2 27.7C68.9 25.2 69.4 22.7 69.8 20.1C70 18.8 70.2 17.6 70.3 16.3C70.5 15.1 70.5 13.9 70.2 12.7C70.1 12.5 70.1 12.3 70 12.1C69.4 10.6 68.3 9.4 66.9 8.6C65.9 7.9 64.7 7.6 63.5 7.6Z" fill="url(#paint27_radial_4_55)"/>
<path d="M63.5 7.6C62.9 7.6 62.3 7.7 61.8 7.8C63.1 9.7 64.2 11.7 65.1 13.8C65.5 14.7 65.7 15.7 65.7 16.7C65.7 17.6 65.5 18.5 65.2 19.4C64.8 20.2 64.3 21 63.7 21.7C63.1 22.4 62.3 22.9 61.4 23.2C60.6 23.5 59.6 23.7 58.7 23.7C57.5 23.7 56.2 23.4 55.2 22.7L54.5 25.4C53.2 29.8 52.3 31.4 52.3 31.4C51.8 32.6 51.2 33.7 50.5 34.8C50 35.5 49.4 36.2 48.6 36.5C48.3 36.6 48 36.6 47.7 36.6C47.4 36.6 47.1 36.5 46.8 36.3C46.3 35.9 45.8 35.3 45.5 34.7C45.1 34 44.8 33.3 44.5 32.6C43.9 31.1 42.9 27.4 42.9 27.4L41.9 23.5L40.9 19.6L40.2 17C38.4 10.3 35.8 7 35.8 7C33.8 4.1 30.9 2 27.6 0.799998C23.8 -0.600002 19.8 0.199998 19.8 0.199998C13.5 1.4 10.2 5.7 8.79999 7.8C9.49999 8 10.1 8.2 10.7 8.6C11.5 9.1 12.2 9.7 12.7 10.4C13.6 11.7 13.9 13.4 14 15C14.4 18.5 15.1 21.9 16 25.3C18.1 18.2 20.7 14.9 20.7 14.9C21 14.5 21.3 14.2 21.7 14C21.9 13.9 22.1 13.8 22.4 13.8C22.8 13.8 23.3 13.9 23.6 14.1C23.7 14.1 23.7 14.2 23.8 14.2C24.1 14.5 24.4 14.8 24.7 15.2C25.2 16.2 25.7 17.1 26.1 18.2C26.9 20.4 27.6 23.2 27.6 23.2L29.6 31.2C31.1 36.7 32.3 39.3 32.3 39.3C35.4 46.4 40.1 48.4 40.1 48.4C42.4 49.6 45 50.3 47.6 50.4C50.1 50.5 52.6 50 54.8 48.9C57.2 47.7 59.4 45.9 61.1 43.8C62.2 42.5 63.9 39.3 63.9 39.3C65.8 35.6 67.2 31.7 68.2 27.7C68.9 25.2 69.4 22.7 69.8 20.1C70 18.8 70.2 17.6 70.3 16.3C70.5 15.1 70.5 13.9 70.2 12.7C70.1 12.5 70.1 12.3 70 12.1C69.4 10.6 68.3 9.4 66.9 8.6C65.9 7.9 64.7 7.6 63.5 7.6Z" fill="url(#paint28_radial_4_55)"/>
<path d="M63.5 7.6C62.9 7.6 62.3 7.7 61.8 7.8C63.1 9.7 64.2 11.7 65.1 13.8C65.5 14.7 65.7 15.7 65.7 16.7C65.7 17.6 65.5 18.5 65.2 19.4C64.8 20.2 64.3 21 63.7 21.7C63.1 22.4 62.3 22.9 61.4 23.2C60.6 23.5 59.6 23.7 58.7 23.7C57.5 23.7 56.2 23.4 55.2 22.7L54.5 25.4C53.2 29.8 52.3 31.4 52.3 31.4C51.8 32.6 51.2 33.7 50.5 34.8C50 35.5 49.4 36.2 48.6 36.5C48.3 36.6 48 36.6 47.7 36.6C47.4 36.6 47.1 36.5 46.8 36.3C46.3 35.9 45.8 35.3 45.5 34.7C45.1 34 44.8 33.3 44.5 32.6C43.9 31.1 42.9 27.4 42.9 27.4L41.9 23.5L40.9 19.6L40.2 17C38.4 10.3 35.8 7 35.8 7C33.8 4.1 30.9 2 27.6 0.799998C23.8 -0.600002 19.8 0.199998 19.8 0.199998C13.5 1.4 10.2 5.7 8.79999 7.8C9.49999 8 10.1 8.2 10.7 8.6C11.5 9.1 12.2 9.7 12.7 10.4C13.6 11.7 13.9 13.4 14 15C14.4 18.5 15.1 21.9 16 25.3C18.1 18.2 20.7 14.9 20.7 14.9C21 14.5 21.3 14.2 21.7 14C21.9 13.9 22.1 13.8 22.4 13.8C22.8 13.8 23.3 13.9 23.6 14.1C23.7 14.1 23.7 14.2 23.8 14.2C24.1 14.5 24.4 14.8 24.7 15.2C25.2 16.2 25.7 17.1 26.1 18.2C26.9 20.4 27.6 23.2 27.6 23.2L29.6 31.2C31.1 36.7 32.3 39.3 32.3 39.3C35.4 46.4 40.1 48.4 40.1 48.4C42.4 49.6 45 50.3 47.6 50.4C50.1 50.5 52.6 50 54.8 48.9C57.2 47.7 59.4 45.9 61.1 43.8C62.2 42.5 63.9 39.3 63.9 39.3C65.8 35.6 67.2 31.7 68.2 27.7C68.9 25.2 69.4 22.7 69.8 20.1C70 18.8 70.2 17.6 70.3 16.3C70.5 15.1 70.5 13.9 70.2 12.7C70.1 12.5 70.1 12.3 70 12.1C69.4 10.6 68.3 9.4 66.9 8.6C65.9 7.9 64.7 7.6 63.5 7.6Z" fill="url(#paint29_radial_4_55)"/>
<path d="M63.5 7.6C62.9 7.6 62.3 7.7 61.8 7.8C63.1 9.7 64.2 11.7 65.1 13.8C65.5 14.7 65.7 15.7 65.7 16.7C65.7 17.6 65.5 18.5 65.2 19.4C64.8 20.2 64.3 21 63.7 21.7C63.1 22.4 62.3 22.9 61.4 23.2C60.6 23.5 59.6 23.7 58.7 23.7C57.5 23.7 56.2 23.4 55.2 22.7L54.5 25.4C53.2 29.8 52.3 31.4 52.3 31.4C51.8 32.6 51.2 33.7 50.5 34.8C50 35.5 49.4 36.2 48.6 36.5C48.3 36.6 48 36.6 47.7 36.6C47.4 36.6 47.1 36.5 46.8 36.3C46.3 35.9 45.8 35.3 45.5 34.7C45.1 34 44.8 33.3 44.5 32.6C43.9 31.1 42.9 27.4 42.9 27.4L41.9 23.5L40.9 19.6L40.2 17C38.4 10.3 35.8 7 35.8 7C33.8 4.1 30.9 2 27.6 0.799998C23.8 -0.600002 19.8 0.199998 19.8 0.199998C13.5 1.4 10.2 5.7 8.79999 7.8C9.49999 8 10.1 8.2 10.7 8.6C11.5 9.1 12.2 9.7 12.7 10.4C13.6 11.7 13.9 13.4 14 15C14.4 18.5 15.1 21.9 16 25.3C18.1 18.2 20.7 14.9 20.7 14.9C21 14.5 21.3 14.2 21.7 14C21.9 13.9 22.1 13.8 22.4 13.8C22.8 13.8 23.3 13.9 23.6 14.1C23.7 14.1 23.7 14.2 23.8 14.2C24.1 14.5 24.4 14.8 24.7 15.2C25.2 16.2 25.7 17.1 26.1 18.2C26.9 20.4 27.6 23.2 27.6 23.2L29.6 31.2C31.1 36.7 32.3 39.3 32.3 39.3C35.4 46.4 40.1 48.4 40.1 48.4C42.4 49.6 45 50.3 47.6 50.4C50.1 50.5 52.6 50 54.8 48.9C57.2 47.7 59.4 45.9 61.1 43.8C62.2 42.5 63.9 39.3 63.9 39.3C65.8 35.6 67.2 31.7 68.2 27.7C68.9 25.2 69.4 22.7 69.8 20.1C70 18.8 70.2 17.6 70.3 16.3C70.5 15.1 70.5 13.9 70.2 12.7C70.1 12.5 70.1 12.3 70 12.1C69.4 10.6 68.3 9.4 66.9 8.6C65.9 7.9 64.7 7.6 63.5 7.6Z" fill="url(#paint30_radial_4_55)"/>
<path d="M63.5 7.6C62.9 7.6 62.3 7.7 61.8 7.8C63.1 9.7 64.2 11.7 65.1 13.8C65.5 14.7 65.7 15.7 65.7 16.7C65.7 17.6 65.5 18.5 65.2 19.4C64.8 20.2 64.3 21 63.7 21.7C63.1 22.4 62.3 22.9 61.4 23.2C60.6 23.5 59.6 23.7 58.7 23.7C57.5 23.7 56.2 23.4 55.2 22.7L54.5 25.4C53.2 29.8 52.3 31.4 52.3 31.4C51.8 32.6 51.2 33.7 50.5 34.8C50 35.5 49.4 36.2 48.6 36.5C48.3 36.6 48 36.6 47.7 36.6C47.4 36.6 47.1 36.5 46.8 36.3C46.3 35.9 45.8 35.3 45.5 34.7C45.1 34 44.8 33.3 44.5 32.6C43.9 31.1 42.9 27.4 42.9 27.4L41.9 23.5L40.9 19.6L40.2 17C38.4 10.3 35.8 7 35.8 7C33.8 4.1 30.9 2 27.6 0.799998C23.8 -0.600002 19.8 0.199998 19.8 0.199998C13.5 1.4 10.2 5.7 8.79999 7.8C9.49999 8 10.1 8.2 10.7 8.6C11.5 9.1 12.2 9.7 12.7 10.4C13.6 11.7 13.9 13.4 14 15C14.4 18.5 15.1 21.9 16 25.3C18.1 18.2 20.7 14.9 20.7 14.9C21 14.5 21.3 14.2 21.7 14C21.9 13.9 22.1 13.8 22.4 13.8C22.8 13.8 23.3 13.9 23.6 14.1C23.7 14.1 23.7 14.2 23.8 14.2C24.1 14.5 24.4 14.8 24.7 15.2C25.2 16.2 25.7 17.1 26.1 18.2C26.9 20.4 27.6 23.2 27.6 23.2L29.6 31.2C31.1 36.7 32.3 39.3 32.3 39.3C35.4 46.4 40.1 48.4 40.1 48.4C42.4 49.6 45 50.3 47.6 50.4C50.1 50.5 52.6 50 54.8 48.9C57.2 47.7 59.4 45.9 61.1 43.8C62.2 42.5 63.9 39.3 63.9 39.3C65.8 35.6 67.2 31.7 68.2 27.7C68.9 25.2 69.4 22.7 69.8 20.1C70 18.8 70.2 17.6 70.3 16.3C70.5 15.1 70.5 13.9 70.2 12.7C70.1 12.5 70.1 12.3 70 12.1C69.4 10.6 68.3 9.4 66.9 8.6C65.9 7.9 64.7 7.6 63.5 7.6Z" fill="url(#paint31_radial_4_55)"/>
<path d="M63.5 7.6C62.9 7.6 62.3 7.7 61.8 7.8C63.1 9.7 64.2 11.7 65.1 13.8C65.5 14.7 65.7 15.7 65.7 16.7C65.7 17.6 65.5 18.5 65.2 19.4C64.8 20.2 64.3 21 63.7 21.7C63.1 22.4 62.3 22.9 61.4 23.2C60.6 23.5 59.6 23.7 58.7 23.7C57.5 23.7 56.2 23.4 55.2 22.7L54.5 25.4C53.2 29.8 52.3 31.4 52.3 31.4C51.8 32.6 51.2 33.7 50.5 34.8C50 35.5 49.4 36.2 48.6 36.5C48.3 36.6 48 36.6 47.7 36.6C47.4 36.6 47.1 36.5 46.8 36.3C46.3 35.9 45.8 35.3 45.5 34.7C45.1 34 44.8 33.3 44.5 32.6C43.9 31.1 42.9 27.4 42.9 27.4L41.9 23.5L40.9 19.6L40.2 17C38.4 10.3 35.8 7 35.8 7C33.8 4.1 30.9 2 27.6 0.799998C23.8 -0.600002 19.8 0.199998 19.8 0.199998C13.5 1.4 10.2 5.7 8.79999 7.8C9.49999 8 10.1 8.2 10.7 8.6C11.5 9.1 12.2 9.7 12.7 10.4C13.6 11.7 13.9 13.4 14 15C14.4 18.5 15.1 21.9 16 25.3C18.1 18.2 20.7 14.9 20.7 14.9C21 14.5 21.3 14.2 21.7 14C21.9 13.9 22.1 13.8 22.4 13.8C22.8 13.8 23.3 13.9 23.6 14.1C23.7 14.1 23.7 14.2 23.8 14.2C24.1 14.5 24.4 14.8 24.7 15.2C25.2 16.2 25.7 17.1 26.1 18.2C26.9 20.4 27.6 23.2 27.6 23.2L29.6 31.2C31.1 36.7 32.3 39.3 32.3 39.3C35.4 46.4 40.1 48.4 40.1 48.4C42.4 49.6 45 50.3 47.6 50.4C50.1 50.5 52.6 50 54.8 48.9C57.2 47.7 59.4 45.9 61.1 43.8C62.2 42.5 63.9 39.3 63.9 39.3C65.8 35.6 67.2 31.7 68.2 27.7C68.9 25.2 69.4 22.7 69.8 20.1C70 18.8 70.2 17.6 70.3 16.3C70.5 15.1 70.5 13.9 70.2 12.7C70.1 12.5 70.1 12.3 70 12.1C69.4 10.6 68.3 9.4 66.9 8.6C65.9 7.9 64.7 7.6 63.5 7.6Z" fill="url(#paint32_radial_4_55)"/>
<path d="M63.5 7.6C62.9 7.6 62.3 7.7 61.8 7.8C63.1 9.7 64.2 11.7 65.1 13.8C65.5 14.7 65.7 15.7 65.7 16.7C65.7 17.6 65.5 18.5 65.2 19.4C64.8 20.2 64.3 21 63.7 21.7C63.1 22.4 62.3 22.9 61.4 23.2C60.6 23.5 59.6 23.7 58.7 23.7C57.5 23.7 56.2 23.4 55.2 22.7L54.5 25.4C53.2 29.8 52.3 31.4 52.3 31.4C51.8 32.6 51.2 33.7 50.5 34.8C50 35.5 49.4 36.2 48.6 36.5C48.3 36.6 48 36.6 47.7 36.6C47.4 36.6 47.1 36.5 46.8 36.3C46.3 35.9 45.8 35.3 45.5 34.7C45.1 34 44.8 33.3 44.5 32.6C43.9 31.1 42.9 27.4 42.9 27.4L41.9 23.5L40.9 19.6L40.2 17C38.4 10.3 35.8 7 35.8 7C33.8 4.1 30.9 2 27.6 0.799998C23.8 -0.600002 19.8 0.199998 19.8 0.199998C13.5 1.4 10.2 5.7 8.79999 7.8C9.49999 8 10.1 8.2 10.7 8.6C11.5 9.1 12.2 9.7 12.7 10.4C13.6 11.7 13.9 13.4 14 15C14.4 18.5 15.1 21.9 16 25.3C18.1 18.2 20.7 14.9 20.7 14.9C21 14.5 21.3 14.2 21.7 14C21.9 13.9 22.1 13.8 22.4 13.8C22.8 13.8 23.3 13.9 23.6 14.1C23.7 14.1 23.7 14.2 23.8 14.2C24.1 14.5 24.4 14.8 24.7 15.2C25.2 16.2 25.7 17.1 26.1 18.2C26.9 20.4 27.6 23.2 27.6 23.2L29.6 31.2C31.1 36.7 32.3 39.3 32.3 39.3C35.4 46.4 40.1 48.4 40.1 48.4C42.4 49.6 45 50.3 47.6 50.4C50.1 50.5 52.6 50 54.8 48.9C57.2 47.7 59.4 45.9 61.1 43.8C62.2 42.5 63.9 39.3 63.9 39.3C65.8 35.6 67.2 31.7 68.2 27.7C68.9 25.2 69.4 22.7 69.8 20.1C70 18.8 70.2 17.6 70.3 16.3C70.5 15.1 70.5 13.9 70.2 12.7C70.1 12.5 70.1 12.3 70 12.1C69.4 10.6 68.3 9.4 66.9 8.6C65.9 7.9 64.7 7.6 63.5 7.6Z" fill="url(#paint33_radial_4_55)"/>
<path d="M63.5 7.6C62.9 7.6 62.3 7.7 61.8 7.8C63.1 9.7 64.2 11.7 65.1 13.8C65.5 14.7 65.7 15.7 65.7 16.7C65.7 17.6 65.5 18.5 65.2 19.4C64.8 20.2 64.3 21 63.7 21.7C63.1 22.4 62.3 22.9 61.4 23.2C60.6 23.5 59.6 23.7 58.7 23.7C57.5 23.7 56.2 23.4 55.2 22.7L54.5 25.4C53.2 29.8 52.3 31.4 52.3 31.4C51.8 32.6 51.2 33.7 50.5 34.8C50 35.5 49.4 36.2 48.6 36.5C48.3 36.6 48 36.6 47.7 36.6C47.4 36.6 47.1 36.5 46.8 36.3C46.3 35.9 45.8 35.3 45.5 34.7C45.1 34 44.8 33.3 44.5 32.6C43.9 31.1 42.9 27.4 42.9 27.4L41.9 23.5L40.9 19.6L40.2 17C38.4 10.3 35.8 7 35.8 7C33.8 4.1 30.9 2 27.6 0.799998C23.8 -0.600002 19.8 0.199998 19.8 0.199998C13.5 1.4 10.2 5.7 8.79999 7.8C9.49999 8 10.1 8.2 10.7 8.6C11.5 9.1 12.2 9.7 12.7 10.4C13.6 11.7 13.9 13.4 14 15C14.4 18.5 15.1 21.9 16 25.3C18.1 18.2 20.7 14.9 20.7 14.9C21 14.5 21.3 14.2 21.7 14C21.9 13.9 22.1 13.8 22.4 13.8C22.8 13.8 23.3 13.9 23.6 14.1C23.7 14.1 23.7 14.2 23.8 14.2C24.1 14.5 24.4 14.8 24.7 15.2C25.2 16.2 25.7 17.1 26.1 18.2C26.9 20.4 27.6 23.2 27.6 23.2L29.6 31.2C31.1 36.7 32.3 39.3 32.3 39.3C35.4 46.4 40.1 48.4 40.1 48.4C42.4 49.6 45 50.3 47.6 50.4C50.1 50.5 52.6 50 54.8 48.9C57.2 47.7 59.4 45.9 61.1 43.8C62.2 42.5 63.9 39.3 63.9 39.3C65.8 35.6 67.2 31.7 68.2 27.7C68.9 25.2 69.4 22.7 69.8 20.1C70 18.8 70.2 17.6 70.3 16.3C70.5 15.1 70.5 13.9 70.2 12.7C70.1 12.5 70.1 12.3 70 12.1C69.4 10.6 68.3 9.4 66.9 8.6C65.9 7.9 64.7 7.6 63.5 7.6Z" fill="url(#paint34_linear_4_55)"/>
</g>
<defs>
<linearGradient id="paint0_linear_4_55" x1="3.1695" y1="34.0718" x2="57.9895" y2="11.9129" gradientUnits="userSpaceOnUse">
<stop offset="0.13" stop-color="#1CBBF3"/>
<stop offset="0.34" stop-color="#1F99A5"/>
<stop offset="0.45" stop-color="#209CA6"/>
<stop offset="0.51" stop-color="#24A4AA"/>
<stop offset="0.57" stop-color="#2BB3B0"/>
<stop offset="0.6" stop-color="#30BDB4"/>
<stop offset="0.79" stop-color="#38BA90"/>
<stop offset="1" stop-color="#60F05A"/>
</linearGradient>
<radialGradient id="paint1_radial_4_55" cx="0" cy="0" r="1" gradientUnits="userSpaceOnUse" gradientTransform="translate(39.7036 21.0279) rotate(74.3201) scale(26.2008 19.9126)">
<stop stop-color="#227B60"/>
<stop offset="0.14" stop-color="#227B60" stop-opacity="0.81"/>
<stop offset="0.58" stop-color="#227B60" stop-opacity="0.23"/>
<stop offset="0.78" stop-color="#227B60" stop-opacity="0"/>
</radialGradient>
<radialGradient id="paint2_radial_4_55" cx="0" cy="0" r="1" gradientUnits="userSpaceOnUse" gradientTransform="translate(43.6139 19.1437) rotate(91.1458) scale(17.7173 13.4633)">
<stop stop-color="#227B60"/>
<stop offset="0.25" stop-color="#227B60" stop-opacity="0.7"/>
<stop offset="0.71" stop-color="#227B60" stop-opacity="0.2"/>
<stop offset="0.92" stop-color="#227B60" stop-opacity="0"/>
</radialGradient>
<radialGradient id="paint3_radial_4_55" cx="0" cy="0" r="1" gradientUnits="userSpaceOnUse" gradientTransform="translate(42.774 19.8793) rotate(88.6) scale(16.5156 11.726)">
<stop stop-color="#227B60"/>
<stop offset="0.07" stop-color="#227B60" stop-opacity="0.9"/>
<stop offset="0.34" stop-color="#227B60" stop-opacity="0.51"/>
<stop offset="0.59" stop-color="#227B60" stop-opacity="0.23"/>
<stop offset="0.79" stop-color="#227B60" stop-opacity="0.06"/>
<stop offset="0.92" stop-color="#227B60" stop-opacity="0"/>
</radialGradient>
<radialGradient id="paint4_radial_4_55" cx="0" cy="0" r="1" gradientUnits="userSpaceOnUse" gradientTransform="translate(43.0585 19.1395) rotate(88.6) scale(13.3352 9.46803)">
<stop stop-color="#227B60"/>
<stop offset="0.36" stop-color="#227B60" stop-opacity="0.63"/>
<stop offset="0.92" stop-color="#227B60" stop-opacity="0"/>
</radialGradient>
<radialGradient id="paint5_radial_4_55" cx="0" cy="0" r="1" gradientUnits="userSpaceOnUse" gradientTransform="translate(43.6346 19.8783) rotate(88.5997) scale(10.6356 6.80683)">
<stop stop-color="#20735A"/>
<stop offset="0.15" stop-color="#20745A" stop-opacity="0.93"/>
<stop offset="0.38" stop-color="#21755C" stop-opacity="0.74"/>
<stop offset="0.67" stop-color="#21785D" stop-opacity="0.43"/>
<stop offset="1" stop-color="#227B60" stop-opacity="0"/>
</radialGradient>
<radialGradient id="paint6_radial_4_55" cx="0" cy="0" r="1" gradientUnits="userSpaceOnUse" gradientTransform="translate(45.0552 21.5999) rotate(23.7999) scale(17.1146 12.836)">
<stop stop-color="#227A61"/>
<stop offset="0.36" stop-color="#227A61" stop-opacity="0.56"/>
<stop offset="0.72" stop-color="#227A61" stop-opacity="0.16"/>
<stop offset="0.9" stop-color="#227A61" stop-opacity="0"/>
</radialGradient>
<radialGradient id="paint7_radial_4_55" cx="0" cy="0" r="1" gradientUnits="userSpaceOnUse" gradientTransform="translate(39.1617 -6.21155) rotate(35.2724) scale(22.8244 20.8697)">
<stop stop-color="#3CD9C3"/>
<stop offset="0.07" stop-color="#3BD7C1" stop-opacity="0.9"/>
<stop offset="0.41" stop-color="#38CEB9" stop-opacity="0.42"/>
<stop offset="0.65" stop-color="#36C8B4" stop-opacity="0.12"/>
<stop offset="0.76" stop-color="#35C6B2" stop-opacity="0"/>
</radialGradient>
<radialGradient id="paint8_radial_4_55" cx="0" cy="0" r="1" gradientUnits="userSpaceOnUse" gradientTransform="translate(-37429.2 -50860.8) rotate(35.2724) scale(4054.98 2845.58)">
<stop stop-color="#3CD9C3"/>
<stop offset="0.07" stop-color="#3BD7C1" stop-opacity="0.9"/>
<stop offset="0.41" stop-color="#38CEB9" stop-opacity="0.42"/>
<stop offset="0.65" stop-color="#36C8B4" stop-opacity="0.12"/>
<stop offset="0.76" stop-color="#35C6B2" stop-opacity="0"/>
</radialGradient>
<radialGradient id="paint9_radial_4_55" cx="0" cy="0" r="1" gradientUnits="userSpaceOnUse" gradientTransform="translate(48.3131 25.9576) rotate(100.972) scale(20.1302 24.8754)">
<stop stop-color="#237F66" stop-opacity="0.8"/>
<stop offset="0.06" stop-color="#2C8C70" stop-opacity="0.65"/>
<stop offset="0.21" stop-color="#3DA785" stop-opacity="0.37"/>
<stop offset="0.35" stop-color="#4ABA93" stop-opacity="0.17"/>
<stop offset="0.47" stop-color="#51C59C" stop-opacity="0.04"/>
<stop offset="0.56" stop-color="#54C99F" stop-opacity="0"/>
</radialGradient>
<radialGradient id="paint10_radial_4_55" cx="0" cy="0" r="1" gradientUnits="userSpaceOnUse" gradientTransform="translate(37.148 26.9549) rotate(-50.82) scale(26.3043 28.4086)">
<stop stop-color="#167C8A"/>
<stop offset="0.04" stop-color="#167C8A" stop-opacity="0.93"/>
<stop offset="0.33" stop-color="#177F8D" stop-opacity="0.43"/>
<stop offset="0.54" stop-color="#17818F" stop-opacity="0.12"/>
<stop offset="0.65" stop-color="#178290" stop-opacity="0"/>
</radialGradient>
<radialGradient id="paint11_radial_4_55" cx="0" cy="0" r="1" gradientUnits="userSpaceOnUse" gradientTransform="translate(35.5516 29.5728) rotate(-31.6599) scale(25.6609 20.2721)">
<stop offset="0.05" stop-color="#177D87"/>
<stop offset="0.11" stop-color="#177E89" stop-opacity="0.8"/>
<stop offset="0.21" stop-color="#177F8B" stop-opacity="0.52"/>
<stop offset="0.32" stop-color="#17818D" stop-opacity="0.29"/>
<stop offset="0.42" stop-color="#17818F" stop-opacity="0.13"/>
<stop offset="0.51" stop-color="#178290" stop-opacity="0.03"/>
<stop offset="0.6" stop-color="#178290" stop-opacity="0"/>
</radialGradient>
<radialGradient id="paint12_radial_4_55" cx="0" cy="0" r="1" gradientUnits="userSpaceOnUse" gradientTransform="translate(30.2231 29.2494) rotate(-130.539) scale(15.2886 12.0385)">
<stop offset="0.26" stop-color="#177F8A"/>
<stop offset="0.27" stop-color="#177F8A" stop-opacity="0.98"/>
<stop offset="0.38" stop-color="#17808C" stop-opacity="0.68"/>
<stop offset="0.5" stop-color="#17818D" stop-opacity="0.43"/>
<stop offset="0.62" stop-color="#17818F" stop-opacity="0.24"/>
<stop offset="0.74" stop-color="#17828F" stop-opacity="0.11"/>
<stop offset="0.86" stop-color="#178290" stop-opacity="0.03"/>
<stop offset="1" stop-color="#178290" stop-opacity="0"/>
</radialGradient>
<radialGradient id="paint13_radial_4_55" cx="0" cy="0" r="1" gradientUnits="userSpaceOnUse" gradientTransform="translate(26.4759 33.7651) rotate(-173.11) scale(14.3411)">
<stop stop-color="#13656E"/>
<stop offset="0.11" stop-color="#13646E" stop-opacity="0.73"/>
<stop offset="0.27" stop-color="#12646E" stop-opacity="0.41"/>
<stop offset="0.42" stop-color="#12636E" stop-opacity="0.18"/>
<stop offset="0.55" stop-color="#12636E" stop-opacity="0.05"/>
<stop offset="0.66" stop-color="#12636E" stop-opacity="0"/>
</radialGradient>
<radialGradient id="paint14_radial_4_55" cx="0" cy="0" r="1" gradientUnits="userSpaceOnUse" gradientTransform="translate(26.1051 35.9443) rotate(-119.32) scale(10.0292 8.42451)">
<stop offset="0.13" stop-color="#146A73"/>
<stop offset="0.24" stop-color="#156F79" stop-opacity="0.79"/>
<stop offset="0.45" stop-color="#167783" stop-opacity="0.45"/>
<stop offset="0.65" stop-color="#167D8A" stop-opacity="0.2"/>
<stop offset="0.82" stop-color="#17818E" stop-opacity="0.05"/>
<stop offset="0.95" stop-color="#178290" stop-opacity="0"/>
</radialGradient>
<radialGradient id="paint15_radial_4_55" cx="0" cy="0" r="1" gradientUnits="userSpaceOnUse" gradientTransform="translate(23.8686 31.3791) rotate(-55.9924) scale(9.43443 7.47414)">
<stop stop-color="#198E9C"/>
<stop offset="0.1" stop-color="#198E9C" stop-opacity="0.87"/>
<stop offset="0.41" stop-color="#198E9C" stop-opacity="0.5"/>
<stop offset="0.67" stop-color="#198E9C" stop-opacity="0.23"/>
<stop offset="0.88" stop-color="#198E9C" stop-opacity="0.06"/>
<stop offset="1" stop-color="#198E9C" stop-opacity="0"/>
</radialGradient>
<linearGradient id="paint16_linear_4_55" x1="6.6956" y1="-1.1452" x2="30.8846" y2="21.2392" gradientUnits="userSpaceOnUse">
<stop offset="0.13" stop-color="#2BF9FF"/>
<stop offset="0.27" stop-color="#29F9FF" stop-opacity="0.64"/>
<stop offset="0.4" stop-color="#27FAFF" stop-opacity="0.3"/>
<stop offset="0.49" stop-color="#26FAFF" stop-opacity="0.08"/>
<stop offset="0.54" stop-color="#26FAFF" stop-opacity="0"/>
</linearGradient>
<linearGradient id="paint17_linear_4_55" x1="-6.9979" y1="35.3802" x2="21.2553" y2="27.3702" gradientUnits="userSpaceOnUse">
<stop stop-color="#26FAFF"/>
<stop offset="0.06" stop-color="#26FAFF" stop-opacity="0.88"/>
<stop offset="0.24" stop-color="#26FAFF" stop-opacity="0.51"/>
<stop offset="0.39" stop-color="#26FAFF" stop-opacity="0.23"/>
<stop offset="0.5" stop-color="#26FAFF" stop-opacity="0.06"/>
<stop offset="0.55" stop-color="#26FAFF" stop-opacity="0"/>
</linearGradient>
<linearGradient id="paint18_linear_4_55" x1="0.487499" y1="34.3986" x2="32.3278" y2="23.0492" gradientUnits="userSpaceOnUse">
<stop stop-color="#21DEFF"/>
<stop offset="0.04" stop-color="#21DEFF" stop-opacity="0.88"/>
<stop offset="0.17" stop-color="#21DEFF" stop-opacity="0.51"/>
<stop offset="0.27" stop-color="#21DEFF" stop-opacity="0.23"/>
<stop offset="0.34" stop-color="#21DEFF" stop-opacity="0.06"/>
<stop offset="0.38" stop-color="#21DEFF" stop-opacity="0"/>
</linearGradient>
<linearGradient id="paint19_linear_4_55" x1="30.7434" y1="17.9737" x2="48.5533" y2="47.022" gradientUnits="userSpaceOnUse">
<stop offset="0.62" stop-color="#21DEFF" stop-opacity="0"/>
<stop offset="0.66" stop-color="#21DEFF" stop-opacity="0.06"/>
<stop offset="0.73" stop-color="#21DEFF" stop-opacity="0.23"/>
<stop offset="0.83" stop-color="#21DEFF" stop-opacity="0.51"/>
<stop offset="0.96" stop-color="#21DEFF" stop-opacity="0.88"/>
<stop offset="1" stop-color="#21DEFF"/>
</linearGradient>
<linearGradient id="paint20_linear_4_55" x1="50.5636" y1="28.8262" x2="47.7642" y2="15.162" gradientUnits="userSpaceOnUse">
<stop stop-color="#44B044"/>
<stop offset="0.11" stop-color="#44B044" stop-opacity="0.8"/>
<stop offset="0.27" stop-color="#44B044" stop-opacity="0.52"/>
<stop offset="0.43" stop-color="#44B044" stop-opacity="0.29"/>
<stop offset="0.58" stop-color="#44B044" stop-opacity="0.13"/>
<stop offset="0.7" stop-color="#44B044" stop-opacity="0.03"/>
<stop offset="0.8" stop-color="#44B044" stop-opacity="0"/>
</linearGradient>
<linearGradient id="paint21_linear_4_55" x1="11.4875" y1="14.6463" x2="70.4457" y2="34.1647" gradientUnits="userSpaceOnUse">
<stop stop-color="#3066FB"/>
<stop offset="0.38" stop-color="#2F64F7"/>
<stop offset="0.74" stop-color="#2857D9"/>
<stop offset="1" stop-color="#3C7EFF"/>
</linearGradient>
<radialGradient id="paint22_radial_4_55" cx="0" cy="0" r="1" gradientUnits="userSpaceOnUse" gradientTransform="translate(53.1272 23.5825) rotate(98.6901) scale(31.5297 20.8096)">
<stop stop-color="#1A3D9C"/>
<stop offset="0.4" stop-color="#1A3D9C" stop-opacity="0.42"/>
<stop offset="0.7" stop-color="#1A3D9C" stop-opacity="0"/>
</radialGradient>
<radialGradient id="paint23_radial_4_55" cx="0" cy="0" r="1" gradientUnits="userSpaceOnUse" gradientTransform="translate(19187.6 -49513.5) rotate(98.69) scale(3878.79 2091.41)">
<stop stop-color="#1A3D9C"/>
<stop offset="0.4" stop-color="#1A3D9C" stop-opacity="0.42"/>
<stop offset="0.7" stop-color="#1A3D9C" stop-opacity="0"/>
</radialGradient>
<radialGradient id="paint24_radial_4_55" cx="0" cy="0" r="1" gradientUnits="userSpaceOnUse" gradientTransform="translate(16847.5 -50282) rotate(98.6156) scale(4619.43 1908.39)">
<stop stop-color="#1A3D9C"/>
<stop offset="0.4" stop-color="#1A3D9C" stop-opacity="0.42"/>
<stop offset="0.7" stop-color="#1A3D9C" stop-opacity="0"/>
</radialGradient>
<radialGradient id="paint25_radial_4_55" cx="0" cy="0" r="1" gradientUnits="userSpaceOnUse" gradientTransform="translate(49.1885 22.3977) rotate(83.0887) scale(27.5595 19.2293)">
<stop stop-color="#1A3D9C"/>
<stop offset="0.16" stop-color="#1A3D9C" stop-opacity="0.69"/>
<stop offset="0.33" stop-color="#1A3D9C" stop-opacity="0.4"/>
<stop offset="0.49" stop-color="#1A3D9C" stop-opacity="0.18"/>
<stop offset="0.61" stop-color="#1A3D9C" stop-opacity="0.05"/>
<stop offset="0.7" stop-color="#1A3D9C" stop-opacity="0"/>
</radialGradient>
<radialGradient id="paint26_radial_4_55" cx="0" cy="0" r="1" gradientUnits="userSpaceOnUse" gradientTransform="translate(54.1601 26.599) rotate(74.6399) scale(26.4856 18.0102)">
<stop stop-color="#18388F"/>
<stop offset="0.37" stop-color="#193B96" stop-opacity="0.45"/>
<stop offset="0.7" stop-color="#1A3D9C" stop-opacity="0"/>
</radialGradient>
<radialGradient id="paint27_radial_4_55" cx="0" cy="0" r="1" gradientUnits="userSpaceOnUse" gradientTransform="translate(51.5141 33.6759) rotate(74.6401) scale(12.3146 11.6988)">
<stop stop-color="#18388F"/>
<stop offset="0.09" stop-color="#183992" stop-opacity="0.78"/>
<stop offset="0.22" stop-color="#193B96" stop-opacity="0.5"/>
<stop offset="0.35" stop-color="#193C98" stop-opacity="0.28"/>
<stop offset="0.47" stop-color="#1A3C9A" stop-opacity="0.13"/>
<stop offset="0.59" stop-color="#1A3D9C" stop-opacity="0.03"/>
<stop offset="0.7" stop-color="#1A3D9C" stop-opacity="0"/>
</radialGradient>
<radialGradient id="paint28_radial_4_55" cx="0" cy="0" r="1" gradientUnits="userSpaceOnUse" gradientTransform="translate(51.8095 35.7766) rotate(74.6401) scale(12.3146 11.6988)">
<stop stop-color="#1A3D9C" stop-opacity="0.8"/>
<stop offset="0.01" stop-color="#1A3D9C" stop-opacity="0.78"/>
<stop offset="0.24" stop-color="#1A3D9C" stop-opacity="0.45"/>
<stop offset="0.44" stop-color="#1A3D9C" stop-opacity="0.2"/>
<stop offset="0.6" stop-color="#1A3D9C" stop-opacity="0.05"/>
<stop offset="0.7" stop-color="#1A3D9C" stop-opacity="0"/>
</radialGradient>
<radialGradient id="paint29_radial_4_55" cx="0" cy="0" r="1" gradientUnits="userSpaceOnUse" gradientTransform="translate(21.3183 28.238) rotate(67.0272) scale(29.3886 19.5022)">
<stop stop-color="#1A3D9C"/>
<stop offset="0.4" stop-color="#1A3D9C" stop-opacity="0.56"/>
<stop offset="0.48" stop-color="#1A3D9C" stop-opacity="0.43"/>
<stop offset="0.69" stop-color="#1A3D9C" stop-opacity="0.12"/>
<stop offset="0.79" stop-color="#1A3D9C" stop-opacity="0"/>
</radialGradient>
<radialGradient id="paint30_radial_4_55" cx="0" cy="0" r="1" gradientUnits="userSpaceOnUse" gradientTransform="translate(19.4472 21.5834) rotate(76.1027) scale(21.7985 14.3912)">
<stop stop-color="#1A3D9C"/>
<stop offset="0.06" stop-color="#1A3D9C" stop-opacity="0.88"/>
<stop offset="0.21" stop-color="#1A3D9C" stop-opacity="0.61"/>
<stop offset="0.36" stop-color="#1A3D9C" stop-opacity="0.39"/>
<stop offset="0.51" stop-color="#1A3D9C" stop-opacity="0.22"/>
<stop offset="0.67" stop-color="#1A3D9C" stop-opacity="0.1"/>
<stop offset="0.83" stop-color="#1A3D9C" stop-opacity="0.02"/>
<stop offset="1" stop-color="#1A3D9C" stop-opacity="0"/>
</radialGradient>
<radialGradient id="paint31_radial_4_55" cx="0" cy="0" r="1" gradientUnits="userSpaceOnUse" gradientTransform="translate(19.4472 21.5834) rotate(76.1027) scale(21.7985 14.3912)">
<stop stop-color="#1B3E9E"/>
<stop offset="0.06" stop-color="#1B3E9E" stop-opacity="0.87"/>
<stop offset="0.21" stop-color="#1B3E9D" stop-opacity="0.61"/>
<stop offset="0.36" stop-color="#1A3D9D" stop-opacity="0.39"/>
<stop offset="0.52" stop-color="#1A3D9C" stop-opacity="0.22"/>
<stop offset="0.67" stop-color="#1A3D9C" stop-opacity="0.1"/>
<stop offset="0.83" stop-color="#1A3D9C" stop-opacity="0.02"/>
<stop offset="1" stop-color="#1A3D9C" stop-opacity="0"/>
</radialGradient>
<radialGradient id="paint32_radial_4_55" cx="0" cy="0" r="1" gradientUnits="userSpaceOnUse" gradientTransform="translate(20.2876 19.4521) rotate(76.1029) scale(16.6768 11.0099)">
<stop stop-color="#183991"/>
<stop offset="0.03" stop-color="#183992" stop-opacity="0.95"/>
<stop offset="0.18" stop-color="#193A95" stop-opacity="0.66"/>
<stop offset="0.34" stop-color="#193B97" stop-opacity="0.42"/>
<stop offset="0.5" stop-color="#1A3C99" stop-opacity="0.24"/>
<stop offset="0.66" stop-color="#1A3D9B" stop-opacity="0.1"/>
<stop offset="0.82" stop-color="#1A3D9C" stop-opacity="0.03"/>
<stop offset="1" stop-color="#1A3D9C" stop-opacity="0"/>
</radialGradient>
<radialGradient id="paint33_radial_4_55" cx="0" cy="0" r="1" gradientUnits="userSpaceOnUse" gradientTransform="translate(23.2282 21.1453) rotate(87.1375) scale(13.1779 11.6005)">
<stop offset="0.04" stop-color="#2453D6" stop-opacity="0.6"/>
<stop offset="0.2" stop-color="#2453D6" stop-opacity="0.49"/>
<stop offset="0.52" stop-color="#2453D6" stop-opacity="0.2"/>
<stop offset="0.73" stop-color="#2453D6" stop-opacity="0"/>
</radialGradient>
<linearGradient id="paint34_linear_4_55" x1="49.7787" y1="-9.416" x2="34.8866" y2="27.3946" gradientUnits="userSpaceOnUse">
<stop stop-color="#3774FF"/>
<stop offset="0.05" stop-color="#3774FF" stop-opacity="0.91"/>
<stop offset="0.16" stop-color="#3774FF" stop-opacity="0.66"/>
<stop offset="0.32" stop-color="#3774FF" stop-opacity="0.28"/>
<stop offset="0.43" stop-color="#3774FF" stop-opacity="0"/>
</linearGradient>
<clipPath id="clip0_4_55">
<rect width="282" height="78" fill="white"/>
</clipPath>
</defs>
</svg>
