<svg width="652" height="432" viewBox="0 0 652 432" fill="none" xmlns="http://www.w3.org/2000/svg">
<rect width="652" height="432" fill="white"/>
<path d="M95.9 260.5H106.3V269.8H95.9V260.5ZM95.9 275.7H106.3V319.3H95.9V275.7ZM116.1 275.7H126V281.4C127.9 277.5 131.5 274.4 138.1 274.3V284.8H137.6C130.3 284.8 126.6 288.2 126.6 295.8V319.3H116.2V275.7H116.1ZM150.8 301C151.3 308 157.5 311.9 163.4 311.8C168.5 311.8 171.9 309.5 173.9 305.9H184.6C182.5 310.8 179.4 314.4 175.8 316.9C172.1 319.4 167.9 320.7 163.3 320.7C149.9 320.7 140.2 309.8 140.2 297.6C140.2 285.2 149.9 274.3 163.1 274.3C169.6 274.3 175.4 276.8 179.4 281C184.7 286.5 186.7 293.3 185.8 300.9H150.8V301ZM175.7 293C175.3 288.9 170.9 283.1 163.3 283.1C155.6 283.1 151.4 288.7 151 293H175.7ZM222.2 301C222.7 308 228.9 311.9 234.8 311.8C239.9 311.8 243.3 309.5 245.3 305.9H256C253.9 310.8 250.8 314.4 247.2 316.9C243.5 319.4 239.2 320.7 234.7 320.7C221.3 320.7 211.6 309.8 211.6 297.6C211.6 285.2 221.3 274.3 234.5 274.3C241 274.3 246.7 276.8 250.8 281C256.1 286.5 258.1 293.3 257.2 300.9H222.2V301ZM247.1 293C246.7 288.9 242.3 283.1 234.7 283.1C227 283.1 222.8 288.7 222.4 293H247.1ZM193.6 260.5H204V319.3H193.6V260.5ZM285.7 287.5C285.6 285.2 284.4 282.8 280.4 282.8C276.9 282.8 275.2 285 275.2 287.2C275.3 290 278.5 291.5 282.6 292.7C289.6 294.6 297.1 296.7 297.2 306.1C297.4 315.1 289.8 320.8 280.7 320.8C273.9 320.8 264.8 317.3 264 306.7H274.4C274.8 311.4 278.9 312.3 280.8 312.3C284.1 312.3 286.8 310.2 286.8 307.2C286.8 303.5 283.6 302.4 275.5 299.7C269.6 297.9 264.9 294.6 264.8 288.3C264.8 279.7 272 274.4 280.5 274.4C286.4 274.4 295.1 277 296 287.5H285.7ZM325.3 287.5C325.2 285.2 324 282.8 320 282.8C316.5 282.8 314.8 285 314.8 287.2C314.9 290 318.1 291.5 322.2 292.7C329.2 294.6 336.7 296.7 336.8 306.1C337 315.1 329.4 320.8 320.3 320.8C313.5 320.8 304.4 317.3 303.6 306.7H314C314.4 311.4 318.5 312.3 320.4 312.3C323.7 312.3 326.4 310.2 326.4 307.2C326.4 303.5 323.2 302.4 315.1 299.7C309.2 297.9 304.4 294.6 304.4 288.3C304.4 279.7 311.6 274.4 320.1 274.4C326 274.4 334.7 277 335.6 287.5H325.3ZM29.6 275.7H40.8L48.2 305.3L56 277.1H64.2L72.1 305.3L79.4 275.7H90.6L77.5 319.3H67.9L59.9 291.8L52.1 319.3H42.5L29.6 275.7ZM200.7 112H229.7V136.5H200.7V112ZM200.7 145.4H229.7V242.5H200.7V145.4ZM128.9 205.6C123.7 227.7 104.2 245.7 78 245.7C48.6 245.7 26 222.6 26 193.7C26 165.2 48.2 142.1 77.3 142.1C103 142.1 123.9 159.1 128.8 182.9H99.4C96.2 176.2 90.5 169.2 78.4 169.2C71.6 168.9 65.8 171.5 61.6 176C57.6 180.5 55.3 186.8 55.3 193.8C55.3 208 64.6 218.5 78.4 218.5C90.5 218.5 96.2 211.5 99.4 205.5H128.9V205.6ZM137.8 145.4H165.1V159.6C167.9 154.3 173 145.4 189.8 145.4V173.7H188.8C173.9 173.7 166.9 179.1 166.9 192.8V242.5H137.9V145.4H137.8ZM576.7 169.7H604.5V145.4H576.7V112H547.7V199.3C547.7 230.2 563.6 242.6 597.3 242.6H599.7V216.6H598.6C583.7 216.6 576.7 211.2 576.7 197.5V169.7ZM340.9 205.6C335.6 227.7 316.2 245.7 290 245.7C260.6 245.7 238 222.6 238 193.7C238 165.2 260.2 142.1 289.3 142.1C315 142.1 335.9 159.1 340.8 182.9H311.4C308.2 176.2 302.5 169.2 290.4 169.2C283.6 168.9 277.8 171.5 273.6 176C269.6 180.5 267.3 186.8 267.3 193.8C267.3 208 276.6 218.5 290.4 218.5C302.5 218.5 308.2 211.5 311.4 205.5H340.9V205.6ZM465.4 203.4C466.5 214.1 476.5 221.7 487.9 221.7C496.5 221.7 501.4 218 504.7 213.5H534.7C526.1 232 509.7 245.6 488 245.6C460.2 245.6 436.5 223 436.5 194.1C436.5 167 457.8 142 487.4 142C502.3 142 515.1 147.8 524.2 157.4C534.1 168.1 538.5 180.6 538.5 193.8C538.5 197 538.4 200 537.9 203.4H465.4V203.4ZM509.3 182.5C508.6 177.5 502.6 166 487.5 166C472.4 166 466.4 177.6 465.7 182.5H509.3ZM381 213.7L408.3 242.5H449.3L401.6 193.1L381 213.7ZM378 112H349V204.6L378 175.7V112ZM618 161.1C613.6 161.1 609.9 157.5 609.9 153.1C609.9 148.6 613.5 145.1 618 145.1C622.4 145.1 626 148.7 626 153.1C626 157.4 622.4 161.1 618 161.1ZM617.9 146.6C614.3 146.6 611.6 149.5 611.6 153C611.6 156.5 614.4 159.4 617.9 159.4C621.4 159.4 624.2 156.5 624.2 153C624.3 149.5 621.5 146.6 617.9 146.6ZM620.2 157.7C619.9 157.3 619.9 156.5 619.9 156C619.8 154.5 619.5 154 618 154H616.1V157.7H614.5V148.5H618.5C620.1 148.5 621.7 149.1 621.7 151C621.7 152.1 621.1 153 620 153.2C621.3 153.6 621.5 154.3 621.5 155.5C621.5 156.1 621.5 157.1 621.8 157.6H620.2V157.7ZM619.9 150.7C619.6 150 618.8 150 618.2 150H616.1V152.5H618.1C619.1 152.5 620 152.2 620 151C620 151 620 150.8 619.9 150.7Z" fill="black"/>
<path d="M408.5 145.4L349 204.6V245.7L449.5 145.4H408.5Z" fill="#5FA72F"/>
</svg>
