<?xml version="1.0" encoding="utf-8"?>
<!-- Generator: Adobe Illustrator 19.0.0, SVG Export Plug-In . SVG Version: 6.00 Build 0)  -->
<svg version="1.1" id="layer" xmlns="http://www.w3.org/2000/svg" xmlns:xlink="http://www.w3.org/1999/xlink" x="0px" y="0px"
	 viewBox="-153 -46 652 652" style="enable-background:new -153 -46 652 652;" xml:space="preserve">
<style type="text/css">
	.st0{fill:#5FA72F;}
</style>
<path d="M-55.3,325.5h10.4v9.3h-10.4V325.5z M-55.3,340.7h10.4v43.6h-10.4V340.7z M-35.1,340.7h9.9v5.7c1.9-3.9,5.5-7,12.1-7.1v10.5
	h-0.5c-7.3,0-11,3.4-11,11v23.5h-10.4V340.7z M-0.4,366c0.5,7,6.7,10.9,12.6,10.8c5.1,0,8.5-2.3,10.5-5.9h10.7
	c-2.1,4.9-5.2,8.5-8.8,11c-3.7,2.5-7.9,3.8-12.5,3.8c-13.4,0-23.1-10.9-23.1-23.1c0-12.4,9.7-23.3,22.9-23.3
	c6.5,0,12.3,2.5,16.3,6.7c5.3,5.5,7.3,12.3,6.4,19.9H-0.4z M24.5,358c-0.4-4.1-4.8-9.9-12.4-9.9c-7.7,0-11.9,5.6-12.3,9.9H24.5z
	 M71,366c0.5,7,6.7,10.9,12.6,10.8c5.1,0,8.5-2.3,10.5-5.9h10.7c-2.1,4.9-5.2,8.5-8.8,11c-3.7,2.5-8,3.8-12.5,3.8
	c-13.4,0-23.1-10.9-23.1-23.1c0-12.4,9.7-23.3,22.9-23.3c6.5,0,12.2,2.5,16.3,6.7c5.3,5.5,7.3,12.3,6.4,19.9H71z M95.9,358
	c-0.4-4.1-4.8-9.9-12.4-9.9c-7.7,0-11.9,5.6-12.3,9.9H95.9z M42.4,325.5h10.4v58.8H42.4V325.5z M134.5,352.5
	c-0.1-2.3-1.3-4.7-5.3-4.7c-3.5,0-5.2,2.2-5.2,4.4c0.1,2.8,3.3,4.3,7.4,5.5c7,1.9,14.5,4,14.6,13.4c0.2,9-7.4,14.7-16.5,14.7
	c-6.8,0-15.9-3.5-16.7-14.1h10.4c0.4,4.7,4.5,5.6,6.4,5.6c3.3,0,6-2.1,6-5.1c0-3.7-3.2-4.8-11.3-7.5c-5.9-1.8-10.6-5.1-10.7-11.4
	c0-8.6,7.2-13.9,15.7-13.9c5.9,0,14.6,2.6,15.5,13.1H134.5z M174.1,352.5c-0.1-2.3-1.3-4.7-5.3-4.7c-3.5,0-5.2,2.2-5.2,4.4
	c0.1,2.8,3.3,4.3,7.4,5.5c7,1.9,14.5,4,14.6,13.4c0.2,9-7.4,14.7-16.5,14.7c-6.8,0-15.9-3.5-16.7-14.1h10.4c0.4,4.7,4.5,5.6,6.4,5.6
	c3.3,0,6-2.1,6-5.1c0-3.7-3.2-4.8-11.3-7.5c-5.9-1.8-10.7-5.1-10.7-11.4c0-8.6,7.2-13.9,15.7-13.9c5.9,0,14.6,2.6,15.5,13.1H174.1z
	 M-121.6,340.7h11.2l7.4,29.6l7.8-28.2h8.2l7.9,28.2l7.3-29.6h11.2l-13.1,43.6h-9.6l-8-27.5l-7.8,27.5h-9.6L-121.6,340.7z M49.5,177
	h29v24.5h-29V177z M49.5,210.4h29v97.1h-29V210.4z M-22.3,270.6c-5.2,22.1-24.7,40.1-50.9,40.1c-29.4,0-52-23.1-52-52
	c0-28.5,22.2-51.6,51.3-51.6c25.7,0,46.6,17,51.5,40.8h-29.4c-3.2-6.7-8.9-13.7-21-13.7c-6.8-0.3-12.6,2.3-16.8,6.8
	c-4,4.5-6.3,10.8-6.3,17.8c0,14.2,9.3,24.7,23.1,24.7c12.1,0,17.8-7,21-13H-22.3z M-13.4,210.4h27.3v14.2
	c2.8-5.3,7.9-14.2,24.7-14.2v28.3h-1c-14.9,0-21.9,5.4-21.9,19.1v49.7h-29V210.4z M425.5,234.7h27.8v-24.3h-27.8V177h-29l0,87.3
	c0,30.9,15.9,43.3,49.6,43.3h2.4v-26h-1.1c-14.9,0-21.9-5.4-21.9-19.1L425.5,234.7z M189.7,270.6c-5.3,22.1-24.7,40.1-50.9,40.1
	c-29.4,0-52-23.1-52-52c0-28.5,22.2-51.6,51.3-51.6c25.7,0,46.6,17,51.5,40.8h-29.4c-3.2-6.7-8.9-13.7-21-13.7
	c-6.8-0.3-12.6,2.3-16.8,6.8c-4,4.5-6.3,10.8-6.3,17.8c0,14.2,9.3,24.7,23.1,24.7c12.1,0,17.8-7,21-13H189.7z M314.2,268.4
	c1.1,10.7,11.1,18.3,22.5,18.3c8.6,0,13.5-3.7,16.8-8.2h30c-8.6,18.5-25,32.1-46.7,32.1c-27.8,0-51.5-22.6-51.5-51.5
	c0-27.1,21.3-52.1,50.9-52.1c14.9,0,27.7,5.8,36.8,15.4c9.9,10.7,14.3,23.2,14.3,36.4c0,3.2-0.1,6.2-0.6,9.6H314.2z M358.1,247.5
	c-0.7-5-6.7-16.5-21.8-16.5c-15.1,0-21.1,11.6-21.8,16.5H358.1z M229.8,278.7l27.3,28.8h41l-47.7-49.4L229.8,278.7z M226.8,177h-29
	v92.6l29-28.9V177z M466.8,226.1c-4.4,0-8.1-3.6-8.1-8c0-4.5,3.6-8,8.1-8c4.4,0,8,3.6,8,8C474.8,222.4,471.2,226.1,466.8,226.1
	 M466.7,211.6c-3.6,0-6.3,2.9-6.3,6.4c0,3.5,2.8,6.4,6.3,6.4c3.5,0,6.3-2.9,6.3-6.4C473.1,214.5,470.3,211.6,466.7,211.6 M469,222.7
	c-0.3-0.4-0.3-1.2-0.3-1.7c-0.1-1.5-0.4-2-1.9-2h-1.9v3.7h-1.6v-9.2h4c1.6,0,3.2,0.6,3.2,2.5c0,1.1-0.6,2-1.7,2.2v0
	c1.3,0.4,1.5,1.1,1.5,2.3c0,0.6,0,1.6,0.3,2.1H469z M468.7,215.7c-0.3-0.7-1.1-0.7-1.7-0.7h-2.1v2.5h2c1,0,1.9-0.3,1.9-1.5
	C468.8,216,468.8,215.8,468.7,215.7"/>
<polygon class="st0" points="257.3,210.4 197.8,269.6 197.8,310.7 298.3,210.4 "/>
</svg>
