<svg width="132" height="61" viewBox="0 0 132 61" fill="none" xmlns="http://www.w3.org/2000/svg">
<g clip-path="url(#clip0)">
<path d="M48.81 56.89C45.7552 58.967 42.144 60.072 38.45 60.06C33.7784 60.0848 29.2663 58.362 25.8 55.23C25.53 54.99 25.8 54.67 26.08 54.85C29.4414 56.7868 33.2051 57.92 37.0771 58.1611C40.949 58.4023 44.8243 57.7448 48.4 56.24C48.88 56.04 49.27 56.55 48.81 56.89V56.89Z" fill="white"/>
<path fill-rule="evenodd" clip-rule="evenodd" d="M49.98 55.56C49.62 55.1 47.61 55.34 46.7 55.45C46.43 55.45 46.39 55.25 46.63 55.07C48.24 53.95 50.87 54.27 51.17 54.65C51.47 55.03 51.09 57.65 49.59 58.92C49.36 59.11 49.14 59.01 49.24 58.76C49.58 57.91 50.33 56.02 49.98 55.56ZM46.77 47.12V46.02C46.7686 45.9829 46.7749 45.9458 46.7885 45.9112C46.802 45.8766 46.8226 45.8452 46.8489 45.8189C46.8752 45.7926 46.9066 45.772 46.9412 45.7585C46.9758 45.7449 47.0129 45.7386 47.05 45.74H51.93C51.9672 45.7386 52.0042 45.7449 52.0388 45.7585C52.0734 45.772 52.1048 45.7926 52.1311 45.8189C52.1574 45.8452 52.178 45.8766 52.1916 45.9112C52.2051 45.9458 52.2114 45.9829 52.21 46.02V46.96C52.21 47.12 52.08 47.32 51.84 47.65L49.3 51.28C50.2704 51.2234 51.238 51.4307 52.1 51.88C52.176 51.9215 52.2399 51.982 52.2855 52.0556C52.3311 52.1293 52.3567 52.2135 52.36 52.3V53.47C52.36 53.63 52.18 53.82 52 53.72C51.1994 53.3061 50.3113 53.0901 49.41 53.0901C48.5088 53.0901 47.6206 53.3061 46.82 53.72C46.65 53.81 46.47 53.63 46.47 53.47V52.39C46.4528 52.1275 46.5155 51.866 46.65 51.64L49.61 47.39H47.05C47.0137 47.3913 46.9775 47.3854 46.9436 47.3724C46.9097 47.3594 46.8787 47.3397 46.8526 47.3145C46.8264 47.2893 46.8057 47.2591 46.7915 47.2257C46.7773 47.1923 46.77 47.1563 46.77 47.12ZM56.47 47.17C55.37 47.17 55.3 48.67 55.3 49.6C55.3 50.53 55.3 52.53 56.46 52.53C57.62 52.53 57.67 50.92 57.67 49.94C57.6918 49.2657 57.6143 48.5918 57.44 47.94C57.3941 47.7149 57.2666 47.5148 57.082 47.3782C56.8973 47.2415 56.6687 47.1781 56.44 47.2L56.47 47.17ZM56.47 45.6C58.68 45.6 59.88 47.51 59.88 49.92C59.88 52.33 58.56 54.11 56.47 54.11C54.38 54.11 53.11 52.21 53.11 49.84C53.11 47.47 54.31 45.6 56.47 45.6ZM44.36 53.93C44.3075 53.9628 44.2469 53.9802 44.185 53.9802C44.1231 53.9802 44.0625 53.9628 44.01 53.93C43.67 53.6465 43.3794 53.3086 43.15 52.93C42.8569 53.295 42.4805 53.5844 42.0525 53.7741C41.6245 53.9637 41.1573 54.048 40.69 54.02C40.3839 54.0375 40.0777 53.9883 39.7924 53.876C39.5071 53.7636 39.2496 53.5908 39.0377 53.3693C38.8257 53.1478 38.6643 52.883 38.5645 52.593C38.4648 52.3031 38.4291 51.995 38.46 51.69C38.4443 51.1696 38.5882 50.6569 38.8724 50.2207C39.1566 49.7845 39.5676 49.4458 40.05 49.25C40.9583 48.9497 41.9041 48.778 42.86 48.74C42.9049 48.305 42.8431 47.8657 42.68 47.46C42.5781 47.3362 42.4498 47.2369 42.3044 47.1694C42.159 47.1019 42.0003 47.0679 41.84 47.07C41.5681 47.0507 41.2983 47.1286 41.0785 47.2897C40.8587 47.4509 40.7033 47.6849 40.64 47.95C40.64 48.12 40.49 48.25 40.36 48.24L38.93 48.13C38.8943 48.124 38.8601 48.1109 38.8295 48.0914C38.799 48.072 38.7726 48.0465 38.7521 48.0167C38.7316 47.9868 38.7173 47.9531 38.71 47.9176C38.7028 47.8821 38.7028 47.8455 38.71 47.81C39.04 46.06 40.63 45.53 42.05 45.53C42.8643 45.4999 43.6625 45.7624 44.3 46.27C44.961 46.8943 44.9562 47.7124 44.9509 48.6005C44.9505 48.6798 44.95 48.7597 44.95 48.84V51.17C44.9547 51.6863 45.159 52.1808 45.52 52.55C45.5707 52.6022 45.5991 52.6722 45.5991 52.745C45.5991 52.8178 45.5707 52.8878 45.52 52.94L44.37 53.94L44.36 53.93ZM42.89 50.29C42.9437 50.8356 42.8169 51.3855 42.58 51.88C42.4868 52.0705 42.3455 52.2334 42.1702 52.3526C41.9948 52.4719 41.7914 52.5433 41.58 52.56C41 52.56 40.67 52.12 40.67 51.47C40.67 50.2 41.81 49.97 42.89 49.97V50.29ZM24.8 53.93C24.7475 53.9628 24.6869 53.9802 24.625 53.9802C24.5631 53.9802 24.5025 53.9628 24.45 53.93C24.11 53.6465 23.8194 53.3086 23.59 52.93C23.2931 53.2907 22.9161 53.577 22.4891 53.7663C22.062 53.9555 21.5966 54.0424 21.13 54.02C20.8301 54.0323 20.5309 53.9808 20.2523 53.8688C19.9738 53.7569 19.7222 53.587 19.5142 53.3705C19.3062 53.154 19.1466 52.8958 19.0459 52.613C18.9452 52.3302 18.9057 52.0292 18.93 51.73C18.9128 51.2093 19.0562 50.696 19.3406 50.2595C19.625 49.823 20.0367 49.4846 20.52 49.29C21.4283 48.9897 22.3741 48.818 23.33 48.78C23.3751 48.3441 23.3098 47.904 23.14 47.5C23.0428 47.3735 22.9167 47.2721 22.7723 47.2042C22.628 47.1364 22.4694 47.1041 22.31 47.11C22.0377 47.0886 21.7669 47.1657 21.5466 47.3272C21.3264 47.4887 21.1715 47.7239 21.11 47.99C21.11 48.16 20.96 48.29 20.83 48.28L19.4 48.13C19.3643 48.124 19.3301 48.1109 19.2995 48.0914C19.269 48.072 19.2426 48.0465 19.2221 48.0167C19.2016 47.9868 19.1873 47.9531 19.18 47.9176C19.1728 47.8821 19.1728 47.8455 19.18 47.81C19.51 46.06 21.1 45.53 22.52 45.53C23.3314 45.4987 24.1269 45.7615 24.76 46.27C25.4309 46.8949 25.4261 47.7141 25.4209 48.6033C25.4205 48.6817 25.42 48.7606 25.42 48.84V51.17C25.4153 51.6769 25.5968 52.168 25.93 52.55C25.9563 52.5752 25.9773 52.6055 25.9916 52.639C26.0059 52.6725 26.0133 52.7086 26.0133 52.745C26.0133 52.7814 26.0059 52.8175 25.9916 52.851C25.9773 52.8845 25.9563 52.9148 25.93 52.94L24.78 53.94L24.8 53.93ZM29.16 49.62C29.16 48.73 29.16 47.51 30.16 47.51C31.0854 47.51 31.0774 48.5806 31.071 49.4218C31.0705 49.4896 31.07 49.5559 31.07 49.62V53.68C31.07 53.7499 31.097 53.8171 31.1455 53.8675C31.194 53.9178 31.2601 53.9474 31.33 53.95H32.82C32.8568 53.9513 32.8935 53.9454 32.9279 53.9326C32.9624 53.9197 32.994 53.9002 33.021 53.8751C33.0479 53.85 33.0696 53.8199 33.0849 53.7864C33.1002 53.7529 33.1087 53.7168 33.11 53.68V49.62C33.0798 49.1257 33.127 48.6297 33.25 48.15C33.3215 47.9701 33.4436 47.8148 33.6016 47.703C33.7596 47.5912 33.9466 47.5276 34.14 47.52C34.3441 47.4914 34.5513 47.5448 34.7162 47.6685C34.881 47.7921 34.9903 47.976 35.02 48.18C35.0552 48.6594 35.0552 49.1406 35.02 49.62V53.68C35.0225 53.7508 35.0517 53.8181 35.1018 53.8682C35.1519 53.9183 35.2192 53.9475 35.29 53.95H36.78C36.8168 53.9513 36.8535 53.9454 36.8879 53.9326C36.9224 53.9197 36.954 53.9002 36.981 53.8751C37.0079 53.85 37.0296 53.8199 37.0449 53.7864C37.0602 53.7529 37.0687 53.7168 37.07 53.68V48.84C37.1953 48.0199 37.0625 47.1812 36.69 46.44C36.4898 46.1743 36.2297 45.9597 35.9307 45.8137C35.6318 45.6678 35.3026 45.5945 34.97 45.6C34.5191 45.587 34.0756 45.7175 33.7036 45.9727C33.3316 46.2279 33.0502 46.5946 32.9 47.02C32.7748 46.6066 32.5191 46.2449 32.1712 45.989C31.8233 45.733 31.4019 45.5966 30.97 45.6C30.5263 45.581 30.0889 45.7103 29.7268 45.9674C29.3646 46.2245 29.0984 46.5948 28.97 47.02V46.02C28.9674 45.9475 28.9368 45.8788 28.8845 45.8284C28.8323 45.7781 28.7626 45.75 28.69 45.75H27.4C27.3637 45.7487 27.3275 45.7546 27.2936 45.7676C27.2597 45.7806 27.2287 45.8002 27.2026 45.8255C27.1764 45.8507 27.1557 45.8809 27.1415 45.9143C27.1273 45.9477 27.12 45.9837 27.12 46.02V53.65C27.1186 53.6871 27.1249 53.7242 27.1385 53.7588C27.152 53.7934 27.1726 53.8248 27.1989 53.8511C27.2252 53.8774 27.2566 53.898 27.2912 53.9115C27.3258 53.9251 27.3629 53.9314 27.4 53.93H28.93C28.9663 53.93 29.0023 53.9227 29.0357 53.9085C29.0691 53.8943 29.0993 53.8736 29.1245 53.8474C29.1498 53.8213 29.1694 53.7903 29.1824 53.7564C29.1954 53.7225 29.2014 53.6863 29.2 53.65V49.65L29.16 49.62ZM63.03 53.67C63.0314 53.7071 63.0251 53.7442 63.0116 53.7788C62.998 53.8134 62.9774 53.8448 62.9511 53.8711C62.9248 53.8974 62.8934 53.918 62.8588 53.9315C62.8242 53.9451 62.7872 53.9514 62.75 53.95H61.26C61.1857 53.95 61.1145 53.9205 61.062 53.868C61.0095 53.8155 60.98 53.7443 60.98 53.67V46.04C60.9826 45.9675 61.0132 45.8988 61.0655 45.8484C61.1177 45.7981 61.1874 45.77 61.26 45.77H62.64C62.704 45.766 62.7673 45.785 62.8186 45.8235C62.8699 45.862 62.9059 45.9174 62.92 45.98V47.15C63.0236 46.7007 63.2793 46.301 63.6437 46.0185C64.0082 45.7361 64.4591 45.5882 64.92 45.6C65.2638 45.5892 65.6046 45.6674 65.9094 45.8268C66.2142 45.9862 66.4727 46.2215 66.66 46.51C66.9883 47.2578 67.1225 48.0765 67.05 48.89V53.71C67.0425 53.778 67.0094 53.8407 66.9574 53.8852C66.9054 53.9298 66.8384 53.9529 66.77 53.95H65.33C65.265 53.948 65.203 53.9226 65.1552 53.8785C65.1075 53.8344 65.0772 53.7746 65.07 53.71V49.08C65.07 47.53 64.47 47.49 64.13 47.49C63.9452 47.5006 63.7669 47.5623 63.6151 47.6682C63.4632 47.7742 63.3438 47.9202 63.27 48.09C63.0854 48.5536 63.0035 49.0517 63.03 49.55V53.67ZM23.02 51.88C23.2569 51.3855 23.3537 50.8356 23.3 50.29H23.34V49.97C22.26 49.97 21.12 50.2 21.12 51.47C21.12 52.12 21.45 52.56 22.02 52.56C22.2311 52.5424 22.4341 52.4705 22.6093 52.3514C22.7845 52.2322 22.926 52.0699 23.02 51.88Z" fill="white"/>
<path d="M4.92999 53.93L4.80999 53.15C4.45863 53.4555 4.05567 53.6959 3.61999 53.86C3.21009 54.0268 2.77248 54.115 2.32999 54.12C2.02029 54.1366 1.71039 54.0912 1.41848 53.9864C1.12656 53.8817 0.85849 53.7197 0.629988 53.51C0.413617 53.3015 0.244513 53.049 0.134104 52.7695C0.0236943 52.49 -0.0254512 52.1901 -0.0100136 51.89C-0.0226157 51.5581 0.0411576 51.2277 0.17639 50.9243C0.311622 50.6208 0.514703 50.3525 0.769987 50.14C1.3682 49.6836 2.10847 49.4534 2.85999 49.49C3.49821 49.4995 4.1329 49.5868 4.74999 49.75V48.75C4.77249 48.5446 4.75114 48.3368 4.68736 48.1403C4.62358 47.9438 4.51881 47.763 4.37999 47.61C4.01657 47.3533 3.57278 47.2361 3.12999 47.28C2.23347 47.2913 1.34493 47.4501 0.499987 47.75V46.71C0.916004 46.4993 1.36077 46.3511 1.81999 46.27C2.33628 46.1619 2.8625 46.1083 3.38999 46.11C4.135 46.0482 4.87725 46.2578 5.47999 46.7C5.71824 46.9319 5.90264 47.2133 6.02014 47.5244C6.13764 47.8354 6.18538 48.1685 6.15999 48.5V53.93H4.92999ZM2.67999 53C3.43459 52.9713 4.16011 52.7015 4.74999 52.23V50.71C4.23019 50.5784 3.69618 50.5112 3.15999 50.51C2.03999 50.51 1.46999 50.95 1.46999 51.81C1.45986 51.9708 1.48305 52.132 1.53811 52.2834C1.59318 52.4348 1.67893 52.5733 1.78999 52.69C1.91188 52.7989 2.05425 52.8824 2.20878 52.9356C2.36331 52.9888 2.5269 53.0107 2.68999 53H2.67999ZM13.51 53.93V48.85C13.5442 48.433 13.4271 48.0176 13.18 47.68C13.0509 47.5484 12.8943 47.447 12.7214 47.383C12.5485 47.3191 12.3636 47.2941 12.18 47.31C11.3475 47.3225 10.5385 47.5875 9.85999 48.07V53.93H8.36999V46.33H9.60999L9.75999 47.17C10.6154 46.4948 11.6703 46.1221 12.76 46.11C13.0616 46.0879 13.3646 46.128 13.6502 46.2278C13.9357 46.3276 14.1977 46.4849 14.42 46.69C14.6259 46.9195 14.7828 47.1887 14.8808 47.4811C14.9788 47.7734 15.016 48.0827 14.99 48.39V53.97L13.51 53.93ZM76.74 53.64C76.1192 53.9487 75.4331 54.103 74.74 54.09C74.2449 54.1224 73.7486 54.0501 73.2834 53.8778C72.8182 53.7055 72.3945 53.437 72.04 53.09C71.4211 52.2365 71.0879 51.2092 71.0879 50.155C71.0879 49.1008 71.4211 48.0735 72.04 47.22C72.399 46.8706 72.8278 46.6009 73.2982 46.4286C73.7687 46.2563 74.2702 46.1852 74.77 46.22C75.4235 46.2162 76.0695 46.3598 76.66 46.64V47.7C76.1257 47.5127 75.5659 47.4082 75 47.39C74.6699 47.3586 74.3369 47.3997 74.0243 47.5102C73.7117 47.6207 73.427 47.7981 73.19 48.03C72.7747 48.6101 72.5797 49.3191 72.64 50.03V50.22C72.5826 50.9321 72.7811 51.6413 73.2 52.22C73.4305 52.4493 73.7084 52.6253 74.0142 52.7359C74.3199 52.8464 74.6461 52.8888 74.97 52.86C75.5717 52.8493 76.1684 52.7482 76.74 52.56V53.64ZM81.4 54.15C80.9046 54.1782 80.4091 54.098 79.9479 53.9149C79.4868 53.7318 79.0711 53.4503 78.73 53.09C78.0996 52.2318 77.7597 51.1948 77.7597 50.13C77.7597 49.0652 78.0996 48.0282 78.73 47.17C79.4503 46.4892 80.4039 46.11 81.395 46.11C82.3861 46.11 83.3396 46.4892 84.06 47.17C84.6904 48.0282 85.0303 49.0652 85.0303 50.13C85.0303 51.1948 84.6904 52.2318 84.06 53.09C83.7208 53.45 83.3069 53.7315 82.8474 53.9146C82.3879 54.0977 81.8939 54.1781 81.4 54.15ZM81.4 52.95C82.8 52.95 83.51 52.01 83.51 50.12C83.51 48.23 82.8 47.31 81.4 47.31C80 47.31 79.29 48.24 79.29 50.12C79.29 52 79.99 52.95 81.4 52.95ZM96.55 53.93V48.77C96.5799 48.3825 96.4815 47.996 96.27 47.67C96.1584 47.544 96.0189 47.4459 95.8626 47.3834C95.7064 47.3208 95.5377 47.2957 95.37 47.31C94.5886 47.3243 93.8267 47.5563 93.17 47.98C93.1752 48.0566 93.1752 48.1334 93.17 48.21V53.93H91.69V48.77C91.7156 48.3829 91.6176 47.9977 91.41 47.67C91.2984 47.544 91.1589 47.4459 91.0026 47.3834C90.8464 47.3208 90.6777 47.2957 90.51 47.31C89.7318 47.3156 88.9716 47.5447 88.32 47.97V53.97H86.84V46.37H88.08L88.23 47.14C89.0403 46.5305 90.0168 46.1817 91.03 46.14C91.4142 46.0954 91.8028 46.1704 92.1428 46.3547C92.4828 46.539 92.7577 46.8237 92.93 47.17C93.7879 46.4994 94.8412 46.1272 95.93 46.11C96.2209 46.0898 96.5127 46.131 96.7866 46.231C97.0606 46.3309 97.3104 46.4873 97.52 46.69C97.9076 47.1672 98.0909 47.7782 98.03 48.39V53.97L96.55 53.93ZM100.22 57.01V46.33H101.46L101.6 47.11C102.287 46.4692 103.191 46.1119 104.13 46.11C104.563 46.0856 104.996 46.1634 105.394 46.3371C105.792 46.5108 106.143 46.7756 106.42 47.11C107.019 47.9429 107.315 48.9555 107.26 49.98C107.324 51.0534 107.009 52.1151 106.37 52.98C106.094 53.3381 105.737 53.6255 105.329 53.8185C104.92 54.0115 104.472 54.1045 104.02 54.09C103.162 54.1075 102.331 53.7922 101.7 53.21V57.01H100.22ZM103.71 47.31C102.986 47.3179 102.285 47.56 101.71 48V52.17C102.279 52.6234 102.982 52.8764 103.71 52.89C105.09 52.89 105.77 51.96 105.77 50.11C105.829 49.3716 105.654 48.6335 105.27 48C105.09 47.7622 104.852 47.5741 104.579 47.4534C104.306 47.3327 104.007 47.2833 103.71 47.31ZM113.55 53.93L113.43 53.15C113.079 53.4555 112.676 53.6959 112.24 53.86C111.827 54.0266 111.386 54.1148 110.94 54.12C110.63 54.1355 110.321 54.0895 110.029 53.9848C109.737 53.8801 109.469 53.7188 109.24 53.51C109.027 53.2994 108.861 53.0463 108.752 52.7672C108.644 52.488 108.595 52.1891 108.61 51.89C108.596 51.5589 108.658 51.229 108.792 50.9256C108.925 50.6223 109.127 50.3535 109.38 50.14C109.981 49.6821 110.725 49.4519 111.48 49.49C112.118 49.4995 112.753 49.5868 113.37 49.75V48.75C113.39 48.5447 113.367 48.3376 113.304 48.1414C113.24 47.9453 113.137 47.7644 113 47.61C112.637 47.3533 112.193 47.2361 111.75 47.28C110.85 47.2904 109.958 47.4492 109.11 47.75V46.71C109.526 46.4993 109.971 46.3511 110.43 46.27C110.946 46.1624 111.473 46.1088 112 46.11C112.748 46.0503 113.493 46.2595 114.1 46.7C114.336 46.9328 114.519 47.2147 114.635 47.5256C114.751 47.8366 114.797 48.1692 114.77 48.5V53.93H113.55ZM111.3 53C112.055 52.9713 112.78 52.7015 113.37 52.23V50.71C112.85 50.5784 112.316 50.5112 111.78 50.51C110.65 50.51 110.09 50.95 110.09 51.81C110.079 51.9701 110.1 52.1308 110.153 52.2822C110.207 52.4336 110.291 52.5724 110.4 52.69C110.648 52.907 110.971 53.0183 111.3 53V53ZM122.11 53.93V48.85C122.142 48.4347 122.029 48.0212 121.79 47.68C121.661 47.5484 121.504 47.447 121.331 47.383C121.159 47.3191 120.974 47.2941 120.79 47.31C119.958 47.3225 119.148 47.5875 118.47 48.07V53.93H116.99V46.33H118.23L118.38 47.17C119.235 46.4941 120.29 46.1213 121.38 46.11C121.683 46.0877 121.988 46.1277 122.275 46.2274C122.562 46.3272 122.826 46.4846 123.05 46.69C123.448 47.1478 123.65 47.7445 123.61 48.35V53.93H122.11ZM131.93 46.33L128.47 55.26C128.287 55.8251 127.964 56.3344 127.53 56.74C127.135 57.0507 126.642 57.2103 126.14 57.19C125.744 57.1927 125.35 57.1215 124.98 56.98V55.92C125.258 55.9894 125.544 56.023 125.83 56.02C126.148 56.0384 126.461 55.9387 126.71 55.74C126.98 55.4588 127.175 55.1153 127.28 54.74L127.57 53.98L124.51 46.31H126.1L128.29 52.53L130.4 46.31H131.93V46.33ZM29.72 15.62H4.30999V15.48C4.40003 14.5864 4.60853 13.7087 4.92999 12.87C6.00482 9.73714 8.15555 7.08681 11 5.39C12.9237 4.30109 15.1108 3.7647 17.32 3.84C18.9818 3.83147 20.6292 4.14737 22.17 4.76999C23.6346 5.35178 24.9751 6.207 26.12 7.28999C27.222 8.33885 28.1145 9.5877 28.75 10.97C29.4119 12.3776 29.7534 13.9145 29.75 15.47L29.72 15.62ZM17.55 -4.50853e-06C15.1256 -0.0321717 12.7212 0.441224 10.49 1.38999C8.39738 2.30575 6.50749 3.628 4.92999 5.27999C3.34353 6.95813 2.10324 8.93239 1.27999 11.09C0.409418 13.4243 -0.0244648 15.8988 -1.33635e-05 18.39C-0.0316003 20.9452 0.39515 23.4854 1.25999 25.89C2.04943 28.0646 3.27443 30.0553 4.85999 31.74C6.44357 33.3972 8.35848 34.7022 10.48 35.57C12.798 36.5076 15.2798 36.9733 17.78 36.94C20.7511 36.9721 23.6955 36.3757 26.42 35.19C29.0834 33.9597 31.3414 31.9965 32.93 29.53L29.78 26.88C28.5584 28.8134 26.8287 30.3736 24.78 31.39C22.6554 32.4981 20.2962 33.081 17.9 33.09C15.568 33.1841 13.2537 32.6487 11.2 31.54C9.57847 30.5984 8.169 29.3319 7.05999 27.82C6.0803 26.4889 5.35791 24.9864 4.92999 23.39C4.58498 22.1682 4.39021 20.9089 4.34999 19.64V19.5H34.03V16.39C34.0151 14.3412 33.6429 12.3108 32.93 10.39C32.2312 8.44291 31.1614 6.64981 29.78 5.10999C28.3432 3.53572 26.6012 2.27008 24.66 1.38999C22.4177 0.419257 19.9929 -0.0581914 17.55 -0.0100047V-4.50853e-06ZM68.93 15.62H43.53V15.48C43.62 14.5864 43.8285 13.7087 44.15 12.87C44.6366 11.4648 45.3419 10.1452 46.24 8.95999C47.3294 7.52477 48.6881 6.31557 50.24 5.4C52.1623 4.30766 54.3504 3.77103 56.56 3.84999C58.2185 3.84149 59.8627 4.15742 61.4 4.77999C62.8836 5.35367 64.242 6.20945 65.4 7.29999C66.468 8.35601 67.3264 9.60466 67.93 10.98C68.5872 12.3892 68.9285 13.925 68.93 15.48V15.62ZM56.77 -4.50853e-06C54.3424 -0.0320994 51.9347 0.441265 49.7 1.38999C47.6149 2.30415 45.7318 3.62295 44.16 5.26999C42.5702 6.94553 41.3294 8.9205 40.51 11.08C39.6301 13.4155 39.1927 15.8944 39.22 18.39C39.1901 20.9442 39.6133 23.4835 40.47 25.89C41.2662 28.0636 42.4942 30.0536 44.08 31.74C45.6636 33.3972 47.5785 34.7022 49.7 35.57C52.0178 36.5084 54.4997 36.9741 57 36.94C59.9711 36.9721 62.9155 36.3757 65.64 35.19C68.2969 33.9579 70.548 31.9947 72.13 29.53L68.98 26.88C67.7484 28.8234 65.9997 30.3851 63.93 31.39C61.8054 32.4981 59.4462 33.081 57.05 33.09C54.718 33.1841 52.4037 32.6487 50.35 31.54C48.7285 30.5984 47.319 29.3319 46.21 27.82C45.237 26.4889 44.5245 24.9858 44.11 23.39C43.765 22.1682 43.5702 20.9089 43.53 19.64V19.5H73.25V16.39C73.2429 14.344 72.8844 12.3145 72.19 10.39C71.4912 8.44291 70.4214 6.64981 69.04 5.10999C67.6042 3.53888 65.8662 2.27364 63.93 1.38999C61.687 0.421344 59.2627 -0.0560149 56.82 -0.0100047L56.77 -4.50853e-06ZM112.37 33.09C110.351 33.1164 108.348 32.7214 106.49 31.93C104.798 31.1951 103.271 30.1273 102 28.79C100.752 27.4527 99.7925 25.8734 99.18 24.15C97.887 20.4737 97.887 16.4663 99.18 12.79C99.7948 11.0647 100.754 9.48265 102 8.13999C103.271 6.8059 104.798 5.74142 106.49 5.01C110.257 3.46303 114.483 3.46303 118.25 5.01C119.944 5.72725 121.469 6.78949 122.729 8.129C123.99 9.4685 124.957 11.0559 125.57 12.79C126.863 16.4663 126.863 20.4737 125.57 24.15C124.952 25.8732 123.989 27.4522 122.74 28.79C121.471 30.1294 119.943 31.1976 118.25 31.93C116.392 32.7222 114.389 33.1173 112.37 33.09V33.09ZM112.37 -4.50853e-06C109.824 -0.0159101 107.299 0.455921 104.93 1.38999C102.733 2.24224 100.74 3.54717 99.08 5.22C97.439 6.89961 96.1475 8.88796 95.28 11.07C94.3584 13.4269 93.9 15.9395 93.93 18.47C93.9038 21.0085 94.369 23.5282 95.3 25.89C96.1675 28.072 97.459 30.0604 99.1 31.74C100.759 33.4041 102.744 34.708 104.93 35.57C107.303 36.4985 109.832 36.9635 112.38 36.94C114.919 36.9662 117.438 36.501 119.8 35.57C121.993 34.7078 123.985 33.4034 125.652 31.738C127.319 30.0727 128.625 28.0821 129.49 25.89C131.317 21.1119 131.317 15.8281 129.49 11.05C128.616 8.86199 127.31 6.87245 125.65 5.19999C123.975 3.54604 121.981 2.2498 119.79 1.38999C117.428 0.45902 114.909 -0.00619646 112.37 0.019994V-4.50853e-06ZM78.4 36.02H82.71V16.86C82.6979 15.1983 82.9304 13.544 83.4 11.95C83.8371 10.4863 84.565 9.12589 85.54 7.94999C86.5295 6.78259 87.7799 5.8645 89.19 5.26999C90.8006 4.59276 92.5328 4.25244 94.28 4.26999V0.269994C89.28 0.369994 85.33 1.91 82.6 4.83C78.11 9.62 78.4 16.58 78.4 16.65V36.02Z" fill="white"/>
</g>
<defs>
<clipPath id="clip0">
<rect width="131.97" height="60.06" fill="white"/>
</clipPath>
</defs>
</svg>
