<svg id="prefix__Layer_1" data-name="Layer 1" xmlns="http://www.w3.org/2000/svg" viewBox="0 0 131.97 60.06"><path class="prefix__cls-1" d="M66.88 74.5a18.32 18.32 0 01-10.36 3.17 18.72 18.72 0 01-12.65-4.83c-.27-.24 0-.56.28-.38a25.16 25.16 0 0022.32 1.39c.48-.2.87.31.41.65z" transform="translate(-18.07 -17.61)"></path><path class="prefix__cls-1" d="M68.05 73.17c-.36-.46-2.37-.22-3.28-.11-.27 0-.31-.2-.07-.38 1.61-1.12 4.24-.8 4.54-.42s-.08 3-1.58 4.27c-.23.19-.45.09-.35-.16.34-.85 1.09-2.74.74-3.2zM64.84 64.73v-1.1a.27.27 0 01.28-.28H70a.27.27 0 01.28.28v.94c0 .16-.13.36-.37.69l-2.54 3.63a5.38 5.38 0 012.8.6.5.5 0 01.26.42v1.17c0 .16-.18.35-.36.25a5.64 5.64 0 00-5.18 0c-.17.09-.35-.09-.35-.25V70a1.3 1.3 0 01.18-.75L67.68 65h-2.56a.27.27 0 01-.28-.27zM74.54 64.78c-1.1 0-1.17 1.5-1.17 2.43s0 2.93 1.16 2.93 1.21-1.61 1.21-2.59a6.88 6.88 0 00-.23-2 .93.93 0 00-1-.74zm0-1.57c2.21 0 3.41 1.91 3.41 4.32s-1.32 4.19-3.41 4.19-3.36-1.9-3.36-4.27 1.2-4.24 3.36-4.24zM62.43 71.54a.33.33 0 01-.35 0 4 4 0 01-.86-1 2.93 2.93 0 01-2.46 1.09 2.12 2.12 0 01-2.23-2.33 2.55 2.55 0 011.59-2.44 10.25 10.25 0 012.81-.51 2.69 2.69 0 00-.18-1.28 1.07 1.07 0 00-.84-.39 1.15 1.15 0 00-1.2.88c0 .17-.15.3-.28.29L57 65.74a.27.27 0 01-.22-.32c.33-1.75 1.92-2.28 3.34-2.28a3.41 3.41 0 012.25.74c.72.68.65 1.59.65 2.57v2.33a2 2 0 00.57 1.38.28.28 0 010 .39l-1.15 1zm-1.5-3.64a3 3 0 01-.28 1.59 1.22 1.22 0 01-1 .68c-.58 0-.91-.44-.91-1.09 0-1.27 1.14-1.5 2.22-1.5v.32zM42.87 71.54a.33.33 0 01-.35 0 4 4 0 01-.86-1 3 3 0 01-2.46 1.09 2.12 2.12 0 01-2.2-2.29 2.54 2.54 0 011.59-2.44 10.25 10.25 0 012.81-.51 2.61 2.61 0 00-.19-1.28 1 1 0 00-.83-.39 1.14 1.14 0 00-1.2.88c0 .17-.15.3-.28.29l-1.43-.15a.27.27 0 01-.22-.32c.33-1.75 1.92-2.28 3.34-2.28a3.37 3.37 0 012.24.74c.73.68.66 1.59.66 2.57v2.33a2.07 2.07 0 00.51 1.38.27.27 0 010 .39l-1.15 1zm-1.5-3.64a3 3 0 01-.28 1.59 1.23 1.23 0 01-1 .68c-.57 0-.9-.44-.9-1.09 0-1.27 1.14-1.5 2.22-1.5v.32zM47.23 67.23c0-.89 0-2.11 1-2.11s.91 1.25.91 2.11v4.06a.27.27 0 00.26.27h1.49a.28.28 0 00.29-.27v-4.06a4.75 4.75 0 01.14-1.47 1 1 0 01.89-.63.78.78 0 01.88.66 9.82 9.82 0 010 1.44v4.06a.28.28 0 00.27.27h1.49a.28.28 0 00.29-.27v-4.84a4 4 0 00-.38-2.4 2.11 2.11 0 00-1.72-.84 2.13 2.13 0 00-2.07 1.42 2 2 0 00-1.93-1.42 2 2 0 00-2 1.42v-1a.28.28 0 00-.28-.27h-1.29a.27.27 0 00-.28.27v7.63a.27.27 0 00.28.28H47a.27.27 0 00.27-.28v-4zM81.1 71.28a.27.27 0 01-.28.28h-1.49a.28.28 0 01-.28-.28v-7.63a.28.28 0 01.28-.27h1.38a.27.27 0 01.28.21v1.17a2 2 0 012-1.55 2 2 0 011.74.91 4.85 4.85 0 01.39 2.38v4.82a.27.27 0 01-.28.24H83.4a.27.27 0 01-.26-.24v-4.63c0-1.55-.6-1.59-.94-1.59a1 1 0 00-.86.6 3.45 3.45 0 00-.24 1.46v4.12z" transform="translate(-18.07 -17.61)"></path><path class="prefix__cls-2" d="M23 71.54l-.12-.78a3.92 3.92 0 01-1.19.71 3.53 3.53 0 01-1.29.26 2.33 2.33 0 01-1.7-.61 2.1 2.1 0 01-.64-1.62 2.17 2.17 0 01.78-1.75 3.19 3.19 0 012.09-.65 7.85 7.85 0 011.89.26v-1a1.46 1.46 0 00-.37-1.14 1.85 1.85 0 00-1.25-.33 8.17 8.17 0 00-2.63.47v-1.04a4.75 4.75 0 011.32-.44 7.54 7.54 0 011.57-.16 3.1 3.1 0 012.09.59 2.27 2.27 0 01.68 1.8v5.43zm-2.25-.93a3.53 3.53 0 002.07-.77v-1.52a6.54 6.54 0 00-1.59-.2c-1.12 0-1.69.44-1.69 1.3a1.17 1.17 0 00.32.88 1.23 1.23 0 00.9.31zM31.58 71.54v-5.08a1.74 1.74 0 00-.33-1.17 1.25 1.25 0 00-1-.37 4.11 4.11 0 00-2.32.76v5.86h-1.49v-7.6h1.24l.15.84a4.93 4.93 0 013-1.06 2.21 2.21 0 011.66.58 2.26 2.26 0 01.57 1.7v5.58zM94.81 71.25a4.31 4.31 0 01-2 .45 3.53 3.53 0 01-2.7-1 5 5 0 010-5.87 3.56 3.56 0 012.73-1 4.35 4.35 0 011.89.42v1.06a5.56 5.56 0 00-1.66-.31 2.28 2.28 0 00-1.81.64 3 3 0 00-.55 2v.19a3 3 0 00.56 2 2.23 2.23 0 001.77.64 6 6 0 001.77-.3zM99.47 71.76a3.41 3.41 0 01-2.67-1.06 5 5 0 010-5.92 3.88 3.88 0 015.33 0 5 5 0 010 5.92 3.39 3.39 0 01-2.66 1.06zm0-1.2c1.4 0 2.11-.94 2.11-2.83s-.71-2.81-2.11-2.81-2.11.93-2.11 2.81.7 2.83 2.11 2.83zM114.62 71.54v-5.16a1.77 1.77 0 00-.28-1.1 1.08 1.08 0 00-.9-.36 4.2 4.2 0 00-2.2.67 1.69 1.69 0 010 .23v5.72h-1.48v-5.16a1.83 1.83 0 00-.28-1.1 1.08 1.08 0 00-.9-.36 4.06 4.06 0 00-2.19.66v6h-1.48v-7.6h1.24l.15.77a5 5 0 012.8-1 1.88 1.88 0 011.9 1.03 5 5 0 013-1.06 2.08 2.08 0 011.59.58 2.33 2.33 0 01.51 1.7v5.58zM118.29 74.62V63.94h1.24l.14.78a3.72 3.72 0 012.53-1 2.77 2.77 0 012.29 1 4.5 4.5 0 01.84 2.87 4.59 4.59 0 01-.89 3 2.85 2.85 0 01-2.35 1.11 3.32 3.32 0 01-2.32-.88v3.8zm3.49-9.7a3.35 3.35 0 00-2 .69v4.17a3.31 3.31 0 002 .72c1.38 0 2.06-.93 2.06-2.78a3.53 3.53 0 00-.5-2.11 1.76 1.76 0 00-1.56-.69zM131.62 71.54l-.12-.78a3.92 3.92 0 01-1.19.71 3.59 3.59 0 01-1.3.26 2.35 2.35 0 01-1.7-.61 2.13 2.13 0 01-.63-1.62 2.17 2.17 0 01.77-1.75 3.2 3.2 0 012.1-.65 7.85 7.85 0 011.89.26v-1a1.5 1.5 0 00-.37-1.14 1.85 1.85 0 00-1.25-.33 8.18 8.18 0 00-2.64.47v-1.04a4.75 4.75 0 011.32-.44 7.61 7.61 0 011.57-.16 3.15 3.15 0 012.1.59 2.27 2.27 0 01.67 1.8v5.43zm-2.25-.93a3.53 3.53 0 002.07-.77v-1.52a6.54 6.54 0 00-1.59-.2c-1.13 0-1.69.44-1.69 1.3a1.17 1.17 0 00.31.88 1.26 1.26 0 00.9.31zM140.18 71.54v-5.08a1.8 1.8 0 00-.32-1.17 1.25 1.25 0 00-1-.37 4.11 4.11 0 00-2.32.76v5.86h-1.48v-7.6h1.24l.15.84a4.92 4.92 0 013-1.06 2.23 2.23 0 011.67.58 2.3 2.3 0 01.56 1.66v5.58zM150 63.94l-3.46 8.93a3.5 3.5 0 01-.94 1.48 2.11 2.11 0 01-1.39.45 3.19 3.19 0 01-1.16-.21v-1.06a3.36 3.36 0 00.85.1 1.29 1.29 0 00.88-.28 2.36 2.36 0 00.57-1l.29-.76-3.06-7.67h1.59l2.19 6.22 2.11-6.22H150M47.79 33.23H22.38v-.14a10.13 10.13 0 01.62-2.61A14 14 0 0129.07 23a12 12 0 016.32-1.55 12.77 12.77 0 014.85.93 12.42 12.42 0 013.95 2.52 12 12 0 012.63 3.68 10.52 10.52 0 011 4.5zM35.62 17.61A17.45 17.45 0 0028.56 19 17.25 17.25 0 0023 22.89a17.58 17.58 0 00-3.65 5.81 20.32 20.32 0 00-1.28 7.3 21.38 21.38 0 001.26 7.5 17 17 0 003.6 5.85 16.32 16.32 0 005.62 3.83 18.8 18.8 0 007.3 1.37 21.08 21.08 0 008.64-1.75A15.45 15.45 0 0051 47.14l-3.15-2.65a12.47 12.47 0 01-5 4.51 15 15 0 01-6.88 1.7 13 13 0 01-6.7-1.55 13.61 13.61 0 01-4.14-3.72A13.27 13.27 0 0123 41a15.62 15.62 0 01-.58-3.75v-.14H52.1V34a17.61 17.61 0 00-1.1-6 16 16 0 00-3.15-5.28A15.72 15.72 0 0042.73 19a17.05 17.05 0 00-7.11-1.4M87 33.23H61.6v-.14a10.13 10.13 0 01.62-2.61 14.13 14.13 0 012.09-3.91 13.87 13.87 0 014-3.56 11.93 11.93 0 016.32-1.55 12.72 12.72 0 014.84.93 12.31 12.31 0 014 2.52A11.9 11.9 0 0186 28.59a10.67 10.67 0 011 4.5zM74.84 17.61A17.5 17.5 0 0067.77 19a17.21 17.21 0 00-5.54 3.88 17.42 17.42 0 00-3.65 5.81A20.11 20.11 0 0057.29 36a21.61 21.61 0 001.25 7.5 17.15 17.15 0 003.61 5.85 16.32 16.32 0 005.62 3.83 18.77 18.77 0 007.3 1.37 21.08 21.08 0 008.64-1.75 15.42 15.42 0 006.49-5.66l-3.15-2.65A12.38 12.38 0 0182 49a15 15 0 01-6.88 1.7 13 13 0 01-6.7-1.55 13.61 13.61 0 01-4.14-3.72 13.08 13.08 0 01-2.1-4.43 15.62 15.62 0 01-.58-3.75v-.14h29.72V34a17.86 17.86 0 00-1.06-6 16 16 0 00-3.15-5.28A15.82 15.82 0 0082 19a17.12 17.12 0 00-7.11-1.4M130.44 50.7a14.52 14.52 0 01-5.88-1.16 13.75 13.75 0 01-4.49-3.14 13.36 13.36 0 01-2.82-4.64 17.12 17.12 0 010-11.36 13.5 13.5 0 012.82-4.65 13.73 13.73 0 014.49-3.13 15.48 15.48 0 0111.76 0 13.24 13.24 0 017.32 7.78 17.12 17.12 0 010 11.36 13.44 13.44 0 01-2.83 4.64 13.65 13.65 0 01-4.49 3.14 14.49 14.49 0 01-5.88 1.16m0-33.09A19.94 19.94 0 00123 19a16.8 16.8 0 00-5.85 3.83 17.76 17.76 0 00-3.8 5.85 19.68 19.68 0 00-1.35 7.4 19.68 19.68 0 001.37 7.42 17.76 17.76 0 003.8 5.85 17.08 17.08 0 005.83 3.83 19.94 19.94 0 007.45 1.37 19.68 19.68 0 007.42-1.37 17.17 17.17 0 009.69-9.68 20.78 20.78 0 000-14.84 17.55 17.55 0 00-3.84-5.85 17.37 17.37 0 00-5.86-3.81 19.68 19.68 0 00-7.42-1.37M96.47 53.63h4.31V34.47a16.94 16.94 0 01.69-4.91 11.36 11.36 0 012.14-4 9.75 9.75 0 013.65-2.68 12.8 12.8 0 015.09-1v-4c-5 .1-8.95 1.64-11.68 4.56-4.49 4.79-4.2 11.75-4.2 11.82z" transform="translate(-18.07 -17.61)"></path></svg>
