<?xml version="1.0" encoding="UTF-8"?>
<svg xmlns="http://www.w3.org/2000/svg" xmlns:xlink="http://www.w3.org/1999/xlink" width="295.11pt" height="158.19pt" viewBox="0 0 295.11 158.19" version="1.1">
<defs>
<clipPath id="clip1">
  <path d="M 286 112 L 295.109375 112 L 295.109375 121 L 286 121 Z M 286 112 "/>
</clipPath>
<clipPath id="clip2">
  <path d="M 97 102 L 147 102 L 147 158.191406 L 97 158.191406 Z M 97 102 "/>
</clipPath>
</defs>
<g id="surface1">
<g clip-path="url(#clip1)" clip-rule="nonzero">
<path style=" stroke:none;fill-rule:nonzero;fill:rgb(92.199707%,12.5%,15.299988%);fill-opacity:1;" d="M 294.65625 116.761719 C 294.65625 118.832031 292.972656 120.519531 290.902344 120.519531 C 289.894531 120.519531 288.953125 120.128906 288.242188 119.417969 C 287.535156 118.707031 287.144531 117.765625 287.144531 116.761719 C 287.144531 115.757813 287.535156 114.8125 288.242188 114.101563 C 288.953125 113.394531 289.894531 113.003906 290.902344 113.003906 C 291.902344 113.003906 292.847656 113.394531 293.554688 114.101563 C 294.265625 114.8125 294.65625 115.757813 294.65625 116.761719 Z M 290.902344 112.554688 C 288.578125 112.554688 286.695313 114.441406 286.695313 116.761719 C 286.695313 117.882813 287.128906 118.941406 287.925781 119.734375 C 288.722656 120.53125 289.777344 120.96875 290.902344 120.96875 C 292.023438 120.96875 293.078125 120.53125 293.871094 119.734375 C 294.671875 118.941406 295.109375 117.882813 295.109375 116.761719 C 295.109375 115.636719 294.671875 114.582031 293.871094 113.785156 C 293.078125 112.992188 292.023438 112.554688 290.902344 112.554688 "/>
</g>
<path style=" stroke:none;fill-rule:nonzero;fill:rgb(92.199707%,12.5%,15.299988%);fill-opacity:1;" d="M 290.230469 114.71875 L 290.230469 116.242188 C 290.230469 116.242188 291.808594 116.347656 291.808594 115.492188 C 291.808594 114.496094 290.230469 114.714844 290.230469 114.71875 Z M 290.230469 117.207031 L 290.230469 119.625 L 289.207031 119.625 L 289.207031 113.867188 C 290.46875 113.867188 292.695313 113.53125 292.695313 115.464844 C 292.695313 116.695313 291.785156 117.019531 291.785156 117.019531 L 293.015625 119.625 L 291.996094 119.625 L 290.816406 117.207031 L 290.230469 117.207031 "/>
<path style=" stroke:none;fill-rule:nonzero;fill:rgb(92.199707%,12.5%,15.299988%);fill-opacity:1;" d="M 222.367188 96.523438 C 222.367188 94.007813 222.367188 91.980469 222.367188 86.777344 C 222.367188 85.480469 222.367188 81.339844 222.367188 78.820313 C 222.367188 78.820313 222.113281 70.785156 214.046875 70.785156 C 208.992188 70.785156 205.730469 75.25 205.730469 78.820313 C 205.730469 84.507813 210.9375 86.859375 214.046875 86.859375 C 215.910156 86.859375 217.15625 86.535156 219.929688 84.589844 C 219.929688 91.566406 219.847656 95.652344 219.929688 95.632813 C 218.082031 96.121094 217.40625 96.503906 214.046875 96.503906 C 203.796875 96.503906 195.75 88.40625 195.75 78.820313 C 195.75 66.640625 206.671875 61.136719 214.046875 61.136719 C 223.289063 61.136719 232.347656 68.265625 232.347656 78.820313 C 232.347656 85.320313 232.363281 85.15625 232.363281 86.941406 C 232.363281 90.679688 232.363281 92.949219 232.363281 96.539063 L 222.367188 96.523438 "/>
<path style=" stroke:none;fill-rule:nonzero;fill:rgb(92.199707%,12.5%,15.299988%);fill-opacity:1;" d="M 148.78125 80.242188 L 148.78125 62.027344 L 158.867188 57.640625 L 158.867188 82.28125 C 158.867188 101.613281 126.769531 101.613281 126.769531 82.609375 L 126.769531 71.675781 L 136.851563 67.222656 L 136.851563 80.335938 C 136.851563 89.433594 148.78125 89.339844 148.78125 80.242188 "/>
<path style=" stroke:none;fill-rule:nonzero;fill:rgb(92.199707%,12.5%,15.299988%);fill-opacity:1;" d="M 194.15625 96.925781 C 194.15625 96.925781 189.054688 97.238281 185.753906 95.464844 C 179.703125 92.214844 180.371094 82.71875 180.371094 82.71875 L 180.371094 64.207031 L 173.820313 64.207031 L 173.820313 54.460938 L 180.371094 54.460938 L 180.371094 48.453125 L 190.457031 43.902344 L 190.457031 54.785156 L 197.011719 54.785156 L 197.011719 64.367188 L 190.457031 64.367188 L 190.457031 83.445313 C 190.457031 83.445313 190.628906 87.992188 194.15625 87.992188 L 194.15625 96.925781 "/>
<path style=" stroke:none;fill-rule:nonzero;fill:rgb(92.199707%,12.5%,15.299988%);fill-opacity:1;" d="M 161.554688 96.503906 L 171.636719 96.503906 L 171.636719 62.007813 L 161.554688 62.007813 L 161.554688 96.503906 "/>
<path style=" stroke:none;fill-rule:nonzero;fill:rgb(92.199707%,12.5%,15.299988%);fill-opacity:1;" d="M 161.554688 59.332031 L 171.636719 59.265625 L 171.636719 52.1875 L 161.554688 56.574219 L 161.554688 59.332031 "/>
<path style=" stroke:none;fill-rule:nonzero;fill:rgb(92.199707%,12.5%,15.299988%);fill-opacity:1;" d="M 253.371094 59.660156 L 253.371094 69.894531 C 245.976563 69.894531 246.3125 74.277344 246.3125 78.335938 L 246.3125 96.527344 L 236.230469 96.527344 L 236.230469 72.492188 C 236.230469 59.984375 246.480469 59.660156 253.371094 59.660156 "/>
<path style=" stroke:none;fill-rule:nonzero;fill:rgb(92.199707%,12.5%,15.299988%);fill-opacity:1;" d="M 234.441406 25.898438 C 234.125 25.210938 232.820313 25.113281 231.371094 25.621094 L 230.960938 24.726563 L 231.390625 24.53125 L 231.035156 12.136719 L 221.847656 3.808594 L 221.414063 4.007813 L 221.003906 3.113281 C 222.332031 2.339844 223.109375 1.289063 222.792969 0.601563 C 222.429688 -0.1875 220.769531 -0.195313 219.085938 0.582031 C 217.398438 1.359375 216.324219 2.625 216.6875 3.414063 C 217.003906 4.101563 218.308594 4.191406 219.757813 3.6875 L 220.171875 4.582031 L 212.492188 8.117188 L 212.085938 7.222656 C 213.40625 6.445313 214.1875 5.394531 213.871094 4.710938 C 213.503906 3.921875 211.847656 3.914063 210.160156 4.691406 C 208.476563 5.464844 207.402344 6.734375 207.765625 7.519531 C 208.082031 8.207031 209.386719 8.300781 210.835938 7.796875 L 211.25 8.691406 L 203.863281 12.09375 L 203.453125 11.199219 C 204.777344 10.425781 205.554688 9.371094 205.234375 8.683594 C 204.875 7.898438 203.214844 7.886719 201.53125 8.664063 C 199.839844 9.441406 198.769531 10.710938 199.128906 11.496094 C 199.449219 12.183594 200.757813 12.277344 202.203125 11.773438 L 202.613281 12.664063 L 201.703125 13.085938 L 198.914063 20.910156 L 95.683594 67.960938 C 90.792969 63.621094 82.488281 62.703125 74.8125 66.238281 C 65.117188 70.703125 60.128906 80.554688 63.667969 88.242188 C 67.210938 95.933594 77.941406 98.546875 87.636719 94.082031 C 94.625 90.863281 99.148438 84.84375 99.808594 78.855469 L 104.925781 76.484375 C 105.273438 76.339844 108.347656 75.253906 111.84375 78.757813 C 113.886719 83.335938 115.707031 88.265625 114.542969 91.371094 C 114.332031 91.933594 113.6875 93.644531 110.269531 95.167969 C 107.984375 96.183594 105.984375 96.632813 103.460938 97.203125 C 99.710938 98.046875 95.035156 99.101563 87.832031 102.421875 C 81.566406 105.304688 78.042969 110.867188 74.308594 116.757813 C 69.3125 124.640625 63.652344 133.570313 49.664063 140.015625 C 45.933594 141.734375 42.492188 141.964844 39.144531 140.730469 C 28.871094 136.933594 20.9375 119.710938 18.335938 114.054688 C 13.027344 102.523438 6.382813 86.070313 9.988281 76.320313 C 11.089844 73.335938 13.148438 71.183594 16.28125 69.738281 C 30.472656 63.203125 40.585938 63.691406 49.507813 64.125 C 56.035156 64.441406 62.203125 64.734375 68.257813 61.949219 C 75.460938 58.632813 78.542969 56.121094 81.019531 54.105469 C 82.660156 52.773438 83.847656 51.804688 86.058594 50.789063 C 89.011719 49.429688 91.871094 49.277344 94.570313 50.332031 C 98.648438 51.929688 101.464844 55.800781 102.742188 58.890625 L 111.046875 55.453125 C 108.472656 49.242188 103.539063 44.199219 97.84375 41.96875 C 92.859375 40.015625 87.480469 40.246094 82.300781 42.628906 C 79.0625 44.121094 77.175781 45.652344 75.355469 47.136719 C 73.160156 48.925781 70.671875 50.945313 64.496094 53.789063 C 60.441406 55.65625 55.804688 55.433594 49.941406 55.148438 C 40.484375 54.691406 28.710938 54.125 12.523438 61.582031 C 7.191406 64.039063 3.503906 67.949219 1.558594 73.210938 C -3.148438 85.945313 3.695313 103.730469 10.175781 117.808594 C 15.367188 129.085938 23.695313 144.597656 36.035156 149.160156 C 41.648438 151.226563 47.5 150.898438 53.421875 148.171875 C 69.816406 140.621094 76.515625 130.054688 81.894531 121.566406 C 85.15625 116.421875 87.738281 112.351563 91.589844 110.578125 C 97.9375 107.65625 101.921875 106.757813 105.4375 105.964844 C 108.207031 105.339844 110.824219 104.753906 113.921875 103.378906 C 118.476563 101.347656 121.515625 98.367188 122.957031 94.515625 C 125.703125 87.179688 121.917969 79.0625 118.578125 71.902344 L 117.910156 70.457031 L 203.457031 30.777344 L 211.246094 33.808594 L 212.15625 33.386719 L 212.566406 34.28125 C 211.246094 35.050781 210.464844 36.105469 210.777344 36.792969 C 211.144531 37.582031 212.804688 37.589844 214.488281 36.8125 C 216.171875 36.035156 217.25 34.769531 216.886719 33.984375 C 216.570313 33.296875 215.261719 33.203125 213.8125 33.707031 L 213.402344 32.8125 L 220.792969 29.414063 L 221.199219 30.304688 C 219.878906 31.078125 219.097656 32.128906 219.414063 32.820313 C 219.777344 33.601563 221.4375 33.613281 223.121094 32.835938 C 224.8125 32.058594 225.882813 30.792969 225.519531 30.007813 C 225.203125 29.320313 223.894531 29.226563 222.449219 29.730469 L 222.039063 28.839844 L 229.714844 25.304688 L 230.125 26.195313 C 228.796875 26.96875 228.019531 28.023438 228.335938 28.710938 C 228.695313 29.496094 230.359375 29.503906 232.046875 28.726563 C 233.730469 27.953125 234.804688 26.683594 234.441406 25.898438 "/>
<path style=" stroke:none;fill-rule:nonzero;fill:rgb(92.199707%,12.5%,15.299988%);fill-opacity:1;" d="M 226.882813 149.296875 C 226.882813 149.296875 221.964844 149.582031 218.761719 147.835938 C 213.054688 144.726563 213.5625 133.523438 213.5625 133.523438 L 213.5625 113.875 L 207.234375 113.875 L 207.234375 104.042969 L 213.5625 104.042969 L 213.5625 99.847656 L 223.328125 99.847656 L 223.308594 104.363281 L 229.640625 104.363281 L 229.640625 114.035156 L 223.308594 114.035156 L 223.308594 135.816406 C 223.308594 135.816406 223.472656 140.367188 226.882813 140.367188 L 226.882813 149.296875 "/>
<g clip-path="url(#clip2)" clip-rule="nonzero">
<path style=" stroke:none;fill-rule:nonzero;fill:rgb(92.199707%,12.5%,15.299988%);fill-opacity:1;" d="M 146.320313 148.597656 C 137.808594 158.324219 128.726563 158.191406 125.316406 158.191406 C 108.003906 158.191406 97.417969 143.492188 97.417969 130.292969 C 97.417969 118.367188 105.394531 105.433594 120.957031 102.855469 C 130.742188 101.226563 140.257813 104.960938 146.886719 112.410156 C 144.761719 113.96875 139.9375 117.660156 139.9375 117.660156 C 134.6875 112.835938 130.996094 111.226563 125.316406 111.226563 C 120.773438 111.226563 106.25 114.960938 106.25 130.292969 C 106.25 140.371094 114.25 149.425781 125.316406 149.359375 C 133.621094 149.3125 137.238281 145.054688 139.507813 142.925781 L 146.320313 148.597656 "/>
</g>
<path style=" stroke:none;fill-rule:nonzero;fill:rgb(92.199707%,12.5%,15.299988%);fill-opacity:1;" d="M 198.785156 129.109375 L 198.785156 148.953125 L 208.53125 148.953125 L 208.53125 126.191406 C 208.53125 106.859375 177.507813 106.859375 177.507813 125.863281 L 177.507813 148.953125 L 187.253906 148.953125 L 187.253906 128.792969 C 187.253906 120.019531 198.785156 119.855469 198.785156 129.109375 "/>
<path style=" stroke:none;fill-rule:nonzero;fill:rgb(92.199707%,12.5%,15.299988%);fill-opacity:1;" d="M 284.214844 112.25 L 284.214844 122.484375 C 277.066406 122.484375 277.390625 126.867188 277.390625 130.925781 L 277.390625 148.976563 L 267.648438 148.976563 L 267.648438 125.082031 C 267.648438 113.6875 277.675781 112.25 284.214844 112.25 "/>
<path style=" stroke:none;fill-rule:nonzero;fill:rgb(92.199707%,12.5%,15.299988%);fill-opacity:1;" d="M 241.105469 123.882813 C 241.105469 123.882813 237.175781 127.4375 239.046875 132.214844 L 249.445313 121.824219 C 249.445313 121.824219 245.601563 119.851563 241.105469 123.882813 Z M 243.933594 140.242188 C 243.863281 140.289063 246.230469 140.691406 246.90625 140.691406 C 252.074219 140.691406 254.621094 137.035156 254.621094 137.035156 C 254.621094 137.035156 263.097656 137.066406 264.3125 137.039063 C 264.3125 137.039063 262.066406 142.882813 258.03125 145.480469 C 242.496094 155.503906 232.664063 143.089844 230.738281 139.835938 C 227.820313 134.925781 226.246094 120.761719 237.261719 114.648438 C 253.839844 105.453125 263.078125 121.4375 263.078125 121.4375 L 243.933594 140.242188 "/>
<path style=" stroke:none;fill-rule:nonzero;fill:rgb(92.199707%,12.5%,15.299988%);fill-opacity:1;" d="M 152.628906 123.882813 C 152.628906 123.882813 148.695313 127.4375 150.566406 132.214844 L 160.960938 121.824219 C 160.960938 121.824219 157.125 119.851563 152.628906 123.882813 Z M 175.835938 137.039063 C 175.835938 137.039063 173.585938 142.882813 169.550781 145.480469 C 154.011719 155.503906 144.183594 143.089844 142.257813 139.835938 C 139.34375 134.925781 137.765625 120.761719 148.78125 114.648438 C 165.359375 105.453125 174.597656 121.4375 174.597656 121.4375 L 155.453125 140.242188 C 155.390625 140.289063 157.753906 140.691406 158.429688 140.691406 C 163.59375 140.691406 166.144531 137.035156 166.144531 137.035156 L 175.835938 137.039063 "/>
</g>
</svg>
