<svg width="411" height="303" viewBox="0 0 411 303" fill="none" xmlns="http://www.w3.org/2000/svg">
<rect width="411" height="303" fill="white"/>
<path d="M379.007 272.597C379.007 276.368 376.238 278.899 372.96 278.899V278.876C369.589 278.899 366.871 276.368 366.871 272.598C366.871 268.829 369.589 266.305 372.96 266.305C376.239 266.304 379.007 268.828 379.007 272.597ZM381.46 272.597C381.46 267.422 377.44 264.418 372.96 264.418C368.449 264.418 364.429 267.422 364.429 272.597C364.429 277.769 368.45 280.785 372.96 280.785C377.441 280.785 381.46 277.769 381.46 272.597ZM371.55 273.289H372.46L374.569 276.992H376.885L374.549 273.133C375.756 273.047 376.749 272.472 376.749 270.847C376.749 268.828 375.357 268.179 372.999 268.179H369.588V276.992H371.549V273.289H371.55ZM371.55 271.797V269.675H372.914C373.656 269.675 374.667 269.735 374.667 270.64C374.667 271.625 374.144 271.797 373.269 271.797H371.55" fill="black"/>
<path d="M324.218 227.515L334.816 256.508H313.292L324.218 227.515ZM312.868 216.226L288.445 278.106H305.691L309.554 267.172H338.457L342.113 278.106H360.835L336.23 216.218L312.868 216.226ZM263.835 278.129H281.332V216.207L263.832 216.203L263.835 278.129ZM142.368 216.203L127.77 265.281L113.786 216.207L94.907 216.203L114.879 278.129H140.086L160.219 216.203H142.368V216.203ZM213.093 229.687H220.613C231.523 229.687 238.579 234.585 238.579 247.296C238.579 260.01 231.523 264.909 220.613 264.909H213.093V229.687ZM195.743 216.203V278.129H224.109C239.222 278.129 244.157 275.617 249.493 269.981C253.262 266.024 255.7 257.34 255.7 247.847C255.7 239.14 253.637 231.379 250.04 226.543C243.559 217.894 234.223 216.203 220.29 216.203H195.743V216.203ZM30 216.117V278.129H47.645V231.043L61.317 231.047C65.844 231.047 69.071 232.175 71.251 234.504C74.016 237.449 75.145 242.203 75.145 250.899V278.129H92.243V243.867C92.243 219.414 76.657 216.117 61.407 216.117H30V216.117ZM167.583 216.203L167.59 278.129H185.079V216.203H167.583V216.203Z" fill="black"/>
<path d="M77.023 92.902C77.023 92.902 99.527 59.699 144.46 56.264V44.218C94.691 48.215 51.593 90.367 51.593 90.367C51.593 90.367 76.003 160.932 144.46 167.393V154.589C94.223 148.269 77.023 92.902 77.023 92.902ZM144.46 129.125V140.851C106.492 134.082 95.953 94.614 95.953 94.614C95.953 94.614 114.183 74.419 144.46 71.144V84.011C144.437 84.011 144.421 84.004 144.402 84.004C128.511 82.097 116.097 96.942 116.097 96.942C116.097 96.942 123.055 121.933 144.46 129.125ZM144.46 22V44.218C145.921 44.106 147.382 44.011 148.851 43.961C205.433 42.054 242.3 90.367 242.3 90.367C242.3 90.367 199.957 141.855 155.843 141.855C151.8 141.855 148.015 141.48 144.46 140.85V154.589C147.5 154.975 150.652 155.202 153.941 155.202C194.992 155.202 224.679 134.237 253.425 109.424C258.191 113.241 277.703 122.527 281.714 126.592C254.382 149.475 190.683 167.921 154.57 167.921C151.089 167.921 147.746 167.71 144.46 167.393V186.699H300.492V22H144.46ZM144.46 71.144V56.265C145.906 56.164 147.363 56.086 148.851 56.039C189.539 54.761 216.233 91.004 216.233 91.004C216.233 91.004 187.401 131.047 156.487 131.047C152.038 131.047 148.049 130.332 144.459 129.125V84.011C160.299 85.925 163.487 92.922 173.01 108.797L194.19 90.938C194.19 90.938 178.729 70.661 152.666 70.661C149.833 70.66 147.122 70.859 144.46 71.144Z" fill="#77B900"/>
</svg>
