<svg id="svg" version="1.1" xmlns="http://www.w3.org/2000/svg" xmlns:xlink="http://www.w3.org/1999/xlink" width="400" height="157.74647887323945" viewBox="0, 0, 400,157.74647887323945"><g id="svgg"><path id="path0" d="M78.047 0.214 C 78.106 0.370,77.975 0.411,77.564 0.363 C 77.129 0.312,77.000 0.358,77.000 0.565 C 77.000 0.713,76.880 0.833,76.734 0.833 C 76.588 0.833,76.430 0.983,76.382 1.167 C 76.334 1.350,76.191 1.500,76.064 1.500 C 75.937 1.500,75.833 1.604,75.833 1.731 C 75.833 1.857,75.683 2.000,75.500 2.048 C 75.257 2.112,75.167 2.276,75.167 2.651 C 75.167 2.998,75.085 3.167,74.917 3.167 C 74.779 3.167,74.667 3.279,74.667 3.417 C 74.667 3.554,74.554 3.667,74.417 3.667 C 74.275 3.667,74.167 3.816,74.167 4.011 C 74.167 4.288,74.096 4.333,73.809 4.242 C 73.505 4.146,73.465 4.182,73.543 4.481 C 73.613 4.749,73.559 4.833,73.318 4.833 C 73.143 4.833,73.000 4.946,73.000 5.083 C 73.000 5.221,72.887 5.333,72.750 5.333 C 72.525 5.333,72.426 5.531,72.480 5.875 C 72.491 5.944,72.444 5.991,72.375 5.980 C 72.031 5.926,71.833 6.025,71.833 6.250 C 71.833 6.388,71.721 6.500,71.583 6.500 C 71.446 6.500,71.333 6.612,71.333 6.750 C 71.333 6.889,71.185 7.000,71.000 7.000 C 70.778 7.000,70.667 7.111,70.667 7.333 C 70.667 7.519,70.556 7.667,70.417 7.667 C 70.279 7.667,70.167 7.779,70.167 7.917 C 70.167 8.054,70.054 8.167,69.917 8.167 C 69.779 8.167,69.667 8.314,69.667 8.495 C 69.667 8.709,69.585 8.791,69.432 8.733 C 69.290 8.679,69.153 8.780,69.087 8.988 C 69.027 9.178,68.870 9.333,68.739 9.333 C 68.607 9.333,68.500 9.441,68.500 9.572 C 68.500 9.703,68.354 9.857,68.175 9.914 C 67.979 9.976,67.887 10.112,67.943 10.259 C 68.006 10.422,67.923 10.500,67.684 10.500 C 67.483 10.500,67.333 10.607,67.333 10.750 C 67.333 10.887,67.221 11.000,67.083 11.000 C 66.946 11.000,66.833 11.107,66.833 11.239 C 66.833 11.370,66.683 11.525,66.500 11.583 C 66.317 11.642,66.167 11.797,66.167 11.928 C 66.167 12.059,66.054 12.167,65.917 12.167 C 65.742 12.167,65.667 12.343,65.667 12.750 C 65.667 13.071,65.610 13.324,65.542 13.314 C 65.260 13.269,65.001 13.341,65.020 13.458 C 65.076 13.814,64.974 13.979,64.750 13.894 C 64.592 13.833,64.500 13.896,64.500 14.066 C 64.500 14.213,64.387 14.333,64.250 14.333 C 64.111 14.333,64.000 14.481,64.000 14.667 C 64.000 14.889,63.889 15.000,63.667 15.000 C 63.481 15.000,63.333 15.111,63.333 15.250 C 63.333 15.387,63.221 15.500,63.083 15.500 C 62.942 15.500,62.833 15.649,62.833 15.843 C 62.833 16.044,62.760 16.141,62.655 16.076 C 62.557 16.016,62.436 16.124,62.386 16.317 C 62.334 16.516,62.159 16.667,61.981 16.667 C 61.808 16.667,61.667 16.779,61.667 16.917 C 61.667 17.054,61.554 17.167,61.417 17.167 C 61.279 17.167,61.167 17.308,61.167 17.481 C 61.167 17.679,61.058 17.788,60.875 17.773 C 60.712 17.760,60.604 17.848,60.630 17.973 C 60.655 18.095,60.524 18.235,60.338 18.284 C 60.152 18.332,60.000 18.476,60.000 18.603 C 60.000 18.730,59.887 18.833,59.750 18.833 C 59.611 18.833,59.500 18.981,59.500 19.167 C 59.500 19.389,59.389 19.500,59.167 19.500 C 58.981 19.500,58.833 19.611,58.833 19.750 C 58.833 19.887,58.721 20.000,58.583 20.000 C 58.446 20.000,58.333 20.104,58.333 20.232 C 58.333 20.360,58.221 20.508,58.083 20.560 C 57.946 20.613,57.833 20.771,57.833 20.911 C 57.833 21.052,57.750 21.167,57.648 21.167 C 57.392 21.167,56.673 21.871,56.670 22.125 C 56.668 22.240,56.562 22.333,56.434 22.333 C 56.153 22.333,55.975 22.741,56.106 23.083 C 56.173 23.257,56.095 23.333,55.851 23.333 C 55.611 23.333,55.500 23.439,55.500 23.667 C 55.500 23.852,55.389 24.000,55.250 24.000 C 55.112 24.000,55.000 24.113,55.000 24.250 C 55.000 24.389,54.852 24.500,54.667 24.500 C 54.483 24.500,54.333 24.604,54.333 24.732 C 54.333 24.860,54.221 25.008,54.083 25.060 C 53.946 25.113,53.833 25.271,53.833 25.411 C 53.833 25.560,53.686 25.667,53.482 25.667 C 53.249 25.667,53.161 25.745,53.221 25.900 C 53.274 26.039,53.180 26.168,52.988 26.218 C 52.811 26.264,52.667 26.422,52.667 26.568 C 52.667 26.714,52.554 26.833,52.417 26.833 C 52.279 26.833,52.167 26.946,52.167 27.083 C 52.167 27.226,52.017 27.333,51.816 27.333 C 51.572 27.333,51.494 27.410,51.560 27.583 C 51.626 27.753,51.551 27.833,51.328 27.833 C 51.111 27.833,51.000 27.946,51.000 28.167 C 51.000 28.352,50.889 28.500,50.750 28.500 C 50.612 28.500,50.500 28.613,50.500 28.750 C 50.500 28.889,50.352 29.000,50.167 29.000 C 49.983 29.000,49.833 29.104,49.833 29.232 C 49.833 29.360,49.721 29.508,49.583 29.560 C 49.446 29.613,49.333 29.771,49.333 29.911 C 49.333 30.052,49.240 30.168,49.125 30.170 C 48.871 30.173,48.167 30.892,48.167 31.148 C 48.167 31.250,48.054 31.333,47.917 31.333 C 47.779 31.333,47.667 31.446,47.667 31.583 C 47.667 31.721,47.573 31.835,47.458 31.836 C 47.100 31.841,46.500 32.610,46.500 33.065 C 46.500 33.341,46.408 33.500,46.250 33.500 C 46.111 33.500,46.000 33.648,46.000 33.833 C 46.000 34.017,45.944 34.158,45.875 34.147 C 45.531 34.093,45.333 34.191,45.333 34.417 C 45.333 34.554,45.221 34.667,45.083 34.667 C 44.946 34.667,44.833 34.779,44.833 34.917 C 44.833 35.060,44.683 35.167,44.482 35.167 C 44.229 35.167,44.160 35.241,44.233 35.432 C 44.301 35.609,44.224 35.727,44.001 35.785 C 43.817 35.833,43.667 35.976,43.667 36.103 C 43.667 36.230,43.554 36.333,43.417 36.333 C 43.278 36.333,43.167 36.481,43.167 36.667 C 43.167 36.850,43.110 36.991,43.042 36.980 C 42.698 36.926,42.500 37.025,42.500 37.250 C 42.500 37.387,42.387 37.500,42.250 37.500 C 42.112 37.500,42.000 37.604,42.000 37.731 C 42.000 37.857,41.840 38.003,41.645 38.054 C 41.409 38.116,41.323 38.233,41.389 38.405 C 41.443 38.547,41.434 38.655,41.369 38.645 C 41.028 38.594,40.833 38.693,40.833 38.917 C 40.833 39.054,40.721 39.167,40.583 39.167 C 40.446 39.167,40.333 39.274,40.333 39.405 C 40.333 39.537,40.182 39.692,39.998 39.751 C 39.813 39.809,39.708 39.932,39.764 40.023 C 39.821 40.114,39.709 40.230,39.517 40.281 C 39.324 40.331,39.167 40.476,39.167 40.603 C 39.167 40.730,39.054 40.833,38.917 40.833 C 38.779 40.833,38.667 40.941,38.667 41.072 C 38.667 41.203,38.517 41.358,38.333 41.417 C 38.150 41.475,38.000 41.630,38.000 41.761 C 38.000 41.893,37.887 42.000,37.750 42.000 C 37.612 42.000,37.500 42.148,37.500 42.328 C 37.500 42.551,37.420 42.626,37.250 42.560 C 37.025 42.474,36.890 42.968,36.980 43.542 C 36.991 43.610,36.850 43.667,36.667 43.667 C 36.481 43.667,36.333 43.778,36.333 43.917 C 36.333 44.054,36.221 44.167,36.083 44.167 C 35.944 44.167,35.833 44.315,35.833 44.500 C 35.833 44.722,35.722 44.833,35.500 44.833 C 35.315 44.833,35.167 44.944,35.167 45.083 C 35.167 45.221,35.054 45.333,34.917 45.333 C 34.779 45.333,34.667 45.446,34.667 45.583 C 34.667 45.721,34.554 45.833,34.417 45.833 C 34.278 45.833,34.167 45.981,34.167 46.167 C 34.167 46.389,34.056 46.500,33.833 46.500 C 33.648 46.500,33.500 46.611,33.500 46.750 C 33.500 46.887,33.387 47.000,33.250 47.000 C 33.111 47.000,33.000 47.148,33.000 47.333 C 33.000 47.559,32.889 47.667,32.657 47.667 C 32.456 47.667,32.359 47.740,32.424 47.845 C 32.484 47.943,32.376 48.064,32.183 48.114 C 31.991 48.164,31.833 48.309,31.833 48.436 C 31.833 48.563,31.721 48.667,31.583 48.667 C 31.444 48.667,31.333 48.815,31.333 49.000 C 31.333 49.222,31.222 49.333,31.000 49.333 C 30.815 49.333,30.667 49.444,30.667 49.583 C 30.667 49.721,30.554 49.833,30.417 49.833 C 30.279 49.833,30.167 49.981,30.167 50.161 C 30.167 50.385,30.087 50.459,29.917 50.394 C 29.770 50.337,29.667 50.391,29.667 50.525 C 29.667 50.650,29.404 50.971,29.083 51.238 C 28.762 51.506,28.500 51.824,28.500 51.946 C 28.500 52.067,28.429 52.167,28.342 52.167 C 27.996 52.167,27.333 52.973,27.333 53.394 C 27.333 53.673,27.242 53.833,27.083 53.833 C 26.946 53.833,26.833 53.946,26.833 54.083 C 26.833 54.221,26.692 54.333,26.519 54.333 C 26.341 54.333,26.166 54.484,26.114 54.683 C 26.064 54.876,25.943 54.984,25.845 54.924 C 25.740 54.859,25.667 54.956,25.667 55.157 C 25.667 55.392,25.559 55.500,25.323 55.500 C 25.135 55.500,25.024 55.571,25.078 55.658 C 25.132 55.745,25.024 55.898,24.838 55.998 C 24.652 56.097,24.500 56.288,24.500 56.423 C 24.500 56.557,24.387 56.667,24.250 56.667 C 24.113 56.667,24.000 56.779,24.000 56.917 C 24.000 57.056,23.852 57.167,23.667 57.167 C 23.481 57.167,23.333 57.278,23.333 57.417 C 23.333 57.554,23.221 57.667,23.083 57.667 C 22.944 57.667,22.833 57.815,22.833 58.000 C 22.833 58.185,22.722 58.333,22.583 58.333 C 22.446 58.333,22.333 58.446,22.333 58.583 C 22.333 58.722,22.185 58.833,22.000 58.833 C 21.812 58.833,21.667 58.944,21.667 59.089 C 21.667 59.229,21.554 59.387,21.417 59.440 C 21.279 59.492,21.167 59.640,21.167 59.768 C 21.167 59.896,21.052 60.000,20.911 60.000 C 20.771 60.000,20.613 60.112,20.560 60.250 C 20.508 60.387,20.360 60.500,20.232 60.500 C 20.104 60.500,20.000 60.650,20.000 60.833 C 20.000 61.019,19.889 61.167,19.750 61.167 C 19.612 61.167,19.500 61.279,19.500 61.417 C 19.500 61.554,19.415 61.667,19.311 61.667 C 19.088 61.667,18.333 62.446,18.333 62.675 C 18.333 62.762,18.221 62.833,18.083 62.833 C 17.944 62.833,17.833 62.982,17.833 63.168 C 17.833 63.353,17.683 63.632,17.500 63.789 C 17.317 63.946,17.167 64.170,17.167 64.287 C 17.167 64.404,17.054 64.500,16.917 64.500 C 16.779 64.500,16.667 64.612,16.667 64.750 C 16.667 64.893,16.517 65.000,16.316 65.000 C 16.080 65.000,15.994 65.078,16.056 65.238 C 16.155 65.498,15.786 65.898,15.610 65.721 C 15.549 65.660,15.500 65.736,15.500 65.889 C 15.500 66.042,15.387 66.167,15.250 66.167 C 15.112 66.167,15.000 66.274,15.000 66.405 C 15.000 66.537,14.850 66.692,14.667 66.750 C 14.483 66.808,14.333 66.963,14.333 67.095 C 14.333 67.226,14.221 67.333,14.083 67.333 C 13.946 67.333,13.833 67.437,13.833 67.564 C 13.833 67.691,13.674 67.836,13.478 67.887 C 13.241 67.949,13.156 68.066,13.223 68.240 C 13.293 68.421,13.224 68.500,12.995 68.500 C 12.814 68.500,12.667 68.612,12.667 68.750 C 12.667 68.887,12.554 69.000,12.417 69.000 C 12.279 69.000,12.167 69.104,12.167 69.231 C 12.167 69.357,12.009 69.502,11.817 69.553 C 11.610 69.607,11.514 69.722,11.583 69.833 C 11.652 69.945,11.557 70.060,11.350 70.114 C 11.158 70.164,11.000 70.309,11.000 70.436 C 11.000 70.563,10.887 70.667,10.750 70.667 C 10.611 70.667,10.500 70.815,10.500 71.000 C 10.500 71.222,10.389 71.333,10.167 71.333 C 9.981 71.333,9.833 71.444,9.833 71.583 C 9.833 71.721,9.721 71.833,9.583 71.833 C 9.446 71.833,9.333 71.946,9.333 72.083 C 9.333 72.221,9.221 72.333,9.083 72.333 C 8.944 72.333,8.833 72.481,8.833 72.667 C 8.833 72.889,8.722 73.000,8.500 73.000 C 8.315 73.000,8.167 73.111,8.167 73.250 C 8.167 73.387,8.054 73.500,7.917 73.500 C 7.742 73.500,7.667 73.676,7.667 74.083 C 7.667 74.556,7.603 74.667,7.333 74.667 C 7.148 74.667,7.000 74.778,7.000 74.917 C 7.000 75.054,6.896 75.167,6.769 75.167 C 6.643 75.167,6.498 75.324,6.447 75.517 C 6.397 75.709,6.284 75.823,6.197 75.769 C 6.109 75.715,5.999 75.820,5.951 76.002 C 5.904 76.184,5.745 76.333,5.599 76.333 C 5.453 76.333,5.333 76.446,5.333 76.583 C 5.333 76.721,5.221 76.833,5.083 76.833 C 4.930 76.833,4.833 76.989,4.833 77.234 C 4.833 77.563,4.768 77.619,4.474 77.541 C 4.218 77.474,4.151 77.506,4.241 77.652 C 4.321 77.782,4.240 77.889,4.017 77.947 C 3.820 77.999,3.667 78.174,3.667 78.348 C 3.667 78.553,3.583 78.624,3.417 78.560 C 3.243 78.494,3.167 78.572,3.167 78.816 C 3.167 79.056,3.061 79.167,2.833 79.167 C 2.648 79.167,2.500 79.278,2.500 79.417 C 2.500 79.554,2.387 79.667,2.250 79.667 C 2.112 79.667,1.999 79.760,1.997 79.875 C 1.994 80.129,1.274 80.833,1.018 80.833 C 0.917 80.833,0.833 80.938,0.833 81.066 C 0.833 81.193,0.721 81.341,0.583 81.394 C 0.437 81.450,0.333 81.699,0.333 81.995 C 0.333 82.273,0.258 82.500,0.167 82.500 C 0.063 82.500,0.000 83.444,0.000 85.000 C 0.000 86.556,0.063 87.500,0.167 87.500 C 0.258 87.500,0.333 87.763,0.333 88.083 C 0.333 88.638,0.362 88.667,0.911 88.667 C 1.355 88.667,1.467 88.724,1.394 88.915 C 1.337 89.065,1.421 89.209,1.608 89.278 C 1.778 89.340,1.977 89.491,2.050 89.612 C 2.254 89.950,42.500 89.940,42.500 89.602 C 42.500 89.469,42.749 89.324,43.083 89.261 C 43.433 89.195,43.667 89.054,43.667 88.909 C 43.667 88.776,43.779 88.667,43.917 88.667 C 44.054 88.667,44.167 88.572,44.167 88.457 C 44.167 88.341,44.317 88.153,44.500 88.039 C 44.740 87.889,44.833 87.650,44.833 87.183 C 44.833 86.761,44.920 86.502,45.083 86.440 C 45.277 86.365,45.333 86.041,45.333 85.005 C 45.333 83.927,45.285 83.667,45.083 83.667 C 44.897 83.667,44.833 83.470,44.833 82.901 C 44.833 82.276,44.772 82.120,44.500 82.048 C 44.316 82.000,44.167 81.821,44.167 81.647 C 44.167 81.475,44.054 81.333,43.917 81.333 C 43.779 81.333,43.667 81.221,43.667 81.083 C 43.667 80.910,43.493 80.833,43.103 80.833 C 42.678 80.833,42.517 80.751,42.451 80.497 C 42.386 80.249,42.240 80.170,41.890 80.194 C 39.191 80.383,16.000 80.135,16.000 79.917 C 16.000 79.778,16.148 79.667,16.333 79.667 C 16.517 79.667,16.667 79.562,16.667 79.434 C 16.667 79.307,16.779 79.159,16.917 79.106 C 17.054 79.054,17.167 78.896,17.167 78.755 C 17.167 78.615,17.279 78.500,17.417 78.500 C 17.554 78.500,17.667 78.396,17.667 78.269 C 17.667 78.143,17.817 78.000,18.000 77.952 C 18.183 77.904,18.333 77.745,18.333 77.599 C 18.333 77.453,18.446 77.333,18.583 77.333 C 18.721 77.333,18.833 77.221,18.833 77.083 C 18.833 76.946,18.942 76.833,19.076 76.833 C 19.221 76.833,19.362 76.599,19.428 76.250 C 19.495 75.892,19.633 75.667,19.786 75.667 C 19.939 75.667,19.999 75.570,19.940 75.417 C 19.873 75.244,19.951 75.167,20.191 75.167 C 20.446 75.167,20.518 75.085,20.459 74.861 C 20.395 74.615,20.456 74.570,20.773 74.630 C 21.087 74.690,21.167 74.634,21.167 74.353 C 21.167 74.150,21.273 74.000,21.417 74.000 C 21.554 74.000,21.667 73.887,21.667 73.750 C 21.667 73.612,21.760 73.499,21.875 73.497 C 22.198 73.493,22.879 72.694,22.780 72.435 C 22.716 72.269,22.789 72.230,23.039 72.295 C 23.323 72.370,23.370 72.325,23.297 72.047 C 23.227 71.777,23.273 71.726,23.531 71.793 C 23.760 71.853,23.880 71.774,23.946 71.522 C 23.997 71.327,24.143 71.167,24.269 71.167 C 24.396 71.167,24.500 71.054,24.500 70.917 C 24.500 70.779,24.613 70.667,24.750 70.667 C 24.887 70.667,25.000 70.563,25.000 70.436 C 25.000 70.309,25.150 70.166,25.333 70.118 C 25.517 70.070,25.667 69.912,25.667 69.766 C 25.667 69.620,25.779 69.500,25.917 69.500 C 26.054 69.500,26.167 69.396,26.167 69.269 C 26.167 69.143,26.317 69.000,26.500 68.952 C 26.683 68.904,26.833 68.745,26.833 68.599 C 26.833 68.453,26.946 68.333,27.083 68.333 C 27.221 68.333,27.333 68.221,27.333 68.083 C 27.333 67.946,27.446 67.833,27.583 67.833 C 27.721 67.833,27.833 67.762,27.833 67.674 C 27.833 67.468,28.634 66.667,28.841 66.667 C 28.928 66.667,29.000 66.442,29.000 66.167 C 29.000 65.833,29.083 65.667,29.250 65.667 C 29.389 65.667,29.500 65.519,29.500 65.333 C 29.500 65.111,29.611 65.000,29.833 65.000 C 30.019 65.000,30.167 64.889,30.167 64.750 C 30.167 64.612,30.279 64.500,30.417 64.500 C 30.556 64.500,30.667 64.352,30.667 64.167 C 30.667 63.944,30.778 63.833,31.000 63.833 C 31.185 63.833,31.333 63.722,31.333 63.583 C 31.333 63.446,31.446 63.333,31.583 63.333 C 31.721 63.333,31.833 63.221,31.833 63.083 C 31.833 62.946,31.949 62.833,32.091 62.833 C 32.243 62.833,32.328 62.715,32.299 62.542 C 32.266 62.347,32.375 62.232,32.625 62.197 C 32.831 62.167,33.000 62.036,33.000 61.905 C 33.000 61.774,33.112 61.667,33.250 61.667 C 33.387 61.667,33.500 61.563,33.500 61.436 C 33.500 61.309,33.650 61.166,33.833 61.118 C 34.017 61.070,34.167 60.912,34.167 60.766 C 34.167 60.620,34.279 60.500,34.417 60.500 C 34.554 60.500,34.667 60.387,34.667 60.250 C 34.667 60.112,34.779 60.000,34.917 60.000 C 35.056 60.000,35.167 59.852,35.167 59.667 C 35.167 59.444,35.278 59.333,35.500 59.333 C 35.685 59.333,35.833 59.222,35.833 59.083 C 35.833 58.946,35.946 58.833,36.083 58.833 C 36.221 58.833,36.333 58.718,36.333 58.578 C 36.333 58.438,36.446 58.280,36.583 58.227 C 36.721 58.174,36.833 58.027,36.833 57.899 C 36.833 57.771,36.927 57.665,37.042 57.664 C 37.296 57.660,38.000 56.941,38.000 56.685 C 38.000 56.583,38.104 56.500,38.232 56.500 C 38.475 56.500,38.742 55.756,38.588 55.508 C 38.539 55.429,38.650 55.404,38.833 55.452 C 39.089 55.519,39.167 55.457,39.167 55.186 C 39.167 54.992,39.270 54.833,39.397 54.833 C 39.524 54.833,39.667 54.683,39.715 54.499 C 39.773 54.276,39.891 54.199,40.068 54.267 C 40.243 54.334,40.333 54.278,40.333 54.101 C 40.333 53.954,40.446 53.833,40.583 53.833 C 40.738 53.833,40.833 53.677,40.833 53.422 C 40.833 53.125,40.903 53.037,41.083 53.106 C 41.242 53.167,41.333 53.104,41.333 52.934 C 41.333 52.778,41.472 52.667,41.667 52.667 C 41.852 52.667,42.000 52.556,42.000 52.417 C 42.000 52.279,42.112 52.167,42.250 52.167 C 42.389 52.167,42.500 52.019,42.500 51.833 C 42.500 51.611,42.611 51.500,42.833 51.500 C 43.019 51.500,43.167 51.389,43.167 51.250 C 43.167 51.112,43.279 51.000,43.417 51.000 C 43.556 51.000,43.667 50.852,43.667 50.667 C 43.667 50.481,43.778 50.333,43.917 50.333 C 44.054 50.333,44.167 50.221,44.167 50.083 C 44.167 49.944,44.315 49.833,44.500 49.833 C 44.683 49.833,44.833 49.729,44.833 49.601 C 44.833 49.473,44.946 49.326,45.083 49.273 C 45.221 49.220,45.333 49.062,45.333 48.922 C 45.333 48.782,45.446 48.667,45.583 48.667 C 45.721 48.667,45.833 48.554,45.833 48.417 C 45.833 48.279,45.953 48.167,46.099 48.167 C 46.245 48.167,46.404 48.017,46.452 47.833 C 46.500 47.650,46.643 47.500,46.769 47.500 C 46.896 47.500,47.000 47.387,47.000 47.250 C 47.000 47.112,47.112 47.000,47.250 47.000 C 47.387 47.000,47.500 46.887,47.500 46.750 C 47.500 46.612,47.620 46.500,47.766 46.500 C 47.912 46.500,48.070 46.350,48.118 46.167 C 48.166 45.983,48.309 45.833,48.436 45.833 C 48.581 45.833,48.667 45.648,48.667 45.333 C 48.667 44.944,48.741 44.833,49.000 44.833 C 49.222 44.833,49.333 44.722,49.333 44.500 C 49.333 44.315,49.444 44.167,49.583 44.167 C 49.721 44.167,49.833 44.054,49.833 43.917 C 49.833 43.778,49.981 43.667,50.167 43.667 C 50.389 43.667,50.500 43.556,50.500 43.333 C 50.500 43.148,50.611 43.000,50.750 43.000 C 50.887 43.000,51.000 42.887,51.000 42.750 C 51.000 42.612,51.112 42.500,51.250 42.500 C 51.387 42.500,51.500 42.396,51.500 42.269 C 51.500 42.143,51.650 42.000,51.833 41.952 C 52.017 41.904,52.167 41.745,52.167 41.599 C 52.167 41.453,52.279 41.333,52.417 41.333 C 52.554 41.333,52.667 41.221,52.667 41.083 C 52.667 40.946,52.779 40.833,52.917 40.833 C 53.054 40.833,53.167 40.730,53.167 40.603 C 53.167 40.476,53.317 40.333,53.500 40.285 C 53.683 40.237,53.833 40.078,53.833 39.932 C 53.833 39.786,53.946 39.667,54.083 39.667 C 54.221 39.667,54.333 39.554,54.333 39.417 C 54.333 39.279,54.453 39.167,54.599 39.167 C 54.745 39.167,54.904 39.017,54.952 38.833 C 55.000 38.650,55.143 38.500,55.269 38.500 C 55.396 38.500,55.500 38.387,55.500 38.250 C 55.500 38.112,55.612 38.000,55.750 38.000 C 55.887 38.000,56.000 37.928,56.000 37.841 C 56.000 37.634,56.801 36.833,57.008 36.833 C 57.095 36.833,57.167 36.721,57.167 36.583 C 57.167 36.446,57.279 36.333,57.417 36.333 C 57.554 36.333,57.667 36.214,57.667 36.068 C 57.667 35.922,57.817 35.763,58.000 35.715 C 58.236 35.653,58.333 35.488,58.333 35.147 C 58.333 34.831,58.419 34.667,58.583 34.667 C 58.722 34.667,58.833 34.519,58.833 34.333 C 58.833 34.111,58.944 34.000,59.167 34.000 C 59.352 34.000,59.500 33.889,59.500 33.750 C 59.500 33.612,59.612 33.500,59.750 33.500 C 59.887 33.500,60.000 33.387,60.000 33.250 C 60.000 33.112,60.112 33.000,60.250 33.000 C 60.389 33.000,60.500 32.852,60.500 32.667 C 60.500 32.444,60.611 32.333,60.833 32.333 C 61.019 32.333,61.167 32.222,61.167 32.083 C 61.167 31.946,61.279 31.833,61.417 31.833 C 61.554 31.833,61.667 31.730,61.667 31.603 C 61.667 31.476,61.817 31.333,62.000 31.285 C 62.183 31.237,62.333 31.078,62.333 30.932 C 62.333 30.786,62.446 30.667,62.583 30.667 C 62.721 30.667,62.833 30.554,62.833 30.417 C 62.833 30.279,62.946 30.167,63.083 30.167 C 63.222 30.167,63.333 30.019,63.333 29.833 C 63.333 29.611,63.444 29.500,63.667 29.500 C 63.852 29.500,64.000 29.389,64.000 29.250 C 64.000 29.113,64.112 29.000,64.250 29.000 C 64.387 29.000,64.500 28.896,64.500 28.768 C 64.500 28.640,64.612 28.492,64.750 28.440 C 64.887 28.387,65.000 28.229,65.000 28.089 C 65.000 27.948,65.083 27.833,65.185 27.833 C 65.441 27.833,66.160 27.129,66.164 26.875 C 66.165 26.760,66.274 26.667,66.404 26.667 C 66.535 26.667,66.677 26.535,66.718 26.375 C 66.760 26.215,66.803 26.365,66.814 26.708 C 66.830 27.229,66.778 27.333,66.500 27.333 C 66.211 27.333,66.167 27.444,66.167 28.167 C 66.167 28.821,66.109 29.000,65.899 29.000 C 65.689 29.000,65.645 29.138,65.693 29.641 C 65.745 30.186,65.710 30.270,65.460 30.205 C 65.262 30.153,65.159 30.229,65.142 30.439 C 65.128 30.610,65.102 30.863,65.083 31.000 C 65.065 31.137,65.038 31.381,65.025 31.542 C 65.011 31.702,64.887 31.833,64.750 31.833 C 64.561 31.833,64.500 32.037,64.500 32.667 C 64.500 33.314,64.441 33.500,64.237 33.500 C 64.055 33.500,63.984 33.640,64.005 33.958 C 64.070 34.944,64.008 35.167,63.667 35.167 C 63.397 35.167,63.333 35.278,63.333 35.750 C 63.333 36.157,63.258 36.333,63.083 36.333 C 62.894 36.333,62.833 36.537,62.833 37.167 C 62.833 37.796,62.772 38.000,62.583 38.000 C 62.394 38.000,62.333 38.204,62.333 38.833 C 62.333 39.556,62.289 39.667,62.000 39.667 C 61.730 39.667,61.667 39.778,61.667 40.250 C 61.667 40.672,61.593 40.833,61.401 40.833 C 61.184 40.833,61.146 40.997,61.193 41.734 C 61.224 42.230,61.201 42.605,61.140 42.567 C 60.873 42.401,60.526 42.728,60.534 43.138 C 60.550 43.983,60.499 44.167,60.250 44.167 C 60.075 44.167,60.000 44.343,60.000 44.750 C 60.000 45.157,59.925 45.333,59.750 45.333 C 59.562 45.333,59.500 45.535,59.500 46.147 C 59.500 46.821,59.443 46.976,59.167 47.048 C 58.894 47.120,58.833 47.276,58.833 47.901 C 58.833 48.470,58.769 48.667,58.583 48.667 C 58.409 48.667,58.333 48.843,58.333 49.250 C 58.333 49.636,58.255 49.833,58.102 49.833 C 57.955 49.833,57.829 50.115,57.755 50.609 C 57.691 51.036,57.532 51.492,57.403 51.621 C 57.273 51.751,57.167 52.152,57.167 52.512 C 57.167 52.983,57.096 53.167,56.917 53.167 C 56.742 53.167,56.667 53.343,56.667 53.750 C 56.667 54.157,56.591 54.333,56.417 54.333 C 56.279 54.333,56.157 54.390,56.145 54.458 C 56.041 55.070,56.069 55.436,56.228 55.539 C 56.360 55.625,56.352 55.662,56.198 55.664 C 56.079 55.666,56.021 55.733,56.072 55.814 C 56.122 55.896,56.014 56.001,55.831 56.049 C 55.321 56.182,55.322 59.818,55.832 59.951 C 56.083 60.017,56.140 60.132,56.066 60.425 C 55.996 60.704,56.066 60.872,56.318 61.029 C 56.510 61.149,56.667 61.341,56.667 61.457 C 56.667 61.572,56.779 61.667,56.917 61.667 C 57.054 61.667,57.167 61.779,57.167 61.917 C 57.167 62.091,57.343 62.167,57.750 62.167 C 58.222 62.167,58.333 62.230,58.333 62.500 C 58.333 62.815,58.444 62.833,60.320 62.833 C 62.441 62.833,62.833 62.765,62.833 62.399 C 62.833 62.271,62.946 62.167,63.083 62.167 C 63.221 62.167,63.333 62.054,63.333 61.917 C 63.333 61.778,63.481 61.667,63.667 61.667 C 63.852 61.667,64.000 61.556,64.000 61.417 C 64.000 61.279,64.112 61.167,64.250 61.167 C 64.389 61.167,64.500 61.019,64.500 60.833 C 64.500 60.648,64.611 60.500,64.750 60.500 C 64.939 60.500,65.000 60.296,65.000 59.667 C 65.000 58.944,65.044 58.833,65.333 58.833 C 65.603 58.833,65.667 58.722,65.667 58.250 C 65.667 57.843,65.742 57.667,65.917 57.667 C 66.105 57.667,66.167 57.465,66.167 56.853 C 66.167 56.179,66.224 56.024,66.500 55.952 C 66.772 55.880,66.833 55.724,66.833 55.099 C 66.833 54.530,66.897 54.333,67.083 54.333 C 67.258 54.333,67.333 54.157,67.333 53.750 C 67.333 53.343,67.409 53.167,67.583 53.167 C 67.771 53.167,67.833 52.965,67.833 52.353 C 67.833 51.679,67.891 51.524,68.167 51.452 C 68.439 51.380,68.500 51.224,68.500 50.599 C 68.500 50.030,68.564 49.833,68.750 49.833 C 68.925 49.833,69.000 49.657,69.000 49.250 C 69.000 48.843,69.075 48.667,69.250 48.667 C 69.439 48.667,69.500 48.463,69.500 47.833 C 69.500 47.111,69.544 47.000,69.833 47.000 C 70.122 47.000,70.167 46.889,70.167 46.167 C 70.167 45.537,70.228 45.333,70.417 45.333 C 70.591 45.333,70.667 45.157,70.667 44.750 C 70.667 44.364,70.745 44.167,70.897 44.167 C 71.150 44.167,71.328 43.672,71.331 42.958 C 71.333 42.663,71.422 42.500,71.583 42.500 C 71.772 42.500,71.833 42.296,71.833 41.667 C 71.833 41.037,71.894 40.833,72.083 40.833 C 72.272 40.833,72.333 40.630,72.333 40.000 C 72.333 39.278,72.378 39.167,72.667 39.167 C 72.937 39.167,73.000 39.056,73.000 38.583 C 73.000 38.176,73.075 38.000,73.250 38.000 C 73.438 38.000,73.500 37.798,73.500 37.186 C 73.500 36.512,73.557 36.357,73.833 36.285 C 74.106 36.214,74.167 36.058,74.167 35.432 C 74.167 34.863,74.231 34.667,74.417 34.667 C 74.591 34.667,74.667 34.491,74.667 34.083 C 74.667 33.676,74.742 33.500,74.917 33.500 C 75.105 33.500,75.167 33.298,75.167 32.686 C 75.167 32.012,75.224 31.857,75.500 31.785 C 75.772 31.714,75.833 31.558,75.833 30.932 C 75.833 30.339,75.894 30.167,76.102 30.167 C 76.309 30.167,76.353 30.046,76.295 29.644 C 76.235 29.238,76.286 29.104,76.526 29.042 C 76.771 28.978,76.833 28.799,76.833 28.167 C 76.833 27.512,76.892 27.357,77.167 27.285 C 77.439 27.214,77.500 27.058,77.500 26.432 C 77.500 25.863,77.564 25.667,77.750 25.667 C 77.925 25.667,78.000 25.491,78.000 25.083 C 78.000 24.698,78.078 24.500,78.231 24.500 C 78.481 24.500,78.661 24.007,78.664 23.309 C 78.666 23.067,78.779 22.826,78.917 22.773 C 79.088 22.707,79.167 22.439,79.167 21.922 C 79.167 21.362,79.231 21.167,79.417 21.167 C 79.591 21.167,79.667 20.991,79.667 20.583 C 79.667 20.196,79.745 20.000,79.899 20.000 C 80.188 20.000,80.333 19.638,80.333 18.921 C 80.333 18.584,80.431 18.332,80.583 18.273 C 80.755 18.207,80.833 17.939,80.833 17.422 C 80.833 16.862,80.898 16.667,81.083 16.667 C 81.271 16.667,81.333 16.465,81.333 15.853 C 81.333 15.164,81.388 15.025,81.686 14.947 C 81.977 14.871,82.027 14.754,81.973 14.286 C 81.917 13.806,81.953 13.729,82.203 13.795 C 82.459 13.861,82.500 13.756,82.500 13.039 C 82.500 12.346,82.556 12.191,82.833 12.118 C 83.104 12.048,83.167 11.891,83.167 11.283 C 83.167 10.772,83.246 10.505,83.417 10.440 C 83.560 10.385,83.667 10.136,83.667 9.856 C 83.667 9.564,83.773 9.328,83.933 9.267 C 84.137 9.188,84.185 8.980,84.141 8.365 C 84.090 7.655,84.121 7.566,84.417 7.574 C 84.703 7.582,84.757 7.459,84.800 6.708 C 84.837 6.079,84.918 5.833,85.092 5.833 C 85.283 5.833,85.333 5.553,85.333 4.500 C 85.333 3.426,85.285 3.167,85.083 3.167 C 84.897 3.167,84.833 2.970,84.833 2.401 C 84.833 1.776,84.772 1.620,84.500 1.548 C 84.316 1.500,84.167 1.321,84.167 1.147 C 84.167 0.975,84.054 0.833,83.917 0.833 C 83.779 0.833,83.667 0.721,83.667 0.583 C 83.667 0.409,83.491 0.333,83.083 0.333 C 82.762 0.333,82.500 0.258,82.500 0.167 C 82.500 0.064,81.633 0.000,80.232 0.000 C 78.453 0.000,77.982 0.046,78.047 0.214 M106.833 52.417 C 106.833 52.605,106.632 52.667,106.018 52.667 C 105.447 52.667,105.174 52.742,105.106 52.917 C 105.050 53.063,104.801 53.167,104.505 53.167 C 104.111 53.167,104.000 53.240,104.000 53.500 C 104.000 53.770,103.889 53.833,103.417 53.833 C 103.009 53.833,102.833 53.909,102.833 54.083 C 102.833 54.221,102.721 54.333,102.583 54.333 C 102.442 54.333,102.333 54.483,102.333 54.677 C 102.333 54.865,102.265 54.977,102.181 54.925 C 102.097 54.874,101.990 54.925,101.944 55.041 C 101.888 55.180,101.855 55.186,101.846 55.057 C 101.828 54.783,101.167 54.989,101.167 55.269 C 101.167 55.396,101.054 55.500,100.917 55.500 C 100.687 55.500,100.648 55.603,100.599 56.331 C 100.590 56.467,100.452 56.604,100.291 56.635 C 100.131 56.666,100.000 56.798,100.000 56.929 C 100.000 57.060,99.888 57.167,99.750 57.167 C 99.575 57.167,99.500 57.343,99.500 57.750 C 99.500 58.222,99.437 58.333,99.167 58.333 C 98.907 58.333,98.833 58.444,98.833 58.839 C 98.833 59.134,98.729 59.384,98.583 59.440 C 98.397 59.511,98.333 59.808,98.333 60.601 C 98.333 61.397,98.275 61.667,98.103 61.667 C 97.749 61.667,97.671 62.219,97.671 64.750 C 97.671 67.281,97.749 67.833,98.103 67.833 C 98.276 67.833,98.333 68.106,98.333 68.922 C 98.333 69.736,98.396 70.035,98.583 70.106 C 98.724 70.160,98.833 70.408,98.833 70.673 C 98.833 71.034,98.921 71.156,99.208 71.197 C 99.523 71.241,99.575 71.337,99.529 71.792 C 99.489 72.197,99.541 72.333,99.737 72.333 C 99.882 72.333,100.000 72.453,100.000 72.599 C 100.000 72.745,100.149 72.904,100.331 72.951 C 100.514 72.999,100.619 73.109,100.565 73.197 C 100.511 73.284,100.624 73.397,100.817 73.447 C 101.009 73.498,101.167 73.643,101.167 73.769 C 101.167 73.896,101.270 74.000,101.397 74.000 C 101.524 74.000,101.667 74.150,101.715 74.333 C 101.763 74.517,101.922 74.667,102.068 74.667 C 102.214 74.667,102.333 74.779,102.333 74.917 C 102.333 75.083,102.500 75.167,102.833 75.167 C 103.167 75.167,103.333 75.250,103.333 75.417 C 103.333 75.554,103.475 75.667,103.647 75.667 C 103.821 75.667,104.000 75.816,104.048 76.000 C 104.120 76.272,104.276 76.333,104.901 76.333 C 105.494 76.333,105.667 76.394,105.667 76.602 C 105.667 76.808,105.788 76.853,106.181 76.796 C 106.603 76.734,106.722 76.790,106.844 77.110 C 106.969 77.440,107.109 77.500,107.746 77.500 C 108.305 77.500,108.500 77.565,108.500 77.750 C 108.500 77.939,108.704 78.000,109.333 78.000 C 109.981 78.000,110.167 78.059,110.167 78.263 C 110.167 78.471,110.328 78.515,110.947 78.477 C 111.515 78.442,111.748 78.495,111.805 78.673 C 111.923 79.041,112.186 79.161,112.875 79.164 C 113.341 79.166,113.500 79.236,113.500 79.438 C 113.500 79.656,113.616 79.691,114.083 79.616 C 114.582 79.535,114.667 79.568,114.667 79.844 C 114.667 80.102,114.784 80.167,115.250 80.167 C 115.722 80.167,115.833 80.230,115.833 80.500 C 115.833 80.685,115.944 80.833,116.083 80.833 C 116.221 80.833,116.333 80.937,116.333 81.064 C 116.333 81.191,116.491 81.336,116.683 81.386 C 116.890 81.440,116.986 81.555,116.917 81.667 C 116.848 81.778,116.943 81.893,117.150 81.947 C 117.439 82.023,117.500 82.167,117.500 82.775 C 117.500 83.275,117.580 83.541,117.750 83.606 C 117.936 83.678,118.000 83.974,118.000 84.768 C 118.000 85.604,117.946 85.833,117.750 85.833 C 117.575 85.833,117.500 86.009,117.500 86.417 C 117.500 86.824,117.425 87.000,117.250 87.000 C 116.997 87.000,116.964 87.086,116.932 87.833 C 116.919 88.132,116.832 88.236,116.624 88.201 C 116.452 88.172,116.333 88.257,116.333 88.409 C 116.333 88.551,116.221 88.667,116.083 88.667 C 115.946 88.667,115.833 88.799,115.833 88.960 C 115.833 89.121,115.675 89.352,115.483 89.472 C 115.290 89.593,115.182 89.611,115.242 89.512 C 115.308 89.407,115.212 89.333,115.010 89.333 C 114.816 89.333,114.667 89.442,114.667 89.583 C 114.667 89.758,114.491 89.833,114.083 89.833 C 113.676 89.833,113.500 89.909,113.500 90.083 C 113.500 90.292,113.167 90.333,111.500 90.333 C 109.773 90.333,109.500 90.297,109.500 90.065 C 109.500 89.859,109.371 89.812,108.941 89.862 C 108.517 89.912,108.387 89.866,108.400 89.672 C 108.411 89.501,108.237 89.399,107.875 89.364 C 107.468 89.325,107.333 89.232,107.333 88.989 C 107.333 88.812,107.221 88.667,107.083 88.667 C 106.946 88.667,106.833 88.554,106.833 88.417 C 106.833 88.278,106.685 88.167,106.500 88.167 C 106.230 88.167,106.167 88.056,106.167 87.583 C 106.167 87.176,106.091 87.000,105.917 87.000 C 105.742 87.000,105.667 86.824,105.667 86.417 C 105.667 85.944,105.603 85.833,105.333 85.833 C 105.044 85.833,105.000 85.722,105.000 85.000 C 105.000 84.370,104.939 84.167,104.750 84.167 C 104.565 84.167,104.500 83.972,104.500 83.411 C 104.500 82.894,104.421 82.626,104.250 82.560 C 104.112 82.508,104.000 82.285,104.000 82.067 C 104.000 81.848,103.850 81.576,103.667 81.461 C 103.483 81.347,103.333 81.159,103.333 81.043 C 103.333 80.928,103.221 80.833,103.083 80.833 C 102.946 80.833,102.833 80.721,102.833 80.583 C 102.833 80.306,102.751 80.296,100.591 80.302 C 99.426 80.305,99.057 80.364,98.906 80.570 C 98.800 80.715,98.628 80.833,98.523 80.833 C 98.419 80.833,98.333 80.946,98.333 81.083 C 98.333 81.221,98.221 81.333,98.083 81.333 C 97.946 81.333,97.822 81.483,97.808 81.667 C 97.795 81.850,97.776 82.094,97.767 82.208 C 97.757 82.323,97.619 82.470,97.458 82.536 C 97.072 82.695,97.025 87.910,97.409 88.057 C 97.532 88.104,97.684 88.523,97.748 88.988 C 97.825 89.548,97.944 89.833,98.099 89.833 C 98.249 89.833,98.333 90.016,98.333 90.339 C 98.333 90.634,98.437 90.884,98.583 90.940 C 98.721 90.992,98.833 91.222,98.833 91.450 C 98.833 91.724,98.946 91.894,99.167 91.952 C 99.351 92.000,99.500 92.179,99.500 92.353 C 99.500 92.525,99.612 92.667,99.750 92.667 C 99.914 92.667,100.000 92.831,100.000 93.147 C 100.000 93.488,100.097 93.653,100.333 93.715 C 100.517 93.763,100.667 93.922,100.667 94.068 C 100.667 94.214,100.779 94.333,100.917 94.333 C 101.054 94.333,101.167 94.446,101.167 94.583 C 101.167 94.721,101.279 94.833,101.417 94.833 C 101.554 94.833,101.667 94.938,101.667 95.066 C 101.667 95.320,102.017 95.500,102.514 95.500 C 102.689 95.500,102.833 95.612,102.833 95.750 C 102.833 95.888,102.938 96.000,103.066 96.000 C 103.193 96.000,103.341 96.112,103.394 96.250 C 103.449 96.393,103.697 96.500,103.975 96.500 C 104.321 96.500,104.486 96.596,104.548 96.833 C 104.620 97.106,104.776 97.167,105.401 97.167 C 105.970 97.167,106.167 97.231,106.167 97.417 C 106.167 97.620,106.444 97.667,107.661 97.667 C 108.858 97.667,109.139 97.712,109.069 97.895 C 108.941 98.228,109.508 98.329,111.500 98.329 C 113.457 98.329,114.000 98.235,114.000 97.897 C 114.000 97.719,114.322 97.667,115.417 97.667 C 116.565 97.667,116.833 97.619,116.833 97.417 C 116.833 97.228,117.036 97.167,117.655 97.167 C 118.331 97.167,118.496 97.107,118.583 96.833 C 118.657 96.600,118.836 96.500,119.178 96.500 C 119.501 96.500,119.667 96.415,119.667 96.250 C 119.667 96.111,119.815 96.000,120.000 96.000 C 120.185 96.000,120.333 95.889,120.333 95.750 C 120.333 95.592,120.492 95.500,120.766 95.500 C 121.058 95.500,121.226 95.392,121.285 95.167 C 121.333 94.982,121.512 94.833,121.686 94.833 C 121.859 94.833,122.000 94.721,122.000 94.583 C 122.000 94.446,122.112 94.333,122.250 94.333 C 122.388 94.333,122.500 94.221,122.500 94.083 C 122.500 93.946,122.607 93.833,122.739 93.833 C 122.870 93.833,123.023 93.690,123.078 93.515 C 123.134 93.341,123.289 93.155,123.423 93.104 C 123.563 93.050,123.667 92.795,123.667 92.505 C 123.667 92.167,123.749 92.000,123.917 92.000 C 124.081 92.000,124.167 91.835,124.167 91.519 C 124.167 91.179,124.264 91.013,124.500 90.952 C 124.743 90.888,124.833 90.724,124.833 90.349 C 124.833 90.002,124.915 89.833,125.083 89.833 C 125.272 89.833,125.333 89.630,125.333 89.000 C 125.333 88.370,125.394 88.167,125.583 88.167 C 125.799 88.167,125.833 87.556,125.833 83.667 C 125.833 79.778,125.799 79.167,125.583 79.167 C 125.394 79.167,125.333 78.963,125.333 78.333 C 125.333 77.704,125.272 77.500,125.083 77.500 C 124.915 77.500,124.833 77.332,124.833 76.984 C 124.833 76.609,124.743 76.445,124.500 76.382 C 124.250 76.316,124.167 76.154,124.167 75.731 C 124.167 75.340,124.090 75.167,123.917 75.167 C 123.779 75.167,123.667 75.054,123.667 74.917 C 123.667 74.779,123.559 74.667,123.428 74.667 C 123.297 74.667,123.142 74.517,123.083 74.333 C 123.025 74.150,122.870 74.000,122.739 74.000 C 122.607 74.000,122.500 73.887,122.500 73.750 C 122.500 73.612,122.396 73.500,122.268 73.500 C 122.140 73.500,121.992 73.387,121.940 73.250 C 121.884 73.104,121.634 73.000,121.339 73.000 C 120.944 73.000,120.833 72.927,120.833 72.667 C 120.833 72.478,120.722 72.333,120.578 72.333 C 120.438 72.333,120.280 72.221,120.227 72.083 C 120.172 71.941,119.924 71.833,119.649 71.833 C 119.331 71.833,119.167 71.748,119.167 71.583 C 119.167 71.335,119.048 71.300,118.085 71.263 C 117.755 71.250,117.568 71.145,117.531 70.955 C 117.491 70.749,117.313 70.667,116.904 70.667 C 116.508 70.667,116.333 70.590,116.333 70.417 C 116.333 70.228,116.130 70.167,115.500 70.167 C 114.875 70.167,114.667 70.105,114.667 69.920 C 114.667 69.600,114.053 69.452,113.032 69.525 C 112.310 69.577,112.228 69.549,112.300 69.277 C 112.365 69.026,112.292 68.976,111.898 69.003 C 110.959 69.066,110.667 69.003,110.667 68.734 C 110.667 68.525,110.532 68.484,110.028 68.543 C 109.432 68.612,109.394 68.590,109.464 68.225 C 109.530 67.881,109.475 67.833,109.014 67.833 C 108.702 67.833,108.451 67.732,108.394 67.583 C 108.340 67.444,108.093 67.333,107.835 67.333 C 107.505 67.333,107.346 67.233,107.281 66.983 C 107.230 66.791,107.118 66.677,107.030 66.731 C 106.943 66.785,106.832 66.680,106.785 66.498 C 106.736 66.312,106.557 66.167,106.378 66.167 C 106.117 66.167,106.071 66.074,106.131 65.669 C 106.183 65.316,106.125 65.140,105.935 65.067 C 105.552 64.920,105.534 62.167,105.917 62.167 C 106.054 62.167,106.167 62.054,106.167 61.917 C 106.167 61.779,106.274 61.667,106.405 61.667 C 106.537 61.667,106.692 61.517,106.750 61.333 C 106.808 61.150,106.972 61.000,107.114 61.000 C 107.284 61.000,107.344 60.894,107.291 60.688 C 107.228 60.448,107.281 60.394,107.521 60.457 C 107.731 60.512,107.833 60.451,107.833 60.269 C 107.833 60.073,107.991 60.000,108.417 60.000 C 108.880 60.000,109.000 59.935,109.000 59.681 C 109.000 59.252,109.053 59.242,111.163 59.302 C 112.851 59.350,113.000 59.380,113.000 59.677 C 113.000 59.935,113.117 60.000,113.583 60.000 C 113.991 60.000,114.167 60.075,114.167 60.250 C 114.167 60.387,114.279 60.500,114.417 60.500 C 114.554 60.500,114.667 60.612,114.667 60.750 C 114.667 60.887,114.770 61.000,114.897 61.000 C 115.024 61.000,115.167 61.150,115.215 61.333 C 115.263 61.517,115.422 61.667,115.568 61.667 C 115.714 61.667,115.833 61.779,115.833 61.917 C 115.833 62.054,115.946 62.167,116.083 62.167 C 116.257 62.167,116.333 62.341,116.333 62.738 C 116.333 63.147,116.415 63.325,116.621 63.364 C 116.812 63.401,116.916 63.589,116.929 63.918 C 116.967 64.882,117.002 65.000,117.250 65.000 C 117.417 65.000,117.500 65.167,117.500 65.505 C 117.500 65.801,117.604 66.050,117.750 66.106 C 117.888 66.159,118.000 66.307,118.000 66.434 C 118.000 66.562,118.150 66.667,118.333 66.667 C 118.556 66.667,118.667 66.778,118.667 67.000 C 118.667 67.185,118.778 67.333,118.917 67.333 C 119.054 67.333,119.167 67.443,119.167 67.577 C 119.167 67.775,119.481 67.820,120.833 67.819 C 122.178 67.817,122.500 67.770,122.500 67.575 C 122.500 67.442,122.620 67.333,122.766 67.333 C 122.912 67.333,123.070 67.183,123.118 67.000 C 123.166 66.817,123.309 66.667,123.436 66.667 C 123.563 66.667,123.667 66.554,123.667 66.417 C 123.667 66.279,123.779 66.167,123.917 66.167 C 124.115 66.167,124.167 65.926,124.167 65.000 C 124.167 63.934,124.196 63.833,124.509 63.833 C 124.814 63.833,124.846 63.746,124.801 63.042 C 124.771 62.579,124.669 62.250,124.556 62.250 C 124.193 62.250,124.128 62.018,124.133 60.748 C 124.138 59.802,124.079 59.456,123.903 59.388 C 123.773 59.338,123.667 59.081,123.667 58.816 C 123.667 58.498,123.581 58.333,123.417 58.333 C 123.248 58.333,123.167 58.165,123.167 57.818 C 123.167 57.442,123.076 57.278,122.833 57.215 C 122.650 57.167,122.500 57.024,122.500 56.897 C 122.500 56.770,122.388 56.667,122.250 56.667 C 122.082 56.667,122.000 56.498,122.000 56.151 C 122.000 55.776,121.909 55.612,121.667 55.548 C 121.483 55.500,121.333 55.357,121.333 55.231 C 121.333 55.026,121.008 54.915,120.611 54.985 C 120.534 54.999,120.432 54.857,120.383 54.671 C 120.334 54.483,120.156 54.333,119.981 54.333 C 119.808 54.333,119.667 54.221,119.667 54.083 C 119.667 53.919,119.502 53.833,119.186 53.833 C 118.846 53.833,118.680 53.736,118.618 53.500 C 118.555 53.257,118.391 53.167,118.016 53.167 C 117.668 53.167,117.500 53.085,117.500 52.917 C 117.500 52.728,117.296 52.667,116.667 52.667 C 116.037 52.667,115.833 52.606,115.833 52.417 C 115.833 52.078,108.371 52.039,108.009 52.375 C 107.829 52.542,107.808 52.542,107.902 52.375 C 107.987 52.225,107.853 52.167,107.427 52.167 C 107.010 52.167,106.833 52.241,106.833 52.417 M184.000 52.417 C 184.000 52.584,183.833 52.667,183.495 52.667 C 183.199 52.667,182.950 52.771,182.894 52.917 C 182.841 53.054,182.693 53.167,182.566 53.167 C 182.438 53.167,182.333 53.317,182.333 53.500 C 182.333 53.722,182.222 53.833,182.000 53.833 C 181.743 53.833,181.667 53.944,181.667 54.316 C 181.667 54.590,181.559 54.839,181.417 54.894 C 181.271 54.950,181.167 55.199,181.167 55.495 C 181.167 55.833,181.084 56.000,180.917 56.000 C 180.670 56.000,180.635 56.117,180.596 57.058 C 180.585 57.319,180.446 57.627,180.288 57.743 C 180.069 57.903,180.000 58.200,180.000 58.977 C 180.000 59.775,179.945 60.000,179.750 60.000 C 179.561 60.000,179.500 60.204,179.500 60.833 C 179.500 61.556,179.456 61.667,179.167 61.667 C 178.878 61.667,178.833 61.778,178.833 62.500 C 178.833 63.130,178.772 63.333,178.583 63.333 C 178.394 63.333,178.333 63.537,178.333 64.167 C 178.333 64.772,178.269 65.000,178.099 65.000 C 177.945 65.000,177.826 65.280,177.752 65.821 C 177.687 66.289,177.537 66.681,177.403 66.732 C 177.242 66.794,177.167 67.092,177.167 67.661 C 177.167 68.296,177.106 68.500,176.917 68.500 C 176.720 68.500,176.667 68.731,176.667 69.583 C 176.667 70.529,176.627 70.667,176.356 70.667 C 176.090 70.667,176.049 70.788,176.074 71.500 C 176.098 72.203,176.056 72.333,175.801 72.333 C 175.551 72.333,175.500 72.474,175.500 73.167 C 175.500 73.796,175.439 74.000,175.250 74.000 C 175.062 74.000,175.000 74.202,175.000 74.822 C 175.000 75.509,174.943 75.662,174.652 75.755 C 174.347 75.851,174.311 75.973,174.360 76.740 C 174.410 77.505,174.380 77.605,174.125 77.538 C 173.875 77.472,173.833 77.584,173.833 78.314 C 173.833 78.931,173.769 79.167,173.601 79.167 C 173.339 79.167,173.119 79.848,173.261 80.220 C 173.313 80.355,173.205 80.606,173.021 80.778 C 172.772 81.010,172.672 81.348,172.634 82.087 C 172.599 82.774,172.519 83.070,172.375 83.042 C 172.229 83.012,172.167 83.272,172.167 83.917 C 172.167 84.722,172.126 84.833,171.833 84.833 C 171.650 84.833,171.509 84.890,171.520 84.958 C 171.627 85.639,171.468 86.500,171.235 86.500 C 171.018 86.500,170.980 86.663,171.026 87.391 C 171.077 88.187,171.051 88.273,170.777 88.200 C 170.526 88.135,170.476 88.208,170.503 88.602 C 170.566 89.543,170.500 89.794,170.167 89.882 C 169.849 89.965,169.833 90.109,169.833 93.004 L 169.833 96.039 170.213 95.966 C 170.556 95.901,170.586 95.948,170.528 96.445 C 170.482 96.840,170.540 97.026,170.732 97.099 C 170.879 97.156,171.000 97.315,171.000 97.453 C 171.000 97.640,171.134 97.685,171.522 97.628 C 171.921 97.569,172.063 97.621,172.121 97.844 C 172.288 98.482,174.511 98.559,174.916 97.940 C 175.105 97.652,175.284 97.569,175.587 97.627 C 175.889 97.684,176.000 97.633,176.000 97.436 C 176.000 97.288,176.104 97.167,176.232 97.167 C 176.484 97.167,176.667 96.818,176.667 96.338 C 176.667 96.172,176.779 95.992,176.917 95.940 C 177.088 95.874,177.167 95.606,177.167 95.089 C 177.167 94.513,177.229 94.333,177.429 94.333 C 177.598 94.333,177.680 94.201,177.660 93.958 C 177.586 93.045,177.673 92.704,178.000 92.618 C 178.291 92.542,178.333 92.391,178.333 91.432 C 178.333 90.567,178.386 90.333,178.583 90.333 C 178.771 90.333,178.833 90.132,178.833 89.519 C 178.833 88.846,178.891 88.691,179.167 88.618 C 179.439 88.547,179.500 88.391,179.500 87.766 L 179.500 87.000 186.250 87.000 L 193.000 87.000 193.000 87.583 C 193.000 87.991,193.075 88.167,193.250 88.167 C 193.445 88.167,193.500 88.391,193.500 89.182 C 193.500 90.058,193.546 90.210,193.833 90.285 C 194.109 90.357,194.167 90.512,194.167 91.186 C 194.167 91.798,194.229 92.000,194.417 92.000 C 194.605 92.000,194.667 92.202,194.667 92.816 C 194.667 93.387,194.742 93.660,194.917 93.727 C 195.089 93.793,195.167 94.062,195.167 94.594 C 195.167 95.224,195.227 95.380,195.500 95.452 C 195.736 95.513,195.833 95.679,195.833 96.019 C 195.833 96.335,195.919 96.500,196.083 96.500 C 196.222 96.500,196.333 96.648,196.333 96.833 C 196.333 97.056,196.444 97.167,196.667 97.167 C 196.850 97.167,196.981 97.260,196.958 97.375 C 196.932 97.508,197.113 97.583,197.458 97.582 C 197.789 97.581,198.000 97.663,198.000 97.794 C 198.000 98.368,200.139 98.560,200.285 98.000 C 200.347 97.764,200.512 97.667,200.853 97.667 C 201.169 97.667,201.333 97.581,201.333 97.417 C 201.333 97.278,201.481 97.167,201.667 97.167 C 201.889 97.167,202.000 97.056,202.000 96.833 C 202.000 96.648,202.111 96.500,202.250 96.500 C 202.414 96.500,202.500 96.335,202.500 96.019 C 202.500 95.679,202.597 95.513,202.833 95.452 C 203.145 95.370,203.167 95.224,203.167 93.182 C 203.167 91.111,203.150 91.000,202.833 91.000 C 202.532 91.000,202.500 90.889,202.500 89.833 C 202.500 88.907,202.448 88.667,202.250 88.667 C 202.061 88.667,202.000 88.463,202.000 87.833 C 202.000 87.111,201.956 87.000,201.667 87.000 C 201.378 87.000,201.333 86.889,201.333 86.167 C 201.333 85.537,201.272 85.333,201.083 85.333 C 200.894 85.333,200.833 85.130,200.833 84.500 C 200.833 83.870,200.772 83.667,200.583 83.667 C 200.394 83.667,200.333 83.463,200.333 82.833 C 200.333 82.111,200.289 82.000,200.000 82.000 C 199.673 82.000,199.563 81.558,199.658 80.624 C 199.675 80.463,199.571 80.286,199.427 80.231 C 199.240 80.159,199.167 79.901,199.167 79.316 C 199.167 78.752,199.102 78.513,198.958 78.542 C 198.820 78.569,198.733 78.312,198.698 77.773 C 198.658 77.137,198.578 76.946,198.323 76.879 C 198.046 76.806,198.000 76.643,198.000 75.731 C 198.000 74.896,197.946 74.667,197.750 74.667 C 197.564 74.667,197.500 74.470,197.500 73.901 C 197.500 73.276,197.439 73.120,197.167 73.048 C 196.891 72.976,196.833 72.821,196.833 72.147 C 196.833 71.535,196.771 71.333,196.583 71.333 C 196.394 71.333,196.333 71.129,196.333 70.495 C 196.333 69.903,196.260 69.628,196.083 69.560 C 195.913 69.495,195.833 69.228,195.833 68.717 C 195.833 68.109,195.771 67.952,195.500 67.882 C 195.224 67.809,195.167 67.654,195.167 66.981 C 195.167 66.368,195.105 66.167,194.917 66.167 C 194.728 66.167,194.667 65.963,194.667 65.333 C 194.667 64.704,194.606 64.500,194.417 64.500 C 194.231 64.500,194.167 64.304,194.167 63.734 C 194.167 63.109,194.106 62.953,193.833 62.882 C 193.557 62.809,193.500 62.654,193.500 61.981 C 193.500 61.368,193.438 61.167,193.250 61.167 C 193.062 61.167,193.000 60.964,193.000 60.345 C 193.000 59.669,192.941 59.504,192.667 59.417 C 192.393 59.330,192.333 59.164,192.333 58.489 C 192.333 57.869,192.272 57.667,192.083 57.667 C 191.894 57.667,191.833 57.463,191.833 56.833 C 191.833 56.220,191.770 56.000,191.594 56.000 C 191.446 56.000,191.335 55.794,191.302 55.458 C 191.263 55.050,191.178 54.929,190.958 54.966 C 190.726 55.005,190.667 54.894,190.667 54.424 C 190.667 54.010,190.592 53.833,190.417 53.833 C 190.278 53.833,190.167 53.685,190.167 53.500 C 190.167 53.278,190.056 53.167,189.833 53.167 C 189.648 53.167,189.500 53.056,189.500 52.917 C 189.500 52.779,189.387 52.667,189.250 52.667 C 189.112 52.667,189.000 52.554,189.000 52.417 C 189.000 52.206,188.611 52.167,186.500 52.167 C 184.389 52.167,184.000 52.206,184.000 52.417 M136.667 52.917 C 136.667 53.091,136.491 53.167,136.083 53.167 C 135.611 53.167,135.500 53.230,135.500 53.500 C 135.500 53.685,135.389 53.833,135.250 53.833 C 135.077 53.833,135.000 54.007,135.000 54.398 C 135.000 54.834,134.933 54.958,134.708 54.940 C 134.448 54.919,134.412 55.128,134.370 56.875 C 134.325 58.748,134.338 58.833,134.661 58.833 C 134.937 58.833,135.000 58.941,135.000 59.417 C 135.000 59.824,135.075 60.000,135.250 60.000 C 135.387 60.000,135.500 60.112,135.500 60.250 C 135.500 60.423,135.674 60.500,136.064 60.500 C 136.488 60.500,136.649 60.583,136.715 60.833 C 136.799 61.156,136.942 61.167,141.234 61.167 L 145.667 61.167 145.681 77.208 C 145.690 86.031,145.684 93.606,145.669 94.042 C 145.648 94.662,145.699 94.833,145.904 94.833 C 146.105 94.833,146.167 95.013,146.167 95.599 C 146.167 96.224,146.228 96.380,146.500 96.452 C 146.684 96.500,146.833 96.679,146.833 96.853 C 146.833 97.025,146.946 97.167,147.083 97.167 C 147.221 97.167,147.333 97.279,147.333 97.417 C 147.333 97.590,147.507 97.667,147.897 97.667 C 148.321 97.667,148.483 97.750,148.548 98.000 C 148.689 98.538,151.167 98.441,151.167 97.897 C 151.167 97.745,151.364 97.667,151.750 97.667 C 152.136 97.667,152.333 97.588,152.333 97.436 C 152.333 97.309,152.483 97.166,152.667 97.118 C 152.909 97.055,153.000 96.891,153.000 96.516 C 153.000 96.158,153.080 96.000,153.262 96.000 C 153.431 96.000,153.513 95.868,153.493 95.625 C 153.425 94.782,153.508 94.333,153.732 94.333 C 154.156 94.333,154.167 93.908,154.167 77.486 L 154.167 61.167 158.599 61.167 C 162.891 61.167,163.034 61.156,163.118 60.833 C 163.180 60.597,163.346 60.500,163.686 60.500 C 163.984 60.500,164.167 60.412,164.167 60.269 C 164.167 60.143,164.325 59.997,164.519 59.947 C 164.810 59.871,164.861 59.754,164.806 59.286 C 164.750 58.808,164.787 58.729,165.033 58.794 C 165.435 58.899,165.476 55.090,165.074 54.936 C 164.937 54.884,164.833 54.625,164.833 54.339 C 164.833 53.944,164.760 53.833,164.500 53.833 C 164.278 53.833,164.167 53.722,164.167 53.500 C 164.167 53.243,164.056 53.167,163.684 53.167 C 163.410 53.167,163.161 53.059,163.106 52.917 C 163.022 52.697,161.393 52.667,149.839 52.667 C 138.241 52.667,136.667 52.697,136.667 52.917 M216.667 52.917 C 216.667 53.091,216.491 53.167,216.083 53.167 C 215.611 53.167,215.500 53.230,215.500 53.500 C 215.500 53.683,215.392 53.833,215.261 53.833 C 215.112 53.833,215.001 54.039,214.969 54.375 C 214.935 54.722,214.827 54.917,214.667 54.917 C 214.474 54.917,214.405 55.175,214.367 56.042 C 214.330 56.892,214.259 57.167,214.076 57.167 C 213.702 57.167,213.710 93.630,214.083 93.773 C 214.269 93.844,214.333 94.141,214.333 94.934 C 214.333 95.889,214.368 96.000,214.667 96.000 C 214.937 96.000,215.000 96.111,215.000 96.583 C 215.000 96.991,215.075 97.167,215.250 97.167 C 215.387 97.167,215.500 97.288,215.500 97.436 C 215.500 97.642,215.621 97.687,216.022 97.628 C 216.421 97.569,216.563 97.621,216.621 97.844 C 216.778 98.442,219.300 98.582,219.452 98.000 C 219.513 97.764,219.679 97.667,220.019 97.667 C 220.335 97.667,220.500 97.581,220.500 97.417 C 220.500 97.278,220.648 97.167,220.833 97.167 C 221.056 97.167,221.167 97.056,221.167 96.833 C 221.167 96.648,221.278 96.500,221.417 96.500 C 221.579 96.500,221.667 96.337,221.667 96.037 C 221.667 95.780,221.815 95.447,222.000 95.289 C 222.325 95.010,222.333 94.797,222.333 86.752 L 222.333 78.500 223.682 78.500 C 224.891 78.500,225.040 78.535,225.118 78.833 C 225.191 79.109,225.346 79.167,226.019 79.167 C 226.632 79.167,226.833 79.229,226.833 79.417 C 226.833 79.633,227.460 79.774,228.036 79.688 C 228.101 79.679,228.107 79.795,228.048 79.948 C 227.968 80.157,228.010 80.198,228.221 80.117 C 228.438 80.034,228.500 80.107,228.500 80.441 C 228.500 80.775,228.568 80.854,228.801 80.794 C 229.047 80.729,229.090 80.798,229.036 81.166 C 228.968 81.628,229.583 82.500,229.977 82.500 C 230.083 82.500,230.167 82.759,230.167 83.083 C 230.167 83.491,230.242 83.667,230.417 83.667 C 230.583 83.667,230.667 83.833,230.667 84.167 C 230.667 84.556,230.741 84.667,231.000 84.667 C 231.270 84.667,231.333 84.778,231.333 85.250 C 231.333 85.657,231.409 85.833,231.583 85.833 C 231.756 85.833,231.833 86.007,231.833 86.397 C 231.833 86.814,231.917 86.983,232.154 87.045 C 232.390 87.107,232.462 87.250,232.425 87.585 C 232.388 87.918,232.460 88.064,232.687 88.124 C 232.903 88.180,233.000 88.356,233.000 88.691 C 233.000 88.969,233.107 89.218,233.250 89.273 C 233.393 89.328,233.500 89.576,233.500 89.851 C 233.500 90.222,233.577 90.333,233.833 90.333 C 234.103 90.333,234.167 90.444,234.167 90.917 C 234.167 91.324,234.242 91.500,234.417 91.500 C 234.591 91.500,234.667 91.676,234.667 92.083 C 234.667 92.491,234.742 92.667,234.917 92.667 C 235.085 92.667,235.167 92.835,235.167 93.182 C 235.167 93.558,235.257 93.722,235.500 93.785 C 235.736 93.847,235.833 94.012,235.833 94.353 C 235.833 94.669,235.919 94.833,236.083 94.833 C 236.256 94.833,236.333 95.007,236.333 95.397 C 236.333 95.830,236.415 95.982,236.683 96.053 C 236.876 96.103,236.984 96.224,236.924 96.322 C 236.859 96.426,236.956 96.500,237.157 96.500 C 237.389 96.500,237.500 96.608,237.500 96.833 C 237.500 97.019,237.611 97.167,237.750 97.167 C 237.887 97.167,238.000 97.279,238.000 97.417 C 238.000 97.590,238.174 97.667,238.564 97.667 C 238.988 97.667,239.149 97.750,239.215 98.000 C 239.290 98.287,239.442 98.333,240.318 98.333 C 241.222 98.333,241.333 98.297,241.333 98.000 C 241.333 97.711,241.444 97.667,242.167 97.667 C 242.765 97.667,243.000 97.602,243.000 97.436 C 243.000 97.309,243.159 97.164,243.354 97.113 C 243.641 97.038,243.693 96.924,243.633 96.510 C 243.572 96.099,243.617 96.000,243.864 96.000 C 244.146 96.000,244.168 95.829,244.147 93.750 C 244.129 91.964,244.077 91.500,243.896 91.500 C 243.732 91.500,243.667 91.262,243.667 90.667 C 243.667 90.037,243.606 89.833,243.417 89.833 C 243.248 89.833,243.167 89.665,243.167 89.318 C 243.167 88.942,243.076 88.778,242.833 88.715 C 242.557 88.643,242.500 88.488,242.500 87.814 C 242.500 87.202,242.438 87.000,242.250 87.000 C 242.082 87.000,242.000 86.832,242.000 86.484 C 242.000 86.109,241.909 85.945,241.667 85.882 C 241.431 85.820,241.333 85.654,241.333 85.314 C 241.333 84.998,241.248 84.833,241.083 84.833 C 240.909 84.833,240.833 84.657,240.833 84.250 C 240.833 83.843,240.758 83.667,240.583 83.667 C 240.446 83.667,240.333 83.523,240.333 83.347 C 240.333 82.850,240.154 82.500,239.899 82.500 C 239.771 82.500,239.667 82.387,239.667 82.250 C 239.667 82.112,239.554 82.000,239.417 82.000 C 239.249 82.000,239.167 81.833,239.167 81.495 C 239.167 81.199,239.063 80.950,238.917 80.894 C 238.779 80.841,238.667 80.698,238.667 80.577 C 238.667 80.455,238.517 80.308,238.333 80.250 C 238.150 80.192,238.000 80.037,238.000 79.905 C 238.000 79.774,237.887 79.667,237.750 79.667 C 237.595 79.667,237.500 79.509,237.500 79.251 C 237.500 79.017,237.355 78.746,237.167 78.628 C 236.983 78.513,236.833 78.325,236.833 78.210 C 236.833 78.094,236.730 78.000,236.603 78.000 C 236.348 78.000,236.199 77.576,236.295 77.125 C 236.340 76.916,236.520 76.833,236.929 76.833 C 237.325 76.833,237.500 76.757,237.500 76.583 C 237.500 76.416,237.667 76.333,238.004 76.333 C 238.381 76.333,238.546 76.234,238.659 75.937 C 238.777 75.625,238.900 75.559,239.238 75.624 C 239.555 75.684,239.667 75.636,239.667 75.436 C 239.667 75.288,239.760 75.165,239.875 75.164 C 240.129 75.160,240.833 74.441,240.833 74.185 C 240.833 74.083,240.946 74.000,241.083 74.000 C 241.221 74.000,241.333 73.896,241.333 73.769 C 241.333 73.643,241.492 73.497,241.686 73.447 C 241.977 73.371,242.027 73.254,241.973 72.786 C 241.917 72.306,241.953 72.229,242.203 72.295 C 242.447 72.358,242.500 72.266,242.500 71.769 C 242.500 71.367,242.577 71.167,242.731 71.167 C 243.008 71.167,243.161 70.659,243.164 69.726 C 243.166 69.268,243.251 69.003,243.417 68.940 C 243.628 68.859,243.667 68.291,243.667 65.255 C 243.667 62.177,243.631 61.667,243.417 61.667 C 243.234 61.667,243.166 61.476,243.164 60.958 C 243.161 60.009,243.010 59.500,242.731 59.500 C 242.578 59.500,242.500 59.302,242.500 58.917 C 242.500 58.509,242.425 58.333,242.250 58.333 C 242.075 58.333,242.000 58.157,242.000 57.750 C 242.000 57.278,241.937 57.167,241.667 57.167 C 241.481 57.167,241.333 57.056,241.333 56.917 C 241.333 56.779,241.221 56.667,241.083 56.667 C 240.944 56.667,240.833 56.519,240.833 56.333 C 240.833 56.148,240.722 56.000,240.583 56.000 C 240.446 56.000,240.333 55.884,240.333 55.743 C 240.333 55.590,240.215 55.505,240.042 55.534 C 239.846 55.567,239.732 55.458,239.696 55.206 C 239.667 54.998,239.568 54.875,239.477 54.931 C 239.386 54.987,239.270 54.876,239.219 54.683 C 239.167 54.484,238.993 54.333,238.814 54.333 C 238.641 54.333,238.500 54.221,238.500 54.083 C 238.500 53.922,238.338 53.833,238.040 53.833 C 237.761 53.833,237.498 53.703,237.372 53.500 C 237.201 53.227,236.983 53.167,236.165 53.167 C 235.389 53.167,235.167 53.111,235.167 52.917 C 235.167 52.697,234.028 52.667,225.917 52.667 C 217.806 52.667,216.667 52.697,216.667 52.917 M231.833 60.732 C 231.833 60.987,232.184 61.167,232.680 61.167 C 232.856 61.167,233.000 61.279,233.000 61.417 C 233.000 61.554,233.104 61.667,233.232 61.667 C 233.360 61.667,233.508 61.779,233.560 61.917 C 233.613 62.054,233.771 62.167,233.911 62.167 C 234.056 62.167,234.167 62.312,234.167 62.500 C 234.167 62.685,234.278 62.833,234.417 62.833 C 234.583 62.833,234.667 63.000,234.667 63.333 C 234.667 63.671,234.749 63.833,234.922 63.833 C 235.140 63.833,235.170 64.133,235.130 65.875 C 235.095 67.400,235.031 67.906,234.875 67.875 C 234.740 67.848,234.667 68.039,234.667 68.417 C 234.667 68.824,234.591 69.000,234.417 69.000 C 234.279 69.000,234.167 69.112,234.167 69.250 C 234.167 69.389,234.019 69.500,233.833 69.500 C 233.611 69.500,233.500 69.611,233.500 69.833 C 233.500 70.090,233.389 70.167,233.018 70.167 C 232.743 70.167,232.494 70.274,232.440 70.417 C 232.374 70.587,232.107 70.667,231.597 70.667 C 231.131 70.667,230.800 70.755,230.717 70.900 C 230.551 71.190,229.705 71.239,225.542 71.198 L 222.333 71.167 222.333 65.833 L 222.333 60.500 227.083 60.500 C 231.032 60.500,231.833 60.539,231.833 60.732 M186.833 66.167 C 186.833 67.093,186.885 67.333,187.083 67.333 C 187.272 67.333,187.333 67.537,187.333 68.167 C 187.333 68.892,187.377 69.000,187.670 69.000 C 187.944 69.000,187.991 69.083,187.925 69.448 C 187.881 69.694,187.935 70.008,188.047 70.146 C 188.208 70.345,188.206 70.371,188.042 70.272 C 187.913 70.195,187.833 70.241,187.833 70.393 C 187.833 70.821,188.027 71.167,188.268 71.167 C 188.436 71.167,188.500 71.400,188.500 72.005 C 188.500 72.597,188.574 72.872,188.750 72.940 C 188.919 73.005,189.000 73.270,189.000 73.762 C 189.000 74.331,189.076 74.529,189.353 74.677 C 189.633 74.827,189.687 74.975,189.619 75.397 C 189.501 76.124,189.657 76.833,189.936 76.833 C 190.102 76.833,190.167 77.068,190.167 77.667 C 190.167 78.296,190.228 78.500,190.417 78.500 C 190.556 78.500,190.667 78.648,190.667 78.833 C 190.667 79.158,190.556 79.167,186.327 79.167 C 182.089 79.167,181.992 79.159,182.161 78.844 C 182.256 78.667,182.333 78.142,182.333 77.678 C 182.333 77.038,182.394 76.833,182.583 76.833 C 182.772 76.833,182.833 76.630,182.833 76.000 C 182.833 75.353,182.892 75.167,183.096 75.167 C 183.301 75.167,183.352 74.996,183.331 74.375 C 183.289 73.142,183.311 73.045,183.667 72.952 C 183.945 72.879,184.000 72.724,184.000 72.016 C 184.000 71.372,184.060 71.167,184.250 71.167 C 184.447 71.167,184.500 70.935,184.500 70.083 C 184.500 69.231,184.553 69.000,184.750 69.000 C 184.938 69.000,185.000 68.798,185.000 68.186 C 185.000 67.503,185.055 67.358,185.346 67.282 C 185.650 67.202,185.688 67.074,185.665 66.221 C 185.651 65.687,185.646 65.194,185.653 65.125 C 185.661 65.056,185.929 65.000,186.250 65.000 L 186.833 65.000 186.833 66.167 M188.458 79.458 C 187.198 79.486,185.135 79.486,183.875 79.458 C 182.615 79.430,183.646 79.406,186.167 79.406 C 188.688 79.406,189.719 79.430,188.458 79.458 " stroke="none" fill="#545454" fill-rule="evenodd"></path><path id="path1" d="M252.167 52.920 C 252.167 53.056,252.047 53.167,251.901 53.167 C 251.755 53.167,251.596 53.317,251.548 53.500 C 251.500 53.683,251.357 53.833,251.231 53.833 C 251.104 53.833,251.000 53.946,251.000 54.083 C 251.000 54.221,250.887 54.333,250.750 54.333 C 250.539 54.333,250.500 54.722,250.500 56.833 C 250.500 58.944,250.539 59.333,250.750 59.333 C 250.889 59.333,251.000 59.481,251.000 59.667 C 251.000 59.852,251.111 60.000,251.250 60.000 C 251.387 60.000,251.500 60.112,251.500 60.250 C 251.500 60.389,251.648 60.500,251.833 60.500 C 252.017 60.500,252.167 60.604,252.167 60.732 C 252.167 61.131,252.575 61.167,257.180 61.167 L 261.667 61.167 261.667 78.161 C 261.667 94.984,261.670 95.157,262.000 95.333 C 262.218 95.450,262.333 95.682,262.333 96.006 C 262.333 96.334,262.417 96.500,262.583 96.500 C 262.722 96.500,262.833 96.648,262.833 96.833 C 262.833 97.017,262.938 97.167,263.066 97.167 C 263.193 97.167,263.341 97.279,263.394 97.417 C 263.450 97.563,263.699 97.667,263.995 97.667 C 264.314 97.667,264.500 97.752,264.500 97.897 C 264.500 98.431,266.647 98.528,266.785 98.000 C 266.847 97.764,267.012 97.667,267.353 97.667 C 267.669 97.667,267.833 97.581,267.833 97.417 C 267.833 97.278,267.981 97.167,268.167 97.167 C 268.389 97.167,268.500 97.056,268.500 96.833 C 268.500 96.648,268.611 96.500,268.750 96.500 C 268.887 96.500,269.000 96.388,269.000 96.250 C 269.000 96.112,269.112 96.000,269.250 96.000 C 269.471 96.000,269.500 93.954,269.500 78.583 L 269.500 61.167 274.165 61.167 C 278.650 61.167,278.839 61.154,279.039 60.833 C 279.162 60.636,279.427 60.500,279.689 60.500 C 280.137 60.500,280.333 60.242,280.333 59.653 C 280.333 59.477,280.446 59.333,280.583 59.333 C 280.794 59.333,280.833 58.944,280.833 56.833 C 280.833 54.722,280.794 54.333,280.583 54.333 C 280.429 54.333,280.333 54.177,280.333 53.927 C 280.333 53.435,280.097 53.244,279.417 53.188 C 279.279 53.176,279.167 53.053,279.167 52.915 C 279.167 52.692,277.602 52.664,265.667 52.669 C 253.873 52.674,252.167 52.705,252.167 52.920 M293.833 52.917 C 293.833 53.085,293.665 53.167,293.318 53.167 C 292.942 53.167,292.778 53.257,292.715 53.500 C 292.667 53.683,292.524 53.833,292.397 53.833 C 292.270 53.833,292.167 53.946,292.167 54.083 C 292.167 54.222,292.019 54.333,291.833 54.333 C 291.563 54.333,291.500 54.444,291.500 54.917 C 291.500 55.323,291.424 55.500,291.251 55.500 C 290.874 55.500,290.874 95.120,291.251 95.399 C 291.388 95.501,291.516 95.790,291.536 96.042 C 291.561 96.356,291.666 96.500,291.870 96.500 C 292.056 96.500,292.167 96.625,292.167 96.833 C 292.167 97.019,292.278 97.167,292.417 97.167 C 292.554 97.167,292.667 97.279,292.667 97.417 C 292.667 97.590,292.840 97.667,293.231 97.667 C 293.649 97.667,293.816 97.750,293.879 97.991 C 293.998 98.443,296.239 98.416,296.574 97.958 C 296.691 97.798,296.985 97.667,297.227 97.667 C 297.547 97.667,297.667 97.581,297.667 97.352 C 297.667 97.154,297.775 97.046,297.958 97.060 C 298.119 97.073,298.260 96.971,298.272 96.833 C 298.285 96.696,298.304 96.452,298.314 96.292 C 298.325 96.131,298.446 96.000,298.583 96.000 C 298.780 96.000,298.833 95.769,298.833 94.923 C 298.833 94.016,298.886 93.817,299.167 93.667 C 299.492 93.492,299.500 93.318,299.500 85.994 L 299.500 78.500 300.917 78.500 C 302.222 78.500,302.333 78.526,302.333 78.833 C 302.333 79.017,302.390 79.158,302.458 79.147 C 303.111 79.044,304.000 79.199,304.000 79.417 C 304.000 79.554,304.112 79.667,304.250 79.667 C 304.387 79.667,304.500 79.779,304.500 79.917 C 304.500 80.054,304.620 80.167,304.766 80.167 C 304.912 80.167,305.070 80.317,305.118 80.500 C 305.166 80.683,305.309 80.833,305.436 80.833 C 305.563 80.833,305.667 80.946,305.667 81.083 C 305.667 81.221,305.770 81.333,305.897 81.333 C 306.024 81.333,306.167 81.483,306.215 81.667 C 306.263 81.850,306.422 82.000,306.568 82.000 C 306.752 82.000,306.833 82.154,306.833 82.500 C 306.833 82.833,306.917 83.000,307.083 83.000 C 307.258 83.000,307.333 83.176,307.333 83.583 C 307.333 83.970,307.411 84.167,307.565 84.167 C 307.698 84.167,307.844 84.419,307.908 84.764 C 307.988 85.190,308.089 85.335,308.260 85.269 C 308.437 85.201,308.500 85.313,308.500 85.695 C 308.500 85.980,308.612 86.297,308.750 86.398 C 308.887 86.500,309.016 86.790,309.036 87.042 C 309.056 87.294,309.165 87.500,309.279 87.500 C 309.392 87.500,309.534 87.763,309.594 88.083 C 309.657 88.417,309.803 88.667,309.935 88.667 C 310.090 88.667,310.167 88.866,310.167 89.268 C 310.167 89.734,310.223 89.847,310.417 89.773 C 310.610 89.699,310.667 89.812,310.667 90.271 C 310.667 90.724,310.745 90.885,311.000 90.952 C 311.236 91.013,311.333 91.179,311.333 91.519 C 311.333 91.835,311.419 92.000,311.583 92.000 C 311.758 92.000,311.833 92.176,311.833 92.583 C 311.833 92.991,311.909 93.167,312.083 93.167 C 312.252 93.167,312.333 93.335,312.333 93.682 C 312.333 94.058,312.424 94.222,312.667 94.285 C 312.919 94.351,313.000 94.512,313.000 94.946 C 313.000 95.289,313.068 95.478,313.168 95.416 C 313.351 95.303,313.678 95.997,313.547 96.220 C 313.503 96.294,313.624 96.397,313.817 96.447 C 314.016 96.499,314.167 96.674,314.167 96.853 C 314.167 97.025,314.282 97.167,314.422 97.167 C 314.562 97.167,314.720 97.279,314.773 97.417 C 314.828 97.559,315.076 97.667,315.351 97.667 C 315.677 97.667,315.833 97.751,315.833 97.927 C 315.833 98.069,315.903 98.143,315.988 98.090 C 316.074 98.038,316.183 98.058,316.231 98.136 C 316.437 98.470,318.310 98.366,318.533 98.008 C 318.665 97.798,318.924 97.667,319.207 97.667 C 319.504 97.667,319.667 97.578,319.667 97.417 C 319.667 97.279,319.786 97.167,319.932 97.167 C 320.078 97.167,320.237 97.017,320.285 96.833 C 320.333 96.650,320.476 96.500,320.603 96.500 C 320.746 96.500,320.833 96.317,320.833 96.018 C 320.833 95.743,320.941 95.494,321.083 95.440 C 321.277 95.365,321.333 95.041,321.333 94.005 C 321.333 92.927,321.285 92.667,321.083 92.667 C 320.887 92.667,320.833 92.437,320.833 91.601 C 320.833 90.808,320.769 90.511,320.583 90.440 C 320.437 90.384,320.333 90.134,320.333 89.839 C 320.333 89.444,320.260 89.333,320.000 89.333 C 319.711 89.333,319.667 89.222,319.667 88.495 C 319.667 87.903,319.593 87.628,319.417 87.560 C 319.274 87.506,319.167 87.257,319.167 86.982 C 319.167 86.665,319.081 86.500,318.917 86.500 C 318.748 86.500,318.667 86.332,318.667 85.984 C 318.667 85.609,318.576 85.445,318.333 85.382 C 318.101 85.321,318.000 85.154,318.000 84.832 C 318.000 84.574,317.889 84.326,317.750 84.273 C 317.606 84.218,317.500 83.968,317.500 83.683 C 317.500 83.336,317.401 83.158,317.167 83.083 C 316.933 83.009,316.833 82.831,316.833 82.489 C 316.833 82.165,316.749 82.000,316.583 82.000 C 316.444 82.000,316.333 81.852,316.333 81.667 C 316.333 81.481,316.222 81.333,316.083 81.333 C 315.945 81.333,315.833 81.185,315.833 81.001 C 315.833 80.819,315.683 80.576,315.500 80.461 C 315.317 80.347,315.167 80.121,315.167 79.960 C 315.167 79.799,315.092 79.667,315.000 79.667 C 314.783 79.667,314.254 79.135,314.117 78.779 C 314.059 78.626,313.896 78.500,313.755 78.500 C 313.615 78.500,313.500 78.387,313.500 78.250 C 313.500 78.112,313.387 78.000,313.250 78.000 C 313.111 78.000,313.000 77.852,313.000 77.667 C 313.000 77.481,313.111 77.333,313.250 77.333 C 313.387 77.333,313.500 77.221,313.500 77.083 C 313.500 76.916,313.667 76.833,314.005 76.833 C 314.301 76.833,314.550 76.729,314.606 76.583 C 314.661 76.441,314.910 76.333,315.184 76.333 C 315.614 76.333,315.749 76.188,315.686 75.792 C 315.676 75.723,315.817 75.667,316.000 75.667 C 316.185 75.667,316.333 75.556,316.333 75.417 C 316.333 75.279,316.446 75.167,316.583 75.167 C 316.721 75.167,316.833 75.054,316.833 74.917 C 316.833 74.778,316.981 74.667,317.167 74.667 C 317.389 74.667,317.500 74.556,317.500 74.333 C 317.500 74.148,317.611 74.000,317.750 74.000 C 317.887 74.000,318.000 73.887,318.000 73.750 C 318.000 73.612,318.085 73.500,318.189 73.500 C 318.519 73.500,319.167 72.666,319.167 72.241 C 319.167 71.990,319.263 71.833,319.417 71.833 C 319.605 71.833,319.667 71.632,319.667 71.019 C 319.667 70.346,319.724 70.191,320.000 70.118 C 320.298 70.040,320.333 69.891,320.333 68.694 C 320.333 67.783,320.406 67.284,320.562 67.128 C 320.884 66.806,320.952 63.307,320.634 63.372 C 320.472 63.405,320.404 63.063,320.368 62.024 C 320.325 60.804,320.279 60.621,319.993 60.546 C 319.725 60.476,319.667 60.315,319.667 59.647 C 319.667 59.035,319.605 58.833,319.417 58.833 C 319.261 58.833,319.167 58.676,319.167 58.417 C 319.167 58.188,319.017 57.850,318.833 57.667 C 318.650 57.483,318.500 57.183,318.500 57.000 C 318.500 56.815,318.389 56.667,318.250 56.667 C 318.111 56.667,318.000 56.519,318.000 56.333 C 318.000 56.150,317.896 56.000,317.768 56.000 C 317.640 56.000,317.492 55.887,317.440 55.750 C 317.387 55.612,317.229 55.500,317.089 55.500 C 316.948 55.500,316.833 55.394,316.833 55.264 C 316.833 54.993,315.845 54.333,315.439 54.333 C 315.289 54.333,315.167 54.221,315.167 54.083 C 315.167 53.918,315.001 53.833,314.678 53.833 C 314.336 53.833,314.157 53.734,314.083 53.500 C 313.992 53.213,313.831 53.167,312.923 53.167 C 312.140 53.167,311.844 53.102,311.773 52.917 C 311.689 52.699,310.532 52.667,302.755 52.667 C 294.936 52.667,293.833 52.698,293.833 52.917 M335.500 52.916 C 335.500 53.072,335.344 53.167,335.085 53.167 C 334.850 53.167,334.579 53.312,334.461 53.500 C 334.347 53.683,334.159 53.833,334.043 53.833 C 333.925 53.833,333.833 54.035,333.833 54.293 C 333.833 54.573,333.703 54.835,333.500 54.961 C 333.170 55.168,333.167 55.350,333.167 74.934 C 333.167 94.558,333.169 94.698,333.500 94.785 C 333.750 94.851,333.833 95.012,333.833 95.436 C 333.833 95.826,333.910 96.000,334.083 96.000 C 334.221 96.000,334.333 96.112,334.333 96.250 C 334.333 96.389,334.481 96.500,334.667 96.500 C 334.850 96.500,335.000 96.604,335.000 96.732 C 335.000 97.152,335.421 97.167,347.333 97.167 C 359.246 97.167,359.667 97.152,359.667 96.732 C 359.667 96.604,359.817 96.500,360.000 96.500 C 360.183 96.500,360.333 96.396,360.333 96.268 C 360.333 96.140,360.446 95.992,360.583 95.940 C 361.391 95.630,360.768 89.833,359.927 89.833 C 359.863 89.833,359.697 89.721,359.560 89.583 C 359.343 89.367,358.079 89.333,350.238 89.333 L 341.167 89.333 341.167 83.667 L 341.167 78.000 349.208 77.997 L 357.250 77.994 357.625 77.599 C 357.831 77.381,358.000 77.120,358.000 77.018 C 358.000 76.917,358.094 76.832,358.208 76.830 C 359.063 76.819,359.728 72.355,358.946 71.883 C 358.824 71.810,358.677 71.619,358.618 71.458 C 358.559 71.298,358.396 71.167,358.255 71.167 C 358.115 71.167,358.000 71.054,358.000 70.917 C 358.000 70.779,357.885 70.667,357.745 70.667 C 357.604 70.667,357.446 70.554,357.394 70.417 C 357.310 70.199,356.248 70.167,349.232 70.167 L 341.167 70.167 341.167 65.333 L 341.167 60.500 350.089 60.500 C 357.865 60.500,359.023 60.468,359.106 60.250 C 359.159 60.112,359.307 60.000,359.434 60.000 C 359.562 60.000,359.667 59.859,359.667 59.686 C 359.667 59.513,359.813 59.334,359.991 59.287 C 360.554 59.140,360.465 53.833,359.899 53.833 C 359.771 53.833,359.667 53.683,359.667 53.500 C 359.667 53.317,359.610 53.176,359.542 53.186 C 359.061 53.262,358.506 53.136,358.542 52.958 C 358.575 52.794,356.168 52.741,347.042 52.707 C 336.851 52.669,335.500 52.694,335.500 52.916 M375.060 52.917 C 375.008 53.054,374.828 53.167,374.662 53.167 C 374.182 53.167,373.833 53.350,373.833 53.601 C 373.833 53.729,373.727 53.833,373.597 53.833 C 373.466 53.833,373.309 54.063,373.248 54.345 C 373.186 54.626,373.030 54.896,372.901 54.946 C 372.535 55.086,372.550 94.833,372.917 94.833 C 373.151 94.833,373.246 95.126,373.176 95.638 C 373.160 95.760,373.301 95.900,373.490 95.949 C 373.679 95.998,373.833 96.143,373.833 96.269 C 373.833 96.396,373.996 96.500,374.194 96.500 C 374.393 96.500,374.506 96.549,374.446 96.610 C 373.921 97.135,374.631 97.167,386.869 97.167 C 398.891 97.167,399.032 97.163,399.118 96.833 C 399.166 96.650,399.309 96.500,399.436 96.500 C 399.563 96.500,399.667 96.388,399.667 96.250 C 399.667 96.112,399.742 96.000,399.833 96.000 C 399.938 96.000,400.000 94.972,400.000 93.250 C 400.000 91.528,399.938 90.500,399.833 90.500 C 399.742 90.500,399.667 90.350,399.667 90.167 C 399.667 89.981,399.556 89.833,399.417 89.833 C 399.279 89.833,399.167 89.721,399.167 89.583 C 399.167 89.364,398.019 89.333,389.833 89.333 L 380.500 89.333 380.500 83.667 L 380.500 78.000 388.667 78.000 C 395.509 78.000,396.833 77.963,396.833 77.769 C 396.833 77.643,396.983 77.500,397.167 77.452 C 397.350 77.404,397.500 77.245,397.500 77.099 C 397.500 76.953,397.613 76.833,397.750 76.833 C 397.887 76.833,398.000 76.721,398.000 76.583 C 398.000 76.446,398.104 76.333,398.232 76.333 C 398.574 76.333,398.621 76.093,398.654 74.161 C 398.686 72.291,398.603 71.833,398.232 71.833 C 398.104 71.833,398.000 71.683,398.000 71.500 C 398.000 71.315,397.889 71.167,397.750 71.167 C 397.613 71.167,397.500 71.054,397.500 70.917 C 397.500 70.778,397.352 70.667,397.167 70.667 C 396.981 70.667,396.833 70.556,396.833 70.417 C 396.833 70.198,395.815 70.167,388.667 70.167 L 380.500 70.167 380.500 65.333 L 380.500 60.500 389.500 60.500 C 397.052 60.500,398.500 60.463,398.500 60.269 C 398.500 60.143,398.650 60.000,398.833 59.952 C 399.017 59.904,399.167 59.745,399.167 59.599 C 399.167 59.453,399.279 59.333,399.417 59.333 C 399.764 59.333,399.792 54.092,399.446 53.883 C 399.324 53.810,399.177 53.619,399.118 53.458 C 399.049 53.271,398.835 53.167,398.523 53.167 C 398.244 53.167,397.995 53.060,397.940 52.917 C 397.856 52.698,396.430 52.667,386.500 52.667 C 376.570 52.667,375.144 52.698,375.060 52.917 M309.048 60.833 C 309.112 61.076,309.276 61.167,309.651 61.167 C 309.998 61.167,310.167 61.248,310.167 61.417 C 310.167 61.554,310.279 61.667,310.417 61.667 C 310.554 61.667,310.667 61.779,310.667 61.917 C 310.667 62.056,310.815 62.167,311.000 62.167 C 311.270 62.167,311.333 62.278,311.333 62.750 C 311.333 63.128,311.407 63.319,311.542 63.292 C 311.667 63.267,311.771 63.470,311.803 63.801 C 311.832 64.104,311.963 64.394,312.095 64.444 C 312.451 64.581,312.441 67.333,312.083 67.333 C 311.910 67.333,311.833 67.507,311.833 67.896 C 311.833 68.206,311.721 68.553,311.583 68.667 C 311.446 68.781,311.333 69.015,311.333 69.187 C 311.333 69.389,311.215 69.500,311.000 69.500 C 310.778 69.500,310.667 69.611,310.667 69.833 C 310.667 70.090,310.556 70.167,310.184 70.167 C 309.910 70.167,309.661 70.274,309.606 70.417 C 309.541 70.588,309.272 70.667,308.750 70.667 C 308.228 70.667,307.959 70.745,307.894 70.917 C 307.812 71.130,307.183 71.167,303.649 71.167 L 299.500 71.167 299.500 65.833 L 299.500 60.500 304.231 60.500 C 308.821 60.500,308.964 60.510,309.048 60.833 M43.714 68.169 C 43.667 68.351,43.524 68.500,43.397 68.500 C 43.270 68.500,43.167 68.612,43.167 68.750 C 43.167 68.887,43.071 69.000,42.954 69.000 C 42.634 69.000,42.095 69.688,42.000 70.215 C 41.954 70.471,41.842 70.658,41.752 70.632 C 41.539 70.569,41.378 71.335,41.353 72.528 C 41.330 73.614,41.439 74.000,41.768 74.000 C 41.922 74.000,42.000 74.196,42.000 74.583 C 42.000 74.991,42.075 75.167,42.250 75.167 C 42.387 75.167,42.509 75.279,42.521 75.417 C 42.532 75.554,42.551 75.730,42.563 75.808 C 42.606 76.103,43.429 76.828,43.724 76.830 C 43.893 76.832,44.221 76.983,44.455 77.167 C 44.870 77.493,45.131 77.500,57.772 77.500 C 69.123 77.500,70.667 77.530,70.667 77.750 C 70.667 77.887,70.554 78.000,70.417 78.000 C 70.279 78.000,70.167 78.069,70.167 78.153 C 70.167 78.358,68.864 79.667,68.660 79.667 C 68.572 79.667,68.500 79.786,68.500 79.932 C 68.500 80.078,68.350 80.237,68.167 80.285 C 67.983 80.333,67.833 80.438,67.833 80.519 C 67.833 80.721,67.206 81.333,67.000 81.333 C 66.908 81.333,66.833 81.483,66.833 81.667 C 66.833 81.889,66.722 82.000,66.500 82.000 C 66.317 82.000,66.167 82.106,66.167 82.235 C 66.167 82.365,65.942 82.660,65.667 82.891 C 65.392 83.122,65.167 83.364,65.167 83.428 C 65.167 83.606,64.366 84.310,64.271 84.215 C 64.225 84.170,64.137 84.403,64.076 84.733 C 63.993 85.171,63.878 85.333,63.648 85.333 C 63.475 85.333,63.333 85.446,63.333 85.583 C 63.333 85.721,63.221 85.833,63.083 85.833 C 62.944 85.833,62.833 85.981,62.833 86.167 C 62.833 86.352,62.722 86.500,62.583 86.500 C 62.446 86.500,62.333 86.612,62.333 86.750 C 62.333 86.889,62.185 87.000,62.000 87.000 C 61.815 87.000,61.667 87.111,61.667 87.250 C 61.667 87.388,61.554 87.500,61.417 87.500 C 61.278 87.500,61.167 87.648,61.167 87.833 C 61.167 88.056,61.056 88.167,60.833 88.167 C 60.650 88.167,60.500 88.271,60.500 88.399 C 60.500 88.527,60.388 88.674,60.250 88.727 C 60.112 88.780,60.000 88.938,60.000 89.078 C 60.000 89.218,59.887 89.333,59.750 89.333 C 59.612 89.333,59.500 89.446,59.500 89.583 C 59.500 89.722,59.352 89.833,59.167 89.833 C 58.939 89.833,58.833 89.944,58.833 90.184 C 58.833 90.428,58.757 90.506,58.583 90.440 C 58.413 90.374,58.333 90.449,58.333 90.672 C 58.333 90.852,58.221 91.000,58.083 91.000 C 57.946 91.000,57.833 91.112,57.833 91.250 C 57.833 91.389,57.685 91.500,57.500 91.500 C 57.317 91.500,57.167 91.604,57.167 91.732 C 57.167 91.860,57.054 92.008,56.917 92.060 C 56.779 92.113,56.667 92.271,56.667 92.411 C 56.667 92.552,56.592 92.667,56.500 92.667 C 56.285 92.667,55.633 93.313,55.413 93.744 C 55.320 93.927,55.057 94.170,54.830 94.283 C 54.603 94.397,54.407 94.586,54.394 94.703 C 54.382 94.821,54.363 95.048,54.353 95.208 C 54.342 95.369,54.221 95.500,54.083 95.500 C 53.946 95.500,53.833 95.612,53.833 95.750 C 53.833 95.888,53.748 96.000,53.644 96.000 C 53.422 96.000,52.667 96.779,52.667 97.009 C 52.667 97.096,52.554 97.167,52.417 97.167 C 52.279 97.167,52.167 97.279,52.167 97.417 C 52.167 97.554,52.047 97.667,51.901 97.667 C 51.755 97.667,51.596 97.817,51.548 98.000 C 51.500 98.183,51.357 98.333,51.231 98.333 C 51.104 98.333,51.000 98.446,51.000 98.583 C 51.000 98.721,50.887 98.833,50.750 98.833 C 50.612 98.833,50.500 98.937,50.500 99.064 C 50.500 99.191,50.350 99.334,50.167 99.382 C 49.983 99.430,49.833 99.588,49.833 99.734 C 49.833 99.880,49.721 100.000,49.583 100.000 C 49.446 100.000,49.333 100.104,49.333 100.231 C 49.333 100.357,49.183 100.500,49.000 100.548 C 48.817 100.596,48.667 100.755,48.667 100.901 C 48.667 101.047,48.554 101.167,48.417 101.167 C 48.279 101.167,48.167 101.279,48.167 101.417 C 48.167 101.554,48.054 101.667,47.917 101.667 C 47.779 101.667,47.667 101.738,47.667 101.826 C 47.667 102.038,46.863 102.833,46.649 102.833 C 46.556 102.833,46.521 102.900,46.572 102.981 C 46.622 103.062,46.551 103.222,46.415 103.335 C 46.278 103.448,46.162 103.475,46.156 103.395 C 46.150 103.315,46.078 103.419,45.995 103.625 C 45.912 103.831,45.721 104.000,45.571 104.000 C 45.396 104.000,45.332 104.090,45.394 104.250 C 45.459 104.420,45.385 104.500,45.161 104.500 C 44.906 104.500,44.833 104.614,44.833 105.016 C 44.833 105.391,44.743 105.555,44.500 105.618 C 44.317 105.666,44.167 105.809,44.167 105.936 C 44.167 106.063,44.054 106.167,43.917 106.167 C 43.779 106.167,43.667 106.279,43.667 106.417 C 43.667 106.554,43.554 106.667,43.417 106.667 C 43.278 106.667,43.167 106.815,43.167 107.000 C 43.167 107.222,43.056 107.333,42.833 107.333 C 42.650 107.333,42.500 107.408,42.500 107.500 C 42.500 107.716,41.883 108.333,41.667 108.333 C 41.575 108.333,41.500 108.405,41.500 108.492 C 41.500 108.579,41.237 108.906,40.917 109.217 C 40.596 109.529,40.333 109.870,40.333 109.975 C 40.333 110.080,40.183 110.167,40.000 110.167 C 39.815 110.167,39.667 110.278,39.667 110.417 C 39.667 110.554,39.554 110.667,39.417 110.667 C 39.279 110.667,39.167 110.779,39.167 110.917 C 39.167 111.054,39.054 111.167,38.917 111.167 C 38.778 111.167,38.667 111.315,38.667 111.500 C 38.667 111.722,38.556 111.833,38.333 111.833 C 38.150 111.833,38.000 111.938,38.000 112.066 C 38.000 112.193,37.887 112.341,37.750 112.394 C 37.612 112.446,37.500 112.571,37.500 112.670 C 37.500 112.860,36.332 113.998,36.136 113.999 C 36.074 114.000,35.976 114.146,35.919 114.325 C 35.863 114.503,35.670 114.696,35.491 114.753 C 35.292 114.816,35.167 115.006,35.167 115.243 C 35.167 115.457,35.054 115.674,34.917 115.727 C 34.779 115.780,34.667 115.938,34.667 116.078 C 34.667 116.218,34.554 116.333,34.417 116.333 C 34.279 116.333,34.167 116.446,34.167 116.583 C 34.167 116.721,34.025 116.833,33.853 116.833 C 33.674 116.833,33.499 116.984,33.447 117.183 C 33.397 117.376,33.276 117.484,33.178 117.424 C 33.074 117.359,33.000 117.456,33.000 117.657 C 33.000 117.889,32.892 118.000,32.667 118.000 C 32.481 118.000,32.333 118.111,32.333 118.250 C 32.333 118.388,32.221 118.500,32.083 118.500 C 31.944 118.500,31.833 118.648,31.833 118.833 C 31.833 119.019,31.722 119.167,31.583 119.167 C 31.446 119.167,31.333 119.279,31.333 119.417 C 31.333 119.556,31.185 119.667,31.000 119.667 C 30.815 119.667,30.667 119.778,30.667 119.917 C 30.667 120.054,30.554 120.167,30.417 120.167 C 30.278 120.167,30.167 120.315,30.167 120.500 C 30.167 120.685,30.056 120.833,29.917 120.833 C 29.779 120.833,29.667 120.946,29.667 121.083 C 29.667 121.309,29.469 121.407,29.125 121.353 C 29.056 121.342,29.009 121.390,29.020 121.458 C 29.074 121.802,28.975 122.000,28.750 122.000 C 28.613 122.000,28.500 122.112,28.500 122.250 C 28.500 122.388,28.406 122.501,28.292 122.503 C 28.083 122.506,27.333 123.207,27.333 123.398 C 27.333 123.577,26.588 124.252,26.444 124.204 C 26.367 124.178,26.265 124.309,26.216 124.495 C 26.168 124.681,26.024 124.833,25.897 124.833 C 25.752 124.833,25.667 125.019,25.667 125.333 C 25.667 125.656,25.582 125.833,25.428 125.833 C 25.297 125.833,25.142 125.983,25.083 126.167 C 25.025 126.350,24.870 126.500,24.739 126.500 C 24.607 126.500,24.500 126.612,24.500 126.750 C 24.500 126.888,24.387 127.000,24.250 127.000 C 24.113 127.000,24.000 127.112,24.000 127.250 C 24.000 127.389,23.852 127.500,23.667 127.500 C 23.444 127.500,23.333 127.611,23.333 127.833 C 23.333 128.019,23.222 128.167,23.083 128.167 C 22.946 128.167,22.833 128.279,22.833 128.417 C 22.833 128.554,22.721 128.667,22.583 128.667 C 22.446 128.667,22.333 128.770,22.333 128.897 C 22.333 129.024,22.183 129.167,22.000 129.215 C 21.817 129.263,21.667 129.422,21.667 129.568 C 21.667 129.714,21.554 129.833,21.417 129.833 C 21.279 129.833,21.167 129.937,21.167 130.064 C 21.167 130.191,21.017 130.334,20.833 130.382 C 20.650 130.430,20.500 130.588,20.500 130.734 C 20.500 130.880,20.382 131.000,20.238 131.000 C 20.061 131.000,19.995 130.879,20.034 130.625 C 20.066 130.419,20.183 130.269,20.296 130.292 C 20.435 130.320,20.500 130.070,20.500 129.500 C 20.500 128.875,20.562 128.667,20.747 128.667 C 20.997 128.667,21.121 128.326,21.204 127.417 C 21.231 127.123,21.336 126.934,21.458 126.958 C 21.603 126.987,21.667 126.744,21.667 126.167 C 21.667 125.565,21.731 125.333,21.899 125.333 C 22.151 125.333,22.333 124.984,22.333 124.500 C 22.333 124.332,22.416 124.167,22.516 124.133 C 22.617 124.100,22.739 123.719,22.788 123.286 C 22.846 122.775,22.956 122.500,23.105 122.500 C 23.267 122.500,23.333 122.263,23.333 121.678 C 23.333 121.002,23.393 120.837,23.667 120.750 C 23.896 120.677,24.000 120.498,24.000 120.173 C 24.000 119.908,24.109 119.660,24.250 119.606 C 24.421 119.541,24.500 119.273,24.500 118.755 C 24.500 118.195,24.565 118.000,24.750 118.000 C 24.938 118.000,25.000 117.798,25.000 117.178 C 25.000 116.502,25.059 116.337,25.333 116.250 C 25.581 116.171,25.667 115.998,25.667 115.572 C 25.667 115.175,25.743 115.000,25.917 115.000 C 26.102 115.000,26.167 114.806,26.167 114.250 C 26.167 113.694,26.231 113.500,26.417 113.500 C 26.554 113.500,26.670 113.481,26.675 113.458 C 26.680 113.435,26.724 113.079,26.773 112.667 C 26.822 112.254,26.968 111.833,27.098 111.732 C 27.227 111.630,27.333 111.343,27.333 111.095 C 27.333 110.846,27.446 110.530,27.583 110.393 C 27.721 110.255,27.833 109.894,27.833 109.591 C 27.833 109.179,27.918 109.017,28.167 108.952 C 28.439 108.880,28.500 108.724,28.500 108.094 C 28.500 107.562,28.578 107.293,28.750 107.227 C 28.889 107.173,29.000 106.926,29.000 106.667 C 29.000 106.408,29.111 106.160,29.250 106.106 C 29.420 106.041,29.500 105.775,29.500 105.275 C 29.500 104.679,29.563 104.522,29.833 104.452 C 30.104 104.381,30.167 104.224,30.167 103.617 C 30.167 103.106,30.246 102.839,30.417 102.773 C 30.593 102.705,30.667 102.430,30.667 101.839 C 30.667 101.111,30.711 101.000,31.000 101.000 C 31.496 101.000,31.509 98.142,31.015 97.796 C 30.839 97.673,30.670 97.350,30.640 97.078 C 30.607 96.793,30.495 96.601,30.375 96.625 C 30.260 96.648,30.167 96.517,30.167 96.333 C 30.167 96.111,30.056 96.000,29.833 96.000 C 29.648 96.000,29.500 95.889,29.500 95.750 C 29.500 95.612,29.396 95.500,29.269 95.500 C 29.143 95.500,29.002 95.357,28.956 95.183 C 28.822 94.672,24.000 94.650,24.000 95.160 C 24.000 95.415,23.892 95.500,23.565 95.500 C 22.996 95.500,22.340 96.134,22.336 96.689 C 22.334 96.986,22.226 97.156,22.000 97.215 C 21.757 97.278,21.667 97.442,21.667 97.818 C 21.667 98.165,21.585 98.333,21.417 98.333 C 21.229 98.333,21.167 98.535,21.167 99.147 C 21.167 99.821,21.109 99.976,20.833 100.048 C 20.561 100.120,20.500 100.276,20.500 100.901 C 20.500 101.470,20.436 101.667,20.250 101.667 C 20.077 101.667,20.000 101.841,20.000 102.232 C 20.000 102.581,19.904 102.834,19.750 102.894 C 19.579 102.959,19.500 103.227,19.500 103.745 C 19.500 104.389,19.451 104.500,19.167 104.500 C 18.878 104.500,18.833 104.611,18.833 105.333 C 18.833 105.963,18.772 106.167,18.583 106.167 C 18.409 106.167,18.333 106.343,18.333 106.750 C 18.333 107.071,18.264 107.333,18.180 107.333 C 17.969 107.333,17.614 108.456,17.730 108.757 C 17.792 108.919,17.714 109.000,17.495 109.000 C 17.314 109.000,17.176 109.056,17.186 109.125 C 17.290 109.778,17.134 110.667,16.917 110.667 C 16.742 110.667,16.667 110.843,16.667 111.250 C 16.667 111.637,16.589 111.833,16.434 111.833 C 16.144 111.833,16.000 112.196,16.000 112.930 C 16.000 113.326,15.923 113.500,15.750 113.500 C 15.612 113.500,15.509 113.556,15.520 113.625 C 15.623 114.278,15.467 115.167,15.250 115.167 C 15.076 115.167,15.000 115.341,15.000 115.739 C 15.000 116.164,14.915 116.338,14.667 116.417 C 14.401 116.501,14.333 116.669,14.333 117.243 C 14.333 117.730,14.252 117.995,14.083 118.060 C 13.912 118.126,13.833 118.394,13.833 118.911 C 13.833 119.472,13.769 119.667,13.583 119.667 C 13.446 119.667,13.329 119.685,13.323 119.708 C 13.317 119.731,13.274 120.087,13.227 120.500 C 13.180 120.912,13.035 121.310,12.904 121.383 C 12.774 121.457,12.667 121.730,12.667 121.990 C 12.667 122.258,12.558 122.506,12.417 122.560 C 12.247 122.625,12.167 122.892,12.167 123.392 C 12.167 123.988,12.103 124.144,11.833 124.215 C 11.562 124.286,11.500 124.442,11.500 125.050 C 11.500 125.545,11.419 125.829,11.261 125.889 C 11.130 125.940,10.999 126.229,10.970 126.532 C 10.938 126.864,10.834 127.067,10.708 127.042 C 10.564 127.013,10.500 127.256,10.500 127.833 C 10.500 128.618,10.408 128.761,9.950 128.684 C 9.877 128.671,9.830 128.756,9.845 128.872 C 9.939 129.592,9.812 130.333,9.593 130.333 C 9.440 130.333,9.335 130.545,9.302 130.920 C 9.273 131.243,9.178 131.500,9.090 131.491 C 8.873 131.470,8.693 131.967,8.678 132.625 C 8.670 132.990,8.585 133.167,8.417 133.167 C 8.228 133.167,8.167 133.370,8.167 134.000 C 8.167 134.630,8.106 134.833,7.917 134.833 C 7.742 134.833,7.667 135.009,7.667 135.417 C 7.667 135.834,7.593 136.000,7.407 136.000 C 7.264 136.000,7.193 136.075,7.250 136.167 C 7.307 136.258,7.274 136.333,7.177 136.333 C 7.079 136.333,7.009 136.390,7.020 136.458 C 7.110 137.028,6.967 137.667,6.750 137.667 C 6.562 137.667,6.500 137.868,6.500 138.482 C 6.500 139.053,6.425 139.326,6.250 139.394 C 6.107 139.449,6.000 139.697,6.000 139.975 C 6.000 140.306,5.903 140.487,5.695 140.541 C 5.466 140.601,5.383 140.797,5.362 141.325 C 5.331 142.112,5.220 142.386,4.988 142.243 C 4.901 142.189,4.833 142.505,4.833 142.971 C 4.833 143.654,4.777 143.809,4.500 143.882 C 4.228 143.953,4.167 144.109,4.167 144.734 C 4.167 145.290,4.101 145.500,3.927 145.500 C 3.770 145.500,3.669 145.716,3.635 146.125 C 3.603 146.516,3.505 146.734,3.375 146.708 C 3.232 146.680,3.167 146.914,3.167 147.460 C 3.167 148.073,3.091 148.301,2.833 148.461 C 2.593 148.611,2.500 148.850,2.500 149.317 C 2.500 149.739,2.413 149.998,2.250 150.060 C 2.093 150.120,2.000 150.375,2.000 150.745 C 2.000 151.105,1.925 151.317,1.806 151.292 C 1.551 151.237,1.370 151.886,1.352 152.917 C 1.334 153.968,1.474 154.500,1.769 154.500 C 1.922 154.500,2.000 154.698,2.000 155.083 C 2.000 155.491,2.075 155.667,2.250 155.667 C 2.474 155.667,2.589 155.989,2.511 156.401 C 2.470 156.617,2.853 156.828,3.292 156.831 C 3.513 156.832,3.667 156.936,3.667 157.083 C 3.667 157.258,3.843 157.333,4.250 157.333 C 4.571 157.333,4.833 157.408,4.833 157.500 C 4.833 157.600,5.500 157.667,6.500 157.667 C 7.500 157.667,8.167 157.600,8.167 157.500 C 8.167 157.408,8.394 157.333,8.672 157.333 C 8.967 157.333,9.217 157.229,9.273 157.083 C 9.326 156.946,9.473 156.833,9.601 156.833 C 9.729 156.833,9.833 156.721,9.833 156.583 C 9.833 156.446,9.953 156.333,10.099 156.333 C 10.245 156.333,10.404 156.183,10.452 156.000 C 10.500 155.817,10.643 155.667,10.769 155.667 C 10.896 155.667,11.000 155.554,11.000 155.417 C 11.000 155.279,11.112 155.167,11.250 155.167 C 11.389 155.167,11.500 155.019,11.500 154.833 C 11.500 154.611,11.611 154.500,11.833 154.500 C 12.019 154.500,12.167 154.389,12.167 154.250 C 12.167 154.112,12.279 154.000,12.417 154.000 C 12.554 154.000,12.667 153.887,12.667 153.750 C 12.667 153.612,12.779 153.500,12.917 153.500 C 13.056 153.500,13.167 153.352,13.167 153.167 C 13.167 152.944,13.278 152.833,13.500 152.833 C 13.685 152.833,13.833 152.722,13.833 152.583 C 13.833 152.446,13.946 152.333,14.083 152.333 C 14.221 152.333,14.333 152.264,14.333 152.179 C 14.333 152.094,14.708 151.646,15.167 151.183 C 15.625 150.719,16.001 150.283,16.001 150.212 C 16.002 150.141,16.264 149.905,16.584 149.687 C 16.905 149.469,17.167 149.225,17.167 149.145 C 17.167 148.955,17.791 148.333,17.982 148.333 C 18.163 148.333,18.333 147.922,18.333 147.486 C 18.333 147.311,18.446 147.167,18.583 147.167 C 18.721 147.167,18.833 147.054,18.833 146.917 C 18.833 146.778,18.981 146.667,19.167 146.667 C 19.352 146.667,19.500 146.556,19.500 146.417 C 19.500 146.279,19.612 146.167,19.750 146.167 C 19.889 146.167,20.000 146.019,20.000 145.833 C 20.000 145.648,20.111 145.500,20.250 145.500 C 20.387 145.500,20.500 145.387,20.500 145.250 C 20.500 145.112,20.615 145.000,20.755 145.000 C 20.896 145.000,21.054 144.887,21.106 144.750 C 21.159 144.612,21.307 144.500,21.434 144.500 C 21.562 144.500,21.667 144.350,21.667 144.167 C 21.667 143.944,21.778 143.833,22.000 143.833 C 22.185 143.833,22.333 143.722,22.333 143.583 C 22.333 143.446,22.446 143.333,22.583 143.333 C 22.722 143.333,22.833 143.185,22.833 143.000 C 22.833 142.815,22.944 142.667,23.083 142.667 C 23.221 142.667,23.333 142.554,23.333 142.417 C 23.333 142.279,23.427 142.165,23.542 142.164 C 23.796 142.160,24.500 141.441,24.500 141.185 C 24.500 141.083,24.613 141.000,24.750 141.000 C 24.887 141.000,25.000 140.897,25.000 140.770 C 25.000 140.644,25.127 140.438,25.282 140.312 C 25.474 140.157,25.524 140.150,25.439 140.292 C 25.370 140.406,25.357 140.500,25.411 140.500 C 25.464 140.500,25.581 140.308,25.670 140.073 C 25.760 139.839,25.908 139.693,26.000 139.750 C 26.092 139.807,26.167 139.736,26.167 139.593 C 26.167 139.450,26.279 139.333,26.417 139.333 C 26.554 139.333,26.667 139.221,26.667 139.083 C 26.667 138.946,26.775 138.833,26.907 138.833 C 27.039 138.833,27.201 138.747,27.266 138.641 C 27.347 138.510,27.310 138.494,27.151 138.590 C 26.951 138.710,26.951 138.689,27.145 138.449 C 27.271 138.294,27.477 138.167,27.604 138.167 C 27.746 138.167,27.833 137.983,27.833 137.686 C 27.833 137.346,27.931 137.180,28.167 137.118 C 28.350 137.070,28.500 136.912,28.500 136.766 C 28.500 136.620,28.613 136.500,28.750 136.500 C 28.887 136.500,29.000 136.387,29.000 136.250 C 29.000 136.112,29.113 136.000,29.250 136.000 C 29.387 136.000,29.500 135.896,29.500 135.769 C 29.500 135.643,29.650 135.500,29.833 135.452 C 30.017 135.404,30.167 135.245,30.167 135.099 C 30.167 134.953,30.279 134.833,30.417 134.833 C 30.554 134.833,30.667 134.730,30.667 134.603 C 30.667 134.476,30.817 134.333,31.000 134.285 C 31.183 134.237,31.333 134.078,31.333 133.932 C 31.333 133.786,31.446 133.667,31.583 133.667 C 31.721 133.667,31.833 133.554,31.833 133.417 C 31.833 133.279,31.946 133.167,32.083 133.167 C 32.221 133.167,32.333 133.082,32.333 132.977 C 32.333 132.755,33.112 132.000,33.342 132.000 C 33.429 132.000,33.500 131.893,33.500 131.761 C 33.500 131.630,33.648 131.475,33.830 131.418 C 34.011 131.360,34.143 131.224,34.122 131.115 C 34.101 131.006,34.173 130.934,34.282 130.955 C 34.391 130.976,34.524 130.854,34.578 130.685 C 34.631 130.515,34.898 130.206,35.171 129.997 C 35.444 129.788,35.667 129.516,35.667 129.392 C 35.667 129.268,35.817 129.167,36.000 129.167 C 36.185 129.167,36.333 129.056,36.333 128.917 C 36.333 128.779,36.446 128.667,36.583 128.667 C 36.721 128.667,36.833 128.525,36.833 128.353 C 36.833 128.179,36.982 128.000,37.167 127.952 C 37.392 127.893,37.500 127.724,37.500 127.432 C 37.500 127.159,37.592 127.000,37.750 127.000 C 37.889 127.000,38.000 126.852,38.000 126.667 C 38.000 126.444,38.111 126.333,38.333 126.333 C 38.519 126.333,38.667 126.222,38.667 126.083 C 38.667 125.946,38.779 125.833,38.917 125.833 C 39.054 125.833,39.167 125.721,39.167 125.583 C 39.167 125.446,39.279 125.333,39.417 125.333 C 39.556 125.333,39.667 125.185,39.667 125.000 C 39.667 124.778,39.778 124.667,40.000 124.667 C 40.185 124.667,40.333 124.556,40.333 124.417 C 40.333 124.279,40.446 124.167,40.583 124.167 C 40.721 124.167,40.833 124.054,40.833 123.917 C 40.833 123.779,40.946 123.667,41.083 123.667 C 41.222 123.667,41.333 123.519,41.333 123.333 C 41.333 123.111,41.444 123.000,41.667 123.000 C 41.852 123.000,42.000 122.889,42.000 122.750 C 42.000 122.612,42.112 122.500,42.250 122.500 C 42.389 122.500,42.500 122.352,42.500 122.167 C 42.500 121.978,42.611 121.833,42.755 121.833 C 42.896 121.833,43.054 121.721,43.106 121.583 C 43.159 121.446,43.298 121.333,43.415 121.333 C 43.532 121.333,43.669 121.176,43.719 120.983 C 43.770 120.790,43.891 120.683,43.989 120.743 C 44.093 120.807,44.167 120.711,44.167 120.510 C 44.167 120.321,44.238 120.167,44.325 120.167 C 44.554 120.167,45.333 119.412,45.333 119.189 C 45.333 119.085,45.446 119.000,45.583 119.000 C 45.721 119.000,45.833 118.888,45.833 118.750 C 45.833 118.612,45.905 118.500,45.992 118.500 C 46.311 118.500,47.000 117.641,47.000 117.242 C 47.000 116.944,47.091 116.833,47.333 116.833 C 47.519 116.833,47.667 116.722,47.667 116.583 C 47.667 116.446,47.779 116.333,47.917 116.333 C 48.056 116.333,48.167 116.185,48.167 116.000 C 48.167 115.815,48.278 115.667,48.417 115.667 C 48.554 115.667,48.667 115.554,48.667 115.417 C 48.667 115.279,48.782 115.167,48.922 115.167 C 49.062 115.167,49.220 115.054,49.273 114.917 C 49.326 114.779,49.473 114.667,49.601 114.667 C 49.729 114.667,49.833 114.517,49.833 114.333 C 49.833 114.111,49.944 114.000,50.167 114.000 C 50.352 114.000,50.500 113.889,50.500 113.750 C 50.500 113.612,50.612 113.500,50.750 113.500 C 50.889 113.500,51.000 113.352,51.000 113.167 C 51.000 112.981,51.111 112.833,51.250 112.833 C 51.387 112.833,51.500 112.721,51.500 112.583 C 51.500 112.446,51.594 112.332,51.708 112.330 C 51.962 112.327,52.667 111.608,52.667 111.352 C 52.667 111.250,52.779 111.167,52.917 111.167 C 53.054 111.167,53.167 111.063,53.167 110.936 C 53.167 110.809,53.317 110.666,53.500 110.618 C 53.683 110.570,53.833 110.412,53.833 110.266 C 53.833 110.120,53.946 110.000,54.083 110.000 C 54.221 110.000,54.333 109.931,54.333 109.847 C 54.333 109.628,55.605 108.333,55.820 108.333 C 55.919 108.333,56.000 108.221,56.000 108.085 C 56.000 107.948,56.150 107.742,56.333 107.628 C 56.517 107.513,56.667 107.250,56.667 107.043 C 56.667 106.820,56.768 106.667,56.917 106.667 C 57.054 106.667,57.167 106.554,57.167 106.417 C 57.167 106.279,57.279 106.167,57.417 106.167 C 57.556 106.167,57.667 106.019,57.667 105.833 C 57.667 105.611,57.778 105.500,58.000 105.500 C 58.185 105.500,58.333 105.389,58.333 105.250 C 58.333 105.112,58.446 105.000,58.583 105.000 C 58.721 105.000,58.833 104.888,58.833 104.750 C 58.833 104.612,58.941 104.500,59.072 104.500 C 59.203 104.500,59.358 104.350,59.417 104.167 C 59.475 103.983,59.630 103.833,59.761 103.833 C 59.893 103.833,60.000 103.721,60.000 103.583 C 60.000 103.446,60.112 103.333,60.250 103.333 C 60.387 103.333,60.500 103.226,60.500 103.095 C 60.500 102.963,60.650 102.808,60.833 102.750 C 61.017 102.692,61.167 102.537,61.167 102.405 C 61.167 102.274,61.279 102.167,61.417 102.167 C 61.554 102.167,61.667 102.063,61.667 101.936 C 61.667 101.809,61.819 101.666,62.005 101.617 C 62.191 101.568,62.322 101.466,62.296 101.389 C 62.239 101.216,62.939 100.500,63.167 100.500 C 63.258 100.500,63.333 100.396,63.333 100.268 C 63.333 100.140,63.446 99.992,63.583 99.940 C 63.721 99.887,63.833 99.729,63.833 99.589 C 63.833 99.444,63.978 99.333,64.167 99.333 C 64.350 99.333,64.500 99.229,64.500 99.101 C 64.500 98.973,64.612 98.826,64.750 98.773 C 64.887 98.720,65.000 98.562,65.000 98.422 C 65.000 98.282,65.098 98.167,65.219 98.167 C 65.517 98.167,66.167 97.258,66.167 96.840 C 66.167 96.611,66.276 96.500,66.500 96.500 C 66.685 96.500,66.833 96.389,66.833 96.250 C 66.833 96.112,66.946 96.000,67.083 96.000 C 67.221 96.000,67.333 95.888,67.333 95.750 C 67.333 95.612,67.446 95.500,67.583 95.500 C 67.722 95.500,67.833 95.352,67.833 95.167 C 67.833 94.944,67.944 94.833,68.167 94.833 C 68.352 94.833,68.500 94.722,68.500 94.583 C 68.500 94.446,68.612 94.333,68.750 94.333 C 68.887 94.333,69.000 94.221,69.000 94.083 C 69.000 93.946,69.112 93.833,69.250 93.833 C 69.389 93.833,69.500 93.685,69.500 93.500 C 69.500 93.278,69.611 93.167,69.833 93.167 C 70.017 93.167,70.167 93.062,70.167 92.934 C 70.167 92.807,70.279 92.659,70.417 92.606 C 70.554 92.554,70.667 92.396,70.667 92.255 C 70.667 92.115,70.782 92.000,70.922 92.000 C 71.062 92.000,71.220 91.888,71.273 91.750 C 71.326 91.612,71.473 91.500,71.601 91.500 C 71.729 91.500,71.833 91.396,71.833 91.268 C 71.833 91.140,71.946 90.992,72.083 90.940 C 72.221 90.887,72.333 90.729,72.333 90.589 C 72.333 90.444,72.478 90.333,72.667 90.333 C 72.852 90.333,73.000 90.222,73.000 90.083 C 73.000 89.946,73.107 89.833,73.238 89.833 C 73.370 89.833,73.503 89.665,73.534 89.458 C 73.566 89.252,73.689 89.104,73.808 89.129 C 73.927 89.154,73.977 89.098,73.918 89.003 C 73.860 88.908,73.937 88.783,74.089 88.725 C 74.439 88.591,75.167 87.871,75.167 87.659 C 75.167 87.572,75.281 87.500,75.421 87.500 C 75.570 87.500,75.716 87.293,75.775 87.000 C 75.830 86.725,75.978 86.500,76.104 86.500 C 76.230 86.500,76.333 86.350,76.333 86.167 C 76.333 85.981,76.444 85.833,76.583 85.833 C 76.721 85.833,76.833 85.721,76.833 85.583 C 76.833 85.444,76.981 85.333,77.167 85.333 C 77.389 85.333,77.500 85.222,77.500 85.000 C 77.500 84.815,77.611 84.667,77.750 84.667 C 77.887 84.667,78.000 84.554,78.000 84.417 C 78.000 84.279,78.094 84.165,78.208 84.164 C 78.462 84.160,79.167 83.441,79.167 83.185 C 79.167 83.083,79.279 83.000,79.417 83.000 C 79.554 83.000,79.667 82.887,79.667 82.750 C 79.667 82.612,79.760 82.499,79.875 82.497 C 80.129 82.494,80.833 81.774,80.833 81.518 C 80.833 81.417,80.946 81.333,81.083 81.333 C 81.221 81.333,81.333 81.221,81.333 81.083 C 81.333 80.946,81.453 80.833,81.599 80.833 C 81.745 80.833,81.904 80.683,81.952 80.500 C 82.000 80.317,82.143 80.167,82.269 80.167 C 82.396 80.167,82.500 80.054,82.500 79.917 C 82.500 79.779,82.594 79.666,82.708 79.666 C 82.823 79.665,83.095 79.402,83.313 79.082 C 83.531 78.762,83.812 78.500,83.938 78.500 C 84.064 78.500,84.167 78.390,84.167 78.256 C 84.167 78.122,84.319 77.930,84.505 77.831 C 84.691 77.731,84.799 77.579,84.745 77.492 C 84.691 77.405,84.801 77.333,84.990 77.333 C 85.260 77.333,85.333 77.227,85.333 76.833 C 85.333 76.500,85.417 76.333,85.583 76.333 C 85.722 76.333,85.833 76.185,85.833 76.000 C 85.833 75.778,85.944 75.667,86.167 75.667 C 86.352 75.667,86.500 75.556,86.500 75.417 C 86.500 75.279,86.612 75.167,86.750 75.167 C 86.961 75.167,87.000 74.778,87.000 72.667 C 87.000 70.556,86.961 70.167,86.750 70.167 C 86.575 70.167,86.500 69.991,86.500 69.583 C 86.500 69.111,86.437 69.000,86.167 69.000 C 85.981 69.000,85.833 68.889,85.833 68.750 C 85.833 68.583,85.667 68.500,85.333 68.500 C 84.944 68.500,84.833 68.426,84.833 68.165 C 84.833 67.640,43.852 67.644,43.714 68.169 " stroke="none" fill="#04a4dc" fill-rule="evenodd"></path><path id="path2" d="M183.875 79.458 C 185.135 79.486,187.198 79.486,188.458 79.458 C 189.719 79.430,188.688 79.406,186.167 79.406 C 183.646 79.406,182.615 79.430,183.875 79.458 " stroke="none" fill="#5c5c5c" fill-rule="evenodd"></path><path id="path3" d="M100.295 80.287 C 100.594 80.325,101.044 80.324,101.295 80.286 C 101.545 80.248,101.300 80.217,100.750 80.218 C 100.200 80.219,99.995 80.250,100.295 80.287 " stroke="none" fill="#587c78" fill-rule="evenodd"></path><path id="path4" d="M100.295 80.287 C 100.594 80.325,101.044 80.324,101.295 80.286 C 101.545 80.248,101.300 80.217,100.750 80.218 C 100.200 80.219,99.995 80.250,100.295 80.287 " stroke="none" fill="#587c78" fill-rule="evenodd"></path></g></svg>