<svg xmlns="http://www.w3.org/2000/svg" viewBox="0 0 2251.29 382.17"><defs><style>.cls-1{fill:#fff;}.cls-2{fill:#fad32d;}</style></defs><title>Asset 2</title><g id="Layer_2" data-name="Layer 2"><g id="Layer_1-2" data-name="Layer 1"><path class="cls-1" d="M240.17,288.67c0,63.11-54.93,93.5-117.46,93.5C64.28,382.17,21,357.62,0,312.63l65.45-36.82c8.18,24,28.05,38,57.26,38,24,0,40.32-8.18,40.32-25.13C163,246,12.27,269.39,12.27,166.54c0-59.6,50.84-92.91,111-92.91,47.33,0,88.23,21.62,111,61.94l-64.28,35.06c-8.77-18.7-25.13-29.8-46.75-29.8-18.7,0-33.89,8.18-33.89,24C89.41,208,240.17,181.15,240.17,288.67Z"/><path class="cls-1" d="M773.81,81.81V374H698.43V339.51c-21,26.29-52.59,42.66-95.25,42.66-77.72,0-142-67.21-142-154.27s64.28-154.27,142-154.27c42.66,0,74.21,16.36,95.25,42.66V81.81ZM698.43,227.9c0-49.09-34.48-82.4-81.23-82.4-46.16,0-80.64,33.31-80.64,82.4S571,310.29,617.2,310.29C664,310.29,698.43,277,698.43,227.9Z"/><path class="cls-1" d="M980,76v84.14c-39.15-4.67-88.82,12.86-88.82,74.22V374H815.76V81.81h75.38v50.25C906.33,92.33,943.15,76,980,76Z"/><path class="cls-1" d="M1355,154.27V275.81c0,31.56,22.79,32.14,66,29.81V374c-105.77,11.69-141.41-19.28-141.41-98.17V154.27h-50.84V81.81h50.84V0H1355V81.81h66v72.46Z"/><path class="cls-1" d="M1616.64,76v84.14c-39.15-4.67-88.82,12.86-88.82,74.22V374h-75.38V81.81h75.38v50.25C1543,92.33,1579.82,76,1616.64,76Z"/><path class="cls-1" d="M1787.91,313.8c29.22,0,52.59-12.27,65.45-29.22l60.77,35.06c-27.46,39.74-71.29,62.53-127.39,62.53-98.17,0-160.11-67.21-160.11-154.27S1689.16,73.63,1780.9,73.63c86.48,0,147.84,68.37,147.84,154.27a174.49,174.49,0,0,1-2.92,31h-220.3C1716,297.44,1748.18,313.8,1787.91,313.8Zm65.45-113.37c-9.35-42.07-40.91-59-72.46-59-40.32,0-67.79,21.62-76.55,59Z"/><path class="cls-1" d="M2110.46,313.8c29.22,0,52.59-12.27,65.45-29.22l60.77,35.06c-27.46,39.74-71.29,62.53-127.38,62.53-98.18,0-160.12-67.21-160.12-154.27s62.53-154.27,154.27-154.27c86.49,0,147.84,68.37,147.84,154.27a174.49,174.49,0,0,1-2.92,31h-220.3C2038.59,297.44,2070.73,313.8,2110.46,313.8Zm65.45-113.37c-9.35-42.07-40.9-59-72.46-59-40.32,0-67.78,21.62-76.55,59Z"/><path class="cls-1" d="M380.55,154.27V275.81c0,31.56,22.79,32.14,66,29.81V374c-105.77,11.69-141.42-19.28-141.42-98.17V154.27H254.33V81.81h50.83V0h75.39V81.81h66v72.46Z"/><path class="cls-2" d="M1198.33,197.94h-87.28L1111,79.15a5.49,5.49,0,0,0-10.19-2.85L998,247.44a5.51,5.51,0,0,0,4.69,8.37H1090l.07,118.79a5.48,5.48,0,0,0,10.18,2.85L1203,206.31A5.52,5.52,0,0,0,1198.33,197.94Z"/></g></g></svg>