<svg width="1487" height="253" viewBox="0 0 1487 253" fill="none" xmlns="http://www.w3.org/2000/svg">
<g clip-path="url(#clip0_2_2)">
<path d="M158.57 190.59C158.57 232.26 122.3 252.32 81.02 252.32C42.44 252.32 13.89 236.11 0.0200195 206.41L43.21 182.1C48.61 197.92 61.73 207.18 81.02 207.18C96.84 207.18 107.64 201.78 107.64 190.59C107.64 162.42 8.10002 177.86 8.10002 109.96C8.10002 70.6 41.67 48.61 81.41 48.61C112.66 48.61 139.66 62.89 154.71 89.51L112.27 112.66C106.48 100.31 95.68 93 81.41 93C69.06 93 59 98.38 59 108.8C59 137.35 158.57 119.6 158.57 190.59Z" fill="#0A263E"/>
<path d="M510.89 54V246.92H461.12V224.15C447.23 241.51 426.4 252.32 398.24 252.32C346.92 252.32 304.49 207.95 304.49 150.46C304.49 92.97 346.92 48.61 398.24 48.61C426.4 48.61 447.24 59.41 461.12 76.78V54H510.89ZM461.12 150.45C461.12 118.05 438.36 96.06 407.5 96.06C377.02 96.06 354.26 118.06 354.26 150.45C354.26 182.84 377.02 204.85 407.5 204.85C438.36 204.86 461.12 182.87 461.12 150.46V150.45Z" fill="#0A263E"/>
<path d="M647 50.15V105.71C621.15 102.62 588.36 114.2 588.36 154.71V246.92H538.59V54H588.36V87.19C598.39 61 622.7 50.15 647 50.15Z" fill="#0A263E"/>
<path d="M894.59 101.85V182.1C894.59 202.93 909.59 203.32 938.19 201.78V246.92C868.36 254.63 844.82 234.18 844.82 182.1V101.85H811.26V54H844.82V0H894.59V54H938.19V101.84L894.59 101.85Z" fill="#0A263E"/>
<path d="M1067.35 50.15V105.71C1041.51 102.62 1008.71 114.2 1008.71 154.71V246.92H958.94V54H1008.71V87.19C1018.74 61 1043.05 50.15 1067.35 50.15Z" fill="#0A263E"/>
<path d="M1180.43 207.18C1199.72 207.18 1215.16 199.08 1223.64 187.89L1263.77 211C1245.64 237.23 1216.7 252.28 1179.66 252.28C1114.85 252.32 1074 208 1074 150.46C1074 92.92 1115.23 48.61 1175.8 48.61C1232.9 48.61 1273.41 93.75 1273.41 150.46C1273.38 157.321 1272.73 164.165 1271.48 170.91H1126C1133 196.38 1154.2 207.18 1180.43 207.18ZM1223.64 132.33C1217.47 104.55 1196.64 93.33 1175.8 93.33C1149.18 93.33 1131.05 107.6 1125.26 132.33H1223.64Z" fill="#0A263E"/>
<path d="M1393.39 207.18C1412.68 207.18 1428.12 199.08 1436.6 187.89L1476.73 211C1458.6 237.23 1429.66 252.28 1392.62 252.28C1327.81 252.28 1286.91 207.91 1286.91 150.42C1286.91 92.93 1328.19 48.57 1388.76 48.57C1445.86 48.57 1486.37 93.71 1486.37 150.42C1486.34 157.281 1485.69 164.125 1484.44 170.87H1339C1345.94 196.38 1367.16 207.18 1393.39 207.18ZM1436.6 132.33C1430.43 104.55 1409.6 93.33 1388.76 93.33C1362.14 93.33 1344.01 107.6 1338.22 132.33H1436.6Z" fill="#0A263E"/>
<path d="M251.25 101.85V182.1C251.25 202.93 266.25 203.32 294.84 201.78V246.92C225.01 254.63 201.48 234.18 201.48 182.1V101.85H167.91V54H201.48V0H251.25V54H294.84V101.84L251.25 101.85Z" fill="#0A263E"/>
<path d="M791.17 130.69H733.55V52.26C733.552 51.4681 733.295 50.6973 732.817 50.0657C732.34 49.4341 731.668 48.9765 730.905 48.7632C730.143 48.5498 729.331 48.5924 728.595 48.8845C727.859 49.1765 727.239 49.7018 726.83 50.38L658.97 163.38C658.638 163.931 658.457 164.56 658.447 165.204C658.437 165.847 658.598 166.481 658.913 167.042C659.228 167.603 659.686 168.071 660.241 168.397C660.795 168.724 661.427 168.897 662.07 168.9H719.7L719.75 247.33C719.748 248.122 720.005 248.893 720.483 249.524C720.96 250.156 721.632 250.613 722.395 250.827C723.157 251.04 723.969 250.998 724.705 250.706C725.441 250.414 726.061 249.888 726.47 249.21L794.33 136.21C794.665 135.655 794.846 135.02 794.853 134.371C794.86 133.723 794.694 133.084 794.372 132.521C794.05 131.958 793.583 131.492 793.02 131.17C792.457 130.848 791.819 130.682 791.17 130.69V130.69Z" fill="#FAD32D"/>
</g>
<defs>
<clipPath id="clip0_2_2">
<rect width="1486.37" height="252.32" fill="white"/>
</clipPath>
</defs>
</svg>
