<svg id="svg" version="1.1" xmlns="http://www.w3.org/2000/svg" xmlns:xlink="http://www.w3.org/1999/xlink" width="400" height="184.81848184818483" viewBox="0, 0, 400,184.81848184818483"><g id="svgg"><path id="path0" d="M151.063 7.116 C 150.936 7.260,150.832 7.465,150.832 7.571 C 150.832 7.677,150.743 7.763,150.634 7.763 C 150.378 7.763,149.908 8.234,149.908 8.490 C 149.908 8.598,149.821 8.688,149.714 8.688 C 149.463 8.688,148.614 9.537,148.614 9.788 C 148.614 9.895,148.525 9.982,148.416 9.982 C 147.290 9.982,147.365 12.812,148.521 13.985 C 148.979 14.449,149.353 14.903,149.353 14.993 C 149.353 15.083,149.478 15.157,149.630 15.157 C 149.783 15.157,149.908 15.246,149.908 15.355 C 149.908 15.558,150.358 16.081,150.533 16.081 C 150.659 16.081,152.495 17.918,152.495 18.044 C 152.495 18.219,153.019 18.669,153.222 18.669 C 153.330 18.669,153.420 18.758,153.420 18.867 C 153.420 19.070,153.870 19.593,154.045 19.593 C 154.171 19.593,156.007 21.430,156.007 21.556 C 156.007 21.731,156.531 22.181,156.734 22.181 C 156.842 22.181,156.932 22.306,156.932 22.458 C 156.932 22.611,157.006 22.736,157.098 22.736 C 157.315 22.736,158.595 24.016,158.595 24.233 C 158.595 24.324,158.706 24.399,158.841 24.399 C 158.977 24.399,159.199 24.607,159.335 24.861 C 159.471 25.116,159.647 25.323,159.727 25.323 C 159.886 25.323,161.738 27.131,161.738 27.286 C 161.738 27.461,162.261 27.911,162.464 27.911 C 162.573 27.911,162.662 28.000,162.662 28.109 C 162.662 28.312,163.112 28.835,163.287 28.835 C 163.413 28.835,165.250 30.672,165.250 30.798 C 165.250 30.973,165.773 31.423,165.976 31.423 C 166.085 31.423,166.174 31.548,166.174 31.701 C 166.174 31.853,166.249 31.978,166.340 31.978 C 166.557 31.978,167.837 33.258,167.837 33.475 C 167.837 33.567,167.948 33.641,168.083 33.641 C 168.219 33.641,168.441 33.849,168.577 34.104 C 168.713 34.358,168.889 34.566,168.969 34.566 C 169.128 34.566,170.980 36.373,170.980 36.528 C 170.980 36.703,171.503 37.153,171.706 37.153 C 171.815 37.153,171.904 37.243,171.904 37.351 C 171.904 37.554,172.354 38.078,172.529 38.078 C 172.655 38.078,174.492 39.914,174.492 40.040 C 174.492 40.215,175.015 40.665,175.218 40.665 C 175.327 40.665,175.416 40.790,175.416 40.943 C 175.416 41.095,175.491 41.220,175.582 41.220 C 175.799 41.220,177.079 42.501,177.079 42.717 C 177.079 42.809,177.190 42.884,177.326 42.884 C 177.461 42.884,177.678 43.082,177.808 43.325 C 177.938 43.568,178.243 43.873,178.486 44.003 C 178.729 44.134,178.928 44.398,178.928 44.592 C 178.928 44.975,179.338 45.471,179.654 45.471 C 179.763 45.471,179.852 45.596,179.852 45.749 C 179.852 45.901,179.935 46.026,180.037 46.026 C 180.139 46.026,180.222 46.151,180.222 46.303 C 180.222 46.456,180.305 46.580,180.407 46.580 C 180.508 46.580,180.591 46.708,180.591 46.863 C 180.591 47.019,180.716 47.194,180.869 47.253 C 181.021 47.311,181.146 47.558,181.146 47.802 C 181.146 48.045,181.229 48.244,181.331 48.244 C 181.433 48.244,181.516 48.371,181.516 48.527 C 181.516 48.683,181.640 48.858,181.793 48.917 C 181.945 48.975,182.070 49.222,182.070 49.465 C 182.070 49.709,182.153 49.908,182.255 49.908 C 182.357 49.908,182.440 50.199,182.440 50.555 C 182.440 50.910,182.523 51.201,182.625 51.201 C 182.726 51.201,182.810 51.572,182.810 52.024 C 182.810 52.569,182.905 52.900,183.091 53.004 C 183.470 53.216,183.420 60.196,183.041 60.120 C 182.880 60.088,182.810 60.357,182.810 60.998 C 182.810 61.506,182.726 61.922,182.625 61.922 C 182.523 61.922,182.440 62.213,182.440 62.569 C 182.440 62.925,182.357 63.216,182.255 63.216 C 182.153 63.216,182.070 63.424,182.070 63.678 C 182.070 63.966,181.965 64.140,181.793 64.140 C 181.619 64.140,181.516 64.316,181.516 64.613 C 181.516 64.889,181.437 65.038,181.326 64.969 C 181.222 64.905,181.149 64.921,181.163 65.005 C 181.242 65.456,181.114 65.804,180.869 65.804 C 180.716 65.804,180.591 65.929,180.591 66.081 C 180.591 66.234,180.508 66.359,180.407 66.359 C 180.305 66.359,180.219 66.504,180.216 66.682 C 180.209 67.082,179.792 67.652,179.508 67.652 C 179.392 67.652,179.298 67.736,179.298 67.837 C 179.298 68.155,179.758 68.040,180.037 67.652 C 180.184 67.449,180.378 67.283,180.468 67.283 C 180.559 67.283,181.185 66.749,181.860 66.096 C 182.535 65.443,183.295 64.746,183.549 64.547 C 183.803 64.348,184.427 63.802,184.935 63.333 C 185.444 62.864,185.916 62.480,185.985 62.479 C 186.054 62.478,186.227 62.360,186.370 62.217 C 186.783 61.804,190.511 59.335,190.722 59.335 C 190.826 59.335,190.940 59.259,190.974 59.167 C 191.061 58.930,195.927 56.511,197.689 55.829 C 198.503 55.514,199.335 55.185,199.538 55.096 C 200.357 54.741,203.507 53.847,204.806 53.601 C 205.263 53.515,206.511 53.274,207.579 53.065 C 208.646 52.857,210.034 52.685,210.664 52.683 C 211.293 52.682,211.860 52.597,211.922 52.495 C 211.985 52.394,212.302 52.309,212.626 52.308 C 213.393 52.305,214.048 52.126,214.048 51.919 C 214.048 51.829,213.388 51.756,212.580 51.756 C 211.773 51.756,211.061 51.673,210.998 51.571 C 210.935 51.470,210.385 51.386,209.775 51.386 C 209.165 51.386,208.712 51.312,208.768 51.221 C 208.905 50.999,208.428 50.832,207.656 50.832 C 207.308 50.832,207.024 50.749,207.024 50.647 C 207.024 50.545,206.660 50.462,206.215 50.462 C 205.721 50.462,205.316 50.354,205.176 50.185 C 205.049 50.032,204.711 49.908,204.425 49.908 C 204.138 49.908,203.852 49.824,203.789 49.723 C 203.726 49.621,203.430 49.538,203.131 49.538 C 202.832 49.538,202.588 49.455,202.588 49.353 C 202.588 49.251,202.389 49.168,202.145 49.168 C 201.902 49.168,201.663 49.062,201.613 48.933 C 201.563 48.804,201.284 48.678,200.992 48.654 C 200.701 48.630,200.434 48.528,200.400 48.427 C 200.367 48.326,200.190 48.244,200.007 48.244 C 199.825 48.244,199.572 48.119,199.445 47.967 C 199.319 47.814,199.101 47.689,198.961 47.689 C 198.821 47.689,198.706 47.606,198.706 47.505 C 198.706 47.403,198.498 47.320,198.244 47.320 C 197.990 47.320,197.782 47.237,197.782 47.135 C 197.782 47.033,197.574 46.950,197.320 46.950 C 197.066 46.950,196.858 46.843,196.858 46.713 C 196.858 46.583,196.483 46.366,196.026 46.231 C 195.568 46.096,195.194 45.911,195.194 45.821 C 195.194 45.730,194.986 45.656,194.732 45.656 C 194.444 45.656,194.270 45.551,194.270 45.379 C 194.270 45.226,194.140 45.102,193.982 45.102 C 193.823 45.102,193.746 45.016,193.811 44.912 C 193.875 44.808,193.859 44.735,193.775 44.749 C 193.324 44.828,192.976 44.700,192.976 44.455 C 192.976 44.302,192.851 44.177,192.699 44.177 C 192.546 44.177,192.421 44.094,192.421 43.993 C 192.421 43.891,192.255 43.808,192.052 43.808 C 191.848 43.808,191.682 43.725,191.682 43.623 C 191.682 43.521,191.557 43.438,191.405 43.438 C 191.252 43.438,191.128 43.313,191.128 43.161 C 191.128 43.007,190.963 42.884,190.758 42.884 C 190.555 42.884,190.388 42.800,190.388 42.699 C 190.388 42.597,190.299 42.514,190.190 42.514 C 189.934 42.514,189.464 42.044,189.464 41.788 C 189.464 41.679,189.301 41.590,189.101 41.590 C 188.902 41.590,188.354 41.215,187.883 40.758 C 187.412 40.300,186.938 39.926,186.828 39.926 C 186.719 39.926,186.675 39.881,186.730 39.825 C 186.852 39.703,185.809 38.632,185.568 38.632 C 185.474 38.632,185.397 38.507,185.397 38.355 C 185.397 38.202,185.302 38.078,185.186 38.078 C 185.070 38.078,184.737 37.828,184.445 37.523 C 184.154 37.218,183.964 36.969,184.023 36.969 C 184.082 36.969,184.005 36.844,183.853 36.691 C 183.700 36.539,183.486 36.414,183.377 36.414 C 183.268 36.414,183.179 36.320,183.179 36.205 C 183.179 35.983,182.260 35.121,182.024 35.120 C 181.948 35.120,181.885 35.031,181.885 34.922 C 181.885 34.813,181.761 34.599,181.608 34.447 C 181.456 34.294,181.331 34.223,181.331 34.289 C 181.331 34.355,181.081 34.160,180.776 33.855 C 180.471 33.550,180.222 33.211,180.222 33.101 C 180.222 32.992,180.097 32.902,179.945 32.902 C 179.792 32.902,179.667 32.813,179.667 32.704 C 179.667 32.459,179.362 32.148,178.691 31.709 C 178.408 31.525,178.217 31.333,178.266 31.284 C 178.388 31.162,177.894 30.684,177.647 30.684 C 177.538 30.684,177.449 30.622,177.449 30.545 C 177.449 30.309,176.586 29.390,176.365 29.390 C 176.250 29.390,176.155 29.265,176.155 29.113 C 176.155 28.960,176.060 28.835,175.944 28.835 C 175.828 28.835,175.495 28.586,175.203 28.281 C 174.912 27.976,174.722 27.726,174.781 27.726 C 174.840 27.726,174.763 27.602,174.611 27.449 C 174.458 27.297,174.244 27.172,174.135 27.172 C 174.026 27.172,173.937 27.078,173.937 26.962 C 173.937 26.741,173.018 25.879,172.782 25.878 C 172.706 25.878,172.643 25.789,172.643 25.680 C 172.643 25.571,172.518 25.357,172.366 25.205 C 172.213 25.052,172.089 24.981,172.089 25.047 C 172.089 25.113,171.839 24.918,171.534 24.613 C 171.229 24.308,170.980 23.968,170.980 23.859 C 170.980 23.749,170.855 23.660,170.702 23.660 C 170.550 23.660,170.425 23.571,170.425 23.462 C 170.425 23.217,170.120 22.906,169.449 22.467 C 169.166 22.282,168.975 22.091,169.024 22.042 C 169.146 21.920,168.652 21.442,168.405 21.442 C 168.296 21.442,168.207 21.379,168.207 21.303 C 168.206 21.067,167.344 20.148,167.123 20.148 C 167.007 20.148,166.913 20.023,166.913 19.871 C 166.913 19.718,166.787 19.593,166.632 19.593 C 166.477 19.593,166.256 19.385,166.140 19.131 C 166.024 18.877,165.804 18.669,165.651 18.669 C 165.498 18.669,165.424 18.618,165.487 18.555 C 165.627 18.414,165.167 17.930,164.893 17.930 C 164.784 17.930,164.695 17.835,164.695 17.720 C 164.695 17.499,163.776 16.636,163.540 16.636 C 163.463 16.636,163.401 16.547,163.401 16.438 C 163.401 16.231,162.932 15.694,162.761 15.705 C 162.550 15.719,161.960 14.996,162.076 14.866 C 162.144 14.790,162.102 14.784,161.983 14.852 C 161.865 14.920,161.642 14.850,161.488 14.697 C 161.335 14.543,161.120 14.418,161.011 14.418 C 160.902 14.418,160.813 14.329,160.813 14.220 C 160.813 13.964,160.343 13.494,160.087 13.494 C 159.978 13.494,159.889 13.407,159.889 13.300 C 159.889 13.049,159.039 12.200,158.788 12.200 C 158.682 12.200,158.595 12.111,158.595 12.002 C 158.595 11.746,158.125 11.275,157.869 11.275 C 157.760 11.275,157.671 11.188,157.671 11.082 C 157.671 10.831,156.821 9.982,156.570 9.982 C 156.464 9.982,156.377 9.895,156.377 9.788 C 156.377 9.537,155.527 8.688,155.276 8.688 C 155.170 8.688,155.083 8.598,155.083 8.490 C 155.083 8.234,154.613 7.763,154.357 7.763 C 154.248 7.763,154.159 7.669,154.159 7.553 C 154.159 6.888,151.584 6.524,151.063 7.116 M382.087 170.098 C 381.708 170.705,381.749 175.121,382.137 175.509 C 382.473 175.845,396.673 175.934,396.673 175.601 C 396.673 175.499,396.800 175.416,396.955 175.416 C 397.198 175.416,397.230 175.023,397.186 172.597 L 397.135 169.778 389.741 169.730 L 382.347 169.682 382.087 170.098 " stroke="none" fill="#eb5c44" fill-rule="evenodd"></path><path id="path1" d="M173.521 4.995 C 173.140 5.393,172.828 5.888,172.828 6.094 C 172.828 6.301,172.744 6.470,172.642 6.470 C 171.600 6.470,170.674 10.289,171.627 10.654 C 171.779 10.713,171.904 10.841,171.904 10.939 C 171.904 11.139,172.368 11.645,172.551 11.645 C 172.705 11.645,173.198 12.138,173.198 12.292 C 173.198 12.470,173.702 12.939,173.893 12.939 C 173.984 12.939,174.166 13.138,174.296 13.381 C 174.426 13.624,174.731 13.929,174.974 14.059 C 175.217 14.189,175.416 14.370,175.416 14.462 C 175.416 14.678,175.895 15.157,176.111 15.157 C 176.203 15.157,176.384 15.356,176.514 15.599 C 176.644 15.842,176.949 16.147,177.192 16.277 C 177.435 16.407,177.634 16.594,177.634 16.692 C 177.634 16.890,178.571 17.744,178.789 17.745 C 178.866 17.745,178.928 17.834,178.928 17.943 C 178.928 18.184,179.392 18.669,179.623 18.669 C 179.715 18.669,179.896 18.868,180.026 19.111 C 180.156 19.354,180.461 19.659,180.704 19.789 C 180.947 19.919,181.146 20.101,181.146 20.192 C 181.146 20.383,181.615 20.887,181.793 20.887 C 181.947 20.887,182.440 21.380,182.440 21.534 C 182.440 21.712,182.944 22.181,183.135 22.181 C 183.227 22.181,183.408 22.380,183.538 22.623 C 183.668 22.866,183.973 23.171,184.216 23.301 C 184.459 23.431,184.658 23.613,184.658 23.704 C 184.658 23.935,185.143 24.399,185.384 24.399 C 185.493 24.399,185.582 24.462,185.582 24.538 C 185.583 24.774,186.445 25.693,186.667 25.693 C 186.782 25.693,186.876 25.787,186.876 25.903 C 186.876 26.124,187.795 26.986,188.031 26.987 C 188.108 26.987,188.170 27.076,188.170 27.185 C 188.170 27.426,188.634 27.911,188.865 27.911 C 188.957 27.911,189.138 28.110,189.268 28.353 C 189.398 28.596,189.703 28.901,189.946 29.031 C 190.189 29.161,190.388 29.343,190.388 29.434 C 190.388 29.626,190.857 30.129,191.035 30.129 C 191.189 30.129,191.682 30.622,191.682 30.776 C 191.682 30.954,192.186 31.423,192.377 31.423 C 192.469 31.423,192.650 31.622,192.780 31.865 C 192.910 32.108,193.215 32.413,193.458 32.543 C 193.701 32.673,193.900 32.855,193.900 32.946 C 193.900 33.177,194.385 33.641,194.626 33.641 C 194.735 33.641,194.825 33.704,194.825 33.780 C 194.825 34.016,195.687 34.935,195.909 34.935 C 196.024 34.935,196.118 35.024,196.118 35.133 C 196.118 35.433,196.607 35.860,196.950 35.860 C 197.293 35.860,197.782 36.286,197.782 36.586 C 197.782 36.695,197.887 36.784,198.015 36.784 C 198.144 36.784,198.405 36.992,198.596 37.246 C 198.787 37.500,199.079 37.708,199.246 37.708 C 199.412 37.708,199.669 37.874,199.815 38.078 C 199.962 38.281,200.271 38.447,200.503 38.447 C 200.735 38.447,200.924 38.536,200.924 38.645 C 200.924 38.972,201.426 39.372,201.835 39.372 C 202.046 39.372,202.218 39.455,202.218 39.556 C 202.218 39.658,202.426 39.741,202.680 39.741 C 202.968 39.741,203.142 39.846,203.142 40.018 C 203.142 40.191,203.317 40.296,203.604 40.296 C 203.859 40.296,204.067 40.379,204.067 40.481 C 204.067 40.582,204.224 40.665,204.416 40.665 C 204.609 40.665,204.814 40.790,204.873 40.943 C 204.931 41.095,205.148 41.220,205.355 41.220 C 205.561 41.220,205.730 41.303,205.730 41.405 C 205.730 41.506,206.021 41.590,206.377 41.590 C 206.733 41.590,207.024 41.673,207.024 41.774 C 207.024 41.876,207.306 41.959,207.651 41.959 C 208.038 41.959,208.319 42.066,208.385 42.237 C 208.452 42.411,208.734 42.514,209.144 42.514 C 209.503 42.514,209.797 42.597,209.797 42.699 C 209.797 42.800,210.245 42.884,210.794 42.884 C 211.509 42.884,211.820 42.962,211.897 43.161 C 211.979 43.375,212.339 43.438,213.488 43.438 C 214.354 43.438,214.972 43.515,214.972 43.623 C 214.972 43.744,218.568 43.808,225.390 43.808 L 235.808 43.808 236.155 43.346 C 236.346 43.091,236.577 42.884,236.669 42.884 C 236.760 42.884,236.946 42.738,237.081 42.560 C 237.384 42.161,237.451 36.414,237.153 36.414 C 237.052 36.414,236.969 36.289,236.969 36.137 C 236.969 35.984,236.894 35.860,236.803 35.860 C 236.712 35.860,236.442 35.653,236.202 35.401 L 235.767 34.942 225.832 34.938 C 219.334 34.936,215.896 34.871,215.896 34.750 C 215.896 34.648,215.404 34.566,214.787 34.566 C 214.171 34.566,213.678 34.483,213.678 34.381 C 213.678 34.279,213.262 34.196,212.754 34.196 C 212.056 34.196,211.830 34.128,211.830 33.919 C 211.830 33.725,211.635 33.641,211.183 33.641 C 210.827 33.641,210.536 33.558,210.536 33.457 C 210.536 33.355,210.328 33.272,210.074 33.272 C 209.820 33.272,209.612 33.189,209.612 33.087 C 209.612 32.985,209.321 32.902,208.965 32.902 C 208.513 32.902,208.318 32.818,208.318 32.625 C 208.318 32.452,208.143 32.348,207.856 32.348 C 207.602 32.348,207.394 32.264,207.394 32.163 C 207.394 32.061,207.265 31.978,207.108 31.978 C 206.950 31.978,206.629 31.770,206.393 31.516 C 206.158 31.262,205.834 31.054,205.674 31.054 C 205.513 31.054,205.331 30.970,205.268 30.869 C 205.205 30.767,204.992 30.684,204.795 30.684 C 204.598 30.684,204.436 30.559,204.436 30.407 C 204.436 30.254,204.349 30.129,204.243 30.129 C 204.137 30.129,203.842 29.921,203.588 29.667 C 203.333 29.413,203.042 29.205,202.941 29.205 C 202.840 29.205,202.310 28.748,201.764 28.189 C 201.218 27.629,200.681 27.172,200.571 27.172 C 200.460 27.172,200.370 27.085,200.370 26.978 C 200.370 26.726,198.598 24.954,198.345 24.954 C 198.239 24.954,198.152 24.867,198.152 24.761 C 198.152 24.510,197.302 23.660,197.051 23.660 C 196.945 23.660,196.858 23.573,196.858 23.466 C 196.858 23.214,195.086 21.442,194.833 21.442 C 194.727 21.442,194.640 21.355,194.640 21.249 C 194.640 20.997,191.572 17.930,191.320 17.930 C 191.214 17.930,191.128 17.843,191.128 17.736 C 191.128 17.484,189.355 15.712,189.103 15.712 C 188.997 15.712,188.909 15.625,188.909 15.518 C 188.909 15.267,188.060 14.418,187.809 14.418 C 187.702 14.418,187.616 14.331,187.616 14.224 C 187.616 13.972,185.843 12.200,185.591 12.200 C 185.485 12.200,185.397 12.113,185.397 12.007 C 185.397 11.755,182.330 8.688,182.078 8.688 C 181.972 8.688,181.885 8.600,181.885 8.494 C 181.885 8.242,180.113 6.470,179.861 6.470 C 179.754 6.470,179.667 6.383,179.667 6.276 C 179.667 6.025,178.818 5.176,178.567 5.176 C 178.460 5.176,178.373 5.086,178.373 4.978 C 178.373 4.418,177.828 4.251,176.030 4.261 L 174.214 4.270 173.521 4.995 M146.996 30.036 C 146.869 30.181,146.765 30.350,146.765 30.412 C 146.765 30.562,146.270 31.054,146.118 31.054 C 145.964 31.054,145.471 31.546,145.471 31.701 C 145.471 31.892,144.961 32.348,144.745 32.348 C 144.636 32.348,144.547 32.437,144.547 32.546 C 144.547 32.801,144.077 33.272,143.821 33.272 C 143.699 33.272,143.623 33.771,143.623 34.574 L 143.623 35.877 144.547 36.801 C 145.055 37.310,145.471 37.805,145.471 37.902 C 145.471 37.998,145.540 38.078,145.623 38.078 C 145.841 38.078,148.983 41.193,148.983 41.409 C 148.983 41.508,149.065 41.590,149.164 41.590 C 149.380 41.590,152.495 44.732,152.495 44.950 C 152.495 45.033,152.575 45.102,152.671 45.102 C 152.901 45.102,154.713 46.914,154.713 47.144 C 154.713 47.241,154.785 47.320,154.872 47.320 C 155.248 47.320,158.490 50.764,158.681 51.367 C 158.749 51.581,158.883 51.756,158.977 51.756 C 159.072 51.756,159.150 51.922,159.150 52.126 C 159.150 52.329,159.233 52.495,159.335 52.495 C 159.436 52.495,159.519 52.703,159.519 52.957 C 159.519 53.245,159.624 53.420,159.797 53.420 C 160.006 53.420,160.074 53.646,160.074 54.344 C 160.074 54.852,160.157 55.268,160.259 55.268 C 160.364 55.268,160.444 55.823,160.444 56.562 C 160.444 57.301,160.364 57.856,160.259 57.856 C 160.157 57.856,160.074 58.272,160.074 58.780 C 160.074 59.478,160.006 59.704,159.797 59.704 C 159.607 59.704,159.519 59.894,159.519 60.307 C 159.519 60.735,159.385 61.011,159.057 61.257 C 158.803 61.448,158.595 61.717,158.595 61.854 C 158.595 62.152,158.268 62.557,156.978 63.860 C 156.444 64.399,156.007 64.938,156.007 65.058 C 156.007 65.289,155.561 65.804,155.360 65.804 C 155.206 65.804,154.713 66.297,154.713 66.451 C 154.713 66.643,154.203 67.098,153.987 67.098 C 153.878 67.098,153.789 67.187,153.789 67.296 C 153.789 67.511,153.334 68.022,153.142 68.022 C 152.988 68.022,152.495 68.515,152.495 68.669 C 152.495 68.861,151.985 69.316,151.769 69.316 C 151.660 69.316,151.571 69.403,151.571 69.509 C 151.571 69.760,150.721 70.610,150.471 70.610 C 150.364 70.610,150.277 70.699,150.277 70.808 C 150.277 71.023,149.822 71.534,149.630 71.534 C 149.476 71.534,148.983 72.027,148.983 72.181 C 148.983 72.373,148.473 72.828,148.257 72.828 C 148.148 72.828,148.059 72.917,148.059 73.026 C 148.059 73.242,147.604 73.752,147.412 73.752 C 147.258 73.752,146.765 74.245,146.765 74.399 C 146.765 74.553,146.273 75.046,146.118 75.046 C 145.926 75.046,145.471 75.557,145.471 75.772 C 145.471 75.881,145.388 75.970,145.287 75.970 C 145.177 75.970,145.102 76.651,145.102 77.642 L 145.102 79.313 146.665 80.877 L 148.228 82.440 149.674 82.440 C 150.908 82.440,151.159 82.386,151.386 82.070 C 151.533 81.867,151.759 81.701,151.889 81.701 C 152.019 81.701,152.126 81.614,152.126 81.507 C 152.126 81.256,152.975 80.407,153.226 80.407 C 153.333 80.407,153.420 80.300,153.420 80.170 C 153.420 80.040,153.586 79.814,153.789 79.667 C 153.993 79.521,154.159 79.294,154.159 79.164 C 154.159 79.034,154.246 78.928,154.353 78.928 C 154.605 78.928,156.377 77.156,156.377 76.903 C 156.377 76.797,156.464 76.710,156.570 76.710 C 156.821 76.710,157.671 75.860,157.671 75.609 C 157.671 75.503,157.758 75.416,157.865 75.416 C 158.117 75.416,159.889 73.644,159.889 73.391 C 159.889 73.285,159.996 73.198,160.126 73.198 C 160.256 73.198,160.482 73.031,160.628 72.828 C 160.775 72.625,161.001 72.458,161.131 72.458 C 161.261 72.458,161.368 72.372,161.368 72.265 C 161.368 72.159,161.825 71.626,162.384 71.080 C 162.944 70.534,163.401 69.997,163.401 69.887 C 163.401 69.776,163.488 69.686,163.595 69.686 C 163.847 69.686,165.619 67.914,165.619 67.661 C 165.619 67.555,165.744 67.468,165.896 67.468 C 166.051 67.468,166.174 67.303,166.174 67.098 C 166.174 66.895,166.257 66.728,166.359 66.728 C 166.460 66.728,166.543 66.604,166.543 66.451 C 166.543 66.299,166.627 66.174,166.728 66.174 C 166.830 66.174,166.913 66.016,166.913 65.824 C 166.913 65.631,167.038 65.426,167.190 65.368 C 167.343 65.309,167.468 65.092,167.468 64.886 C 167.468 64.679,167.551 64.510,167.652 64.510 C 167.754 64.510,167.837 64.311,167.837 64.068 C 167.837 63.825,167.962 63.578,168.115 63.519 C 168.277 63.457,168.392 63.180,168.392 62.852 C 168.392 62.544,168.475 62.292,168.577 62.292 C 168.678 62.292,168.762 61.876,168.762 61.368 C 168.762 60.860,168.845 60.444,168.946 60.444 C 169.064 60.444,169.131 59.026,169.131 56.562 C 169.131 54.097,169.064 52.680,168.946 52.680 C 168.845 52.680,168.762 52.311,168.762 51.859 C 168.762 51.408,168.678 50.987,168.577 50.924 C 168.475 50.861,168.392 50.613,168.392 50.372 C 168.392 50.131,168.267 49.809,168.115 49.657 C 167.962 49.504,167.837 49.207,167.837 48.997 C 167.837 48.786,167.754 48.614,167.652 48.614 C 167.551 48.614,167.468 48.445,167.468 48.238 C 167.468 48.032,167.343 47.815,167.190 47.756 C 167.038 47.698,166.913 47.492,166.913 47.300 C 166.913 47.108,166.830 46.950,166.728 46.950 C 166.627 46.950,166.543 46.825,166.543 46.673 C 166.543 46.520,166.460 46.396,166.359 46.396 C 166.257 46.396,166.174 46.268,166.174 46.112 C 166.174 45.957,166.049 45.782,165.896 45.723 C 165.744 45.665,165.619 45.538,165.619 45.443 C 165.619 45.205,163.835 43.438,163.595 43.438 C 163.488 43.438,163.401 43.351,163.401 43.245 C 163.401 42.994,162.551 42.144,162.300 42.144 C 162.194 42.144,162.107 42.057,162.107 41.951 C 162.107 41.698,160.335 39.926,160.083 39.926 C 159.976 39.926,159.889 39.839,159.889 39.732 C 159.889 39.626,159.477 39.127,158.974 38.623 C 158.470 38.120,157.971 37.708,157.865 37.708 C 157.758 37.708,157.671 37.621,157.671 37.515 C 157.671 37.264,156.821 36.414,156.570 36.414 C 156.464 36.414,156.377 36.327,156.377 36.220 C 156.377 36.114,155.965 35.615,155.462 35.111 C 154.958 34.608,154.459 34.196,154.353 34.196 C 154.246 34.196,154.159 34.109,154.159 34.003 C 154.159 33.752,153.309 32.902,153.058 32.902 C 152.952 32.902,152.865 32.815,152.865 32.708 C 152.865 32.456,151.093 30.684,150.841 30.684 C 150.734 30.684,150.647 30.595,150.647 30.486 C 150.647 29.769,147.566 29.390,146.996 30.036 M216.266 52.377 C 216.266 52.689,214.984 52.860,212.569 52.868 C 211.604 52.871,210.439 52.961,209.982 53.068 C 209.524 53.175,208.609 53.336,207.948 53.427 C 206.266 53.657,205.078 53.891,203.789 54.245 C 203.179 54.413,202.472 54.593,202.218 54.646 C 201.964 54.698,201.590 54.807,201.386 54.887 C 201.183 54.967,200.559 55.176,200.000 55.351 C 197.550 56.118,191.045 59.264,190.004 60.185 C 189.843 60.327,189.615 60.444,189.496 60.444 C 189.377 60.444,189.279 60.527,189.279 60.628 C 189.279 60.730,189.190 60.813,189.082 60.813 C 188.913 60.813,188.063 61.386,187.298 62.015 C 186.955 62.297,186.665 62.520,185.859 63.119 C 185.453 63.421,184.871 63.893,184.566 64.168 C 184.261 64.442,183.803 64.846,183.549 65.064 C 183.295 65.282,182.361 66.171,181.474 67.040 C 180.084 68.400,179.796 68.603,179.394 68.502 C 179.049 68.415,178.928 68.458,178.928 68.666 C 178.928 68.820,178.839 68.946,178.730 68.946 C 178.514 68.946,178.004 69.401,178.004 69.593 C 178.004 69.748,177.511 70.240,177.357 70.240 C 177.203 70.240,176.710 70.733,176.710 70.887 C 176.710 71.041,176.217 71.534,176.063 71.534 C 175.871 71.534,175.416 72.045,175.416 72.260 C 175.416 72.369,175.327 72.458,175.218 72.458 C 175.002 72.458,174.492 72.913,174.492 73.105 C 174.492 73.260,173.999 73.752,173.845 73.752 C 173.691 73.752,173.198 74.245,173.198 74.399 C 173.198 74.553,172.705 75.046,172.551 75.046 C 172.359 75.046,171.904 75.557,171.904 75.772 C 171.904 75.881,171.815 75.970,171.706 75.970 C 171.490 75.970,170.980 76.425,170.980 76.617 C 170.980 76.772,170.487 77.264,170.333 77.264 C 170.178 77.264,169.686 77.757,169.686 77.911 C 169.686 78.103,169.175 78.558,168.960 78.558 C 168.851 78.558,168.762 78.647,168.762 78.756 C 168.762 78.972,168.307 79.482,168.115 79.482 C 167.960 79.482,167.468 79.975,167.468 80.129 C 167.468 80.284,166.975 80.776,166.821 80.776 C 166.629 80.776,166.174 81.287,166.174 81.503 C 166.174 81.611,166.085 81.701,165.976 81.701 C 165.760 81.701,165.250 82.156,165.250 82.348 C 165.250 82.502,164.757 82.994,164.603 82.994 C 164.448 82.994,163.956 83.487,163.956 83.641 C 163.956 83.796,163.463 84.288,163.309 84.288 C 163.117 84.288,162.662 84.799,162.662 85.015 C 162.662 85.123,162.573 85.213,162.464 85.213 C 162.248 85.213,161.738 85.668,161.738 85.860 C 161.738 86.014,161.245 86.506,161.091 86.506 C 160.936 86.506,160.444 86.999,160.444 87.153 C 160.444 87.345,159.933 87.800,159.717 87.800 C 159.609 87.800,159.519 87.889,159.519 87.998 C 159.519 88.214,159.064 88.725,158.872 88.725 C 158.718 88.725,158.226 89.217,158.226 89.372 C 158.226 89.526,157.733 90.018,157.579 90.018 C 157.387 90.018,156.932 90.529,156.932 90.745 C 156.932 90.854,156.842 90.943,156.734 90.943 C 156.518 90.943,156.007 91.398,156.007 91.590 C 156.007 91.744,155.515 92.237,155.360 92.237 C 155.206 92.237,154.713 92.729,154.713 92.884 C 154.713 93.038,154.221 93.530,154.067 93.530 C 153.875 93.530,153.420 94.041,153.420 94.257 C 153.420 94.366,153.330 94.455,153.222 94.455 C 153.006 94.455,152.495 94.910,152.495 95.102 C 152.495 95.256,152.003 95.749,151.848 95.749 C 151.694 95.749,151.201 96.241,151.201 96.396 C 151.201 96.587,150.691 97.043,150.475 97.043 C 150.366 97.043,150.277 97.132,150.277 97.241 C 150.277 97.456,149.822 97.967,149.630 97.967 C 149.476 97.967,148.983 98.459,148.983 98.614 C 148.983 98.768,148.491 99.261,148.336 99.261 C 148.144 99.261,147.689 99.771,147.689 99.987 C 147.689 100.096,147.565 100.185,147.412 100.185 C 147.007 100.185,147.007 102.920,147.412 103.075 C 147.565 103.134,147.689 103.298,147.689 103.439 C 147.689 103.581,147.766 103.697,147.860 103.697 C 147.954 103.697,148.614 104.279,149.328 104.991 L 150.624 106.285 152.127 106.285 C 153.604 106.285,154.159 106.086,154.159 105.558 C 154.159 105.450,154.248 105.360,154.357 105.360 C 154.466 105.360,154.674 105.242,154.819 105.096 C 154.964 104.951,155.083 104.743,155.083 104.634 C 155.083 104.525,155.170 104.436,155.276 104.436 C 155.383 104.436,155.674 104.232,155.923 103.983 C 156.173 103.733,156.377 103.442,156.377 103.336 C 156.377 103.229,156.464 103.142,156.570 103.142 C 156.677 103.142,156.968 102.938,157.217 102.689 C 157.467 102.439,157.671 102.148,157.671 102.042 C 157.671 101.935,157.760 101.848,157.869 101.848 C 158.125 101.848,158.595 101.378,158.595 101.122 C 158.595 101.013,158.682 100.924,158.788 100.924 C 158.895 100.924,159.186 100.720,159.435 100.471 C 159.685 100.221,159.889 99.930,159.889 99.824 C 159.889 99.717,159.976 99.630,160.083 99.630 C 160.189 99.630,160.688 99.218,161.192 98.715 C 161.695 98.211,162.107 97.712,162.107 97.606 C 162.107 97.499,162.194 97.412,162.300 97.412 C 162.407 97.412,162.698 97.208,162.947 96.958 C 163.197 96.709,163.401 96.418,163.401 96.312 C 163.401 96.205,163.490 96.118,163.599 96.118 C 163.855 96.118,164.325 95.648,164.325 95.392 C 164.325 95.283,164.412 95.194,164.519 95.194 C 164.769 95.194,165.619 94.344,165.619 94.093 C 165.619 93.987,165.706 93.900,165.812 93.900 C 166.063 93.900,166.913 93.050,166.913 92.800 C 166.913 92.693,167.002 92.606,167.111 92.606 C 167.367 92.606,167.837 92.136,167.837 91.880 C 167.837 91.771,167.924 91.682,168.031 91.682 C 168.281 91.682,169.131 90.832,169.131 90.581 C 169.131 90.475,169.218 90.388,169.324 90.388 C 169.575 90.388,170.425 89.538,170.425 89.288 C 170.425 89.181,170.514 89.094,170.623 89.094 C 170.879 89.094,171.349 88.624,171.349 88.368 C 171.349 88.259,171.436 88.170,171.543 88.170 C 171.794 88.170,172.643 87.320,172.643 87.069 C 172.643 86.963,172.732 86.876,172.841 86.876 C 173.097 86.876,173.567 86.406,173.567 86.150 C 173.567 86.041,173.654 85.952,173.761 85.952 C 174.012 85.952,174.861 85.102,174.861 84.851 C 174.861 84.745,174.948 84.658,175.055 84.658 C 175.306 84.658,176.155 83.808,176.155 83.557 C 176.155 83.451,176.244 83.364,176.353 83.364 C 176.609 83.364,177.079 82.894,177.079 82.638 C 177.079 82.529,177.166 82.440,177.273 82.440 C 177.524 82.440,178.373 81.590,178.373 81.339 C 178.373 81.233,178.460 81.146,178.567 81.146 C 178.818 81.146,179.667 80.296,179.667 80.045 C 179.667 79.939,179.756 79.852,179.865 79.852 C 180.121 79.852,180.591 79.382,180.591 79.126 C 180.591 79.017,180.678 78.928,180.785 78.928 C 181.036 78.928,181.885 78.078,181.885 77.827 C 181.885 77.721,181.975 77.634,182.083 77.634 C 182.339 77.634,182.810 77.164,182.810 76.908 C 182.810 76.799,182.897 76.710,183.003 76.710 C 183.254 76.710,184.104 75.860,184.104 75.609 C 184.104 75.503,184.190 75.416,184.297 75.416 C 184.548 75.416,185.397 74.566,185.397 74.315 C 185.397 74.209,185.567 74.122,185.773 74.122 C 186.233 74.122,187.303 73.070,187.129 72.789 C 187.056 72.670,187.089 72.639,187.209 72.713 C 187.455 72.865,188.170 72.293,188.170 71.944 C 188.170 71.808,188.238 71.739,188.321 71.791 C 188.404 71.842,188.589 71.722,188.732 71.524 C 188.874 71.326,189.085 71.165,189.199 71.165 C 189.313 71.165,189.648 70.957,189.944 70.703 C 190.239 70.449,190.543 70.241,190.619 70.241 C 190.695 70.240,190.758 70.116,190.758 69.963 C 190.758 69.798,190.928 69.686,191.179 69.686 C 191.411 69.686,191.720 69.519,191.867 69.316 C 192.013 69.113,192.236 68.946,192.361 68.946 C 192.487 68.946,192.797 68.738,193.052 68.484 C 193.306 68.230,193.684 68.022,193.892 68.022 C 194.105 68.022,194.270 67.901,194.270 67.745 C 194.270 67.569,194.447 67.468,194.752 67.468 C 195.097 67.468,195.204 67.391,195.131 67.200 C 195.062 67.021,195.117 66.966,195.296 67.035 C 195.443 67.091,195.564 67.045,195.564 66.933 C 195.564 66.820,195.772 66.728,196.026 66.728 C 196.313 66.728,196.488 66.624,196.488 66.451 C 196.488 66.282,196.660 66.174,196.930 66.174 C 197.174 66.174,197.420 66.050,197.478 65.900 C 197.538 65.744,197.706 65.672,197.867 65.735 C 198.024 65.795,198.152 65.752,198.152 65.639 C 198.152 65.526,198.360 65.434,198.614 65.434 C 198.901 65.434,199.076 65.330,199.076 65.157 C 199.076 64.985,199.250 64.880,199.538 64.880 C 199.792 64.880,200.000 64.797,200.000 64.695 C 200.000 64.593,200.252 64.510,200.560 64.510 C 200.888 64.510,201.165 64.395,201.227 64.233 C 201.286 64.080,201.533 63.956,201.776 63.956 C 202.019 63.956,202.218 63.872,202.218 63.771 C 202.218 63.669,202.509 63.586,202.865 63.586 C 203.221 63.586,203.512 63.503,203.512 63.401 C 203.512 63.299,203.803 63.216,204.159 63.216 C 204.611 63.216,204.806 63.133,204.806 62.939 C 204.806 62.734,205.020 62.662,205.627 62.662 C 206.078 62.662,206.499 62.579,206.562 62.477 C 206.625 62.375,206.999 62.292,207.394 62.292 C 207.788 62.292,208.163 62.209,208.226 62.107 C 208.288 62.006,208.745 61.922,209.240 61.922 C 209.793 61.922,210.247 61.816,210.417 61.645 C 210.607 61.455,211.076 61.368,211.909 61.368 C 212.596 61.368,213.124 61.287,213.124 61.183 C 213.124 61.061,219.224 60.998,231.054 60.998 C 248.844 60.998,248.986 60.995,249.360 60.622 C 249.567 60.415,249.679 60.152,249.608 60.039 C 249.533 59.916,249.564 59.883,249.686 59.959 C 249.798 60.028,250.061 59.939,250.269 59.761 C 250.882 59.236,250.849 53.674,250.231 53.425 C 250.002 53.333,249.878 53.253,249.955 53.246 C 250.033 53.240,249.857 52.985,249.566 52.680 L 249.036 52.126 232.651 52.126 C 218.955 52.126,216.266 52.167,216.266 52.377 M213.309 70.055 C 213.309 70.161,212.758 70.240,212.026 70.240 C 211.320 70.240,210.691 70.323,210.628 70.425 C 210.566 70.527,210.184 70.610,209.780 70.610 C 209.298 70.610,209.009 70.705,208.939 70.887 C 208.874 71.058,208.593 71.165,208.206 71.165 C 207.861 71.165,207.579 71.248,207.579 71.349 C 207.579 71.451,207.287 71.534,206.932 71.534 C 206.576 71.534,206.285 71.617,206.285 71.719 C 206.285 71.821,206.077 71.904,205.823 71.904 C 205.535 71.904,205.360 72.009,205.360 72.181 C 205.360 72.354,205.186 72.458,204.898 72.458 C 204.644 72.458,204.436 72.542,204.436 72.643 C 204.436 72.745,204.228 72.828,203.974 72.828 C 203.687 72.828,203.512 72.933,203.512 73.105 C 203.512 73.278,203.337 73.383,203.050 73.383 C 202.796 73.383,202.588 73.466,202.588 73.567 C 202.588 73.669,202.421 73.752,202.218 73.752 C 202.015 73.752,201.848 73.835,201.848 73.937 C 201.848 74.039,201.694 74.122,201.505 74.122 C 201.316 74.122,201.005 74.330,200.814 74.584 C 200.623 74.838,200.309 75.046,200.117 75.046 C 199.924 75.046,199.492 75.337,199.156 75.693 C 198.821 76.049,198.427 76.340,198.282 76.340 C 198.137 76.340,197.862 76.548,197.671 76.802 C 197.481 77.056,197.255 77.264,197.170 77.264 C 196.989 77.264,196.488 77.739,196.488 77.911 C 196.488 78.103,195.977 78.558,195.762 78.558 C 195.653 78.558,195.564 78.683,195.564 78.835 C 195.564 78.988,195.481 79.113,195.379 79.113 C 195.277 79.113,195.194 79.242,195.194 79.401 C 195.194 79.559,195.111 79.638,195.009 79.575 C 194.908 79.512,194.824 79.549,194.824 79.656 C 194.824 79.764,194.700 79.852,194.547 79.852 C 194.395 79.852,194.270 79.941,194.270 80.050 C 194.270 80.266,193.815 80.776,193.623 80.776 C 193.469 80.776,192.976 81.269,192.976 81.423 C 192.976 81.615,192.465 82.070,192.250 82.070 C 192.141 82.070,192.052 82.195,192.052 82.348 C 192.052 82.500,191.964 82.625,191.856 82.625 C 191.748 82.625,191.712 82.708,191.774 82.810 C 191.837 82.911,191.759 82.994,191.601 82.994 C 191.442 82.994,191.312 83.078,191.312 83.179 C 191.312 83.281,191.188 83.364,191.035 83.364 C 190.883 83.364,190.758 83.453,190.758 83.562 C 190.758 83.778,190.303 84.288,190.111 84.288 C 189.957 84.288,189.464 84.781,189.464 84.935 C 189.464 85.127,188.953 85.582,188.738 85.582 C 188.629 85.582,188.540 85.671,188.540 85.780 C 188.540 85.996,188.085 86.506,187.893 86.506 C 187.739 86.506,187.246 86.999,187.246 87.153 C 187.246 87.345,186.735 87.800,186.520 87.800 C 186.411 87.800,186.322 87.925,186.322 88.078 C 186.322 88.230,186.238 88.355,186.137 88.355 C 186.035 88.355,185.952 88.485,185.952 88.643 C 185.952 88.802,185.869 88.880,185.767 88.817 C 185.665 88.754,185.582 88.791,185.582 88.899 C 185.582 89.006,185.457 89.094,185.305 89.094 C 185.152 89.094,185.028 89.183,185.028 89.292 C 185.028 89.508,184.573 90.018,184.381 90.018 C 184.227 90.018,183.734 90.511,183.734 90.665 C 183.734 90.857,183.223 91.312,183.008 91.312 C 182.899 91.312,182.810 91.437,182.810 91.590 C 182.810 91.742,182.722 91.867,182.614 91.867 C 182.506 91.867,182.470 91.950,182.532 92.052 C 182.595 92.153,182.517 92.237,182.358 92.237 C 182.200 92.237,182.070 92.320,182.070 92.421 C 182.070 92.523,181.945 92.606,181.793 92.606 C 181.640 92.606,181.516 92.695,181.516 92.804 C 181.516 93.020,181.061 93.530,180.869 93.530 C 180.715 93.530,180.222 94.023,180.222 94.177 C 180.222 94.369,179.711 94.824,179.496 94.824 C 179.387 94.824,179.298 94.914,179.298 95.022 C 179.298 95.238,178.843 95.749,178.651 95.749 C 178.585 95.749,178.413 95.867,178.268 96.013 C 178.123 96.158,178.004 96.330,178.004 96.396 C 178.004 96.587,177.493 97.043,177.278 97.043 C 177.169 97.043,177.079 97.167,177.079 97.320 C 177.079 97.472,176.996 97.597,176.895 97.597 C 176.793 97.597,176.710 97.727,176.710 97.885 C 176.710 98.044,176.627 98.122,176.525 98.059 C 176.423 97.996,176.340 98.033,176.340 98.141 C 176.340 98.248,176.215 98.336,176.063 98.336 C 175.910 98.336,175.786 98.426,175.786 98.534 C 175.786 98.750,175.331 99.261,175.139 99.261 C 174.984 99.261,174.492 99.753,174.492 99.908 C 174.492 100.100,173.981 100.555,173.766 100.555 C 173.657 100.555,173.567 100.679,173.567 100.832 C 173.567 100.984,173.479 101.109,173.372 101.109 C 173.264 101.109,173.227 101.192,173.290 101.294 C 173.353 101.396,173.275 101.479,173.116 101.479 C 172.958 101.479,172.828 101.562,172.828 101.664 C 172.828 101.765,172.703 101.848,172.551 101.848 C 172.398 101.848,172.274 101.938,172.274 102.046 C 172.274 102.269,171.816 102.773,171.614 102.773 C 171.256 102.773,170.991 103.520,170.991 104.529 C 170.991 105.538,171.256 106.285,171.614 106.285 C 171.816 106.285,172.274 106.788,172.274 107.011 C 172.274 107.120,172.363 107.209,172.472 107.209 C 172.687 107.209,173.198 107.664,173.198 107.856 C 173.198 107.921,173.317 108.093,173.462 108.239 C 173.607 108.384,173.779 108.503,173.845 108.503 C 174.037 108.503,174.492 109.014,174.492 109.229 C 174.492 109.817,177.343 109.447,177.913 108.784 C 178.217 108.430,178.570 108.139,178.697 108.137 C 178.824 108.135,178.928 108.027,178.928 107.897 C 178.928 107.767,179.094 107.540,179.298 107.394 C 179.501 107.247,179.667 107.021,179.667 106.891 C 179.667 106.761,179.754 106.654,179.861 106.654 C 179.967 106.654,180.467 106.242,180.970 105.739 C 181.473 105.235,181.885 104.736,181.885 104.630 C 181.885 104.523,181.992 104.436,182.122 104.436 C 182.252 104.436,182.478 104.270,182.625 104.067 C 182.771 103.863,182.998 103.697,183.128 103.697 C 183.258 103.697,183.364 103.610,183.364 103.504 C 183.364 103.397,183.568 103.106,183.818 102.857 C 184.067 102.607,184.359 102.403,184.465 102.403 C 184.571 102.403,184.658 102.297,184.658 102.166 C 184.658 102.036,184.824 101.810,185.028 101.664 C 185.231 101.517,185.397 101.291,185.397 101.161 C 185.397 101.031,185.504 100.924,185.634 100.924 C 185.764 100.924,185.990 100.758,186.137 100.555 C 186.283 100.351,186.510 100.185,186.640 100.185 C 186.770 100.185,186.876 100.098,186.876 99.992 C 186.876 99.741,187.726 98.891,187.977 98.891 C 188.083 98.891,188.170 98.785,188.170 98.654 C 188.170 98.524,188.336 98.298,188.540 98.152 C 188.743 98.005,188.909 97.779,188.909 97.649 C 188.909 97.519,188.997 97.412,189.103 97.412 C 189.210 97.412,189.709 97.000,190.212 96.497 C 190.716 95.993,191.128 95.494,191.128 95.388 C 191.128 95.281,191.234 95.194,191.364 95.194 C 191.494 95.194,191.720 95.028,191.867 94.824 C 192.013 94.621,192.240 94.455,192.370 94.455 C 192.500 94.455,192.606 94.368,192.606 94.261 C 192.606 94.011,193.456 93.161,193.707 93.161 C 193.813 93.161,193.900 93.054,193.900 92.924 C 193.900 92.794,194.067 92.568,194.270 92.421 C 194.473 92.275,194.640 92.049,194.640 91.919 C 194.640 91.788,194.746 91.682,194.876 91.682 C 195.006 91.682,195.232 91.516,195.379 91.312 C 195.525 91.109,195.752 90.943,195.882 90.943 C 196.012 90.943,196.118 90.856,196.118 90.749 C 196.118 90.499,196.968 89.649,197.219 89.649 C 197.325 89.649,197.412 89.542,197.412 89.412 C 197.412 89.282,197.579 89.056,197.782 88.909 C 197.985 88.763,198.152 88.537,198.152 88.407 C 198.152 88.276,198.239 88.170,198.345 88.170 C 198.598 88.170,200.370 86.398,200.370 86.146 C 200.370 86.039,200.476 85.952,200.606 85.952 C 200.736 85.952,200.963 85.786,201.109 85.582 C 201.256 85.379,201.512 85.213,201.679 85.213 C 201.845 85.213,202.138 85.005,202.329 84.750 C 202.519 84.496,202.745 84.288,202.830 84.288 C 203.050 84.288,203.512 83.797,203.512 83.562 C 203.512 83.453,203.684 83.364,203.895 83.364 C 204.304 83.364,204.806 82.964,204.806 82.638 C 204.806 82.529,205.014 82.440,205.268 82.440 C 205.522 82.440,205.730 82.357,205.730 82.255 C 205.730 82.153,205.876 82.068,206.054 82.064 C 206.453 82.057,207.024 81.641,207.024 81.357 C 207.024 81.241,207.232 81.146,207.486 81.146 C 207.740 81.146,207.948 81.063,207.948 80.961 C 207.948 80.860,208.143 80.776,208.382 80.776 C 208.848 80.776,209.906 80.309,210.081 80.025 C 210.140 79.930,210.428 79.852,210.721 79.852 C 211.014 79.852,211.305 79.769,211.368 79.667 C 211.431 79.566,211.768 79.482,212.118 79.482 C 212.560 79.482,212.754 79.398,212.754 79.205 C 212.754 78.990,213.001 78.928,213.863 78.928 C 214.479 78.928,214.972 78.846,214.972 78.743 C 214.972 78.633,215.681 78.558,216.728 78.558 C 217.776 78.558,218.484 78.484,218.484 78.373 C 218.484 78.253,221.534 78.189,227.264 78.189 C 234.946 78.189,236.044 78.154,236.044 77.911 C 236.044 77.759,236.133 77.634,236.242 77.634 C 236.498 77.634,236.969 77.164,236.969 76.908 C 236.969 76.799,237.052 76.710,237.153 76.710 C 237.268 76.710,237.338 75.662,237.338 73.937 C 237.338 72.212,237.268 71.165,237.153 71.165 C 237.052 71.165,236.969 71.054,236.969 70.918 C 236.969 70.783,236.761 70.561,236.506 70.425 C 236.252 70.289,236.044 70.109,236.044 70.024 C 236.044 69.940,230.929 69.871,224.677 69.871 C 217.221 69.871,213.309 69.934,213.309 70.055 M144.177 140.850 C 144.177 140.952,143.801 141.035,143.340 141.035 C 142.766 141.035,142.469 141.122,142.396 141.312 C 142.331 141.481,142.051 141.590,141.682 141.590 C 141.327 141.590,141.033 141.699,140.974 141.853 C 140.912 142.013,140.725 142.077,140.492 142.016 C 140.275 141.959,140.111 142.005,140.111 142.123 C 140.111 142.236,139.945 142.329,139.741 142.329 C 139.536 142.329,139.372 142.452,139.372 142.606 C 139.372 142.779,139.197 142.884,138.909 142.884 C 138.655 142.884,138.447 142.967,138.447 143.068 C 138.447 143.170,138.293 143.253,138.104 143.253 C 137.914 143.253,137.604 143.461,137.413 143.715 C 137.222 143.970,136.996 144.177,136.912 144.177 C 136.691 144.177,136.229 144.669,136.229 144.904 C 136.229 145.013,136.057 145.102,135.846 145.102 C 135.356 145.102,134.935 145.522,134.935 146.013 C 134.935 146.223,134.846 146.396,134.737 146.396 C 134.522 146.396,134.011 146.851,134.011 147.043 C 134.011 147.234,133.500 147.689,133.285 147.689 C 133.176 147.689,133.087 147.897,133.087 148.152 C 133.087 148.406,133.004 148.614,132.902 148.614 C 132.800 148.614,132.717 148.780,132.717 148.983 C 132.717 149.187,132.634 149.353,132.532 149.353 C 132.431 149.353,132.348 149.561,132.348 149.815 C 132.348 150.103,132.243 150.277,132.070 150.277 C 131.898 150.277,131.793 150.452,131.793 150.739 C 131.793 150.994,131.710 151.201,131.608 151.201 C 131.506 151.201,131.423 151.484,131.423 151.829 C 131.423 152.216,131.317 152.497,131.146 152.562 C 130.986 152.624,130.869 152.900,130.869 153.218 C 130.869 153.520,130.786 153.819,130.684 153.882 C 130.580 153.946,130.499 154.839,130.499 155.926 C 130.499 157.089,130.426 157.856,130.314 157.856 C 130.213 157.856,130.129 158.230,130.129 158.688 C 130.129 159.145,130.213 159.519,130.314 159.519 C 130.424 159.519,130.499 160.228,130.499 161.275 C 130.499 162.241,130.571 163.031,130.660 163.031 C 130.748 163.031,130.865 163.424,130.919 163.903 C 130.973 164.383,131.109 164.806,131.220 164.843 C 131.332 164.880,131.423 165.148,131.423 165.439 C 131.423 165.729,131.506 166.018,131.608 166.081 C 131.710 166.144,131.793 166.348,131.793 166.535 C 131.793 166.721,131.918 166.921,132.070 166.980 C 132.223 167.038,132.348 167.255,132.348 167.462 C 132.348 167.668,132.431 167.837,132.532 167.837 C 132.634 167.837,132.717 167.962,132.717 168.115 C 132.717 168.267,132.800 168.392,132.902 168.392 C 133.004 168.392,133.087 168.558,133.087 168.762 C 133.087 168.967,133.210 169.131,133.364 169.131 C 133.517 169.131,133.641 169.256,133.641 169.409 C 133.641 169.561,133.725 169.686,133.826 169.686 C 133.928 169.686,134.011 169.842,134.011 170.032 C 134.011 170.222,134.302 170.627,134.658 170.931 C 135.014 171.235,135.305 171.578,135.305 171.694 C 135.305 171.809,135.410 171.904,135.538 171.904 C 135.667 171.904,135.928 172.112,136.119 172.366 C 136.310 172.620,136.600 172.830,136.763 172.832 C 136.927 172.834,137.310 173.125,137.614 173.479 C 137.918 173.833,138.313 174.122,138.492 174.122 C 138.671 174.122,138.817 174.205,138.817 174.307 C 138.817 174.409,139.025 174.492,139.279 174.492 C 139.533 174.492,139.741 174.575,139.741 174.677 C 139.741 174.778,139.949 174.861,140.203 174.861 C 140.491 174.861,140.665 174.966,140.665 175.139 C 140.665 175.332,140.861 175.416,141.312 175.416 C 141.668 175.416,141.959 175.499,141.959 175.601 C 141.959 175.702,142.325 175.786,142.771 175.786 C 143.323 175.786,143.618 175.875,143.690 176.063 C 143.780 176.298,144.428 176.340,147.948 176.340 C 151.392 176.340,152.147 176.293,152.377 176.063 C 152.532 175.907,152.984 175.786,153.406 175.786 C 153.820 175.786,154.159 175.702,154.159 175.601 C 154.159 175.499,154.367 175.416,154.621 175.416 C 154.909 175.416,155.083 175.311,155.083 175.139 C 155.083 174.945,155.278 174.861,155.730 174.861 C 156.086 174.861,156.377 174.778,156.377 174.677 C 156.377 174.575,156.502 174.492,156.654 174.492 C 156.807 174.492,156.932 174.409,156.932 174.307 C 156.932 174.205,157.098 174.122,157.301 174.122 C 157.507 174.122,157.671 173.999,157.671 173.845 C 157.671 173.672,157.846 173.567,158.133 173.567 C 158.387 173.567,158.595 173.498,158.595 173.414 C 158.595 173.329,158.803 173.149,159.057 173.013 C 159.311 172.877,159.519 172.691,159.519 172.599 C 159.519 172.368,160.005 171.904,160.246 171.904 C 160.355 171.904,160.444 171.733,160.444 171.523 C 160.444 171.314,160.527 171.194,160.628 171.257 C 160.730 171.320,160.813 171.283,160.813 171.175 C 160.813 171.068,160.908 170.980,161.024 170.980 C 161.308 170.980,161.724 170.409,161.732 170.009 C 161.735 169.831,161.821 169.686,161.922 169.686 C 162.024 169.686,162.107 169.570,162.107 169.428 C 162.107 169.287,162.232 169.123,162.384 169.064 C 162.537 169.006,162.662 168.831,162.662 168.675 C 162.662 168.519,162.745 168.392,162.847 168.392 C 162.948 168.392,163.031 168.184,163.031 167.930 C 163.031 167.676,163.115 167.468,163.216 167.468 C 163.510 167.468,163.441 165.448,163.137 165.144 C 162.929 164.936,162.210 164.880,159.746 164.880 C 156.428 164.880,156.007 164.991,156.007 165.865 C 156.007 166.035,155.919 166.174,155.812 166.174 C 155.704 166.174,155.667 166.257,155.730 166.359 C 155.793 166.460,155.744 166.543,155.622 166.543 C 155.338 166.543,154.337 167.584,154.481 167.728 C 154.541 167.788,154.416 167.837,154.203 167.837 C 153.990 167.837,153.691 167.962,153.538 168.115 C 153.386 168.267,153.172 168.392,153.063 168.392 C 152.954 168.392,152.865 168.475,152.865 168.577 C 152.865 168.678,152.613 168.762,152.305 168.762 C 151.977 168.762,151.700 168.877,151.638 169.039 C 151.572 169.210,151.291 169.316,150.904 169.316 C 150.559 169.316,150.277 169.399,150.277 169.501 C 150.277 169.615,149.353 169.686,147.874 169.686 C 146.396 169.686,145.471 169.615,145.471 169.501 C 145.471 169.399,145.189 169.316,144.844 169.316 C 144.457 169.316,144.176 169.210,144.111 169.039 C 144.052 168.886,143.835 168.762,143.629 168.762 C 143.422 168.762,143.253 168.678,143.253 168.577 C 143.253 168.475,143.045 168.392,142.791 168.392 C 142.537 168.392,142.329 168.303,142.329 168.194 C 142.329 167.978,141.874 167.468,141.682 167.468 C 141.490 167.468,141.035 166.957,141.035 166.741 C 141.035 166.633,140.973 166.543,140.896 166.543 C 140.568 166.543,139.741 165.635,139.741 165.274 C 139.741 165.047,139.624 164.880,139.464 164.880 C 139.291 164.880,139.187 164.705,139.187 164.418 C 139.187 164.164,139.104 163.956,139.002 163.956 C 138.900 163.956,138.817 163.794,138.817 163.597 C 138.817 163.400,138.734 163.187,138.632 163.124 C 138.530 163.061,138.447 162.762,138.447 162.460 C 138.447 162.142,138.330 161.866,138.170 161.804 C 137.961 161.724,137.893 161.386,137.893 160.424 C 137.893 159.698,137.813 159.150,137.708 159.150 C 137.606 159.150,137.523 158.864,137.523 158.514 C 137.523 158.164,137.606 157.826,137.708 157.763 C 137.810 157.701,137.893 157.072,137.893 156.366 C 137.893 155.349,137.950 155.083,138.170 155.083 C 138.364 155.083,138.447 154.888,138.447 154.436 C 138.447 154.080,138.530 153.789,138.632 153.789 C 138.734 153.789,138.817 153.581,138.817 153.327 C 138.817 153.073,138.900 152.865,139.002 152.865 C 139.104 152.865,139.187 152.699,139.187 152.495 C 139.187 152.290,139.310 152.126,139.464 152.126 C 139.616 152.126,139.741 152.001,139.741 151.848 C 139.741 151.696,139.824 151.571,139.926 151.571 C 140.028 151.571,140.111 151.363,140.111 151.109 C 140.111 150.855,140.198 150.647,140.304 150.647 C 140.410 150.647,140.702 150.443,140.951 150.193 C 141.201 149.944,141.405 149.653,141.405 149.546 C 141.405 149.440,141.530 149.353,141.682 149.353 C 141.835 149.353,141.959 149.270,141.959 149.168 C 141.959 149.067,142.077 148.983,142.222 148.983 C 142.551 148.983,143.620 148.384,143.622 148.198 C 143.622 148.122,143.831 148.059,144.085 148.059 C 144.339 148.059,144.547 147.976,144.547 147.874 C 144.547 147.773,144.913 147.689,145.359 147.689 C 145.910 147.689,146.205 147.600,146.278 147.412 C 146.360 147.197,146.720 147.135,147.874 147.135 C 149.029 147.135,149.389 147.197,149.471 147.412 C 149.543 147.600,149.838 147.689,150.389 147.689 C 150.836 147.689,151.201 147.773,151.201 147.874 C 151.201 147.976,151.493 148.059,151.848 148.059 C 152.209 148.059,152.495 148.152,152.495 148.270 C 152.495 148.554,153.066 148.970,153.466 148.977 C 153.644 148.981,153.789 149.067,153.789 149.168 C 153.789 149.270,153.914 149.353,154.067 149.353 C 154.219 149.353,154.344 149.440,154.344 149.546 C 154.344 149.653,154.548 149.944,154.798 150.193 C 155.047 150.443,155.338 150.647,155.444 150.647 C 155.551 150.647,155.638 150.733,155.638 150.839 C 155.638 150.945,155.964 151.361,156.363 151.763 L 157.087 152.495 159.993 152.495 C 162.543 152.495,162.928 152.456,163.144 152.172 C 163.432 151.792,163.494 149.538,163.216 149.538 C 163.115 149.538,163.031 149.330,163.031 149.076 C 163.031 148.822,162.948 148.614,162.847 148.614 C 162.745 148.614,162.662 148.489,162.662 148.336 C 162.662 148.184,162.537 148.059,162.384 148.059 C 162.230 148.059,162.107 147.895,162.107 147.689 C 162.107 147.486,162.024 147.320,161.922 147.320 C 161.821 147.320,161.738 147.231,161.738 147.122 C 161.738 147.013,161.634 146.808,161.506 146.666 C 161.004 146.106,160.813 145.852,160.813 145.743 C 160.813 145.556,160.299 145.102,160.087 145.102 C 159.978 145.102,159.889 145.013,159.889 144.904 C 159.889 144.604,159.400 144.177,159.057 144.177 C 158.714 144.177,158.226 143.751,158.226 143.451 C 158.226 143.342,158.037 143.253,157.807 143.253 C 157.577 143.253,157.233 143.046,157.042 142.791 C 156.851 142.537,156.540 142.329,156.351 142.329 C 156.162 142.329,156.007 142.246,156.007 142.144 C 156.007 142.043,155.716 141.959,155.360 141.959 C 155.005 141.959,154.713 141.876,154.713 141.774 C 154.713 141.673,154.431 141.590,154.086 141.590 C 153.699 141.590,153.418 141.483,153.353 141.312 C 153.276 141.112,152.962 141.035,152.224 141.035 C 151.662 141.035,151.201 140.952,151.201 140.850 C 151.201 140.734,149.908 140.665,147.689 140.665 C 145.471 140.665,144.177 140.734,144.177 140.850 M2.957 141.416 C 2.957 141.625,2.874 141.745,2.771 141.681 C 2.232 141.348,2.033 142.114,2.033 144.532 C 2.033 148.011,1.333 147.689,8.914 147.689 C 12.953 147.689,15.157 147.755,15.157 147.874 C 15.157 147.976,15.282 148.059,15.434 148.059 C 15.678 148.059,15.712 149.693,15.712 161.658 C 15.712 173.198,15.752 175.297,15.976 175.522 C 16.401 175.947,21.858 175.900,22.364 175.467 C 22.730 175.154,22.736 174.946,22.736 161.683 C 22.736 150.319,22.776 148.177,22.997 147.956 C 23.210 147.743,24.415 147.685,29.513 147.646 L 35.767 147.597 35.826 147.181 C 35.859 146.952,35.963 146.765,36.057 146.765 C 36.560 146.765,36.243 142.155,35.701 141.588 L 35.173 141.035 19.065 141.035 L 2.957 141.035 2.957 141.416 M47.320 141.409 C 47.320 141.639,47.141 141.852,46.858 141.959 L 46.396 142.135 46.396 158.498 C 46.396 172.920,46.428 174.861,46.673 174.861 C 46.825 174.861,46.950 174.950,46.950 175.059 C 46.950 175.676,47.464 175.786,50.354 175.786 C 54.381 175.786,53.974 176.589,53.974 168.628 L 53.974 162.107 59.038 162.107 C 63.459 162.107,64.115 162.144,64.212 162.396 C 64.273 162.555,64.406 162.634,64.507 162.571 C 64.613 162.506,64.644 162.579,64.581 162.745 C 64.520 162.902,64.563 163.031,64.675 163.031 C 64.788 163.031,64.880 163.239,64.880 163.494 C 64.880 163.781,64.985 163.956,65.157 163.956 C 65.330 163.956,65.434 164.130,65.434 164.418 C 65.434 164.672,65.518 164.880,65.619 164.880 C 65.721 164.880,65.804 165.046,65.804 165.250 C 65.804 165.453,65.878 165.619,65.969 165.619 C 66.060 165.619,66.186 165.827,66.250 166.081 C 66.313 166.335,66.447 166.543,66.547 166.543 C 66.647 166.543,66.728 166.668,66.728 166.821 C 66.728 166.973,66.811 167.098,66.913 167.098 C 67.015 167.098,67.098 167.264,67.098 167.468 C 67.098 167.673,67.221 167.837,67.375 167.837 C 67.548 167.837,67.652 168.012,67.652 168.299 C 67.652 168.554,67.736 168.762,67.837 168.762 C 67.939 168.762,68.025 168.907,68.028 169.085 C 68.035 169.485,68.452 170.055,68.736 170.055 C 68.852 170.055,68.946 170.263,68.946 170.518 C 68.946 170.772,69.030 170.980,69.131 170.980 C 69.233 170.980,69.316 171.188,69.316 171.442 C 69.316 171.696,69.399 171.904,69.501 171.904 C 69.603 171.904,69.686 172.018,69.686 172.159 C 69.686 172.299,69.811 172.517,69.963 172.643 C 70.116 172.770,70.240 173.030,70.240 173.220 C 70.240 173.411,70.323 173.567,70.425 173.567 C 70.527 173.567,70.610 173.692,70.610 173.845 C 70.610 173.997,70.735 174.122,70.887 174.122 C 71.041 174.122,71.165 174.286,71.165 174.492 C 71.165 174.695,71.248 174.861,71.349 174.861 C 71.451 174.861,71.534 174.950,71.534 175.059 C 71.534 175.680,72.044 175.786,75.046 175.786 C 78.456 175.786,78.558 175.746,78.558 174.427 C 78.558 173.574,78.158 172.602,77.588 172.070 C 77.410 171.904,77.264 171.591,77.264 171.374 C 77.264 171.147,77.147 170.980,76.987 170.980 C 76.815 170.980,76.710 170.805,76.710 170.518 C 76.710 170.263,76.627 170.055,76.525 170.055 C 76.423 170.055,76.340 169.889,76.340 169.686 C 76.340 169.482,76.257 169.316,76.155 169.316 C 76.054 169.316,75.970 169.147,75.970 168.941 C 75.970 168.734,75.846 168.517,75.693 168.459 C 75.541 168.400,75.416 168.172,75.416 167.951 C 75.416 167.730,75.250 167.429,75.046 167.283 C 74.843 167.136,74.677 166.827,74.677 166.595 C 74.677 166.344,74.565 166.174,74.399 166.174 C 74.227 166.174,74.122 165.999,74.122 165.712 C 74.122 165.457,74.039 165.250,73.937 165.250 C 73.835 165.250,73.752 165.081,73.752 164.874 C 73.752 164.668,73.628 164.451,73.475 164.392 C 73.323 164.334,73.198 164.128,73.198 163.936 C 73.198 163.743,73.115 163.586,73.013 163.586 C 72.911 163.586,72.828 163.414,72.828 163.203 C 72.828 162.801,72.430 162.292,72.115 162.292 C 71.888 162.292,71.772 161.785,71.872 161.229 C 71.925 160.935,72.076 160.813,72.388 160.813 C 72.630 160.813,72.828 160.730,72.828 160.628 C 72.828 160.527,73.036 160.444,73.290 160.444 C 73.578 160.444,73.752 160.339,73.752 160.166 C 73.752 160.012,73.917 159.889,74.122 159.889 C 74.325 159.889,74.492 159.806,74.492 159.704 C 74.492 159.603,74.581 159.519,74.690 159.519 C 74.946 159.519,75.416 159.049,75.416 158.793 C 75.416 158.684,75.505 158.595,75.614 158.595 C 75.940 158.595,76.340 158.093,76.340 157.684 C 76.340 157.474,76.423 157.301,76.525 157.301 C 76.627 157.301,76.710 157.093,76.710 156.839 C 76.710 156.552,76.815 156.377,76.987 156.377 C 77.141 156.377,77.264 156.213,77.264 156.007 C 77.264 155.804,77.348 155.638,77.449 155.638 C 77.551 155.638,77.634 155.257,77.634 154.793 C 77.634 154.288,77.746 153.836,77.911 153.670 C 78.120 153.461,78.189 152.944,78.189 151.571 C 78.189 150.198,78.120 149.681,77.911 149.472 C 77.756 149.316,77.634 148.865,77.634 148.442 C 77.634 148.028,77.551 147.689,77.449 147.689 C 77.348 147.689,77.264 147.398,77.264 147.043 C 77.264 146.591,77.181 146.396,76.987 146.396 C 76.822 146.396,76.710 146.226,76.710 145.974 C 76.710 145.743,76.543 145.433,76.340 145.287 C 76.137 145.140,75.970 144.914,75.970 144.784 C 75.970 144.654,75.883 144.547,75.777 144.547 C 75.526 144.547,74.677 143.697,74.677 143.446 C 74.677 143.340,74.552 143.253,74.399 143.253 C 74.247 143.253,74.122 143.170,74.122 143.068 C 74.122 142.967,73.914 142.884,73.660 142.884 C 73.406 142.884,73.198 142.806,73.198 142.712 C 73.198 142.450,72.096 141.959,71.506 141.959 C 71.216 141.959,70.980 141.876,70.980 141.774 C 70.980 141.669,70.425 141.590,69.686 141.590 C 68.659 141.590,68.392 141.532,68.392 141.312 C 68.392 141.069,67.098 141.035,57.856 141.035 C 47.400 141.035,47.320 141.038,47.320 141.409 M101.797 141.407 C 101.622 141.611,101.479 141.903,101.479 142.054 C 101.479 142.205,101.396 142.329,101.294 142.329 C 101.192 142.329,101.109 142.537,101.109 142.791 C 101.109 143.079,101.004 143.253,100.832 143.253 C 100.659 143.253,100.555 143.428,100.555 143.715 C 100.555 143.970,100.471 144.177,100.370 144.177 C 100.268 144.177,100.185 144.469,100.185 144.824 C 100.185 145.276,100.101 145.471,99.908 145.471 C 99.735 145.471,99.630 145.646,99.630 145.933 C 99.630 146.188,99.547 146.396,99.445 146.396 C 99.344 146.396,99.261 146.604,99.261 146.858 C 99.261 147.112,99.177 147.320,99.076 147.320 C 98.974 147.320,98.891 147.477,98.891 147.670 C 98.891 147.862,98.766 148.067,98.614 148.126 C 98.461 148.185,98.336 148.396,98.336 148.597 C 98.336 148.797,98.253 149.013,98.152 149.076 C 98.050 149.139,97.967 149.426,97.967 149.714 C 97.967 150.009,97.846 150.284,97.689 150.344 C 97.537 150.403,97.412 150.619,97.412 150.826 C 97.412 151.033,97.329 151.201,97.227 151.201 C 97.126 151.201,97.043 151.409,97.043 151.664 C 97.043 151.918,96.959 152.126,96.858 152.126 C 96.756 152.126,96.673 152.334,96.673 152.588 C 96.673 152.875,96.568 153.050,96.396 153.050 C 96.202 153.050,96.118 153.245,96.118 153.697 C 96.118 154.053,96.035 154.344,95.933 154.344 C 95.832 154.344,95.749 154.510,95.749 154.713 C 95.749 154.917,95.665 155.083,95.564 155.083 C 95.462 155.083,95.379 155.291,95.379 155.545 C 95.379 155.833,95.274 156.007,95.102 156.007 C 94.929 156.007,94.824 156.182,94.824 156.470 C 94.824 156.724,94.741 156.932,94.640 156.932 C 94.538 156.932,94.455 157.223,94.455 157.579 C 94.455 158.030,94.371 158.226,94.177 158.226 C 94.005 158.226,93.900 158.400,93.900 158.688 C 93.900 158.942,93.817 159.150,93.715 159.150 C 93.614 159.150,93.530 159.358,93.530 159.612 C 93.530 159.866,93.447 160.074,93.346 160.074 C 93.244 160.074,93.161 160.231,93.161 160.424 C 93.161 160.616,93.036 160.822,92.884 160.880 C 92.710 160.947,92.606 161.230,92.606 161.639 C 92.606 161.998,92.523 162.292,92.421 162.292 C 92.320 162.292,92.237 162.458,92.237 162.662 C 92.237 162.865,92.153 163.031,92.052 163.031 C 91.950 163.031,91.867 163.239,91.867 163.494 C 91.867 163.781,91.762 163.956,91.590 163.956 C 91.417 163.956,91.312 164.130,91.312 164.418 C 91.312 164.672,91.229 164.880,91.128 164.880 C 91.026 164.880,90.943 165.052,90.943 165.263 C 90.943 165.473,90.818 165.770,90.665 165.923 C 90.513 166.075,90.388 166.402,90.388 166.649 C 90.388 166.896,90.305 167.098,90.203 167.098 C 90.102 167.098,90.018 167.264,90.018 167.468 C 90.018 167.671,89.935 167.837,89.834 167.837 C 89.732 167.837,89.649 168.036,89.649 168.280 C 89.649 168.523,89.524 168.770,89.372 168.828 C 89.219 168.887,89.094 169.104,89.094 169.310 C 89.094 169.517,89.011 169.686,88.909 169.686 C 88.808 169.686,88.725 169.977,88.725 170.333 C 88.725 170.785,88.641 170.980,88.447 170.980 C 88.275 170.980,88.170 171.154,88.170 171.442 C 88.170 171.696,88.087 171.904,87.985 171.904 C 87.884 171.904,87.800 172.112,87.800 172.366 C 87.800 172.620,87.717 172.828,87.616 172.828 C 87.514 172.828,87.431 172.986,87.431 173.178 C 87.431 173.370,87.306 173.576,87.153 173.634 C 86.991 173.697,86.876 173.973,86.876 174.301 C 86.876 174.676,86.968 174.861,87.153 174.861 C 87.326 174.861,87.431 175.036,87.431 175.323 L 87.431 175.786 90.401 175.786 C 93.367 175.786,93.900 175.678,93.900 175.079 C 93.900 174.981,94.025 174.853,94.177 174.795 C 94.330 174.736,94.455 174.561,94.455 174.405 C 94.455 174.249,94.538 174.122,94.640 174.122 C 94.741 174.122,94.824 173.831,94.824 173.475 C 94.824 173.119,94.908 172.828,95.009 172.828 C 95.111 172.828,95.194 172.620,95.194 172.366 C 95.194 172.078,95.299 171.904,95.471 171.904 C 95.644 171.904,95.749 171.729,95.749 171.442 C 95.749 171.188,95.832 170.980,95.933 170.980 C 96.035 170.980,96.118 170.781,96.118 170.537 C 96.118 170.294,96.243 170.047,96.396 169.989 C 96.548 169.930,96.673 169.749,96.673 169.586 C 96.673 168.772,96.779 168.762,104.991 168.762 C 113.030 168.762,113.309 168.786,113.309 169.488 C 113.309 169.597,113.433 169.686,113.586 169.686 C 113.758 169.686,113.863 169.860,113.863 170.148 C 113.863 170.402,113.946 170.610,114.048 170.610 C 114.150 170.610,114.233 170.805,114.233 171.044 C 114.233 171.560,114.743 172.643,114.986 172.643 C 115.080 172.643,115.157 172.851,115.157 173.105 C 115.157 173.360,115.240 173.567,115.342 173.567 C 115.444 173.567,115.527 173.775,115.527 174.030 C 115.527 174.284,115.610 174.492,115.712 174.492 C 115.813 174.492,115.896 174.700,115.896 174.954 C 115.896 175.241,116.001 175.416,116.174 175.416 C 116.326 175.416,116.451 175.499,116.451 175.601 C 116.451 175.717,117.652 175.786,119.686 175.786 L 122.921 175.786 122.921 175.323 C 122.921 175.036,123.025 174.861,123.198 174.861 C 123.383 174.861,123.475 174.676,123.475 174.301 C 123.475 173.973,123.360 173.697,123.198 173.634 C 123.045 173.576,122.921 173.370,122.921 173.178 C 122.921 172.986,122.837 172.828,122.736 172.828 C 122.634 172.828,122.551 172.537,122.551 172.181 C 122.551 171.825,122.477 171.534,122.386 171.534 C 122.295 171.534,122.169 171.326,122.105 171.072 C 122.041 170.818,121.908 170.610,121.808 170.610 C 121.708 170.610,121.627 170.402,121.627 170.148 C 121.627 169.894,121.543 169.686,121.442 169.686 C 121.340 169.686,121.257 169.478,121.257 169.224 C 121.257 168.936,121.152 168.762,120.980 168.762 C 120.786 168.762,120.702 168.566,120.702 168.115 C 120.702 167.759,120.619 167.468,120.518 167.468 C 120.416 167.468,120.333 167.306,120.333 167.109 C 120.333 166.912,120.250 166.699,120.148 166.636 C 120.046 166.573,119.963 166.360,119.963 166.163 C 119.963 165.966,119.838 165.804,119.686 165.804 C 119.513 165.804,119.409 165.629,119.409 165.342 C 119.409 165.088,119.325 164.880,119.224 164.880 C 119.122 164.880,119.039 164.672,119.039 164.418 C 119.039 164.164,118.956 163.956,118.854 163.956 C 118.752 163.956,118.669 163.754,118.669 163.507 C 118.669 163.260,118.544 162.933,118.392 162.781 C 118.239 162.628,118.115 162.377,118.115 162.224 C 118.115 162.070,118.031 161.893,117.930 161.830 C 117.828 161.767,117.745 161.552,117.745 161.351 C 117.745 161.151,117.620 160.939,117.468 160.880 C 117.315 160.822,117.190 160.616,117.190 160.424 C 117.190 160.231,117.107 160.074,117.006 160.074 C 116.904 160.074,116.821 159.783,116.821 159.427 C 116.821 159.071,116.738 158.780,116.636 158.780 C 116.534 158.780,116.451 158.611,116.451 158.405 C 116.451 158.198,116.326 157.981,116.174 157.923 C 116.021 157.864,115.896 157.617,115.896 157.374 C 115.896 157.131,115.813 156.932,115.712 156.932 C 115.610 156.932,115.527 156.724,115.527 156.470 C 115.527 156.215,115.444 156.007,115.342 156.007 C 115.240 156.007,115.157 155.838,115.157 155.632 C 115.157 155.425,115.032 155.209,114.880 155.150 C 114.724 155.090,114.603 154.815,114.603 154.520 C 114.603 154.232,114.519 153.945,114.418 153.882 C 114.316 153.819,114.233 153.606,114.233 153.409 C 114.233 153.211,114.108 153.050,113.956 153.050 C 113.783 153.050,113.678 152.875,113.678 152.588 C 113.678 152.334,113.595 152.126,113.494 152.126 C 113.392 152.126,113.309 151.918,113.309 151.664 C 113.309 151.409,113.226 151.201,113.124 151.201 C 113.022 151.201,112.939 150.999,112.939 150.753 C 112.939 150.506,112.814 150.179,112.662 150.026 C 112.509 149.874,112.384 149.577,112.384 149.366 C 112.384 149.156,112.301 148.983,112.200 148.983 C 112.098 148.983,112.015 148.775,112.015 148.521 C 112.015 148.234,111.910 148.059,111.738 148.059 C 111.583 148.059,111.460 147.895,111.460 147.689 C 111.460 147.486,111.377 147.320,111.275 147.320 C 111.174 147.320,111.091 147.029,111.091 146.673 C 111.091 146.317,111.007 146.026,110.906 146.026 C 110.804 146.026,110.721 145.857,110.721 145.650 C 110.721 145.444,110.596 145.227,110.444 145.169 C 110.291 145.110,110.166 144.863,110.166 144.620 C 110.166 144.376,110.083 144.177,109.982 144.177 C 109.880 144.177,109.797 143.970,109.797 143.715 C 109.797 143.461,109.713 143.253,109.612 143.253 C 109.510 143.253,109.427 143.084,109.427 142.878 C 109.427 142.671,109.302 142.454,109.150 142.396 C 108.997 142.337,108.872 142.175,108.872 142.034 C 108.872 141.164,108.395 141.035,105.176 141.035 C 102.338 141.035,102.092 141.062,101.797 141.407 M175.734 141.407 C 175.289 141.927,175.237 175.078,175.680 175.522 C 176.123 175.964,204.469 175.912,204.989 175.467 C 205.533 175.001,205.554 170.336,205.015 169.714 L 204.670 169.316 193.740 169.316 C 184.147 169.316,182.810 169.282,182.810 169.039 C 182.810 168.886,182.726 168.762,182.625 168.762 C 182.508 168.762,182.440 167.406,182.440 165.065 C 182.440 162.723,182.508 161.368,182.625 161.368 C 182.726 161.368,182.810 161.243,182.810 161.091 C 182.810 160.849,183.663 160.813,189.385 160.813 C 196.146 160.813,196.488 160.778,196.488 160.087 C 196.488 159.978,196.571 159.889,196.673 159.889 C 196.786 159.889,196.858 158.996,196.858 157.579 C 196.858 156.161,196.786 155.268,196.673 155.268 C 196.571 155.268,196.488 155.173,196.488 155.057 C 196.488 154.408,195.959 154.356,189.325 154.350 C 183.659 154.345,182.810 154.308,182.810 154.067 C 182.810 153.914,182.726 153.789,182.625 153.789 C 182.310 153.789,182.384 148.273,182.704 147.954 C 182.927 147.731,184.646 147.689,193.702 147.689 C 203.120 147.689,204.436 147.655,204.436 147.412 C 204.436 147.260,204.594 147.135,204.786 147.135 C 205.552 147.135,205.681 142.390,204.939 141.526 L 204.517 141.035 190.285 141.035 C 176.254 141.035,176.048 141.040,175.734 141.407 M228.281 141.312 C 228.281 141.465,228.192 141.590,228.083 141.590 C 227.763 141.590,227.357 142.088,227.357 142.481 C 227.357 142.681,227.232 142.892,227.079 142.950 C 226.927 143.009,226.802 143.226,226.802 143.432 C 226.802 143.639,226.719 143.808,226.617 143.808 C 226.516 143.808,226.433 144.099,226.433 144.455 C 226.433 144.811,226.349 145.102,226.248 145.102 C 226.146 145.102,226.063 145.259,226.063 145.452 C 226.063 145.644,225.938 145.849,225.786 145.908 C 225.633 145.966,225.508 146.183,225.508 146.390 C 225.508 146.596,225.425 146.765,225.323 146.765 C 225.222 146.765,225.139 146.964,225.139 147.208 C 225.139 147.451,225.014 147.698,224.861 147.756 C 224.709 147.815,224.584 148.032,224.584 148.238 C 224.584 148.445,224.501 148.614,224.399 148.614 C 224.298 148.614,224.214 148.905,224.214 149.261 C 224.214 149.616,224.131 149.908,224.030 149.908 C 223.928 149.908,223.845 150.116,223.845 150.370 C 223.845 150.657,223.740 150.832,223.567 150.832 C 223.415 150.832,223.290 150.993,223.290 151.191 C 223.290 151.388,223.207 151.601,223.105 151.664 C 223.004 151.726,222.921 151.939,222.921 152.137 C 222.921 152.334,222.837 152.495,222.736 152.495 C 222.634 152.495,222.551 152.787,222.551 153.142 C 222.551 153.594,222.467 153.789,222.274 153.789 C 222.101 153.789,221.996 153.964,221.996 154.251 C 221.996 154.506,221.913 154.713,221.811 154.713 C 221.710 154.713,221.627 154.913,221.627 155.156 C 221.627 155.399,221.502 155.646,221.349 155.705 C 221.197 155.763,221.072 155.980,221.072 156.186 C 221.072 156.393,220.989 156.562,220.887 156.562 C 220.786 156.562,220.702 156.853,220.702 157.209 C 220.702 157.565,220.619 157.856,220.518 157.856 C 220.416 157.856,220.333 158.013,220.333 158.206 C 220.333 158.398,220.208 158.604,220.055 158.662 C 219.903 158.721,219.778 158.937,219.778 159.144 C 219.778 159.350,219.695 159.519,219.593 159.519 C 219.492 159.519,219.409 159.727,219.409 159.982 C 219.409 160.236,219.325 160.444,219.224 160.444 C 219.122 160.444,219.039 160.735,219.039 161.091 C 219.039 161.542,218.955 161.738,218.762 161.738 C 218.589 161.738,218.484 161.912,218.484 162.200 C 218.484 162.454,218.401 162.662,218.299 162.662 C 218.198 162.662,218.115 162.870,218.115 163.124 C 218.115 163.378,218.038 163.586,217.943 163.586 C 217.681 163.586,217.190 164.687,217.190 165.278 C 217.190 165.567,217.107 165.804,217.006 165.804 C 216.904 165.804,216.821 165.970,216.821 166.174 C 216.821 166.379,216.697 166.543,216.543 166.543 C 216.371 166.543,216.266 166.718,216.266 167.006 C 216.266 167.260,216.183 167.468,216.081 167.468 C 215.980 167.468,215.896 167.667,215.896 167.910 C 215.896 168.153,215.772 168.400,215.619 168.459 C 215.467 168.517,215.342 168.734,215.342 168.941 C 215.342 169.147,215.259 169.316,215.157 169.316 C 215.055 169.316,214.972 169.607,214.972 169.963 C 214.972 170.319,214.889 170.610,214.787 170.610 C 214.686 170.610,214.603 170.818,214.603 171.072 C 214.603 171.360,214.498 171.534,214.325 171.534 C 214.171 171.534,214.048 171.699,214.048 171.904 C 214.048 172.107,213.965 172.274,213.863 172.274 C 213.762 172.274,213.678 172.482,213.678 172.736 C 213.678 172.990,213.595 173.198,213.494 173.198 C 213.200 173.198,213.269 175.217,213.573 175.522 C 214.420 176.369,220.333 175.756,220.333 174.820 C 220.333 174.640,220.416 174.492,220.518 174.492 C 220.619 174.492,220.702 174.284,220.702 174.030 C 220.702 173.775,220.786 173.567,220.887 173.567 C 220.989 173.567,221.072 173.276,221.072 172.921 C 221.072 172.469,221.156 172.274,221.349 172.274 C 221.522 172.274,221.627 172.099,221.627 171.811 C 221.627 171.557,221.710 171.349,221.811 171.349 C 221.913 171.349,221.996 171.188,221.996 170.991 C 221.996 170.793,222.079 170.580,222.181 170.518 C 222.283 170.455,222.366 170.251,222.366 170.064 C 222.366 169.878,222.499 169.674,222.662 169.612 C 222.826 169.549,222.913 169.378,222.857 169.232 C 222.789 169.054,222.844 169.000,223.022 169.068 C 223.170 169.125,223.290 169.079,223.290 168.966 C 223.290 168.820,225.529 168.762,231.159 168.762 C 239.579 168.762,239.556 168.759,239.556 169.673 C 239.556 169.890,239.676 170.055,239.834 170.055 C 240.006 170.055,240.111 170.230,240.111 170.518 C 240.111 170.772,240.194 170.980,240.296 170.980 C 240.397 170.980,240.481 171.232,240.481 171.540 C 240.481 171.868,240.596 172.145,240.758 172.207 C 240.910 172.265,241.035 172.512,241.035 172.755 C 241.035 172.999,241.118 173.198,241.220 173.198 C 241.322 173.198,241.405 173.406,241.405 173.660 C 241.405 173.914,241.488 174.122,241.590 174.122 C 241.691 174.122,241.774 174.288,241.774 174.492 C 241.774 174.697,241.898 174.861,242.052 174.861 C 242.204 174.861,242.329 174.950,242.329 175.059 C 242.329 175.680,242.839 175.786,245.828 175.786 C 247.685 175.786,248.799 175.716,248.799 175.601 C 248.799 175.499,248.923 175.416,249.076 175.416 C 249.291 175.416,249.353 175.169,249.353 174.307 C 249.353 173.444,249.291 173.198,249.076 173.198 C 248.882 173.198,248.799 173.003,248.799 172.551 C 248.799 172.195,248.715 171.904,248.614 171.904 C 248.512 171.904,248.429 171.735,248.429 171.528 C 248.429 171.322,248.304 171.105,248.152 171.047 C 247.999 170.988,247.874 170.741,247.874 170.498 C 247.874 170.255,247.791 170.055,247.689 170.055 C 247.588 170.055,247.505 169.889,247.505 169.686 C 247.505 169.482,247.421 169.316,247.320 169.316 C 247.218 169.316,247.135 169.064,247.135 168.756 C 247.135 168.428,247.020 168.151,246.858 168.089 C 246.705 168.031,246.580 167.784,246.580 167.540 C 246.580 167.297,246.497 167.098,246.396 167.098 C 246.294 167.098,246.211 166.890,246.211 166.636 C 246.211 166.382,246.128 166.174,246.026 166.174 C 245.924 166.174,245.841 166.005,245.841 165.798 C 245.841 165.592,245.716 165.375,245.564 165.316 C 245.411 165.258,245.287 165.011,245.287 164.768 C 245.287 164.524,245.203 164.325,245.102 164.325 C 245.000 164.325,244.917 164.073,244.917 163.765 C 244.917 163.437,244.802 163.160,244.640 163.098 C 244.487 163.040,244.362 162.834,244.362 162.642 C 244.362 162.450,244.279 162.292,244.177 162.292 C 244.076 162.292,243.993 162.084,243.993 161.830 C 243.993 161.576,243.909 161.368,243.808 161.368 C 243.706 161.368,243.623 161.160,243.623 160.906 C 243.623 160.618,243.518 160.444,243.346 160.444 C 243.152 160.444,243.068 160.249,243.068 159.797 C 243.068 159.441,242.985 159.150,242.884 159.150 C 242.782 159.150,242.699 158.988,242.699 158.791 C 242.699 158.594,242.616 158.381,242.514 158.318 C 242.412 158.255,242.329 158.040,242.329 157.839 C 242.329 157.639,242.204 157.427,242.052 157.368 C 241.899 157.310,241.774 157.104,241.774 156.912 C 241.774 156.719,241.691 156.562,241.590 156.562 C 241.488 156.562,241.405 156.354,241.405 156.100 C 241.405 155.812,241.300 155.638,241.128 155.638 C 240.934 155.638,240.850 155.443,240.850 154.991 C 240.850 154.635,240.767 154.344,240.665 154.344 C 240.564 154.344,240.481 154.136,240.481 153.882 C 240.481 153.628,240.397 153.420,240.296 153.420 C 240.194 153.420,240.111 153.251,240.111 153.044 C 240.111 152.838,239.986 152.621,239.834 152.562 C 239.681 152.504,239.556 152.257,239.556 152.013 C 239.556 151.770,239.473 151.571,239.372 151.571 C 239.270 151.571,239.187 151.319,239.187 151.011 C 239.187 150.683,239.072 150.406,238.909 150.344 C 238.757 150.286,238.632 150.080,238.632 149.888 C 238.632 149.695,238.549 149.538,238.447 149.538 C 238.346 149.538,238.262 149.330,238.262 149.076 C 238.262 148.822,238.179 148.614,238.078 148.614 C 237.976 148.614,237.893 148.406,237.893 148.152 C 237.893 147.864,237.788 147.689,237.616 147.689 C 237.422 147.689,237.338 147.494,237.338 147.043 C 237.338 146.687,237.255 146.396,237.153 146.396 C 237.052 146.396,236.969 146.188,236.969 145.933 C 236.969 145.679,236.885 145.471,236.784 145.471 C 236.682 145.471,236.599 145.302,236.599 145.096 C 236.599 144.889,236.474 144.672,236.322 144.614 C 236.169 144.555,236.044 144.350,236.044 144.158 C 236.044 143.965,235.961 143.808,235.860 143.808 C 235.758 143.808,235.675 143.600,235.675 143.346 C 235.675 143.058,235.570 142.884,235.397 142.884 C 235.213 142.884,235.120 142.699,235.120 142.331 C 235.120 141.135,234.833 141.035,231.382 141.035 C 228.749 141.035,228.281 141.077,228.281 141.312 M260.813 141.312 C 260.813 141.465,260.724 141.590,260.615 141.590 C 259.881 141.590,259.889 141.394,259.889 158.688 C 259.889 172.802,259.928 175.297,260.153 175.522 C 260.479 175.847,282.255 175.926,282.255 175.601 C 282.255 175.499,282.671 175.416,283.179 175.416 C 283.878 175.416,284.104 175.348,284.104 175.139 C 284.104 174.947,284.296 174.861,284.731 174.861 C 285.102 174.861,285.399 174.754,285.459 174.598 C 285.520 174.438,285.707 174.374,285.941 174.435 C 286.157 174.492,286.322 174.446,286.322 174.328 C 286.322 174.215,286.488 174.122,286.691 174.122 C 286.897 174.122,287.061 173.999,287.061 173.845 C 287.061 173.692,287.148 173.567,287.255 173.567 C 287.507 173.567,289.279 171.795,289.279 171.543 C 289.279 171.436,289.404 171.349,289.556 171.349 C 289.709 171.349,289.834 171.188,289.834 170.991 C 289.834 170.793,289.917 170.580,290.018 170.518 C 290.120 170.455,290.203 170.117,290.203 169.767 C 290.203 169.417,290.287 169.131,290.388 169.131 C 290.490 169.131,290.573 168.683,290.573 168.134 C 290.573 167.419,290.651 167.107,290.850 167.031 C 291.063 166.950,291.128 166.599,291.128 165.527 C 291.128 164.455,291.063 164.104,290.850 164.022 C 290.662 163.950,290.573 163.655,290.573 163.104 C 290.573 162.657,290.490 162.292,290.388 162.292 C 290.287 162.292,290.203 162.084,290.203 161.830 C 290.203 161.576,290.120 161.368,290.018 161.368 C 289.917 161.368,289.834 161.213,289.834 161.024 C 289.834 160.835,289.626 160.524,289.372 160.333 C 289.117 160.142,288.909 159.917,288.909 159.832 C 288.909 159.612,288.418 159.150,288.183 159.150 C 288.074 159.150,287.985 159.055,287.985 158.939 C 287.985 158.655,287.414 158.239,287.015 158.231 C 286.578 158.223,286.540 156.932,286.977 156.932 C 287.377 156.932,288.908 155.430,288.909 155.037 C 288.909 154.859,288.993 154.713,289.094 154.713 C 289.196 154.713,289.279 154.506,289.279 154.251 C 289.279 153.964,289.384 153.789,289.556 153.789 C 289.750 153.789,289.834 153.594,289.834 153.142 C 289.834 152.787,289.917 152.495,290.018 152.495 C 290.130 152.495,290.203 151.725,290.203 150.555 C 290.203 149.384,290.130 148.614,290.018 148.614 C 289.917 148.614,289.834 148.237,289.834 147.776 C 289.834 147.202,289.746 146.905,289.556 146.832 C 289.404 146.774,289.279 146.527,289.279 146.283 C 289.279 146.040,289.196 145.841,289.094 145.841 C 288.993 145.841,288.909 145.710,288.909 145.549 C 288.909 145.228,287.559 143.808,287.253 143.808 C 287.147 143.808,287.061 143.683,287.061 143.530 C 287.061 143.376,286.897 143.253,286.691 143.253 C 286.488 143.253,286.322 143.170,286.322 143.068 C 286.322 142.967,286.206 142.884,286.064 142.884 C 285.923 142.884,285.759 142.759,285.700 142.606 C 285.638 142.444,285.361 142.329,285.034 142.329 C 284.725 142.329,284.473 142.246,284.473 142.144 C 284.473 142.043,284.182 141.959,283.826 141.959 C 283.470 141.959,283.179 141.876,283.179 141.774 C 283.179 141.672,282.686 141.590,282.070 141.590 C 281.208 141.590,280.961 141.528,280.961 141.312 C 280.961 141.069,279.719 141.035,270.887 141.035 C 262.056 141.035,260.813 141.069,260.813 141.312 M303.512 141.312 C 303.512 141.465,303.423 141.590,303.314 141.590 C 302.579 141.590,302.588 141.394,302.588 158.688 C 302.588 172.802,302.627 175.297,302.852 175.522 C 303.248 175.918,330.024 175.918,330.420 175.522 C 330.851 175.091,330.799 169.906,330.360 169.573 C 330.101 169.376,328.055 169.327,320.009 169.322 C 311.222 169.317,309.982 169.282,309.982 169.039 C 309.982 168.886,309.898 168.762,309.797 168.762 C 309.675 168.762,309.612 164.110,309.612 155.176 C 309.612 143.222,309.579 141.590,309.335 141.590 C 309.182 141.590,309.057 141.465,309.057 141.312 C 309.057 141.078,308.626 141.035,306.285 141.035 C 303.943 141.035,303.512 141.078,303.512 141.312 M341.636 141.480 L 341.220 141.919 341.220 158.667 C 341.220 173.432,341.253 175.416,341.497 175.416 C 341.650 175.416,341.774 175.499,341.774 175.601 C 341.774 175.926,370.574 175.848,370.900 175.522 C 371.105 175.317,371.165 174.650,371.165 172.551 C 371.165 170.452,371.105 169.785,370.900 169.580 C 370.678 169.357,368.934 169.316,359.717 169.316 C 350.135 169.316,348.799 169.282,348.799 169.039 C 348.799 168.886,348.674 168.762,348.521 168.762 C 348.284 168.762,348.244 168.228,348.244 165.065 C 348.244 161.902,348.284 161.368,348.521 161.368 C 348.674 161.368,348.799 161.243,348.799 161.091 C 348.799 160.849,349.642 160.813,355.281 160.813 C 361.946 160.813,362.292 160.777,362.292 160.087 C 362.292 159.978,362.417 159.889,362.569 159.889 C 362.801 159.889,362.847 159.516,362.847 157.645 L 362.847 155.400 362.294 154.872 L 361.741 154.344 355.270 154.344 C 349.641 154.344,348.799 154.308,348.799 154.067 C 348.799 153.914,348.674 153.789,348.521 153.789 C 348.287 153.789,348.244 153.348,348.244 150.924 C 348.244 148.501,348.287 148.059,348.521 148.059 C 348.674 148.059,348.799 147.976,348.799 147.874 C 348.799 147.753,352.543 147.689,359.663 147.689 C 372.628 147.689,371.165 148.113,371.165 144.362 C 371.165 140.586,373.171 141.035,356.290 141.038 L 342.052 141.042 341.636 141.480 M278.373 147.412 C 278.373 147.628,278.620 147.689,279.482 147.689 C 280.099 147.689,280.591 147.772,280.591 147.874 C 280.591 147.976,280.799 148.059,281.054 148.059 C 281.308 148.059,281.516 148.166,281.516 148.296 C 281.516 148.426,281.682 148.652,281.885 148.799 C 282.089 148.945,282.255 149.255,282.255 149.486 C 282.255 149.738,282.367 149.908,282.532 149.908 C 282.752 149.908,282.810 150.175,282.810 151.201 C 282.810 152.228,282.752 152.495,282.532 152.495 C 282.375 152.495,282.255 152.661,282.255 152.878 C 282.255 153.335,281.844 153.789,281.431 153.789 C 281.268 153.789,281.087 153.914,281.028 154.067 C 280.970 154.219,280.764 154.344,280.572 154.344 C 280.379 154.344,280.222 154.427,280.222 154.529 C 280.222 154.851,267.502 154.774,267.177 154.449 C 266.970 154.242,266.913 153.542,266.913 151.207 L 266.913 148.229 267.421 147.700 L 267.930 147.171 273.152 147.153 C 277.678 147.137,278.373 147.172,278.373 147.412 M67.190 147.874 C 67.253 147.976,67.540 148.059,67.828 148.059 C 68.124 148.059,68.399 148.180,68.459 148.336 C 68.517 148.489,68.716 148.614,68.900 148.614 C 69.084 148.614,69.354 148.780,69.501 148.983 C 69.647 149.187,69.874 149.353,70.004 149.353 C 70.151 149.353,70.240 149.598,70.240 150.000 C 70.240 150.356,70.323 150.647,70.425 150.647 C 70.527 150.647,70.610 151.058,70.610 151.560 C 70.610 152.063,70.527 152.525,70.425 152.588 C 70.323 152.651,70.240 152.902,70.240 153.147 C 70.240 153.693,69.281 154.713,68.768 154.713 C 68.561 154.713,68.392 154.797,68.392 154.898 C 68.392 155.000,68.140 155.083,67.832 155.083 C 67.504 155.083,67.227 155.198,67.165 155.360 C 67.073 155.599,66.182 155.638,60.701 155.638 C 55.173 155.638,54.344 155.602,54.344 155.360 C 54.344 155.208,54.261 155.083,54.159 155.083 C 53.870 155.083,53.914 148.297,54.205 147.966 C 54.489 147.643,66.993 147.555,67.190 147.874 M105.360 151.571 C 105.360 151.777,105.484 151.941,105.638 151.941 C 105.810 151.941,105.915 152.115,105.915 152.403 C 105.915 152.657,105.998 152.865,106.100 152.865 C 106.201 152.865,106.285 153.073,106.285 153.327 C 106.285 153.581,106.368 153.789,106.470 153.789 C 106.571 153.789,106.654 153.958,106.654 154.165 C 106.654 154.371,106.779 154.588,106.932 154.647 C 107.103 154.712,107.209 154.993,107.209 155.380 C 107.209 155.725,107.292 156.007,107.394 156.007 C 107.495 156.007,107.579 156.176,107.579 156.383 C 107.579 156.589,107.703 156.806,107.856 156.865 C 108.008 156.923,108.133 157.170,108.133 157.413 C 108.133 157.657,108.216 157.856,108.318 157.856 C 108.420 157.856,108.503 158.022,108.503 158.226 C 108.503 158.429,108.586 158.595,108.688 158.595 C 108.789 158.595,108.872 158.803,108.872 159.057 C 108.872 159.345,108.977 159.519,109.150 159.519 C 109.343 159.519,109.427 159.715,109.427 160.166 C 109.427 160.522,109.510 160.813,109.612 160.813 C 109.713 160.813,109.797 161.229,109.797 161.738 L 109.797 162.662 105.255 162.662 C 101.565 162.662,100.663 162.612,100.449 162.398 C 100.150 162.099,100.086 160.813,100.370 160.813 C 100.471 160.813,100.555 160.605,100.555 160.351 C 100.555 160.097,100.638 159.889,100.739 159.889 C 100.841 159.889,100.924 159.732,100.924 159.539 C 100.924 159.347,101.049 159.141,101.201 159.083 C 101.354 159.024,101.479 158.808,101.479 158.601 C 101.479 158.394,101.562 158.226,101.664 158.226 C 101.765 158.226,101.848 157.934,101.848 157.579 C 101.848 157.223,101.932 156.932,102.033 156.932 C 102.135 156.932,102.218 156.724,102.218 156.470 C 102.218 156.182,102.323 156.007,102.495 156.007 C 102.668 156.007,102.773 155.833,102.773 155.545 C 102.773 155.291,102.856 155.083,102.957 155.083 C 103.059 155.083,103.142 154.952,103.142 154.793 C 103.142 154.633,103.267 154.377,103.420 154.225 C 103.572 154.072,103.697 153.704,103.697 153.406 C 103.697 153.109,103.780 152.865,103.882 152.865 C 103.983 152.865,104.067 152.699,104.067 152.495 C 104.067 152.292,104.150 152.126,104.251 152.126 C 104.353 152.126,104.436 151.918,104.436 151.664 C 104.436 151.294,104.529 151.201,104.898 151.201 C 105.237 151.201,105.360 151.300,105.360 151.571 M231.793 151.848 C 231.793 152.204,231.876 152.495,231.978 152.495 C 232.079 152.495,232.163 152.657,232.163 152.854 C 232.163 153.051,232.246 153.264,232.348 153.327 C 232.449 153.390,232.532 153.605,232.532 153.806 C 232.532 154.007,232.657 154.218,232.810 154.277 C 232.962 154.335,233.087 154.541,233.087 154.733 C 233.087 154.926,233.170 155.083,233.272 155.083 C 233.373 155.083,233.457 155.374,233.457 155.730 C 233.457 156.086,233.531 156.377,233.621 156.377 C 233.712 156.377,233.838 156.585,233.902 156.839 C 233.966 157.093,234.100 157.301,234.199 157.301 C 234.299 157.301,234.381 157.509,234.381 157.763 C 234.381 158.018,234.464 158.226,234.566 158.226 C 234.667 158.226,234.750 158.433,234.750 158.688 C 234.750 158.975,234.855 159.150,235.028 159.150 C 235.182 159.150,235.305 159.314,235.305 159.519 C 235.305 159.723,235.388 159.889,235.490 159.889 C 235.591 159.889,235.675 160.175,235.675 160.525 C 235.675 160.875,235.758 161.213,235.860 161.275 C 236.131 161.443,236.085 162.093,235.780 162.398 C 235.566 162.612,234.664 162.662,230.974 162.662 L 226.433 162.662 226.414 162.246 C 226.373 161.343,226.474 160.533,226.634 160.474 C 226.726 160.441,226.802 160.212,226.802 159.966 C 226.802 159.692,226.910 159.519,227.079 159.519 C 227.252 159.519,227.357 159.345,227.357 159.057 C 227.357 158.803,227.440 158.595,227.542 158.595 C 227.643 158.595,227.726 158.434,227.726 158.236 C 227.726 158.039,227.810 157.826,227.911 157.763 C 228.013 157.701,228.096 157.363,228.096 157.013 C 228.096 156.571,228.181 156.377,228.373 156.377 C 228.527 156.377,228.651 156.213,228.651 156.007 C 228.651 155.804,228.734 155.638,228.835 155.638 C 228.937 155.638,229.020 155.439,229.020 155.195 C 229.020 154.952,229.145 154.705,229.298 154.647 C 229.450 154.588,229.575 154.371,229.575 154.165 C 229.575 153.958,229.658 153.789,229.760 153.789 C 229.861 153.789,229.945 153.498,229.945 153.142 C 229.945 152.787,230.028 152.495,230.129 152.495 C 230.231 152.495,230.314 152.287,230.314 152.033 C 230.314 151.746,230.419 151.571,230.591 151.571 C 230.744 151.571,230.869 151.488,230.869 151.386 C 230.869 151.285,231.077 151.201,231.331 151.201 C 231.736 151.201,231.793 151.282,231.793 151.848 M280.591 161.553 C 280.591 161.654,280.799 161.738,281.054 161.738 C 281.308 161.738,281.516 161.821,281.516 161.922 C 281.516 162.024,281.682 162.107,281.885 162.107 C 282.091 162.107,282.255 162.230,282.255 162.384 C 282.255 162.537,282.380 162.662,282.532 162.662 C 282.686 162.662,282.810 162.826,282.810 163.031 C 282.810 163.235,282.923 163.401,283.061 163.401 C 283.230 163.401,283.284 163.553,283.225 163.863 C 283.173 164.133,283.222 164.325,283.343 164.325 C 283.472 164.325,283.549 164.741,283.549 165.434 C 283.549 166.051,283.467 166.543,283.364 166.543 C 283.262 166.543,283.179 166.710,283.179 166.913 C 283.179 167.346,281.830 168.762,281.417 168.762 C 281.262 168.762,281.087 168.886,281.028 169.039 C 280.962 169.210,280.681 169.316,280.294 169.316 C 279.950 169.316,279.667 169.399,279.667 169.501 C 279.667 169.823,267.501 169.746,267.177 169.422 C 266.818 169.062,266.788 162.049,267.144 161.644 C 267.429 161.321,280.591 161.231,280.591 161.553 " stroke="none" fill="#444c54" fill-rule="evenodd"></path><path id="path2" d="M214.177 52.433 C 214.250 52.623,213.979 52.688,213.005 52.714 C 211.881 52.743,211.842 52.755,212.662 52.821 C 214.210 52.944,216.266 52.691,216.266 52.377 C 216.266 52.165,216.029 52.115,215.174 52.146 C 214.349 52.176,214.106 52.246,214.177 52.433 M208.133 53.149 C 207.095 53.348,207.032 53.381,207.671 53.392 C 208.078 53.398,208.909 53.291,209.519 53.153 C 210.985 52.822,209.851 52.819,208.133 53.149 M205.730 53.604 L 205.083 53.741 205.730 53.762 C 206.086 53.774,206.502 53.703,206.654 53.604 C 206.990 53.387,206.762 53.387,205.730 53.604 M204.159 53.974 L 203.789 54.133 204.159 54.143 C 204.362 54.149,204.653 54.073,204.806 53.974 C 205.173 53.737,204.712 53.737,204.159 53.974 M202.218 54.448 C 201.798 54.607,201.701 54.695,201.941 54.700 C 202.144 54.704,202.643 54.588,203.050 54.442 C 203.608 54.241,203.676 54.179,203.327 54.189 C 203.073 54.197,202.574 54.313,202.218 54.448 M200.832 54.898 C 200.475 55.051,200.477 55.058,200.867 55.070 C 201.090 55.077,201.323 55.000,201.386 54.898 C 201.521 54.680,201.341 54.680,200.832 54.898 M199.353 55.351 C 198.109 55.852,197.871 55.984,198.187 55.996 C 198.359 56.002,198.551 55.924,198.614 55.823 C 198.677 55.721,198.869 55.634,199.040 55.629 C 199.212 55.625,199.603 55.507,199.908 55.367 C 200.589 55.055,200.121 55.041,199.353 55.351 M195.029 57.213 C 193.667 57.876,192.589 58.455,192.634 58.499 C 192.678 58.544,193.509 58.182,194.480 57.695 C 195.451 57.208,196.591 56.672,197.014 56.503 C 197.717 56.221,197.989 56.007,197.643 56.008 C 197.567 56.008,196.390 56.550,195.029 57.213 M191.777 58.837 C 187.857 61.188,185.036 63.353,181.433 66.774 C 180.818 67.359,180.085 67.941,179.806 68.067 C 179.239 68.324,179.137 68.577,179.600 68.577 C 179.767 68.577,180.619 67.876,181.495 67.019 C 182.371 66.162,183.295 65.282,183.549 65.064 C 183.803 64.846,184.261 64.442,184.566 64.168 C 184.871 63.893,185.453 63.421,185.859 63.119 C 186.665 62.520,186.955 62.297,187.298 62.015 C 188.063 61.386,188.913 60.813,189.082 60.813 C 189.190 60.813,189.279 60.730,189.279 60.628 C 189.279 60.527,189.368 60.444,189.476 60.444 C 189.585 60.444,189.946 60.236,190.279 59.982 C 190.613 59.727,190.944 59.519,191.016 59.519 C 191.088 59.519,191.453 59.311,191.827 59.057 C 192.508 58.595,192.469 58.422,191.777 58.837 " stroke="none" fill="#84544c" fill-rule="evenodd"></path><path id="path3" d="" stroke="none" fill="#445454" fill-rule="evenodd"></path><path id="path4" d="M212.847 52.265 C 212.440 52.303,212.028 52.413,211.932 52.508 C 211.835 52.603,211.253 52.682,210.638 52.683 C 209.432 52.687,205.794 53.286,205.582 53.517 C 205.511 53.594,205.744 53.600,206.100 53.530 C 208.322 53.092,209.974 52.876,211.958 52.763 C 213.396 52.681,214.241 52.556,214.294 52.418 C 214.382 52.187,214.038 52.151,212.847 52.265 M203.697 53.805 C 203.443 53.894,202.486 54.186,201.571 54.455 C 200.656 54.723,199.658 55.063,199.353 55.211 C 198.672 55.542,199.075 55.448,201.109 54.804 C 201.973 54.530,203.013 54.234,203.420 54.146 C 203.826 54.057,204.409 53.907,204.713 53.811 L 205.268 53.636 204.713 53.640 C 204.409 53.642,203.951 53.717,203.697 53.805 M196.950 56.113 C 195.009 56.949,190.943 59.021,190.943 59.175 C 190.943 59.242,192.211 58.650,193.762 57.860 C 195.312 57.071,196.996 56.275,197.505 56.093 C 198.013 55.911,198.508 55.692,198.604 55.607 C 198.930 55.321,198.452 55.468,196.950 56.113 M188.553 60.655 C 187.492 61.374,186.509 62.078,186.368 62.220 C 186.226 62.361,186.054 62.478,185.985 62.479 C 185.916 62.480,185.444 62.864,184.935 63.333 C 184.427 63.802,183.803 64.348,183.549 64.547 C 183.295 64.746,182.535 65.443,181.860 66.096 C 181.185 66.749,180.559 67.283,180.468 67.283 C 180.378 67.283,180.184 67.449,180.037 67.652 C 179.890 67.856,179.643 68.029,179.488 68.037 C 179.305 68.046,179.285 68.084,179.431 68.143 C 179.715 68.258,180.145 67.958,181.490 66.705 C 184.679 63.734,186.517 62.245,189.182 60.474 C 190.835 59.374,190.890 59.332,190.650 59.341 C 190.557 59.344,189.613 59.936,188.553 60.655 M381.768 172.736 C 381.769 173.752,381.800 174.145,381.837 173.607 C 381.875 173.070,381.874 172.239,381.836 171.759 C 381.798 171.280,381.768 171.719,381.768 172.736 " stroke="none" fill="#a4544c" fill-rule="evenodd"></path></g></svg>