<svg id="svg" version="1.1" xmlns="http://www.w3.org/2000/svg" xmlns:xlink="http://www.w3.org/1999/xlink" width="400" height="155.71368773545416" viewBox="0, 0, 400,155.71368773545416"><g id="svgg"><path id="path0" d="M27.831 45.539 C 27.826 45.914,34.063 71.414,34.180 71.500 C 34.242 71.546,34.870 74.021,35.576 77.000 C 39.056 91.699,39.537 92.727,43.489 93.898 C 45.412 94.469,50.757 94.137,50.920 93.438 C 50.966 93.243,51.419 91.396,51.927 89.333 C 56.439 71.028,59.000 59.984,59.000 58.829 C 59.000 58.648,59.075 58.500,59.167 58.500 C 59.258 58.500,59.333 58.724,59.333 58.999 C 59.333 60.331,60.739 67.670,62.733 76.750 C 63.236 79.042,63.955 82.379,64.331 84.167 C 65.630 90.340,66.519 92.005,69.250 93.374 C 70.831 94.167,74.129 94.424,76.654 93.951 L 77.724 93.750 79.348 87.583 C 80.241 84.192,83.078 73.425,85.652 63.657 C 88.227 53.889,90.333 45.771,90.333 45.615 C 90.333 45.356,89.905 45.333,85.087 45.333 L 79.840 45.333 79.753 45.708 C 78.604 50.659,73.627 75.445,72.976 79.458 C 72.627 81.609,72.333 82.502,72.333 81.415 C 72.333 80.796,71.114 73.756,70.328 69.833 C 69.721 66.808,65.461 46.674,65.222 45.706 L 65.129 45.329 59.618 45.373 L 54.106 45.417 52.057 54.167 C 48.791 68.117,46.212 79.851,45.986 81.795 C 45.978 81.862,45.488 79.186,44.898 75.849 C 44.066 71.150,39.997 49.868,39.208 46.083 L 39.069 45.417 33.451 45.373 C 29.014 45.338,27.833 45.373,27.831 45.539 M125.833 69.500 L 125.833 93.667 130.833 93.667 L 135.833 93.667 135.833 69.500 L 135.833 45.333 130.833 45.333 L 125.833 45.333 125.833 69.500 M263.667 63.708 C 263.667 87.873,263.751 88.616,266.819 91.680 C 269.663 94.521,276.672 95.471,281.433 93.661 L 281.833 93.508 281.833 89.485 L 281.833 85.461 281.458 85.564 C 278.253 86.445,275.647 85.973,274.631 84.329 C 273.756 82.913,273.673 81.993,273.670 73.708 L 273.667 66.167 277.917 66.167 L 282.167 66.167 282.167 61.417 L 282.167 56.667 277.917 56.667 L 273.667 56.667 273.667 51.000 L 273.667 45.333 268.667 45.333 L 263.667 45.333 263.667 63.708 M101.241 56.494 C 97.451 56.834,91.017 58.695,90.449 59.614 C 90.350 59.774,92.178 66.234,92.379 66.435 C 92.442 66.498,92.939 66.313,93.482 66.023 C 98.335 63.437,104.557 63.054,107.467 65.162 C 108.267 65.741,109.093 67.333,109.251 68.599 L 109.357 69.447 106.947 69.551 C 99.535 69.871,92.174 72.503,90.643 75.379 C 90.535 75.583,90.236 76.012,89.980 76.333 C 87.297 79.694,87.161 85.972,89.690 89.753 C 93.542 95.512,103.117 96.234,108.923 91.204 L 110.264 90.043 110.581 90.813 C 111.642 93.388,114.790 94.722,118.407 94.131 C 120.397 93.806,120.256 93.999,119.997 91.962 C 119.852 90.814,119.742 86.651,119.663 79.333 C 119.528 66.691,119.500 66.440,117.815 63.167 C 115.217 58.116,109.373 55.763,101.241 56.494 M160.532 56.501 C 157.292 56.956,154.325 58.717,152.531 61.250 L 152.177 61.750 152.172 59.456 L 152.167 57.162 147.292 57.206 L 142.417 57.250 142.374 75.458 L 142.332 93.667 147.499 93.667 L 152.667 93.667 152.669 82.542 C 152.672 70.411,152.688 70.181,153.629 68.440 C 156.042 63.981,161.466 63.718,163.581 67.958 C 164.469 69.738,164.494 70.138,164.497 82.375 L 164.500 93.667 169.583 93.667 L 174.667 93.667 174.670 82.458 C 174.672 73.464,174.719 71.031,174.907 70.143 C 176.154 64.261,183.269 62.906,185.694 68.089 C 186.629 70.088,186.667 70.648,186.667 82.681 L 186.667 93.667 191.759 93.667 L 196.851 93.667 196.790 80.958 C 196.717 65.740,196.608 64.933,194.143 61.247 C 189.739 54.662,178.966 54.787,173.629 61.486 L 172.732 62.613 172.172 61.598 C 170.110 57.857,165.439 55.812,160.532 56.501 M213.706 56.509 C 209.603 56.874,203.000 58.900,203.000 59.794 C 203.000 60.066,204.825 66.373,204.937 66.490 C 204.976 66.531,205.635 66.251,206.401 65.870 C 214.051 62.060,221.833 63.610,221.833 68.943 L 221.833 69.500 220.625 69.500 C 214.637 69.501,208.484 71.133,205.227 73.584 C 198.328 78.777,198.945 89.776,206.333 93.295 C 211.275 95.649,218.398 94.531,221.997 90.837 L 222.788 90.024 223.185 90.873 C 224.430 93.530,227.307 94.722,231.011 94.114 C 231.952 93.959,232.744 93.811,232.770 93.785 C 232.796 93.759,232.703 92.840,232.564 91.744 C 232.375 90.264,232.274 86.955,232.173 78.917 C 232.034 67.840,232.010 67.475,231.309 65.333 C 229.127 58.675,223.134 55.671,213.706 56.509 M256.583 56.427 C 256.400 56.469,255.838 56.584,255.333 56.683 C 252.505 57.236,249.699 59.475,248.279 62.311 L 247.500 63.867 247.500 60.517 L 247.500 57.167 242.917 57.167 L 238.333 57.167 238.333 75.417 L 238.333 93.667 243.576 93.667 L 248.820 93.667 248.868 82.958 L 248.917 72.250 249.348 71.142 C 250.742 67.563,253.461 66.011,257.958 66.228 L 260.000 66.326 260.000 61.506 C 260.000 58.855,259.934 56.646,259.853 56.596 C 259.650 56.470,256.992 56.333,256.583 56.427 M109.634 79.141 C 109.522 83.381,108.703 84.951,105.917 86.270 C 99.297 89.403,95.096 82.536,100.823 77.944 C 101.964 77.028,105.391 76.276,108.814 76.189 L 109.712 76.167 109.634 79.141 M222.140 79.208 C 222.045 84.112,220.315 86.437,216.344 86.998 C 211.051 87.747,208.437 81.256,212.874 78.380 C 213.264 78.127,213.621 77.873,213.667 77.816 C 214.237 77.109,218.178 76.279,221.391 76.189 L 222.198 76.167 222.140 79.208 M41.999 104.647 C 39.671 105.402,38.586 106.865,38.585 109.250 C 38.584 111.834,39.725 113.162,43.246 114.674 C 45.038 115.443,46.000 116.354,46.000 117.282 C 46.000 119.434,43.334 119.745,40.884 117.880 C 40.105 117.287,39.698 117.424,39.052 118.500 C 38.263 119.814,38.310 120.162,39.375 120.892 C 42.980 123.360,48.246 122.398,49.502 119.041 C 50.642 115.992,49.134 113.447,45.171 111.734 C 42.586 110.617,41.724 109.769,42.096 108.712 C 42.561 107.390,44.203 107.198,46.106 108.244 C 47.638 109.086,47.980 109.044,48.726 107.919 C 49.695 106.460,49.564 106.166,47.503 105.183 C 46.197 104.560,43.175 104.266,41.999 104.647 M169.745 104.869 C 169.700 104.987,169.683 108.871,169.707 113.500 L 169.750 121.917 174.708 121.961 L 179.667 122.005 179.667 120.419 L 179.667 118.833 176.418 118.833 L 173.170 118.833 173.127 111.792 L 173.083 104.750 171.455 104.702 C 170.247 104.667,169.806 104.710,169.745 104.869 M181.857 105.089 C 180.253 106.439,181.096 108.750,183.194 108.750 C 184.550 108.750,185.167 108.136,185.167 106.784 C 185.167 104.977,183.192 103.966,181.857 105.089 M215.936 105.077 C 215.497 105.747,215.538 121.239,215.980 121.815 C 216.378 122.332,217.336 122.190,218.012 121.514 L 218.473 121.053 219.164 121.517 C 221.802 123.289,225.660 121.954,226.851 118.858 C 228.870 113.610,224.777 108.894,219.536 110.430 L 219.155 110.542 219.175 107.748 C 219.199 104.503,219.292 104.673,217.478 104.669 C 216.308 104.667,216.183 104.700,215.936 105.077 M242.111 106.944 C 242.050 107.006,242.000 107.793,242.000 108.694 L 242.000 110.333 241.367 110.333 C 240.476 110.333,240.333 110.552,240.333 111.917 C 240.333 113.282,240.476 113.500,241.367 113.500 L 242.000 113.500 242.004 116.542 C 242.008 119.980,242.136 120.499,243.213 121.445 C 244.933 122.956,248.785 122.458,248.717 120.734 C 248.651 119.104,248.517 118.962,247.163 119.095 C 245.360 119.273,245.333 119.228,245.333 116.058 L 245.333 113.500 246.570 113.500 C 248.370 113.500,248.333 113.533,248.333 111.917 C 248.333 110.301,248.370 110.333,246.570 110.333 L 245.333 110.333 245.333 108.847 C 245.333 106.757,245.397 106.833,243.677 106.833 C 242.877 106.833,242.172 106.883,242.111 106.944 M251.533 107.033 C 251.406 107.160,251.333 107.800,251.333 108.783 L 251.333 110.333 250.759 110.333 C 249.974 110.333,249.667 110.809,249.667 112.025 C 249.667 113.144,249.928 113.500,250.749 113.500 L 251.307 113.500 251.362 116.542 C 251.412 119.304,251.451 119.647,251.787 120.276 C 252.813 122.196,255.293 122.849,257.649 121.818 L 258.381 121.498 258.279 120.527 C 258.112 118.931,258.150 118.964,256.668 119.093 C 254.866 119.250,254.833 119.194,254.833 115.963 L 254.833 113.500 256.094 113.500 C 257.878 113.500,258.001 113.406,257.997 112.036 C 257.994 110.476,257.943 110.428,256.256 110.358 L 254.833 110.299 254.833 108.766 C 254.833 106.866,254.804 106.833,253.083 106.833 C 252.256 106.833,251.656 106.911,251.533 107.033 M53.710 110.409 C 52.260 110.738,52.278 110.717,52.378 111.957 C 52.503 113.518,52.642 113.611,54.341 113.269 C 56.139 112.906,57.667 113.323,57.667 114.176 C 57.667 114.247,57.709 114.416,57.760 114.549 C 57.839 114.755,57.625 114.780,56.376 114.708 C 52.439 114.484,50.245 116.937,51.570 120.083 C 52.498 122.289,55.727 123.058,57.893 121.589 L 58.461 121.203 58.864 121.607 C 59.345 122.087,60.383 122.304,60.749 122.001 C 61.052 121.749,61.117 115.164,60.831 113.648 C 60.298 110.826,57.492 109.550,53.710 110.409 M77.473 110.320 C 72.235 112.016,71.931 120.163,77.040 121.944 C 79.329 122.742,83.667 121.660,83.667 120.291 C 83.667 119.176,81.908 117.891,81.332 118.585 C 80.272 119.862,77.443 119.179,76.860 117.505 L 76.684 117.000 80.322 117.000 C 84.639 117.000,84.409 117.109,84.299 115.124 C 84.108 111.656,80.717 109.269,77.473 110.320 M96.284 110.422 C 95.936 110.550,95.453 110.810,95.211 111.001 L 94.772 111.347 94.381 110.925 C 93.943 110.453,93.438 110.281,92.728 110.362 L 92.250 110.417 92.250 116.167 L 92.250 121.917 93.641 121.965 C 95.606 122.034,95.500 122.249,95.501 118.188 C 95.501 113.963,95.761 113.300,97.417 113.300 C 98.928 113.300,99.065 113.680,99.166 118.167 L 99.250 121.917 100.641 121.965 C 102.615 122.034,102.500 122.287,102.500 117.903 C 102.500 114.283,102.510 114.170,102.866 113.839 C 103.794 112.974,105.349 113.133,105.847 114.143 C 105.996 114.447,106.085 115.670,106.131 118.083 C 106.211 122.178,106.133 122.000,107.842 122.000 C 109.727 122.000,109.667 122.118,109.663 118.363 C 109.658 113.695,109.424 112.620,108.102 111.204 C 106.796 109.804,103.301 109.844,101.806 111.276 L 101.332 111.731 100.791 111.207 C 99.749 110.198,97.813 109.861,96.284 110.422 M114.969 110.478 C 108.804 112.967,110.340 122.241,116.917 122.241 C 121.925 122.241,124.600 116.348,121.426 112.307 C 119.990 110.478,117.039 109.642,114.969 110.478 M128.814 110.387 C 128.482 110.511,127.946 110.776,127.622 110.976 L 127.033 111.340 126.529 110.837 C 125.986 110.294,124.933 110.134,124.533 110.533 C 124.218 110.849,124.250 121.557,124.567 121.820 C 124.715 121.943,125.310 121.996,126.192 121.965 L 127.583 121.917 127.667 118.333 C 127.766 114.043,127.856 113.805,129.543 113.321 C 131.251 112.831,131.667 113.774,131.667 118.138 C 131.667 122.256,131.559 122.034,133.526 121.965 L 134.917 121.917 134.961 117.928 C 135.020 112.669,134.724 111.604,132.942 110.687 C 131.959 110.181,129.787 110.023,128.814 110.387 M140.721 110.397 C 135.634 112.058,135.257 119.547,140.147 121.804 C 142.062 122.688,144.770 122.311,146.618 120.902 C 147.907 119.918,145.999 117.718,144.675 118.660 C 143.016 119.842,140.654 119.179,140.094 117.375 L 139.978 117.000 143.667 117.000 C 148.100 117.000,147.910 117.083,147.800 115.187 C 147.594 111.619,144.138 109.280,140.721 110.397 M201.705 110.471 C 196.960 112.164,196.696 119.685,201.309 121.799 C 203.056 122.599,205.647 122.378,207.276 121.289 C 208.319 120.593,208.395 120.129,207.635 119.097 C 206.984 118.211,206.681 118.163,205.595 118.769 C 204.139 119.583,202.562 119.275,201.709 118.008 C 201.018 116.983,200.964 117.000,204.972 117.000 L 208.610 117.000 208.830 116.590 C 209.106 116.074,208.969 114.147,208.591 113.244 C 207.561 110.778,204.407 109.508,201.705 110.471 M232.222 110.465 C 228.997 111.617,227.491 115.865,229.128 119.196 C 230.680 122.353,235.013 123.312,237.988 121.156 C 238.835 120.543,238.865 120.089,238.125 119.083 C 237.485 118.212,237.177 118.165,236.095 118.769 C 234.639 119.583,233.062 119.275,232.209 118.008 C 231.518 116.983,231.464 117.000,235.472 117.000 L 239.110 117.000 239.330 116.590 C 239.636 116.018,239.431 114.038,238.964 113.043 C 237.863 110.702,234.819 109.538,232.222 110.465 M262.887 110.397 C 257.985 111.998,257.598 119.631,262.309 121.801 C 264.195 122.670,267.122 122.300,268.708 120.991 C 270.021 119.909,268.245 117.662,266.858 118.649 C 265.212 119.821,262.988 119.182,262.427 117.375 L 262.311 117.000 265.983 117.000 C 270.287 117.000,270.093 117.093,269.964 115.098 C 269.733 111.535,266.328 109.273,262.887 110.397 M275.417 110.558 C 274.958 110.772,274.488 111.062,274.371 111.203 C 274.186 111.428,274.089 111.389,273.586 110.886 C 273.085 110.385,272.925 110.320,272.298 110.365 L 271.583 110.417 271.583 116.167 L 271.583 121.917 273.167 121.917 L 274.750 121.917 274.795 118.051 L 274.839 114.186 275.272 113.846 C 275.873 113.373,276.765 113.149,277.275 113.343 C 278.357 113.754,279.333 112.708,279.333 111.137 C 279.333 110.151,277.023 109.810,275.417 110.558 M61.875 110.444 C 61.424 110.626,61.751 111.528,63.936 116.133 C 65.185 118.764,66.287 121.104,66.385 121.333 C 66.836 122.381,67.612 122.660,68.081 121.944 C 68.221 121.729,69.265 119.557,70.399 117.117 C 71.534 114.677,72.568 112.575,72.697 112.446 C 73.903 111.240,73.375 110.333,71.467 110.333 C 69.856 110.333,69.959 110.226,68.547 113.391 C 67.315 116.154,67.358 116.109,66.940 115.041 C 65.974 112.572,65.097 110.568,64.935 110.461 C 64.730 110.325,62.204 110.311,61.875 110.444 M148.958 110.513 C 148.535 110.760,148.560 110.874,149.760 114.123 C 150.361 115.751,151.218 118.071,151.663 119.277 L 152.473 121.471 151.403 124.059 C 149.908 127.675,149.932 127.833,151.982 127.833 C 153.503 127.833,153.372 128.024,155.543 122.667 C 156.602 120.054,158.075 116.419,158.818 114.588 C 160.562 110.285,160.567 110.333,158.358 110.333 C 156.702 110.333,156.817 110.194,155.577 113.720 C 154.959 115.478,154.401 116.976,154.336 117.049 C 154.272 117.122,153.824 115.809,153.341 114.132 C 152.192 110.144,152.326 110.332,150.621 110.338 C 149.867 110.341,149.119 110.420,148.958 110.513 M181.685 110.561 C 181.550 110.724,181.508 112.386,181.539 116.353 L 181.583 121.917 182.974 121.965 C 184.989 122.036,184.833 122.521,184.833 116.152 C 184.833 109.833,184.988 110.333,183.031 110.333 C 182.255 110.333,181.812 110.408,181.685 110.561 M186.542 110.444 C 186.151 110.601,186.333 111.197,187.565 113.808 C 188.242 115.243,189.334 117.579,189.992 119.000 C 192.121 123.597,192.104 123.599,194.414 118.667 C 195.209 116.971,196.353 114.543,196.957 113.271 C 198.299 110.445,198.297 110.436,196.314 110.369 C 194.565 110.310,194.582 110.296,193.603 112.583 C 193.172 113.592,192.652 114.777,192.448 115.217 L 192.077 116.018 191.015 113.414 C 190.430 111.981,189.845 110.702,189.714 110.571 C 189.481 110.338,187.046 110.240,186.542 110.444 M80.005 113.253 C 80.415 113.464,81.000 114.243,81.000 114.575 C 81.000 114.625,80.100 114.667,79.000 114.667 C 76.936 114.667,76.831 114.627,77.177 113.980 C 77.636 113.123,79.051 112.759,80.005 113.253 M143.440 113.272 C 143.918 113.499,144.500 114.215,144.500 114.575 C 144.500 114.625,143.523 114.667,142.329 114.667 L 140.158 114.667 140.420 114.159 C 140.963 113.110,142.282 112.723,143.440 113.272 M205.036 113.653 C 205.869 114.585,205.744 114.667,203.500 114.667 C 201.341 114.667,201.272 114.630,201.945 113.830 C 202.801 112.813,204.214 112.732,205.036 113.653 M235.536 113.653 C 236.369 114.585,236.244 114.667,234.000 114.667 C 231.841 114.667,231.772 114.630,232.445 113.830 C 233.301 112.813,234.714 112.732,235.536 113.653 M265.671 113.284 C 267.195 114.335,266.929 114.667,264.563 114.667 L 262.491 114.667 262.754 114.159 C 263.288 113.126,264.788 112.676,265.671 113.284 M118.473 113.814 C 119.540 114.574,119.927 116.161,119.353 117.424 C 118.394 119.536,116.014 119.754,114.717 117.847 C 112.990 115.310,116.014 112.063,118.473 113.814 M222.001 113.333 C 224.075 113.333,224.598 117.518,222.684 118.790 C 220.738 120.083,219.168 118.706,219.167 115.704 L 219.167 113.825 219.625 113.640 C 220.260 113.383,221.206 113.193,221.472 113.270 C 221.594 113.305,221.832 113.333,222.001 113.333 M56.592 116.819 C 56.679 116.903,56.938 116.997,57.167 117.028 C 57.894 117.125,57.785 118.768,57.017 119.285 C 55.888 120.046,54.500 119.521,54.500 118.333 C 54.500 117.734,55.138 117.000,55.659 117.000 C 55.847 117.000,56.000 116.925,56.000 116.833 C 56.000 116.625,56.380 116.616,56.592 116.819 M160.100 118.534 C 159.296 119.338,159.175 120.113,159.697 121.131 C 160.892 123.460,164.349 122.034,163.665 119.494 C 163.260 117.990,161.198 117.435,160.100 118.534 M278.357 118.422 C 276.607 119.895,277.988 122.685,280.257 122.260 C 281.955 121.941,282.508 119.571,281.151 118.429 C 280.428 117.821,279.076 117.817,278.357 118.422 " stroke="none" fill="#0474cc" fill-rule="evenodd"></path><path id="path1" d="M332.386 28.134 C 330.531 28.794,329.357 29.996,329.225 31.372 C 329.071 32.971,331.085 54.143,331.437 54.630 C 332.454 56.035,335.438 56.511,337.292 55.563 C 338.820 54.781,338.782 54.920,339.427 47.625 C 339.737 44.119,340.184 39.062,340.422 36.388 C 340.917 30.811,340.894 30.561,339.808 29.474 C 338.293 27.959,334.703 27.311,332.386 28.134 M301.750 45.757 C 298.296 47.551,296.615 52.919,298.803 55.168 C 299.729 56.119,318.891 65.002,320.015 65.001 C 322.559 64.998,324.729 61.495,323.731 59.001 C 323.484 58.383,322.714 57.803,314.273 51.876 L 305.083 45.423 303.833 45.374 C 302.755 45.331,302.469 45.384,301.750 45.757 M365.000 45.457 C 364.091 45.812,346.540 58.117,346.197 58.641 C 345.195 60.170,346.223 63.303,348.123 64.508 C 349.585 65.435,349.670 65.411,357.176 61.917 C 360.819 60.221,363.839 58.833,363.887 58.833 C 364.235 58.833,370.834 55.569,371.205 55.213 C 374.506 52.050,369.257 43.797,365.000 45.457 M318.167 74.401 C 317.479 74.708,316.429 75.223,315.833 75.545 C 315.237 75.868,311.300 77.724,307.083 79.671 C 298.836 83.478,298.392 83.744,298.015 85.104 C 296.949 88.942,300.119 93.667,303.760 93.667 L 304.955 93.667 314.186 87.202 C 324.350 80.083,323.922 80.462,323.908 78.583 C 323.882 75.073,321.139 73.074,318.167 74.401 M348.232 74.325 C 346.879 75.101,345.833 77.005,345.833 78.693 C 345.833 80.097,346.113 80.492,348.107 81.903 C 353.368 85.624,358.711 89.355,361.500 91.253 C 362.829 92.157,364.179 93.077,364.500 93.296 C 367.327 95.230,372.167 91.070,372.167 86.705 C 372.167 84.265,371.603 83.699,367.167 81.681 C 359.916 78.383,353.580 75.434,353.500 75.320 C 353.454 75.255,352.750 74.894,351.935 74.517 C 350.113 73.676,349.425 73.641,348.232 74.325 M332.733 83.389 C 331.076 84.180,331.240 83.383,330.116 96.127 C 329.027 108.476,329.030 108.120,330.022 109.249 C 332.636 112.227,339.757 111.364,340.677 107.958 C 340.922 107.053,338.994 85.294,338.602 84.536 C 337.872 83.124,334.621 82.489,332.733 83.389 " stroke="none" fill="#fcc424" fill-rule="evenodd"></path><path id="path2" d="" stroke="none" fill="#409cd0" fill-rule="evenodd"></path><path id="path3" d="" stroke="none" fill="#409cd0" fill-rule="evenodd"></path><path id="path4" d="" stroke="none" fill="#409cd0" fill-rule="evenodd"></path></g></svg>