<svg width="184" height="72" viewBox="0 0 184 72" fill="none" xmlns="http://www.w3.org/2000/svg">
<rect width="184" height="72" fill="#F9FDFE"/>
<g clip-path="url(#clip0_1539_10335)">
<path d="M113.902 42.6552L113.181 41.9414H113.139L110.679 44.3768H110.637L108.177 41.9414H108.135L107.414 42.6552V42.6972L109.874 45.1326V45.1746L107.414 47.6099V47.6519L108.135 48.3657H108.177L110.637 45.9304H110.679L113.139 48.3657H113.181L113.902 47.6519V47.6099L111.443 45.1746V45.1326L113.902 42.6972V42.6552Z" fill="#CDCECF"/>
<path d="M81.8016 37.5745L81.1655 37.8685L81.1231 37.8265C77.9852 31.6121 74.6352 30.7723 71.794 30.7723C69.1649 30.7723 66.1118 31.6541 62.5922 32.7038C61.9985 32.8718 61.3624 33.0817 60.7264 33.2497C59.6663 33.5436 58.5637 33.7115 57.4188 33.7115C53.8568 33.7115 50.7188 32.1999 48.2169 30.9403C46.6904 30.1845 45.4606 29.5966 44.6125 29.5966H44.5277C41.729 29.5966 37.3189 35.853 36.0043 37.7845C35.9619 37.8685 35.9195 37.8685 35.9195 37.9104L35.2834 37.4906H35.4107C35.4531 37.4486 35.4955 37.3646 35.5803 37.2386C37.6157 34.1734 41.517 29.0088 44.5701 28.9248C45.6726 28.9668 47.1144 29.6386 48.7258 30.4364C51.1005 31.6121 54.0688 33.0397 57.3764 33.0397H57.4188C58.4789 33.0397 59.4966 32.9138 60.5143 32.6198C61.1928 32.4099 61.8289 32.2419 62.5074 32.032C66.027 30.9823 69.0377 30.1005 71.794 30.1005H71.8364C76.1193 30.1005 79.1725 32.4099 81.7592 37.5325L81.8016 37.5745Z" fill="url(#paint0_linear_1539_10335)"/>
<path d="M81.8016 37.4906L81.6744 38.1625H81.632C81.2079 38.0785 79.2573 36.7348 76.7554 35.0553C72.939 32.452 68.1472 29.2188 67.0023 29.1348C66.9599 29.1348 66.9175 29.1348 66.8751 29.1348C65.6877 29.1348 63.5251 30.9823 61.4048 32.7879C59.4966 34.4254 57.6732 35.979 56.7403 36.021C56.6979 36.021 56.6555 36.021 56.6131 36.021C55.8922 35.8951 54.5776 35.3072 53.0511 34.6354C50.7612 33.6277 48.1745 32.494 46.7751 32.494H46.7327C45.5454 32.494 41.8138 34.5934 36.4284 38.2044C36.2587 38.3304 36.2163 38.3304 36.1739 38.3304C36.1739 38.3304 36.1739 38.3304 36.1315 38.3304L35.7499 37.7846H35.8347C35.8771 37.7846 35.9619 37.7006 36.1315 37.5746C41.6018 33.8376 45.2486 31.8221 46.7327 31.8221C48.3865 31.8221 51.2277 33.0818 53.5175 34.0895C54.9169 34.7194 56.1466 35.2652 56.7403 35.3492C57.334 35.3492 58.8181 34.0895 60.3871 32.7039C62.677 30.7304 65.2637 28.505 66.8751 28.463C66.9175 28.463 67.0023 28.463 67.0447 28.463C68.5289 28.631 73.8719 32.284 77.7731 34.9713C79.7661 36.3149 81.4623 37.5326 81.7168 37.5326L81.8016 37.4906Z" fill="#CDCECF"/>
<path d="M82.0985 37.4486C82.0561 37.5326 81.9713 37.5746 81.8864 37.6166C80.8263 37.9945 79.7238 38.1624 78.6213 38.1624C72.727 38.1624 67.0447 33.2077 62.8467 29.5967C60.3872 27.4553 58.4365 25.7757 57.2492 25.7757C57.2492 25.7757 57.1644 25.7757 57.122 25.7757C55.2138 25.7757 52.5423 29.1348 50.7613 31.3602C50.3372 31.8641 49.9556 32.368 49.6587 32.7039C48.5138 34.0055 47.4961 35.1392 46.1815 35.1392H46.1391C45.5455 35.1392 44.4005 34.7193 43.3404 34.2995C42.4499 33.9635 41.6442 33.6696 41.305 33.6696H41.2626C40.5417 33.6696 38.8031 35.1812 36.4284 37.7845C36.386 37.8265 36.3436 37.8685 36.3436 37.8685C36.3012 37.9945 36.174 37.9945 36.0892 37.9945C36.0044 37.9945 35.9196 37.9525 35.8772 37.9105C35.7499 37.7845 35.7075 37.5746 35.8347 37.4486H35.8772C35.9196 37.4066 36.0044 37.3227 36.0892 37.1967C38.5063 34.4674 40.2449 33.0398 41.3474 32.9558H41.3898C41.941 32.9978 42.9164 33.3757 43.9341 33.7536C44.867 34.0895 45.7999 34.4674 46.2239 34.4674H46.2663C46.2663 34.4674 46.2663 34.4674 46.3088 34.4674C47.1568 34.4674 48.0898 33.5856 49.2347 32.242C49.6163 31.8221 50.0404 31.2343 50.5916 30.6044C52.4151 28.295 54.9593 25.1039 57.2916 25.0619H57.334C58.8606 25.1459 61.0232 26.9934 63.7796 29.3448C67.9776 32.9558 73.2359 37.4906 78.7061 37.4906C79.7662 37.4906 80.7839 37.3227 81.8016 36.9868C81.9713 36.9448 82.1833 37.0287 82.2257 37.1967C82.1409 37.2807 82.1409 37.3647 82.0985 37.4486Z" fill="url(#paint1_linear_1539_10335)"/>
<path d="M24.4278 50.885C22.8164 50.885 21.5019 50.3812 20.6962 49.1635L20.4418 50.2972C20.357 50.6751 20.2297 50.7591 19.8905 50.7591H19.4665C19.1272 50.7591 19 50.6751 19 50.2972V35.811C19 35.4331 19.0848 35.3491 19.4665 35.3491H20.1449C20.4842 35.3491 20.6114 35.4331 20.6114 35.811V42.5292C21.4171 41.2276 22.8164 40.6817 24.4702 40.6817C27.3114 40.6817 29.262 42.3193 29.262 45.7624C29.262 49.2055 27.269 50.843 24.4278 50.885ZM24.2158 49.4994C26.2936 49.4994 27.5658 48.1558 27.5658 45.7624C27.5658 43.369 26.336 41.9834 24.1734 41.9834C22.0107 41.9834 20.6114 43.243 20.6114 45.7204C20.6114 48.1977 22.2228 49.4994 24.2158 49.4994Z" fill="black"/>
<path d="M30.9581 35.811C30.9581 35.4331 31.0429 35.3491 31.4246 35.3491H32.1031C32.4423 35.3491 32.5695 35.4331 32.5695 35.811V50.1712C32.5695 50.5491 32.4847 50.6331 32.1031 50.6331H31.4246C31.0853 50.6331 30.9581 50.5491 30.9581 50.1712V35.811Z" fill="black"/>
<path d="M35.0714 41.3536C35.0714 40.9757 35.1562 40.8917 35.5379 40.8917H36.1739C36.5556 40.8917 36.6404 40.9757 36.6404 41.3536V50.1713C36.6404 50.5492 36.5556 50.6332 36.1739 50.6332H35.5379C35.1562 50.6332 35.0714 50.5492 35.0714 50.1713V41.3536Z" fill="black"/>
<path d="M45.4183 41.6055C45.6303 41.7735 45.8423 41.9834 45.5031 42.2773L45.079 42.6133C44.7822 42.8652 44.5702 42.7812 44.3581 42.6552C43.8069 42.2773 43.2132 42.0674 42.2803 42.0674C41.1778 42.0674 40.2449 42.4033 40.2449 43.2851C40.2449 45.3845 45.8847 44.4188 45.8847 47.9039C45.8847 49.6674 44.5702 50.8851 41.9835 50.8851C40.0753 50.8851 38.8879 50.3392 38.2942 49.7094C38.1246 49.5414 38.0398 49.3315 38.2942 49.1215L38.7183 48.7436C39.0151 48.4917 39.1423 48.5337 39.312 48.6597C39.7784 49.1215 40.5417 49.5414 41.9411 49.5414C43.3404 49.5414 44.2309 49.0376 44.2309 47.9039C44.2309 45.5525 38.5911 46.6442 38.5911 43.2851C38.5911 41.3116 40.4993 40.6398 42.2379 40.6398C43.8493 40.6818 44.7822 41.1016 45.4183 41.6055Z" fill="black"/>
<path d="M54.1113 41.6055C54.3233 41.7735 54.5353 41.9834 54.1961 42.2773L53.772 42.6133C53.4752 42.8652 53.2632 42.7812 53.0511 42.6552C52.4999 42.2773 51.9062 42.0674 50.9733 42.0674C49.8708 42.0674 48.9379 42.4033 48.9379 43.2851C48.9379 45.3845 54.5777 44.4188 54.5777 47.9039C54.5777 49.6674 53.2632 50.8851 50.6765 50.8851C48.7682 50.8851 47.5809 50.3392 46.9872 49.7094C46.8176 49.5414 46.7328 49.3315 46.9872 49.1215L47.4113 48.7436C47.7081 48.4917 47.8353 48.5337 48.005 48.6597C48.4714 49.1215 49.2347 49.5414 50.6341 49.5414C52.0334 49.5414 52.9239 49.0376 52.9239 47.9039C52.9239 45.5525 47.2841 46.6442 47.2841 43.2851C47.2841 41.3116 49.1923 40.6398 50.9309 40.6398C52.5847 40.6818 53.4752 41.1016 54.1113 41.6055Z" fill="black"/>
<path d="M73.7023 50.8851C70.6492 50.8851 68.6561 49.0796 68.6561 45.7624C68.6561 42.4453 70.6492 40.6818 73.7023 40.6818C76.7555 40.6818 78.7909 42.4453 78.7909 45.7624C78.7909 49.0796 76.7979 50.8851 73.7023 50.8851ZM73.7023 49.0376C75.5257 49.0376 76.5858 47.7779 76.5858 45.7204C76.5858 43.663 75.4833 42.4873 73.7023 42.4873C71.8789 42.4873 70.8188 43.705 70.8188 45.7204C70.8188 47.7359 71.9213 49.0376 73.7023 49.0376Z" fill="black"/>
<path d="M80.063 41.6895C80.063 41.0597 80.1902 40.8917 80.8263 40.8917H81.3775C82.0136 40.8917 82.1408 41.0597 82.1408 41.6895V49.9193C82.1408 50.5492 82.0136 50.6751 81.3775 50.6751H80.8263C80.1902 50.6751 80.063 50.5492 80.063 49.9193V41.6895Z" fill="black"/>
<path d="M86.1694 42.5713C86.4662 41.4376 87.7384 40.6398 89.3498 40.6398C91.4276 40.6398 92.7845 41.9414 92.7845 44.3348V49.8773C92.7845 50.5072 92.6149 50.6331 91.9789 50.6331H91.4276C90.7915 50.6331 90.6643 50.5072 90.6643 49.8773V44.7967C90.6643 43.3271 89.9858 42.4873 88.7985 42.4873C87.3991 42.4873 86.2118 43.495 86.1694 45.3845V49.9193C86.1694 50.5492 86.0422 50.6751 85.4061 50.6751H84.8548C84.2188 50.6751 84.0916 50.5492 84.0916 49.9193V41.6475C84.0916 41.0177 84.2188 40.8497 84.8548 40.8497H85.4061C86.0422 40.8497 86.1694 41.0177 86.1694 41.6475V42.5713Z" fill="black"/>
<path d="M97.2794 40.8918H99.1028C99.7388 40.8918 99.8661 41.0597 99.8661 41.6896V42.0255C99.8661 42.6553 99.7388 42.8233 99.1028 42.8233H97.2794V47.2321C97.2794 48.6177 97.873 48.9536 98.5939 48.9536C98.9756 48.9536 99.2724 48.9117 99.5692 48.8697C99.8237 48.8697 100.036 48.9956 100.036 49.4155V50.2133C100.036 50.5912 99.8237 50.7592 99.4844 50.7592C99.1452 50.8012 98.7635 50.8012 98.3819 50.8012C96.2616 50.8012 95.1591 49.7934 95.1591 47.61V42.7813H94.311C93.6749 42.7813 93.5477 42.6133 93.5477 41.9835V41.6476C93.5477 41.0177 93.6749 40.8498 94.311 40.8498H95.1591L95.7528 39.0862C95.9648 38.6663 96.1344 38.2465 96.5585 38.2465H96.7705C97.1945 38.2465 97.3218 38.3724 97.3218 39.0023L97.2794 40.8918Z" fill="black"/>
<path d="M81.1231 36.5249C81.9712 36.5249 82.3952 37.1127 82.3952 37.7846C82.3952 38.4564 81.9712 39.0023 81.1231 39.0023C80.275 39.0023 79.851 38.4564 79.851 37.7846C79.851 37.1127 80.275 36.5249 81.1231 36.5249Z" fill="black"/>
<path d="M35.8771 36.9027C36.5556 36.9027 36.9373 37.3646 36.9373 37.9104C36.9373 38.4563 36.598 38.9182 35.8771 38.9182C35.1563 38.9182 34.817 38.4983 34.817 37.9104C34.817 37.3226 35.1987 36.9027 35.8771 36.9027Z" fill="black"/>
<path d="M57.8004 41.6895C57.8004 41.0597 57.9276 40.8917 58.5637 40.8917H59.115C59.751 40.8917 59.8783 41.0597 59.8783 41.6895V42.1934C60.6415 41.1436 61.7865 40.6818 63.1434 40.6818C65.7301 40.6818 67.5959 42.2773 67.5959 45.7624C67.5959 49.2475 65.6877 50.8851 63.0586 50.8851C61.7441 50.8851 60.5991 50.4652 59.8783 49.4155V54.2442C59.8783 54.874 59.751 55 59.115 55H58.5637C57.9276 55 57.8004 54.874 57.8004 54.2442V41.6895ZM62.7194 49.0796C64.4156 49.0796 65.4757 47.9039 65.4757 45.8044C65.4757 43.705 64.4156 42.4873 62.7194 42.4873C60.9808 42.4873 59.8359 43.663 59.8359 45.8044C59.8359 47.9458 61.0656 49.0796 62.7194 49.0796Z" fill="black"/>
<path d="M120.729 41.1436H121.832V39.758L124.588 38.5403V41.1436H125.987V42.8232H124.588V48.0298C124.588 48.7436 124.588 49.2475 125.479 49.2475C125.648 49.2475 125.818 49.2475 125.987 49.2055V50.885C125.606 50.927 125.224 50.969 124.588 50.969C122.213 50.969 121.917 49.4154 121.917 48.8276V42.8232H120.814V41.1436H120.729ZM155.416 41.1436H156.519V39.758L159.275 38.5403V41.1436H160.675V42.8232H159.275V48.0298C159.275 48.7436 159.275 49.2475 160.166 49.2475C160.335 49.2475 160.505 49.2475 160.675 49.2055V50.885C160.293 50.927 159.911 50.969 159.275 50.969C156.901 50.969 156.604 49.4154 156.604 48.8276V42.8232H155.501V41.1436H155.416ZM130.525 50.885H127.768V41.1436H130.525V50.885ZM135.02 42.1093C135.317 41.6475 135.656 41.3955 136.037 41.1856C136.419 40.9756 136.886 40.9337 137.394 40.9337C138.709 40.9337 139.854 41.6895 139.854 43.0331V50.843H137.098V44.1248C137.098 43.243 136.928 42.5712 136.08 42.5712C135.189 42.5712 135.062 43.243 135.062 44.1248V50.843H132.306V41.1436H135.062L135.02 42.1093ZM146.596 49.8773C146.003 50.7591 145.282 51.053 144.222 51.053C142.907 51.053 141.762 50.2972 141.762 48.9535V41.1436H144.518V47.8618C144.518 48.7436 144.688 49.3734 145.536 49.3734C146.427 49.3734 146.554 48.7436 146.554 47.8618V41.1436H149.31V48.9535C149.31 49.5834 149.353 50.2552 149.395 50.885H146.554L146.596 49.8773ZM154.059 50.885H151.303V41.1436H154.059V50.885ZM164.703 50.885H161.947V41.1436H164.703V50.885ZM163.431 36.9447C162.583 36.9447 161.862 37.6585 161.862 38.4983C161.862 39.3381 162.583 40.0519 163.431 40.0519C164.279 40.0519 165 39.3381 165 38.4983C165 37.6585 164.321 36.9447 163.431 36.9447ZM152.703 36.9447C151.854 36.9447 151.134 37.6585 151.134 38.4983C151.134 39.3381 151.854 40.0519 152.703 40.0519C153.551 40.0519 154.272 39.3381 154.272 38.4983C154.272 37.6585 153.551 36.9447 152.703 36.9447ZM129.125 36.9447C128.277 36.9447 127.556 37.6585 127.556 38.4983C127.556 39.3381 128.277 40.0519 129.125 40.0519C129.974 40.0519 130.694 39.3381 130.694 38.4983C130.694 37.6585 129.974 36.9447 129.125 36.9447Z" fill="black"/>
<path d="M144.858 28.5889L143.798 31.3602C143.713 31.6121 143.713 31.8641 143.84 32.116C143.967 32.3679 144.137 32.5359 144.391 32.6199L146.257 33.3337C146.3 33.3757 146.384 33.3757 146.427 33.3757C146.893 33.4597 147.36 33.2077 147.487 32.7458L148.547 29.9746C148.717 29.4707 148.462 28.9249 147.996 28.7149L146.13 28.0011C145.918 27.9171 145.748 27.9171 145.536 27.9591C145.494 27.9591 145.451 28.0011 145.409 28.0011C145.112 28.1691 144.943 28.379 144.858 28.5889ZM139.133 24.2641L136.546 30.8144L141.677 32.7878L144.264 26.2376L139.133 24.2641ZM126.284 26.3215L128.659 29.0928L131.458 26.7414L129.083 23.9702L126.284 26.3215ZM135.91 28.463L136.97 25.6917C137.055 25.4398 137.055 25.1878 136.928 24.9359C136.801 24.684 136.631 24.516 136.377 24.432L134.511 23.7182C134.469 23.6762 134.384 23.6762 134.341 23.6762C133.875 23.5923 133.408 23.8442 133.281 24.3061L132.221 27.0773C132.051 27.5812 132.306 28.1271 132.772 28.337L134.638 29.0508C134.85 29.1348 135.02 29.1348 135.232 29.0928C135.274 29.0928 135.317 29.0508 135.359 29.0508C135.656 28.8829 135.826 28.7149 135.91 28.463ZM127.133 34.9713C127.472 35.937 126.963 36.9867 125.988 37.3226C125.012 37.6586 123.952 37.1547 123.613 36.1889C123.274 35.2232 123.783 34.1735 124.758 33.8376C125.733 33.4597 126.793 33.9635 127.133 34.9713ZM127.048 29.4707C127.429 30.6044 126.836 31.8221 125.691 32.242C124.546 32.6619 123.316 31.99 122.892 30.8563C122.51 29.7226 123.104 28.505 124.249 28.0851C125.394 27.6652 126.666 28.337 127.048 29.4707ZM134.469 38.0365C134.681 38.6663 134.341 39.3381 133.705 39.5481C133.069 39.758 132.391 39.4221 132.179 38.7923C131.967 38.1624 132.306 37.4906 132.942 37.2807C133.578 37.0707 134.257 37.4486 134.469 38.0365ZM137.225 35.811C137.394 36.3149 137.14 36.9028 136.631 37.0707C136.122 37.2387 135.529 36.9867 135.359 36.4829C135.189 35.979 135.444 35.3912 135.953 35.2232C136.462 35.0133 137.055 35.2652 137.225 35.811ZM138.751 32.9978C138.879 33.4177 138.667 33.8376 138.243 33.9635C137.819 34.0895 137.394 33.8795 137.267 33.4597C137.14 33.0398 137.352 32.6199 137.776 32.4939C138.158 32.3679 138.582 32.6199 138.751 32.9978ZM154.484 30.7304L152.109 27.9591L149.31 30.3105L151.685 33.0818L154.484 30.7304ZM153.678 22.1226C153.339 21.1569 153.848 20.1072 154.823 19.7713C155.798 19.4353 156.858 19.9392 157.198 20.905C157.537 21.8707 157.028 22.9204 156.053 23.2563C155.077 23.5923 154.017 23.0884 153.678 22.1226ZM153.72 27.6232C153.339 26.4895 153.932 25.2718 155.077 24.8519C156.222 24.474 157.452 25.0619 157.876 26.1956C158.258 27.3293 157.664 28.547 156.519 28.9668C155.374 29.3447 154.102 28.7149 153.72 27.6232ZM150.201 19.0574C149.904 18.2597 150.37 17.3779 151.176 17.084C151.982 16.79 152.872 17.2519 153.169 18.0497C153.466 18.8475 152.999 19.7293 152.194 20.0232C151.388 20.2751 150.498 19.8552 150.201 19.0574ZM146.3 19.0155C146.087 18.3856 146.427 17.7138 147.063 17.5039C147.699 17.2939 148.377 17.6298 148.589 18.2597C148.801 18.8895 148.462 19.5613 147.826 19.7713C147.19 19.9812 146.512 19.6453 146.3 19.0155ZM143.586 21.2829C143.416 20.779 143.67 20.1912 144.179 20.0232C144.688 19.8552 145.282 20.1072 145.451 20.611C145.621 21.1149 145.367 21.7028 144.858 21.8707C144.306 22.0387 143.755 21.7867 143.586 21.2829ZM142.059 24.0541C141.932 23.6342 142.144 23.2144 142.568 23.0884C142.992 22.9624 143.416 23.1724 143.543 23.5923C143.67 24.0121 143.458 24.432 143.034 24.558C142.61 24.684 142.186 24.474 142.059 24.0541Z" fill="url(#paint2_linear_1539_10335)"/>
</g>
<defs>
<linearGradient id="paint0_linear_1539_10335" x1="58.5473" y1="28.8982" x2="58.5473" y2="37.8832" gradientUnits="userSpaceOnUse">
<stop stop-color="#8D43D9"/>
<stop offset="0.09" stop-color="#8535D6"/>
<stop offset="0.28" stop-color="#771DD1"/>
<stop offset="0.49" stop-color="#6D0DCE"/>
<stop offset="0.72" stop-color="#6703CC"/>
<stop offset="1" stop-color="#6600CC"/>
</linearGradient>
<linearGradient id="paint1_linear_1539_10335" x1="35.7487" y1="31.5989" x2="82.1338" y2="31.5989" gradientUnits="userSpaceOnUse">
<stop stop-color="#6F98DB"/>
<stop offset="1" stop-color="#4178CF"/>
</linearGradient>
<linearGradient id="paint2_linear_1539_10335" x1="122.792" y1="28.315" x2="157.99" y2="28.315" gradientUnits="userSpaceOnUse">
<stop stop-color="#4178CF"/>
<stop offset="0.4" stop-color="#4F4ACD"/>
<stop offset="0.99" stop-color="#6600CC"/>
</linearGradient>
<clipPath id="clip0_1539_10335">
<rect width="146" height="38" fill="white" transform="translate(19 17)"/>
</clipPath>
</defs>
</svg>
