<svg width="184" height="72" viewBox="0 0 184 72" fill="none" xmlns="http://www.w3.org/2000/svg">
<rect width="184" height="72" fill="#F9FDFE"/>
<g clip-path="url(#clip0_1539_10308)">
<path d="M84.1399 30.0711C84.1399 27.3226 86.1199 25.3398 89.1199 25.3398C92.0199 25.3398 94.0799 27.2638 94.0799 30.0711C94.0799 32.8785 92.0399 34.8221 89.1199 34.8221C86.1399 34.8221 84.1399 32.8196 84.1399 30.0711ZM91.5399 30.0711C91.5399 28.5595 90.4999 27.5386 89.1199 27.5386C87.6599 27.5386 86.6999 28.6184 86.6999 30.0711C86.6999 31.5042 87.6999 32.6036 89.1199 32.6036C90.4599 32.6036 91.5399 31.5828 91.5399 30.0711Z" fill="#1856ED"/>
<path d="M105.56 33.2516L106.44 31.9951C106.54 31.8577 106.72 31.8381 106.86 31.9362C107.56 32.5056 108.3 32.7804 109.22 32.7804C109.94 32.7804 110.34 32.4859 110.34 32.0344C110.34 31.6418 109.86 31.4258 108.66 31.0332C107.12 30.5227 105.78 29.816 105.78 28.0295C105.78 26.3804 107.24 25.3007 109.16 25.3007C110.36 25.3007 111.34 25.5951 112.34 26.2823C112.46 26.3608 112.5 26.5375 112.42 26.6553L111.52 27.9902C111.42 28.1277 111.24 28.1473 111.1 28.0491C110.44 27.5191 109.72 27.2835 109.1 27.2835C108.72 27.2835 108.22 27.4798 108.22 27.951C108.22 28.324 108.68 28.5988 109.6 28.9326C111.62 29.6589 112.82 30.0908 112.82 31.9166C112.82 33.5264 111.66 34.7632 109.2 34.7632C107.8 34.7632 106.6 34.3313 105.62 33.5853C105.5 33.5461 105.48 33.389 105.56 33.2516Z" fill="#1856ED"/>
<path d="M115.02 31.7595V27.519H114.2C114.04 27.519 113.92 27.4012 113.92 27.2442V25.7521C113.92 25.5951 114.04 25.4773 114.2 25.4773H115.02V23.2982C115.02 23.1411 115.14 23.0233 115.3 23.0233H117.24C117.4 23.0233 117.52 23.1411 117.52 23.2982V25.4773H119.76C119.92 25.4773 120.04 25.5951 120.04 25.7521V27.2442C120.04 27.4012 119.92 27.519 119.76 27.519H117.52V31.4062C117.52 32.2111 117.74 32.5841 118.32 32.5841C118.56 32.5841 118.9 32.5055 119.24 32.3878C119.4 32.3289 119.56 32.4074 119.6 32.5644L120.06 34.0172C120.1 34.1546 120.04 34.292 119.92 34.3509C119.38 34.6258 118.78 34.8221 117.66 34.8221C116.06 34.8221 115.02 33.8209 115.02 31.7595Z" fill="#1856ED"/>
<path d="M143.88 31.7595V27.519H143.06C142.9 27.519 142.78 27.4012 142.78 27.2442V25.7521C142.78 25.5951 142.9 25.4773 143.06 25.4773H143.88V23.2982C143.88 23.1411 144 23.0233 144.16 23.0233H146.1C146.26 23.0233 146.38 23.1411 146.38 23.2982V25.4773H148.62C148.78 25.4773 148.9 25.5951 148.9 25.7521V27.2442C148.9 27.4012 148.78 27.519 148.62 27.519H146.38V31.4062C146.38 32.2111 146.6 32.5841 147.18 32.5841C147.42 32.5841 147.76 32.5055 148.1 32.3878C148.26 32.3289 148.42 32.4074 148.46 32.5644L148.92 34.0172C148.96 34.1546 148.9 34.292 148.78 34.3509C148.24 34.6258 147.64 34.8221 146.52 34.8221C144.94 34.8221 143.88 33.8209 143.88 31.7595Z" fill="#1856ED"/>
<path d="M95.6201 25.4772H97.5601C97.7201 25.4772 97.8401 25.595 97.8401 25.7521V26.6944C98.6401 25.7717 99.7001 25.3398 100.86 25.3398C102.84 25.3398 104.24 26.3999 104.24 29.2073V34.3705C104.24 34.5276 104.12 34.6453 103.96 34.6453H102.02C101.86 34.6453 101.74 34.5276 101.74 34.3705V29.8159C101.74 28.0687 101.1 27.519 99.9401 27.519C98.6801 27.519 97.8401 28.3828 97.8401 30.0319V34.3509C97.8401 34.5079 97.7201 34.6257 97.5601 34.6257H95.6201C95.4601 34.6257 95.3401 34.5079 95.3401 34.3509V25.7128C95.3401 25.5951 95.4601 25.4772 95.6201 25.4772Z" fill="#1856ED"/>
<path d="M132.92 25.4772H134.86C135.02 25.4772 135.14 25.595 135.14 25.7521V26.6944C135.94 25.7717 137 25.3398 138.16 25.3398C140.14 25.3398 141.54 26.3999 141.54 29.2073V34.3705C141.54 34.5276 141.42 34.6453 141.26 34.6453H139.32C139.16 34.6453 139.04 34.5276 139.04 34.3705V29.8159C139.04 28.0687 138.4 27.519 137.24 27.519C135.98 27.519 135.14 28.3828 135.14 30.0319V34.3509C135.14 34.5079 135.02 34.6257 134.86 34.6257H132.92C132.76 34.6257 132.64 34.5079 132.64 34.3509V25.7128C132.64 25.5951 132.76 25.4772 132.92 25.4772Z" fill="#1856ED"/>
<path d="M120.92 30.0907C120.92 27.303 122.82 25.3398 125.32 25.3398C126.48 25.3398 127.46 25.7914 128.12 26.5767V25.7325C128.12 25.5754 128.24 25.4576 128.4 25.4576H130.34C130.5 25.4576 130.62 25.5754 130.62 25.7325V34.3705C130.62 34.5276 130.5 34.6453 130.34 34.6453H128.52C128.36 34.6453 128.24 34.5276 128.24 34.3705V33.4871C127.58 34.3509 126.64 34.8221 125.38 34.8221C122.82 34.8221 120.92 32.9177 120.92 30.0907ZM128.24 30.1104C128.24 28.6184 127.2 27.5386 125.86 27.5386C124.5 27.5386 123.46 28.5398 123.46 30.1104C123.46 31.5828 124.44 32.6036 125.86 32.6036C127.14 32.6036 128.24 31.6024 128.24 30.1104Z" fill="#1856ED"/>
<path d="M79.3199 21.6295C81.0799 21.6295 82.5599 22.2185 83.6599 23.1019C83.7799 23.2001 83.7999 23.3571 83.7199 23.4945L82.5399 25.124C82.4399 25.2614 82.2399 25.281 82.1199 25.1632C81.3599 24.5154 80.4199 24.1228 79.3199 24.1228C76.8199 24.1228 75.1999 25.9093 75.1999 28.2062C75.1999 30.5228 76.8599 32.2896 79.2799 32.2896C80.3799 32.2896 81.3199 31.897 82.0999 31.2295C82.2199 31.1117 82.4199 31.1313 82.5199 31.2688L83.6999 32.8786C83.7799 32.9964 83.7599 33.1731 83.6399 33.2712C82.3399 34.3117 80.7999 34.8025 79.2799 34.8025C75.1799 34.8025 72.3799 32.1522 72.3799 28.2062C72.3799 24.4172 74.9999 21.6295 79.3199 21.6295Z" fill="#1856ED"/>
<path d="M123.36 45.6196C123.36 42.7926 125.36 40.8687 128.26 40.8687C129.48 40.8687 130.76 41.2417 131.72 42.0269C131.84 42.1251 131.86 42.2821 131.76 42.3999L130.78 43.7545C130.68 43.892 130.48 43.9116 130.34 43.7938C129.86 43.3423 129.18 43.0674 128.42 43.0674C126.9 43.0674 125.9 44.1079 125.9 45.5999C125.9 47.1116 126.94 48.1325 128.42 48.1325C129.24 48.1325 129.9 47.838 130.4 47.3864C130.52 47.2687 130.74 47.2883 130.84 47.4257L131.84 48.7999C131.92 48.9177 131.9 49.0748 131.8 49.1729C131 49.8797 129.84 50.3509 128.2 50.3509C125.38 50.3509 123.36 48.4466 123.36 45.6196Z" fill="#1856ED"/>
<path d="M106.54 47.2883V43.0478H105.72C105.56 43.0478 105.44 42.93 105.44 42.773V41.281C105.44 41.1239 105.56 41.0061 105.72 41.0061H106.54V38.827C106.54 38.6699 106.66 38.5521 106.82 38.5521H108.76C108.92 38.5521 109.04 38.6699 109.04 38.827V41.0061H111.28C111.44 41.0061 111.56 41.1239 111.56 41.281V42.773C111.56 42.93 111.44 43.0478 111.28 43.0478H109.04V46.9349C109.04 47.7399 109.26 48.1129 109.84 48.1129C110.08 48.1129 110.42 48.0343 110.76 47.9165C110.92 47.8576 111.08 47.9362 111.12 48.0932L111.58 49.546C111.62 49.6834 111.56 49.8208 111.44 49.8797C110.9 50.1546 110.3 50.3509 109.18 50.3509C107.58 50.3509 106.54 49.3693 106.54 47.2883Z" fill="#1856ED"/>
<path d="M134.12 47.2883V43.0478H133.3C133.14 43.0478 133.02 42.93 133.02 42.773V41.281C133.02 41.1239 133.14 41.0061 133.3 41.0061H134.12V38.827C134.12 38.6699 134.24 38.5521 134.4 38.5521H136.34C136.5 38.5521 136.62 38.6699 136.62 38.827V41.0061H138.86C139.02 41.0061 139.14 41.1239 139.14 41.281V42.773C139.14 42.93 139.02 43.0478 138.86 43.0478H136.62V46.9349C136.62 47.7399 136.84 48.1129 137.42 48.1129C137.66 48.1129 138 48.0343 138.34 47.9165C138.5 47.8576 138.66 47.9362 138.7 48.0932L139.16 49.546C139.2 49.6834 139.14 49.8208 139.02 49.8797C138.48 50.1546 137.88 50.3509 136.76 50.3509C135.18 50.3509 134.12 49.3693 134.12 47.2883Z" fill="#1856ED"/>
<path d="M84.1399 45.5999C84.1399 42.8515 86.1199 40.8687 89.1199 40.8687C92.0199 40.8687 94.0799 42.7926 94.0799 45.5999C94.0799 48.4073 92.0399 50.3509 89.1199 50.3509C86.1399 50.3509 84.1399 48.3484 84.1399 45.5999ZM91.5399 45.5999C91.5399 44.0883 90.4999 43.0674 89.1199 43.0674C87.6599 43.0674 86.6999 44.1472 86.6999 45.5999C86.6999 47.0331 87.6999 48.1325 89.1199 48.1325C90.4599 48.1325 91.5399 47.1116 91.5399 45.5999Z" fill="#1856ED"/>
<path d="M95.6201 40.9669H97.5601C97.7201 40.9669 97.8401 41.0847 97.8401 41.2417V42.1841C98.6401 41.2614 99.7001 40.8295 100.86 40.8295C102.84 40.8295 104.24 41.8896 104.24 44.697V49.8601C104.24 50.0172 104.12 50.135 103.96 50.135H102.02C101.86 50.135 101.74 50.0172 101.74 49.8601V45.3055C101.74 43.5583 101.1 43.0086 99.9401 43.0086C98.6801 43.0086 97.8401 43.8724 97.8401 45.5215V49.8405C97.8401 49.9976 97.7201 50.1154 97.5601 50.1154H95.6201C95.4601 50.1154 95.3401 49.9976 95.3401 49.8405V41.2025C95.3401 41.0847 95.4601 40.9669 95.6201 40.9669Z" fill="#1856ED"/>
<path d="M112.32 45.6196C112.32 42.8318 114.22 40.8687 116.72 40.8687C117.88 40.8687 118.86 41.3202 119.52 42.1055V41.2613C119.52 41.1042 119.64 40.9864 119.8 40.9864H121.74C121.9 40.9864 122.02 41.1042 122.02 41.2613V49.8993C122.02 50.0564 121.9 50.1742 121.74 50.1742H119.92C119.76 50.1742 119.64 50.0564 119.64 49.8993V49.0159C118.98 49.8797 118.04 50.3509 116.78 50.3509C114.22 50.3509 112.32 48.4662 112.32 45.6196ZM119.64 45.6392C119.64 44.1472 118.6 43.0674 117.26 43.0674C115.9 43.0674 114.86 44.0687 114.86 45.6392C114.86 47.1116 115.84 48.1325 117.26 48.1325C118.54 48.1325 119.64 47.1509 119.64 45.6392Z" fill="#1856ED"/>
<path d="M79.3199 37.1779C81.0799 37.1779 82.5599 37.7668 83.6599 38.6502C83.7799 38.7484 83.7999 38.9055 83.7199 39.0429L82.5399 40.6723C82.4399 40.8098 82.2399 40.8294 82.1199 40.7116C81.3599 40.0637 80.4199 39.6711 79.3199 39.6711C76.8199 39.6711 75.1999 41.4576 75.1999 43.7545C75.1999 46.0711 76.8599 47.838 79.2799 47.838C80.3799 47.838 81.3199 47.4453 82.0999 46.7779C82.2199 46.6601 82.4199 46.6797 82.5199 46.8171L83.6999 48.4269C83.7799 48.5447 83.7599 48.7214 83.6399 48.8196C82.3399 49.8601 80.7999 50.3509 79.2799 50.3509C75.1799 50.3509 72.3799 47.7006 72.3799 43.7545C72.3799 39.946 74.9999 37.1779 79.3199 37.1779Z" fill="#1856ED"/>
<path d="M50.1801 52C41.2001 52 35.1001 44.8147 35.1001 37.1779C35.1001 29.4233 41.3201 22.7288 49.6001 22.4147C49.9201 22.3951 50.2001 22.6699 50.2001 22.984V25.3595C50.2001 25.654 49.9601 25.9092 49.6401 25.9288C43.5601 26.2036 38.6601 31.092 38.6601 37.1975C38.6601 43.1656 43.4601 48.5055 50.1801 48.5055C56.7201 48.5055 61.3601 43.3816 61.6401 37.7276C61.6601 37.4331 61.9001 37.1779 62.2201 37.1779H64.6401C64.9601 37.1779 65.2201 37.4331 65.2201 37.7668C64.9401 45.3055 58.7601 52 50.1801 52Z" fill="#1856ED"/>
<path d="M50.2001 44.1472C46.2001 44.1472 43.1001 41.0257 43.1001 37.1779C43.1001 33.5852 45.9201 30.5816 49.5801 30.2871C49.9201 30.2674 50.2001 30.5227 50.2001 30.8564V33.2319C50.2001 33.5067 50.0001 33.7619 49.7001 33.8012C47.9401 34.0368 46.6601 35.5092 46.6601 37.1975C46.6601 39.0822 48.1601 40.6724 50.2001 40.6724C51.9001 40.6724 53.4201 39.4159 53.6601 37.6883C53.7001 37.4135 53.9601 37.1975 54.2401 37.1975H56.6601C57.0001 37.1975 57.2601 37.4723 57.2401 37.8061C56.9201 41.3202 53.9201 44.1472 50.2001 44.1472Z" fill="#1856ED"/>
<path d="M64.1401 34.2724C63.8601 28.5202 59.1801 23.7693 53.1601 23.4945C52.8601 23.4748 52.6001 23.2393 52.6001 22.9252V20.5693C52.6001 20.2552 52.8601 20 53.2001 20C61.0201 20.2945 67.4001 26.4393 67.7001 34.2331C67.7201 34.5472 67.4401 34.8221 67.1201 34.8221H64.7001C64.4201 34.8221 64.1601 34.5865 64.1401 34.2724Z" fill="#FF9E1A"/>
<path d="M53.2599 31.4061C52.8999 31.3472 52.6399 31.0528 52.6399 30.7583V28.4417C52.6399 28.108 52.9199 27.8528 53.2599 27.8724C56.7399 28.1669 59.4199 30.8957 59.7199 34.1939C59.7399 34.5276 59.4799 34.8025 59.1399 34.8025H56.5999C56.3599 34.8025 56.1799 34.6454 56.1399 34.4098C55.9599 33.016 54.8799 31.681 53.2599 31.4061Z" fill="#FF9E1A"/>
</g>
<defs>
<clipPath id="clip0_1539_10308">
<rect width="114" height="32" fill="white" transform="translate(35 20)"/>
</clipPath>
</defs>
</svg>
