<svg width="184" height="72" viewBox="0 0 184 72" fill="none" xmlns="http://www.w3.org/2000/svg">
<rect width="184" height="72" fill="#F9FDFE"/>
<g clip-path="url(#clip0_1539_10311)">
<path d="M100.935 25.0027H95.9897V40.1714L100.935 35.4405V25.0027Z" fill="#231F20"/>
<path d="M101.448 41.6679L106.1 46.3854H113.084L104.962 38.2932L101.448 41.6679Z" fill="#231F20"/>
<path d="M140.939 30.7981H140.536V30.4795H141.716V30.7981H141.314V32.2745H140.939V30.7981ZM141.911 32.2745V30.4795H142.418L142.896 31.7674L143.368 30.4795H143.877V32.2745H143.528L143.538 30.8363L143.017 32.2745H142.77L142.247 30.8363L142.257 32.2745H141.911Z" fill="#231F20"/>
<path d="M115.815 39.9843C115.998 41.7417 117.701 42.9806 119.637 42.9806C121.097 42.9806 121.938 42.3796 122.494 41.6431H127.596C126.135 44.6662 123.337 46.9012 119.637 46.9012C114.9 46.9012 110.878 43.2033 110.878 38.471C110.878 34.0272 114.513 29.9275 119.548 29.9275C122.081 29.9275 124.256 30.8732 125.805 32.4495C127.498 34.1969 128.234 36.2508 128.234 38.4113C128.234 38.9312 128.21 39.4349 128.138 39.9843H115.815ZM123.282 36.556C123.159 35.7377 122.14 33.8488 119.578 33.8488C117.015 33.8488 115.986 35.7457 115.87 36.556H123.282Z" fill="#231F20"/>
<path d="M94.6187 40.3351C93.7244 43.9492 90.4172 46.9012 85.948 46.9012C80.9422 46.9012 77.0996 43.1161 77.0996 38.3852C77.0996 33.7119 80.8829 29.9275 85.8288 29.9275C90.2088 29.9275 93.7537 32.7078 94.5887 36.6083H89.5835C89.0468 35.5177 88.0634 34.3713 86.0079 34.3713C84.8454 34.3143 83.8626 34.7436 83.1475 35.4895C82.4623 36.2354 82.0748 37.2663 82.0748 38.4133C82.0748 40.7369 83.6542 42.4574 86.0079 42.4574C88.0634 42.4574 89.0468 41.3104 89.5835 40.3351H94.6187Z" fill="#231F20"/>
<path d="M134.771 34.4679H139.5V30.4796H134.769V25.0021H129.827L129.825 39.2981C129.825 44.3685 132.527 46.3854 138.27 46.3854H138.673V42.1187H138.494C135.963 42.1187 134.77 41.2299 134.77 38.9936L134.771 34.4679Z" fill="#231F20"/>
<path d="M60.0455 30.4795H64.6931V32.8003C65.1698 31.9397 66.0341 30.4781 68.8932 30.4781V35.1138H68.7154C66.1825 35.1138 64.9906 36.0026 64.9906 38.2396V46.3854H60.0454L60.0455 30.4795Z" fill="#231F20"/>
<path d="M58.5184 40.3351C57.6248 43.9492 54.3169 46.9012 49.8477 46.9012C44.8426 46.9012 41 43.1161 41 38.3852C41 33.7119 44.7833 29.9275 49.7292 29.9275C54.1091 29.9275 57.6548 32.7078 58.4884 36.6083H53.4839C52.9466 35.5177 51.9638 34.3713 49.9083 34.3713C48.7451 34.3143 47.7623 34.7436 47.0472 35.4895C46.3634 36.2354 45.9752 37.2663 45.9752 38.4133C45.9752 40.7369 47.5539 42.4574 49.9083 42.4574C51.9638 42.4574 52.9466 41.3104 53.4839 40.3351H58.5184Z" fill="#231F20"/>
<path d="M70.7549 25H75.6966V29.0206H70.7549V25ZM70.7549 30.4795H75.6966V46.3854H70.7549V30.4795Z" fill="#231F20"/>
<path d="M106.122 30.4774L95.99 40.1713V46.9058L113.105 30.4788L106.122 30.4774Z" fill="#61C336"/>
</g>
<defs>
<clipPath id="clip0_1539_10311">
<rect width="103" height="22" fill="white" transform="translate(41 25)"/>
</clipPath>
</defs>
</svg>
