<svg width="184" height="72" viewBox="0 0 184 72" fill="none" xmlns="http://www.w3.org/2000/svg">
<rect width="184" height="72" fill="#F9FDFE"/>
<g clip-path="url(#clip0_1539_10314)">
<path d="M52.5395 28.0625C54.8223 28.0625 56.6399 28.6476 57.9404 29.8051C59.2545 30.9712 59.9206 32.6643 59.9206 34.8415V43.6021C59.9206 43.8021 59.749 43.9656 59.539 43.9656H56.5202C56.3102 43.9656 56.1386 43.8021 56.1386 43.6021V34.5231C56.1386 33.5206 55.818 32.7353 55.1858 32.1888C54.5355 31.6295 53.6459 31.3476 52.5395 31.3476H49.2791C48.1727 31.3476 47.2831 31.6316 46.6328 32.1888C45.9915 32.7418 45.6799 33.5055 45.6799 34.5231V43.6021C45.6799 43.8021 45.5083 43.9656 45.2984 43.9656H42.2795C42.0695 43.9656 41.8979 43.8021 41.8979 43.6021V34.8415C41.8979 32.6665 42.564 30.9712 43.8759 29.8051C45.1787 28.6476 46.9963 28.0625 49.2768 28.0625H52.5395ZM87.7901 28.0625H84.5297C82.2469 28.0625 80.4293 28.6476 79.1265 29.8051C79.0949 29.8331 79.07 29.8653 79.0384 29.8933C79.0068 29.8632 78.982 29.8331 78.9481 29.8051C77.6475 28.6476 75.8299 28.0625 73.5472 28.0625H70.289C68.0062 28.0625 66.1886 28.6476 64.8858 29.8051C63.5717 30.9712 62.9079 32.6665 62.9079 34.8415V43.6021C62.9079 43.8021 63.0795 43.9656 63.2894 43.9656H66.3083C66.5183 43.9656 66.6899 43.8021 66.6899 43.6021V34.5231C66.6899 33.5055 67.0015 32.7418 67.645 32.1888C68.293 31.6295 69.1849 31.3476 70.2912 31.3476H73.5517C74.6581 31.3476 75.5477 31.6316 76.198 32.1888C76.8302 32.7332 77.1508 33.5184 77.1508 34.5231V43.6021C77.1508 43.8021 77.3224 43.9656 77.5324 43.9656H80.5512C80.7612 43.9656 80.9328 43.8043 80.9328 43.6042L80.9351 34.5253C80.9351 33.5077 81.2467 32.7439 81.8902 32.191C82.5405 31.6316 83.4278 31.3498 84.5365 31.3498H87.7969C88.9033 31.3498 89.7929 31.6338 90.4432 32.191C91.0754 32.7353 91.396 33.5206 91.396 34.5253V43.6042C91.396 43.8043 91.5676 43.9678 91.7776 43.9678H94.7964C95.0064 43.9678 95.178 43.8043 95.178 43.6042V34.8437C95.178 32.6686 94.5119 30.9733 93.2001 29.8072C91.8927 28.6476 90.0751 28.0625 87.7901 28.0625ZM140.61 35.4117C141.678 36.0721 142.217 37.2984 142.217 39.0647C142.217 40.7945 141.766 42.0616 140.876 42.8297C140.002 43.5805 138.643 43.9635 136.834 43.9635H124.201C123.991 43.9635 123.82 43.8021 123.82 43.6021V28.4239C123.82 28.2238 123.991 28.0603 124.201 28.0603H135.839C137.505 28.0603 138.799 28.3228 139.686 28.837C140.84 29.5362 141.422 30.7001 141.422 32.3029C141.443 32.9677 141.377 33.6324 141.226 34.2822C141.111 34.6995 140.901 35.0846 140.61 35.4117ZM135.879 34.0003C137.446 34.0003 137.661 33.3872 137.661 32.7245C137.661 32.0189 137.442 31.367 135.857 31.367H127.791C127.685 31.367 127.602 31.4488 127.602 31.5477V33.8175C127.602 33.9186 127.688 33.9982 127.791 33.9982L135.879 34.0003ZM127.602 40.4546C127.602 40.5557 127.688 40.6353 127.791 40.6353H136.502C137.893 40.6353 138.46 40.1318 138.46 38.8948C138.46 38.1181 138.216 37.3243 136.392 37.3243H127.791C127.685 37.3243 127.602 37.406 127.602 37.505V40.4546ZM148.621 28.0754H145.536C145.326 28.0754 145.155 28.2389 145.155 28.439V43.5999C145.155 43.8 145.326 43.9635 145.536 43.9635H148.618C148.828 43.9635 149 43.8 149 43.5999V28.439C149 28.2389 148.828 28.0775 148.621 28.0754ZM38.4749 28.0625H35.3816C35.1716 28.0625 35 28.2238 35 28.4239V43.6343C35 43.8344 35.1716 43.9979 35.3816 43.9979H38.4749C38.6849 43.9979 38.8565 43.8344 38.8565 43.6343V28.4239C38.8543 28.226 38.6849 28.0625 38.4749 28.0625C38.4727 28.0646 38.4727 28.0646 38.4749 28.0625Z" fill="#1476FC"/>
<path d="M104.804 30.9216H104.824L114.341 30.9259C115.459 30.9495 116.299 31.1776 116.897 31.6165C116.908 31.6251 116.926 31.6229 116.935 31.6122C116.942 31.6035 116.942 31.5928 116.938 31.5842C116.24 30.3278 115.183 29.2865 113.889 28.5787C113.205 28.2086 112.431 28.0172 111.645 28.0193H104.578V28.0236C102.419 28.0709 100.728 28.7013 99.5516 29.9061C98.4069 31.0743 97.795 32.6836 97.7295 34.6887C97.7295 34.7037 97.7408 34.7145 97.7566 34.7145C97.7656 34.7145 97.7747 34.7102 97.7792 34.7037C99.2604 32.3565 101.927 30.9216 104.804 30.9216Z" fill="url(#paint0_linear_1539_10314)"/>
<path d="M119.435 29.904C117.498 27.8774 114.278 27.9763 113.689 28.0129C113.675 28.0129 113.664 28.0258 113.664 28.0387C113.664 28.0473 113.67 28.0559 113.679 28.0602C116.107 29.2069 117.778 31.4272 118.141 33.9873C118.292 35.0415 118.213 37.1413 118.213 37.1413C118.177 39.9962 116.511 42.6037 113.867 43.9462C113.853 43.9527 113.849 43.9656 113.856 43.9785C113.86 43.9871 113.867 43.9914 113.878 43.9914C114.44 44.0215 117.52 44.086 119.435 42.0981C120.638 40.8503 121.264 39.1271 121.264 36.952V35.0523C121.264 32.8772 120.636 31.1583 119.435 29.904Z" fill="url(#paint1_linear_1539_10314)"/>
<path d="M114 43.4535C115.314 42.7328 116.366 41.6507 117.021 40.3469C117.028 40.334 117.021 40.3189 117.008 40.3125C116.999 40.3082 116.987 40.3103 116.978 40.3168C116.375 40.8009 115.511 41.0526 114.337 41.0784H104.641C103.313 41.0504 102.376 40.7363 101.773 40.121C101.103 39.4369 100.764 38.3698 100.764 36.9541V35.0545C100.764 33.0988 101.442 32.2211 101.708 31.95C101.717 31.9392 101.717 31.922 101.706 31.9134C101.697 31.9069 101.685 31.9048 101.676 31.9091C100.371 32.4556 99.2468 33.3269 98.4227 34.4348C97.926 35.1319 97.664 35.958 97.6731 36.8014C97.6731 38.1094 97.935 40.4631 99.5517 42.1025C100.848 43.417 102.792 44.0021 104.578 43.9828L111.846 43.9871C112.6 43.9892 113.343 43.8042 114 43.4535Z" fill="url(#paint2_linear_1539_10314)"/>
</g>
<defs>
<linearGradient id="paint0_linear_1539_10314" x1="98.5262" y1="31.3744" x2="117.34" y2="31.3744" gradientUnits="userSpaceOnUse">
<stop stop-color="#A5D270"/>
<stop offset="0.5" stop-color="#5DA4B6"/>
<stop offset="0.7739" stop-color="#2F87E2"/>
<stop offset="1" stop-color="#1476FC"/>
</linearGradient>
<linearGradient id="paint1_linear_1539_10314" x1="116.585" y1="28.4003" x2="121.961" y2="41.9393" gradientUnits="userSpaceOnUse">
<stop offset="0.017" stop-color="#FFD522"/>
<stop offset="0.1518" stop-color="#E0C437"/>
<stop offset="0.5612" stop-color="#7B8C7E"/>
<stop offset="0.9015" stop-color="#2379E9"/>
<stop offset="1" stop-color="#1476FC"/>
</linearGradient>
<linearGradient id="paint2_linear_1539_10314" x1="97.909" y1="36.1851" x2="109.022" y2="47.4616" gradientUnits="userSpaceOnUse">
<stop stop-color="#FC4B38"/>
<stop offset="0.065" stop-color="#FC4B38"/>
<stop offset="0.5" stop-color="#7E6985"/>
<stop offset="0.9526" stop-color="#1476FC"/>
</linearGradient>
<clipPath id="clip0_1539_10314">
<rect width="114" height="16" fill="white" transform="translate(35 28)"/>
</clipPath>
</defs>
</svg>
