<svg width="184" height="72" viewBox="0 0 184 72" fill="none" xmlns="http://www.w3.org/2000/svg">
<rect width="184" height="72" fill="#F9FDFE"/>
<g clip-path="url(#clip0_3700_2553)">
<path fill-rule="evenodd" clip-rule="evenodd" d="M106.258 38.5148C106.26 38.848 106.188 39.1774 106.047 39.4793C105.903 39.7812 105.698 40.0502 105.445 40.2692C105.224 40.4523 104.98 40.6053 104.718 40.7239C104.434 40.8565 104.137 40.9577 103.831 41.0258C103.519 41.0942 103.207 41.1319 102.895 41.131C102.306 41.1254 101.851 41.0115 101.532 40.7854C101.214 40.5619 101.052 40.2428 101.049 39.8279C101.053 39.4927 101.171 39.1939 101.4 38.9314C101.63 38.6655 101.949 38.465 102.359 38.3243C102.679 38.2228 103.006 38.1436 103.337 38.0874C103.686 38.0267 104.092 37.9782 104.563 37.9453C105.128 37.9089 105.693 37.8858 106.259 37.876L106.258 38.5148ZM106.264 34.9576C105.864 34.968 105.51 34.9788 105.205 34.9862C104.906 34.997 104.636 35.0078 104.398 35.0182C104.174 35.0258 103.95 35.0381 103.726 35.055C103.514 35.0702 103.305 35.0884 103.087 35.1113C102.076 35.2001 101.185 35.366 100.411 35.608C99.6398 35.8497 98.9672 36.1754 98.3952 36.5846C97.8538 36.964 97.4433 37.4313 97.1644 37.9934C96.8855 38.5503 96.7452 39.193 96.7443 39.9102C96.743 40.542 96.8461 41.1236 97.0561 41.6524C97.2583 42.1693 97.5731 42.6345 97.9777 43.0144C98.4281 43.4371 98.9763 43.7537 99.6221 43.9602C100.267 44.1703 101.019 44.2738 101.875 44.2751C102.488 44.2764 103.048 44.2318 103.551 44.1417C104.039 44.0555 104.514 43.9081 104.965 43.703C105.423 43.4928 105.855 43.2281 106.251 42.9148L106.248 43.9637L110.622 43.9719L110.619 43.9364C108.619 43.7939 107.041 42.1058 107.044 40.0479C107.048 38.0423 108.551 36.3936 110.48 36.1849L110.482 34.5769C110.483 33.8935 110.412 33.2959 110.266 32.7792C110.121 32.2582 109.897 31.8135 109.593 31.4332C109.285 31.056 108.896 30.7317 108.415 30.4688C108.118 30.3086 107.75 30.1669 107.314 30.0452C106.841 29.9195 106.359 29.8257 105.873 29.7646C105.333 29.698 104.79 29.6643 104.246 29.6637C103.153 29.6615 102.187 29.7659 101.345 29.9812C100.503 30.1964 99.7819 30.5221 99.1721 30.9543C98.8763 31.1634 98.6037 31.4036 98.3588 31.6706C98.1284 31.9287 97.93 32.2206 97.7559 32.5475C97.5827 32.878 97.4216 33.2647 97.2731 33.7103L101.577 34.4249C101.744 33.8697 102.03 33.4635 102.44 33.2097C102.85 32.952 103.41 32.8277 104.128 32.8325C104.868 32.8303 105.409 32.9607 105.753 33.2236C106.1 33.4821 106.271 33.8857 106.265 34.4331L106.264 34.9576ZM37.0035 29.9301L37 31.7082L39.9704 31.7134L39.9769 31.9113C39.9873 32.3184 39.9899 32.8082 39.9891 33.3786L39.9765 40.4017C39.9771 40.8335 39.9713 41.2654 39.9592 41.697C39.9469 42.0663 39.9261 42.4352 39.8968 42.8035C39.87 43.1534 39.8362 43.4986 39.7907 43.8442L44.4332 43.8528C44.3912 43.4965 44.3571 43.1393 44.331 42.7814C44.305 42.435 44.2834 42.0742 44.2726 41.6901C44.2617 41.3094 44.2591 40.8846 44.2596 40.4095L44.2682 35.8034C44.5887 35.0247 45.0001 34.4253 45.4956 34.0035C45.9897 33.5834 46.5453 33.3712 47.1572 33.3686C47.4318 33.3695 47.6713 33.4189 47.8861 33.5185C48.1005 33.6168 48.2689 33.7584 48.3967 33.9407C48.4937 34.0663 48.5678 34.2071 48.6245 34.363C48.6808 34.5154 48.7215 34.7021 48.744 34.9182C48.7657 35.1351 48.7774 35.4049 48.7765 35.7198L48.7687 40.4173C48.7686 40.8543 48.7628 41.2913 48.7514 41.7282C48.7394 42.0973 48.7185 42.4661 48.6886 42.8343C48.6617 43.1807 48.628 43.5215 48.5816 43.8598L53.27 43.8684C53.1838 43.148 53.1302 42.424 53.1094 41.6988C53.0987 41.2819 53.0944 40.865 53.0964 40.448L53.105 35.796C53.2969 35.2832 53.5299 34.8467 53.8127 34.4855C54.095 34.1217 54.4116 33.8446 54.7611 33.6514C55.0954 33.4605 55.4739 33.3605 55.8589 33.3613C56.2859 33.3582 56.6285 33.4384 56.8914 33.5986C57.1534 33.7545 57.3409 34.0091 57.4604 34.3599C57.5808 34.7099 57.6354 35.1693 57.6345 35.7354L57.6259 40.4329C57.6259 40.9422 57.6215 41.39 57.609 41.775C57.5964 42.1626 57.5743 42.5199 57.547 42.8499C57.5199 43.1926 57.4846 43.5347 57.4409 43.8758L62.1289 43.8845C62.0855 43.5356 62.0509 43.1857 62.025 42.8351C61.9975 42.4707 61.9783 42.1056 61.9674 41.7403C61.957 41.315 61.9529 40.8895 61.9548 40.4641L61.9648 34.8086C61.9683 33.0832 61.5603 31.7827 60.7466 30.9036C59.9324 30.0245 58.7163 29.5845 57.1044 29.5784C56.4544 29.5771 55.8572 29.6434 55.3159 29.7802C54.7745 29.9158 54.2635 30.131 53.7828 30.4233C53.3004 30.7143 52.83 31.0902 52.3675 31.5532C52.2849 31.3867 52.1924 31.2253 52.0904 31.0699C52.0047 30.9413 51.9068 30.8214 51.798 30.7117C51.6896 30.6015 51.5716 30.5011 51.4455 30.4116C51.0748 30.1375 50.6461 29.9309 50.1654 29.7936C49.6812 29.6555 49.1485 29.5858 48.5613 29.5849C47.6752 29.5801 46.8783 29.7304 46.1711 30.037C45.4739 30.3358 44.8416 30.7975 44.2756 31.422L44.2769 30.9846V30.9716V30.9001L44.2786 29.9422L39.815 29.9344V29.9352L37.003 29.9301H37.0035ZM83.3854 33.0919C82.7284 33.0941 82.1611 33.2487 81.6834 33.5596C81.2053 33.8701 80.8363 34.3149 80.5752 34.8917C80.3153 35.4729 80.1828 36.1602 80.1776 36.9623C80.1763 37.6162 80.2659 38.1974 80.4379 38.7067C80.6137 39.2168 80.8718 39.6391 81.2096 39.9747C81.4884 40.2548 81.8235 40.4727 82.1927 40.6139C82.5746 40.7677 82.9827 40.8461 83.3944 40.8447C83.8977 40.8426 84.3602 40.7438 84.7855 40.5472C85.2055 40.3539 85.5796 40.0734 85.8829 39.7244C86.2023 39.3576 86.4492 38.9335 86.6104 38.4745C86.7806 37.9964 86.872 37.472 86.8729 36.9055C86.8698 36.1615 86.7213 35.5032 86.4255 34.9325C86.1332 34.3625 85.7252 33.9165 85.203 33.5891C84.6807 33.2643 84.0726 33.0967 83.3854 33.0919ZM66.3159 35.0667L72.1099 35.0775C71.9527 34.3443 71.6348 33.7887 71.1589 33.4119C70.6808 33.03 70.0511 32.8394 69.2729 32.8381C68.4726 32.8368 67.8307 33.0183 67.3414 33.3855C66.8485 33.7567 66.5086 34.3153 66.3159 35.0671V35.0667ZM86.9062 43.9291L86.9075 43.1998C86.9075 43.1318 86.9075 43.0556 86.9101 42.9759C86.9144 42.8923 86.9188 42.8009 86.9305 42.6974C86.5878 42.9809 86.2254 43.2399 85.8461 43.4722C85.5013 43.6844 85.1471 43.8502 84.7941 43.9758C84.4407 44.1032 84.0679 44.1941 83.6733 44.2508C83.2758 44.3071 82.8432 44.3327 82.3741 44.3318C81.003 44.3214 79.8233 44.0226 78.8437 43.4323C77.8676 42.8416 77.1145 41.9958 76.5948 40.8967C76.2241 40.1172 75.9837 39.2298 75.8737 38.2316L66.2422 38.2143C66.3583 39.141 66.6718 39.8417 67.1898 40.3216C67.7078 40.8006 68.4093 41.0418 69.3036 41.0465C69.7583 41.0478 70.1763 40.9773 70.5626 40.8322C70.9402 40.6936 71.2865 40.4815 71.5816 40.2081C71.695 40.105 71.7894 39.9985 71.8687 39.8963C71.9467 39.795 72.019 39.6724 72.0792 39.5399C72.1398 39.4074 72.2 39.2389 72.2602 39.0462L76.1799 40.17C76.0361 40.5089 75.8764 40.8409 75.7014 41.1648C75.5541 41.4341 75.4 41.6771 75.2419 41.8867C75.0716 42.1085 74.8867 42.3187 74.6884 42.516C74.0457 43.1539 73.274 43.635 72.3828 43.9598C71.488 44.2859 70.4846 44.4466 69.3651 44.4449C68.2608 44.4427 67.2734 44.2816 66.4064 43.9568C65.5513 43.6456 64.7768 43.1469 64.1397 42.4973C63.4728 41.8083 62.9661 40.9902 62.6183 40.047C62.2706 39.1042 62.0986 38.0623 62.0978 36.9298C62.1025 35.7969 62.2783 34.7713 62.6187 33.8519C62.9583 32.9369 63.4442 32.1474 64.0756 31.4869C64.7087 30.8304 65.4644 30.3263 66.3406 29.9712C67.2197 29.6191 68.2015 29.4424 69.2785 29.4398C70.4547 29.4467 71.5032 29.6572 72.4191 30.0734C73.3228 30.4821 74.1115 31.1077 74.7153 31.8945C75.3237 32.6775 75.759 33.6337 76.024 34.7562C76.0989 34.405 76.1942 34.0689 76.3068 33.7476C76.6381 32.813 77.1214 32.0239 77.7533 31.3713C78.3291 30.7931 79.0199 30.3422 79.7809 30.0478C80.5561 29.7495 81.4049 29.5992 82.3317 29.6009C82.938 29.6022 83.4962 29.6555 84.0111 29.7711C84.5265 29.8854 85.0211 30.0695 85.4979 30.3168C85.9751 30.5688 86.4589 30.8928 86.9504 31.2964C86.9396 31.1297 86.9361 30.9846 86.9322 30.856C86.9296 30.7269 86.93 30.5862 86.9305 30.4302L86.9335 28.5377C86.9344 28.0094 86.9309 27.5378 86.9201 27.1238C86.9114 26.7407 86.8933 26.3579 86.8659 25.9757C86.8402 25.635 86.8045 25.2952 86.759 24.9567L89.3622 24.9614L91.3803 24.9649L96.6382 24.9744L96.6352 26.7643L91.2274 26.7543C91.2032 27.3509 91.1916 27.948 91.1928 28.5451L91.1711 40.3575C91.1711 40.8625 91.1746 41.3146 91.1884 41.7143C91.1993 42.1171 91.2174 42.4965 91.2426 42.8507C91.2685 43.208 91.301 43.5688 91.3465 43.9373L86.9062 43.9291ZM91.9104 43.9382L96.6048 43.9468L96.6317 28.7794L91.9372 28.7707L91.9104 43.9382ZM130.637 35.466L130.032 35.4647C130.076 35.1949 130.118 34.9606 130.161 34.7662C130.204 34.5829 130.259 34.4028 130.325 34.227C130.39 34.0607 130.468 33.8926 130.568 33.716C130.893 33.1071 131.316 32.6441 131.836 32.3236C132.354 32.0045 132.945 31.8429 133.599 31.8403C134.11 31.8412 134.575 31.9226 134.991 32.085C135.412 32.2495 135.794 32.499 136.113 32.8178C136.333 33.0314 136.524 33.2728 136.681 33.5358C136.832 33.7956 136.952 34.0802 137.041 34.4002C137.134 34.7176 137.196 35.0788 137.238 35.4786L130.637 35.4669V35.466ZM141.78 27.5551C141.833 27.9119 141.872 28.2935 141.893 28.6967C141.917 29.1003 141.927 29.5217 141.926 29.9534L141.924 30.7754L141.071 30.7737C140.777 30.7732 140.524 30.7685 140.307 30.7607C140.11 30.7556 139.914 30.7437 139.718 30.7247C139.529 30.7025 139.341 30.6745 139.153 30.6407L139.15 32.2834C139.366 32.2558 139.582 32.2319 139.799 32.2119C139.999 32.1954 140.203 32.1816 140.406 32.1699C140.61 32.1595 140.831 32.1565 141.069 32.1569L141.922 32.1586L141.908 39.8963C141.907 40.4004 141.953 40.8183 142.045 41.1522C142.141 41.4848 142.292 41.7585 142.501 41.9712C142.718 42.1881 143.001 42.354 143.354 42.4705C143.705 42.5861 144.117 42.6446 144.59 42.6454C144.878 42.6459 145.151 42.632 145.408 42.6008C145.667 42.5675 145.923 42.5142 146.183 42.4432C146.438 42.3709 146.713 42.2743 147 42.153L146.534 40.6382C146.302 40.7819 146.093 40.8937 145.908 40.9768C145.576 41.1283 145.214 41.2037 144.849 41.1977C144.624 41.1968 144.422 41.1639 144.245 41.1024C144.079 41.0446 143.928 40.951 143.803 40.8283C143.708 40.7343 143.638 40.5979 143.595 40.4169C143.549 40.2371 143.529 39.9925 143.529 39.6824L143.542 32.1612L144.566 32.163C144.882 32.1638 145.163 32.1677 145.405 32.176C145.646 32.1799 145.874 32.1941 146.086 32.2132C146.3 32.2314 146.516 32.2604 146.741 32.2972L146.744 30.6546C146.499 30.6892 146.274 30.7152 146.064 30.736C145.858 30.7533 145.638 30.7641 145.403 30.7706C145.169 30.7771 144.892 30.7806 144.568 30.7802L143.545 30.778L143.546 29.9565C143.547 29.4918 143.558 29.0643 143.584 28.6672C143.606 28.2714 143.646 27.9041 143.7 27.5586L141.78 27.5551H141.78ZM118.604 42.3826C118.537 41.8599 118.493 41.3345 118.471 40.8079C118.462 40.5186 118.458 40.2291 118.459 39.9396L118.466 35.7683C118.523 35.4838 118.592 35.2248 118.674 34.9944C118.756 34.7601 118.864 34.5371 118.987 34.3179C119.113 34.1014 119.266 33.8723 119.451 33.6311C119.896 33.0482 120.369 32.6203 120.867 32.3401C121.367 32.0618 121.931 31.92 122.503 31.9287C123.349 31.9334 123.991 32.1868 124.435 32.6922C124.878 33.2006 125.097 33.9399 125.099 34.916L125.09 39.9517C125.089 40.2653 125.086 40.5528 125.074 40.8196C125.064 41.0794 125.047 41.339 125.023 41.5978C125.002 41.8499 124.973 42.1162 124.936 42.3943L126.855 42.3977C126.821 42.1656 126.793 41.9327 126.771 41.6992C126.748 41.4448 126.733 41.19 126.723 40.9348C126.713 40.6154 126.709 40.2959 126.71 39.9764L126.716 36.8211L128.349 36.8241C128.369 37.6669 128.492 38.4334 128.724 39.1194C128.975 39.8729 129.337 40.5139 129.812 41.0483C130.285 41.582 130.872 42.0028 131.529 42.2795C132.198 42.5627 132.954 42.7074 133.792 42.7126C134.571 42.7134 135.286 42.5852 135.933 42.3306C136.578 42.0781 137.164 41.6956 137.654 41.2068C137.815 41.0444 137.961 40.8824 138.089 40.7239C138.214 40.5628 138.335 40.3792 138.452 40.1713C138.57 39.9652 138.698 39.7136 138.831 39.4147L137.339 38.8067C137.039 39.6382 136.59 40.2683 135.999 40.6919C135.409 41.115 134.681 41.3311 133.816 41.3293C133.173 41.3285 132.598 41.2007 132.09 40.9482C131.58 40.6964 131.141 40.32 130.814 39.8539C130.626 39.6054 130.471 39.334 130.352 39.0462C130.227 38.7352 130.137 38.4113 130.084 38.0804C130.024 37.724 129.986 37.3052 129.965 36.8271L130.635 36.8284L138.942 36.8432C138.928 36.6413 138.912 36.4291 138.889 36.2057C138.869 35.9783 138.851 35.7726 138.834 35.586C138.82 35.4504 138.807 35.3147 138.796 35.1789C138.651 34.2092 138.347 33.373 137.883 32.6731C137.44 31.9913 136.829 31.4347 136.11 31.0565C135.389 30.6771 134.564 30.4848 133.644 30.4796C132.842 30.4818 132.115 30.6243 131.467 30.9118C130.817 31.1976 130.262 31.6078 129.8 32.1439C129.333 32.6796 128.976 33.3236 128.726 34.0724C128.582 34.5054 128.479 34.9688 128.416 35.4621L126.718 35.4591L126.72 34.638C126.721 34.1079 126.672 33.6402 126.577 33.2331C126.477 32.8225 126.329 32.4613 126.127 32.1513C125.79 31.6254 125.31 31.2061 124.743 30.9421C124.165 30.6676 123.49 30.526 122.719 30.5247C121.763 30.5195 120.931 30.7334 120.22 31.1613C119.511 31.5922 118.907 32.2465 118.407 33.1313C118.429 32.9698 118.444 32.8325 118.453 32.7286C118.462 32.6203 118.468 32.5267 118.468 32.4471C118.472 32.3682 118.472 32.2855 118.472 32.2028L118.475 30.733L116.705 30.7295C116.744 30.9957 116.778 31.2625 116.808 31.5298C116.832 31.7819 116.848 32.0374 116.86 32.3007C116.87 32.5601 116.873 32.8515 116.873 33.172L116.86 39.9366C116.86 40.2787 116.856 40.5819 116.845 40.8482C116.832 41.1141 116.815 41.3705 116.79 41.6113C116.76 41.8678 116.725 42.1238 116.685 42.3791L118.604 42.3826ZM109.323 47.0303L116.682 47.0433L116.685 45.324L109.326 45.311L109.323 47.0303Z" fill="#111111"/>
<path fill-rule="evenodd" clip-rule="evenodd" d="M112.349 43.1456C114.018 43.1487 115.383 41.7901 115.386 40.1206C115.388 38.4512 114.029 37.0857 112.36 37.0826C110.689 37.0796 109.326 38.4403 109.323 40.1098C109.32 41.7793 110.678 43.1426 112.349 43.1456Z" fill="#EA4555"/>
</g>
<defs>
<clipPath id="clip0_3700_2553">
<rect width="110" height="30" fill="white" transform="translate(37 21)"/>
</clipPath>
</defs>
</svg>
