<svg width="184" height="72" viewBox="0 0 184 72" fill="none" xmlns="http://www.w3.org/2000/svg">
<rect width="184" height="72" fill="#F9FDFE"/>
<g clip-path="url(#clip0_3700_2550)">
<path d="M36.3022 32.6875C34.5661 32.6875 33.1632 34.1569 33.1632 35.9662C33.1632 37.82 34.5661 39.3126 36.3022 39.3126C38.0385 39.3126 39.4418 37.8655 39.4418 35.9662C39.4418 34.0893 38.0385 32.6875 36.3022 32.6875ZM36.7303 42.0709C35.3035 42.0709 34.0908 41.6185 33.1632 40.7139V46.9999H30V35.9662C30 32.6196 32.5925 29.8834 36.3022 29.8834C39.9888 29.8834 42.5807 32.6196 42.5807 35.9662C42.5807 39.335 39.965 42.0709 36.7303 42.0709Z" fill="black"/>
<path d="M47.0282 38.9849L47.0284 41.823H43.889L43.8887 38.9849H47.0282ZM47.0284 35.0849L47.0282 37.7414H43.8887L43.889 35.0849C43.889 34.9744 43.8917 34.8651 43.8971 34.757L47.0467 34.7569C47.0346 34.8632 47.0284 34.9726 47.0284 35.0849Z" fill="black"/>
<path d="M50.354 29.9519V32.7554C49.1177 32.5456 48.1365 32.8553 47.5682 33.5131L44.0852 33.5132C44.7394 31.0868 46.9706 29.5569 50.354 29.9519Z" fill="#1290CC"/>
<path d="M59.7715 36.0338C59.7715 34.0217 58.4164 32.6196 56.7513 32.6196C55.0867 32.6196 53.731 34.0217 53.731 36.0338C53.731 38.001 55.0867 39.3576 56.7513 39.3576C58.4164 39.3576 59.7715 38.001 59.7715 36.0338ZM62.9345 36.0112C62.9345 39.4932 60.1524 42.0934 56.7513 42.0934C53.3506 42.0934 50.5918 39.4932 50.5918 36.0112C50.5918 32.529 53.3506 29.8834 56.7513 29.8834C60.1524 29.8834 62.9345 32.529 62.9345 36.0112Z" fill="black"/>
<path d="M83.0082 41.8222H79.8692V35.0165C79.8692 34.3607 79.6314 32.8006 77.5624 32.8006C76.1829 32.8006 75.1839 33.7048 75.1839 35.0165V41.8222H72.0446V35.0165C72.0446 34.3607 71.8306 32.8006 69.7616 32.8006C68.3584 32.8006 67.3836 33.7048 67.3836 35.0165V41.8222H64.2441V35.0841C64.2441 32.1222 66.4084 29.8834 69.7616 29.8834C71.4267 29.8834 72.7821 30.5169 73.6616 31.5343C74.5895 30.5169 75.9687 29.8834 77.5624 29.8834C80.9868 29.8834 83.0082 32.0316 83.0082 35.0841V41.8222Z" fill="black"/>
<path d="M93.4949 36.0338C93.4949 34.0217 92.1392 32.6196 90.4744 32.6196C88.8101 32.6196 87.4539 34.0217 87.4539 36.0338C87.4539 38.001 88.8101 39.3576 90.4744 39.3576C92.1392 39.3576 93.4949 38.001 93.4949 36.0338ZM96.6574 36.0112C96.6574 39.4932 93.8752 42.0934 90.4744 42.0934C87.0735 42.0934 84.3152 39.4932 84.3152 36.0112C84.3152 32.529 87.0735 29.8834 90.4744 29.8834C93.8752 29.8834 96.6574 32.529 96.6574 36.0112Z" fill="black"/>
<path d="M103.269 41.8002C99.6773 42.1618 97.7751 40.1044 97.7751 36.9164V27.2161H100.914V30.1786H103.126V32.8239H100.914V36.939C100.914 38.5667 101.699 39.1772 103.269 39.0869V41.8002Z" fill="black"/>
<path d="M113.375 34.7225C112.994 33.3659 111.805 32.5064 110.307 32.5064C108.88 32.5064 107.738 33.3659 107.287 34.7225H113.375ZM107.239 37.1644C107.643 38.5889 108.832 39.4705 110.307 39.4705C111.353 39.4705 112.376 39.0408 112.899 38.1142H116.252C115.539 40.4879 113.375 42.0934 110.331 42.0934C106.882 42.0934 104.052 39.3802 104.052 36.0112C104.052 32.6422 106.882 29.8834 110.331 29.8834C113.945 29.8834 116.942 32.5519 116.49 37.1644H107.239Z" fill="black"/>
<path d="M123.527 32.6878C121.791 32.6878 120.387 34.1123 120.387 36.0343C120.387 37.8885 121.791 39.313 123.527 39.313C125.262 39.313 126.666 37.8432 126.666 36.0343C126.666 34.18 125.262 32.6878 123.527 32.6878ZM129.805 36.0116C129.805 39.3806 127.213 42.0938 123.527 42.0938C119.816 42.0938 117.225 39.3806 117.225 36.0116C117.225 32.6652 119.864 29.9293 123.075 29.9293C124.526 29.9293 125.714 30.3588 126.666 31.2859V25H129.805V36.0116Z" fill="black"/>
<path d="M142.82 31.6474C140.537 31.6474 138.682 33.5693 138.682 36.0112C138.682 38.4532 140.537 40.33 142.82 40.33C145.079 40.33 146.958 38.4081 146.958 36.0112C146.958 33.5919 145.056 31.6474 142.82 31.6474ZM148.956 41.8222H147.006V40.0131C146.054 41.2795 144.509 42.1161 142.772 42.1161C139.395 42.1161 136.66 39.4932 136.66 36.0112C136.66 32.5064 139.419 29.8834 142.82 29.8834C146.292 29.8834 148.956 32.5745 148.956 36.0112V41.8222Z" fill="black"/>
<path d="M151.307 41.8255H153.334V30.181H151.307V41.8255Z" fill="black"/>
<path d="M133.367 42.1169C132.378 42.1169 131.577 41.3547 131.577 40.4146C131.577 39.4746 132.378 38.7123 133.367 38.7123C134.356 38.7123 135.157 39.4746 135.157 40.4146C135.157 41.3547 134.356 42.1169 133.367 42.1169Z" fill="#1290CC"/>
<path d="M153.739 27.1528C153.739 27.8981 153.104 28.5022 152.32 28.5022C151.536 28.5022 150.901 27.8981 150.901 27.1528C150.901 26.4077 151.536 25.8036 152.32 25.8036C153.104 25.8036 153.739 26.4077 153.739 27.1528Z" fill="black"/>
</g>
<defs>
<clipPath id="clip0_3700_2550">
<rect width="124" height="22" fill="white" transform="translate(30 25)"/>
</clipPath>
</defs>
</svg>
