<svg width="184" height="72" viewBox="0 0 184 72" fill="none" xmlns="http://www.w3.org/2000/svg">
<rect width="184" height="72" fill="#F9FDFE"/>
<g clip-path="url(#clip0_1539_10323)">
<path d="M34.4985 36C39.3072 36 43.2054 32.1458 43.2054 27.3913C43.2054 27.1752 43.0282 27 42.8096 27L33.7069 27C28.8982 27 25 30.8542 25 35.6087C25 35.8248 25.1772 36 25.3958 36H34.4985Z" fill="#FDDB60"/>
<path d="M34.1027 36.3913C34.1027 41.1458 30.2045 45 25.3958 45C25.1772 45 25 44.8248 25 44.6087L25 35.6087C25 30.8542 28.8982 27 33.7069 27C33.9255 27 34.1027 27.1752 34.1027 27.3913V36.3913Z" fill="#5B25B3"/>
<path fill-rule="evenodd" clip-rule="evenodd" d="M34.1027 27V36H25L25 35.5814C25 30.844 28.8826 27.0032 33.6733 27L34.1027 27Z" fill="#17B086"/>
<path fill-rule="evenodd" clip-rule="evenodd" d="M63.3361 42.7632C61.9347 42.7632 60.6226 42.0834 59.825 40.9441L58.459 38.9929H55.5444V42.7632H52.3787V29.2347H58.2971C59.381 29.2092 60.4578 29.4139 61.4547 29.835C62.2958 30.1892 63.0136 30.7792 63.5193 31.5321C64.0144 32.3128 64.2651 33.2207 64.2399 34.1418C64.2779 35.0544 64.028 35.9562 63.5246 36.7221C63.0212 37.488 62.2894 38.0801 61.4305 38.4165L64.499 42.7632H63.3361ZM60.2888 32.3967C59.6595 31.9497 58.892 31.7345 58.119 31.7883H55.5444V36.5033H58.1271C58.9027 36.5595 59.6729 36.3379 60.2969 35.8789C60.5463 35.6646 60.7424 35.3965 60.8702 35.0952C60.9979 34.7941 61.0539 34.4678 61.0337 34.1418C61.0551 33.8144 60.9998 33.4866 60.872 33.1839C60.7442 32.8812 60.5474 32.6118 60.2969 32.3967H60.2888ZM76.7721 38.2738H68.8133C68.9425 38.8918 69.308 39.4366 69.8334 39.7948C70.4207 40.1852 71.1181 40.3814 71.8252 40.3551C72.3218 40.3641 72.8157 40.2827 73.2825 40.1149C73.7237 39.9415 74.1255 39.683 74.4646 39.3545L76.0839 41.0915C75.5313 41.6717 74.8555 42.1233 74.105 42.4141C73.3546 42.7047 72.5483 42.8272 71.7442 42.7727C70.6563 42.7968 69.5786 42.5606 68.6028 42.0842C67.7292 41.665 66.9957 41.0065 66.4897 40.187C66.0071 39.3447 65.7535 38.3932 65.7535 37.4253C65.7535 36.4572 66.0071 35.5058 66.4897 34.6635C66.9585 33.8616 67.6384 33.2005 68.4571 32.7503C69.3396 32.2894 70.3253 32.0554 71.3232 32.0699C72.2951 32.055 73.2553 32.2806 74.1164 32.7263C74.9411 33.1539 75.624 33.8069 76.0839 34.6074C76.5733 35.4779 76.8192 36.4616 76.7964 37.4573C76.8288 37.4973 76.8126 37.7694 76.7721 38.2738ZM69.6392 34.9277C69.1549 35.3329 68.8451 35.9055 68.7729 36.5287H73.9546C73.8813 35.9076 73.575 35.3363 73.0963 34.9277C72.6125 34.5321 71.9994 34.3244 71.3718 34.3433C70.7418 34.3246 70.1263 34.5322 69.6392 34.9277ZM81.153 38.2738H89.1036C89.1441 37.7694 89.1603 37.4973 89.1603 37.4813C89.1831 36.4856 88.9372 35.5019 88.4478 34.6314C87.9901 33.832 87.3101 33.1792 86.4885 32.7503C85.6105 32.3094 84.6395 32.0796 83.6547 32.0796C82.6699 32.0796 81.699 32.3094 80.821 32.7503C79.9835 33.1921 79.2858 33.8542 78.805 34.6635C78.3143 35.5021 78.0625 36.4565 78.0763 37.4252C78.0604 38.3953 78.3153 39.3509 78.8131 40.187C79.3191 41.0065 80.0526 41.665 80.9262 42.0842C81.9049 42.5606 82.9852 42.7968 84.0758 42.7726C84.8797 42.826 85.6857 42.703 86.4359 42.4125C87.1862 42.1218 87.8621 41.6708 88.4154 41.0915L86.7961 39.3545C86.4571 39.6829 86.0552 39.9415 85.6141 40.1149C85.1473 40.2827 84.6533 40.3641 84.1567 40.3551C83.4496 40.3814 82.7522 40.1852 82.165 39.7947C81.6389 39.4388 81.2753 38.8924 81.153 38.2738ZM81.1125 36.5287C81.1818 35.9064 81.4888 35.3338 81.9707 34.9277C82.4575 34.5372 83.0685 34.3301 83.6952 34.3433C84.3204 34.3241 84.931 34.5319 85.4117 34.9277C85.8936 35.3338 86.2005 35.9064 86.2699 36.5287H81.1125ZM91.201 29.2694V42.7764H94.2452V32.2873C94.2463 31.8914 94.1683 31.4991 94.0158 31.133C93.8633 30.7669 93.6392 30.4342 93.3564 30.1538C93.0737 29.8735 92.7376 29.6511 92.3678 29.4993C91.9979 29.3475 91.6014 29.2694 91.201 29.2694ZM99.3619 38.2738H107.321C107.361 37.7694 107.377 37.4973 107.377 37.4813C107.4 36.4856 107.154 35.5019 106.665 34.6314C106.207 33.832 105.527 33.1792 104.706 32.7503C103.827 32.3094 102.856 32.0796 101.872 32.0796C100.887 32.0796 99.9159 32.3094 99.038 32.7503C98.2005 33.1921 97.5026 33.8542 97.022 34.6635C96.5288 35.5014 96.2741 36.4558 96.2854 37.4252C96.272 38.396 96.5295 39.3517 97.0298 40.187C97.5357 41.0065 98.2696 41.665 99.1432 42.0842C100.122 42.5606 101.202 42.7968 102.292 42.7726C103.097 42.826 103.903 42.703 104.653 42.4125C105.403 42.1218 106.079 41.6708 106.632 41.0915L105.013 39.3545C104.674 39.6829 104.272 39.9415 103.831 40.1149C103.364 40.2827 102.87 40.3641 102.374 40.3551C101.667 40.3814 100.969 40.1852 100.382 39.7947C99.8566 39.4366 99.4911 38.8918 99.3619 38.2738ZM99.3295 36.5287C99.393 35.9047 99.7013 35.33 100.188 34.9277C100.678 34.5323 101.296 34.3248 101.928 34.3433C102.554 34.3256 103.163 34.5333 103.644 34.9277C104.126 35.3338 104.433 35.9064 104.503 36.5287H99.3295ZM119.659 32.3327L115.214 42.7393H112.073L107.652 32.3327H110.802L113.716 39.4092L116.72 32.3327H119.659ZM129.592 34.8087C129.366 34.2088 129.01 33.6648 128.549 33.2145C127.486 32.3926 126.156 31.9853 124.809 32.0698C123.974 32.0659 123.143 32.1764 122.34 32.398C121.601 32.5865 120.903 32.9007 120.275 33.3266L121.368 35.488C121.778 35.1702 122.245 34.9312 122.744 34.7835C123.267 34.6122 123.813 34.5231 124.363 34.5194C125.012 34.4718 125.657 34.6595 126.177 35.0477C126.384 35.2421 126.546 35.479 126.651 35.7417C126.756 36.0044 126.801 36.2867 126.784 36.5687H124.356C123.159 36.4711 121.963 36.7515 120.939 37.3692C120.581 37.6321 120.294 37.9773 120.102 38.3749C119.91 38.7725 119.819 39.2104 119.837 39.6506C119.834 40.2181 119.997 40.7744 120.307 41.2516C120.643 41.7437 121.115 42.13 121.667 42.3643C122.328 42.6499 123.044 42.7892 123.764 42.7726C125.384 42.7726 126.428 42.2922 127.003 41.3237V42.6205H129.861V36.6887C129.91 36.0502 129.819 35.4087 129.592 34.8087ZM126.808 39.3624C126.659 39.8043 126.355 40.1788 125.95 40.4191L125.942 40.387C125.523 40.6306 125.044 40.7552 124.558 40.7473C124.112 40.7736 123.671 40.6525 123.303 40.4031C123.155 40.3008 123.036 40.1638 122.956 40.0045C122.874 39.8452 122.836 39.6686 122.841 39.4905C122.841 38.674 123.465 38.2737 124.72 38.2737H126.808V39.3624ZM142.134 33.3393C142.562 33.7999 142.889 34.3422 143.097 34.9329C143.305 35.5235 143.387 36.1499 143.341 36.7734V42.7292H140.288V37.2377C140.342 36.5789 140.149 35.9235 139.745 35.3966C139.539 35.1821 139.286 35.0161 139.006 34.9108C138.726 34.8056 138.425 34.7636 138.127 34.7882C137.787 34.7721 137.449 34.8264 137.132 34.9478C136.816 35.0691 136.528 35.2547 136.288 35.4926C135.794 36.0772 135.55 36.8299 135.608 37.5899V42.7292H132.556V32.3226H135.471V33.5474C135.888 33.0997 136.403 32.752 136.976 32.5307C137.607 32.2914 138.277 32.1719 138.952 32.1785C139.534 32.1476 140.117 32.2346 140.664 32.4342C141.212 32.6338 141.712 32.9418 142.134 33.3393ZM152.905 42.1158C152.572 42.3481 152.198 42.5165 151.803 42.6121C151.35 42.7194 150.885 42.7731 150.419 42.7722C149.365 42.8433 148.325 42.5043 147.52 41.8276C147.16 41.4615 146.881 41.0238 146.704 40.5437C146.527 40.0635 146.455 39.5516 146.492 39.0418V35.8442H144.873V33.5227H146.492V29.2566C148.178 29.2566 149.545 30.6079 149.545 32.2746V33.5227H152.16V35.8442H149.545V39.0018C149.521 39.3714 149.643 39.7358 149.885 40.0185C150.012 40.1431 150.163 40.2397 150.331 40.3018C150.499 40.3639 150.678 40.3901 150.856 40.3787C151.298 40.3905 151.731 40.2551 152.087 39.9945L152.905 42.1158Z" fill="#262626"/>
<path d="M156.904 42.8023C158.044 42.8023 158.968 41.8882 158.968 40.7605C158.968 39.6328 158.044 38.7186 156.904 38.7186C155.763 38.7186 154.838 39.6328 154.838 40.7605C154.838 41.8882 155.763 42.8023 156.904 42.8023Z" fill="#17B086"/>
</g>
<defs>
<clipPath id="clip0_1539_10323">
<rect width="134" height="18" fill="white" transform="translate(25 27)"/>
</clipPath>
</defs>
</svg>
