<svg width="184" height="72" viewBox="0 0 184 72" fill="none" xmlns="http://www.w3.org/2000/svg">
<rect width="184" height="72" fill="#F9FDFE"/>
<g clip-path="url(#clip0_1539_10347)">
<mask id="mask0_1539_10347" style="mask-type:luminance" maskUnits="userSpaceOnUse" x="37" y="10" width="110" height="54">
<path d="M37.5662 63.0718H146.434V10.7323H37.5662V63.0718Z" fill="white"/>
</mask>
<g mask="url(#mask0_1539_10347)">
<path d="M61.8898 31.222C61.8898 28.6683 59.8806 26.6117 57.4237 26.6117H55.209V35.7915H57.4237C59.8806 35.7915 61.8898 33.7336 61.8898 31.222ZM71.9646 49.5225H63.8345L57.3798 40.3631H55.209V49.5027H48.0439V22.0449H58.3083C64.2256 22.0449 69.0555 26.1594 69.0555 31.222C69.0555 34.3096 67.2039 37.0673 64.3859 38.7546L71.9646 49.5225Z" fill="#6C3C97"/>
<path d="M80.0451 32.8698C78.153 32.8698 76.5434 35.4997 76.5434 38.7553C76.5434 42.0109 78.153 44.6442 80.0451 44.6442C81.9812 44.6442 83.5881 42.0109 83.5881 38.7553C83.5881 35.4997 81.9812 32.8698 80.0451 32.8698ZM91.0737 38.7553C91.0737 44.9747 86.1274 49.955 80.0451 49.955C73.9649 49.955 69.0552 44.9747 69.0552 38.7553C69.0552 32.5407 73.9649 27.5577 80.0451 27.5577C86.1274 27.5577 91.0737 32.5407 91.0737 38.7553Z" fill="#6C3C97"/>
<path d="M107.888 28.0132L99.6339 36.4517V27.9853H92.4702V49.5026H99.6339V40.7743L108.251 49.5026H117.267L106.317 38.3043L115.387 29.0333V41.8026C115.387 46.0423 117.881 49.9548 124.16 49.9548C127.141 49.9548 129.876 48.2261 131.206 46.6619L134.427 49.5026H135.956V28.0132H128.792V39.2088V41.9264C127.985 43.3662 126.861 44.2713 125.124 44.2713C123.362 44.2713 122.553 43.2029 122.553 39.7855V38.8837V28.0132H107.888Z" fill="#6C3C97"/>
</g>
</g>
<defs>
<clipPath id="clip0_1539_10347">
<rect width="88" height="28" fill="white" transform="translate(48 22)"/>
</clipPath>
</defs>
</svg>
