<svg width="184" height="72" viewBox="0 0 184 72" fill="none" xmlns="http://www.w3.org/2000/svg">
<rect width="184" height="72" fill="#F9FDFE"/>
<g clip-path="url(#clip0_1539_10329)">
<path d="M68.9717 44.2551C68.9717 50.5805 77.1607 55.7067 87.2573 55.7067C97.3539 55.7067 105.543 50.5805 105.543 44.2551C105.543 37.9298 97.3539 32.8036 87.2573 32.8036C77.1607 32.8036 68.9717 37.9298 68.9717 44.2551Z" fill="white"/>
<path d="M87.6894 54.7774C78.7478 55.6692 71.0281 51.5997 70.4469 45.7016C69.8657 39.796 76.6465 34.295 85.5807 33.4032C94.5223 32.5113 102.242 36.5808 102.816 42.479C103.404 48.3846 96.6236 53.8931 87.6894 54.7774ZM105.565 35.1794C104.805 34.947 104.284 34.7972 104.678 33.7929C105.543 31.612 105.632 29.7309 104.693 28.3819C102.942 25.8638 98.1436 25.9987 92.6445 28.3144C92.6445 28.3144 90.9158 29.0714 91.3629 27.6999C92.2049 24.9644 92.0782 22.6786 90.7668 21.3521C87.7863 18.3468 79.8506 21.4645 73.0475 28.3069C67.9582 33.4257 65 38.8592 65 43.5582C65 52.5366 76.4527 58 87.6521 58C102.339 58 112.107 49.4189 112.107 42.6064C112.115 38.4844 108.665 36.1462 105.565 35.1794Z" fill="#E6162D"/>
<path d="M115.319 18.744C111.772 14.787 106.541 13.2806 101.713 14.3148C100.595 14.5546 99.8873 15.6638 100.126 16.7805C100.364 17.9047 101.46 18.6166 102.577 18.3768C106.012 17.6424 109.731 18.7141 112.249 21.5245C114.768 24.3349 115.453 28.1646 114.373 31.5221C114.023 32.6163 114.619 33.7854 115.707 34.1377C116.794 34.4899 117.957 33.8904 118.307 32.8037V32.7962C119.827 28.0821 118.866 22.6936 115.319 18.744Z" fill="#FF9933"/>
<path d="M109.872 23.6904C108.143 21.7643 105.595 21.0298 103.248 21.5395C102.287 21.7418 101.675 22.7011 101.877 23.6679C102.085 24.6347 103.032 25.2492 103.985 25.0394C105.133 24.7921 106.385 25.1518 107.227 26.0886C108.069 27.0329 108.3 28.3145 107.935 29.4386C107.637 30.3754 108.143 31.3872 109.082 31.6945C110.021 31.9943 111.02 31.4846 111.325 30.5403C112.063 28.2395 111.601 25.6165 109.872 23.6904Z" fill="#FF9933"/>
<path d="M88.1812 44.0903C87.8683 44.6299 87.1753 44.8847 86.6388 44.6599C86.1023 44.4426 85.9384 43.8355 86.2439 43.3109C86.5568 42.7863 87.22 42.5315 87.7491 42.7413C88.2856 42.9362 88.4793 43.5432 88.1812 44.0903ZM85.3274 47.7626C84.463 49.1491 82.6076 49.7561 81.2142 49.1191C79.8432 48.4896 79.4333 46.8783 80.2977 45.5218C81.1546 44.1728 82.9429 43.5732 84.3289 44.1578C85.7297 44.7648 86.1768 46.3611 85.3274 47.7626ZM88.5762 37.9449C84.3214 36.8282 79.5153 38.9641 77.6674 42.7338C75.7822 46.5785 77.6078 50.8503 81.8997 52.2443C86.3557 53.6907 91.6014 51.4724 93.427 47.3279C95.2302 43.2659 92.9799 39.0915 88.5762 37.9449Z" fill="black"/>
</g>
<defs>
<clipPath id="clip0_1539_10329">
<rect width="54" height="44" fill="white" transform="translate(65 14)"/>
</clipPath>
</defs>
</svg>
