<svg width="84" height="39" viewBox="0 0 84 39" fill="none" xmlns="http://www.w3.org/2000/svg">
<g id="Typemark">
<path id="Vector" d="M6.99 9.44837C8.02167 8.89503 9.2 8.6167 10.525 8.6167C12.0667 8.6167 13.4633 8.9967 14.7117 9.7567C15.96 10.5167 16.9483 11.5984 17.6767 12.9984C18.405 14.4 18.7683 16.0234 18.7683 17.87C18.7683 19.7167 18.405 21.3517 17.6767 22.7734C16.9483 24.1967 15.96 25.2984 14.7117 26.08C13.4617 26.8617 12.0667 27.2534 10.525 27.2534C9.2 27.2534 8.03167 26.9817 7.02167 26.4384C6.01167 25.895 5.19167 25.2117 4.56167 24.385V38.9967H0V8.9117H4.56167V11.5184C5.14833 10.6934 5.95667 10.0034 6.98833 9.45003L6.99 9.44837ZM13.4417 15.0534C12.9967 14.26 12.41 13.6584 11.6817 13.245C10.9533 12.8334 10.1667 12.6267 9.32 12.6267C8.47334 12.6267 7.71833 12.8384 6.99 13.2617C6.26167 13.685 5.675 14.3 5.23 15.1034C4.785 15.9067 4.56167 16.8517 4.56167 17.9384C4.56167 19.025 4.78333 19.97 5.23 20.7734C5.675 21.5767 6.26167 22.19 6.99 22.615C7.71833 23.0384 8.49333 23.25 9.32 23.25C10.1467 23.25 10.955 23.0334 11.6817 22.5984C12.41 22.1634 12.995 21.545 13.4417 20.7417C13.8867 19.9384 14.11 18.9817 14.11 17.875C14.11 16.7684 13.8867 15.85 13.4417 15.0567V15.0534Z" fill="#C7154A"/>
<path id="Vector_2" d="M26.9465 8.91167V26.9633H22.3849V8.91167H26.9465ZM27.4982 2.83333C27.4982 4.39833 26.2299 5.66667 24.6649 5.66667C23.0999 5.66667 21.8315 4.39833 21.8315 2.83333C21.8315 1.26833 23.0999 0 24.6649 0C26.2299 0 27.4982 1.26833 27.4982 2.83333Z" fill="#C7154A"/>
<path id="Vector_3" d="M46.9535 10.6868C48.2785 12.0451 48.9418 13.9401 48.9418 16.3718V26.9618H44.3801V16.9918C44.3801 15.5584 44.0218 14.4551 43.3051 13.6851C42.5885 12.9134 41.6101 12.5284 40.3718 12.5284C39.1335 12.5284 38.1185 12.9151 37.3901 13.6851C36.6618 14.4568 36.2985 15.5584 36.2985 16.9918V26.9618H31.7368V8.9101H36.2985V11.1584C36.9068 10.3768 37.6835 9.76344 38.6285 9.31677C39.5735 8.87177 40.6101 8.64844 41.7401 8.64844C43.8901 8.64844 45.6285 9.32844 46.9535 10.6851V10.6868Z" fill="#C7154A"/>
<path id="Vector_4" d="M56.8918 26.0983C55.5018 25.3283 54.4101 24.2367 53.6168 22.8233C52.8234 21.4117 52.4268 19.7817 52.4268 17.935C52.4268 16.0883 52.8334 14.46 53.6484 13.0467C54.4634 11.635 55.5768 10.5433 56.9884 9.77166C58.4001 8.99999 59.9751 8.61499 61.7134 8.61499C63.4518 8.61499 65.0251 9.00166 66.4384 9.77166C67.8501 10.5433 68.9634 11.635 69.7784 13.0467C70.5934 14.4583 71.0001 16.0883 71.0001 17.935C71.0001 19.7817 70.5818 21.41 69.7451 22.8233C68.9084 24.235 67.7784 25.3267 66.3568 26.0983C64.9334 26.87 63.3434 27.255 61.5834 27.255C59.8234 27.255 58.2818 26.87 56.8918 26.0983ZM63.9134 22.6767C64.6418 22.275 65.2218 21.6717 65.6568 20.8683C66.0918 20.065 66.3084 19.0867 66.3084 17.935C66.3084 16.22 65.8568 14.9 64.9568 13.9767C64.0551 13.0533 62.9534 12.5917 61.6501 12.5917C60.3468 12.5917 59.2551 13.0533 58.3751 13.9767C57.4951 14.9 57.0551 16.22 57.0551 17.935C57.0551 19.65 57.4834 20.97 58.3418 21.8933C59.2001 22.8167 60.2801 23.2783 61.5834 23.2783C62.4084 23.2783 63.1851 23.0783 63.9134 22.675V22.6767Z" fill="#C7154A"/>
<path id="Vector_5" d="M79.9601 12.6583V21.3917C79.9601 22 80.1068 22.44 80.4001 22.7117C80.6935 22.9833 81.1868 23.1183 81.8818 23.1183H84.0001V26.9633H81.1335C77.2885 26.9633 75.3668 25.095 75.3668 21.3583V12.6583H73.2168V8.91167H75.3668V4L79.9618 3V8.91167H84.0018V12.6583H79.9618H79.9601Z" fill="#C7154A"/>
</g>
</svg>
