<svg width="184" height="72" viewBox="0 0 184 72" fill="none" xmlns="http://www.w3.org/2000/svg">
<rect width="184" height="72" fill="#F9FDFE"/>
<g clip-path="url(#clip0_3700_2660)">
<path d="M81.3799 19.26C82.9099 19.26 84.08 19.44 85.07 19.71C86.06 20.07 86.78 20.43 87.32 20.97C87.86 21.42 88.2199 22.05 88.4899 22.68C88.6699 23.31 88.8499 23.85 88.8499 24.48C88.8499 25.38 88.67 26.19 88.31 26.73C87.95 27.36 87.5 27.9 86.87 28.44C87.95 28.8 88.7599 29.34 89.3899 30.15C90.0199 30.96 90.2899 32.04 90.2899 33.39C90.2899 34.2 90.1099 35.01 89.7499 35.73C89.3899 36.45 88.94 36.99 88.22 37.44C87.59 37.89 86.78 38.25 85.97 38.52C85.07 38.79 84.08 38.88 83 38.88H76.7V19.08H81.3799V19.26ZM80.4799 27.45H81.2C82.55 27.45 83.4499 27.18 84.0799 26.73C84.6199 26.28 84.8899 25.65 84.8899 24.84C84.8899 24.39 84.8 24.03 84.62 23.67C84.44 23.31 84.1699 23.13 83.9 22.95C83.54 22.77 83.1799 22.59 82.7299 22.59C82.2799 22.5 81.74 22.5 81.2 22.5H80.57L80.4799 27.45ZM80.4799 35.91H82.55C83.27 35.91 83.9899 35.82 84.4399 35.64C84.8899 35.46 85.34 35.28 85.61 35.01C85.88 34.74 86.1499 34.47 86.2399 34.2C86.3299 33.84 86.42 33.57 86.42 33.3C86.42 32.94 86.4199 32.67 86.2399 32.4C86.1499 32.04 85.88 31.77 85.61 31.59C85.34 31.32 84.8899 31.14 84.3499 30.96C83.81 30.78 83.1799 30.69 82.2799 30.69H80.3899L80.4799 35.91Z" fill="#1A171B"/>
<path d="M106.13 35.19C105.77 36.09 105.23 36.81 104.6 37.44C103.97 38.07 103.16 38.52 102.35 38.97C101.45 39.33 100.46 39.51 99.4699 39.51C98.4799 39.51 97.4899 39.33 96.5899 38.97C95.6899 38.61 94.9699 38.16 94.3399 37.44C93.7099 36.81 93.1699 36 92.8099 35.19C92.4499 34.29 92.2699 33.39 92.2699 32.4C92.2699 31.41 92.4499 30.42 92.8099 29.52C93.1699 28.62 93.7099 27.9 94.3399 27.27C94.9699 26.64 95.7799 26.19 96.5899 25.74C97.4899 25.38 98.3899 25.2 99.4699 25.2C100.55 25.2 101.45 25.38 102.35 25.74C103.25 26.1 103.97 26.64 104.6 27.27C105.23 27.9 105.77 28.71 106.13 29.52C106.49 30.42 106.67 31.32 106.67 32.4C106.67 33.3 106.58 34.29 106.13 35.19ZM102.71 30.78C102.53 30.33 102.35 29.88 101.99 29.52C101.63 29.16 101.27 28.89 100.91 28.71C100.55 28.53 100.01 28.35 99.5599 28.35C99.1099 28.35 98.6599 28.44 98.2099 28.62C97.7599 28.8 97.3999 29.07 97.1299 29.43C96.7699 29.79 96.5899 30.15 96.4099 30.69C96.2299 31.14 96.1399 31.68 96.1399 32.22C96.1399 32.76 96.2299 33.3 96.4099 33.75C96.5899 34.2 96.8599 34.65 97.1299 34.92C97.4899 35.28 97.8499 35.55 98.2099 35.73C98.6599 35.91 99.1099 36 99.5599 36C100.1 36 100.55 35.91 100.91 35.73C101.27 35.55 101.72 35.28 101.99 34.92C102.35 34.56 102.53 34.2 102.71 33.75C102.89 33.3 102.98 32.76 102.98 32.22C102.89 31.77 102.8 31.23 102.71 30.78Z" fill="#1A171B"/>
<path d="M122.42 35.19C122.06 36.09 121.52 36.81 120.89 37.44C120.26 38.07 119.45 38.52 118.64 38.97C117.74 39.33 116.75 39.51 115.76 39.51C114.77 39.51 113.78 39.33 112.88 38.97C111.98 38.61 111.26 38.16 110.63 37.44C110 36.81 109.46 36 109.1 35.19C108.74 34.29 108.56 33.39 108.56 32.4C108.56 31.41 108.74 30.42 109.1 29.52C109.46 28.62 110 27.9 110.63 27.27C111.26 26.64 112.07 26.19 112.88 25.74C113.78 25.38 114.77 25.2 115.76 25.2C116.84 25.2 117.74 25.38 118.64 25.74C119.54 26.1 120.26 26.64 120.89 27.27C121.52 27.9 122.06 28.71 122.42 29.52C122.78 30.42 122.96 31.32 122.96 32.4C122.96 33.3 122.78 34.29 122.42 35.19ZM118.91 30.78C118.73 30.33 118.46 29.88 118.19 29.52C117.83 29.16 117.47 28.89 117.11 28.71C116.75 28.53 116.21 28.35 115.67 28.35C115.22 28.35 114.77 28.44 114.32 28.62C113.87 28.8 113.51 29.07 113.24 29.43C112.88 29.79 112.7 30.15 112.52 30.69C112.34 31.14 112.25 31.68 112.25 32.22C112.25 32.76 112.34 33.3 112.52 33.75C112.7 34.2 112.97 34.65 113.24 34.92C113.6 35.28 113.96 35.55 114.32 35.73C114.77 35.91 115.22 36 115.67 36C116.21 36 116.66 35.91 117.11 35.73C117.47 35.55 117.92 35.28 118.19 34.92C118.55 34.56 118.73 34.2 118.91 33.75C119.09 33.3 119.18 32.76 119.18 32.22C119.27 31.77 119.18 31.23 118.91 30.78Z" fill="#1A171B"/>
<path d="M129.89 25.29C130.61 25.2 131.24 25.11 132.05 25.11C133.76 25.11 135.11 25.56 136.19 26.55C137.27 27.54 137.72 28.98 137.72 30.96V39.15H134.12V31.41C134.12 30.42 133.94 29.61 133.49 29.16C133.13 28.62 132.5 28.35 131.87 28.35C130.79 28.35 129.89 28.53 129.26 28.8V39.15H125.66V24.48L128.18 25.83C128 25.83 129.17 25.38 129.89 25.29Z" fill="#1A171B"/>
<path d="M153.29 39.69L150.77 38.7C150.14 38.88 149.6 38.97 149.06 39.15C148.52 39.24 147.98 39.33 147.35 39.33C146.36 39.33 145.46 39.15 144.56 38.79C143.75 38.43 142.94 37.89 142.31 37.26C141.68 36.63 141.14 35.82 140.78 35.01C140.42 34.11 140.24 33.21 140.24 32.22C140.24 31.14 140.42 30.15 140.78 29.34C141.14 28.44 141.59 27.72 142.31 27.09C142.94 26.46 143.66 26.01 144.56 25.56C145.46 25.11 146.36 25.02 147.44 25.02C148.34 25.02 149.15 25.11 149.78 25.38V19.53L153.47 18.45V39.69H153.29ZM149.6 28.98C149.24 28.71 148.79 28.62 148.52 28.53C148.16 28.44 147.8 28.44 147.44 28.44C146.9 28.44 146.45 28.53 146.09 28.71C145.73 28.89 145.28 29.16 145.01 29.52C144.65 29.88 144.47 30.24 144.29 30.69C144.11 31.14 144.02 31.68 144.02 32.22C144.02 32.76 144.11 33.3 144.29 33.75C144.47 34.2 144.74 34.65 145.01 35.01C145.37 35.37 145.73 35.64 146.18 35.82C146.63 36 147.08 36.18 147.71 36.18C148.07 36.18 148.43 36.09 148.79 36C149.06 35.91 149.42 35.64 149.78 35.46L149.6 28.98Z" fill="#1A171B"/>
<path d="M96.3199 50.1299L96.4999 48.7799L96.9499 43.4699L97.1299 40.4099C97.4899 40.4099 97.8499 40.4099 98.0299 40.4099C98.2999 40.4099 98.5699 40.4099 98.9299 40.4099L99.1099 41.0399C99.1099 41.2199 99.1999 41.3999 99.2899 41.6699C99.3799 41.9399 99.4699 42.2999 99.6499 42.7499L100.55 45.2699L101.63 48.5999L103.07 45.2699L104.69 41.5799C104.69 41.4899 104.78 41.3099 104.87 41.1299C104.87 40.9499 105.05 40.7699 105.14 40.4099C105.5 40.4099 105.77 40.4099 106.13 40.4099C106.4 40.4099 106.67 40.4099 107.03 40.4099L106.94 43.7399V45.9899C106.94 46.1699 106.94 46.3499 106.94 46.6199V48.2399V49.1399C106.94 49.2299 106.94 49.4999 106.94 50.0399C106.58 50.0399 106.4 50.0399 106.31 50.0399C106.13 50.0399 105.95 50.0399 105.68 50.0399V49.1399L105.86 44.0099C105.86 43.4699 105.86 42.8399 105.86 42.1199V41.4899L102.71 48.9599L102.35 50.0399C101.99 50.0399 101.81 50.0399 101.72 50.0399C101.54 50.0399 101.36 50.0399 101 50.0399L100.19 47.3399L99.2899 44.7299L98.3899 42.2099C98.3899 42.1199 98.2999 41.8499 98.2099 41.5799L98.1199 42.4799L97.5799 48.5999C97.5799 48.7799 97.5799 48.9599 97.5799 49.2299C97.5799 49.4099 97.5799 49.7699 97.5799 50.1299H96.9499C96.8599 50.0399 96.5899 50.1299 96.3199 50.1299Z" fill="#F5A119"/>
<path d="M109.28 44.0099C109.28 43.8299 109.37 43.4699 109.37 43.1099C109.91 42.9299 110.45 42.8399 110.9 42.7499C111.26 42.7499 111.71 42.6599 112.16 42.6599C112.61 42.6599 112.97 42.6599 113.33 42.7499C113.69 42.8399 114.05 42.9299 114.23 43.1099C114.5 43.2899 114.59 43.4699 114.68 43.7399C114.77 44.0099 114.77 44.1899 114.77 44.4599C114.77 44.8199 114.77 45.3599 114.68 46.0799C114.68 46.7999 114.59 47.6099 114.59 48.2399C114.59 48.8699 114.59 49.4999 114.59 50.0399C114.32 50.0399 114.14 50.0399 113.96 50.0399C113.78 50.0399 113.6 50.0399 113.33 50.0399L113.51 48.1499L113.6 45.8999C113.42 45.9899 113.33 46.0799 113.24 46.1699C113.15 46.1699 113.06 46.2599 112.97 46.3499C112.88 46.3499 112.79 46.4399 112.61 46.4399C112.52 46.4399 112.25 46.5299 111.89 46.6199C111.53 46.7099 111.26 46.7999 111.17 46.8899C110.81 46.9799 110.54 47.0699 110.45 47.2499C110.27 47.3399 110.09 47.4299 110 47.6099C109.91 47.6999 109.82 47.8799 109.73 47.9699C109.64 48.1499 109.64 48.3299 109.64 48.4199C109.64 48.6899 109.73 48.8699 109.91 49.1399C110.09 49.3199 110.27 49.4999 110.45 49.4999C110.72 49.5899 110.99 49.5899 111.26 49.5899C111.44 49.5899 111.62 49.5899 111.89 49.5899C112.07 49.5899 112.43 49.4999 112.79 49.4099C112.7 49.5899 112.61 49.8599 112.52 50.2199C112.16 50.3099 111.89 50.3099 111.71 50.3099C111.53 50.3099 111.26 50.3099 111.08 50.3099C110.45 50.3099 109.91 50.2199 109.55 50.0399C109.19 49.8599 108.92 49.6799 108.74 49.3199C108.56 48.9599 108.47 48.6899 108.47 48.3299C108.47 48.1499 108.47 47.9699 108.56 47.6999C108.65 47.5199 108.74 47.3399 108.83 47.2499C108.92 47.0699 109.1 46.9799 109.28 46.7999C109.46 46.6199 109.64 46.5299 109.91 46.4399C110.09 46.3499 110.36 46.2599 110.63 46.1699C110.9 46.0799 111.35 45.9899 112.07 45.8099C112.25 45.8099 112.43 45.7199 112.61 45.6299C112.79 45.6299 112.88 45.5399 112.97 45.4499C113.06 45.4499 113.15 45.3599 113.24 45.2699C113.33 45.1799 113.42 45.0899 113.51 44.9999C113.6 44.9099 113.6 44.8199 113.69 44.7299C113.69 44.6399 113.69 44.5499 113.69 44.4599C113.69 44.1899 113.6 44.0099 113.42 43.8299C113.24 43.6499 113.06 43.5599 112.79 43.4699C112.52 43.3799 112.25 43.3799 111.89 43.3799C111.53 43.3799 111.26 43.3799 110.9 43.4699C110.54 43.4699 110.27 43.5599 110.09 43.6499C109.91 43.8299 109.64 43.9199 109.28 44.0099Z" fill="#F5A119"/>
<path d="M116.66 50.13C116.93 47.16 117.02 44.73 117.02 42.93H117.65C117.83 42.93 118.01 42.93 118.28 42.93L118.19 44.37C118.28 44.19 118.37 44.01 118.46 43.92C118.55 43.83 118.64 43.74 118.73 43.56C118.82 43.47 119 43.29 119.09 43.2C119.27 43.11 119.45 43.02 119.63 42.93C119.81 42.84 120.08 42.84 120.35 42.75C120.62 42.75 120.8 42.75 121.07 42.75C121.43 42.75 121.88 42.75 122.24 42.93C122.6 43.02 122.96 43.2 123.14 43.38C123.41 43.65 123.5 43.83 123.59 44.1C123.68 44.37 123.68 44.64 123.68 45C123.68 45.09 123.68 45.18 123.68 45.36C123.68 45.54 123.68 45.72 123.68 46.08L123.5 49.05C123.5 49.32 123.5 49.68 123.5 50.13C123.32 50.13 123.14 50.13 122.87 50.13C122.6 50.13 122.42 50.13 122.24 50.13C122.24 49.59 122.33 49.05 122.33 48.51L122.42 46.89C122.42 46.35 122.42 45.9 122.42 45.63C122.42 45.27 122.33 44.91 122.24 44.64C122.06 44.37 121.88 44.19 121.52 44.1C121.16 44.01 120.8 43.92 120.44 43.92C119.9 43.92 119.45 44.01 119 44.28C118.64 44.55 118.37 44.91 118.19 45.36C118.1 45.72 117.92 46.17 117.92 46.8C117.83 47.52 117.83 48.69 117.74 50.31C117.47 50.31 117.29 50.31 117.11 50.31C117.2 50.04 116.93 50.13 116.66 50.13Z" fill="#F5A119"/>
<path d="M126.02 44.0099C126.02 43.8299 126.11 43.4699 126.11 43.1099C126.65 42.9299 127.19 42.8399 127.64 42.7499C128 42.7499 128.45 42.6599 128.9 42.6599C129.35 42.6599 129.71 42.6599 130.07 42.7499C130.43 42.8399 130.79 42.9299 130.97 43.1099C131.24 43.2899 131.33 43.4699 131.42 43.7399C131.51 44.0099 131.51 44.1899 131.51 44.4599C131.51 44.8199 131.51 45.3599 131.42 46.0799C131.42 46.7999 131.33 47.6099 131.33 48.2399C131.33 48.8699 131.33 49.4999 131.33 50.0399C131.06 50.0399 130.88 50.0399 130.7 50.0399C130.52 50.0399 130.34 50.0399 130.07 50.0399L130.25 48.1499L130.34 45.8999C130.16 45.9899 130.07 46.0799 129.98 46.1699C129.89 46.1699 129.8 46.2599 129.71 46.3499C129.62 46.3499 129.53 46.4399 129.35 46.4399C129.26 46.4399 128.99 46.5299 128.63 46.6199C128.27 46.7099 128 46.7999 127.91 46.8899C127.55 46.9799 127.28 47.0699 127.19 47.2499C127.01 47.3399 126.83 47.4299 126.74 47.6099C126.65 47.6999 126.56 47.8799 126.47 47.9699C126.38 48.1499 126.38 48.3299 126.38 48.4199C126.38 48.6899 126.47 48.8699 126.65 49.1399C126.83 49.3199 127.01 49.4999 127.19 49.4999C127.46 49.5899 127.73 49.5899 128 49.5899C128.18 49.5899 128.36 49.5899 128.63 49.5899C128.81 49.5899 129.17 49.4999 129.53 49.4099C129.44 49.5899 129.35 49.8599 129.26 50.2199C128.9 50.3099 128.63 50.3099 128.45 50.3099C128.27 50.3099 128 50.3099 127.82 50.3099C127.19 50.3099 126.65 50.2199 126.29 50.0399C125.93 49.8599 125.66 49.6799 125.48 49.3199C125.3 48.9599 125.21 48.6899 125.21 48.3299C125.21 48.1499 125.21 47.9699 125.3 47.6999C125.39 47.5199 125.48 47.3399 125.57 47.2499C125.66 47.0699 125.84 46.9799 126.02 46.7999C126.2 46.6199 126.38 46.5299 126.65 46.4399C126.83 46.3499 127.1 46.2599 127.37 46.1699C127.64 46.0799 128.09 45.9899 128.81 45.8099C128.99 45.8099 129.17 45.7199 129.35 45.6299C129.53 45.6299 129.62 45.5399 129.71 45.4499C129.8 45.4499 129.89 45.3599 129.98 45.2699C130.07 45.1799 130.16 45.0899 130.25 44.9999C130.34 44.9099 130.34 44.8199 130.43 44.7299C130.43 44.6399 130.43 44.5499 130.43 44.4599C130.43 44.1899 130.34 44.0099 130.16 43.8299C129.98 43.6499 129.8 43.5599 129.53 43.4699C129.26 43.3799 128.99 43.3799 128.63 43.3799C128.27 43.3799 128 43.3799 127.64 43.4699C127.28 43.4699 127.01 43.5599 126.83 43.6499C126.65 43.8299 126.38 43.9199 126.02 44.0099Z" fill="#F5A119"/>
<path d="M133.85 52.1999C134.48 52.3799 135.02 52.5599 135.38 52.5599C135.74 52.6499 136.19 52.6499 136.55 52.6499C136.91 52.6499 137.27 52.6499 137.63 52.4699C137.9 52.3799 138.17 52.2899 138.35 52.1099C138.53 52.0199 138.62 51.8399 138.71 51.6599C138.8 51.3899 138.89 51.0299 138.98 50.5799C138.98 50.2199 139.07 49.5899 139.07 48.5999C138.98 48.7799 138.89 48.9599 138.71 49.1399C138.62 49.2299 138.53 49.4099 138.35 49.4999C138.17 49.5899 137.99 49.7699 137.81 49.8599C137.63 49.9499 137.36 50.0399 137.09 50.1299C136.82 50.2199 136.55 50.2199 136.28 50.2199C135.83 50.2199 135.47 50.2199 135.11 50.0399C134.75 49.9499 134.39 49.6799 134.12 49.4099C133.85 49.1399 133.58 48.7799 133.4 48.3299C133.22 47.8799 133.13 47.4299 133.13 46.9799C133.13 46.3499 133.22 45.7199 133.49 45.1799C133.76 44.6399 134.03 44.0999 134.48 43.7399C134.93 43.3799 135.38 43.0199 136.01 42.9299C136.55 42.7499 137.18 42.6599 137.9 42.6599C138.62 42.6599 139.52 42.7499 140.6 42.9299L140.51 43.8299L140.33 47.7899C140.33 47.8799 140.33 48.3299 140.33 49.2299V50.7599C140.33 51.1199 140.24 51.3899 140.24 51.5699C140.24 51.7499 140.15 51.9299 139.97 52.1099C139.88 52.2899 139.79 52.4699 139.61 52.5599C139.52 52.6499 139.34 52.8299 139.16 52.9199C138.98 53.0099 138.8 53.0999 138.62 53.1899C138.35 53.2799 138.08 53.3699 137.81 53.3699C137.45 53.3699 137.18 53.4599 136.82 53.4599C136.37 53.4599 135.92 53.4599 135.47 53.3699C135.02 53.3699 134.48 53.2799 133.94 53.0999V52.7399C133.85 52.7399 133.85 52.4699 133.85 52.1999ZM139.34 43.8299C138.8 43.7399 138.26 43.6499 137.81 43.6499C137.36 43.6499 136.91 43.6499 136.55 43.8299C136.19 43.9199 135.83 44.1899 135.47 44.4599C135.11 44.7299 134.84 45.1799 134.75 45.5399C134.57 45.9899 134.48 46.4399 134.48 46.9799C134.48 47.4299 134.57 47.8799 134.75 48.2399C134.93 48.5999 135.2 48.9599 135.47 49.0499C135.83 49.2299 136.19 49.3199 136.64 49.3199C137 49.3199 137.36 49.2299 137.72 49.1399C137.99 49.0499 138.26 48.7799 138.53 48.5099C138.8 48.2399 138.89 47.8799 139.07 47.5199C139.16 47.2499 139.25 46.8899 139.25 46.3499C139.25 45.8999 139.25 45.0899 139.34 43.8299Z" fill="#F5A119"/>
<path d="M148.16 48.96C148.16 49.23 148.07 49.59 147.98 49.95C147.53 50.04 147.17 50.13 146.81 50.22C146.45 50.31 146.09 50.31 145.82 50.31C145.19 50.31 144.74 50.22 144.2 50.13C143.75 49.95 143.3 49.77 143.03 49.41C142.67 49.05 142.49 48.69 142.31 48.24C142.13 47.79 142.13 47.34 142.13 46.8C142.13 46.08 142.22 45.45 142.49 44.82C142.76 44.19 143.21 43.74 143.66 43.38C144.2 43.02 144.92 42.84 145.73 42.84C146.18 42.84 146.54 42.93 146.99 43.02C147.44 43.11 147.71 43.38 147.98 43.56C148.25 43.83 148.43 44.1 148.61 44.55C148.79 44.91 148.79 45.36 148.79 45.81C148.79 45.99 148.79 46.17 148.79 46.26H143.39C143.39 46.53 143.39 46.71 143.39 46.89C143.39 47.34 143.48 47.88 143.75 48.24C143.93 48.6 144.29 48.96 144.65 49.23C145.01 49.41 145.55 49.59 146.09 49.59C146.54 49.41 147.26 49.23 148.16 48.96ZM143.39 45.54H147.62C147.62 45.27 147.62 45 147.62 44.82C147.62 44.64 147.53 44.46 147.44 44.28C147.35 44.1 147.26 43.92 147.08 43.83C146.9 43.74 146.72 43.56 146.54 43.56C146.36 43.47 146.09 43.47 145.82 43.47C145.55 43.47 145.28 43.47 145.1 43.56C144.83 43.65 144.65 43.74 144.47 43.92C144.29 44.01 144.11 44.19 144.02 44.37C143.93 44.55 143.75 44.73 143.75 44.91C143.57 45.09 143.48 45.27 143.39 45.54Z" fill="#F5A119"/>
<path d="M150.05 50.1299C150.23 47.4299 150.32 45.2699 150.32 43.5599V42.9299C150.59 42.9299 150.77 42.9299 150.95 42.9299C151.13 42.9299 151.31 42.9299 151.58 42.9299V44.0999C151.76 43.8299 151.94 43.5599 152.03 43.3799C152.12 43.1999 152.3 43.1099 152.48 43.0199C152.66 42.9299 152.84 42.8399 153.02 42.7499C153.2 42.7499 153.47 42.6599 153.74 42.6599C153.92 42.6599 154.1 42.6599 154.37 42.7499C154.37 43.1099 154.37 43.4699 154.37 43.8299C154.1 43.7399 153.83 43.7399 153.56 43.7399C153.29 43.7399 153.02 43.7399 152.84 43.8299C152.57 43.9199 152.39 44.0999 152.21 44.1899C152.03 44.3699 151.85 44.5499 151.76 44.9099C151.67 45.0899 151.58 45.3599 151.58 45.7199C151.58 46.0799 151.49 46.6199 151.49 47.5199C151.49 48.1499 151.49 48.8699 151.49 49.5899V50.1299C151.22 50.1299 151.04 50.1299 150.86 50.1299C150.59 50.0399 150.41 50.1299 150.05 50.1299Z" fill="#F5A119"/>
<path d="M53.1199 33.4801C55.0999 28.6201 52.1299 23.1301 52.3999 21.8701C52.6699 20.7901 51.4999 20.2501 50.8699 21.2401C49.9699 22.5901 42.3199 27.1801 45.2899 35.2801" fill="#E9A63E"/>
<path d="M45.2899 35.46C45.1999 35.46 45.1099 35.37 45.1099 35.28C42.6799 28.53 47.4499 24.21 49.6999 22.14C50.2399 21.69 50.5999 21.33 50.7799 21.06C51.2299 20.43 51.7699 20.34 52.1299 20.52C52.5799 20.7 52.8499 21.24 52.6699 21.87C52.5799 22.23 52.8499 23.04 53.0299 24.03C53.6599 26.46 54.6499 30.15 53.2999 33.57C53.2099 33.66 53.1199 33.75 53.0299 33.66C52.9399 33.57 52.8499 33.48 52.9399 33.39C54.2899 30.15 53.2999 26.55 52.6699 24.21C52.3999 23.13 52.1299 22.32 52.3099 21.87C52.3999 21.42 52.2199 21.15 52.0399 21.06C51.8599 20.97 51.4999 21.06 51.2299 21.42C50.9599 21.69 50.5999 22.05 49.9699 22.5C47.7199 24.48 43.1299 28.71 45.4699 35.19C45.5599 35.28 45.4699 35.46 45.2899 35.46C45.3799 35.46 45.3799 35.46 45.2899 35.46Z" fill="#B6622C"/>
<path d="M53.12 25.2C52.76 23.67 52.31 22.41 52.4 21.78C52.67 20.7 51.5 20.16 50.87 21.15C50.51 21.69 49.34 22.59 48.08 23.94C48.53 26.01 52.58 26.01 53.12 25.2Z" fill="#6D412F"/>
<path d="M51.32 25.92C50.96 25.92 50.51 25.92 50.15 25.83C48.89 25.56 48.08 24.93 47.9 24.03C47.9 23.94 47.9 23.85 47.99 23.85C48.62 23.13 49.25 22.59 49.79 22.14C50.33 21.69 50.69 21.33 50.87 21.06C51.32 20.43 51.86 20.34 52.22 20.52C52.67 20.7 52.94 21.24 52.76 21.87C52.67 22.23 52.94 23.22 53.21 24.3C53.3 24.57 53.39 24.84 53.39 25.11C53.39 25.2 53.39 25.2 53.39 25.29C53.03 25.74 52.22 25.92 51.32 25.92ZM48.35 24.12C48.62 24.93 49.61 25.29 50.24 25.47C51.32 25.74 52.49 25.56 52.85 25.2C52.76 24.93 52.76 24.75 52.67 24.48C52.31 23.22 52.04 22.32 52.22 21.78C52.31 21.33 52.13 21.06 51.95 20.97C51.77 20.88 51.41 20.97 51.14 21.33C50.96 21.69 50.6 22.05 49.97 22.5C49.52 22.95 48.98 23.49 48.35 24.12Z" fill="#6D412F"/>
<path d="M51.32 24.39C50.96 25.2 48.8 26.73 48.71 29.16C49.16 29.43 51.05 32.31 51.14 32.85C51.5 32.76 53.3 28.98 51.05 25.2C51.05 25.11 51.41 24.12 51.32 24.39Z" fill="#B6622C"/>
<path d="M51.1399 33.03C51.0499 33.03 50.9599 32.94 50.8699 32.85C50.7799 32.4 48.9799 29.61 48.6199 29.34C48.5299 29.34 48.5299 29.25 48.5299 29.16C48.5299 27.36 49.6999 26.01 50.5099 25.11C50.7799 24.75 51.0499 24.48 51.1399 24.3C51.2299 24.03 51.4099 24.12 51.4999 24.12C51.6799 24.21 51.5899 24.39 51.5899 24.48C51.4999 24.75 51.4099 24.93 51.4099 25.02C53.1199 27.99 52.3999 30.96 51.7699 32.31C51.4099 33.03 51.2299 33.03 51.1399 33.03ZM48.9799 29.07C49.5199 29.52 50.7799 31.5 51.2299 32.4C51.6799 31.5 52.6699 28.44 50.9599 25.38L50.8699 25.47C50.0599 26.28 49.0699 27.45 48.9799 29.07Z" fill="#B6622C"/>
<path d="M49.25 28.17C49.25 27.09 49.97 26.73 50.15 26.73C50.33 26.73 49.88 27.54 49.88 27.63C49.88 27.72 50.15 27.63 50.51 27.63C50.69 27.63 50.06 27.99 50.24 28.26C50.51 28.53 50.69 28.89 51.14 29.79C50.51 29.16 49.79 28.62 49.25 28.17Z" fill="#FCF2E9"/>
<path d="M50.5999 47.2501C50.3299 47.9701 46.2799 49.3201 45.3799 48.8701C42.3199 47.4301 33.4099 47.7901 30.0799 41.9401C29.8999 41.5801 33.0499 41.9401 32.9599 41.5801C32.8699 41.2201 32.9599 34.2901 34.1299 33.9301C35.2999 33.5701 51.5899 31.7701 52.1299 32.2201C52.6699 32.6701 53.9299 34.0201 55.2799 37.2601C55.9099 37.0801 56.7199 36.0001 56.7199 36.5401C56.5399 41.4001 51.9499 43.4701 50.5999 47.2501Z" fill="#FCF2E9"/>
<path d="M45.83 49.14C45.56 49.14 45.38 49.14 45.2 49.05C44.3 48.69 43.04 48.42 41.42 48.06C37.55 47.34 32.15 46.26 29.72 41.94C29.63 41.85 29.63 41.76 29.72 41.67C29.81 41.4 30.26 41.4 31.34 41.4C31.7 41.4 32.24 41.4 32.51 41.4C32.51 40.86 32.51 39.24 32.69 37.71C33.05 33.93 33.68 33.75 33.95 33.66C34.58 33.48 39.26 32.94 43.22 32.49C51.68 31.68 52.04 31.86 52.13 32.04C52.67 32.49 53.93 33.84 55.19 36.9C55.37 36.81 55.55 36.63 55.73 36.54C56.09 36.27 56.27 36.09 56.54 36.18C56.63 36.18 56.72 36.36 56.72 36.54C56.72 39.51 55.01 41.49 53.39 43.29C52.31 44.55 51.23 45.72 50.69 47.16C50.6 47.43 50.06 47.79 49.16 48.15C48.35 48.69 46.82 49.14 45.83 49.14ZM30.35 42.03C32.78 45.99 37.82 46.98 41.6 47.7C43.22 47.97 44.57 48.24 45.47 48.69C45.92 48.87 47.63 48.51 49.16 47.88C50.06 47.52 50.33 47.25 50.42 47.16C50.96 45.63 52.13 44.37 53.21 43.11C54.74 41.31 56.36 39.51 56.45 36.81C56.36 36.9 56.27 36.9 56.18 36.99C55.91 37.17 55.64 37.44 55.28 37.53C55.19 37.53 55.01 37.53 55.01 37.44C53.75 34.38 52.49 33.03 51.95 32.58C51.59 32.49 48.71 32.58 43.13 33.21C38.81 33.66 34.67 34.2 34.13 34.29C33.23 34.56 32.96 40.95 33.14 41.67C33.14 41.76 33.14 41.85 33.14 41.94C32.96 42.12 32.6 42.12 31.52 42.12C31.16 41.94 30.62 41.94 30.35 42.03Z" fill="#E8CDB3"/>
<path d="M30.0799 41.76C29.8999 41.85 34.0399 42.66 33.9499 42.21C33.2299 37.62 35.2999 34.56 36.5599 34.38C42.4999 33.84 44.7499 41.76 44.8399 41.85C44.8399 41.94 45.5599 43.02 45.9199 43.2C46.2799 43.38 49.6099 42.75 49.2499 42.48C48.8899 42.21 48.2599 41.4 48.2599 41.13C48.1699 40.95 47.8099 33.03 50.7799 32.94C53.3899 32.85 54.8299 37.26 55.1899 37.26C55.4599 37.26 53.4799 30.87 48.4399 27.9C46.0999 26.55 37.8199 27.27 35.7499 29.25C31.2499 33.66 32.5099 39.96 32.4199 40.23C32.3299 40.68 30.3499 41.67 30.0799 41.76Z" fill="#E9A63E"/>
<path d="M46.1 43.4701C45.92 43.4701 45.83 43.4701 45.74 43.3801C45.29 43.1101 44.57 42.0301 44.57 41.8501C44.48 41.6701 43.94 39.6901 42.59 37.8901C40.88 35.4601 38.9 34.2901 36.56 34.5601C36.2 34.5601 35.84 34.9201 35.48 35.3701C34.58 36.5401 33.77 38.9701 34.22 42.1201C34.22 42.2101 34.22 42.4801 33.86 42.4801C33.41 42.5701 32.24 42.3901 31.7 42.3001C29.99 42.0301 29.99 41.8501 29.99 41.7601C29.99 41.6701 30.08 41.4901 30.17 41.4901C30.53 41.4001 32.24 40.5001 32.33 40.1401C32.33 40.1401 32.33 39.9601 32.33 39.8701C31.7 34.2001 33.86 30.7801 35.75 28.9801C37.91 26.8201 46.28 26.2801 48.71 27.6301C53.66 30.4201 55.73 36.5401 55.64 37.1701C55.64 37.2601 55.55 37.3501 55.37 37.3501C55.1 37.3501 55.01 37.1701 54.65 36.4501C53.93 35.2801 52.67 33.0301 50.96 33.0301C50.51 33.0301 50.15 33.2101 49.88 33.6601C48.44 35.4601 48.62 40.5901 48.62 40.9501C48.62 41.1301 49.16 41.8501 49.52 42.1201C49.61 42.2101 49.7 42.3901 49.61 42.4801C49.16 43.0201 47 43.4701 46.1 43.4701ZM37.1 34.1101C42.59 34.1101 44.93 41.4901 45.02 41.7601C45.11 41.9401 45.74 42.8401 46.01 43.0201C46.28 43.1101 48.26 42.7501 48.89 42.4801C48.53 42.1201 48.08 41.4901 47.99 41.2201C47.9 41.0401 47.63 35.8201 49.16 33.6601C49.61 33.0301 50.15 32.7601 50.69 32.7601C52.58 32.6701 53.84 34.7401 54.65 36.0901C53.93 34.1101 51.86 30.2401 48.26 28.1701C46.01 26.9101 37.91 27.4501 35.84 29.4301C34.04 31.2301 31.97 34.4701 32.6 39.9601C32.6 40.1401 32.6 40.2301 32.6 40.3201C32.51 40.7701 31.34 41.4001 30.62 41.7601C31.52 41.9401 33.14 42.2101 33.59 42.1201C33.14 38.8801 34.04 36.3601 35.03 35.1901C35.48 34.5601 36.02 34.2901 36.47 34.2001C36.74 34.1101 36.92 34.1101 37.1 34.1101Z" fill="#B6622C"/>
<path d="M39.44 30.96C39.62 27.54 35.75 23.49 35.66 22.23C35.57 21.15 34.31 20.97 34.04 22.14C33.59 23.67 27.65 30.33 32.87 37.17" fill="#E9A63E"/>
<path d="M32.7799 37.35C32.6899 37.35 32.5999 37.35 32.5999 37.26C28.2799 31.59 31.5199 26.01 33.0499 23.31C33.4099 22.68 33.6799 22.23 33.7699 21.96C33.9499 21.15 34.4899 20.97 34.9399 20.97C35.4799 21.06 35.8399 21.51 35.8399 22.05C35.8399 22.5 36.3799 23.31 37.0099 24.21C38.1799 26.01 39.7999 28.53 39.6199 30.78C39.6199 30.87 39.5299 30.96 39.3499 30.96C39.2599 30.96 39.1699 30.87 39.1699 30.69C39.2599 28.62 37.7299 26.19 36.6499 24.39C35.9299 23.31 35.4799 22.5 35.3899 21.96C35.3899 21.51 35.1199 21.33 34.8499 21.24C34.5799 21.24 34.3099 21.33 34.2199 21.87C34.1299 22.23 33.8599 22.68 33.4999 23.31C31.9699 25.92 28.8199 31.23 32.9599 36.72C33.0499 36.81 33.0499 36.99 32.9599 37.08C32.8699 37.35 32.8699 37.35 32.7799 37.35Z" fill="#B6622C"/>
<path d="M37.64 25.83C36.65 24.21 35.66 22.95 35.66 22.23C35.57 21.15 34.31 20.97 34.04 22.14C33.86 22.86 32.51 24.57 31.61 27C32.06 27.9 36.2 27.81 37.64 25.83Z" fill="#6D412F"/>
<path d="M33.5 27.8101C33.41 27.8101 33.23 27.8101 33.14 27.8101C32.24 27.7201 31.52 27.4501 31.34 27.0901C31.34 27.0001 31.34 27.0001 31.34 26.9101C31.88 25.4701 32.6 24.3001 33.14 23.4001C33.5 22.7701 33.77 22.3201 33.86 22.0501C34.04 21.2401 34.58 21.0601 35.03 21.0601C35.57 21.1501 35.93 21.6001 35.93 22.1401C35.93 22.5901 36.47 23.4001 37.1 24.3001C37.37 24.6601 37.64 25.1101 37.91 25.5601C38 25.6501 37.91 25.7401 37.91 25.8301C36.92 27.2701 35.03 27.8101 33.5 27.8101ZM31.79 26.9101C31.97 27.0901 32.42 27.2701 33.14 27.3601C34.58 27.4501 36.47 26.9101 37.28 25.8301C37.01 25.4701 36.83 25.1101 36.56 24.7501C35.84 23.6701 35.39 22.8601 35.3 22.3201C35.3 21.8701 35.03 21.6901 34.76 21.6001C34.49 21.6001 34.22 21.6901 34.13 22.2301C34.04 22.5901 33.77 23.0401 33.41 23.6701C32.96 24.4801 32.33 25.5601 31.79 26.9101Z" fill="#6D412F"/>
<path d="M34.13 26.46C34.49 27.27 36.56 28.98 36.47 31.32C36.02 31.59 34.04 34.29 33.86 34.83C33.5 34.74 31.97 30.78 34.31 27.18C34.4 27.18 34.04 26.19 34.13 26.46Z" fill="#B6622C"/>
<path d="M33.8599 35.1C33.7699 35.1 33.5899 35.01 33.3199 34.47C32.7799 33.12 32.2399 29.97 34.1299 27.18C34.1299 27.09 34.0399 26.91 33.9499 26.64C33.9499 26.55 33.8599 26.28 34.0399 26.28C34.1299 26.28 34.2199 26.19 34.3099 26.46C34.3999 26.64 34.5799 26.91 34.8499 27.27C35.5699 28.17 36.6499 29.61 36.5599 31.41C36.5599 31.5 36.4699 31.59 36.4699 31.59C36.0199 31.86 34.1299 34.47 34.0399 34.92C34.1299 35.01 33.9499 35.1 33.8599 35.1ZM34.4899 27.45C32.5999 30.42 33.3199 33.57 33.7699 34.47C34.2199 33.57 35.6599 31.77 36.1999 31.32C36.2899 29.61 35.2999 28.44 34.4899 27.45C34.5799 27.45 34.5799 27.45 34.4899 27.45Z" fill="#B6622C"/>
<path d="M36.4699 31.68C36.1999 30.6 35.4799 30.42 35.2999 30.51C35.1199 30.51 35.7499 31.2299 35.7499 31.3199C35.7499 31.4099 35.4799 31.41 35.1199 31.5C34.9399 31.59 35.6599 31.77 35.4799 32.04C35.2999 32.4 35.1199 32.76 34.9399 33.75C35.4799 32.76 36.0199 32.22 36.4699 31.68Z" fill="#FCF2E9"/>
<path d="M49.0699 45.27C49.2499 45.54 49.3399 45.99 49.1599 46.26C48.8899 46.53 46.0999 46.89 45.2899 46.53C44.2999 46.08 43.4899 44.73 43.3099 44.46" fill="#F3D4D6"/>
<path d="M46.4599 46.8901C45.9199 46.8901 45.3799 46.8001 45.1099 46.7101C44.2999 46.3501 43.5799 45.3601 43.2199 44.8201C43.1299 44.7301 43.0399 44.6401 43.0399 44.5501C42.9499 44.4601 42.9499 44.2801 43.0399 44.1901C43.1299 44.1001 43.3099 44.1001 43.3999 44.1901C43.4899 44.2801 43.4899 44.3701 43.5799 44.4601C43.9399 44.9101 44.5699 45.8101 45.2899 46.1701C46.0099 46.5301 48.6199 46.1701 48.9799 45.9901C49.1599 45.8101 49.0699 45.4501 48.8899 45.2701C48.7999 45.1801 48.8899 45.0001 48.9799 44.9101C49.0699 44.8201 49.2499 44.9101 49.3399 45.0001C49.6099 45.3601 49.6999 45.9001 49.4299 46.2601C49.0699 46.7101 47.6299 46.8901 46.4599 46.8901Z" fill="#E8ABAC"/>
<g opacity="0.5">
<mask id="mask0_3700_2660" style="mask-type:luminance" maskUnits="userSpaceOnUse" x="43" y="44" width="7" height="3">
<path d="M49.2499 44.55H43.0399V46.26H49.2499V44.55Z" fill="white"/>
</mask>
<g mask="url(#mask0_3700_2660)">
<path d="M49.3399 46.1701C48.6199 45.1801 44.7499 44.7301 44.5699 46.2601C44.2099 46.0801 43.2199 44.7301 43.1299 44.5501C43.0399 44.3701 49.3399 44.8201 49.3399 44.8201C49.3399 45.2701 49.2499 45.9901 49.3399 46.1701Z" fill="#E8ABAC"/>
</g>
</g>
<path d="M50.9599 43.92C50.8699 44.1 50.3299 44.82 50.1499 45C49.8799 45.18 47.3599 45.54 45.1099 46.26C44.4799 46.44 40.2499 44.37 40.0699 44.01" fill="#FCF2E9"/>
<path d="M45.0199 46.53C43.9399 46.53 40.0699 44.55 39.8899 44.19C39.7999 44.1 39.8899 43.92 39.9799 43.92C40.0699 43.83 40.2499 43.92 40.2499 44.01C40.3399 44.1 41.3299 44.64 42.4999 45.27C44.1199 46.08 44.8399 46.17 44.9299 46.17C46.3699 45.72 47.8099 45.36 48.7999 45.18C49.2499 45.09 49.7899 45 49.8799 44.91C50.0599 44.73 50.5999 44.1 50.5999 44.01C50.5999 43.92 50.7799 43.83 50.8699 43.83C50.9599 43.83 51.0499 44.01 51.0499 44.1C50.9599 44.37 50.4199 45.09 50.1499 45.27C50.0599 45.36 49.6999 45.45 48.8899 45.63C47.8999 45.81 46.3699 46.17 45.0199 46.62C45.1099 46.53 45.0199 46.53 45.0199 46.53Z" fill="#E8CDB3"/>
<path d="M49.34 42.3C48.35 42.12 45.92 42.75 45.74 43.02C45.56 43.29 46.28 44.1 46.46 44.19C46.64 44.28 48.62 43.83 48.89 43.65C49.34 43.29 49.52 42.39 49.34 42.3Z" fill="#292529"/>
<path d="M46.46 44.37C46.37 44.37 46.37 44.37 46.37 44.37C46.1 44.28 45.56 43.56 45.47 43.2C45.38 43.02 45.47 42.84 45.56 42.84C45.83 42.57 48.35 41.94 49.34 42.12C49.43 42.12 49.52 42.21 49.61 42.39C49.7 42.75 49.52 43.47 49.07 43.83C48.71 44.01 47 44.37 46.46 44.37ZM45.92 43.11C46.01 43.29 46.37 43.83 46.46 43.92C46.82 43.92 48.44 43.56 48.71 43.38C48.98 43.2 49.07 42.75 49.07 42.48C48.26 42.48 46.37 42.93 45.92 43.11Z" fill="#292529"/>
<path d="M49.4299 40.2299C48.7999 36.4499 50.3299 34.4699 51.4099 34.9199C52.3099 35.2799 52.6699 37.5299 52.6699 38.0699C52.4899 39.8699 49.5199 40.9499 49.4299 40.2299Z" fill="white"/>
<path d="M49.3399 40.23C49.3399 40.23 49.3399 40.14 49.3399 40.05C49.3399 39.96 49.3399 39.78 49.2499 39.6C49.1599 39.24 49.1599 38.61 49.1599 37.98C49.1599 37.62 49.2499 37.26 49.3399 36.9C49.4299 36.54 49.5199 36.09 49.7899 35.73C49.8799 35.55 50.0599 35.37 50.2399 35.19C50.4199 35.01 50.5999 34.83 50.8699 34.74C50.9599 34.74 51.1399 34.65 51.3199 34.65C51.4099 34.65 51.4999 34.65 51.4999 34.65H51.5899H51.6799C51.8599 34.74 51.9499 34.83 52.0399 34.92C52.1299 35.01 52.2199 35.1 52.3099 35.19C52.5799 35.64 52.7599 36.09 52.8499 36.54C52.9399 36.99 53.0299 37.44 53.0299 37.89C53.0299 38.34 52.8499 38.79 52.5799 39.15C52.3099 39.51 52.0399 39.69 51.6799 39.96C51.4099 40.14 51.0499 40.32 50.7799 40.41C50.5099 40.5 50.2399 40.59 50.0599 40.59C49.8799 40.59 49.6099 40.59 49.5199 40.5C49.3399 40.32 49.3399 40.23 49.3399 40.23ZM49.5199 40.14C49.6099 40.23 49.6999 40.32 49.8799 40.23C50.2399 40.23 50.7799 40.05 51.3199 39.6C51.5899 39.42 51.8599 39.15 52.0399 38.88C52.2199 38.61 52.3999 38.25 52.3999 37.89C52.3999 37.53 52.3099 37.08 52.2199 36.63C52.1299 36.18 51.9499 35.82 51.7699 35.46C51.6799 35.37 51.6799 35.28 51.5899 35.19C51.4999 35.1 51.4099 35.01 51.4099 35.01C51.2299 34.92 51.1399 34.92 50.9599 34.92C50.5999 35.01 50.3299 35.37 50.1499 35.64C49.9699 36 49.7899 36.36 49.6999 36.72C49.6099 37.08 49.5199 37.44 49.5199 37.8C49.4299 38.43 49.5199 39.06 49.5199 39.42C49.5199 39.6 49.5199 39.78 49.6099 39.87C49.5199 40.14 49.5199 40.14 49.5199 40.14Z" fill="#E8CDB3"/>
<path d="M49.4299 37.7101C49.4299 38.5201 49.8799 39.2401 50.4199 39.2401C50.9599 39.2401 51.4099 38.5201 51.4099 37.7101C51.4099 36.9001 50.9599 36.1801 50.4199 36.1801C49.7899 36.2701 49.3399 36.9001 49.4299 37.7101Z" fill="#50A6DC"/>
<path d="M50.42 39.33C50.15 39.33 49.88 39.15 49.61 38.88C49.43 38.61 49.25 38.16 49.25 37.8C49.25 37.35 49.34 36.99 49.52 36.63C49.7 36.27 49.97 36.09 50.33 36.09C50.6 36.09 50.96 36.27 51.14 36.54C51.32 36.81 51.5 37.26 51.5 37.62C51.5 38.07 51.41 38.43 51.23 38.79C51.05 39.15 50.78 39.33 50.42 39.33ZM50.33 36.36C50.06 36.36 49.88 36.54 49.7 36.81C49.52 37.08 49.43 37.44 49.43 37.8C49.43 38.16 49.52 38.52 49.7 38.79C49.88 39.06 50.06 39.15 50.33 39.15C50.51 39.15 50.78 38.97 50.96 38.7C51.14 38.43 51.23 38.07 51.23 37.71C51.23 37.35 51.14 36.99 50.96 36.72C50.78 36.45 50.6 36.36 50.33 36.36Z" fill="#1C2F37"/>
<path d="M49.88 37.6201C49.88 38.0701 50.15 38.4301 50.42 38.4301C50.69 38.4301 50.96 38.0701 50.87 37.6201C50.87 37.1701 50.6 36.8101 50.33 36.8101C50.06 36.8101 49.88 37.1701 49.88 37.6201Z" fill="#1C2F37"/>
<mask id="mask1_3700_2660" style="mask-type:luminance" maskUnits="userSpaceOnUse" x="49" y="36" width="3" height="3">
<path d="M51.4099 36.1801H49.4299V38.8801H51.4099V36.1801Z" fill="white"/>
</mask>
<g mask="url(#mask1_3700_2660)">
<path d="M49.4299 37.7101C49.4299 37.8901 49.4299 38.4301 49.7899 38.8801C49.9699 38.0701 51.0499 36.9901 51.4099 37.5301C51.4099 36.7201 50.9599 36.1801 50.4199 36.1801C49.8799 36.1801 49.3399 36.9001 49.4299 37.7101Z" fill="#50A6DC"/>
</g>
<path d="M49.7 36.9C49.7 37.17 49.88 37.35 50.15 37.35C50.42 37.35 50.6 37.17 50.6 36.9C50.6 36.63 50.42 36.45 50.15 36.45C49.88 36.45 49.7 36.63 49.7 36.9Z" fill="white"/>
<path d="M49.3399 40.23C49.3399 40.23 49.3399 40.14 49.3399 40.05C49.3399 39.96 49.3399 39.78 49.2499 39.6C49.1599 39.24 49.1599 38.61 49.1599 37.98C49.1599 37.62 49.2499 37.26 49.3399 36.9C49.4299 36.54 49.5199 36.09 49.7899 35.73C49.8799 35.55 50.0599 35.37 50.2399 35.19C50.4199 35.01 50.5999 34.83 50.8699 34.74C50.9599 34.74 51.1399 34.65 51.3199 34.65C51.4099 34.65 51.4999 34.65 51.4999 34.65H51.5899H51.6799C51.8599 34.74 51.9499 34.83 52.0399 34.92C52.1299 35.01 52.2199 35.1 52.3099 35.19C52.5799 35.64 52.7599 36.09 52.8499 36.54C52.9399 36.99 53.0299 37.44 53.0299 37.89C53.0299 38.34 52.8499 38.79 52.5799 39.15C52.3099 39.51 52.0399 39.69 51.6799 39.96C51.4099 40.14 51.0499 40.32 50.7799 40.41C50.5099 40.5 50.2399 40.59 50.0599 40.59C49.8799 40.59 49.6099 40.59 49.5199 40.5C49.3399 40.32 49.3399 40.23 49.3399 40.23ZM49.5199 40.14C49.6099 40.23 49.6999 40.32 49.8799 40.23C50.2399 40.23 50.7799 40.05 51.3199 39.6C51.5899 39.42 51.8599 39.15 52.0399 38.88C52.2199 38.61 52.3999 38.25 52.3999 37.89C52.3999 37.53 52.3099 37.08 52.2199 36.63C52.1299 36.18 51.9499 35.82 51.7699 35.46C51.6799 35.37 51.6799 35.28 51.5899 35.19C51.4999 35.1 51.4099 35.01 51.4099 35.01C51.2299 34.92 51.1399 34.92 50.9599 34.92C50.5999 35.01 50.3299 35.37 50.1499 35.64C49.9699 36 49.7899 36.36 49.6999 36.72C49.6099 37.08 49.5199 37.44 49.5199 37.8C49.4299 38.43 49.5199 39.06 49.5199 39.42C49.5199 39.6 49.5199 39.78 49.6099 39.87C49.5199 40.14 49.5199 40.14 49.5199 40.14Z" fill="#E8CDB3"/>
<path d="M42.23 40.6801C42.14 40.5901 42.14 40.5901 42.05 40.5001C41.96 40.4101 41.96 40.4101 41.87 40.3201C41.78 40.2301 41.69 40.2301 41.6 40.1401C41.51 40.0501 41.33 40.0501 41.24 39.9601C41.06 39.8701 40.97 39.8701 40.79 39.7801C40.61 39.7801 40.43 39.6901 40.25 39.6901C40.07 39.6901 39.89 39.6901 39.71 39.6901C39.53 39.6901 39.35 39.6901 39.17 39.6901C38.99 39.6901 38.81 39.6901 38.63 39.7801C38.27 39.8701 38 39.9601 37.73 40.0501C37.46 40.1401 37.28 40.2301 37.19 40.3201C37.1 40.4101 37.1 40.4101 37.1 40.4101C37.1 40.5001 37.01 40.5001 36.92 40.4101C36.83 40.4101 36.83 40.3201 36.83 40.2301C36.83 40.2301 36.83 40.2301 36.83 40.1401C36.83 40.0501 36.92 40.0501 36.92 39.9601C37.01 39.7801 37.19 39.6901 37.46 39.5101C37.73 39.3301 38 39.2401 38.36 39.1501C38.54 39.1501 38.72 39.0601 38.9 39.0601C39.08 39.0601 39.26 39.0601 39.44 39.0601C39.8 39.0601 40.25 39.1501 40.52 39.2401C40.88 39.3301 41.15 39.5101 41.42 39.6901C41.51 39.7801 41.69 39.8701 41.69 39.9601C41.78 40.0501 41.87 40.1401 41.87 40.1401C41.96 40.2301 42.05 40.3201 42.05 40.3201C42.05 40.4101 42.05 40.4101 42.05 40.5001C42.32 40.6801 42.23 40.6801 42.23 40.6801Z" fill="#6D412F"/>
<path d="M42.0499 34.56C41.6899 34.29 41.4199 34.02 40.8799 33.84C40.6999 33.75 40.7899 33.48 40.8799 33.48C41.4199 33.39 42.0499 33.66 42.4099 34.02C42.6799 34.2 42.3199 34.74 42.0499 34.56Z" fill="#6D412F"/>
<path d="M48.17 33.57C48.44 33.21 48.62 32.85 49.07 32.49C49.25 32.4 49.07 32.13 48.89 32.13C48.35 32.13 47.81 32.58 47.63 33.03C47.45 33.48 47.99 33.93 48.17 33.57Z" fill="#6D412F"/>
<path d="M42.4099 27.27C43.4899 27.18 44.2999 26.1 44.3899 26.19C44.4799 26.28 44.7499 27.27 44.0299 27.9C44.3899 27.99 44.7499 28.08 45.1099 28.35" fill="#E9A63E"/>
<path d="M45.1099 28.62C45.0199 28.62 45.0199 28.62 45.0199 28.62C44.6599 28.35 44.2999 28.26 44.0299 28.26C43.9399 28.26 43.8499 28.17 43.8499 28.08C43.8499 27.99 43.8499 27.9 43.9399 27.81C44.3899 27.36 44.3899 26.91 44.3899 26.64C44.0299 26.91 43.3999 27.54 42.5899 27.54C42.4999 27.54 42.3199 27.45 42.3199 27.36C42.3199 27.27 42.4099 27.09 42.4999 27.09C43.1299 27 43.6699 26.55 44.0299 26.28C44.2099 26.1 44.3899 26.01 44.4799 26.01C44.5699 26.01 44.6599 26.1 44.6599 26.1C44.8399 26.28 45.0199 27.09 44.4799 27.81C44.7499 27.9 45.0199 27.99 45.2899 28.17C45.3799 28.26 45.3799 28.35 45.3799 28.53C45.1999 28.62 45.1999 28.62 45.1099 28.62Z" fill="#B6622C"/>
</g>
<defs>
<clipPath id="clip0_3700_2660">
<rect width="126" height="36" fill="white" transform="translate(29 18)"/>
</clipPath>
</defs>
</svg>
