<svg width="184" height="72" viewBox="0 0 184 72" fill="none" xmlns="http://www.w3.org/2000/svg">
<rect width="184" height="72" fill="#F9FDFE"/>
<g clip-path="url(#clip0_3700_2642)">
<path d="M159.459 32.2336C158.849 32.2336 158.349 31.7385 158.349 31.1282C158.349 30.5179 158.849 30.0169 159.459 30.0169C160.068 30.0169 160.569 30.5179 160.569 31.1282C160.569 31.7385 160.068 32.2336 159.459 32.2336ZM159.459 29.7463C158.7 29.7463 158.079 30.3682 158.079 31.1282C158.079 31.8882 158.7 32.51 159.459 32.51C160.218 32.51 160.839 31.8882 160.839 31.1282C160.839 30.3682 160.218 29.7463 159.459 29.7463Z" fill="black"/>
<path d="M159.551 31.0706L159.258 31.0763L159.252 30.7194H159.545C159.654 30.7136 159.741 30.7827 159.741 30.8921C159.746 31.0015 159.66 31.0706 159.551 31.0706ZM160.028 30.8863C160.022 30.6445 159.856 30.4718 159.585 30.4718L158.97 30.4833L158.987 31.7845H159.269L159.263 31.3182H159.465L159.729 31.7788L160.045 31.773L159.746 31.2779C159.884 31.2433 160.028 31.1167 160.028 30.8863Z" fill="black"/>
<path d="M52.8046 40.3463H49.3552V32.3813H52.7103C53.6153 32.3813 54.1806 32.9663 54.1806 33.7591C54.1806 34.5519 53.6153 35.1179 52.7103 35.1179H48.875V37.4209H52.8046C53.8603 37.4209 54.4255 38.1003 54.4255 38.8926C54.4255 39.7988 53.8223 40.3463 52.8046 40.3463ZM54.7458 36.175C55.9337 35.9297 56.9141 34.8726 56.9141 33.2876C56.9141 31.6075 55.6888 30.0789 53.2945 30.0789H46.6785V42.6678H53.5021C55.8958 42.6678 57.1585 41.1576 57.1585 39.2703C57.1585 37.6846 56.0844 36.3828 54.7458 36.175Z" fill="black"/>
<path d="M64.9938 35.8352H62.1001V38.1946H64.1457L66.6147 42.6677H69.687L66.8597 37.8733C68.2173 37.5526 69.6116 36.3637 69.6116 34.1367M69.6116 34.1367C69.6116 31.7962 68.0097 30.0787 65.3894 30.0787H59.5083V42.6677H62.1849V32.4382H64.9938C66.0685 32.4382 66.8787 33.0796 66.8787 34.1367C66.8787 35.1938 66.0685 35.8352 64.9938 35.8352" fill="black"/>
<path d="M89.9606 38.1757L91.9208 32.759L93.8815 38.1757H89.9606ZM90.2435 30.0789L85.3801 42.6678H88.4334L89.2252 40.5352H94.6164L95.3892 42.6678H98.443L93.5986 30.0789H90.2435Z" fill="black"/>
<path d="M105.713 40.3085H103.432V32.4379H105.713C108.296 32.4379 109.653 34.1553 109.653 36.3829C109.653 38.5156 108.201 40.3085 105.713 40.3085ZM105.713 30.079H100.756V42.6679H105.713C109.653 42.6679 112.386 40.1766 112.386 36.3829C112.386 32.5893 109.653 30.079 105.713 30.079Z" fill="black"/>
<path d="M152.936 30.0763L149.639 35.4136L146.342 30.0763H143.383V42.6675H146.06V34.4382L148.942 38.8267C149.272 39.3281 150.007 39.3281 150.336 38.8267L153.219 34.4382V42.6675H155.896V30.0763H152.936Z" fill="black"/>
<path d="M78.0995 40.4406C75.8737 40.4406 74.0699 38.6338 74.0699 36.4056C74.0699 34.1769 75.8737 32.3702 78.0995 32.3702C80.3248 32.3702 82.1291 34.1769 82.1291 36.4056C82.1291 38.6338 80.3248 40.4406 78.0995 40.4406ZM78.0995 29.7683C74.4385 29.7683 71.4709 32.7398 71.4709 36.4056C71.4709 40.0709 74.4385 43.0424 78.0995 43.0424C81.76 43.0424 84.7281 40.0709 84.7281 36.4056C84.7281 32.7398 81.76 29.7683 78.0995 29.7683Z" fill="black"/>
<path d="M124.432 38.3579C123.745 39.5992 122.424 40.4404 120.906 40.4404C118.681 40.4404 116.876 38.6337 116.876 36.4055C116.876 34.1768 118.681 32.3706 120.906 32.3706C122.411 32.3706 123.722 33.1986 124.414 34.4232L126.294 32.541C125.091 30.8627 123.127 29.7682 120.906 29.7682C117.245 29.7682 114.278 32.7397 114.278 36.4055C114.278 40.0708 117.245 43.0429 120.906 43.0429C123.139 43.0429 125.113 41.9362 126.313 40.2418L124.432 38.3579Z" fill="black"/>
<path d="M134.862 40.4406C132.637 40.4406 130.833 38.6338 130.833 36.4056C130.833 34.1769 132.637 32.3702 134.862 32.3702C137.088 32.3702 138.892 34.1769 138.892 36.4056C138.892 38.6338 137.088 40.4406 134.862 40.4406ZM134.862 29.7683C131.201 29.7683 128.234 32.7398 128.234 36.4056C128.234 40.0709 131.201 43.0424 134.862 43.0424C138.523 43.0424 141.491 40.0709 141.491 36.4056C141.491 32.7398 138.523 29.7683 134.862 29.7683Z" fill="black"/>
<path d="M32.4987 45.8459C37.6548 45.8459 41.8346 41.6608 41.8346 36.4983C41.8346 31.3357 37.6548 27.1506 32.4987 27.1506C27.3427 27.1506 23.1628 31.3357 23.1628 36.4983C23.1628 41.6608 27.3427 45.8459 32.4987 45.8459Z" fill="#CC092F"/>
<path d="M40.7246 39.0237C39.6568 38.5976 38.6793 38.7404 37.6995 39.3351C37.6995 39.3351 37.3424 39.5534 37.2355 39.6207C36.7789 39.9074 36.3482 40.1792 35.9342 40.1792C35.5392 40.1792 35.1505 40.0733 34.9861 39.3081C34.7296 38.1145 34.104 35.1816 33.8309 33.729C33.6705 32.8751 33.5825 32.4151 33.4911 32.1025C33.3301 31.5532 33.0357 31.2544 32.6176 31.2066C32.6176 31.2066 32.5521 31.1974 32.4986 31.1974C32.4457 31.1974 32.3733 31.2078 32.3733 31.2078C31.9593 31.2573 31.6666 31.5561 31.5067 32.1025C31.4153 32.4151 31.3273 32.8751 31.1669 33.729C30.8938 35.1816 30.2682 38.1145 30.0117 39.3081C29.8473 40.0733 29.4586 40.1792 29.0636 40.1792C28.6496 40.1792 28.2189 39.9074 27.7623 39.6207C27.6554 39.5534 27.2977 39.3351 27.2977 39.3351C26.3185 38.7404 25.3404 38.5976 24.2732 39.0237C24.0427 39.1158 23.8156 39.2189 23.5994 39.3232C23.7471 39.7872 23.9311 40.2439 24.1456 40.6729C24.3819 40.5566 24.6297 40.4412 24.8827 40.3663C25.2473 40.2587 25.621 40.2529 25.9833 40.3744C26.3352 40.4924 26.6486 40.7014 26.9608 40.8978C27.549 41.268 28.2154 41.6877 29.0636 41.6877C30.3205 41.6877 31.2026 40.9363 31.4843 39.6259C31.7028 38.6103 32.187 36.3429 32.498 34.7792C32.498 34.7792 33.295 38.6103 33.5129 39.6259C33.7947 40.9363 34.6773 41.6877 35.9342 41.6877C36.7824 41.6877 37.4488 41.268 38.037 40.8978C38.3492 40.7014 38.6626 40.4924 39.0145 40.3744C39.3762 40.2529 39.7505 40.2587 40.1151 40.3663C40.3681 40.4412 40.6155 40.5567 40.8519 40.673C41.0669 40.2441 41.2504 39.7871 41.3982 39.3231C41.182 39.2189 40.9551 39.1158 40.7246 39.0237Z" fill="white"/>
</g>
<defs>
<clipPath id="clip0_3700_2642">
<rect width="138" height="19" fill="white" transform="translate(23 27)"/>
</clipPath>
</defs>
</svg>
