<svg width="184" height="72" viewBox="0 0 184 72" fill="none" xmlns="http://www.w3.org/2000/svg">
<rect width="184" height="72" fill="#F9FDFE"/>
<g clip-path="url(#clip0_1539_10402)">
<path fill-rule="evenodd" clip-rule="evenodd" d="M43.9259 34.1397C41.9384 34.1397 40.3272 35.8916 40.3272 38.0525C40.3272 40.2133 41.9384 41.9652 43.9259 41.9652C45.9133 41.9652 47.5245 40.2133 47.5245 38.0525C47.5245 35.8916 45.9133 34.1397 43.9259 34.1397ZM36.7285 38.0525C36.7285 33.7306 39.9509 30.2271 43.9259 30.2271C47.9008 30.2271 51.1232 33.7306 51.1232 38.0525C51.1232 42.3742 47.9008 45.8778 43.9259 45.8778C39.9509 45.8778 36.7285 42.3742 36.7285 38.0525Z" fill="url(#paint0_linear_1539_10402)"/>
<path d="M49.9663 26.0329C48.7812 25.3276 47.6822 24.4479 46.8992 23.4553C46.1241 22.4727 45.7251 21.4706 45.7251 20.4451H42.1265C42.1265 22.661 43.0082 24.5326 44.1676 26.0025C45.3191 27.4624 46.8083 28.614 48.2383 29.465C51.0335 31.1287 52.9223 34.352 52.9223 38.0522C52.9223 40.4595 52.1226 42.6636 50.7962 44.3677C51.587 44.0221 52.4198 43.7415 53.2751 43.5671C53.998 43.4198 54.7583 43.345 55.5323 43.3802C56.1691 41.7425 56.521 39.942 56.521 38.0522C56.521 32.8656 53.8685 28.3554 49.9663 26.0329Z" fill="url(#paint1_linear_1539_10402)"/>
<path d="M33.8721 46.3081C34.8591 47.7303 36.1193 48.9652 37.6279 49.9123C41.7592 52.5055 46.678 52.2629 50.479 49.7499C51.6333 48.9866 52.8835 48.3915 54.0655 48.1507C55.2358 47.9122 56.2336 48.0376 57.0503 48.5503L58.8496 45.1617C57.0847 44.0539 55.153 43.9483 53.4027 44.3051C51.6639 44.6595 50.0021 45.4859 48.6092 46.4068C45.8865 48.2068 42.3745 48.3738 39.4273 46.5237C37.5054 45.3173 36.1478 43.4565 35.4551 41.3496C35.3351 42.2679 35.1421 43.1936 34.853 44.0872C34.6087 44.8421 34.2876 45.5963 33.8721 46.3081Z" fill="url(#paint2_linear_1539_10402)"/>
<path d="M42.3666 24.4589C40.7431 24.678 39.1323 25.2468 37.6264 26.1921C33.4952 28.7854 31.2291 33.5382 31.3302 38.3736C31.3609 39.8422 31.2098 41.3169 30.8106 42.5505C30.4155 43.7716 29.8168 44.6483 29 45.1611L30.7993 48.5496C32.5643 47.4416 33.6143 45.6757 34.2053 43.849C34.7924 42.0347 34.965 40.0567 34.928 38.2847C34.8555 34.821 36.4785 31.4307 39.4257 29.5806C41.3445 28.3761 43.5017 28.0274 45.5234 28.4257C44.8517 27.8533 44.2107 27.2086 43.6434 26.4894C43.1649 25.8828 42.7254 25.2047 42.3666 24.4589Z" fill="url(#paint3_linear_1539_10402)"/>
<path d="M104.346 32.2777V31.8669C104.346 30.4478 105.21 29.5579 106.538 29.5579V27.0084C105.276 27.0084 103.726 27.4654 102.951 28.3553C102.176 29.2452 101.778 30.3996 101.778 31.8669V43.6542H104.346V34.6107H106.538V32.2777H104.346Z" fill="black"/>
<path d="M110.605 27.0084H108.037V43.6542H110.605V27.0084Z" fill="black"/>
<path d="M139.608 32.2775H137.04V43.654H139.608V36.8199C139.608 36.6666 139.656 36.5169 139.75 36.4028C140.645 35.3177 141.862 34.7512 143.416 34.6827V32.061C141.866 32.061 140.604 32.6143 139.608 33.7206V32.2775Z" fill="black"/>
<path d="M122.911 32.2776H120.364V39.8058C119.545 40.9363 118.638 41.4895 117.641 41.4895C116.047 41.4895 115.073 40.335 115.073 38.3868V32.2776H112.527V38.5552C112.527 40.2148 112.948 41.5376 113.789 42.5238C114.631 43.5099 115.738 44.015 117.11 44.015C118.327 44.015 119.413 43.582 120.364 42.6921V43.6542H122.911V32.2776Z" fill="black"/>
<path d="M95.4464 31.8779C94.251 31.8779 93.1662 32.3108 92.2142 33.1767V32.2386H89.646V43.6152H92.2142V36.0388C93.0334 34.9565 93.9411 34.4033 94.9153 34.4033C96.5093 34.4033 97.4834 35.5097 97.4834 37.506V43.6152H100.03V37.3377C100.03 35.6781 99.6088 34.3553 98.7674 33.3691C97.9262 32.3829 96.8192 31.8779 95.4464 31.8779Z" fill="black"/>
<path fill-rule="evenodd" clip-rule="evenodd" d="M88.0291 37.9391C88.0291 36.2314 87.4979 34.8124 86.4352 33.6819C85.3948 32.5514 84.0663 31.9742 82.4722 31.9742C80.8781 31.9742 79.5498 32.5514 78.4872 33.6819C77.4245 34.8124 76.8931 36.2314 76.8931 37.9391C76.8931 39.6708 77.4245 41.1139 78.4872 42.2684C79.5498 43.3989 80.8781 43.976 82.4722 43.976C84.0442 43.976 85.3726 43.3989 86.4352 42.2684C87.4979 41.1139 88.0291 39.6708 88.0291 37.9391ZM85.4833 37.9391C85.4833 38.9252 85.1953 39.767 84.642 40.4405C84.0884 41.1139 83.3578 41.4506 82.4722 41.4506C81.5866 41.4506 80.8559 41.1139 80.2804 40.4405C79.7269 39.767 79.4392 38.9252 79.4392 37.9391C79.4392 35.9909 80.6789 34.4997 82.4722 34.4997C84.2434 34.4997 85.4833 35.9909 85.4833 37.9391Z" fill="black"/>
<path fill-rule="evenodd" clip-rule="evenodd" d="M135.48 38.1054C135.48 38.2943 135.467 38.5632 135.441 38.912H127.179C127.324 39.7696 127.699 40.4527 128.303 40.9614C128.921 41.4556 129.683 41.7027 130.59 41.7027C131.747 41.7027 132.7 41.2812 133.449 40.4382L134.77 42.117C134.297 42.7419 133.699 43.2144 132.976 43.5341C132.253 43.8538 131.438 44.0138 130.531 44.0138C129.374 44.0138 128.356 43.7594 127.474 43.2507C126.594 42.7419 125.911 42.037 125.425 41.1358C124.951 40.2202 124.714 39.1882 124.714 38.04C124.714 36.9062 124.945 35.8888 125.404 34.9876C125.878 34.072 126.529 33.3597 127.357 32.851C128.185 32.3423 129.118 32.088 130.156 32.088C131.182 32.088 132.095 32.3423 132.897 32.851C133.712 33.3452 134.343 34.0501 134.79 34.9658C135.25 35.867 135.48 36.9135 135.48 38.1054ZM130.156 34.2681C130.006 34.2681 129.862 34.2776 129.72 34.2964H129.677C129.082 34.3724 128.565 34.6106 128.124 35.011C127.593 35.4915 127.269 36.1366 127.152 36.9466H133.042C132.939 36.1504 132.621 35.5052 132.09 35.011C131.659 34.6106 131.143 34.3724 130.543 34.2964H130.511C130.401 34.2779 130.284 34.2681 130.156 34.2681Z" fill="black"/>
<path fill-rule="evenodd" clip-rule="evenodd" d="M154.999 32.3088H152.454V33.5131C151.729 32.6401 150.511 32.088 149.191 32.088C147.729 32.088 146.542 32.5904 145.501 33.7689C144.484 34.9234 143.974 36.3184 143.974 37.978C143.974 39.6376 144.484 41.0326 145.501 42.1871C146.542 43.3415 147.782 43.9188 149.243 43.9188C150.483 43.9188 151.546 43.558 152.454 42.8606V43.6542H154.999V32.3088ZM149.393 41.3636C151.132 41.3636 152.542 39.831 152.542 37.9404C152.542 36.0498 151.132 34.5173 149.393 34.5173C147.655 34.5173 146.245 36.0498 146.245 37.9404C146.245 39.831 147.655 41.3636 149.393 41.3636Z" fill="black"/>
<path d="M67.5417 37.9119C67.5417 39.8617 68.7815 41.3541 70.5526 41.3541C71.8589 41.3541 72.833 40.5597 73.0766 39.3321H75.689C75.5341 40.656 74.9584 41.7633 74.0064 42.6058C73.0544 43.4483 71.9032 43.8575 70.5526 43.8575C68.9807 43.8575 67.6524 43.2798 66.5897 42.1484C65.5271 41.0171 64.9956 39.5969 64.9956 37.9119C64.9956 36.2028 65.5271 34.7827 66.5897 33.6513C67.6524 32.52 68.9807 31.9423 70.5526 31.9423C71.8811 31.9423 73.0323 32.3755 73.9843 33.218C74.9584 34.0605 75.5341 35.1437 75.689 36.4677H73.0766C72.833 35.24 71.8589 34.4697 70.5526 34.4697C68.7815 34.4697 67.5417 35.9621 67.5417 37.9119Z" fill="black"/>
</g>
<defs>
<linearGradient id="paint0_linear_1539_10402" x1="43.9259" y1="30.2271" x2="43.9259" y2="45.8778" gradientUnits="userSpaceOnUse">
<stop stop-color="#0BBAA1"/>
<stop offset="1" stop-color="#1A65D9"/>
</linearGradient>
<linearGradient id="paint1_linear_1539_10402" x1="46.595" y1="21.0136" x2="54.0068" y2="43.4603" gradientUnits="userSpaceOnUse">
<stop stop-color="#08CC96"/>
<stop offset="0.606518" stop-color="#0DB4A5"/>
<stop offset="1" stop-color="#0DB4A5" stop-opacity="0"/>
</linearGradient>
<linearGradient id="paint2_linear_1539_10402" x1="58.8496" y1="46.3992" x2="36.1539" y2="42.2564" gradientUnits="userSpaceOnUse">
<stop stop-color="#186DD4"/>
<stop offset="0.519825" stop-color="#196AD5"/>
<stop offset="1" stop-color="#196AD5" stop-opacity="0"/>
</linearGradient>
<linearGradient id="paint3_linear_1539_10402" x1="34.3043" y1="47.6109" x2="47.09" y2="33.0434" gradientUnits="userSpaceOnUse">
<stop stop-color="#1B63DB"/>
<stop offset="0.572055" stop-color="#0CB7A3"/>
<stop offset="1" stop-color="#0DB4A5" stop-opacity="0"/>
</linearGradient>
<clipPath id="clip0_1539_10402">
<rect width="126" height="32" fill="white" transform="translate(29 20)"/>
</clipPath>
</defs>
</svg>
