<svg width="184" height="72" viewBox="0 0 184 72" fill="none" xmlns="http://www.w3.org/2000/svg">
<rect width="184" height="72" fill="#F9FDFE"/>
<g clip-path="url(#clip0_1539_10405)">
<mask id="mask0_1539_10405" style="mask-type:luminance" maskUnits="userSpaceOnUse" x="30" y="26" width="124" height="20">
<path d="M154 26H30V46H154V26Z" fill="white"/>
</mask>
<g mask="url(#mask0_1539_10405)">
<path d="M112.288 45.2655C112.288 45.6327 111.975 45.9332 111.593 45.9332H101.341C100.958 45.9332 100.645 45.6327 100.645 45.2655V26.6845C100.645 26.3172 100.958 26.0167 101.341 26.0167H101.359H101.376H110.757C111.14 26.0167 111.454 26.3172 111.454 26.6845C111.454 27.0518 111.14 27.3523 110.757 27.3523H102.055V34.3473H108.495C108.877 34.3473 109.191 34.6477 109.191 35.015C109.191 35.3823 108.877 35.6828 108.495 35.6828H102.055V44.581H111.61C111.975 44.5977 112.288 44.8981 112.288 45.2655ZM129.693 44.3139C129.206 44.3139 128.805 44.6978 128.805 45.1653C128.805 45.6327 129.206 46.0167 129.693 46.0167C130.18 46.0167 130.581 45.6327 130.581 45.1653C130.563 44.6978 130.18 44.3139 129.693 44.3139ZM73.9986 26.0167C73.6158 26.0167 73.3025 26.3172 73.3025 26.6845V45.2655C73.3025 45.6327 73.6158 45.9332 73.9986 45.9332C74.3815 45.9332 74.6948 45.6327 74.6948 45.2655V26.6845C74.6948 26.3172 74.399 26.0167 73.9986 26.0167ZM95.0755 26.0167C94.6927 26.0167 94.3794 26.3172 94.3794 26.6845V43.2788L80.8213 26.2838C80.8038 26.2671 80.8038 26.2671 80.7864 26.2504C80.769 26.2337 80.7516 26.217 80.7342 26.2003C80.7168 26.1836 80.6994 26.1669 80.682 26.1669C80.6646 26.1503 80.6472 26.1336 80.6298 26.1336C80.6124 26.1169 80.595 26.1169 80.5602 26.1002C80.5427 26.0835 80.5254 26.0835 80.508 26.0668C80.4905 26.0668 80.4557 26.0501 80.4383 26.0501C80.421 26.0501 80.4035 26.0334 80.3687 26.0334C80.3513 26.0334 80.3165 26.0334 80.2991 26.0334C80.2817 26.0334 80.2643 26.0334 80.2643 26.0334H80.2469C80.2121 26.0334 80.1946 26.0334 80.1599 26.0334C80.1424 26.0334 80.1251 26.0334 80.1076 26.0501C80.0902 26.0501 80.0554 26.0668 80.0381 26.0668C80.0206 26.0668 80.0032 26.0835 79.9684 26.0835C79.951 26.1002 79.9336 26.1002 79.9162 26.1169C79.8988 26.1336 79.8814 26.1336 79.8466 26.1503C79.8466 26.1503 79.8292 26.1503 79.8292 26.1669C79.8118 26.1836 79.8118 26.1836 79.7944 26.2003C79.777 26.217 79.7595 26.2337 79.7422 26.2504C79.7248 26.2671 79.7073 26.2838 79.7073 26.3005C79.69 26.3172 79.6725 26.3339 79.6725 26.3506C79.6551 26.3673 79.6551 26.384 79.6378 26.4007C79.6203 26.4174 79.6203 26.4341 79.6029 26.4674C79.6029 26.4841 79.5855 26.5008 79.5855 26.5342C79.5855 26.5509 79.5681 26.5676 79.5681 26.601C79.5681 26.6177 79.5681 26.6511 79.5681 26.6678C79.5681 26.6845 79.5681 26.7012 79.5681 26.7012V45.2821C79.5681 45.6494 79.8814 45.9499 80.2643 45.9499C80.6472 45.9499 80.9605 45.6494 80.9605 45.2821V28.6544L94.5186 45.6661C94.5186 45.6828 94.536 45.6828 94.536 45.6828C94.5534 45.6995 94.5882 45.7329 94.6057 45.7496C94.623 45.7663 94.6404 45.7663 94.6579 45.783C94.6752 45.7997 94.7101 45.8163 94.7449 45.8331C94.7622 45.8331 94.7797 45.8497 94.7971 45.8497C94.8319 45.8665 94.8667 45.8665 94.9015 45.8831C94.9189 45.8831 94.9189 45.8998 94.9363 45.8998C94.9885 45.9165 95.0408 45.9165 95.093 45.9165C95.1278 45.9165 95.18 45.9165 95.2148 45.8998C95.2322 45.8998 95.2496 45.8998 95.2496 45.8831C95.2844 45.8831 95.3018 45.8665 95.3366 45.8665C95.354 45.8665 95.3714 45.8497 95.3714 45.8497C95.3888 45.8331 95.4236 45.8331 95.4411 45.8163C95.4584 45.8163 95.4759 45.7997 95.4759 45.783C95.4759 45.783 95.4933 45.783 95.4933 45.7663C95.5107 45.7496 95.5107 45.7496 95.5281 45.7329C95.5455 45.7162 95.5629 45.6995 95.5803 45.6828C95.5977 45.6661 95.6151 45.6494 95.6151 45.6327C95.6325 45.616 95.6499 45.5993 95.6499 45.5827C95.6673 45.5659 95.6673 45.5493 95.6847 45.5325C95.7021 45.5159 95.7021 45.4991 95.7195 45.4658C95.7195 45.4491 95.7369 45.4324 95.7369 45.399C95.7369 45.3823 95.7543 45.3656 95.7543 45.3322C95.7543 45.3155 95.7543 45.2821 95.7543 45.2655C95.7543 45.2487 95.7543 45.2321 95.7543 45.2321V26.6845C95.7717 26.3172 95.4584 26.0167 95.0755 26.0167ZM152.615 26.0835C152.232 26.0835 151.919 26.384 151.919 26.7513V45.3322C151.919 45.6995 152.232 46 152.615 46C152.998 46 153.311 45.6995 153.311 45.3322V26.7513C153.311 26.384 152.998 26.0835 152.615 26.0835ZM142.921 26.5008C142.903 26.4674 142.903 26.4674 142.885 26.4508C142.868 26.4341 142.868 26.4007 142.851 26.384L142.834 26.3673C142.816 26.3339 142.799 26.3172 142.764 26.2838C142.764 26.2838 142.746 26.2838 142.746 26.2671C142.712 26.2337 142.695 26.217 142.66 26.2003C142.66 26.2003 142.642 26.1836 142.625 26.1836C142.59 26.1669 142.555 26.1503 142.538 26.1336C142.52 26.1336 142.52 26.1336 142.503 26.1169C142.468 26.1002 142.451 26.1002 142.416 26.1002C142.398 26.1002 142.364 26.1002 142.346 26.1002C142.329 26.1002 142.312 26.1002 142.276 26.1002C142.242 26.1002 142.224 26.1002 142.19 26.1002C142.172 26.1002 142.155 26.1002 142.137 26.1002C142.103 26.1002 142.068 26.1169 142.033 26.1336H142.015C141.981 26.1503 141.946 26.1669 141.911 26.1836H141.893C141.859 26.2003 141.824 26.2337 141.789 26.2671C141.754 26.3005 141.737 26.3172 141.72 26.3506L141.702 26.3673C141.685 26.384 141.668 26.4174 141.668 26.4341C141.668 26.4508 141.65 26.4674 141.65 26.4841C141.65 26.4841 141.65 26.4841 141.65 26.5008L133.905 45.0818C133.766 45.4324 133.94 45.8163 134.288 45.9499C134.375 45.9833 134.462 46 134.549 46C134.828 46 135.089 45.8331 135.193 45.5827L142.294 28.5543L149.395 45.5827C149.499 45.8497 149.761 46 150.039 46C150.126 46 150.213 45.9833 150.3 45.9499C150.666 45.8163 150.839 45.4157 150.683 45.0818L142.921 26.5008ZM55.7761 44.5977H46.221V35.6828H52.6607C53.0436 35.6828 53.3569 35.3823 53.3569 35.015C53.3569 34.6477 53.0436 34.3473 52.6607 34.3473H46.221V27.3523H54.9233C55.3062 27.3523 55.6195 27.0518 55.6195 26.6845C55.6195 26.3172 55.3062 26.0167 54.9233 26.0167H45.5597H45.5422H45.5249C45.1419 26.0167 44.8287 26.3172 44.8287 26.6845V45.2655C44.8287 45.6327 45.1419 45.9332 45.5249 45.9332H55.7761C56.159 45.9332 56.4723 45.6327 56.4723 45.2655C56.4723 44.8981 56.159 44.5977 55.7761 44.5977ZM69.7171 26.0167H60.3535C59.9706 26.0167 59.6574 26.3172 59.6574 26.6845V45.2655C59.6574 45.6327 59.9706 45.9332 60.3535 45.9332C60.7364 45.9332 61.0497 45.6327 61.0497 45.2655V35.6828H67.4545C67.8374 35.6828 68.1507 35.3823 68.1507 35.015C68.1507 34.6477 67.8374 34.3473 67.4545 34.3473H61.0497V27.3523H69.7346C70.1174 27.3523 70.4308 27.0518 70.4308 26.6845C70.4308 26.3172 70.1 26.0167 69.7171 26.0167ZM30.6962 26C30.3133 26 30 26.3005 30 26.6678C30 27.0351 30.3133 27.3356 30.6962 27.3356C35.6565 27.3356 39.6769 31.2087 39.6769 35.9499C39.6769 40.6911 35.6565 44.581 30.6962 44.581C30.3133 44.581 30 44.8815 30 45.2487C30 45.616 30.3133 45.9165 30.6962 45.9165C36.4223 45.9165 41.0693 41.4424 41.0693 35.9666C41.0693 30.4908 36.4223 26 30.6962 26ZM116.901 26C116.518 26 116.205 26.3005 116.205 26.6678C116.205 27.0351 116.518 27.3356 116.901 27.3356C121.861 27.3356 125.882 31.2087 125.882 35.9499C125.882 40.6911 121.844 44.5643 116.901 44.5643C116.518 44.5643 116.205 44.8648 116.205 45.2321C116.205 45.5993 116.518 45.8998 116.901 45.8998C122.627 45.8998 127.274 41.4257 127.274 35.9499C127.274 30.4741 122.627 26 116.901 26Z" fill="url(#paint0_linear_1539_10405)"/>
</g>
</g>
<defs>
<linearGradient id="paint0_linear_1539_10405" x1="30" y1="36.0037" x2="153.31" y2="36.0037" gradientUnits="userSpaceOnUse">
<stop stop-color="#4D24C6"/>
<stop offset="0.5031" stop-color="#FF6F8E"/>
<stop offset="0.7861" stop-color="#FD7B4D"/>
<stop offset="0.9975" stop-color="#FC851A"/>
</linearGradient>
<clipPath id="clip0_1539_10405">
<rect width="124" height="20" fill="white" transform="translate(30 26)"/>
</clipPath>
</defs>
</svg>
