<svg width="184" height="72" viewBox="0 0 184 72" fill="none" xmlns="http://www.w3.org/2000/svg">
<rect width="184" height="72" fill="#F9FDFE"/>
<g clip-path="url(#clip0_1539_10396)">
<path d="M71.0556 34.3376H56.0334V34.2669C56.0334 33.9839 56.1417 33.4887 56.3945 32.746C56.6473 32.0032 57.0445 31.2604 57.6223 30.4823C58.2001 29.7042 58.9945 29.0321 59.9695 28.4308C60.9445 27.8296 62.2084 27.5466 63.6889 27.5466C64.7001 27.5466 65.6389 27.7234 66.5417 28.0771C67.4445 28.4308 68.2028 28.926 68.8889 29.5273C69.5389 30.1286 70.0806 30.836 70.4417 31.6495C70.8028 32.463 71.0195 33.3119 71.0195 34.2669V34.3376H71.0556ZM63.8695 25.3183C62.3528 25.3183 60.9445 25.6013 59.7167 26.1318C58.4528 26.6623 57.3334 27.4051 56.4306 28.3601C55.4917 29.3151 54.7695 30.4469 54.2639 31.7202C53.7584 32.9935 53.5056 34.4083 53.5056 35.9292C53.5056 37.5209 53.7584 38.971 54.2639 40.2443C54.7695 41.553 55.4556 42.6849 56.3945 43.6398C57.3334 44.5948 58.4167 45.3376 59.7167 45.8681C60.9806 46.3987 62.4612 46.6463 64.0139 46.6463C65.8556 46.6463 67.5889 46.2926 69.1056 45.6205C70.6223 44.9485 71.8862 43.8521 72.9334 42.3312L71.0556 40.8456C70.3695 41.9421 69.3584 42.8263 68.0945 43.463C66.7945 44.0996 65.4223 44.4533 64.0501 44.4533C62.4612 44.4533 61.1251 44.135 60.1139 43.5691C59.1028 42.9678 58.2723 42.2604 57.6584 41.4115C57.0445 40.5627 56.6112 39.6784 56.3945 38.7942C56.1778 37.9099 56.0695 37.2025 56.0695 36.6366V36.5659H73.5834V34.7974C73.5834 33.6302 73.3667 32.463 72.9695 31.3312C72.5362 30.1993 71.9223 29.1736 71.1278 28.2894C70.2973 27.4051 69.2862 26.6623 68.0945 26.1318C66.8306 25.5659 65.4223 25.3183 63.8695 25.3183Z" fill="#404040"/>
<path d="M94.1667 34.3376H79.1806V34.2669C79.1806 33.9839 79.2889 33.4887 79.5417 32.746C79.7945 32.0032 80.1917 31.2604 80.7695 30.4823C81.3473 29.7042 82.1417 29.0321 83.1167 28.4308C84.0917 27.8296 85.3556 27.5466 86.8361 27.5466C87.8473 27.5466 88.7861 27.7234 89.6889 28.0771C90.5917 28.4308 91.35 28.926 92.0361 29.5273C92.6861 30.1286 93.2278 30.836 93.5889 31.6495C93.95 32.463 94.1667 33.3119 94.1667 34.2669V34.3376ZM86.9806 25.3183C85.4639 25.3183 84.0556 25.6013 82.8278 26.1318C81.5639 26.6623 80.4806 27.4405 79.5417 28.3601C78.6028 29.3151 77.8806 30.4469 77.375 31.7202C76.8695 32.9935 76.6167 34.4083 76.6167 35.9292C76.6167 37.5209 76.8695 38.971 77.375 40.2443C77.8806 41.553 78.5667 42.6849 79.5056 43.6398C80.4445 44.5948 81.5278 45.3376 82.8278 45.8681C84.0917 46.3987 85.5723 46.6463 87.125 46.6463C88.9667 46.6463 90.7 46.2926 92.2167 45.6205C93.7334 44.9485 94.9973 43.8521 96.0445 42.3312L94.2028 40.8103C93.5167 41.9067 92.5056 42.791 91.2417 43.4276C89.9417 44.0643 88.5695 44.418 87.1973 44.418C85.6084 44.418 84.2723 44.0996 83.2611 43.5337C82.25 42.9324 81.4195 42.225 80.8056 41.3762C80.1917 40.5627 79.7945 39.6784 79.5417 38.7942C79.325 37.9099 79.2167 37.2025 79.2167 36.6366V36.5659H96.7667V34.7974C96.7667 33.6302 96.55 32.463 96.1528 31.3312C95.7195 30.1993 95.1056 29.1736 94.3111 28.2894C93.4806 27.4051 92.4695 26.6623 91.2778 26.1318C89.9778 25.5659 88.5695 25.3183 86.9806 25.3183Z" fill="#404040"/>
<path d="M119.805 44.418C118.542 44.418 117.35 44.2058 116.339 43.746C115.292 43.2861 114.425 42.6849 113.703 41.9421C112.98 41.1993 112.403 40.2797 112.042 39.254C111.68 38.2283 111.464 37.1318 111.464 35.9646C111.464 34.7974 111.644 33.7009 112.042 32.6752C112.403 31.6495 112.98 30.7652 113.703 29.9871C114.425 29.2443 115.328 28.6077 116.339 28.1833C117.386 27.7234 118.542 27.5112 119.805 27.5112C121.069 27.5112 122.261 27.7234 123.272 28.1833C124.319 28.6431 125.186 29.2443 125.908 29.9871C126.63 30.7299 127.208 31.6495 127.569 32.6752C127.93 33.7009 128.147 34.7974 128.147 35.9646C128.147 37.1318 127.967 38.2283 127.569 39.254C127.208 40.2797 126.63 41.1993 125.908 41.9421C125.186 42.6849 124.283 43.3215 123.272 43.746C122.225 44.2058 121.069 44.418 119.805 44.418ZM119.805 25.3183C118.217 25.3183 116.736 25.6013 115.4 26.0964C114.064 26.627 112.908 27.3697 111.933 28.3247C110.994 29.2797 110.236 30.4115 109.694 31.7202C109.153 33.0289 108.9 34.4437 108.9 36C108.9 37.5562 109.189 38.971 109.694 40.2797C110.236 41.5884 110.994 42.7202 111.933 43.6752C112.872 44.6302 114.028 45.373 115.4 45.9035C116.736 46.4341 118.217 46.6816 119.805 46.6816C121.394 46.6816 122.839 46.3987 124.175 45.9035C125.511 45.373 126.667 44.6302 127.642 43.6752C128.617 42.7202 129.375 41.5884 129.917 40.2797C130.458 38.971 130.711 37.5562 130.711 36C130.711 34.4437 130.422 33.0289 129.917 31.7202C129.375 30.4115 128.617 29.2797 127.642 28.3247C126.667 27.3697 125.511 26.627 124.175 26.0964C122.839 25.5659 121.394 25.3183 119.805 25.3183Z" fill="#404040"/>
<path d="M99.7638 46.1158H102.292V35.045C102.292 34.0547 102.436 33.0997 102.689 32.2154C102.978 31.3312 103.375 30.5531 103.953 29.9164C104.531 29.2444 105.253 28.7492 106.119 28.3601C106.95 28.0064 107.961 27.7942 109.117 27.7942V25.4952C106.156 25.5659 103.844 26.4502 102.219 28.1479C99.5833 30.9068 99.7277 34.9389 99.7277 34.9743L99.7638 46.1158Z" fill="#404040"/>
</g>
<defs>
<clipPath id="clip0_1539_10396">
<rect width="78" height="22" fill="white" transform="translate(53 25)"/>
</clipPath>
</defs>
</svg>
