
<svg width="184" height="72" viewBox="0 0 184 72" fill="none" xmlns="http://www.w3.org/2000/svg">
<rect width="184" height="72" fill="#F9FDFE"/>
<path d="M96.4305 43.6435V28.3529H99.6431V40.7365H105.279C106.277 40.7365 106.43 40.5776 106.43 39.2694V28.3529H109.641V39.9565C109.682 43.027 108.838 43.6435 106.779 43.6435H96.4305ZM162.787 43.647V28.3565H166V43.647H162.787ZM112.853 28.3529H123.201C124.676 28.3529 126.105 28.567 126.062 31.6553V43.6435H122.851V32.7541C122.851 31.4376 122.698 31.16 121.7 31.16H116.065V43.6435H112.853V28.3529ZM82.9203 28.3529L86.9492 34.6035L90.9252 28.3529H94.8249L88.5525 38.1294V43.6435H85.3399V38.127L79.0241 28.3529H82.9203ZM63.8095 28.3529H67.0208V34.3788H74.2059V28.3529H77.4172V43.6435H74.2059V37.4035H67.0208V43.6435H63.8095V28.3529ZM142.616 31.6553V39.9317C142.616 42.5659 141.186 43.6435 139.405 43.6435H129.274V28.3529H139.405C142.14 28.3529 142.616 30.1529 142.616 31.6553ZM139.366 32.5753C139.366 31.7388 138.872 31.16 138.008 31.16H132.486V40.7141H138.008C139.267 40.6482 139.366 39.867 139.366 39.247V32.5753ZM159.576 28.3553V43.647H156.366V39.2517H149.039V43.647H145.827V31.6588C145.827 29.5412 146.657 28.3553 149.039 28.3553H159.576ZM156.366 31.1635H150.334C149.322 31.2259 149.039 31.4847 149.039 32.7576V36.2635H156.366V31.1635ZM51.5384 29.1059C54.0591 30.5223 56.9122 33.0117 56.6138 36.3317C56.2697 39.4082 53.4753 41.5565 50.9793 42.8494C43.6932 46.4259 33.4577 46.5376 25.9332 43.4117C23.3902 42.3247 20.5371 40.4588 19.4658 37.6506C18.6472 35.3447 19.6456 32.9388 21.3217 31.34C24.8267 28.0682 29.2961 26.9447 33.897 26.2976C38.8891 25.6741 44.1431 26.2247 48.6136 27.7988C49.612 28.1776 50.5987 28.5929 51.5372 29.1047L51.5384 29.1059ZM47.4261 29.0082C44.4426 28.1541 41.3041 27.6412 37.9752 27.667C36.4295 27.6906 35.3124 29.167 34.6828 30.4247C34.2071 31.4247 33.6609 32.6212 34.0638 33.7694C34.2788 34.147 34.6229 34.4047 35.0035 34.5012C36.6315 34.867 38.1056 34.207 39.568 33.8423C42.4446 32.8776 45.2625 31.7788 47.7221 29.8023C47.829 29.6682 48.0193 29.5341 47.9241 29.3259C47.8184 29.1423 47.6035 29.1059 47.4261 29.0082ZM31.9131 28.4223C31.8297 28.2647 31.6148 28.2882 31.4491 28.2882C29.8564 28.5447 28.3458 28.9965 26.8964 29.5588C24.4473 30.62 21.5108 32.1823 20.7861 35.1117C20.3351 37.3576 21.9031 39.2494 23.6392 40.4212C23.9834 40.5788 24.3522 41.0682 24.7328 40.7023C26.6826 36.4906 28.7382 32.2553 31.865 28.6059L31.9119 28.4223H31.9131ZM52.6566 31.6459C52.2279 31.3517 51.8473 30.9247 51.3129 30.8765C51.2109 30.9128 51.1205 30.9757 51.0509 31.0588C50.4745 32.3764 49.8559 33.6751 49.1962 34.9529C47.7585 37.7976 46.1188 40.6047 43.954 43.1059L43.9187 43.2776C43.9422 43.4247 44.0973 43.4 44.1924 43.4117C45.7135 43.2659 47.1172 42.7765 48.5079 42.3012C51.0627 41.2753 54.2717 39.6647 55.0093 36.6376C55.4616 34.587 54.1296 32.8906 52.6554 31.6447L52.6566 31.6459ZM41.8268 38.1141C41.6365 37.6012 41.102 37.2235 40.5664 37.1494C39.2708 36.9788 38.0457 37.3447 36.8934 37.6859C33.8042 38.7494 30.6763 39.7612 28.0487 41.947C27.9312 42.0576 27.8478 42.2141 27.9077 42.3859C27.9834 42.5063 28.1017 42.5937 28.239 42.6306C31.2068 43.5421 34.2887 44.0269 37.3926 44.0706C38.808 44.2176 39.9838 43.2412 40.6968 42.1059C41.3393 40.8847 42.1122 39.6282 41.8268 38.1141Z" fill="#002C5E"/>
</svg>
