<svg width="184" height="72" viewBox="0 0 184 72" fill="none" xmlns="http://www.w3.org/2000/svg">
<rect width="184" height="72" fill="#F9FDFE"/>
<g clip-path="url(#clip0_1539_10384)">
<path fill-rule="evenodd" clip-rule="evenodd" d="M36.2923 23.9542C36.5898 23.7253 36.9843 23.6047 37.4865 23.6047C37.9198 23.6047 38.2741 23.6934 38.5557 23.8655C38.8388 24.0384 39.0318 24.2854 39.1581 24.5729L39.1583 24.5734L39.1585 24.5738C39.2357 24.7517 39.2888 24.9363 39.321 25.1213L39.3209 25.1213C39.3219 25.1271 39.3227 25.1325 39.3231 25.1352C39.3238 25.1421 39.3242 25.148 39.3243 25.1502C39.3246 25.156 39.3248 25.1625 39.325 25.1683C39.3254 25.1805 39.3257 25.1977 39.326 25.219C39.3267 25.262 39.3273 25.3253 39.328 25.4071C39.3293 25.5711 39.3307 25.8114 39.3322 26.1169C39.3351 26.7281 39.3382 27.6013 39.3414 28.649C39.3478 30.7446 39.3545 33.5389 39.3605 36.3333C39.3665 39.1277 39.3719 41.9221 39.3756 44.018C39.3774 45.066 39.3789 45.9393 39.3798 46.5506C39.3802 46.8563 39.3805 47.0965 39.3807 47.2603C39.3808 47.3422 39.3808 47.405 39.3808 47.4474C39.3809 47.4686 39.3808 47.4848 39.3808 47.4957C39.3808 47.5011 39.3808 47.5055 39.3808 47.5086C39.3808 47.51 39.3808 47.5116 39.3808 47.513C39.3808 47.5139 39.3807 47.5155 39.3807 47.5167C39.3806 47.5197 39.3122 47.67 39.1603 47.7302H39.1493C39.2596 47.737 39.3241 47.6592 39.338 47.6401C39.3571 47.6139 39.3652 47.5898 39.367 47.5844L39.3671 47.5841C39.3702 47.5748 39.372 47.5672 39.3726 47.5641C39.3718 47.5684 39.3709 47.5754 39.368 47.5948C39.3626 47.6304 39.3539 47.6848 39.3382 47.7508C39.3068 47.8822 39.2469 48.0615 39.1252 48.2424C38.8728 48.6177 38.3869 48.9533 37.4865 48.9533C36.8452 48.9533 36.3809 48.7576 36.0722 48.4013C35.8221 48.1125 35.6936 47.7402 35.6353 47.3405C33.9968 47.6364 32.3051 46.8892 31.673 45.5169C30.1178 45.1262 28.9434 43.8982 28.9434 42.3985C28.9434 42.3298 28.9455 42.2608 28.9507 42.1912C27.9686 41.7163 27.3287 40.9229 27.1093 40.0413C26.8981 39.1923 27.0813 38.2769 27.7001 37.5142C26.7258 36.9093 26.1038 35.9552 26.0338 34.9017L26.0338 34.9015C25.9631 33.8252 26.4776 32.7988 27.4009 32.1028C26.736 30.9193 26.9698 29.5031 27.9961 28.522C28.9933 27.5683 30.5397 27.2163 31.94 27.5853C31.9775 25.8035 33.7954 24.5004 35.7755 24.6766C35.8821 24.3951 36.046 24.1437 36.2923 23.9542ZM36.5625 24.2997C36.36 24.4555 36.2245 24.6824 36.1408 24.9737L36.0884 25.1559L35.8991 25.1304C34.0061 24.8751 32.3689 26.1238 32.3803 27.6583L32.3803 27.6591V27.6599C32.3803 27.7252 32.3857 27.7911 32.3935 27.8613L32.4313 28.2055L32.1017 28.0915C30.7695 27.6304 29.2436 27.9363 28.3022 28.8367L28.3022 28.8368C27.3675 29.7302 27.205 31.0114 27.8794 32.0438L27.9965 32.2231L27.8184 32.3434C26.9015 32.9622 26.4102 33.906 26.4737 34.8731C26.5379 35.8389 27.1507 36.7353 28.1461 37.2657L28.4 37.4009L28.2019 37.6085C27.5397 38.3026 27.3433 39.1568 27.5373 39.9365C27.7318 40.7183 28.324 41.4436 29.2757 41.8588L29.4295 41.9259L29.405 42.0908C29.3902 42.1904 29.3843 42.292 29.3843 42.3985C29.3843 43.6808 30.42 44.7906 31.8799 45.1165L31.992 45.1415L32.0355 45.247C32.5589 46.5171 34.1916 47.2535 35.7747 46.8638L36.0275 46.8016L36.0476 47.0592C36.0826 47.51 36.1936 47.8704 36.4066 48.1164C36.6122 48.3537 36.9407 48.5161 37.4865 48.5161C38.26 48.5161 38.5986 48.2375 38.7584 47.9998C38.8428 47.8743 38.8859 47.7475 38.9092 47.6501C38.9208 47.6016 38.9273 47.561 38.9319 47.5304C38.9323 47.528 38.9327 47.5253 38.9331 47.5224C38.9348 47.5106 38.937 47.4961 38.9389 47.4855L38.939 47.4851C38.9392 47.4839 38.9395 47.4821 38.94 47.4798C38.94 47.471 38.94 47.4602 38.94 47.4475C38.94 47.4053 38.9399 47.3426 38.9398 47.2607C38.9397 47.097 38.9394 46.8569 38.9389 46.5513C38.938 45.94 38.9366 45.0667 38.9347 44.0188C38.931 41.923 38.9256 39.1285 38.9196 36.3342C38.9136 33.5399 38.9069 30.7457 38.9005 28.6503C38.8973 27.6026 38.8942 26.7298 38.8913 26.119C38.8899 25.8135 38.8885 25.5739 38.8871 25.4107C38.8865 25.329 38.8858 25.267 38.8852 25.2255C38.8849 25.2067 38.8846 25.1928 38.8844 25.1835C38.8575 25.0342 38.8145 24.8872 38.7537 24.747C38.6572 24.5277 38.5187 24.3564 38.3245 24.2377C38.1286 24.1181 37.8596 24.0419 37.4865 24.0419C37.0561 24.0419 36.7643 24.1444 36.5625 24.2997ZM38.8841 25.1747C38.8841 25.1745 38.8841 25.1746 38.8841 25.1747L38.8841 25.1747Z" fill="#1C4587"/>
<path fill-rule="evenodd" clip-rule="evenodd" d="M39.1385 30.7991C39.1385 30.7991 39.1384 30.7991 39.1384 30.7991L39.1383 30.7991L39.1363 30.7992C39.1344 30.7993 39.1312 30.7995 39.1268 30.7998C39.118 30.8005 39.1045 30.8015 39.0865 30.803C39.0506 30.8062 38.997 30.8115 38.9288 30.8202C38.7922 30.8376 38.5974 30.8684 38.3678 30.9218C37.9068 31.029 37.314 31.2253 36.7699 31.58C36.228 31.9334 35.7374 32.4415 35.4672 33.1766C35.1967 33.9123 35.1388 34.8979 35.503 36.2201C35.5351 36.3366 35.4659 36.4568 35.3484 36.4886C35.231 36.5204 35.1098 36.4518 35.0777 36.3353C34.6956 34.9483 34.7441 33.8672 35.053 33.0268C35.3622 32.1857 35.924 31.6083 36.5277 31.2147C37.1293 30.8225 37.7755 30.6105 38.2671 30.4961C38.5137 30.4388 38.7236 30.4055 38.8726 30.3865C38.9472 30.377 39.0066 30.3711 39.048 30.3675C39.0687 30.3657 39.0849 30.3645 39.0962 30.3637C39.1019 30.3633 39.1063 30.363 39.1095 30.3628L39.1133 30.3626L39.1145 30.3625L39.1149 30.3625C39.115 30.3625 39.1152 30.3625 39.1268 30.5808L39.1152 30.3625C39.2367 30.3561 39.3405 30.4487 39.3469 30.5693C39.3533 30.6898 39.26 30.7926 39.1385 30.7991L39.1385 30.7991Z" fill="#1C4587"/>
<path fill-rule="evenodd" clip-rule="evenodd" d="M35.6905 28.3235L35.6917 28.3232C35.6929 28.3229 35.695 28.3224 35.6978 28.3217C35.7035 28.3204 35.7123 28.3183 35.724 28.3156C35.7476 28.3103 35.7828 28.3027 35.828 28.2938C35.9186 28.2761 36.0489 28.2536 36.2055 28.2349C36.5204 28.1972 36.9335 28.1761 37.3415 28.2361C37.7508 28.2964 38.1355 28.4353 38.4164 28.7013C38.6914 28.9617 38.8913 29.367 38.8913 30.0131C38.8913 30.1338 38.99 30.2317 39.1117 30.2317C39.2334 30.2317 39.3321 30.1338 39.3321 30.0131C39.3321 29.2692 39.0976 28.7418 38.7209 28.3851C38.35 28.0339 37.8659 27.8713 37.4062 27.8036C36.9453 27.7358 36.4895 27.7606 36.1527 27.8008C35.9835 27.821 35.8422 27.8454 35.7427 27.8649C35.6929 27.8746 35.6535 27.8831 35.626 27.8893C35.6123 27.8924 35.6016 27.8949 35.5942 27.8967C35.5904 27.8976 35.5875 27.8984 35.5854 27.8989L35.5828 27.8995L35.582 27.8997L35.5818 27.8998C35.5817 27.8998 35.5816 27.8998 35.6356 28.1099L35.5816 27.8998C35.4636 27.9296 35.3923 28.0487 35.4224 28.1657C35.4525 28.2826 35.5724 28.3533 35.6903 28.3235L35.6905 28.3235L35.6905 28.3235Z" fill="#1C4587"/>
<path fill-rule="evenodd" clip-rule="evenodd" d="M32.1596 27.4413C32.2812 27.4413 32.3798 27.5389 32.3801 27.6594L32.3801 27.6608C32.3801 27.6624 32.3802 27.6652 32.3803 27.6691C32.3805 27.6771 32.381 27.6897 32.3819 27.7067C32.3839 27.7408 32.3879 27.792 32.3962 27.8573C32.4127 27.9881 32.446 28.1742 32.513 28.3908C32.647 28.824 32.9143 29.3745 33.4481 29.8505C33.5386 29.9312 33.546 30.0695 33.4646 30.1592C33.3832 30.249 33.2438 30.2564 33.1533 30.1756C32.5461 29.6341 32.2428 29.008 32.0915 28.519C32.0159 28.2745 31.9779 28.0631 31.9587 27.9117C31.9492 27.8359 31.9443 27.7748 31.9418 27.7318C31.9406 27.7103 31.9399 27.6933 31.9396 27.6812C31.9394 27.6751 31.9393 27.6703 31.9393 27.6667C31.9392 27.6649 31.9392 27.6635 31.9392 27.6623L31.9392 27.6609L31.9392 27.6603L31.9392 27.6601C31.9392 27.66 31.9392 27.6599 32.1596 27.6599H31.9392C31.9392 27.5392 32.0379 27.4413 32.1596 27.4413Z" fill="#1C4587"/>
<path fill-rule="evenodd" clip-rule="evenodd" d="M31.4328 32.1973C31.5237 32.0466 31.6728 31.8585 31.9092 31.693C32.397 31.3515 33.2118 31.1358 34.5463 31.4559C34.6646 31.4842 34.7374 31.6024 34.7087 31.7197C34.6801 31.8371 34.561 31.9092 34.4427 31.8808C33.1938 31.5813 32.5192 31.8011 32.1635 32.0502C31.9822 32.177 31.8721 32.3192 31.8077 32.4274C31.7755 32.4816 31.7548 32.5271 31.7426 32.5574C31.7365 32.5726 31.7326 32.5839 31.7305 32.5905C31.7294 32.5938 31.7288 32.5959 31.7285 32.5967C31.7285 32.5967 31.7285 32.5968 31.7285 32.5968C31.7085 32.6698 31.6519 32.7274 31.5788 32.749C31.5052 32.7708 31.4255 32.753 31.3684 32.7021C31.3684 32.7021 31.3684 32.7021 31.3684 32.7021C31.3683 32.7021 31.3683 32.7021 31.3683 32.7021L31.3682 32.7019M31.3682 32.7019L31.368 32.7018C31.3675 32.7013 31.3665 32.7005 31.3651 32.6993C31.3623 32.6968 31.3578 32.6929 31.3515 32.6877C31.339 32.6772 31.3198 32.6613 31.2942 32.6412C31.243 32.601 31.1668 32.544 31.069 32.479C30.8728 32.3488 30.593 32.1888 30.2576 32.0678C29.5897 31.8268 28.7132 31.7425 27.8179 32.3437C27.7171 32.4114 27.5801 32.3852 27.5118 32.2852C27.4435 32.1853 27.4699 32.0493 27.5707 31.9817C28.6165 31.2795 29.6507 31.3836 30.4083 31.6569C30.7855 31.793 31.0972 31.9716 31.3142 32.1157C31.3574 32.1444 31.397 32.1718 31.4328 32.1973" fill="#1C4587"/>
<path fill-rule="evenodd" clip-rule="evenodd" d="M32.9216 36.6344C32.9918 36.7331 32.9681 36.8695 32.8686 36.9391C32.4103 37.26 31.9641 37.6624 31.7314 38.1302C31.5072 38.5807 31.4727 39.1058 31.8628 39.7232C31.9067 39.7926 31.9077 39.8805 31.8655 39.951C31.8233 40.0214 31.745 40.0625 31.6625 40.0575C30.7057 39.9992 30.1485 40.4246 29.8183 40.9383C29.4786 41.4668 29.3798 42.0929 29.3798 42.3897C29.3798 42.5105 29.2811 42.6084 29.1594 42.6084C29.0377 42.6084 28.939 42.5105 28.939 42.3897C28.939 42.0307 29.0515 41.3178 29.4465 40.7032C29.8039 40.1473 30.3923 39.6753 31.3083 39.6203C31.0309 39.0013 31.0897 38.4319 31.336 37.9367C31.6176 37.3707 32.1358 36.9169 32.6144 36.5819C32.7138 36.5123 32.8514 36.5358 32.9216 36.6344Z" fill="#1C4587"/>
<path fill-rule="evenodd" clip-rule="evenodd" d="M32.8546 42.5592C32.8546 42.5592 32.8546 42.5592 32.8546 42.5592L32.8546 42.5592C32.8546 42.5592 32.8546 42.5592 32.8546 42.5592ZM32.8548 42.5591C32.944 42.4773 32.9497 42.3392 32.8673 42.2505C32.7849 42.1617 32.6454 42.1559 32.5558 42.2377L32.7051 42.3985C32.5558 42.2377 32.5557 42.2378 32.5557 42.2379L32.5554 42.2381L32.5549 42.2386L32.5534 42.24C32.5522 42.2411 32.5506 42.2426 32.5486 42.2444C32.5448 42.2481 32.5395 42.2531 32.5328 42.2596C32.5196 42.2726 32.5011 42.2911 32.4784 42.3151C32.433 42.363 32.3706 42.4326 32.2998 42.5223C32.1584 42.7014 31.9814 42.963 31.8388 43.2937C31.5515 43.9603 31.4073 44.9038 31.9629 45.9964C32.0177 46.1042 32.1503 46.1475 32.259 46.0931C32.3677 46.0388 32.4114 45.9073 32.3565 45.7995C31.8698 44.8424 31.9983 44.0362 32.2442 43.4655C32.3683 43.1776 32.5232 42.9486 32.6469 42.7918C32.7086 42.7137 32.7622 42.654 32.7995 42.6146C32.8182 42.5949 32.8328 42.5803 32.8423 42.571C32.847 42.5664 32.8505 42.5631 32.8526 42.5611C32.8536 42.5601 32.8543 42.5595 32.8546 42.5592C32.8547 42.5592 32.8547 42.5591 32.8548 42.5591C32.8548 42.5591 32.8548 42.5591 32.8548 42.5591Z" fill="#1C4587"/>
<path fill-rule="evenodd" clip-rule="evenodd" d="M36.3196 43.012C36.92 42.5136 37.8464 42.0487 39.1344 42.1811C39.2555 42.1935 39.3435 42.301 39.3309 42.4211C39.3184 42.5412 39.2101 42.6284 39.089 42.616C37.9431 42.4982 37.1316 42.9082 36.6026 43.3473C36.3367 43.5679 36.1422 43.7962 36.0146 43.9689C35.9509 44.0551 35.9042 44.127 35.8738 44.1764C35.8587 44.2011 35.8477 44.2202 35.8407 44.2325C35.8372 44.2387 35.8347 44.2433 35.8333 44.246C35.8325 44.2473 35.832 44.2482 35.8318 44.2487L35.8318 44.2488C35.8317 44.2488 35.8317 44.2489 35.8317 44.2489C35.7806 44.3465 35.6644 44.3913 35.5604 44.3536C35.5601 44.3535 35.5596 44.3533 35.5588 44.353C35.5564 44.3523 35.552 44.3508 35.5455 44.349C35.5326 44.3452 35.5119 44.3398 35.485 44.3346C35.4308 44.3241 35.3537 44.3149 35.2646 44.3204C35.0912 44.3312 34.8663 44.3971 34.6637 44.6381C34.5858 44.7309 34.4468 44.7434 34.3532 44.6661C34.2597 44.5888 34.2471 44.451 34.325 44.3582C34.6177 44.01 34.9636 43.901 35.2372 43.8841C35.3509 43.877 35.451 43.8858 35.5291 43.8984C35.5626 43.8462 35.6058 43.7824 35.659 43.7104C35.8028 43.516 36.0208 43.26 36.3196 43.012Z" fill="#1C4587"/>
<path fill-rule="evenodd" clip-rule="evenodd" d="M34.8905 34.2197C34.9859 34.1447 35.1246 34.1606 35.2002 34.2552C35.2759 34.3498 35.2598 34.4873 35.1644 34.5623L35.0275 34.391C35.1644 34.5623 35.1644 34.5623 35.1643 34.5624L35.1634 34.5631L35.1615 34.5645C35.16 34.5658 35.1578 34.5674 35.1551 34.5695C35.1496 34.5737 35.1417 34.5797 35.1317 34.5871C35.1116 34.6021 35.0825 34.6233 35.0453 34.6493C34.9709 34.7011 34.8637 34.7723 34.7301 34.8512C34.4639 35.0084 34.0885 35.1991 33.6567 35.3269C33.2254 35.4546 32.7279 35.5225 32.2237 35.4226C31.7148 35.3218 31.2133 35.0526 30.7774 34.5304C30.6998 34.4374 30.7129 34.2996 30.8067 34.2226C30.9005 34.1456 31.0394 34.1586 31.1171 34.2516C31.4896 34.6979 31.9023 34.913 32.31 34.9938C32.7224 35.0755 33.144 35.0224 33.5306 34.9079C33.9168 34.7936 34.2582 34.621 34.5045 34.4756C34.6272 34.4031 34.725 34.3381 34.7917 34.2916C34.825 34.2684 34.8504 34.2498 34.8672 34.2374C34.8755 34.2311 34.8817 34.2264 34.8857 34.2234C34.8876 34.2219 34.889 34.2208 34.8898 34.2202L34.8905 34.2197Z" fill="#1C4587"/>
<path fill-rule="evenodd" clip-rule="evenodd" d="M35.0271 38.4332L34.9802 38.2196C34.8612 38.2453 34.7858 38.3618 34.8117 38.4797C34.8376 38.5976 34.955 38.6724 35.0738 38.6468C35.0738 38.6469 35.0738 38.6469 35.0738 38.6468L35.0739 38.6468C35.0739 38.6468 35.0739 38.6468 35.0739 38.6468C35.0739 38.6468 35.0739 38.6468 35.0739 38.6468L35.0746 38.6467C35.0754 38.6465 35.0768 38.6462 35.0787 38.6458C35.0827 38.645 35.089 38.6438 35.0975 38.6421C35.1147 38.6389 35.1407 38.6342 35.1749 38.6287C35.2433 38.6176 35.3439 38.6035 35.4699 38.5915C35.7224 38.5676 36.0745 38.5528 36.4722 38.5892C37.2698 38.6621 38.2288 38.9384 38.9474 39.7354C39.0285 39.8254 39.1679 39.8332 39.2586 39.7527C39.3494 39.6722 39.3572 39.534 39.276 39.444C38.456 38.5344 37.3726 38.2324 36.5126 38.1538C36.0815 38.1143 35.7009 38.1304 35.428 38.1563C35.2913 38.1693 35.181 38.1847 35.1041 38.1971C35.0657 38.2033 35.0356 38.2088 35.0146 38.2127C35.0042 38.2147 34.996 38.2163 34.9902 38.2175C34.9873 38.2181 34.985 38.2186 34.9834 38.2189L34.9813 38.2194L34.9806 38.2195L34.9804 38.2196C34.9803 38.2196 34.9802 38.2196 35.0271 38.4332Z" fill="#1C4587"/>
<path fill-rule="evenodd" clip-rule="evenodd" d="M41.3647 31.0755C44.4463 31.0755 46.9444 33.3985 46.9444 36.264C46.9444 39.1295 44.4463 41.4525 41.3647 41.4525V38.8583C43.0016 38.8583 44.3285 37.6968 44.3285 36.264C44.3285 34.8312 43.0016 33.6698 41.3647 33.6698V31.0755Z" fill="#1C4587"/>
<path fill-rule="evenodd" clip-rule="evenodd" d="M41.3647 31.0755C44.4463 31.0755 46.9444 33.3985 46.9444 36.264C46.9444 39.1295 44.4463 41.4525 41.3647 41.4525V38.8583C43.0016 38.8583 44.3285 37.6968 44.3285 36.264C44.3285 34.8312 43.0016 33.6698 41.3647 33.6698V31.0755Z" stroke="#1C4587" stroke-miterlimit="10" stroke-linejoin="round"/>
<path fill-rule="evenodd" clip-rule="evenodd" d="M39.1416 23.8229H42.5946V36.6398H39.1416V23.8229Z" fill="#1C4587"/>
<path fill-rule="evenodd" clip-rule="evenodd" d="M39.1416 23.8229H42.5946V36.6398H39.1416V23.8229Z" stroke="#1C4587" stroke-miterlimit="10" stroke-linejoin="round"/>
<path fill-rule="evenodd" clip-rule="evenodd" d="M39.1416 35.7697H42.5946V48.5866H39.1416V35.7697Z" fill="#1C4587"/>
<path fill-rule="evenodd" clip-rule="evenodd" d="M39.1416 35.7697H42.5946V48.5866H39.1416V35.7697Z" stroke="#1C4587" stroke-miterlimit="10" stroke-linejoin="round"/>
<path fill-rule="evenodd" clip-rule="evenodd" d="M50.0392 25.5573L53.5451 28.6733L46.4605 34.9701L42.9546 31.854L50.0392 25.5573Z" fill="#1C4587"/>
<path fill-rule="evenodd" clip-rule="evenodd" d="M50.0392 25.5573L53.5451 28.6733L46.4605 34.9701L42.9546 31.854L50.0392 25.5573Z" stroke="#1C4587" stroke-miterlimit="10" stroke-linejoin="round"/>
<path fill-rule="evenodd" clip-rule="evenodd" d="M53.6046 43.6833L49.973 46.911L42.8884 40.6143L46.52 37.3865L53.6046 43.6833Z" fill="#1C4587"/>
<path fill-rule="evenodd" clip-rule="evenodd" d="M53.6046 43.6833L49.973 46.911L42.8884 40.6143L46.52 37.3865L53.6046 43.6833Z" stroke="#1C4587" stroke-miterlimit="10" stroke-linejoin="round"/>
<path d="M60.9954 43.3711V29.6879H64.7504V35.22H64.9395L69.0998 29.6879H73.4761L68.8026 35.7812L73.5842 43.3711H69.0998L65.9931 38.2399L64.7504 39.8434V43.3711H60.9954Z" fill="black"/>
<path d="M78.3726 29.6879V43.3711H74.6445V29.6879H78.3726Z" fill="black"/>
<path d="M85.2697 43.5581C84.1441 43.5581 83.1806 43.3377 82.3792 42.8967C81.5777 42.4513 80.9632 41.8322 80.5354 41.0393C80.1077 40.242 79.8938 39.3178 79.8938 38.2666C79.8938 37.2154 80.1077 36.2934 80.5354 35.5006C80.9632 34.7033 81.5777 34.0842 82.3792 33.6432C83.1806 33.1978 84.1441 32.9751 85.2697 32.9751C86.3954 32.9751 87.3589 33.1978 88.1603 33.6432C88.9617 34.0842 89.5763 34.7033 90.0041 35.5006C90.4318 36.2934 90.6457 37.2154 90.6457 38.2666C90.6457 39.3178 90.4318 40.242 90.0041 41.0393C89.5763 41.8322 88.9617 42.4513 88.1603 42.8967C87.3589 43.3377 86.3954 43.5581 85.2697 43.5581ZM85.2968 40.8322C85.6119 40.8322 85.8843 40.7275 86.114 40.5182C86.3436 40.3088 86.5214 40.0104 86.6475 39.6229C86.7736 39.2354 86.8366 38.7744 86.8366 38.2399C86.8366 37.7009 86.7736 37.2399 86.6475 36.8569C86.5214 36.4694 86.3436 36.1709 86.114 35.9616C85.8843 35.7522 85.6119 35.6476 85.2968 35.6476C84.9636 35.6476 84.6777 35.7522 84.439 35.9616C84.2004 36.1709 84.0181 36.4694 83.892 36.8569C83.7659 37.2399 83.7029 37.7009 83.7029 38.2399C83.7029 38.7744 83.7659 39.2354 83.892 39.6229C84.0181 40.0104 84.2004 40.3088 84.439 40.5182C84.6777 40.7275 84.9636 40.8322 85.2968 40.8322Z" fill="black"/>
<path d="M98.8851 38.8813V33.1087H102.613V43.3711H99.0742V41.4201H98.9662C98.7411 42.0749 98.3471 42.5871 97.7843 42.9568C97.2215 43.3221 96.5529 43.5047 95.7785 43.5047C95.0536 43.5047 94.4187 43.3399 93.8739 43.0103C93.3336 42.6807 92.9126 42.2263 92.611 41.6473C92.3138 41.0683 92.163 40.4046 92.1585 39.6563V33.1087H95.8865V38.8813C95.891 39.389 96.0216 39.7877 96.2782 40.0772C96.5394 40.3667 96.9041 40.5115 97.3723 40.5115C97.683 40.5115 97.9509 40.4469 98.176 40.3177C98.4056 40.1841 98.5812 39.997 98.7028 39.7565C98.8289 39.5115 98.8896 39.2198 98.8851 38.8813Z" fill="black"/>
<path d="M108.264 43.5047C107.526 43.5047 106.846 43.3132 106.225 42.9301C105.608 42.547 105.113 41.9658 104.739 41.1863C104.37 40.4068 104.185 39.4247 104.185 38.2399C104.185 37.0016 104.379 35.995 104.766 35.22C105.158 34.4449 105.662 33.877 106.279 33.5163C106.9 33.1555 107.553 32.9751 108.237 32.9751C108.751 32.9751 109.201 33.0642 109.588 33.2423C109.975 33.416 110.299 33.6499 110.561 33.9438C110.822 34.2334 111.02 34.5518 111.155 34.8993H111.209V29.6879H114.937V43.3711H111.236V41.6874H111.155C111.011 42.0348 110.804 42.3466 110.534 42.6228C110.268 42.8945 109.944 43.1105 109.561 43.2708C109.183 43.4267 108.751 43.5047 108.264 43.5047ZM109.642 40.6718C109.984 40.6718 110.277 40.5739 110.52 40.3779C110.768 40.1774 110.957 39.8968 111.087 39.536C111.222 39.1708 111.29 38.7387 111.29 38.2399C111.29 37.7321 111.222 37.2978 111.087 36.937C110.957 36.5718 110.768 36.2934 110.52 36.1019C110.277 35.9059 109.984 35.8079 109.642 35.8079C109.3 35.8079 109.007 35.9059 108.764 36.1019C108.525 36.2934 108.341 36.5718 108.21 36.937C108.084 37.2978 108.021 37.7321 108.021 38.2399C108.021 38.7477 108.084 39.1842 108.21 39.5494C108.341 39.9102 108.525 40.1886 108.764 40.3846C109.007 40.5761 109.3 40.6718 109.642 40.6718Z" fill="black"/>
<path d="M122.981 33.1087V35.7812H116.038V33.1087H122.981ZM117.361 43.3711V32.8147C117.361 31.9684 117.515 31.2669 117.821 30.7101C118.127 30.1534 118.559 29.7369 119.117 29.4607C119.676 29.1846 120.333 29.0465 121.09 29.0465C121.562 29.0465 122.022 29.0821 122.467 29.1534C122.918 29.2247 123.251 29.287 123.467 29.3405L122.927 31.9863C122.791 31.9462 122.634 31.915 122.454 31.8927C122.274 31.866 122.116 31.8526 121.981 31.8526C121.63 31.8526 121.393 31.9261 121.272 32.0731C121.15 32.2201 121.09 32.4138 121.09 32.6544V43.3711H117.361Z" fill="black"/>
<path d="M131.146 38.8813V33.1087H134.874V43.3711H131.335V41.4201H131.227C131.002 42.0749 130.608 42.5871 130.045 42.9568C129.482 43.3221 128.813 43.5047 128.039 43.5047C127.314 43.5047 126.679 43.3399 126.135 43.0103C125.594 42.6807 125.173 42.2263 124.872 41.6473C124.574 41.0683 124.424 40.4046 124.419 39.6563V33.1087H128.147V38.8813C128.152 39.389 128.282 39.7877 128.539 40.0772C128.8 40.3667 129.165 40.5115 129.633 40.5115C129.944 40.5115 130.211 40.4469 130.437 40.3177C130.666 40.1841 130.842 39.997 130.963 39.7565C131.089 39.5115 131.15 39.2198 131.146 38.8813Z" fill="black"/>
<path d="M146.252 36.4493H142.821C142.803 36.24 142.729 36.0596 142.598 35.9081C142.468 35.7567 142.299 35.6409 142.092 35.5607C141.889 35.4761 141.664 35.4338 141.416 35.4338C141.097 35.4338 140.822 35.4917 140.592 35.6075C140.363 35.7233 140.25 35.8881 140.255 36.1019C140.25 36.2533 140.316 36.3936 140.451 36.5228C140.59 36.652 140.858 36.7522 141.254 36.8235L143.361 37.1976C144.424 37.3891 145.214 37.7121 145.732 38.1664C146.254 38.6163 146.518 39.2198 146.522 39.977C146.518 40.7075 146.297 41.3422 145.86 41.8811C145.428 42.4156 144.836 42.8299 144.084 43.1239C143.337 43.4134 142.483 43.5581 141.524 43.5581C139.94 43.5581 138.699 43.2374 137.803 42.596C136.912 41.9546 136.414 41.1084 136.311 40.0572H140.012C140.061 40.3823 140.223 40.634 140.498 40.8122C140.777 40.9859 141.128 41.0727 141.551 41.0727C141.894 41.0727 142.175 41.0148 142.396 40.899C142.621 40.7832 142.736 40.6184 142.74 40.4046C142.736 40.2086 142.637 40.0527 142.443 39.9369C142.254 39.8211 141.957 39.7276 141.551 39.6563L139.714 39.3356C138.656 39.153 137.864 38.8056 137.337 38.2933C136.81 37.7811 136.549 37.1219 136.554 36.3157C136.549 35.603 136.738 34.9995 137.121 34.5051C137.508 34.0062 138.06 33.6276 138.776 33.3693C139.496 33.1065 140.349 32.9751 141.335 32.9751C142.835 32.9751 144.017 33.2824 144.881 33.8971C145.75 34.5118 146.207 35.3625 146.252 36.4493Z" fill="black"/>
<path d="M152.921 43.5581C151.814 43.5581 150.859 43.3488 150.058 42.9301C149.261 42.507 148.646 41.9012 148.214 41.1128C147.786 40.32 147.572 39.3712 147.572 38.2666C147.572 37.2065 147.788 36.2801 148.221 35.4872C148.653 34.6944 149.263 34.0775 150.051 33.6365C150.839 33.1956 151.769 32.9751 152.84 32.9751C153.624 32.9751 154.333 33.0953 154.968 33.3359C155.602 33.5764 156.145 33.926 156.595 34.3848C157.045 34.8391 157.392 35.3914 157.635 36.0418C157.878 36.6921 158 37.4248 158 38.2399V39.0951H148.734V37.064H154.569C154.565 36.77 154.488 36.5117 154.34 36.289C154.195 36.0618 154 35.8859 153.752 35.7611C153.509 35.632 153.232 35.5674 152.921 35.5674C152.62 35.5674 152.343 35.632 152.091 35.7611C151.838 35.8859 151.636 36.0596 151.483 36.2823C151.334 36.505 151.255 36.7656 151.246 37.064V39.2554C151.246 39.585 151.316 39.879 151.456 40.1373C151.595 40.3957 151.796 40.5984 152.057 40.7453C152.318 40.8923 152.633 40.9658 153.002 40.9658C153.259 40.9658 153.493 40.9302 153.705 40.8589C153.921 40.7877 154.105 40.6852 154.258 40.5516C154.412 40.4135 154.524 40.2487 154.596 40.0572H158C157.883 40.7698 157.606 41.389 157.169 41.9146C156.733 42.4357 156.154 42.841 155.434 43.1305C154.718 43.4156 153.88 43.5581 152.921 43.5581Z" fill="black"/>
</g>
<defs>
<clipPath id="clip0_1539_10384">
<rect width="132" height="26" fill="white" transform="translate(26 23)"/>
</clipPath>
</defs>
</svg>
