<svg width="184" height="72" viewBox="0 0 184 72" fill="none" xmlns="http://www.w3.org/2000/svg">
<rect width="184" height="72" fill="#F9FDFE"/>
<mask id="mask0_3700_2639" style="mask-type:luminance" maskUnits="userSpaceOnUse" x="38" y="24" width="8" height="9">
<path d="M40.3689 29.4558V27.4325C40.3689 27.1953 40.5643 26.9999 40.8016 26.9999H42.8255C43.0628 26.9999 43.2582 27.1953 43.2582 27.4325V29.4558C43.2582 29.693 43.0628 29.8883 42.8255 29.8883H40.8016C40.5643 29.8883 40.3689 29.693 40.3689 29.4558ZM39.2662 24.7953C38.652 24.7953 38.1635 25.2976 38.1635 25.8976V30.9906C38.1635 31.6046 38.666 32.093 39.2662 32.093H44.3609C44.9751 32.093 45.4636 31.5906 45.4636 30.9906V25.8976C45.4636 25.2837 44.9611 24.7953 44.3609 24.7953H39.2662V24.7953Z" fill="white"/>
</mask>
<g mask="url(#mask0_3700_2639)">
<path d="M45.4776 24.7953H38.1635V32.1069H45.4776V24.7953Z" fill="url(#paint0_radial_3700_2639)"/>
</g>
<path d="M30.8494 25.8976V38.2883C30.8494 38.9023 31.3519 39.3906 31.9521 39.3906H44.3469C44.9611 39.3906 45.4496 38.9023 45.4496 38.2883V36.1255C45.4496 35.5116 44.9611 35.0232 44.3469 35.0232H36.335C35.7208 35.0232 35.2323 34.5348 35.2323 33.9209V25.8976C35.2323 25.2837 34.7298 24.7953 34.1296 24.7953H31.9521C31.3519 24.7953 30.8494 25.2837 30.8494 25.8976Z" fill="#0D588C"/>
<path d="M28.1137 41.0232V25.8976C28.1137 25.2837 27.6112 24.7953 27.011 24.7953H24.1496C23.5354 24.7953 23.0469 25.2976 23.0469 25.8976V46.1023C23.0469 46.7162 23.5494 47.2046 24.1496 47.2046H44.3609C44.9751 47.2046 45.4636 46.7023 45.4636 46.1023V43.2418C45.4636 42.6278 44.9751 42.1395 44.3609 42.1395H29.2303C28.6162 42.1395 28.1137 41.6371 28.1137 41.0232Z" fill="#07334C"/>
<mask id="mask1_3700_2639" style="mask-type:luminance" maskUnits="userSpaceOnUse" x="56" y="29" width="11" height="14">
<path d="M57.2023 29.9582C57.0348 30.1116 56.9371 30.307 56.9371 30.5303V41.0791C56.9371 41.3861 57.0628 41.6512 57.3 41.8744C57.5513 42.0977 57.8444 42.2093 58.1794 42.2093H65.2701C65.5214 42.2093 65.7447 42.1396 65.9122 41.9721C66.0937 41.8186 66.1774 41.6372 66.1774 41.4C66.1774 41.1768 66.0937 40.9814 65.9122 40.8279C65.7308 40.6744 65.5214 40.5907 65.2701 40.5907H58.7656V30.5442C58.7656 30.3209 58.6819 30.1256 58.5004 29.9721C58.319 29.8186 58.1096 29.7349 57.8584 29.7349C57.5932 29.707 57.3838 29.7907 57.2023 29.9582Z" fill="white"/>
</mask>
<g mask="url(#mask1_3700_2639)">
<path d="M66.1915 29.707H56.9512V42.1814H66.1915V29.707Z" fill="url(#paint1_linear_3700_2639)"/>
</g>
<mask id="mask2_3700_2639" style="mask-type:luminance" maskUnits="userSpaceOnUse" x="68" y="29" width="3" height="14">
<path d="M69.0668 29.9582C68.8993 30.1117 68.8016 30.307 68.8016 30.5303V41.4838C68.8016 41.707 68.8854 41.9024 69.0668 42.0559C69.2343 42.2094 69.4577 42.2931 69.7089 42.2931C69.9602 42.2931 70.1835 42.2094 70.351 42.0559C70.5324 41.9024 70.6162 41.707 70.6162 41.4838V30.5303C70.6162 30.307 70.5324 30.1117 70.351 29.9582C70.1695 29.8047 69.9602 29.721 69.7089 29.721C69.4577 29.707 69.2483 29.7908 69.0668 29.9582Z" fill="white"/>
</mask>
<g mask="url(#mask2_3700_2639)">
<path d="M70.6302 29.707H68.8157V42.2791H70.6302V29.707Z" fill="url(#paint2_linear_3700_2639)"/>
</g>
<mask id="mask3_3700_2639" style="mask-type:luminance" maskUnits="userSpaceOnUse" x="74" y="29" width="14" height="14">
<path d="M85.4536 29.9582C85.2861 30.1117 85.1884 30.307 85.1884 30.5303V40.1163L77.5254 30.2512C77.2183 29.9024 76.8554 29.721 76.4367 29.721H76.1854C75.8225 29.721 75.5154 29.8326 75.2642 30.0698C75.013 30.2931 74.8873 30.5721 74.8873 30.8931V41.4977C74.8873 41.721 74.9711 41.9163 75.1525 42.0698C75.32 42.2233 75.5434 42.307 75.7946 42.307C76.0459 42.307 76.2692 42.2233 76.4367 42.0698C76.6181 41.9163 76.7019 41.721 76.7019 41.4977V31.8838L84.4068 41.8047C84.5184 41.9442 84.672 42.0559 84.8674 42.1535C85.0488 42.2373 85.2582 42.2931 85.4676 42.2931H85.7049C86.0678 42.2931 86.3749 42.1814 86.6261 41.9582C86.8774 41.7349 87.0169 41.4559 87.0169 41.1349V30.5303C87.0169 30.307 86.9332 30.1117 86.7517 29.9582C86.5703 29.8047 86.3609 29.721 86.1097 29.721C85.8305 29.707 85.6211 29.7908 85.4536 29.9582Z" fill="white"/>
</mask>
<g mask="url(#mask3_3700_2639)">
<path d="M87.003 29.707H74.8873V42.2791H87.003V29.707Z" fill="url(#paint3_linear_3700_2639)"/>
</g>
<mask id="mask4_3700_2639" style="mask-type:luminance" maskUnits="userSpaceOnUse" x="91" y="29" width="12" height="14">
<path d="M99.8864 30L93.0748 36.1814V30.5302C93.0748 30.307 92.9911 30.1116 92.8096 29.9581C92.6281 29.8046 92.4188 29.7209 92.1675 29.7209C91.9163 29.7209 91.7069 29.8046 91.5255 29.9581C91.358 30.1116 91.2603 30.307 91.2603 30.5302V41.4837C91.2603 41.707 91.344 41.9023 91.5255 42.0558C91.693 42.2093 91.9163 42.293 92.1675 42.293C92.4188 42.293 92.6421 42.2093 92.8096 42.0558C92.9911 41.9023 93.0748 41.707 93.0748 41.4837V38.1628L95.35 36.1256L100.487 41.9581C100.654 42.1674 100.891 42.2791 101.198 42.2791C101.45 42.2791 101.659 42.1953 101.841 42.0418C102.008 41.8884 102.092 41.707 102.078 41.4977C102.078 41.3163 102.008 41.1488 101.854 40.9814L96.5783 35.0511L101.171 30.9767C101.31 30.8511 101.394 30.6698 101.394 30.4325C101.394 30.2372 101.31 30.0698 101.143 29.9302C100.975 29.7907 100.78 29.7209 100.556 29.7209C100.291 29.707 100.068 29.8046 99.8864 30Z" fill="white"/>
</mask>
<g mask="url(#mask4_3700_2639)">
<path d="M102.078 29.7069H91.2603V42.279H102.078V29.7069Z" fill="url(#paint4_linear_3700_2639)"/>
</g>
<mask id="mask5_3700_2639" style="mask-type:luminance" maskUnits="userSpaceOnUse" x="111" y="29" width="10" height="14">
<path d="M111.625 29.9582C111.458 30.1116 111.36 30.307 111.36 30.5303V41.0791C111.36 41.3861 111.485 41.6512 111.723 41.8744C111.974 42.0977 112.267 42.2093 112.602 42.2093H119.665C119.916 42.2093 120.14 42.1396 120.307 41.9721C120.488 41.8186 120.572 41.6372 120.572 41.4C120.572 41.1768 120.475 40.9814 120.307 40.8279C120.126 40.6744 119.916 40.5907 119.665 40.5907H113.16V30.5442C113.16 30.3209 113.077 30.1256 112.895 29.9721C112.714 29.8186 112.504 29.7349 112.253 29.7349C112.016 29.707 111.807 29.7907 111.625 29.9582Z" fill="white"/>
</mask>
<g mask="url(#mask5_3700_2639)">
<path d="M120.614 29.707H111.374V42.1814H120.614V29.707Z" fill="url(#paint5_linear_3700_2639)"/>
</g>
<mask id="mask6_3700_2639" style="mask-type:luminance" maskUnits="userSpaceOnUse" x="122" y="29" width="14" height="14">
<path d="M129.129 31.7721L131.809 37.5349H126.435L129.129 31.7721ZM129.017 29.707C128.738 29.707 128.5 29.7768 128.305 29.9163C128.11 30.0559 127.97 30.2233 127.858 30.4326L122.778 41.121C122.708 41.2605 122.68 41.3861 122.68 41.4838C122.68 41.707 122.764 41.9024 122.931 42.0559C123.099 42.2094 123.308 42.2931 123.573 42.2931C123.755 42.2931 123.922 42.2512 124.076 42.1535C124.229 42.0698 124.341 41.9442 124.425 41.7908L125.723 39.028H132.492L133.791 41.7908C133.874 41.9442 133.986 42.0698 134.14 42.1535C134.293 42.2373 134.461 42.2931 134.642 42.2931C134.907 42.2931 135.117 42.2094 135.284 42.0559C135.452 41.9024 135.535 41.707 135.535 41.4838C135.535 41.3861 135.507 41.2745 135.438 41.121L130.357 30.4326C130.245 30.2233 130.106 30.0419 129.91 29.9163C129.715 29.7768 129.478 29.707 129.198 29.707H129.017V29.707Z" fill="white"/>
</mask>
<g mask="url(#mask6_3700_2639)">
<path d="M135.549 29.707H122.694V42.2791H135.549V29.707Z" fill="url(#paint6_linear_3700_2639)"/>
</g>
<mask id="mask7_3700_2639" style="mask-type:luminance" maskUnits="userSpaceOnUse" x="137" y="29" width="12" height="14">
<path d="M139.5 36.614H143.24C145.585 36.614 146.758 37.2838 146.758 38.6372C146.758 39.2931 146.493 39.7954 145.948 40.1442C145.404 40.507 144.497 40.6745 143.212 40.6745H139.486V36.614H139.5ZM139.5 31.3117H143.143C144.036 31.3117 144.734 31.4791 145.236 31.8C145.753 32.1349 146.004 32.5814 146.004 33.1396C146.004 33.7814 145.767 34.2698 145.292 34.6326C144.818 34.9954 143.98 35.1628 142.808 35.1628H139.5V31.3117ZM138.578 29.8047C138.327 29.8047 138.118 29.8884 137.936 30.0419C137.769 30.1954 137.671 30.3907 137.671 30.614V41.3861C137.671 41.6093 137.755 41.8047 137.936 41.9582C138.104 42.1117 138.327 42.1954 138.578 42.1954H143.394C145.153 42.1954 146.451 41.8884 147.274 41.2745C148.098 40.6605 148.503 39.8093 148.503 38.721C148.503 37.9675 148.251 37.3396 147.735 36.8372C147.218 36.3349 146.576 35.9721 145.767 35.7489C146.339 35.5256 146.8 35.1768 147.163 34.7303C147.525 34.2698 147.707 33.6977 147.707 33.014C147.707 32.0372 147.316 31.2559 146.548 30.6698C145.767 30.0838 144.678 29.8047 143.254 29.8047H138.578V29.8047Z" fill="white"/>
</mask>
<g mask="url(#mask7_3700_2639)">
<path d="M148.517 29.8047H137.685V42.1954H148.517V29.8047Z" fill="url(#paint7_linear_3700_2639)"/>
</g>
<mask id="mask8_3700_2639" style="mask-type:luminance" maskUnits="userSpaceOnUse" x="150" y="29" width="11" height="14">
<path d="M153.053 30.1116C152.271 30.4325 151.685 30.879 151.294 31.4232C150.903 31.9674 150.694 32.5813 150.694 33.2651C150.694 34.0325 150.931 34.6465 151.406 35.1069C151.88 35.5674 152.453 35.9162 153.123 36.1534C153.779 36.3767 154.658 36.6279 155.733 36.879C156.542 37.0744 157.17 37.2279 157.603 37.3674C158.036 37.5069 158.413 37.6883 158.706 37.9255C158.999 38.1627 159.153 38.4558 159.153 38.8186C159.153 40.186 157.994 40.8558 155.663 40.8558C154.267 40.8558 152.969 40.6186 151.741 40.1302C151.615 40.0883 151.49 40.0604 151.364 40.0604C151.127 40.0604 150.931 40.1302 150.778 40.2837C150.624 40.4372 150.554 40.6046 150.554 40.7999C150.554 40.9534 150.61 41.093 150.708 41.2325C150.82 41.372 150.945 41.4697 151.113 41.5255C152.578 42.0976 154.169 42.3767 155.844 42.3767C156.849 42.3767 157.743 42.2232 158.51 41.9302C159.278 41.6372 159.878 41.2186 160.297 40.7023C160.716 40.172 160.939 39.586 160.939 38.9162C160.939 38.1069 160.716 37.479 160.255 37.0046C159.795 36.5302 159.25 36.1813 158.608 35.9581C157.966 35.7348 157.115 35.5116 156.068 35.2883C155.258 35.1209 154.616 34.9674 154.142 34.8139C153.667 34.6604 153.276 34.4651 152.969 34.1999C152.662 33.9348 152.495 33.586 152.495 33.1674C152.495 32.5255 152.829 32.0372 153.486 31.6744C154.142 31.3255 154.993 31.1441 156.04 31.1441C157.143 31.1441 158.217 31.2976 159.25 31.6186C159.376 31.6604 159.488 31.6883 159.571 31.6883C159.809 31.6883 160.004 31.6046 160.144 31.4511C160.283 31.2976 160.367 31.1302 160.367 30.9348C160.367 30.586 160.185 30.3488 159.809 30.2232C158.622 29.8325 157.31 29.6372 155.844 29.6372C154.77 29.6232 153.834 29.7906 153.053 30.1116Z" fill="white"/>
</mask>
<g mask="url(#mask8_3700_2639)">
<path d="M160.939 29.6232H150.554V42.3627H160.939V29.6232Z" fill="url(#paint8_linear_3700_2639)"/>
</g>
<mask id="mask9_3700_2639" style="mask-type:luminance" maskUnits="userSpaceOnUse" x="38" y="24" width="8" height="9">
<path d="M40.3689 29.4558V27.4325C40.3689 27.1953 40.5643 26.986 40.8016 26.986H42.8255C43.0628 26.986 43.2582 27.1813 43.2582 27.4325V29.4558C43.2582 29.693 43.0628 29.9023 42.8255 29.9023H40.8016C40.5643 29.8883 40.3689 29.693 40.3689 29.4558ZM39.2662 24.7953C38.652 24.7953 38.1635 25.2837 38.1635 25.8976V30.9906C38.1635 31.6046 38.652 32.093 39.2662 32.093H44.3609C44.9751 32.093 45.4636 31.6046 45.4636 30.9906V25.8976C45.4636 25.2837 44.9611 24.7953 44.3609 24.7953H39.2662V24.7953Z" fill="white"/>
</mask>
<g mask="url(#mask9_3700_2639)">
<path d="M45.4776 24.7953H38.1635V32.093H45.4776V24.7953Z" fill="url(#paint9_radial_3700_2639)"/>
</g>
<mask id="mask10_3700_2639" style="mask-type:luminance" maskUnits="userSpaceOnUse" x="30" y="24" width="16" height="16">
<path d="M31.9661 24.7953C31.3519 24.7953 30.8634 25.2837 30.8634 25.8976V38.2883C30.8634 38.9023 31.3659 39.3906 31.9661 39.3906H44.3609C44.9751 39.3906 45.4636 38.9023 45.4636 38.2883V36.1255C45.4636 35.5116 44.9611 35.0232 44.3609 35.0232H36.3489C35.7348 35.0232 35.2463 34.5348 35.2463 33.9209V25.8976C35.2463 25.2837 34.7577 24.7953 34.1436 24.7953H31.9661V24.7953Z" fill="white"/>
</mask>
<g mask="url(#mask10_3700_2639)">
<path d="M45.4635 24.7953H30.8494V39.4046H45.4635V24.7953Z" fill="url(#paint10_radial_3700_2639)"/>
</g>
<mask id="mask11_3700_2639" style="mask-type:luminance" maskUnits="userSpaceOnUse" x="23" y="24" width="23" height="24">
<path d="M24.1496 24.7953C23.5354 24.7953 23.0469 25.2837 23.0469 25.8976V46.1023C23.0469 46.7162 23.5494 47.2046 24.1496 47.2046H44.3609C44.9751 47.2046 45.4636 46.7023 45.4636 46.1023V43.2418C45.4636 42.6278 44.9611 42.1395 44.3609 42.1395H29.2303C28.6162 42.1395 28.1276 41.6511 28.1276 41.0371V25.8976C28.1276 25.2837 27.6391 24.7953 27.0249 24.7953H24.1496V24.7953Z" fill="white"/>
</mask>
<g mask="url(#mask11_3700_2639)">
<path d="M45.4636 24.7953H23.0469V47.2046H45.4636V24.7953Z" fill="url(#paint11_radial_3700_2639)"/>
</g>
<defs>
<radialGradient id="paint0_radial_3700_2639" cx="0" cy="0" r="1" gradientUnits="userSpaceOnUse" gradientTransform="translate(41.8206 28.4334) scale(4.38359 4.38213)">
<stop stop-color="#88B713"/>
<stop offset="0.2196" stop-color="#85B613"/>
<stop offset="0.3896" stop-color="#7BB514"/>
<stop offset="0.543" stop-color="#6BB216"/>
<stop offset="0.6865" stop-color="#53AE18"/>
<stop offset="0.8233" stop-color="#35A91A"/>
<stop offset="0.9532" stop-color="#11A31E"/>
<stop offset="1" stop-color="#02A01F"/>
</radialGradient>
<linearGradient id="paint1_linear_3700_2639" x1="61.5673" y1="29.006" x2="61.5673" y2="39.0369" gradientUnits="userSpaceOnUse">
<stop stop-color="#0D588C"/>
<stop offset="0.2954" stop-color="#0D5689"/>
<stop offset="0.5234" stop-color="#0C517F"/>
<stop offset="0.7287" stop-color="#0A476F"/>
<stop offset="0.9196" stop-color="#083A58"/>
<stop offset="0.9973" stop-color="#07334C"/>
<stop offset="1" stop-color="#07334C"/>
</linearGradient>
<linearGradient id="paint2_linear_3700_2639" x1="69.7187" y1="29.006" x2="69.7187" y2="39.0369" gradientUnits="userSpaceOnUse">
<stop stop-color="#0D588C"/>
<stop offset="0.2954" stop-color="#0D5689"/>
<stop offset="0.5234" stop-color="#0C517F"/>
<stop offset="0.7287" stop-color="#0A476F"/>
<stop offset="0.9196" stop-color="#083A58"/>
<stop offset="0.9973" stop-color="#07334C"/>
<stop offset="1" stop-color="#07334C"/>
</linearGradient>
<linearGradient id="paint3_linear_3700_2639" x1="80.9429" y1="29.006" x2="80.9429" y2="39.0369" gradientUnits="userSpaceOnUse">
<stop stop-color="#0D588C"/>
<stop offset="0.2954" stop-color="#0D5689"/>
<stop offset="0.5234" stop-color="#0C517F"/>
<stop offset="0.7287" stop-color="#0A476F"/>
<stop offset="0.9196" stop-color="#083A58"/>
<stop offset="0.9973" stop-color="#07334C"/>
<stop offset="1" stop-color="#07334C"/>
</linearGradient>
<linearGradient id="paint4_linear_3700_2639" x1="96.6747" y1="29.0059" x2="96.6747" y2="39.0368" gradientUnits="userSpaceOnUse">
<stop stop-color="#0D588C"/>
<stop offset="0.2954" stop-color="#0D5689"/>
<stop offset="0.5234" stop-color="#0C517F"/>
<stop offset="0.7287" stop-color="#0A476F"/>
<stop offset="0.9196" stop-color="#083A58"/>
<stop offset="0.9973" stop-color="#07334C"/>
<stop offset="1" stop-color="#07334C"/>
</linearGradient>
<linearGradient id="paint5_linear_3700_2639" x1="115.985" y1="29.006" x2="115.985" y2="39.0369" gradientUnits="userSpaceOnUse">
<stop stop-color="#0D588C"/>
<stop offset="0.2954" stop-color="#0D5689"/>
<stop offset="0.5234" stop-color="#0C517F"/>
<stop offset="0.7287" stop-color="#0A476F"/>
<stop offset="0.9196" stop-color="#083A58"/>
<stop offset="0.9973" stop-color="#07334C"/>
<stop offset="1" stop-color="#07334C"/>
</linearGradient>
<linearGradient id="paint6_linear_3700_2639" x1="129.121" y1="29.006" x2="129.121" y2="39.0369" gradientUnits="userSpaceOnUse">
<stop stop-color="#0D588C"/>
<stop offset="0.2954" stop-color="#0D5689"/>
<stop offset="0.5234" stop-color="#0C517F"/>
<stop offset="0.7287" stop-color="#0A476F"/>
<stop offset="0.9196" stop-color="#083A58"/>
<stop offset="0.9973" stop-color="#07334C"/>
<stop offset="1" stop-color="#07334C"/>
</linearGradient>
<linearGradient id="paint7_linear_3700_2639" x1="143.095" y1="29.006" x2="143.095" y2="39.0369" gradientUnits="userSpaceOnUse">
<stop stop-color="#0D588C"/>
<stop offset="0.2954" stop-color="#0D5689"/>
<stop offset="0.5234" stop-color="#0C517F"/>
<stop offset="0.7287" stop-color="#0A476F"/>
<stop offset="0.9196" stop-color="#083A58"/>
<stop offset="0.9973" stop-color="#07334C"/>
<stop offset="1" stop-color="#07334C"/>
</linearGradient>
<linearGradient id="paint8_linear_3700_2639" x1="155.755" y1="29.0058" x2="155.755" y2="39.0368" gradientUnits="userSpaceOnUse">
<stop stop-color="#0D588C"/>
<stop offset="0.2954" stop-color="#0D5689"/>
<stop offset="0.5234" stop-color="#0C517F"/>
<stop offset="0.7287" stop-color="#0A476F"/>
<stop offset="0.9196" stop-color="#083A58"/>
<stop offset="0.9973" stop-color="#07334C"/>
<stop offset="1" stop-color="#07334C"/>
</linearGradient>
<radialGradient id="paint9_radial_3700_2639" cx="0" cy="0" r="1" gradientUnits="userSpaceOnUse" gradientTransform="translate(41.8103 28.4451) scale(3.6537 3.65249)">
<stop stop-color="#87B812"/>
<stop offset="0.3613" stop-color="#87B812"/>
<stop offset="0.4752" stop-color="#83B712"/>
<stop offset="0.5862" stop-color="#77B514"/>
<stop offset="0.6961" stop-color="#64B215"/>
<stop offset="0.8052" stop-color="#48AD18"/>
<stop offset="0.9128" stop-color="#25A71C"/>
<stop offset="1" stop-color="#03A11F"/>
</radialGradient>
<radialGradient id="paint10_radial_3700_2639" cx="0" cy="0" r="1" gradientUnits="userSpaceOnUse" gradientTransform="translate(38.3506 31.2865) scale(17.6285 17.6227)">
<stop stop-color="#0D598C"/>
<stop offset="0.2227" stop-color="#0D5687"/>
<stop offset="0.4863" stop-color="#0B4D79"/>
<stop offset="0.7694" stop-color="#0A3F61"/>
<stop offset="0.9572" stop-color="#08334D"/>
<stop offset="1" stop-color="#08334D"/>
</radialGradient>
<radialGradient id="paint11_radial_3700_2639" cx="0" cy="0" r="1" gradientUnits="userSpaceOnUse" gradientTransform="translate(38.3507 31.2865) scale(17.6285 17.6227)">
<stop stop-color="#0D598C"/>
<stop offset="0.2227" stop-color="#0D5687"/>
<stop offset="0.4863" stop-color="#0B4D79"/>
<stop offset="0.7694" stop-color="#0A3F61"/>
<stop offset="0.9572" stop-color="#08334D"/>
<stop offset="1" stop-color="#08334D"/>
</radialGradient>
</defs>
</svg>
