<svg width="184" height="72" viewBox="0 0 184 72" fill="none" xmlns="http://www.w3.org/2000/svg">
<rect width="184" height="72" fill="#F9FDFE"/>
<g clip-path="url(#clip0_1539_10393)">
<path d="M65.2664 42.4V29.7019H67.8222L71.553 37.9363H71.5942L75.325 29.7019H77.9015V42.4H75.4899V34.5937H75.4074L71.7591 42.4H71.3469L67.6986 34.5937H67.6573V42.4H65.2664ZM87.115 41.3402C86.2493 42.237 85.1775 42.6854 83.8583 42.6854C82.5391 42.6854 81.4467 42.237 80.6016 41.3402C79.7359 40.4433 79.3237 39.2 79.3237 37.6102C79.3237 36.0408 79.7565 34.7975 80.6428 33.9007C81.5292 33.0038 82.601 32.5351 83.8789 32.5351C85.1569 32.5351 86.2287 32.9835 87.115 33.9007C88.0013 34.7975 88.4342 36.0408 88.4342 37.6102C88.3929 39.2 87.9807 40.4433 87.115 41.3402ZM82.23 39.7911C82.6216 40.3007 83.1575 40.5452 83.8377 40.5452C84.5179 40.5452 85.0538 40.2803 85.4454 39.7707C85.8371 39.2612 86.0226 38.5274 86.0226 37.5898C86.0226 36.6523 85.8164 35.9185 85.4248 35.4089C85.0332 34.8994 84.4973 34.6344 83.8171 34.6344C83.1369 34.6344 82.601 34.879 82.2094 35.3886C81.8177 35.8981 81.6116 36.6319 81.6116 37.5898C81.6528 38.5682 81.8383 39.2816 82.23 39.7911ZM92.2886 42.4L88.3929 32.8H90.8664L93.278 38.9758H93.3192L95.7308 32.8H98.163L94.2673 42.4204H92.2886V42.4ZM105.15 39.0981L106.82 40.5452C105.831 41.972 104.491 42.6854 102.801 42.6854C101.44 42.6854 100.327 42.2166 99.4821 41.2994C98.6164 40.3822 98.2042 39.1389 98.2042 37.6102C98.2042 36.0816 98.6371 34.8382 99.4821 33.921C100.327 33.0038 101.399 32.5351 102.698 32.5351C103.996 32.5351 105.068 33.0038 105.892 33.921C106.738 34.8382 107.15 36.0816 107.15 37.6102V38.3236H100.616C100.657 39.0573 100.863 39.628 101.234 40.0153C101.605 40.4026 102.12 40.6064 102.759 40.6064C103.316 40.6064 103.769 40.4637 104.12 40.1988C104.491 39.9134 104.821 39.5465 105.15 39.0981ZM100.616 36.5503H104.841C104.779 35.9389 104.573 35.4497 104.202 35.1032C103.831 34.7567 103.337 34.5937 102.698 34.5937C102.12 34.5937 101.626 34.7771 101.255 35.1644C100.884 35.5312 100.657 36 100.616 36.5503ZM109.85 42.4L107.706 32.7796H110.035L111.313 39.2H111.375L113.539 32.7796H115.704L117.703 39.1796H117.744L119.208 32.7796H121.496L119.167 42.4H116.817L114.591 35.4905H114.549L112.138 42.4H109.85ZM129.576 41.3402C128.71 42.237 127.638 42.6854 126.319 42.6854C125 42.6854 123.907 42.237 123.062 41.3402C122.196 40.4433 121.784 39.2 121.784 37.6102C121.784 36.0408 122.217 34.7975 123.103 33.9007C123.99 33.0038 125.062 32.5351 126.339 32.5351C127.617 32.5351 128.689 32.9835 129.576 33.9007C130.462 34.7975 130.895 36.0408 130.895 37.6102C130.853 39.2 130.441 40.4433 129.576 41.3402ZM124.691 39.7911C125.082 40.3007 125.618 40.5452 126.298 40.5452C126.978 40.5452 127.514 40.2803 127.906 39.7707C128.298 39.2612 128.483 38.5274 128.483 37.5898C128.483 36.6523 128.277 35.9185 127.885 35.4089C127.494 34.8994 126.958 34.6344 126.278 34.6344C125.597 34.6344 125.062 34.879 124.67 35.3886C124.278 35.8981 124.072 36.6319 124.072 37.5898C124.113 38.5682 124.319 39.2816 124.691 39.7911ZM132.317 42.4V32.7796H134.564V33.7987H134.605C134.79 33.4319 135.058 33.1465 135.429 32.9223C135.78 32.6981 136.192 32.5962 136.604 32.5962C136.913 32.5962 137.202 32.6573 137.491 32.7796L137.12 35.0624C136.852 34.9605 136.604 34.9198 136.377 34.9198C135.264 34.9198 134.708 35.6535 134.708 37.121V42.4H132.317ZM147.529 39.2408L149.672 38.6905C149.837 40.0357 150.579 40.7083 151.857 40.7083C152.434 40.7083 152.908 40.6064 153.259 40.423C153.609 40.2395 153.774 39.9745 153.774 39.628C153.774 39.3427 153.63 39.1389 153.362 38.9962C153.094 38.8535 152.537 38.6701 151.672 38.4255C151.445 38.3644 151.259 38.3236 151.136 38.2828C150.002 37.9771 149.177 37.5898 148.662 37.1618C148.126 36.7338 147.879 36.1631 147.879 35.4497C147.879 34.6548 148.209 33.9618 148.868 33.3911C149.528 32.8204 150.414 32.5147 151.548 32.5147C153.733 32.5147 155.093 33.4523 155.629 35.3478L153.65 35.9389C153.485 35.4701 153.238 35.1236 152.929 34.8586C152.62 34.5937 152.166 34.451 151.568 34.451C151.094 34.451 150.744 34.5325 150.455 34.7159C150.187 34.8994 150.043 35.1032 150.043 35.3478C150.043 35.6128 150.208 35.8166 150.538 35.9796C150.868 36.1223 151.672 36.3873 152.97 36.7542C154.104 37.0599 154.887 37.4472 155.299 37.8956C155.711 38.3644 155.918 38.9554 155.918 39.6892C155.918 40.4637 155.588 41.1567 154.908 41.7682C154.227 42.3796 153.238 42.6854 151.96 42.6854C150.62 42.6854 149.569 42.3593 148.848 41.6866C148.126 41.014 147.673 40.1987 147.529 39.2408ZM143.674 37.386L147.57 42.4204H144.602L141.18 37.8548V42.4204H138.768V29.172H141.18V36.8765L144.602 32.8H147.57L143.674 37.386Z" fill="black"/>
<path d="M42.9849 34.8382H28.1443V20.1631L42.9849 34.8382ZM42.9849 20.1631V34.8586H57.8461L42.9849 20.1631Z" fill="#8300E6"/>
<path d="M28.1443 51.9593V37.2637H43.0055L28.1443 51.9593ZM57.8461 37.2841H42.9849V51.9797L57.8461 37.2841Z" fill="#45007F"/>
</g>
<defs>
<clipPath id="clip0_1539_10393">
<rect width="128" height="32" fill="white" transform="translate(28 20)"/>
</clipPath>
</defs>
</svg>
