<svg width="184" height="72" viewBox="0 0 184 72" fill="none" xmlns="http://www.w3.org/2000/svg">
<rect width="184" height="72" fill="#F9FDFE"/>
<g clip-path="url(#clip0_1539_10378)">
<path d="M118.623 54.7344C118.623 55.3172 118.198 55.7085 117.694 55.7085V55.7049C117.176 55.7085 116.758 55.3172 116.758 54.7345C116.758 54.152 117.176 53.7618 117.694 53.7618C118.198 53.7617 118.623 54.1518 118.623 54.7344ZM119 54.7344C119 53.9345 118.382 53.4702 117.694 53.4702C117.001 53.4702 116.383 53.9345 116.383 54.7344C116.383 55.5338 117.001 56 117.694 56C118.383 56 119 55.5338 119 54.7344ZM117.477 54.8413H117.617L117.941 55.4137H118.297L117.938 54.8172C118.124 54.8039 118.276 54.7151 118.276 54.4639C118.276 54.1518 118.062 54.0515 117.7 54.0515H117.176V55.4137H117.477V54.8413M117.477 54.6107V54.2827H117.687C117.801 54.2827 117.956 54.292 117.956 54.4319C117.956 54.5841 117.876 54.6107 117.742 54.6107H117.477Z" fill="black"/>
<path d="M110.205 47.7662L111.833 52.2476H108.526L110.205 47.7662ZM108.461 46.0212L104.709 55.5859H107.358L107.952 53.8959H112.393L112.955 55.5859H115.831L112.051 46.02L108.461 46.0212ZM100.928 55.5895H103.616V46.0183L100.927 46.0177L100.928 55.5895ZM82.2648 46.0177L80.0218 53.6036L77.8733 46.0183L74.9726 46.0177L78.0412 55.5895H81.9141L85.0075 46.0177H82.2648ZM93.1313 48.1019H94.2867C95.963 48.1019 97.0471 48.859 97.0471 50.8237C97.0471 52.7889 95.963 53.5461 94.2867 53.5461H93.1313V48.1019ZM90.4655 46.0177V55.5895H94.8238C97.1459 55.5895 97.9041 55.2012 98.724 54.3301C99.303 53.7184 99.6776 52.3762 99.6776 50.9089C99.6776 49.563 99.3607 48.3634 98.808 47.6159C97.8122 46.2791 96.3778 46.0177 94.2371 46.0177H90.4655ZM65 46.0044V55.5895H67.7111V48.3115L69.8117 48.3121C70.5072 48.3121 71.0031 48.4865 71.338 48.8464C71.7628 49.3017 71.9363 50.0365 71.9363 51.3806V55.5895H74.5633V50.2937C74.5633 46.514 72.1686 46.0044 69.8255 46.0044H65ZM86.1389 46.0177L86.14 55.5895H88.8271V46.0177H86.1389Z" fill="black"/>
<path d="M72.2248 26.9592C72.2248 26.9592 75.6824 21.8271 82.5862 21.2961V19.4342C74.9394 20.052 68.3176 26.5674 68.3176 26.5674C68.3176 26.5674 72.0681 37.4745 82.5862 38.4732V36.4941C74.8675 35.5172 72.2248 26.9592 72.2248 26.9592ZM82.5862 32.5581V34.3706C76.7526 33.3243 75.1333 27.2238 75.1333 27.2238C75.1333 27.2238 77.9343 24.1023 82.5862 23.5961V25.5849C82.5826 25.5849 82.5802 25.5839 82.5772 25.5839C80.1357 25.2891 78.2283 27.5837 78.2283 27.5837C78.2283 27.5837 79.2974 31.4465 82.5862 32.5581ZM82.5862 16V19.4342C82.8106 19.4169 83.0351 19.4022 83.2608 19.3945C91.9543 19.0997 97.6188 26.5674 97.6188 26.5674C97.6188 26.5674 91.113 34.5258 84.3351 34.5258C83.7139 34.5258 83.1324 34.4678 82.5862 34.3705V36.4941C83.0532 36.5537 83.5375 36.5888 84.0429 36.5888C90.3501 36.5888 94.9114 33.3483 99.3281 29.513C100.06 30.103 103.058 31.5383 103.675 32.1666C99.4751 35.7036 89.6881 38.5548 84.1395 38.5548C83.6047 38.5548 83.091 38.5222 82.5862 38.4732V41.4573H106.56V16H82.5862ZM82.5862 23.5961V21.2961C82.8083 21.2805 83.0322 21.2686 83.2608 21.2614C89.5123 21.0638 93.6137 26.6658 93.6137 26.6658C93.6137 26.6658 89.1838 32.8552 84.434 32.8552C83.7505 32.8552 83.1377 32.7447 82.5862 32.5581V25.5849C85.0199 25.8808 85.5096 26.9623 86.9727 29.4161L90.2269 26.6556C90.2269 26.6556 87.8514 23.5215 83.847 23.5215C83.4117 23.5213 82.9952 23.5521 82.5862 23.5961Z" fill="#77B900"/>
</g>
<defs>
<clipPath id="clip0_1539_10378">
<rect width="54" height="40" fill="white" transform="translate(65 16)"/>
</clipPath>
</defs>
</svg>
