<svg width="184" height="72" viewBox="0 0 184 72" fill="none" xmlns="http://www.w3.org/2000/svg">
<rect width="184" height="72" fill="#F9FDFE"/>
<g clip-path="url(#clip0_1539_10381)">
<path d="M23.2632 31.5444C23.2632 29.3444 22.126 27.5267 20 26H24.9414C25.8124 26.6501 26.5182 27.4889 27.0035 28.4508C27.4887 29.4126 27.7403 30.4715 27.7386 31.5444C27.7403 32.6174 27.4887 33.6763 27.0035 34.6381C26.5182 35.6 25.8124 36.4388 24.9414 37.0889C26.5458 37.7444 27.4585 39.3444 27.4585 41.6344V45.9978H22.9843V41.6344C22.9843 39.4533 21.9219 37.9267 20.0011 37.09C22.1271 35.5622 23.2644 33.7456 23.2644 31.5456L23.2632 31.5444ZM32.96 31.5444C32.96 29.3444 31.8227 27.5267 29.6968 26H34.6392C35.5101 26.6502 36.2157 27.4891 36.7007 28.4509C37.1858 29.4128 37.4372 30.4716 37.4353 31.5444C37.4372 32.6173 37.1858 33.6761 36.7007 34.6379C36.2157 35.5998 35.5101 36.4386 34.6392 37.0889C36.2425 37.7444 37.1564 39.3444 37.1564 41.6344V45.9978H32.6811V41.6344C32.6811 39.4533 31.6175 37.9267 29.6968 37.09C31.8227 35.5622 32.96 33.7456 32.96 31.5456V31.5444ZM42.659 31.5444C42.659 29.3444 41.5218 27.5267 39.3958 26H44.3371C45.2082 26.6501 45.914 27.4889 46.3992 28.4508C46.8845 29.4126 47.1361 30.4715 47.1344 31.5444C47.1361 32.6174 46.8845 33.6763 46.3992 34.6381C45.914 35.6 45.2082 36.4388 44.3371 37.0889C45.9415 37.7444 46.8543 39.3444 46.8543 41.6344V45.9978H42.379V41.6344C42.379 39.4533 41.3165 37.9267 39.3958 37.09C41.5218 35.5622 42.659 33.7456 42.659 31.5456V31.5444ZM60.7645 42.3644H57.372V29.6356H65.7081C69.7174 29.6356 71.6937 31.0911 71.6937 33.4722C71.6937 35.09 70.7243 36.3078 68.9158 36.9267C70.7798 37.1989 71.6189 38.1622 71.6189 39.89V42.3622H68.1878V40.0356C68.1878 38.58 67.4418 37.9989 65.4836 37.9989H60.7667V42.3644H60.7645ZM65.5199 31.49H60.7645V36.1456H65.4825C67.198 36.1456 68.2604 35.2178 68.2604 33.7633C68.2604 32.3267 67.274 31.49 65.5199 31.49ZM77.5853 29.6356H74.1916V42.3644H77.5853V29.6356ZM87.9907 38.2167H83.851V42.3622H80.4562V29.6356H88.0644C92.0737 29.6356 94.1815 31.2722 94.1815 33.8911C94.1815 36.5989 92.0374 38.2167 87.9907 38.2167ZM87.9158 31.49H83.851V36.3622H87.8784C89.6314 36.3622 90.7131 35.49 90.7131 33.9089C90.7131 32.3633 89.6314 31.49 87.9158 31.49ZM103.73 38.2167H99.59V42.3622H96.1953V29.6356H103.803C107.813 29.6356 109.921 31.2722 109.921 33.8911C109.921 36.5989 107.775 38.2167 103.73 38.2167ZM103.655 31.49H99.59V36.3622H103.618C105.37 36.3622 106.452 35.49 106.452 33.9089C106.452 32.3633 105.37 31.49 103.655 31.49ZM115.328 29.6356V40.4711H123.795V42.3644H111.934V29.6356H115.328ZM129.312 29.6356H125.918V42.3644H129.312V29.6356ZM134.422 33.89V42.3644H132.184V29.6356H134.723L143.972 38.1078V29.6356H146.21V42.3644H143.673L134.422 33.89ZM157.288 31.1267C154.061 31.1267 151.954 33.1267 151.954 36.1078C151.954 39.0522 153.968 40.8711 157.1 40.8711H157.324C158.387 40.8711 159.58 40.6522 160.681 40.3078V36.8711H155.199V35.0533H164V41.0344C162.173 41.9622 159.412 42.69 157.175 42.69H156.877C151.729 42.69 148.411 40.0344 148.411 36.18C148.411 32.3622 151.824 29.3089 157.063 29.3089H157.361C159.544 29.3089 162.042 29.9811 163.889 31.0356L162.918 32.58C161.259 31.69 159.282 31.1267 157.511 31.1267H157.288Z" fill="black"/>
</g>
<defs>
<clipPath id="clip0_1539_10381">
<rect width="144" height="20" fill="white" transform="translate(20 26)"/>
</clipPath>
</defs>
</svg>
