<svg width="184" height="72" viewBox="0 0 184 72" fill="none" xmlns="http://www.w3.org/2000/svg">
<rect width="184" height="72" fill="#F9FDFE"/>
<path d="M44.8015 41.1069C44.8015 44.4096 41.8736 46 38.5405 46C35.4261 46 33.1191 44.7152 31.9998 42.3608L35.4884 40.4339C35.9244 41.6899 36.9836 42.4225 38.5405 42.4225C39.8198 42.4225 40.6897 41.9945 40.6897 41.1074C40.6881 38.8739 32.6538 40.0979 32.6538 34.7155C32.6538 31.5965 35.3637 29.8533 38.5704 29.8533C41.0932 29.8533 43.2733 30.9847 44.487 33.0948L41.0607 34.9295C40.5932 33.9509 39.7212 33.37 38.5688 33.37C37.572 33.37 36.7624 33.7981 36.7624 34.626C36.7656 36.8852 44.8015 35.4801 44.8015 41.1069Z" fill="#0B263E"/>
<path d="M73.246 30.2814V45.5725H69.228V43.7675C68.1086 45.1433 66.4248 46 64.1509 46C60.0082 46 56.5819 42.4827 56.5819 37.9266C56.5819 33.3706 60.0082 29.8533 64.1509 29.8533C66.4248 29.8533 68.1065 30.7094 69.228 32.0858V30.2814H73.246ZM69.228 37.9266C69.228 35.3576 67.3901 33.6144 64.8982 33.6144C62.4378 33.6144 60.5999 35.3576 60.5999 37.9266C60.5999 40.4957 62.4356 42.2383 64.8982 42.2383C67.3928 42.2383 69.228 40.4962 69.228 37.9266Z" fill="#0B263E"/>
<path d="M84.2365 29.9773V34.3806C82.1497 34.1362 79.5022 35.0536 79.5022 38.2647V45.5724H75.4821V30.2813H79.5V32.9111C80.3097 30.8319 82.2723 29.9773 84.2365 29.9773Z" fill="#0B263E"/>
<path d="M104.225 34.0734V40.4339C104.225 42.0855 105.44 42.1159 107.743 41.9939V45.5724C102.105 46.1842 100.205 44.5635 100.205 40.4349V34.0734H97.4955V30.2813H100.205V26H104.225V30.2813H107.743V34.0734H104.225Z" fill="#0B263E"/>
<path d="M118.171 29.9773V34.3806C116.084 34.1362 113.437 35.0536 113.437 38.2647V45.5724H109.419V30.2813H113.437V32.9111C114.246 30.8319 116.209 29.9773 118.171 29.9773Z" fill="#0B263E"/>
<path d="M127.3 42.422C128.858 42.422 130.103 41.7799 130.789 40.8929L134.028 42.7276C132.564 44.8074 130.228 46 127.238 46C122.005 46 118.704 42.4827 118.704 37.9266C118.704 33.3706 122.037 29.8533 126.927 29.8533C131.536 29.8533 134.807 33.4313 134.807 37.9266C134.804 38.4709 134.752 39.0138 134.651 39.549H122.909C123.467 41.5659 125.183 42.422 127.3 42.422ZM130.789 36.4891C130.291 34.2874 128.608 33.4014 126.927 33.4014C124.777 33.4014 123.313 34.5329 122.846 36.4891H130.789Z" fill="#0B263E"/>
<path d="M144.493 42.422C146.051 42.422 147.296 41.7799 147.982 40.8929L151.221 42.7276C149.757 44.8074 147.421 46 144.431 46C139.198 46 135.896 42.4827 135.896 37.9266C135.896 33.3706 139.23 29.8533 144.119 29.8533C148.73 29.8533 152 33.4313 152 37.9266C151.997 38.4709 151.945 39.0138 151.844 39.549H140.102C140.662 41.5659 142.375 42.422 144.493 42.422ZM147.982 36.4891C147.483 34.2874 145.802 33.4014 144.119 33.4014C141.97 33.4014 140.507 34.5329 140.039 36.4891H147.982Z" fill="#0B263E"/>
<path d="M52.2843 34.0734V40.4339C52.2843 42.0855 53.499 42.1159 55.8023 41.9939V45.5724C50.1644 46.1842 48.2642 44.5635 48.2642 40.4349V34.0734H45.5564V30.2813H48.2658V26H52.2843V30.2813H55.8023V34.0734H52.2843Z" fill="#0B263E"/>
<path d="M95.874 36.3587H91.2217L91.2191 30.1421C91.2192 30.0793 91.1984 30.0181 91.1598 29.968C91.1212 29.918 91.0669 29.8817 91.0053 29.8647C90.9436 29.8478 90.8781 29.8512 90.8186 29.8744C90.7591 29.8975 90.709 29.9392 90.6759 29.993L85.1959 38.9492C85.1689 38.9928 85.1542 39.0427 85.1532 39.0938C85.1523 39.1449 85.1653 39.1952 85.1907 39.2398C85.2161 39.2844 85.2531 39.3215 85.298 39.3474C85.3428 39.3733 85.3938 39.387 85.4459 39.3872H90.0997L90.1034 45.6038C90.1031 45.6667 90.1238 45.7279 90.1623 45.7781C90.2008 45.8283 90.2551 45.8647 90.3168 45.8817C90.3785 45.8986 90.4441 45.8952 90.5036 45.8719C90.5631 45.8487 90.6131 45.8069 90.6461 45.753L96.1229 36.7967C96.1497 36.7531 96.1643 36.7033 96.1651 36.6524C96.166 36.6015 96.1532 36.5513 96.1279 36.5068C96.1026 36.4623 96.0658 36.4252 96.0213 36.3992C95.9767 36.3732 95.9259 36.3592 95.874 36.3587Z" fill="#FAD32D"/>
</svg>
