<svg xmlns="http://www.w3.org/2000/svg" id="Layer_1" style="enable-background:new 0 0 89 88;" viewBox="0 0 89 88" x="0px" y="0px" xmlns:xml="http://www.w3.org/XML/1998/namespace" xml:space="preserve" xmlns:xlink="http://www.w3.org/1999/xlink" version="1.1">
<style type="text/css">
	.st0{fill:#6264A7;}
	.st1{fill:#FFFFFF;}
</style>
<title>Teams_Logo_Only_Blurple</title>
<path class="st0" d="M 75.3 33.6 c 0.7 0.7 1.6 1.3 2.5 1.7 c 2 0.8 4.2 0.8 6.2 0 c 1.9 -0.8 3.4 -2.3 4.2 -4.2 c 0.8 -2 0.8 -4.2 0 -6.2 c -0.8 -1.9 -2.3 -3.4 -4.2 -4.2 c -2 -0.8 -4.2 -0.8 -6.2 0 c -1.9 0.8 -3.4 2.3 -4.2 4.2 c -0.8 2 -0.8 4.2 0 6.2 C 74 32 74.6 32.9 75.3 33.6 Z"/>
<path class="st0" d="M 73 41 v 24 h 4 c 1.4 0 2.7 -0.1 4.1 -0.4 c 1.4 -0.2 2.7 -0.7 3.9 -1.4 c 1.1 -0.6 2.1 -1.5 2.9 -2.5 c 0.8 -1.2 1.2 -2.6 1.1 -4 V 41 H 73 Z"/>
<path class="st0" d="M 60 30.9 c 1.1 0 2.1 -0.2 3.1 -0.6 c 1.9 -0.8 3.4 -2.3 4.2 -4.2 c 0.8 -2 0.8 -4.2 0 -6.2 c -0.8 -1.9 -2.3 -3.4 -4.2 -4.2 c -1 -0.4 -2 -0.6 -3.1 -0.6 s -2.1 0.2 -3.1 0.6 c -0.7 0.3 -1.4 0.7 -2 1.2 v 12.3 c 0.7 0.5 1.2 0.9 2 1.2 C 57.9 30.7 59 30.9 60 30.9 Z"/>
<path class="st0" d="M 55 71.3 c 1 0.2 1.4 0.4 2.1 0.5 c 0.8 0.1 1.6 0.2 2.3 0.2 c 1.2 0 2.4 -0.1 3.6 -0.4 c 1.2 -0.2 2.4 -0.7 3.4 -1.3 c 1 -0.6 1.9 -1.5 2.6 -2.5 c 0.7 -1.2 1.1 -2.6 1 -4 V 36 H 55 V 71.3 Z"/>
<polygon class="st0" points="0,79 52,88 52,0 0,9"/>
<polygon class="st1" points="38,27 14,28.5 14,34 23,33.6 23,59.3 29,59.7 29,33.4 38,33"/>
</svg>