<svg width="184" height="72" viewBox="0 0 184 72" fill="none" xmlns="http://www.w3.org/2000/svg">
<rect width="184" height="72" fill="#F9FDFE"/>
<g clip-path="url(#clip0_1539_10353)">
<path d="M109.437 17.3084C109.11 16.6672 108.62 16.1222 108 15.7054C107.935 15.6733 107.869 15.6733 107.804 15.7054L106.596 16.3787L106.465 16.1542L106.727 15.8016C106.759 15.7374 106.759 15.6733 106.727 15.6092L106.596 15.3848C106.563 15.3206 106.498 15.2886 106.433 15.2565C106.237 15.1924 106.008 15.2565 105.812 15.3527C105.616 15.4489 105.486 15.6092 105.42 15.8336C105.42 15.8977 105.42 15.9619 105.453 16.026L105.584 16.2504C105.616 16.3145 105.682 16.3466 105.747 16.3466L106.171 16.3145L106.302 16.539L104.571 17.5008L104.441 17.2764L104.702 16.9237C104.735 16.8596 104.735 16.7955 104.702 16.7313L104.571 16.5069C104.539 16.4428 104.474 16.3787 104.408 16.3787C104.212 16.3145 103.984 16.3787 103.788 16.4748C103.592 16.571 103.461 16.7313 103.396 16.9558C103.396 17.0199 103.396 17.084 103.429 17.1481L103.559 17.3726C103.592 17.4367 103.657 17.4687 103.723 17.4687L104.147 17.4367L104.278 17.6611L102.547 18.6229L102.416 18.3985L102.678 18.0458C102.71 17.9817 102.743 17.9176 102.678 17.8535L102.547 17.629C102.514 17.5649 102.449 17.5008 102.384 17.5008C101.959 17.4046 101.502 17.6611 101.371 18.0779C101.371 18.142 101.371 18.2061 101.404 18.2703L101.535 18.4947C101.567 18.5588 101.633 18.5909 101.698 18.5909L102.123 18.5588L102.253 18.7832L101.502 19.2C101.437 19.2321 101.404 19.2962 101.371 19.3603C101.143 19.8733 100.718 20.3222 100.196 20.5787L80.8001 30.3573C79.3307 27.8245 77.796 26.2214 76.3592 25.7726C75.0531 25.3558 73.6164 25.5161 72.4409 26.1893C71.8205 26.51 71.2654 26.9268 70.7756 27.4077L70.547 27.5039C69.796 28.2092 68.9797 28.7863 68.0654 29.2672C67.1511 29.7481 65.845 29.8764 64.898 29.8443C61.6001 29.4596 58.9878 29.8443 56.898 30.9664C54.3511 32.3451 52.8817 34.0764 52.4572 36.2565C52.0001 38.5649 52.6858 41.3863 54.5144 44.8489C54.6123 45.0092 54.6776 45.1695 54.7756 45.3298C54.8735 45.4901 54.9388 45.6504 55.0368 45.8107C58.596 52.5115 62.7103 54.4031 68.0001 51.8061C70.1225 50.7481 71.9184 48.8565 73.4858 45.971C74.0082 45.2016 74.8572 44.1756 75.7715 43.7268C76.6858 43.2458 77.6654 42.9252 78.6776 42.7329L78.9062 42.6687C79.5919 42.5405 80.245 42.3161 80.8654 41.9955C82.1062 41.4184 83.0531 40.3603 83.445 39.0458C83.9021 37.6352 83.445 35.4871 82.1062 32.826L101.437 22.8229C101.959 22.5344 102.547 22.4382 103.135 22.5664C103.2 22.5664 103.265 22.5664 103.331 22.5344L104.114 22.1817L104.245 22.4061L103.984 22.7268C103.918 22.7909 103.918 22.855 103.951 22.9191L104.082 23.1435C104.114 23.2077 104.18 23.2718 104.245 23.2718C104.441 23.3359 104.669 23.3039 104.865 23.2077C105.061 23.1115 105.225 22.9512 105.29 22.7588C105.323 22.6947 105.29 22.6306 105.257 22.5664L105.127 22.342C105.094 22.2779 105.029 22.2458 104.963 22.2458H104.539L104.441 22.0214L106.237 21.1558L106.367 21.3802L106.106 21.7008C106.074 21.7649 106.041 21.829 106.074 21.8932L106.204 22.1176C106.237 22.1817 106.302 22.2458 106.367 22.2458C106.563 22.31 106.792 22.2779 106.988 22.1817C107.184 22.0855 107.347 21.9252 107.412 21.7329C107.445 21.6687 107.412 21.6046 107.38 21.5405L107.249 21.3161C107.216 21.2519 107.151 21.2199 107.086 21.2199H106.661L106.531 21.0916L108.327 20.226L108.457 20.4825L108.196 20.8031C108.131 20.8672 108.131 20.9313 108.163 20.9955L108.294 21.2199C108.327 21.284 108.392 21.3481 108.457 21.3802C108.653 21.4443 108.882 21.4122 109.078 21.3161C109.274 21.2199 109.437 21.0596 109.502 20.8672C109.535 20.8031 109.502 20.739 109.469 20.6748L109.339 20.4504C109.306 20.3863 109.241 20.3542 109.176 20.3542H108.751L108.62 20.1298L109.894 19.5206C109.959 19.4886 109.992 19.4245 109.992 19.3603C110.025 19.0397 109.894 18.1741 109.437 17.3084ZM79.9511 34.1726C81.1266 36.5451 81.4205 37.539 81.1266 38.4687C80.898 39.142 80.4082 39.655 79.7878 39.9756C79.298 40.2321 78.7756 40.4245 78.2205 40.5527L77.9919 40.6168C76.849 40.8413 75.7388 41.2581 74.7266 41.8672C73.3878 42.6367 72.8654 43.342 71.8205 44.7848L71.4286 45.2977C69.6327 47.9909 68.4899 49.1771 66.6286 50.0748C63.9837 51.3573 62.2205 50.4275 61.2735 49.9145C59.8695 49.1771 58.1388 47.029 56.7674 44.368L56.7348 44.3359C55.2654 41.7069 54.4817 39.0779 54.645 37.539C54.7756 36.481 54.9715 34.5252 57.5837 33.1466C59.4123 32.1527 61.045 31.8962 64.3429 31.9924H64.996C66.7919 31.9603 67.7062 31.9283 69.1103 31.3191C70.1878 30.8703 71.1674 30.197 72.049 29.3955L72.2123 29.2352C72.6368 28.8825 73.0939 28.5619 73.5837 28.3054C74.2041 27.9527 74.9225 27.8565 75.6082 28.081C76.5552 28.3695 77.2409 29.171 78.547 31.4794V31.5115L75.1837 33.1787C73.5184 31.8642 71.1021 32.1527 69.7633 33.7878C68.4246 35.4229 68.7184 37.7955 70.3837 39.11C72.049 40.4245 74.4654 40.1359 75.8041 38.5008C76.3919 37.7634 76.6858 36.8336 76.6205 35.9039C76.6205 35.8718 76.6205 35.8397 76.6205 35.8077L79.9511 34.0764L79.9184 34.1084L79.9511 34.1726Z" fill="#E7131A"/>
<path d="M109.992 42.1557H107.543V32.858H109.992V42.1557Z" fill="#E7131A"/>
<path d="M109.992 32.2488H107.543V30.4855H109.992V32.2488Z" fill="#E7131A"/>
<path d="M85.5022 46.3237C83.9022 44.6244 81.7144 43.855 79.4613 44.2397C76.3266 44.7206 74.0409 47.3817 74.0736 50.4916C74.1062 53.5054 76.6205 56.7435 80.6042 56.7115H80.6695C81.4858 56.7115 83.5756 56.3908 85.0124 54.884L85.3715 54.5313L84.0001 52.9924L83.9675 52.9603H83.9348L83.8042 53.0565C83.7715 53.0886 83.7389 53.1206 83.6736 53.1527C83.1838 53.6336 82.1715 54.3069 80.5389 54.3389H80.5062C79.4287 54.371 78.4164 53.9542 77.6654 53.2489C76.8818 52.5115 76.4573 51.4855 76.4246 50.4275C76.392 47.1573 79.6573 46.4199 80.4409 46.4199C81.6491 46.4199 82.7593 46.7725 83.9022 47.7664L84.0328 47.8626L84.196 47.6702L85.5022 46.3237Z" fill="#E7131A"/>
<path d="M106.367 42.1237H104.049V41.2901C103.461 41.9634 102.58 42.3802 101.665 42.3482C99.4449 42.3482 97.9429 40.713 97.9429 38.2764V32.8901H100.359V38.3085C100.359 38.8214 100.555 40.1359 102.122 40.1359C103.102 40.168 103.918 39.3985 103.951 38.4367C103.951 38.4046 103.951 38.3726 103.951 38.3085V32.8901H106.367V42.1237Z" fill="#E7131A"/>
<path d="M131.967 35.0062C130.988 34.91 130.204 35.0062 129.649 35.5833C129.127 36.0963 129.029 36.8657 129.029 37.6031V42.1558H126.612V32.8902H128.931V33.8199C129.649 32.9222 130.825 32.5054 131.967 32.7298V35.0062Z" fill="#E7131A"/>
<path d="M87.2001 51.4534C87.4613 52.5435 88.4409 53.2809 89.5511 53.2809C90.3674 53.2809 91.1511 52.9283 91.5429 52.1908H94.1225C93.5674 54.0824 91.9021 55.3649 89.5837 55.3649C86.9062 55.3328 84.7184 53.1847 84.7511 50.5237C84.7511 47.8626 86.9388 45.6504 89.5837 45.6504C92.3593 45.6504 94.6776 47.7664 94.3184 51.4214L87.2001 51.4534ZM91.9021 49.5298C91.6409 48.4718 90.6613 47.7344 89.5511 47.7664C88.4409 47.7664 87.5919 48.4397 87.2327 49.5298H91.9021Z" fill="#E7131A"/>
<path d="M103.298 55.1405H100.882V49.7222C100.882 49.1772 100.718 47.8947 99.1184 47.8947C98.1388 47.8627 97.3225 48.6321 97.2899 49.5939C97.2899 49.626 97.2899 49.6901 97.2899 49.7222V55.1405H94.8735V45.9069H97.1919V46.8046C97.7797 46.0993 98.6939 45.6825 99.6409 45.6825C101.861 45.6825 103.331 47.3176 103.331 49.7543V55.1405H103.298Z" fill="#E7131A"/>
<path d="M104.833 55.1405V47.9908H103.494V45.9069H104.833V43.5664H107.249V45.9069H108.751V47.9908H107.249V55.1405H104.833Z" fill="#E7131A"/>
<path d="M112.114 42.1878V35.0382H110.776V32.9542H112.114V30.6138H114.531V32.9542H116.033V35.0703H114.531V42.2199L112.114 42.1878Z" fill="#E7131A"/>
<path d="M111.102 51.4535C111.363 52.5436 112.343 53.281 113.453 53.281C114.27 53.281 115.053 52.9283 115.445 52.1909H118.025C117.47 54.0825 115.804 55.3649 113.486 55.3649C110.808 55.3329 108.621 53.1848 108.653 50.5558C108.653 47.8947 110.841 45.6825 113.486 45.6825C116.261 45.6825 118.58 47.7985 118.221 51.4535H111.102ZM115.837 49.5298C115.576 48.4718 114.596 47.7344 113.486 47.7665C112.376 47.7665 111.527 48.4397 111.167 49.5298H115.837Z" fill="#E7131A"/>
<path d="M124.294 48.0229C123.314 47.9267 122.531 48.0229 121.976 48.6C121.453 49.113 121.355 49.8824 121.355 50.6199V55.1725H118.939V45.9069H121.257V46.8366C121.976 45.9389 123.151 45.5221 124.294 45.7466V48.0229Z" fill="#E7131A"/>
<path d="M96.2775 32.9222C95.0694 31.2871 93.1428 30.3252 91.0857 30.3252C87.5265 30.2932 84.5877 33.0825 84.5551 36.5771C84.5224 38.2443 85.2081 39.8794 86.4163 41.0657C87.5918 42.2519 89.1918 42.9573 90.8898 42.9573H90.9551C94.4816 42.9573 97.3877 40.168 97.4204 36.7054C97.4204 36.3527 97.3877 36 97.3551 35.6794H91.3469V37.8916H94.9061C94.351 39.5588 92.751 40.6809 90.9877 40.6809H90.9551C89.8775 40.6809 88.8653 40.2321 88.1469 39.4947C87.3632 38.7252 86.9387 37.6993 86.9714 36.6413C87.0041 34.429 88.8326 32.6336 91.0857 32.6657H91.1183C92.3918 32.6657 93.6 33.2748 94.3836 34.2687L94.4489 34.3649L96.2775 32.9222Z" fill="#E7131A"/>
<path d="M125.633 42.0917H123.314V41.0978C122.563 41.8673 121.519 42.284 120.441 42.284C117.992 42.284 115.968 40.2001 115.968 37.4749C115.968 34.7497 117.992 32.6337 120.441 32.6337C121.519 32.6337 122.563 33.0505 123.314 33.8199V32.826H125.633V42.0917ZM120.8 34.8138C119.461 34.8138 118.384 35.968 118.384 37.4749C118.384 38.9497 119.461 40.0718 120.8 40.0718C122.139 40.0718 123.217 38.9176 123.217 37.4749C123.217 36.0001 122.139 34.8138 120.8 34.8138Z" fill="#E7131A"/>
<path d="M126.416 45.7466V45.971H125.992V47.0931H125.731V45.971H125.306V45.7786L126.416 45.7466ZM127.886 47.0931L127.82 46.2916C127.82 46.1954 127.82 46.0672 127.82 45.9069C127.788 46.0351 127.755 46.1954 127.69 46.3237L127.429 47.0611H127.135L126.873 46.2916C126.841 46.1954 126.808 46.0351 126.776 45.9069H126.743C126.743 46.0351 126.743 46.1634 126.743 46.2916L126.678 47.0931H126.416L126.514 45.7466H126.939L127.167 46.4199C127.2 46.516 127.233 46.6122 127.265 46.7725C127.298 46.6443 127.331 46.5481 127.363 46.4519L127.592 45.7786H127.984L128.082 47.1252L127.886 47.0931Z" fill="#E7131A"/>
</g>
<defs>
<clipPath id="clip0_1539_10353">
<rect width="80" height="42" fill="white" transform="translate(52 15)"/>
</clipPath>
</defs>
</svg>
